<?xml version="1.0" encoding="UTF-8"?>
<!DOCTYPE svg PUBLIC "-//W3C//DTD SVG 1.1//EN" "http://www.w3.org/Graphics/SVG/1.1/DTD/svg11.dtd">
<svg xmlns="http://www.w3.org/2000/svg" version="1.1" width="400px" height="198px" style="shape-rendering:geometricPrecision; text-rendering:geometricPrecision; image-rendering:optimizeQuality; fill-rule:evenodd; clip-rule:evenodd" xmlns:xlink="http://www.w3.org/1999/xlink">
<g><path style="opacity:0.153" fill="#0d0003" d="M 7.5,36.5 C 8.77329,37.0768 8.77329,37.7435 7.5,38.5C 6.53705,38.0302 6.53705,37.3635 7.5,36.5 Z"/></g>
<g><path style="opacity:0.078" fill="#0a020d" d="M 4.5,44.5 C 3.42654,43.7494 3.25988,42.7494 4,41.5C 4.48278,42.448 4.64945,43.448 4.5,44.5 Z"/></g>
<g><path style="opacity:0.153" fill="#100504" d="M 394.5,45.5 C 265.833,45.5 137.167,45.5 8.5,45.5C 8.5,45.1667 8.5,44.8333 8.5,44.5C 134.403,44.8323 260.237,44.4989 386,43.5C 388.939,44.1281 391.772,44.7948 394.5,45.5 Z"/></g>
<g><path style="opacity:0.269" fill="#0a000e" d="M 0.5,151.5 C 2.85187,152.543 3.01854,153.876 1,155.5C 0.50999,154.207 0.343323,152.873 0.5,151.5 Z"/></g>
<g><path style="opacity:0.269" fill="#0a000e" d="M 399.5,151.5 C 399.5,152.833 399.5,154.167 399.5,155.5C 396.833,154.167 396.833,152.833 399.5,151.5 Z"/></g>
<g><path style="opacity:0.078" fill="#09000b" d="M 1.5,157.5 C 2.83333,158.167 2.83333,158.167 1.5,157.5 Z"/></g>
<g><path style="opacity:0.616" fill="#1c0a0a" d="M 4.5,44.5 C 5.83333,44.5 7.16667,44.5 8.5,44.5C 8.5,44.8333 8.5,45.1667 8.5,45.5C 7.20895,45.2627 6.20895,45.596 5.5,46.5C 4.16667,83.1667 4.16667,119.833 5.5,156.5C 135.167,157.833 264.833,157.833 394.5,156.5C 395.498,119.67 395.832,82.6704 395.5,45.5C 396.419,47.3908 397.086,50.0575 397.5,53.5C 396.843,88.382 396.176,123.215 395.5,158C 392.475,158.361 389.475,158.861 386.5,159.5C 262.167,158.167 137.833,158.167 13.5,159.5C 10.2651,158.969 7.09847,158.302 4,157.5C 3.17356,119.762 3.34022,82.0954 4.5,44.5 Z"/></g>
<g><path style="opacity:1" fill="#b63631" d="M 393.5,47.5 C 393.833,47.5 394.167,47.5 394.5,47.5C 394.5,83.8333 394.5,120.167 394.5,156.5C 264.833,157.833 135.167,157.833 5.5,156.5C 5.17075,141.99 5.50408,127.657 6.5,113.5C 6.5,127.5 6.5,141.5 6.5,155.5C 135.5,155.5 264.5,155.5 393.5,155.5C 393.5,120.167 393.5,84.8333 393.5,49.5C 393.5,48.8333 393.5,48.1667 393.5,47.5 Z"/></g>
<g><path style="opacity:1" fill="#fe4d47" d="M 393.5,49.5 C 393.5,84.8333 393.5,120.167 393.5,155.5C 264.5,155.5 135.5,155.5 6.5,155.5C 6.5,141.5 6.5,127.5 6.5,113.5C 8.31833,126.128 9.15166,139.128 9,152.5C 10.1939,153.43 11.5272,154.097 13,154.5C 137.667,153.167 262.333,153.167 387,154.5C 388.473,154.097 389.806,153.43 391,152.5C 391.333,118.5 391.667,84.5 392,50.5C 392.383,49.944 392.883,49.6107 393.5,49.5 Z"/></g>
<g><path style="opacity:1" fill="#ee4845" d="M 393.5,47.5 C 393.5,48.1667 393.5,48.8333 393.5,49.5C 392.883,49.6107 392.383,49.944 392,50.5C 391.667,84.5 391.333,118.5 391,152.5C 389.806,153.43 388.473,154.097 387,154.5C 262.333,153.167 137.667,153.167 13,154.5C 11.5272,154.097 10.1939,153.43 9,152.5C 9.15166,139.128 8.31833,126.128 6.5,113.5C 6.5,91.5 6.5,69.5 6.5,47.5C 135.5,47.5 264.5,47.5 393.5,47.5 Z"/></g>
<g><path style="opacity:1" fill="#741f1c" d="M 25.5,101.5 C 30.1667,101.5 34.8333,101.5 39.5,101.5C 39.815,105.371 39.4816,109.038 38.5,112.5C 38.5,109.167 38.5,105.833 38.5,102.5C 33.9677,102.818 29.6344,102.485 25.5,101.5 Z"/></g>
<g><path style="opacity:1" fill="#611816" d="M 309.5,100.5 C 314.833,100.5 320.167,100.5 325.5,100.5C 325.815,104.371 325.482,108.038 324.5,111.5C 324.5,108.167 324.5,104.833 324.5,101.5C 319.305,101.821 314.305,101.487 309.5,100.5 Z"/></g>
<g><path style="opacity:1" fill="#721e1c" d="M 330.5,84.5 C 323.687,85.4912 316.687,85.8245 309.5,85.5C 309.5,90.5 309.5,95.5 309.5,100.5C 308.512,95.3595 308.179,90.0262 308.5,84.5C 315.833,84.5 323.167,84.5 330.5,84.5 Z"/></g>
<g><path style="opacity:1" fill="#030000" d="M 351.5,73.5 C 376.169,69.0117 387.003,79.0117 384,103.5C 382.855,107.794 380.688,111.461 377.5,114.5C 379.638,120.247 381.971,125.914 384.5,131.5C 381.554,132.655 378.554,132.821 375.5,132C 372.808,127.089 370.808,121.923 369.5,116.5C 366.833,116.5 364.167,116.5 361.5,116.5C 361.5,121.833 361.5,127.167 361.5,132.5C 358.167,132.5 354.833,132.5 351.5,132.5C 351.5,112.833 351.5,93.1667 351.5,73.5 Z"/></g>
<g><path style="opacity:1" fill="#eb4744" d="M 361.5,85.5 C 374.72,84.7417 378.72,90.575 373.5,103C 369.637,104.354 365.637,104.854 361.5,104.5C 361.5,98.1667 361.5,91.8333 361.5,85.5 Z"/></g>
<g><path style="opacity:1" fill="#010000" d="M 330.5,84.5 C 323.167,84.5 315.833,84.5 308.5,84.5C 308.179,90.0262 308.512,95.3595 309.5,100.5C 314.305,101.487 319.305,101.821 324.5,101.5C 324.5,104.833 324.5,108.167 324.5,111.5C 319.5,111.5 314.5,111.5 309.5,111.5C 309.5,114.5 309.5,117.5 309.5,120.5C 316.833,120.5 324.167,120.5 331.5,120.5C 331.5,124.5 331.5,128.5 331.5,132.5C 320.833,132.5 310.167,132.5 299.5,132.5C 299.5,112.833 299.5,93.1667 299.5,73.5C 309.833,73.5 320.167,73.5 330.5,73.5C 330.5,77.1667 330.5,80.8333 330.5,84.5 Z"/></g>
<g><path style="opacity:1" fill="#0b0201" d="M 242.5,73.5 C 273.89,70.721 286.39,84.721 280,115.5C 276.839,124.998 270.339,130.498 260.5,132C 254.509,132.499 248.509,132.666 242.5,132.5C 242.5,112.833 242.5,93.1667 242.5,73.5 Z"/></g>
<g><path style="opacity:1" fill="#ea4744" d="M 252.5,85.5 C 265.588,84.0912 272.254,89.9245 272.5,103C 272.152,116.012 265.485,121.846 252.5,120.5C 252.5,108.833 252.5,97.1667 252.5,85.5 Z"/></g>
<g><path style="opacity:1" fill="#671a18" d="M 213.5,73.5 C 216.625,72.5206 219.958,72.1872 223.5,72.5C 223.83,92.6736 223.497,112.674 222.5,132.5C 222.5,112.833 222.5,93.1667 222.5,73.5C 219.5,73.5 216.5,73.5 213.5,73.5 Z"/></g>
<g><path style="opacity:1" fill="#010000" d="M 213.5,73.5 C 216.5,73.5 219.5,73.5 222.5,73.5C 222.5,93.1667 222.5,112.833 222.5,132.5C 219.167,132.5 215.833,132.5 212.5,132.5C 208.387,121.605 203.72,110.939 198.5,100.5C 198.539,99.2438 198.039,98.2438 197,97.5C 196.5,109.162 196.333,120.829 196.5,132.5C 193.5,132.5 190.5,132.5 187.5,132.5C 187.5,112.833 187.5,93.1667 187.5,73.5C 190.898,73.1796 194.232,73.513 197.5,74.5C 202.667,85.5 207.833,96.5 213,107.5C 213.5,96.1716 213.667,84.8382 213.5,73.5 Z"/></g>
<g><path style="opacity:1" fill="#962a28" d="M 198.5,100.5 C 197.833,111.167 197.167,121.833 196.5,132.5C 196.333,120.829 196.5,109.162 197,97.5C 198.039,98.2438 198.539,99.2438 198.5,100.5 Z"/></g>
<g><path style="opacity:1" fill="#010000" d="M 131.5,73.5 C 134.833,73.5 138.167,73.5 141.5,73.5C 141.333,87.504 141.5,101.504 142,115.5C 144.388,120.226 148.222,121.726 153.5,120C 155.049,118.786 156.215,117.286 157,115.5C 157.5,101.504 157.667,87.504 157.5,73.5C 160.833,73.5 164.167,73.5 167.5,73.5C 167.876,88.5397 167.376,103.54 166,118.5C 164.331,127.668 158.831,132.335 149.5,132.5C 137.601,130.762 131.768,123.762 132,111.5C 131.5,98.8377 131.333,86.1711 131.5,73.5 Z"/></g>
<g><path style="opacity:1" fill="#040000" d="M 83.5,73.5 C 97.5302,73.3503 106.697,80.0169 111,93.5C 114.328,108.756 109.828,120.922 97.5,130C 79.9565,134.804 68.7899,128.304 64,110.5C 60.5919,92.6385 67.0919,80.3052 83.5,73.5 Z"/></g>
<g><path style="opacity:1" fill="#ea4744" d="M 82.5,85.5 C 97.7074,85.5526 104.207,93.2193 102,108.5C 97.7118,119.566 90.2118,122.733 79.5,118C 72.5026,111.431 70.6693,103.597 74,94.5C 76.3622,90.9734 79.1955,87.9734 82.5,85.5 Z"/></g>
<g><path style="opacity:1" fill="#030100" d="M 25.5,101.5 C 29.6344,102.485 33.9677,102.818 38.5,102.5C 38.5,105.833 38.5,109.167 38.5,112.5C 34.1667,112.5 29.8333,112.5 25.5,112.5C 25.5,119.167 25.5,125.833 25.5,132.5C 22.1667,132.5 18.8333,132.5 15.5,132.5C 15.5,112.833 15.5,93.1667 15.5,73.5C 25.8333,73.5 36.1667,73.5 46.5,73.5C 46.5,77.5 46.5,81.5 46.5,85.5C 39.5,85.5 32.5,85.5 25.5,85.5C 25.5,90.8333 25.5,96.1667 25.5,101.5 Z"/></g>
<g><path style="opacity:1" fill="#b43836" d="M 5.5,46.5 C 135.334,46.1671 265.001,46.5004 394.5,47.5C 394.167,47.5 393.833,47.5 393.5,47.5C 264.5,47.5 135.5,47.5 6.5,47.5C 6.5,69.5 6.5,91.5 6.5,113.5C 5.50408,127.657 5.17075,141.99 5.5,156.5C 4.16667,119.833 4.16667,83.1667 5.5,46.5 Z"/></g>
<g><path style="opacity:1" fill="#66201e" d="M 5.5,46.5 C 6.20895,45.596 7.20895,45.2627 8.5,45.5C 137.167,45.5 265.833,45.5 394.5,45.5C 394.833,45.5 395.167,45.5 395.5,45.5C 395.832,82.6704 395.498,119.67 394.5,156.5C 394.5,120.167 394.5,83.8333 394.5,47.5C 265.001,46.5004 135.334,46.1671 5.5,46.5 Z"/></g>
<g><path style="opacity:0.078" fill="#09000b" d="M 397.5,157.5 C 398.833,158.167 398.833,158.167 397.5,157.5 Z"/></g>
<g><path style="opacity:0.116" fill="#0d0108" d="M 3.5,161.5 C 5.41444,162.185 7.41444,162.685 9.5,163C 8.5,163.167 7.5,163.333 6.5,163.5C 4.97041,163.36 3.97041,162.693 3.5,161.5 Z"/></g>
<g><path style="opacity:0.116" fill="#0d0108" d="M 395.5,161.5 C 396.043,161.56 396.376,161.893 396.5,162.5C 394.579,163.641 392.579,163.808 390.5,163C 392.382,162.802 394.048,162.302 395.5,161.5 Z"/></g>
<g><path style="opacity:0.135" fill="#0e0104" d="M 6.5,166.5 C 9.13678,168.154 8.80345,168.654 5.5,168C 6.05596,167.617 6.38929,167.117 6.5,166.5 Z"/></g>
<g><path style="opacity:0.135" fill="#0e0104" d="M 392.5,166.5 C 395.137,168.154 394.803,168.654 391.5,168C 392.056,167.617 392.389,167.117 392.5,166.5 Z"/></g>
<g><path style="opacity:0.093" fill="#08040d" d="M 10.5,166.5 C 12.3675,167.786 12.5342,169.119 11,170.5C 9.23173,169.318 9.06507,167.985 10.5,166.5 Z"/></g>
<g><path style="opacity:0.093" fill="#08040d" d="M 388.5,166.5 C 390.852,167.543 391.019,168.876 389,170.5C 387.489,169.436 387.323,168.103 388.5,166.5 Z"/></g>
<g><path style="opacity:0.078" fill="#000c03" d="M 3.5,169.5 C 4.83333,170.167 4.83333,170.167 3.5,169.5 Z"/></g>
<g><path style="opacity:0.078" fill="#000c03" d="M 395.5,169.5 C 396.833,170.167 396.833,170.167 395.5,169.5 Z"/></g>
</svg>
