<?xml version="1.0" encoding="UTF-8"?>
<!DOCTYPE svg PUBLIC "-//W3C//DTD SVG 1.1//EN" "http://www.w3.org/Graphics/SVG/1.1/DTD/svg11.dtd">
<svg xmlns="http://www.w3.org/2000/svg" version="1.1" width="400px" height="198px" style="shape-rendering:geometricPrecision; text-rendering:geometricPrecision; image-rendering:optimizeQuality; fill-rule:evenodd; clip-rule:evenodd" xmlns:xlink="http://www.w3.org/1999/xlink">
<g><path style="opacity:0.965" fill="#211d20" d="M 175.5,0.5 C 221.71,-3.68915 265.376,4.81085 306.5,26C 323.249,35.7515 337.083,48.5849 348,64.5C 363.139,93.5578 360.139,120.558 339,145.5C 318.059,167.063 292.892,181.563 263.5,189C 251.351,192.303 239.018,194.636 226.5,196C 179.348,201.365 134.681,193.365 92.5,172C 69.3274,159.83 52.8274,141.664 43,117.5C 37.4176,96.0803 41.0843,76.4136 54,58.5C 68.8604,39.9671 87.3604,26.1338 109.5,17C 130.885,8.49594 152.885,2.99594 175.5,0.5 Z"/></g>
<g><path style="opacity:1" fill="#fbef04" d="M 188.5,8.5 C 230.43,6.91662 269.764,16.0833 306.5,36C 322.431,45.9306 334.931,59.0973 344,75.5C 353.466,104.448 346.632,128.948 323.5,149C 294.932,170.864 262.599,183.531 226.5,187C 182.025,192.643 139.691,185.643 99.5,166C 82.8446,157.009 69.0113,144.843 58,129.5C 44.9521,104.764 46.9521,81.4311 64,59.5C 85.7793,36.52 112.279,21.6867 143.5,15C 158.462,11.5533 173.462,9.38659 188.5,8.5 Z"/></g>
<g><path style="opacity:1" fill="#221e20" d="M 144.5,21.5 C 145.675,21.281 146.675,21.6143 147.5,22.5C 135.297,36.9791 131.797,53.3125 137,71.5C 142.957,84.4022 152.457,88.2355 165.5,83C 170.059,78.7196 173.226,73.5529 175,67.5C 176.591,52.4661 178.424,37.4661 180.5,22.5C 183.547,25.5448 186.213,28.8781 188.5,32.5C 196.167,33.8333 203.833,33.8333 211.5,32.5C 214.167,29.1667 216.833,25.8333 219.5,22.5C 221.955,37.4292 223.788,52.4292 225,67.5C 230.098,85.1407 240.598,89.6407 256.5,81C 265.404,70.2641 267.904,58.0975 264,44.5C 261.044,36.2621 257.377,28.5954 253,21.5C 274.891,27.0315 295.058,36.1981 313.5,49C 327.552,59.6069 336.719,73.4402 341,90.5C 342.608,103.737 339.941,116.071 333,127.5C 320.944,143.887 305.611,156.22 287,164.5C 288.918,159.975 290.918,155.308 293,150.5C 295.72,134.887 289.22,128.054 273.5,130C 260.903,134.261 251.736,142.428 246,154.5C 244.039,147.221 239.872,141.721 233.5,138C 227.796,136.685 222.796,138.018 218.5,142C 208.791,151.917 202.624,163.75 200,177.5C 196.846,164.023 190.68,152.19 181.5,142C 172.265,134.964 164.431,136.13 158,145.5C 156.392,148.382 155.059,151.382 154,154.5C 146.436,138.576 133.936,130.409 116.5,130C 107.342,133.824 104.176,140.657 107,150.5C 108.639,155.112 110.806,159.446 113.5,163.5C 113,163.833 112.5,164.167 112,164.5C 93.4244,155.931 77.7578,143.598 65,127.5C 52.8084,106.144 53.8084,85.4771 68,65.5C 80.3334,50.5736 95.5,39.407 113.5,32C 123.709,27.7643 134.042,24.2643 144.5,21.5 Z"/></g>
</svg>
