<?xml version="1.0" encoding="UTF-8"?>
<!DOCTYPE svg PUBLIC "-//W3C//DTD SVG 1.1//EN" "http://www.w3.org/Graphics/SVG/1.1/DTD/svg11.dtd">
<svg xmlns="http://www.w3.org/2000/svg" version="1.1" width="400px" height="198px" style="shape-rendering:geometricPrecision; text-rendering:geometricPrecision; image-rendering:optimizeQuality; fill-rule:evenodd; clip-rule:evenodd" xmlns:xlink="http://www.w3.org/1999/xlink">
<g><path style="opacity:0.318" fill="#d7d6d6" d="M 137.5,46.5 C 136.833,45.5 136.167,44.5 135.5,43.5C 92.9981,42.1692 50.3314,42.1692 7.5,43.5C 8.32496,44.3857 9.32496,44.719 10.5,44.5C 10.5,44.8333 10.5,45.1667 10.5,45.5C 7.05044,46.2436 5.38377,44.9103 5.5,41.5C 49.1679,41.3333 92.8346,41.5 136.5,42C 137.38,43.3561 137.714,44.8561 137.5,46.5 Z"/></g>
<g><path style="opacity:0.318" fill="#d6d5d5" d="M 261.5,42.5 C 304.665,41.3353 347.998,41.1686 391.5,42C 392.458,43.1475 392.125,44.1475 390.5,45C 389.207,45.49 387.873,45.6567 386.5,45.5C 387.091,44.8485 387.757,44.1818 388.5,43.5C 346.172,42.5001 303.839,42.1667 261.5,42.5 Z"/></g>
<g><path style="opacity:1" fill="#615e5f" d="M 135.5,43.5 C 135.167,43.5 134.833,43.5 134.5,43.5C 93.3299,43.168 52.3299,43.5014 11.5,44.5C 11.1667,44.5 10.8333,44.5 10.5,44.5C 9.32496,44.719 8.32496,44.3857 7.5,43.5C 50.3314,42.1692 92.9981,42.1692 135.5,43.5 Z"/></g>
<g><path style="opacity:1" fill="#605d5e" d="M 261.5,43.5 C 261.5,43.1667 261.5,42.8333 261.5,42.5C 303.839,42.1667 346.172,42.5001 388.5,43.5C 387.757,44.1818 387.091,44.8485 386.5,45.5C 385.833,45.5 385.167,45.5 384.5,45.5C 344.18,43.5057 303.514,42.839 262.5,43.5C 262.167,43.5 261.833,43.5 261.5,43.5 Z"/></g>
<g><path style="opacity:1" fill="#191516" d="M 11.5,44.5 C 52.3299,43.5014 93.3299,43.168 134.5,43.5C 96.1384,45.1806 57.4718,46.1806 18.5,46.5C 17.609,45.8902 16.609,45.5569 15.5,45.5C 14.0413,45.5674 12.7079,45.2341 11.5,44.5 Z"/></g>
<g><path style="opacity:1" fill="#191516" d="M 262.5,43.5 C 303.514,42.839 344.18,43.5057 384.5,45.5C 382.901,45.2322 381.568,45.5655 380.5,46.5C 341.524,45.5238 302.524,45.1905 263.5,45.5C 263.649,46.552 263.483,47.552 263,48.5C 262.506,46.8659 262.34,45.1992 262.5,43.5 Z"/></g>
<g><path style="opacity:0.639" fill="#b4b3b3" d="M 10.5,45.5 C 10.5,45.1667 10.5,44.8333 10.5,44.5C 10.8333,44.5 11.1667,44.5 11.5,44.5C 12.7079,45.2341 14.0413,45.5674 15.5,45.5C 15.9731,46.9063 16.9731,47.573 18.5,47.5C 22.0825,49.3604 25.7492,51.0271 29.5,52.5C 29.8333,53.1667 30.1667,53.8333 30.5,54.5C 23.8289,51.4975 17.1622,48.4975 10.5,45.5 Z"/></g>
<g><path style="opacity:1" fill="#231f20" d="M 134.5,43.5 C 134.833,43.5 135.167,43.5 135.5,43.5C 135.41,46.1522 136.076,48.4855 137.5,50.5C 137.889,54.2842 139.556,57.2842 142.5,59.5C 142.427,61.0269 143.094,62.0269 144.5,62.5C 145.268,65.5616 147.268,67.2283 150.5,67.5C 151.635,69.2132 153.302,69.8799 155.5,69.5C 161.115,70.8195 166.782,71.9862 172.5,73C 180.474,75.5056 184.808,72.6723 185.5,64.5C 186.583,64.5394 187.583,64.8728 188.5,65.5C 190.489,64.3681 192.156,63.0348 193.5,61.5C 193.833,61.5 194.167,61.5 194.5,61.5C 198.702,61.8168 202.702,61.4834 206.5,60.5C 206.263,59.209 206.596,58.209 207.5,57.5C 208.1,56.0998 209.1,55.0998 210.5,54.5C 210.5,54.8333 210.5,55.1667 210.5,55.5C 210.125,60.9111 211.125,65.9111 213.5,70.5C 214.167,70.8333 214.833,71.1667 215.5,71.5C 220.703,72.7567 226.036,72.7567 231.5,71.5C 235.902,71.6918 239.902,70.6918 243.5,68.5C 249.22,67.4388 253.553,64.4388 256.5,59.5C 257.931,58.0975 259.098,56.4308 260,54.5C 260.49,53.2068 260.657,51.8734 260.5,50.5C 261.369,48.283 261.702,45.9496 261.5,43.5C 261.833,43.5 262.167,43.5 262.5,43.5C 262.34,45.1992 262.506,46.8659 263,48.5C 263.483,47.552 263.649,46.552 263.5,45.5C 302.524,45.1905 341.524,45.5238 380.5,46.5C 378.972,47.3092 377.306,47.9759 375.5,48.5C 373.973,48.427 372.973,49.0937 372.5,50.5C 354.738,58.0924 341.238,70.4258 332,87.5C 331.174,90.7928 330.674,94.1262 330.5,97.5C 329.836,99.9779 329.503,102.645 329.5,105.5C 329.3,109.362 329.966,113.029 331.5,116.5C 330.675,117.386 329.675,117.719 328.5,117.5C 312.187,116.41 295.854,116.243 279.5,117C 278.584,117.278 277.918,117.778 277.5,118.5C 274.098,118.342 270.764,118.676 267.5,119.5C 265.143,119.337 262.81,119.503 260.5,120C 259.944,120.383 259.611,120.883 259.5,121.5C 251.303,123.55 243.303,126.217 235.5,129.5C 233.973,129.427 232.973,130.094 232.5,131.5C 220.316,137.527 210.982,146.527 204.5,158.5C 203.094,158.973 202.427,159.973 202.5,161.5C 202.5,161.833 202.5,162.167 202.5,162.5C 200.896,163.287 200.229,164.62 200.5,166.5C 199.778,167.551 198.778,168.218 197.5,168.5C 197.88,166.302 197.213,164.635 195.5,163.5C 195.5,163.167 195.5,162.833 195.5,162.5C 195.573,160.973 194.906,159.973 193.5,159.5C 190.525,153.343 186.525,147.843 181.5,143C 180.906,142.536 180.239,142.369 179.5,142.5C 178.089,140.086 176.089,138.419 173.5,137.5C 171.371,135.05 168.704,133.383 165.5,132.5C 164.508,132.672 163.842,132.338 163.5,131.5C 163.5,131.167 163.5,130.833 163.5,130.5C 161.619,127.871 158.953,126.537 155.5,126.5C 149.57,124.518 143.57,122.851 137.5,121.5C 133.841,119.658 129.841,118.658 125.5,118.5C 122.5,118.5 119.5,118.5 116.5,118.5C 116.082,117.778 115.416,117.278 114.5,117C 97.9781,116.622 81.6448,116.455 65.5,116.5C 65.5,116.167 65.5,115.833 65.5,115.5C 66.2852,113.626 66.9518,111.626 67.5,109.5C 68.6507,104.35 68.8174,99.0164 68,93.5C 67.6174,92.944 67.1174,92.6107 66.5,92.5C 64.4693,84.1111 60.1359,77.1111 53.5,71.5C 51.1002,68.0969 48.1002,65.4302 44.5,63.5C 42.7036,61.1 40.3702,59.4333 37.5,58.5C 37.0269,57.0937 36.0269,56.427 34.5,56.5C 33.5084,56.6716 32.8417,56.3382 32.5,55.5C 32.5,53.5 31.5,52.5 29.5,52.5C 25.7492,51.0271 22.0825,49.3604 18.5,47.5C 18.5,47.1667 18.5,46.8333 18.5,46.5C 57.4718,46.1806 96.1384,45.1806 134.5,43.5 Z"/></g>
<g><path style="opacity:1" fill="#595657" d="M 15.5,45.5 C 16.609,45.5569 17.609,45.8902 18.5,46.5C 18.5,46.8333 18.5,47.1667 18.5,47.5C 16.9731,47.573 15.9731,46.9063 15.5,45.5 Z"/></g>
<g><path style="opacity:0.235" fill="#d4d3d3" d="M 190.5,52.5 C 190.167,52.5 189.833,52.5 189.5,52.5C 188.811,51.2264 187.977,51.2264 187,52.5C 186.51,53.7932 186.343,55.1266 186.5,56.5C 186.167,56.5 185.833,56.5 185.5,56.5C 185.292,54.0799 185.626,51.7466 186.5,49.5C 187.689,48.5713 189.022,48.238 190.5,48.5C 190.5,49.8333 190.5,51.1667 190.5,52.5 Z"/></g>
<g><path style="opacity:0.404" fill="#dcdada" d="M 210.5,50.5 C 210.167,50.5 209.833,50.5 209.5,50.5C 209.158,49.6618 208.492,49.3284 207.5,49.5C 209.013,46.9522 210.013,47.2855 210.5,50.5 Z"/></g>
<g><path style="opacity:0.831" fill="#b3b1b2" d="M 384.5,45.5 C 385.167,45.5 385.833,45.5 386.5,45.5C 382.693,47.5493 378.693,49.2159 374.5,50.5C 374.833,49.8333 375.167,49.1667 375.5,48.5C 377.306,47.9759 378.972,47.3092 380.5,46.5C 381.568,45.5655 382.901,45.2322 384.5,45.5 Z"/></g>
<g><path style="opacity:1" fill="#757374" d="M 135.5,43.5 C 136.167,44.5 136.833,45.5 137.5,46.5C 137.5,47.1667 137.5,47.8333 137.5,48.5C 137.5,49.1667 137.5,49.8333 137.5,50.5C 136.076,48.4855 135.41,46.1522 135.5,43.5 Z"/></g>
<g><path style="opacity:1" fill="#9b9999" d="M 261.5,42.5 C 261.5,42.8333 261.5,43.1667 261.5,43.5C 261.702,45.9496 261.369,48.283 260.5,50.5C 259.857,52.0764 258.857,53.4097 257.5,54.5C 258.32,50.2245 259.653,46.2245 261.5,42.5 Z"/></g>
<g><path style="opacity:1" fill="#6e6c6c" d="M 375.5,48.5 C 375.167,49.1667 374.833,49.8333 374.5,50.5C 373.833,50.5 373.167,50.5 372.5,50.5C 372.973,49.0937 373.973,48.427 375.5,48.5 Z"/></g>
<g><path style="opacity:1" fill="#b2b0b1" d="M 137.5,48.5 C 139.403,51.9789 141.07,55.6456 142.5,59.5C 139.556,57.2842 137.889,54.2842 137.5,50.5C 137.5,49.8333 137.5,49.1667 137.5,48.5 Z"/></g>
<g><path style="opacity:1" fill="#6e6b6c" d="M 189.5,52.5 C 189.5,52.8333 189.5,53.1667 189.5,53.5C 187.952,53.8212 187.285,54.8212 187.5,56.5C 187.167,56.5 186.833,56.5 186.5,56.5C 186.343,55.1266 186.51,53.7932 187,52.5C 187.977,51.2264 188.811,51.2264 189.5,52.5 Z"/></g>
<g><path style="opacity:1" fill="#9b999a" d="M 207.5,49.5 C 208.492,49.3284 209.158,49.6618 209.5,50.5C 208.833,51.5 208.167,52.5 207.5,53.5C 207.5,52.1667 207.5,50.8333 207.5,49.5 Z"/></g>
<g><path style="opacity:1" fill="#787677" d="M 29.5,52.5 C 31.5,52.5 32.5,53.5 32.5,55.5C 31.5084,55.6716 30.8417,55.3382 30.5,54.5C 30.1667,53.8333 29.8333,53.1667 29.5,52.5 Z"/></g>
<g><path style="opacity:1" fill="#484546" d="M 260.5,50.5 C 260.657,51.8734 260.49,53.2068 260,54.5C 259.098,56.4308 257.931,58.0975 256.5,59.5C 257.038,57.8828 257.371,56.2161 257.5,54.5C 258.857,53.4097 259.857,52.0764 260.5,50.5 Z"/></g>
<g><path style="opacity:0.129" fill="#d3d2d3" d="M 210.5,51.5 C 212.118,54.1709 212.785,57.1709 212.5,60.5C 211.833,58.8333 211.167,57.1667 210.5,55.5C 210.5,55.1667 210.5,54.8333 210.5,54.5C 210.5,53.5 210.5,52.5 210.5,51.5 Z"/></g>
<g><path style="opacity:1" fill="#585555" d="M 209.5,50.5 C 209.833,50.5 210.167,50.5 210.5,50.5C 210.5,50.8333 210.5,51.1667 210.5,51.5C 210.5,52.5 210.5,53.5 210.5,54.5C 209.1,55.0998 208.1,56.0998 207.5,57.5C 207.5,56.1667 207.5,54.8333 207.5,53.5C 208.167,52.5 208.833,51.5 209.5,50.5 Z"/></g>
<g><path style="opacity:0.659" fill="#b9b8b8" d="M 34.5,56.5 C 36.0269,56.427 37.0269,57.0937 37.5,58.5C 35.9731,58.573 34.9731,57.9063 34.5,56.5 Z"/></g>
<g><path style="opacity:1" fill="#1d191a" d="M 189.5,53.5 C 189.5,54.5 189.5,55.5 189.5,56.5C 188.833,64.5 188.167,64.5 187.5,56.5C 187.285,54.8212 187.952,53.8212 189.5,53.5 Z"/></g>
<g><path style="opacity:1" fill="#b1b0b0" d="M 189.5,52.5 C 189.833,52.5 190.167,52.5 190.5,52.5C 190.829,55.8267 192.163,58.4934 194.5,60.5C 194.5,60.8333 194.5,61.1667 194.5,61.5C 194.167,61.5 193.833,61.5 193.5,61.5C 192.504,61.5858 191.671,61.2524 191,60.5C 190.79,58.9419 190.29,57.6085 189.5,56.5C 189.5,55.5 189.5,54.5 189.5,53.5C 189.5,53.1667 189.5,52.8333 189.5,52.5 Z"/></g>
<g><path style="opacity:0.341" fill="#cac9c9" d="M 207.5,53.5 C 207.5,54.8333 207.5,56.1667 207.5,57.5C 206.596,58.209 206.263,59.209 206.5,60.5C 206.167,60.5 205.833,60.5 205.5,60.5C 205.171,57.7718 205.837,55.4385 207.5,53.5 Z"/></g>
<g><path style="opacity:0.467" fill="#c2c1c1" d="M 37.5,58.5 C 40.3702,59.4333 42.7036,61.1 44.5,63.5C 41.6298,62.5667 39.2964,60.9 37.5,58.5 Z"/></g>
<g><path style="opacity:1" fill="#9f9d9d" d="M 205.5,60.5 C 205.833,60.5 206.167,60.5 206.5,60.5C 202.702,61.4834 198.702,61.8168 194.5,61.5C 194.5,61.1667 194.5,60.8333 194.5,60.5C 198.117,59.3433 201.784,59.3433 205.5,60.5 Z"/></g>
<g><path style="opacity:0.49" fill="#d0d0d0" d="M 142.5,59.5 C 143.906,59.9731 144.573,60.9731 144.5,62.5C 143.094,62.0269 142.427,61.0269 142.5,59.5 Z"/></g>
<g><path style="opacity:0.937" fill="#bcbbbb" d="M 257.5,54.5 C 257.371,56.2161 257.038,57.8828 256.5,59.5C 253.553,64.4388 249.22,67.4388 243.5,68.5C 242.833,68.5 242.167,68.5 241.5,68.5C 248.978,66.3599 254.311,61.6933 257.5,54.5 Z"/></g>
<g><path style="opacity:1" fill="#353132" d="M 186.5,56.5 C 186.833,56.5 187.167,56.5 187.5,56.5C 188.167,64.5 188.833,64.5 189.5,56.5C 190.29,57.6085 190.79,58.9419 191,60.5C 191.671,61.2524 192.504,61.5858 193.5,61.5C 192.156,63.0348 190.489,64.3681 188.5,65.5C 187.583,64.8728 186.583,64.5394 185.5,64.5C 185.833,61.8333 186.167,59.1667 186.5,56.5 Z"/></g>
<g><path style="opacity:1" fill="#c3c2c2" d="M 44.5,63.5 C 48.1002,65.4302 51.1002,68.0969 53.5,71.5C 49.8998,69.5698 46.8998,66.9031 44.5,63.5 Z"/></g>
<g><path style="opacity:0.851" fill="#b1afb0" d="M 144.5,62.5 C 147.831,65.2349 151.497,67.2349 155.5,68.5C 153.784,68.3713 152.117,68.038 150.5,67.5C 147.268,67.2283 145.268,65.5616 144.5,62.5 Z"/></g>
<g><path style="opacity:1" fill="#757273" d="M 210.5,55.5 C 211.167,57.1667 211.833,58.8333 212.5,60.5C 213.473,62.9479 213.806,65.6146 213.5,68.5C 213.5,69.1667 213.5,69.8333 213.5,70.5C 211.125,65.9111 210.125,60.9111 210.5,55.5 Z"/></g>
<g><path style="opacity:1" fill="#6a6767" d="M 150.5,67.5 C 152.117,68.038 153.784,68.3713 155.5,68.5C 155.5,68.8333 155.5,69.1667 155.5,69.5C 153.302,69.8799 151.635,69.2132 150.5,67.5 Z"/></g>
<g><path style="opacity:0.447" fill="#b3b2b2" d="M 185.5,56.5 C 185.833,56.5 186.167,56.5 186.5,56.5C 186.167,59.1667 185.833,61.8333 185.5,64.5C 184.808,72.6723 180.474,75.5056 172.5,73C 166.782,71.9862 161.115,70.8195 155.5,69.5C 155.5,69.1667 155.5,68.8333 155.5,68.5C 160.569,68.8496 165.569,69.6829 170.5,71C 174.167,71.6667 177.833,71.6667 181.5,71C 182,70.5 182.5,70 183,69.5C 183.917,65.1384 184.751,60.8051 185.5,56.5 Z"/></g>
<g><path style="opacity:0.341" fill="#b7b5b6" d="M 372.5,50.5 C 373.167,50.5 373.833,50.5 374.5,50.5C 366.426,55.3788 358.426,60.5455 350.5,66C 334.907,78.6142 328.907,94.7809 332.5,114.5C 331.732,113.737 331.232,112.737 331,111.5C 330.501,106.845 330.334,102.179 330.5,97.5C 330.674,94.1262 331.174,90.7928 332,87.5C 341.238,70.4258 354.738,58.0924 372.5,50.5 Z"/></g>
<g><path style="opacity:0.553" fill="#d3d2d3" d="M 213.5,68.5 C 214.906,68.9731 215.573,69.9731 215.5,71.5C 214.833,71.1667 214.167,70.8333 213.5,70.5C 213.5,69.8333 213.5,69.1667 213.5,68.5 Z"/></g>
<g><path style="opacity:0.702" fill="#d0cecf" d="M 239.5,68.5 C 237.162,70.0395 234.495,70.7062 231.5,70.5C 233.905,69.2318 236.572,68.5651 239.5,68.5 Z"/></g>
<g><path style="opacity:1" fill="#6d6a6b" d="M 239.5,68.5 C 240.167,68.5 240.833,68.5 241.5,68.5C 242.167,68.5 242.833,68.5 243.5,68.5C 239.902,70.6918 235.902,71.6918 231.5,71.5C 231.5,71.1667 231.5,70.8333 231.5,70.5C 234.495,70.7062 237.162,70.0395 239.5,68.5 Z"/></g>
<g><path style="opacity:0.308" fill="#c9c8c9" d="M 231.5,70.5 C 231.5,70.8333 231.5,71.1667 231.5,71.5C 226.036,72.7567 220.703,72.7567 215.5,71.5C 220.87,71.6079 226.203,71.2745 231.5,70.5 Z"/></g>
<g><path style="opacity:0.59" fill="#afaeae" d="M 53.5,71.5 C 60.1359,77.1111 64.4693,84.1111 66.5,92.5C 67.4069,98.1064 67.7402,103.773 67.5,109.5C 66.9518,111.626 66.2852,113.626 65.5,115.5C 65.5,114.833 65.5,114.167 65.5,113.5C 67.845,97.5665 63.845,83.5665 53.5,71.5 Z"/></g>
<g><path style="opacity:1" fill="#474344" d="M 66.5,92.5 C 67.1174,92.6107 67.6174,92.944 68,93.5C 68.8174,99.0164 68.6507,104.35 67.5,109.5C 67.7402,103.773 67.4069,98.1064 66.5,92.5 Z"/></g>
<g><path style="opacity:1" fill="#575455" d="M 330.5,97.5 C 330.334,102.179 330.501,106.845 331,111.5C 331.232,112.737 331.732,113.737 332.5,114.5C 332.5,115.833 332.5,117.167 332.5,118.5C 331.167,118.5 329.833,118.5 328.5,118.5C 328.5,118.167 328.5,117.833 328.5,117.5C 329.675,117.719 330.675,117.386 331.5,116.5C 329.966,113.029 329.3,109.362 329.5,105.5C 329.503,102.645 329.836,99.9779 330.5,97.5 Z"/></g>
<g><path style="opacity:1" fill="#777575" d="M 65.5,116.5 C 81.6448,116.455 97.9781,116.622 114.5,117C 115.416,117.278 116.082,117.778 116.5,118.5C 111.537,117.746 106.537,117.413 101.5,117.5C 97.1667,117.5 92.8333,117.5 88.5,117.5C 81.9766,117.368 75.4766,117.702 69,118.5C 67.5,118.167 66,117.833 64.5,117.5C 64.6236,116.893 64.9569,116.56 65.5,116.5 Z"/></g>
<g><path style="opacity:1" fill="#777575" d="M 328.5,117.5 C 328.5,117.833 328.5,118.167 328.5,118.5C 322.171,118.1 315.838,117.767 309.5,117.5C 305.167,117.5 300.833,117.5 296.5,117.5C 290.131,117.347 283.797,117.68 277.5,118.5C 277.918,117.778 278.584,117.278 279.5,117C 295.854,116.243 312.187,116.41 328.5,117.5 Z"/></g>
<g><path style="opacity:0.553" fill="#c9c8c8" d="M 65.5,113.5 C 65.5,114.167 65.5,114.833 65.5,115.5C 65.5,115.833 65.5,116.167 65.5,116.5C 64.9569,116.56 64.6236,116.893 64.5,117.5C 66,117.833 67.5,118.167 69,118.5C 75.4766,117.702 81.9766,117.368 88.5,117.5C 80.3836,119.043 72.0503,119.71 63.5,119.5C 63.2594,117.102 63.9261,115.102 65.5,113.5 Z"/></g>
<g><path style="opacity:0.382" fill="#d1d1d1" d="M 332.5,114.5 C 333.931,115.78 334.598,117.447 334.5,119.5C 325.944,119.78 317.61,119.114 309.5,117.5C 315.838,117.767 322.171,118.1 328.5,118.5C 329.833,118.5 331.167,118.5 332.5,118.5C 332.5,117.167 332.5,115.833 332.5,114.5 Z"/></g>
<g><path style="opacity:0.745" fill="#c8c8c8" d="M 101.5,117.5 C 106.537,117.413 111.537,117.746 116.5,118.5C 119.5,118.5 122.5,118.5 125.5,118.5C 128.02,119.918 130.687,120.918 133.5,121.5C 122.686,120.315 112.019,118.982 101.5,117.5 Z"/></g>
<g><path style="opacity:1" fill="#646263" d="M 125.5,118.5 C 129.841,118.658 133.841,119.658 137.5,121.5C 136.167,121.5 134.833,121.5 133.5,121.5C 130.687,120.918 128.02,119.918 125.5,118.5 Z"/></g>
<g><path style="opacity:1" fill="#504d4e" d="M 267.5,119.5 C 264.997,120.371 262.33,121.037 259.5,121.5C 259.611,120.883 259.944,120.383 260.5,120C 262.81,119.503 265.143,119.337 267.5,119.5 Z"/></g>
<g><path style="opacity:0.553" fill="#bdbbbc" d="M 296.5,117.5 C 275.086,118.737 254.419,123.404 234.5,131.5C 234.833,130.833 235.167,130.167 235.5,129.5C 243.303,126.217 251.303,123.55 259.5,121.5C 262.33,121.037 264.997,120.371 267.5,119.5C 270.764,118.676 274.098,118.342 277.5,118.5C 283.797,117.68 290.131,117.347 296.5,117.5 Z"/></g>
<g><path style="opacity:0.659" fill="#b3b1b2" d="M 133.5,121.5 C 134.833,121.5 136.167,121.5 137.5,121.5C 143.57,122.851 149.57,124.518 155.5,126.5C 155.833,127.167 156.167,127.833 156.5,128.5C 148.829,125.777 141.162,123.444 133.5,121.5 Z"/></g>
<g><path style="opacity:1" fill="#5d5a5a" d="M 155.5,126.5 C 158.953,126.537 161.619,127.871 163.5,130.5C 162.167,130.167 160.833,129.833 159.5,129.5C 158.209,129.737 157.209,129.404 156.5,128.5C 156.167,127.833 155.833,127.167 155.5,126.5 Z"/></g>
<g><path style="opacity:0.235" fill="#d0cfcf" d="M 159.5,129.5 C 160.833,129.833 162.167,130.167 163.5,130.5C 163.5,130.833 163.5,131.167 163.5,131.5C 161.62,131.771 160.287,131.104 159.5,129.5 Z"/></g>
<g><path style="opacity:0.914" fill="#7c7a7b" d="M 235.5,129.5 C 235.167,130.167 234.833,130.833 234.5,131.5C 233.833,131.5 233.167,131.5 232.5,131.5C 232.973,130.094 233.973,129.427 235.5,129.5 Z"/></g>
<g><path style="opacity:0.318" fill="#c7c6c7" d="M 165.5,132.5 C 168.704,133.383 171.371,135.05 173.5,137.5C 170.296,136.617 167.629,134.95 165.5,132.5 Z"/></g>
<g><path style="opacity:0.894" fill="#c0bfbf" d="M 173.5,137.5 C 176.089,138.419 178.089,140.086 179.5,142.5C 176.911,141.581 174.911,139.914 173.5,137.5 Z"/></g>
<g><path style="opacity:0.722" fill="#b4b3b3" d="M 179.5,142.5 C 180.239,142.369 180.906,142.536 181.5,143C 186.525,147.843 190.525,153.343 193.5,159.5C 193.5,160.167 193.5,160.833 193.5,161.5C 189.588,154.706 184.922,148.373 179.5,142.5 Z"/></g>
<g><path style="opacity:0.553" fill="#b5b3b4" d="M 232.5,131.5 C 233.167,131.5 233.833,131.5 234.5,131.5C 221.908,138.425 211.908,148.091 204.5,160.5C 204.5,159.833 204.5,159.167 204.5,158.5C 210.982,146.527 220.316,137.527 232.5,131.5 Z"/></g>
<g><path style="opacity:1" fill="#6d6b6b" d="M 204.5,158.5 C 204.5,159.167 204.5,159.833 204.5,160.5C 203.833,160.833 203.167,161.167 202.5,161.5C 202.427,159.973 203.094,158.973 204.5,158.5 Z"/></g>
<g><path style="opacity:1" fill="#696767" d="M 193.5,159.5 C 194.906,159.973 195.573,160.973 195.5,162.5C 194.833,162.167 194.167,161.833 193.5,161.5C 193.5,160.833 193.5,160.167 193.5,159.5 Z"/></g>
<g><path style="opacity:0.659" fill="#c4c3c4" d="M 204.5,160.5 C 204.34,162.153 203.674,163.486 202.5,164.5C 202.5,163.833 202.5,163.167 202.5,162.5C 202.5,162.167 202.5,161.833 202.5,161.5C 203.167,161.167 203.833,160.833 204.5,160.5 Z"/></g>
<g><path style="opacity:1" fill="#5e5b5c" d="M 202.5,162.5 C 202.5,163.167 202.5,163.833 202.5,164.5C 201.833,165.167 201.167,165.833 200.5,166.5C 200.229,164.62 200.896,163.287 202.5,162.5 Z"/></g>
<g><path style="opacity:1" fill="#595657" d="M 195.5,163.5 C 197.213,164.635 197.88,166.302 197.5,168.5C 196.463,167.07 195.796,165.403 195.5,163.5 Z"/></g>
<g><path style="opacity:0.404" fill="#c9c8c9" d="M 193.5,161.5 C 194.167,161.833 194.833,162.167 195.5,162.5C 195.5,162.833 195.5,163.167 195.5,163.5C 195.796,165.403 196.463,167.07 197.5,168.5C 197.5,169.5 197.5,170.5 197.5,171.5C 195.6,168.482 194.267,165.149 193.5,161.5 Z"/></g>
<g><path style="opacity:0.596" fill="#c4c2c2" d="M 202.5,164.5 C 202.598,166.553 201.931,168.22 200.5,169.5C 200.5,168.5 200.5,167.5 200.5,166.5C 201.167,165.833 201.833,165.167 202.5,164.5 Z"/></g>
<g><path style="opacity:1" fill="#696667" d="M 200.5,166.5 C 200.5,167.5 200.5,168.5 200.5,169.5C 200.5,169.833 200.5,170.167 200.5,170.5C 199.609,171.11 198.609,171.443 197.5,171.5C 197.5,170.5 197.5,169.5 197.5,168.5C 198.778,168.218 199.778,167.551 200.5,166.5 Z"/></g>
<g><path style="opacity:0.255" fill="#c7c7c7" d="M 200.5,170.5 C 200.041,175.025 199.041,175.358 197.5,171.5C 198.609,171.443 199.609,171.11 200.5,170.5 Z"/></g>
</svg>
