<?xml version="1.0" encoding="UTF-8"?>
<!DOCTYPE svg PUBLIC "-//W3C//DTD SVG 1.1//EN" "http://www.w3.org/Graphics/SVG/1.1/DTD/svg11.dtd">
<svg xmlns="http://www.w3.org/2000/svg" version="1.1" width="400px" height="198px" style="shape-rendering:geometricPrecision; text-rendering:geometricPrecision; image-rendering:optimizeQuality; fill-rule:evenodd; clip-rule:evenodd" xmlns:xlink="http://www.w3.org/1999/xlink">
<g><path style="opacity:0.012" fill="#fafff0" d="M 149.5,8.5 C 149.897,7.47498 150.563,7.30831 151.5,8C 150.906,8.46434 150.239,8.63101 149.5,8.5 Z"/></g>
<g><path style="opacity:1" fill="#4b5b41" d="M 109.5,21.5 C 109.5,21.8333 109.5,22.1667 109.5,22.5C 102.291,15.5925 93.6247,12.0925 83.5,12C 77.5,11.3333 71.5,11.3333 65.5,12C 58.1304,13.2919 51.1304,15.4586 44.5,18.5C 53.5945,11.6956 63.9278,8.69557 75.5,9.5C 84.45,9.38053 93.1166,10.8805 101.5,14C 104.855,15.8305 107.522,18.3305 109.5,21.5 Z"/></g>
<g><path style="opacity:0.945" fill="#4f5a49" d="M 200.5,45.5 C 199.221,46.968 197.554,47.6347 195.5,47.5C 196.398,46.8423 197.398,46.1757 198.5,45.5C 194.196,37.5273 187.529,33.8607 178.5,34.5C 177.833,34.5 177.167,34.5 176.5,34.5C 176.514,29.046 174.848,24.2127 171.5,20C 158.566,11.9256 144.566,9.25898 129.5,12C 123.47,15.0097 117.804,18.5097 112.5,22.5C 112.5,22.1667 112.5,21.8333 112.5,21.5C 112.833,20.8333 113.167,20.1667 113.5,19.5C 118.821,15.8364 124.488,12.6698 130.5,10C 147.18,7.04436 162.014,10.8777 175,21.5C 176.466,24.7314 177.633,28.0647 178.5,31.5C 188.733,31.7534 196.067,36.42 200.5,45.5 Z"/></g>
<g><path style="opacity:0.008" fill="#fcfdef" d="M 113.5,19.5 C 112.761,19.631 112.094,19.4643 111.5,19C 112.437,18.3083 113.103,18.475 113.5,19.5 Z"/></g>
<g><path style="opacity:1" fill="#5d8f36" d="M 176.5,34.5 C 169.712,36.2257 163.378,39.059 157.5,43C 145.601,45.0185 133.601,46.5185 121.5,47.5C 119.97,38.9353 116.637,31.102 111.5,24C 112.056,23.6174 112.389,23.1174 112.5,22.5C 117.804,18.5097 123.47,15.0097 129.5,12C 144.566,9.25898 158.566,11.9256 171.5,20C 174.848,24.2127 176.514,29.046 176.5,34.5 Z"/></g>
<g><path style="opacity:0.016" fill="#f4fdf0" d="M 33.5,24.5 C 34.8333,25.1667 34.8333,25.1667 33.5,24.5 Z"/></g>
<g><path style="opacity:0.016" fill="#f8feef" d="M 180.5,30.5 C 181.833,31.1667 181.833,31.1667 180.5,30.5 Z"/></g>
<g><path style="opacity:1" fill="#47593e" d="M 44.5,18.5 C 41.8991,21.6043 39.0657,24.6043 36,27.5C 30.8317,36.9992 26.8317,46.9992 24,57.5C 23.1107,58.8882 22.6107,58.7215 22.5,57C 23.5767,54.1166 24.41,51.2833 25,48.5C 22.2872,50.7195 19.4539,52.7195 16.5,54.5C 16.5106,52.9826 17.1772,51.8159 18.5,51C 21,49.1667 23.5,47.3333 26,45.5C 28.1118,39.2744 30.7785,33.2744 34,27.5C 37.0977,23.8926 40.5977,20.8926 44.5,18.5 Z"/></g>
<g><path style="opacity:0.999" fill="#5d8e36" d="M 109.5,22.5 C 111.733,27.2987 114.233,31.9654 117,36.5C 118.352,39.7201 119.186,43.0534 119.5,46.5C 110.288,43.8922 101.288,40.7255 92.5,37C 83.505,35.7864 74.505,34.6198 65.5,33.5C 58.632,34.623 51.9654,36.4563 45.5,39C 44.5494,39.7175 44.3828,40.5509 45,41.5C 52.3886,37.861 60.222,35.861 68.5,35.5C 77.9471,36.2894 87.2804,37.7894 96.5,40C 103.817,43.7747 111.484,46.7747 119.5,49C 122.624,53.414 125.624,57.914 128.5,62.5C 128,62.8333 127.5,63.1667 127,63.5C 114.017,59.8405 101.517,55.0071 89.5,49C 80.2587,46.9173 70.9254,46.2506 61.5,47C 54.0803,50.5285 46.4136,53.3618 38.5,55.5C 40.0453,56.4519 41.712,56.7852 43.5,56.5C 44.2389,56.369 44.9056,56.5357 45.5,57C 48.3355,60.6668 51.3355,64.1668 54.5,67.5C 56.6367,70.973 59.6367,73.3064 63.5,74.5C 66.0892,75.4194 68.0892,77.086 69.5,79.5C 79.3833,88.6194 91.0499,91.7861 104.5,89C 110.186,88.1079 115.853,87.1079 121.5,86C 122.942,85.6232 123.942,84.7899 124.5,83.5C 124.351,82.448 124.517,81.448 125,80.5C 125.333,80.8333 125.667,81.1667 126,81.5C 127.039,80.2899 128.206,79.2899 129.5,78.5C 128.833,80.1667 128.167,81.8333 127.5,83.5C 126.294,86.2978 124.294,88.4645 121.5,90C 101.531,99.9812 81.6977,99.8146 62,89.5C 60.2785,89.6107 60.1118,90.1107 61.5,91C 80.4998,100.285 99.8331,100.952 119.5,93C 122.681,90.9083 125.681,88.575 128.5,86C 132.91,85.6833 137.243,86.1833 141.5,87.5C 144.422,89.5312 147.755,90.6978 151.5,91C 159.012,91.8218 166.345,91.6552 173.5,90.5C 182.214,89.6626 190.214,86.9959 197.5,82.5C 199.736,81.6109 201.736,80.2776 203.5,78.5C 204.631,80.0745 204.798,81.7412 204,83.5C 202.053,85.0634 200.886,87.0634 200.5,89.5C 197.06,91.0549 193.727,92.8882 190.5,95C 185.304,96.7539 179.971,97.9206 174.5,98.5C 182.344,99.3738 189.677,97.7071 196.5,93.5C 198.104,94.287 198.771,95.6203 198.5,97.5C 197.589,99.8029 195.923,101.303 193.5,102C 177.328,102.169 161.328,102.669 145.5,103.5C 134.511,105.894 123.511,107.561 112.5,108.5C 111.833,108.5 111.167,108.5 110.5,108.5C 101.146,108.61 91.8123,108.277 82.5,107.5C 68.683,103.8 65.3497,107.966 72.5,120C 74.9088,121.707 77.5755,122.54 80.5,122.5C 106.483,124.802 132.15,122.802 157.5,116.5C 167.5,116.833 177.5,117.167 187.5,117.5C 188.959,117.433 190.292,117.766 191.5,118.5C 190.701,121.43 190.368,124.43 190.5,127.5C 188.64,131.605 185.64,134.605 181.5,136.5C 172.023,139.118 162.356,140.618 152.5,141C 120.832,141.195 89.1654,140.862 57.5,140C 44.258,137.961 31.258,134.961 18.5,131C 16.34,129.668 14.34,128.168 12.5,126.5C 11.2719,125.694 10.2719,124.694 9.5,123.5C 9.5,106.167 9.5,88.8333 9.5,71.5C 12.0694,66.0152 14.4027,60.3485 16.5,54.5C 19.4539,52.7195 22.2872,50.7195 25,48.5C 24.41,51.2833 23.5767,54.1166 22.5,57C 22.6107,58.7215 23.1107,58.8882 24,57.5C 26.8317,46.9992 30.8317,36.9992 36,27.5C 39.0657,24.6043 41.8991,21.6043 44.5,18.5C 51.1304,15.4586 58.1304,13.2919 65.5,12C 71.5,11.3333 77.5,11.3333 83.5,12C 93.6247,12.0925 102.291,15.5925 109.5,22.5 Z"/></g>
<g><path style="opacity:1" fill="#f8f8f8" d="M 129.5,78.5 C 128.206,79.2899 127.039,80.2899 126,81.5C 125.667,81.1667 125.333,80.8333 125,80.5C 124.517,81.448 124.351,82.448 124.5,83.5C 122.254,84.4552 119.921,85.1218 117.5,85.5C 117.794,79.9723 116.961,74.6389 115,69.5C 102.306,60.7955 88.8059,59.2955 74.5,65C 73.6667,65.8333 72.8333,66.6667 72,67.5C 72.1018,71.9558 71.2684,75.9558 69.5,79.5C 68.0892,77.086 66.0892,75.4194 63.5,74.5C 60.7915,71.7915 57.7915,69.4581 54.5,67.5C 51.3355,64.1668 48.3355,60.6668 45.5,57C 44.9056,56.5357 44.2389,56.369 43.5,56.5C 49.6899,53.5929 56.0233,50.7595 62.5,48C 70.892,47.6747 79.2254,48.3413 87.5,50C 101.505,56.4471 115.838,62.1138 130.5,67C 131.097,68.0617 131.43,69.2284 131.5,70.5C 130.825,73.1778 130.158,75.8445 129.5,78.5 Z"/></g>
<g><path style="opacity:1" fill="#2f4826" d="M 109.5,21.5 C 110.5,21.5 111.5,21.5 112.5,21.5C 112.5,21.8333 112.5,22.1667 112.5,22.5C 112.389,23.1174 112.056,23.6174 111.5,24C 116.637,31.102 119.97,38.9353 121.5,47.5C 133.601,46.5185 145.601,45.0185 157.5,43C 163.378,39.059 169.712,36.2257 176.5,34.5C 177.167,34.5 177.833,34.5 178.5,34.5C 170.774,37.6945 163.108,41.1945 155.5,45C 144.503,46.7063 133.503,48.2063 122.5,49.5C 124.979,54.8377 128.146,59.8377 132,64.5C 132.495,66.4727 132.662,68.4727 132.5,70.5C 148.336,67.7248 162.669,61.5581 175.5,52C 181.909,49.3212 188.575,47.8212 195.5,47.5C 197.554,47.6347 199.221,46.968 200.5,45.5C 200.5,46.5 200.5,47.5 200.5,48.5C 185.768,48.8737 172.768,53.7071 161.5,63C 154.426,65.7445 147.426,68.5778 140.5,71.5C 141.833,71.8333 143.167,72.1667 144.5,72.5C 147.817,71.9469 151.15,71.6135 154.5,71.5C 148.057,73.659 141.391,73.9923 134.5,72.5C 132.485,74.2388 130.818,76.2388 129.5,78.5C 130.158,75.8445 130.825,73.1778 131.5,70.5C 131.43,69.2284 131.097,68.0617 130.5,67C 115.838,62.1138 101.505,56.4471 87.5,50C 79.2254,48.3413 70.892,47.6747 62.5,48C 56.0233,50.7595 49.6899,53.5929 43.5,56.5C 41.712,56.7852 40.0453,56.4519 38.5,55.5C 46.4136,53.3618 54.0803,50.5285 61.5,47C 70.9254,46.2506 80.2587,46.9173 89.5,49C 101.517,55.0071 114.017,59.8405 127,63.5C 127.5,63.1667 128,62.8333 128.5,62.5C 125.624,57.914 122.624,53.414 119.5,49C 111.484,46.7747 103.817,43.7747 96.5,40C 87.2804,37.7894 77.9471,36.2894 68.5,35.5C 60.222,35.861 52.3886,37.861 45,41.5C 44.3828,40.5509 44.5494,39.7175 45.5,39C 51.9654,36.4563 58.632,34.623 65.5,33.5C 74.505,34.6198 83.505,35.7864 92.5,37C 101.288,40.7255 110.288,43.8922 119.5,46.5C 119.186,43.0534 118.352,39.7201 117,36.5C 114.233,31.9654 111.733,27.2987 109.5,22.5C 109.5,22.1667 109.5,21.8333 109.5,21.5 Z"/></g>
<g><path style="opacity:1" fill="#33422a" d="M 205.5,55.5 C 205.672,56.4916 205.338,57.1583 204.5,57.5C 202.165,56.3347 199.665,55.668 197,55.5C 189.673,56.5807 182.507,58.2474 175.5,60.5C 177.121,58.8828 179.121,57.7162 181.5,57C 189.409,54.5984 197.409,54.0984 205.5,55.5 Z"/></g>
<g><path style="opacity:1" fill="#f7f7f7" d="M 204.5,57.5 C 207.116,63.4421 207.116,69.4421 204.5,75.5C 201.812,77.5211 199.479,79.8544 197.5,82.5C 195.527,78.2931 194.36,73.6264 194,68.5C 192.125,62.8446 188.292,61.0113 182.5,63C 173.48,69.2003 167.813,77.7003 165.5,88.5C 163.952,89.7943 161.952,90.4609 159.5,90.5C 153.397,90.0122 147.397,89.0122 141.5,87.5C 137.249,85.1124 132.583,83.7791 127.5,83.5C 128.167,81.8333 128.833,80.1667 129.5,78.5C 130.818,76.2388 132.485,74.2388 134.5,72.5C 141.391,73.9923 148.057,73.659 154.5,71.5C 161.97,68.5997 168.97,64.933 175.5,60.5C 182.507,58.2474 189.673,56.5807 197,55.5C 199.665,55.668 202.165,56.3347 204.5,57.5 Z"/></g>
<g><path style="opacity:1" fill="#5b8939" d="M 200.5,48.5 C 201.708,49.2341 203.041,49.5674 204.5,49.5C 204.833,51.5 205.167,53.5 205.5,55.5C 197.409,54.0984 189.409,54.5984 181.5,57C 179.121,57.7162 177.121,58.8828 175.5,60.5C 168.97,64.933 161.97,68.5997 154.5,71.5C 151.15,71.6135 147.817,71.9469 144.5,72.5C 143.167,72.1667 141.833,71.8333 140.5,71.5C 147.426,68.5778 154.426,65.7445 161.5,63C 172.768,53.7071 185.768,48.8737 200.5,48.5 Z"/></g>
<g><path style="opacity:1" fill="#5e8f37" d="M 178.5,34.5 C 187.529,33.8607 194.196,37.5273 198.5,45.5C 197.398,46.1757 196.398,46.8423 195.5,47.5C 188.575,47.8212 181.909,49.3212 175.5,52C 162.669,61.5581 148.336,67.7248 132.5,70.5C 132.662,68.4727 132.495,66.4727 132,64.5C 128.146,59.8377 124.979,54.8377 122.5,49.5C 133.503,48.2063 144.503,46.7063 155.5,45C 163.108,41.1945 170.774,37.6945 178.5,34.5 Z"/></g>
<g><path style="opacity:1" fill="#676b65" d="M 200.5,45.5 C 201.885,46.6138 203.385,47.6138 205,48.5C 206.26,54.3182 207.426,60.1515 208.5,66C 208.43,69.9492 207.43,73.6158 205.5,77C 206.591,79.0639 206.758,81.2305 206,83.5C 204.147,85.9025 202.314,88.2359 200.5,90.5C 200.5,90.1667 200.5,89.8333 200.5,89.5C 200.886,87.0634 202.053,85.0634 204,83.5C 204.798,81.7412 204.631,80.0745 203.5,78.5C 201.736,80.2776 199.736,81.6109 197.5,82.5C 199.479,79.8544 201.812,77.5211 204.5,75.5C 207.116,69.4421 207.116,63.4421 204.5,57.5C 205.338,57.1583 205.672,56.4916 205.5,55.5C 205.167,53.5 204.833,51.5 204.5,49.5C 203.041,49.5674 201.708,49.2341 200.5,48.5C 200.5,47.5 200.5,46.5 200.5,45.5 Z"/></g>
<g><path style="opacity:0.008" fill="#fcfef1" d="M 9.5,60.5 C 10.8333,61.1667 10.8333,61.1667 9.5,60.5 Z"/></g>
<g><path style="opacity:1" fill="#090a09" d="M 124.5,83.5 C 123.942,84.7899 122.942,85.6232 121.5,86C 115.853,87.1079 110.186,88.1079 104.5,89C 91.0499,91.7861 79.3833,88.6194 69.5,79.5C 71.2684,75.9558 72.1018,71.9558 72,67.5C 72.8333,66.6667 73.6667,65.8333 74.5,65C 88.8059,59.2955 102.306,60.7955 115,69.5C 116.961,74.6389 117.794,79.9723 117.5,85.5C 119.921,85.1218 122.254,84.4552 124.5,83.5 Z"/></g>
<g><path style="opacity:1" fill="#070808" d="M 197.5,82.5 C 190.214,86.9959 182.214,89.6626 173.5,90.5C 170.467,90.8685 167.8,90.2018 165.5,88.5C 167.813,77.7003 173.48,69.2003 182.5,63C 188.292,61.0113 192.125,62.8446 194,68.5C 194.36,73.6264 195.527,78.2931 197.5,82.5 Z"/></g>
<g><path style="opacity:1" fill="#505f48" d="M 16.5,54.5 C 14.4027,60.3485 12.0694,66.0152 9.5,71.5C 9.93203,64.9793 12.2654,59.3126 16.5,54.5 Z"/></g>
<g><path style="opacity:1" fill="#eaeaea" d="M 84.5,66.5 C 86.7834,66.6079 88.7834,67.4412 90.5,69C 93.3081,71.2145 92.9748,72.7145 89.5,73.5C 84.8904,72.9313 83.2237,70.598 84.5,66.5 Z"/></g>
<g><path style="opacity:0.008" fill="#fefff3" d="M 328.5,67.5 C 329.833,68.1667 329.833,68.1667 328.5,67.5 Z"/></g>
<g><path style="opacity:1" fill="#2f4127" d="M 54.5,67.5 C 57.7915,69.4581 60.7915,71.7915 63.5,74.5C 59.6367,73.3064 56.6367,70.973 54.5,67.5 Z"/></g>
<g><path style="opacity:0.82" fill="#576751" d="M 368.5,77.5 C 365.838,77.5938 363.172,77.2605 360.5,76.5C 362.288,76.7852 363.955,76.4519 365.5,75.5C 365.333,75.1667 365.167,74.8333 365,74.5C 358.371,70.7194 351.204,69.5527 343.5,71C 338.788,73.9326 333.788,74.766 328.5,73.5C 326.572,71.5259 324.239,70.0259 321.5,69C 316.625,68.2472 311.792,68.4138 307,69.5C 294.857,64.9027 283.69,66.7361 273.5,75C 268.24,79.6925 264.074,85.1925 261,91.5C 259.981,92.6872 258.814,93.6872 257.5,94.5C 256.548,96.0453 256.215,97.712 256.5,99.5C 255.71,98.3915 255.21,97.0581 255,95.5C 254.329,94.7476 253.496,94.4142 252.5,94.5C 251.833,94.5 251.167,94.5 250.5,94.5C 251.167,93.8333 251.833,93.1667 252.5,92.5C 254.035,93.3543 255.368,93.3543 256.5,92.5C 259.086,91.3615 260.753,89.3615 261.5,86.5C 267.76,76.0749 276.76,69.2416 288.5,66C 298.606,66.0472 308.606,66.3805 318.5,67C 323.859,68.4362 329.026,70.2696 334,72.5C 337.634,71.733 341.134,70.5664 344.5,69C 352.005,67.6093 359.005,68.7759 365.5,72.5C 366.952,73.9397 367.952,75.6064 368.5,77.5 Z"/></g>
<g><path style="opacity:1" fill="#b3b3b3" d="M 178.5,68.5 C 181.275,68.8338 181.941,70.1671 180.5,72.5C 178.889,71.6798 178.222,70.3464 178.5,68.5 Z"/></g>
<g><path style="opacity:1" fill="#e6e6e6" d="M 186.5,76.5 C 187.833,76.5 189.167,76.5 190.5,76.5C 191.167,80.5 189.5,82.1667 185.5,81.5C 185.366,79.7085 185.699,78.0418 186.5,76.5 Z"/></g>
<g><path style="opacity:1" fill="#5d8f36" d="M 328.5,73.5 C 321.532,71.8441 314.699,72.1774 308,74.5C 305.536,73.8392 303.036,73.3392 300.5,73C 302.396,71.9354 302.563,71.1021 301,70.5C 294.769,72.466 288.602,74.6327 282.5,77C 281.304,77.6543 281.304,78.1543 282.5,78.5C 289.44,74.921 296.774,73.7543 304.5,75C 306.396,76.8083 306.896,78.975 306,81.5C 303.293,83.9363 300.127,85.4363 296.5,86C 291.167,86.3333 285.833,86.6667 280.5,87C 277.728,87.5257 275.062,88.3591 272.5,89.5C 273.167,90.1667 273.833,90.8333 274.5,91.5C 269.053,99.7141 266.553,108.714 267,118.5C 267.608,120.066 268.442,121.4 269.5,122.5C 268.789,124.03 267.789,125.363 266.5,126.5C 265.833,126.5 265.167,126.5 264.5,126.5C 261.547,117.591 258.88,108.591 256.5,99.5C 256.215,97.712 256.548,96.0453 257.5,94.5C 258.814,93.6872 259.981,92.6872 261,91.5C 264.074,85.1925 268.24,79.6925 273.5,75C 283.69,66.7361 294.857,64.9027 307,69.5C 311.792,68.4138 316.625,68.2472 321.5,69C 324.239,70.0259 326.572,71.5259 328.5,73.5 Z"/></g>
<g><path style="opacity:1" fill="#ececec" d="M 104.5,78.5 C 106.665,78.1159 108.332,78.7826 109.5,80.5C 108.332,82.2174 106.665,82.8841 104.5,82.5C 104.5,81.1667 104.5,79.8333 104.5,78.5 Z"/></g>
<g><path style="opacity:1" fill="#dbdcdc" d="M 85.5,80.5 C 87.3841,80.7118 88.7174,81.7118 89.5,83.5C 85.6723,85.2523 84.3389,84.2523 85.5,80.5 Z"/></g>
<g><path style="opacity:1" fill="#35562b" d="M 360.5,76.5 C 363.172,77.2605 365.838,77.5938 368.5,77.5C 374.086,76.3728 378.419,78.0395 381.5,82.5C 381.44,83.0431 381.107,83.3764 380.5,83.5C 370.491,80.8675 360.491,80.8675 350.5,83.5C 349.304,83.1543 349.304,82.6543 350.5,82C 357.37,80.1768 364.37,79.1768 371.5,79C 361.476,77.4198 351.476,77.4198 341.5,79C 343.208,80.5095 344.874,82.0095 346.5,83.5C 346.113,84.7199 345.28,85.3865 344,85.5C 337.455,83.3614 330.955,83.0281 324.5,84.5C 321.274,85.4887 317.94,86.4887 314.5,87.5C 316.976,84.4222 320.309,82.5888 324.5,82C 331.279,81.0388 337.779,81.8721 344,84.5C 344.688,83.6683 344.521,83.0016 343.5,82.5C 335.251,80.0333 326.918,79.8666 318.5,82C 315.102,83.3571 312.102,85.1904 309.5,87.5C 307.401,88.2309 305.401,88.2309 303.5,87.5C 308.836,85.6625 313.836,83.1625 318.5,80C 326.232,79.1761 333.899,78.1761 341.5,77C 347.825,76.5005 354.158,76.3338 360.5,76.5 Z"/></g>
<g><path style="opacity:0.008" fill="#fdfef0" d="M 261.5,86.5 C 260.637,87.463 259.97,87.463 259.5,86.5C 260.257,85.2267 260.923,85.2267 261.5,86.5 Z"/></g>
<g><path style="opacity:1" fill="#324c29" d="M 328.5,73.5 C 329.6,74.5585 330.934,75.3918 332.5,76C 333.696,76.6543 333.696,77.1543 332.5,77.5C 324.375,74.0958 316.209,73.7625 308,76.5C 308.246,81.9257 305.746,85.4257 300.5,87C 293.563,88.1733 286.563,88.84 279.5,89C 278.376,89.2492 277.376,89.7492 276.5,90.5C 273.394,96.3791 270.56,102.379 268,108.5C 267.523,113.262 268.023,117.929 269.5,122.5C 268.442,121.4 267.608,120.066 267,118.5C 266.553,108.714 269.053,99.7141 274.5,91.5C 273.833,90.8333 273.167,90.1667 272.5,89.5C 275.062,88.3591 277.728,87.5257 280.5,87C 285.833,86.6667 291.167,86.3333 296.5,86C 300.127,85.4363 303.293,83.9363 306,81.5C 306.896,78.975 306.396,76.8083 304.5,75C 296.774,73.7543 289.44,74.921 282.5,78.5C 281.304,78.1543 281.304,77.6543 282.5,77C 288.602,74.6327 294.769,72.466 301,70.5C 302.563,71.1021 302.396,71.9354 300.5,73C 303.036,73.3392 305.536,73.8392 308,74.5C 314.699,72.1774 321.532,71.8441 328.5,73.5 Z"/></g>
<g><path style="opacity:1" fill="#568040" d="M 381.5,82.5 C 382.401,83.2905 383.068,84.2905 383.5,85.5C 383.5,86.5 383.5,87.5 383.5,88.5C 382.167,88.5 380.833,88.5 379.5,88.5C 376.014,86.8944 372.347,85.8944 368.5,85.5C 361.188,84.306 354.688,85.9726 349,90.5C 343.355,85.9601 336.855,83.9601 329.5,84.5C 327.833,84.5 326.167,84.5 324.5,84.5C 330.955,83.0281 337.455,83.3614 344,85.5C 345.28,85.3865 346.113,84.7199 346.5,83.5C 344.874,82.0095 343.208,80.5095 341.5,79C 351.476,77.4198 361.476,77.4198 371.5,79C 364.37,79.1768 357.37,80.1768 350.5,82C 349.304,82.6543 349.304,83.1543 350.5,83.5C 360.491,80.8675 370.491,80.8675 380.5,83.5C 381.107,83.3764 381.44,83.0431 381.5,82.5 Z"/></g>
<g><path style="opacity:1" fill="#0b0a0c" d="M 368.5,86.5 C 373.183,88.2095 374.683,91.5429 373,96.5C 372.283,97.0442 371.783,97.7109 371.5,98.5C 368.094,100.793 364.427,101.126 360.5,99.5C 358.078,98.3077 357.078,96.3077 357.5,93.5C 357.363,91.1595 358.03,89.1595 359.5,87.5C 360.756,87.9038 361.923,88.5705 363,89.5C 364.826,88.9896 364.993,88.1562 363.5,87C 365.134,86.5065 366.801,86.3398 368.5,86.5 Z"/></g>
<g><path style="opacity:1" fill="#f3f3f3" d="M 368.5,86.5 C 368.5,86.1667 368.5,85.8333 368.5,85.5C 372.347,85.8944 376.014,86.8944 379.5,88.5C 383.763,88.9291 385.596,91.2624 385,95.5C 380.778,98.5186 376.278,99.5186 371.5,98.5C 371.783,97.7109 372.283,97.0442 373,96.5C 374.683,91.5429 373.183,88.2095 368.5,86.5 Z"/></g>
<g><path style="opacity:1" fill="#edeeed" d="M 359.5,87.5 C 358.03,89.1595 357.363,91.1595 357.5,93.5C 357.078,96.3077 358.078,98.3077 360.5,99.5C 360.833,100.167 361.167,100.833 361.5,101.5C 360.833,101.5 360.167,101.5 359.5,101.5C 355.665,100.539 351.665,99.7054 347.5,99C 346.781,96.2935 347.448,93.7935 349.5,91.5C 352.67,88.8841 356.003,87.5507 359.5,87.5 Z"/></g>
<g><path style="opacity:1" fill="#4f753b" d="M 314.5,87.5 C 311.479,89.8544 308.812,92.5211 306.5,95.5C 304.236,94.7814 301.903,94.448 299.5,94.5C 299.286,92.8561 299.62,91.3561 300.5,90C 303.851,89.9428 306.851,89.1094 309.5,87.5C 312.102,85.1904 315.102,83.3571 318.5,82C 326.918,79.8666 335.251,80.0333 343.5,82.5C 344.521,83.0016 344.688,83.6683 344,84.5C 337.779,81.8721 331.279,81.0388 324.5,82C 320.309,82.5888 316.976,84.4222 314.5,87.5 Z"/></g>
<g><path style="opacity:1" fill="#eaebea" d="M 324.5,84.5 C 326.167,84.5 327.833,84.5 329.5,84.5C 334.845,85.4414 340.179,86.9414 345.5,89C 346.357,89.6891 347.023,90.5224 347.5,91.5C 346.934,94.8171 345.267,97.3171 342.5,99C 337.457,101.039 332.457,101.539 327.5,100.5C 334.217,97.3875 335.217,92.8875 330.5,87C 320.176,84.3266 316.01,88.1599 318,98.5C 318.816,99.8228 319.983,100.489 321.5,100.5C 321.5,100.833 321.5,101.167 321.5,101.5C 316.168,100.334 311.168,98.3342 306.5,95.5C 308.812,92.5211 311.479,89.8544 314.5,87.5C 317.94,86.4887 321.274,85.4887 324.5,84.5 Z"/></g>
<g><path style="opacity:1" fill="#100f11" d="M 327.5,100.5 C 325.5,100.5 323.5,100.5 321.5,100.5C 319.983,100.489 318.816,99.8228 318,98.5C 316.01,88.1599 320.176,84.3266 330.5,87C 335.217,92.8875 334.217,97.3875 327.5,100.5 Z"/></g>
<g><path style="opacity:1" fill="#e9e7ea" d="M 321.5,87.5 C 323.337,87.6395 323.67,88.3061 322.5,89.5C 321.702,89.0431 321.369,88.3764 321.5,87.5 Z"/></g>
<g><path style="opacity:0.024" fill="#f9f9ed" d="M 257.5,89.5 C 258.833,90.1667 258.833,90.1667 257.5,89.5 Z"/></g>
<g><path style="opacity:1" fill="#5b8c3f" d="M 360.5,76.5 C 354.158,76.3338 347.825,76.5005 341.5,77C 333.899,78.1761 326.232,79.1761 318.5,80C 313.836,83.1625 308.836,85.6625 303.5,87.5C 305.401,88.2309 307.401,88.2309 309.5,87.5C 306.851,89.1094 303.851,89.9428 300.5,90C 299.62,91.3561 299.286,92.8561 299.5,94.5C 301.903,94.448 304.236,94.7814 306.5,95.5C 308.51,98.0275 311.177,99.8608 314.5,101C 312.331,101.429 310.331,100.929 308.5,99.5C 307.167,100.167 307.167,100.833 308.5,101.5C 318.951,104.532 329.618,105.698 340.5,105C 343.547,104.484 345.88,102.984 347.5,100.5C 351.434,101.36 355.434,101.693 359.5,101.5C 360.167,101.5 360.833,101.5 361.5,101.5C 366.544,101.727 371.544,101.394 376.5,100.5C 377.167,100.833 377.833,101.167 378.5,101.5C 376.957,103.253 375.957,105.253 375.5,107.5C 373.517,107.157 372.183,107.824 371.5,109.5C 371.167,109.5 370.833,109.5 370.5,109.5C 360.861,110.36 351.194,110.693 341.5,110.5C 331.336,108.529 321.003,106.862 310.5,105.5C 307.833,105.667 305.167,105.833 302.5,106C 300.574,106.422 299.574,107.589 299.5,109.5C 296.688,112.839 297.021,116.005 300.5,119C 320.096,121.362 339.763,123.362 359.5,125C 356.5,125.333 353.5,125.667 350.5,126C 342.964,128.508 335.131,129.675 327,129.5C 313.148,129.149 299.481,127.482 286,124.5C 284.102,125.352 284.269,126.019 286.5,126.5C 302.969,130.052 319.635,131.885 336.5,132C 328.553,133.275 320.553,133.775 312.5,133.5C 306.046,133.555 299.712,132.888 293.5,131.5C 290.495,129.723 287.162,128.723 283.5,128.5C 278.571,127.033 273.904,125.033 269.5,122.5C 268.023,117.929 267.523,113.262 268,108.5C 270.56,102.379 273.394,96.3791 276.5,90.5C 277.376,89.7492 278.376,89.2492 279.5,89C 286.563,88.84 293.563,88.1733 300.5,87C 305.746,85.4257 308.246,81.9257 308,76.5C 316.209,73.7625 324.375,74.0958 332.5,77.5C 333.696,77.1543 333.696,76.6543 332.5,76C 330.934,75.3918 329.6,74.5585 328.5,73.5C 333.788,74.766 338.788,73.9326 343.5,71C 351.204,69.5527 358.371,70.7194 365,74.5C 365.167,74.8333 365.333,75.1667 365.5,75.5C 363.955,76.4519 362.288,76.7852 360.5,76.5 Z"/></g>
<g><path style="opacity:1" fill="#344629" d="M 141.5,87.5 C 147.397,89.0122 153.397,90.0122 159.5,90.5C 161.952,90.4609 163.952,89.7943 165.5,88.5C 167.8,90.2018 170.467,90.8685 173.5,90.5C 166.345,91.6552 159.012,91.8218 151.5,91C 147.755,90.6978 144.422,89.5312 141.5,87.5 Z"/></g>
<g><path style="opacity:1" fill="#dddcdd" d="M 326.5,89.5 C 329.674,89.9522 330.007,90.9522 327.5,92.5C 326.614,91.675 326.281,90.675 326.5,89.5 Z"/></g>
<g><path style="opacity:1" fill="#e2e1e2" d="M 366.5,89.5 C 369.957,89.6672 370.29,90.6672 367.5,92.5C 366.614,91.675 366.281,90.675 366.5,89.5 Z"/></g>
<g><path style="opacity:0.024" fill="#f8fcee" d="M 252.5,92.5 C 251.475,92.1034 251.308,91.4368 252,90.5C 252.464,91.0944 252.631,91.7611 252.5,92.5 Z"/></g>
<g><path style="opacity:0.008" fill="#f7fcf2" d="M 256.5,92.5 C 255.475,92.1034 255.308,91.4368 256,90.5C 256.464,91.0944 256.631,91.7611 256.5,92.5 Z"/></g>
<g><path style="opacity:1" fill="#74816d" d="M 199.5,91.5 C 199.957,94.7637 201.624,97.0971 204.5,98.5C 202.856,98.2865 201.356,98.6198 200,99.5C 199.722,98.5842 199.222,97.9175 198.5,97.5C 198.771,95.6203 198.104,94.287 196.5,93.5C 197.29,92.5987 198.29,91.9321 199.5,91.5 Z"/></g>
<g><path style="opacity:1" fill="#192917" d="M 200.5,89.5 C 200.5,89.8333 200.5,90.1667 200.5,90.5C 200.5,91.1667 200.167,91.5 199.5,91.5C 198.29,91.9321 197.29,92.5987 196.5,93.5C 189.677,97.7071 182.344,99.3738 174.5,98.5C 179.971,97.9206 185.304,96.7539 190.5,95C 193.727,92.8882 197.06,91.0549 200.5,89.5 Z"/></g>
<g><path style="opacity:0.008" fill="#f8fef2" d="M 237.5,97.5 C 237.897,96.475 238.563,96.3083 239.5,97C 238.906,97.4643 238.239,97.631 237.5,97.5 Z"/></g>
<g><path style="opacity:0.016" fill="#f8fef0" d="M 240.5,95.5 C 243.001,95.5109 243.168,96.1776 241,97.5C 240.536,96.9056 240.369,96.2389 240.5,95.5 Z"/></g>
<g><path style="opacity:1" fill="#2d4823" d="M 127.5,83.5 C 132.583,83.7791 137.249,85.1124 141.5,87.5C 137.243,86.1833 132.91,85.6833 128.5,86C 125.681,88.575 122.681,90.9083 119.5,93C 99.8331,100.952 80.4998,100.285 61.5,91C 60.1118,90.1107 60.2785,89.6107 62,89.5C 81.6977,99.8146 101.531,99.9812 121.5,90C 124.294,88.4645 126.294,86.2978 127.5,83.5 Z"/></g>
<g><path style="opacity:0.012" fill="#fcfef1" d="M 234.5,99.5 C 234.897,98.475 235.563,98.3083 236.5,99C 235.906,99.4643 235.239,99.631 234.5,99.5 Z"/></g>
<g><path style="opacity:1" fill="#59487a" d="M 250.5,94.5 C 251.167,94.5 251.833,94.5 252.5,94.5C 248.34,97.5776 243.673,99.5776 238.5,100.5C 242.182,97.9922 246.182,95.9922 250.5,94.5 Z"/></g>
<g><path style="opacity:1" fill="#4d5c43" d="M 329.5,84.5 C 336.855,83.9601 343.355,85.9601 349,90.5C 354.688,85.9726 361.188,84.306 368.5,85.5C 368.5,85.8333 368.5,86.1667 368.5,86.5C 366.801,86.3398 365.134,86.5065 363.5,87C 364.993,88.1562 364.826,88.9896 363,89.5C 361.923,88.5705 360.756,87.9038 359.5,87.5C 356.003,87.5507 352.67,88.8841 349.5,91.5C 347.448,93.7935 346.781,96.2935 347.5,99C 351.665,99.7054 355.665,100.539 359.5,101.5C 355.434,101.693 351.434,101.36 347.5,100.5C 346.735,100.077 345.902,99.7432 345,99.5C 337.226,102.449 329.393,103.116 321.5,101.5C 321.5,101.167 321.5,100.833 321.5,100.5C 323.5,100.5 325.5,100.5 327.5,100.5C 332.457,101.539 337.457,101.039 342.5,99C 345.267,97.3171 346.934,94.8171 347.5,91.5C 347.023,90.5224 346.357,89.6891 345.5,89C 340.179,86.9414 334.845,85.4414 329.5,84.5 Z"/></g>
<g><path style="opacity:1" fill="#54654d" d="M 383.5,85.5 C 385.767,87.5926 387.1,90.2593 387.5,93.5C 386.137,95.7075 384.97,98.0408 384,100.5C 381.388,101.377 379.555,103.043 378.5,105.5C 377.778,106.551 376.778,107.218 375.5,107.5C 375.957,105.253 376.957,103.253 378.5,101.5C 377.833,101.167 377.167,100.833 376.5,100.5C 371.544,101.394 366.544,101.727 361.5,101.5C 361.167,100.833 360.833,100.167 360.5,99.5C 364.427,101.126 368.094,100.793 371.5,98.5C 376.278,99.5186 380.778,98.5186 385,95.5C 385.596,91.2624 383.763,88.9291 379.5,88.5C 380.833,88.5 382.167,88.5 383.5,88.5C 383.5,87.5 383.5,86.5 383.5,85.5 Z"/></g>
<g><path style="opacity:1" fill="#27461f" d="M 124.5,93.5 C 125.552,93.3505 126.552,93.5172 127.5,94C 120.557,98.3048 113.223,101.805 105.5,104.5C 104.833,104.167 104.167,103.833 103.5,103.5C 111.219,101.472 118.219,98.1388 124.5,93.5 Z"/></g>
<g><path style="opacity:1" fill="#0245f8" d="M 252.5,94.5 C 253.496,94.4142 254.329,94.7476 255,95.5C 255.21,97.0581 255.71,98.3915 256.5,99.5C 258.88,108.591 261.547,117.591 264.5,126.5C 265.067,128.03 265.733,129.53 266.5,131C 264.382,132.049 262.716,133.549 261.5,135.5C 260.094,135.973 259.427,136.973 259.5,138.5C 255.9,140.43 252.9,143.097 250.5,146.5C 249.094,146.973 248.427,147.973 248.5,149.5C 248.5,149.833 248.5,150.167 248.5,150.5C 247.833,150.833 247.167,151.167 246.5,151.5C 242.391,152.874 239.057,155.208 236.5,158.5C 234.973,158.427 233.973,159.094 233.5,160.5C 228.735,162.382 224.068,164.548 219.5,167C 217.808,168.307 216.475,169.807 215.5,171.5C 211.679,172.486 208.179,174.152 205,176.5C 204.5,183.492 204.334,190.492 204.5,197.5C 154.5,197.5 104.5,197.5 54.5,197.5C 56.1682,189.788 56.6682,181.788 56,173.5C 55.782,181.686 54.6153,189.686 52.5,197.5C 38.1667,197.5 23.8333,197.5 9.5,197.5C 9.5,176.833 9.5,156.167 9.5,135.5C 11.8333,134.5 13.5,132.833 14.5,130.5C 15.9999,131.625 17.3332,132.959 18.5,134.5C 19.4756,135.815 20.4756,137.148 21.5,138.5C 34.9331,145.277 49.2665,149.11 64.5,150C 95.5054,150.833 126.505,150.667 157.5,149.5C 161.882,148.154 166.216,146.654 170.5,145C 173.756,143.884 176.422,142.051 178.5,139.5C 179.833,138.833 180.833,137.833 181.5,136.5C 185.64,134.605 188.64,131.605 190.5,127.5C 191.161,126.282 191.828,124.949 192.5,123.5C 196.636,122.594 200.302,120.928 203.5,118.5C 204.167,117.833 204.833,117.167 205.5,116.5C 206.167,116.5 206.833,116.5 207.5,116.5C 209.848,116.408 211.514,115.408 212.5,113.5C 220.141,111.858 226.808,108.525 232.5,103.5C 234.38,103.771 235.713,103.104 236.5,101.5C 236.842,100.662 237.508,100.328 238.5,100.5C 243.673,99.5776 248.34,97.5776 252.5,94.5 Z"/></g>
<g><path style="opacity:0.016" fill="#f4fef5" d="M 232.5,102.5 C 231.761,102.631 231.094,102.464 230.5,102C 231.437,101.308 232.103,101.475 232.5,102.5 Z"/></g>
<g><path style="opacity:1" fill="#342c21" d="M 198.5,97.5 C 199.222,97.9175 199.722,98.5842 200,99.5C 201.356,98.6198 202.856,98.2865 204.5,98.5C 203.5,99.1667 202.5,99.8333 201.5,100.5C 196.559,103.025 191.226,104.358 185.5,104.5C 172.186,103.575 158.853,103.241 145.5,103.5C 161.328,102.669 177.328,102.169 193.5,102C 195.923,101.303 197.589,99.8029 198.5,97.5 Z"/></g>
<g><path style="opacity:0.576" fill="#7f7d73" d="M 236.5,101.5 C 235.713,103.104 234.38,103.771 232.5,103.5C 232.5,103.167 232.5,102.833 232.5,102.5C 233.833,102.167 235.167,101.833 236.5,101.5 Z"/></g>
<g><path style="opacity:1" fill="#426934" d="M 306.5,95.5 C 311.168,98.3342 316.168,100.334 321.5,101.5C 329.393,103.116 337.226,102.449 345,99.5C 345.902,99.7432 346.735,100.077 347.5,100.5C 345.88,102.984 343.547,104.484 340.5,105C 329.618,105.698 318.951,104.532 308.5,101.5C 307.167,100.833 307.167,100.167 308.5,99.5C 310.331,100.929 312.331,101.429 314.5,101C 311.177,99.8608 308.51,98.0275 306.5,95.5 Z"/></g>
<g><path style="opacity:1" fill="#a36853" d="M 201.5,100.5 C 203.39,100.297 204.89,100.963 206,102.5C 206.497,104.81 206.663,107.143 206.5,109.5C 203.873,110.092 201.206,110.425 198.5,110.5C 185.66,112.369 172.993,111.535 160.5,108C 153.586,107.189 146.752,107.355 140,108.5C 139.517,107.552 139.351,106.552 139.5,105.5C 141.786,105.405 143.786,104.738 145.5,103.5C 158.853,103.241 172.186,103.575 185.5,104.5C 191.226,104.358 196.559,103.025 201.5,100.5 Z"/></g>
<g><path style="opacity:0.016" fill="#fefbf0" d="M 220.5,108.5 C 219.833,107.167 219.833,107.167 220.5,108.5 Z"/></g>
<g><path style="opacity:0.031" fill="#f5fded" d="M 216.5,107.5 C 217.773,108.077 217.773,108.743 216.5,109.5C 215.537,109.03 215.537,108.363 216.5,107.5 Z"/></g>
<g><path style="opacity:1" fill="#766c83" d="M 232.5,103.5 C 226.808,108.525 220.141,111.858 212.5,113.5C 213.09,112.234 213.59,110.901 214,109.5C 214.308,110.308 214.808,110.975 215.5,111.5C 217.396,110.725 219.063,109.725 220.5,108.5C 224.749,107.374 228.749,105.707 232.5,103.5 Z"/></g>
<g><path style="opacity:1" fill="#57362d" d="M 145.5,103.5 C 143.786,104.738 141.786,105.405 139.5,105.5C 139.351,106.552 139.517,107.552 140,108.5C 146.752,107.355 153.586,107.189 160.5,108C 172.993,111.535 185.66,112.369 198.5,110.5C 198.5,111.167 198.5,111.833 198.5,112.5C 192.982,112.502 187.482,112.835 182,113.5C 172.413,111.519 162.747,110.186 153,109.5C 149.5,109.667 146,109.833 142.5,110C 127.108,116.454 111.108,118.787 94.5,117C 107.81,116.903 120.81,114.903 133.5,111C 134.167,109.667 135.167,108.667 136.5,108C 128.513,108.022 120.513,108.189 112.5,108.5C 123.511,107.561 134.511,105.894 145.5,103.5 Z"/></g>
<g><path style="opacity:0.016" fill="#fefff0" d="M 203.5,115.5 C 202.833,114.167 202.833,114.167 203.5,115.5 Z"/></g>
<g><path style="opacity:1" fill="#a96645" d="M 341.5,110.5 C 349.99,111.657 358.657,111.824 367.5,111C 368.737,110.768 369.737,110.268 370.5,109.5C 370.833,109.5 371.167,109.5 371.5,109.5C 374.096,108.735 376.763,108.401 379.5,108.5C 379.5,109.5 379.5,110.5 379.5,111.5C 378.167,111.5 376.833,111.5 375.5,111.5C 375.5,112.5 375.5,113.5 375.5,114.5C 354.955,116.661 334.621,115.494 314.5,111C 311.446,110.179 308.446,110.345 305.5,111.5C 328.891,117.081 352.557,118.748 376.5,116.5C 376.548,119.292 375.215,121.125 372.5,122C 361.165,122.307 349.831,122.14 338.5,121.5C 325.99,119.091 313.324,117.591 300.5,117C 298.163,114.806 297.83,112.306 299.5,109.5C 299.574,107.589 300.574,106.422 302.5,106C 305.167,105.833 307.833,105.667 310.5,105.5C 321.003,106.862 331.336,108.529 341.5,110.5 Z"/></g>
<g><path style="opacity:1" fill="#524c29" d="M 370.5,109.5 C 369.737,110.268 368.737,110.768 367.5,111C 358.657,111.824 349.99,111.657 341.5,110.5C 351.194,110.693 360.861,110.36 370.5,109.5 Z"/></g>
<g><path style="opacity:0.016" fill="#fff9ef" d="M 203.5,115.5 C 204.492,115.328 205.158,115.662 205.5,116.5C 204.508,116.672 203.842,116.338 203.5,115.5 Z"/></g>
<g><path style="opacity:0.757" fill="#766a72" d="M 212.5,113.5 C 211.514,115.408 209.848,116.408 207.5,116.5C 208.659,114.75 210.326,113.75 212.5,113.5 Z"/></g>
<g><path style="opacity:1" fill="#605659" d="M 204.5,98.5 C 211.863,105.624 210.53,110.457 200.5,113C 201.86,114.938 201.527,116.604 199.5,118C 197.105,118.681 194.772,119.515 192.5,120.5C 193,120.833 193.5,121.167 194,121.5C 197.021,119.993 200.188,118.993 203.5,118.5C 200.302,120.928 196.636,122.594 192.5,123.5C 191.828,124.949 191.161,126.282 190.5,127.5C 190.368,124.43 190.701,121.43 191.5,118.5C 193.961,117.469 196.627,116.802 199.5,116.5C 199.567,115.041 199.234,113.708 198.5,112.5C 198.5,111.833 198.5,111.167 198.5,110.5C 201.206,110.425 203.873,110.092 206.5,109.5C 206.663,107.143 206.497,104.81 206,102.5C 204.89,100.963 203.39,100.297 201.5,100.5C 202.5,99.8333 203.5,99.1667 204.5,98.5 Z"/></g>
<g><path style="opacity:1" fill="#774132" d="M 378.5,105.5 C 381.243,105.077 382.576,106.244 382.5,109C 382.478,111.183 381.478,112.683 379.5,113.5C 377.183,112.466 376.183,113.466 376.5,116.5C 352.557,118.748 328.891,117.081 305.5,111.5C 308.446,110.345 311.446,110.179 314.5,111C 334.621,115.494 354.955,116.661 375.5,114.5C 375.5,113.5 375.5,112.5 375.5,111.5C 376.833,111.5 378.167,111.5 379.5,111.5C 379.5,110.5 379.5,109.5 379.5,108.5C 376.763,108.401 374.096,108.735 371.5,109.5C 372.183,107.824 373.517,107.157 375.5,107.5C 376.778,107.218 377.778,106.551 378.5,105.5 Z"/></g>
<g><path style="opacity:1" fill="#a16752" d="M 82.5,107.5 C 87.569,109.057 92.9024,109.724 98.5,109.5C 102.681,109.499 106.681,109.166 110.5,108.5C 111.167,108.5 111.833,108.5 112.5,108.5C 120.513,108.189 128.513,108.022 136.5,108C 135.167,108.667 134.167,109.667 133.5,111C 120.81,114.903 107.81,116.903 94.5,117C 111.108,118.787 127.108,116.454 142.5,110C 146,109.833 149.5,109.667 153,109.5C 162.747,110.186 172.413,111.519 182,113.5C 187.482,112.835 192.982,112.502 198.5,112.5C 199.234,113.708 199.567,115.041 199.5,116.5C 196.627,116.802 193.961,117.469 191.5,118.5C 190.292,117.766 188.959,117.433 187.5,117.5C 177.533,115.613 167.533,115.279 157.5,116.5C 146.799,117.671 136.132,119.171 125.5,121C 110.522,122.166 95.5222,122.666 80.5,122.5C 77.5755,122.54 74.9088,121.707 72.5,120C 65.3497,107.966 68.683,103.8 82.5,107.5 Z"/></g>
<g><path style="opacity:1" fill="#383924" d="M 157.5,116.5 C 167.533,115.279 177.533,115.613 187.5,117.5C 177.5,117.167 167.5,116.833 157.5,116.5 Z"/></g>
<g><path style="opacity:1" fill="#47522e" d="M 82.5,107.5 C 91.8123,108.277 101.146,108.61 110.5,108.5C 106.681,109.166 102.681,109.499 98.5,109.5C 92.9024,109.724 87.569,109.057 82.5,107.5 Z"/></g>
<g><path style="opacity:1" fill="#3b3825" d="M 157.5,116.5 C 132.15,122.802 106.483,124.802 80.5,122.5C 95.5222,122.666 110.522,122.166 125.5,121C 136.132,119.171 146.799,117.671 157.5,116.5 Z"/></g>
<g><path style="opacity:1" fill="#725d51" d="M 379.5,113.5 C 378.722,114.156 378.056,114.989 377.5,116C 378.576,119.004 377.576,121.337 374.5,123C 370.623,124.369 366.623,125.202 362.5,125.5C 362.611,124.883 362.944,124.383 363.5,124C 354.979,123.54 346.646,122.707 338.5,121.5C 349.831,122.14 361.165,122.307 372.5,122C 375.215,121.125 376.548,119.292 376.5,116.5C 376.183,113.466 377.183,112.466 379.5,113.5 Z"/></g>
<g><path style="opacity:0.039" fill="#fefaea" d="M 376.5,122.5 C 377.833,123.167 377.833,123.167 376.5,122.5 Z"/></g>
<g><path style="opacity:1" fill="#485f3e" d="M 299.5,109.5 C 297.83,112.306 298.163,114.806 300.5,117C 313.324,117.591 325.99,119.091 338.5,121.5C 346.646,122.707 354.979,123.54 363.5,124C 362.944,124.383 362.611,124.883 362.5,125.5C 357.582,127.153 352.582,128.486 347.5,129.5C 345.517,129.157 344.183,129.824 343.5,131.5C 333.21,134.463 322.876,135.13 312.5,133.5C 320.553,133.775 328.553,133.275 336.5,132C 319.635,131.885 302.969,130.052 286.5,126.5C 284.269,126.019 284.102,125.352 286,124.5C 299.481,127.482 313.148,129.149 327,129.5C 335.131,129.675 342.964,128.508 350.5,126C 353.5,125.667 356.5,125.333 359.5,125C 339.763,123.362 320.096,121.362 300.5,119C 297.021,116.005 296.688,112.839 299.5,109.5 Z"/></g>
<g><path style="opacity:1" fill="#2f4257" d="M 283.5,128.5 C 287.162,128.723 290.495,129.723 293.5,131.5C 289.742,131.605 286.408,130.605 283.5,128.5 Z"/></g>
<g><path style="opacity:1" fill="#484593" d="M 347.5,129.5 C 349.349,130.593 351.016,131.926 352.5,133.5C 349.91,133.082 347.577,132.082 345.5,130.5C 344.817,130.863 344.15,131.196 343.5,131.5C 344.183,129.824 345.517,129.157 347.5,129.5 Z"/></g>
<g><path style="opacity:1" fill="#0644fc" d="M 269.5,122.5 C 273.904,125.033 278.571,127.033 283.5,128.5C 286.408,130.605 289.742,131.605 293.5,131.5C 299.712,132.888 306.046,133.555 312.5,133.5C 322.876,135.13 333.21,134.463 343.5,131.5C 344.15,131.196 344.817,130.863 345.5,130.5C 347.577,132.082 349.91,133.082 352.5,133.5C 355.794,136.156 359.127,138.822 362.5,141.5C 362.833,141.5 363.167,141.5 363.5,141.5C 363.5,142.167 363.5,142.833 363.5,143.5C 363.229,145.38 363.896,146.713 365.5,147.5C 367.317,158.389 367.984,169.389 367.5,180.5C 367.675,182.621 367.341,184.621 366.5,186.5C 365.5,186.5 364.5,186.5 363.5,186.5C 363.666,178.16 363.5,169.827 363,161.5C 361.333,158.167 359.667,154.833 358,151.5C 357.346,150.304 356.846,150.304 356.5,151.5C 358.912,155.823 360.912,160.323 362.5,165C 361.87,171.711 361.203,178.378 360.5,185C 362.037,186.11 362.703,187.61 362.5,189.5C 362.408,191.848 361.408,193.514 359.5,194.5C 356.851,192.891 353.851,192.057 350.5,192C 330.518,190.786 310.518,190.286 290.5,190.5C 288.326,190.25 286.659,189.25 285.5,187.5C 283.204,172.644 282.037,157.644 282,142.5C 280.931,146.915 280.431,151.415 280.5,156C 281.255,165.189 282.255,174.356 283.5,183.5C 280.287,183.19 277.287,183.523 274.5,184.5C 272.435,184.517 270.435,184.85 268.5,185.5C 268.598,183.447 267.931,181.78 266.5,180.5C 265.463,179.07 264.796,177.403 264.5,175.5C 264.34,173.847 263.674,172.514 262.5,171.5C 261.584,159.531 261.251,147.531 261.5,135.5C 267.049,134.624 268.715,131.624 266.5,126.5C 267.789,125.363 268.789,124.03 269.5,122.5 Z"/></g>
<g><path style="opacity:1" fill="#eceeec" d="M 9.5,123.5 C 10.2719,124.694 11.2719,125.694 12.5,126.5C 12.7329,128.062 13.3995,129.395 14.5,130.5C 13.5,132.833 11.8333,134.5 9.5,135.5C 9.5,131.5 9.5,127.5 9.5,123.5 Z"/></g>
<g><path style="opacity:1" fill="#11216a" d="M 264.5,126.5 C 265.167,126.5 265.833,126.5 266.5,126.5C 268.715,131.624 267.049,134.624 261.5,135.5C 262.716,133.549 264.382,132.049 266.5,131C 265.733,129.53 265.067,128.03 264.5,126.5 Z"/></g>
<g><path style="opacity:0.016" fill="#fefef0" d="M 356.5,133.5 C 357.833,134.167 357.833,134.167 356.5,133.5 Z"/></g>
<g><path style="opacity:0.008" fill="#f8fff2" d="M 362.5,136.5 C 363.833,137.167 363.833,137.167 362.5,136.5 Z"/></g>
<g><path style="opacity:0.678" fill="#868794" d="M 352.5,133.5 C 353.833,133.833 355.167,134.167 356.5,134.5C 359.213,136.214 361.213,138.547 362.5,141.5C 359.127,138.822 355.794,136.156 352.5,133.5 Z"/></g>
<g><path style="opacity:0.008" fill="#fdfef2" d="M 364.5,137.5 C 365.833,138.167 365.833,138.167 364.5,137.5 Z"/></g>
<g><path style="opacity:0.012" fill="#fdfbf2" d="M 363.5,141.5 C 363.511,138.999 364.178,138.832 365.5,141C 364.906,141.464 364.239,141.631 363.5,141.5 Z"/></g>
<g><path style="opacity:0.067" fill="#f7f9e8" d="M 257.5,141.5 C 258.833,142.167 258.833,142.167 257.5,141.5 Z"/></g>
<g><path style="opacity:1" fill="#314e26" d="M 12.5,126.5 C 14.34,128.168 16.34,129.668 18.5,131C 31.258,134.961 44.258,137.961 57.5,140C 89.1654,140.862 120.832,141.195 152.5,141C 162.356,140.618 172.023,139.118 181.5,136.5C 180.833,137.833 179.833,138.833 178.5,139.5C 178.44,138.957 178.107,138.624 177.5,138.5C 168.714,141.16 159.714,142.66 150.5,143C 139.167,143.667 127.833,143.667 116.5,143C 96.5199,141.851 76.5199,141.185 56.5,141C 44.1187,139.423 31.9521,136.923 20,133.5C 19.2352,133.57 18.7352,133.903 18.5,134.5C 17.3332,132.959 15.9999,131.625 14.5,130.5C 13.3995,129.395 12.7329,128.062 12.5,126.5 Z"/></g>
<g><path style="opacity:1" fill="#5b8937" d="M 178.5,139.5 C 176.422,142.051 173.756,143.884 170.5,145C 166.216,146.654 161.882,148.154 157.5,149.5C 126.505,150.667 95.5054,150.833 64.5,150C 49.2665,149.11 34.9331,145.277 21.5,138.5C 20.4756,137.148 19.4756,135.815 18.5,134.5C 18.7352,133.903 19.2352,133.57 20,133.5C 31.9521,136.923 44.1187,139.423 56.5,141C 76.5199,141.185 96.5199,141.851 116.5,143C 127.833,143.667 139.167,143.667 150.5,143C 159.714,142.66 168.714,141.16 177.5,138.5C 178.107,138.624 178.44,138.957 178.5,139.5 Z"/></g>
<g><path style="opacity:0.024" fill="#a7a79c" d="M 259.5,138.5 C 258.833,139.5 258.167,140.5 257.5,141.5C 256.167,142.167 255.167,143.167 254.5,144.5C 253.5,144.833 252.833,145.5 252.5,146.5C 251.833,146.5 251.167,146.5 250.5,146.5C 252.9,143.097 255.9,140.43 259.5,138.5 Z"/></g>
<g><path style="opacity:0.012" fill="#fafaf2" d="M 254.5,144.5 C 255.525,144.897 255.692,145.563 255,146.5C 254.536,145.906 254.369,145.239 254.5,144.5 Z"/></g>
<g><path style="opacity:0.012" fill="#fcfdf2" d="M 252.5,146.5 C 253.833,147.167 253.833,147.167 252.5,146.5 Z"/></g>
<g><path style="opacity:0.282" fill="#afb5be" d="M 363.5,143.5 C 364.674,144.514 365.34,145.847 365.5,147.5C 363.896,146.713 363.229,145.38 363.5,143.5 Z"/></g>
<g><path style="opacity:0.224" fill="#98958c" d="M 250.5,146.5 C 250.5,147.167 250.5,147.833 250.5,148.5C 249.833,148.5 249.5,148.833 249.5,149.5C 249.167,149.5 248.833,149.5 248.5,149.5C 248.427,147.973 249.094,146.973 250.5,146.5 Z"/></g>
<g><path style="opacity:0.012" fill="#fbfdf1" d="M 250.5,148.5 C 251.833,149.167 251.833,149.167 250.5,148.5 Z"/></g>
<g><path style="opacity:0.029" fill="#fefced" d="M 249.5,149.5 C 249.833,149.5 250.167,149.5 250.5,149.5C 249.968,152.46 249.301,152.793 248.5,150.5C 249.167,150.5 249.5,150.167 249.5,149.5 Z"/></g>
<g><path style="opacity:0.031" fill="#fafdea" d="M 367.5,150.5 C 367.369,149.761 367.536,149.094 368,148.5C 368.692,149.437 368.525,150.103 367.5,150.5 Z"/></g>
<g><path style="opacity:0.459" fill="#867f81" d="M 246.5,151.5 C 244.869,153.643 242.869,155.31 240.5,156.5C 239.167,157.167 237.833,157.833 236.5,158.5C 239.057,155.208 242.391,152.874 246.5,151.5 Z"/></g>
<g><path style="opacity:0.008" fill="#f2fff2" d="M 369.5,155.5 C 370.833,156.167 370.833,156.167 369.5,155.5 Z"/></g>
<g><path style="opacity:0.024" fill="#f8ffef" d="M 240.5,156.5 C 241.833,157.167 241.833,157.167 240.5,156.5 Z"/></g>
<g><path style="opacity:0.259" fill="#a3a093" d="M 236.5,158.5 C 236.5,158.833 236.5,159.167 236.5,159.5C 235.609,160.11 234.609,160.443 233.5,160.5C 233.973,159.094 234.973,158.427 236.5,158.5 Z"/></g>
<g><path style="opacity:0.055" fill="#f8fbea" d="M 236.5,159.5 C 237.833,160.167 237.833,160.167 236.5,159.5 Z"/></g>
<g><path style="opacity:1" fill="#8c92c3" d="M 365.5,147.5 C 366.167,148.5 366.833,149.5 367.5,150.5C 369.696,160.43 370.03,170.43 368.5,180.5C 368.167,180.5 367.833,180.5 367.5,180.5C 367.984,169.389 367.317,158.389 365.5,147.5 Z"/></g>
<g><path style="opacity:0.71" fill="#7a7479" d="M 233.5,160.5 C 232.016,162.074 230.349,163.407 228.5,164.5C 227.508,164.328 226.842,164.662 226.5,165.5C 223.669,166.079 221.336,167.412 219.5,169.5C 218.833,169.5 218.5,169.833 218.5,170.5C 217.508,170.328 216.842,170.662 216.5,171.5C 216.167,171.5 215.833,171.5 215.5,171.5C 216.475,169.807 217.808,168.307 219.5,167C 224.068,164.548 228.735,162.382 233.5,160.5 Z"/></g>
<g><path style="opacity:0.012" fill="#f2f9f6" d="M 234.5,161.5 C 235.833,162.167 235.833,162.167 234.5,161.5 Z"/></g>
<g><path style="opacity:1" fill="#1837bb" d="M 285.5,187.5 C 284.596,186.791 284.263,185.791 284.5,184.5C 281.167,184.5 277.833,184.5 274.5,184.5C 277.287,183.523 280.287,183.19 283.5,183.5C 282.255,174.356 281.255,165.189 280.5,156C 280.431,151.415 280.931,146.915 282,142.5C 282.037,157.644 283.204,172.644 285.5,187.5 Z"/></g>
<g><path style="opacity:0.067" fill="#f7feea" d="M 228.5,164.5 C 229.552,164.351 230.552,164.517 231.5,165C 230.251,165.74 229.251,165.573 228.5,164.5 Z"/></g>
<g><path style="opacity:0.024" fill="#fbfff0" d="M 226.5,165.5 C 227.833,166.167 227.833,166.167 226.5,165.5 Z"/></g>
<g><path style="opacity:0.055" fill="#f9feeb" d="M 219.5,169.5 C 221.793,170.301 221.46,170.968 218.5,171.5C 218.5,171.167 218.5,170.833 218.5,170.5C 219.167,170.5 219.5,170.167 219.5,169.5 Z"/></g>
<g><path style="opacity:0.133" fill="#b5b9be" d="M 261.5,135.5 C 261.251,147.531 261.584,159.531 262.5,171.5C 262.167,171.5 261.833,171.5 261.5,171.5C 261.423,170.25 260.756,169.417 259.5,169C 260.829,158.735 260.829,148.569 259.5,138.5C 259.427,136.973 260.094,135.973 261.5,135.5 Z"/></g>
<g><path style="opacity:0.024" fill="#fef7ef" d="M 216.5,171.5 C 217.167,171.5 217.833,171.5 218.5,171.5C 217.833,172.833 217.167,172.833 216.5,171.5 Z"/></g>
<g><path style="opacity:0.051" fill="#fcfded" d="M 261.5,171.5 C 261.27,173.983 260.603,174.483 259.5,173C 259.836,171.97 260.503,171.47 261.5,171.5 Z"/></g>
<g><path style="opacity:0.038" fill="#d0d4d4" d="M 262.5,171.5 C 263.674,172.514 264.34,173.847 264.5,175.5C 263.883,175.611 263.383,175.944 263,176.5C 262.506,174.866 262.34,173.199 262.5,171.5 Z"/></g>
<g><path style="opacity:1" fill="#102482" d="M 54.5,197.5 C 53.8333,197.5 53.1667,197.5 52.5,197.5C 54.6153,189.686 55.782,181.686 56,173.5C 56.6682,181.788 56.1682,189.788 54.5,197.5 Z"/></g>
<g><path style="opacity:0.043" fill="#fdfcec" d="M 208.5,176.5 C 209.833,177.167 209.833,177.167 208.5,176.5 Z"/></g>
<g><path style="opacity:0.012" fill="#f6fef1" d="M 208.5,177.5 C 207.833,178.167 207.833,178.167 208.5,177.5 Z"/></g>
<g><path style="opacity:0.012" fill="#f5fff2" d="M 261.5,177.5 C 262.833,178.167 262.833,178.167 261.5,177.5 Z"/></g>
<g><path style="opacity:1" fill="#1435bb" d="M 366.5,186.5 C 366.5,186.833 366.5,187.167 366.5,187.5C 364.801,187.527 363.467,188.194 362.5,189.5C 362.703,187.61 362.037,186.11 360.5,185C 361.203,178.378 361.87,171.711 362.5,165C 360.912,160.323 358.912,155.823 356.5,151.5C 356.846,150.304 357.346,150.304 358,151.5C 359.667,154.833 361.333,158.167 363,161.5C 363.5,169.827 363.666,178.16 363.5,186.5C 364.5,186.5 365.5,186.5 366.5,186.5 Z"/></g>
<g><path style="opacity:0.713" fill="#898482" d="M 215.5,171.5 C 213.343,173.412 211.009,175.079 208.5,176.5C 207.504,176.414 206.671,176.748 206,177.5C 205.5,184.158 205.334,190.825 205.5,197.5C 205.167,197.5 204.833,197.5 204.5,197.5C 204.334,190.492 204.5,183.492 205,176.5C 208.179,174.152 211.679,172.486 215.5,171.5 Z"/></g>
<g><path style="opacity:0.663" fill="#9b9dbe" d="M 266.5,180.5 C 267.931,181.78 268.598,183.447 268.5,185.5C 268.167,185.5 267.833,185.5 267.5,185.5C 266.962,183.883 266.629,182.216 266.5,180.5 Z"/></g>
<g><path style="opacity:0.024" fill="#fefcf1" d="M 267.5,185.5 C 266.833,186.167 266.833,186.167 267.5,185.5 Z"/></g>
<g><path style="opacity:1" fill="#5d893e" d="M 274.5,184.5 C 277.833,184.5 281.167,184.5 284.5,184.5C 284.263,185.791 284.596,186.791 285.5,187.5C 286.659,189.25 288.326,190.25 290.5,190.5C 291.301,192.042 291.634,193.708 291.5,195.5C 289.219,195.077 287.552,195.744 286.5,197.5C 280.5,197.5 274.5,197.5 268.5,197.5C 267.167,193.5 267.167,189.5 268.5,185.5C 270.435,184.85 272.435,184.517 274.5,184.5 Z"/></g>
<g><path style="opacity:0.031" fill="#f4f6e1" d="M 367.5,180.5 C 367.833,180.5 368.167,180.5 368.5,180.5C 368.664,183.187 368.497,185.854 368,188.5C 367.617,187.944 367.117,187.611 366.5,187.5C 366.5,187.167 366.5,186.833 366.5,186.5C 367.341,184.621 367.675,182.621 367.5,180.5 Z"/></g>
<g><path style="opacity:0.024" fill="#fafef1" d="M 265.5,187.5 C 266.525,187.897 266.692,188.563 266,189.5C 265.536,188.906 265.369,188.239 265.5,187.5 Z"/></g>
<g><path style="opacity:0.012" fill="#fefff3" d="M 264.5,190.5 C 265.833,191.167 265.833,191.167 264.5,190.5 Z"/></g>
<g><path style="opacity:1" fill="#bcb3de" d="M 290.5,190.5 C 310.518,190.286 330.518,190.786 350.5,192C 353.851,192.057 356.851,192.891 359.5,194.5C 359.5,195.5 359.5,196.5 359.5,197.5C 335.167,197.5 310.833,197.5 286.5,197.5C 287.552,195.744 289.219,195.077 291.5,195.5C 291.634,193.708 291.301,192.042 290.5,190.5 Z"/></g>
<g><path style="opacity:1" fill="#618542" d="M 366.5,187.5 C 366.691,190.983 367.357,194.316 368.5,197.5C 365.5,197.5 362.5,197.5 359.5,197.5C 359.5,196.5 359.5,195.5 359.5,194.5C 361.408,193.514 362.408,191.848 362.5,189.5C 363.467,188.194 364.801,187.527 366.5,187.5 Z"/></g>
</svg>
