<?xml version="1.0" encoding="UTF-8"?>
<!DOCTYPE svg PUBLIC "-//W3C//DTD SVG 1.1//EN" "http://www.w3.org/Graphics/SVG/1.1/DTD/svg11.dtd">
<svg xmlns="http://www.w3.org/2000/svg" version="1.1" width="400px" height="198px" style="shape-rendering:geometricPrecision; text-rendering:geometricPrecision; image-rendering:optimizeQuality; fill-rule:evenodd; clip-rule:evenodd" xmlns:xlink="http://www.w3.org/1999/xlink">
<g><path style="opacity:0.153" fill="#0d0003" d="M 7.5,36.5 C 8.77329,37.0768 8.77329,37.7435 7.5,38.5C 6.53705,38.0302 6.53705,37.3635 7.5,36.5 Z"/></g>
<g><path style="opacity:0.078" fill="#0a020d" d="M 4.5,44.5 C 3.42654,43.7494 3.25988,42.7494 4,41.5C 4.48278,42.448 4.64945,43.448 4.5,44.5 Z"/></g>
<g><path style="opacity:0.153" fill="#100504" d="M 394.5,45.5 C 265.833,45.5 137.167,45.5 8.5,45.5C 8.5,45.1667 8.5,44.8333 8.5,44.5C 134.403,44.8323 260.237,44.4989 386,43.5C 388.939,44.1281 391.772,44.7948 394.5,45.5 Z"/></g>
<g><path style="opacity:0.269" fill="#0a000e" d="M 0.5,151.5 C 2.85187,152.543 3.01854,153.876 1,155.5C 0.50999,154.207 0.343323,152.873 0.5,151.5 Z"/></g>
<g><path style="opacity:0.269" fill="#0a000e" d="M 399.5,151.5 C 399.5,152.833 399.5,154.167 399.5,155.5C 396.833,154.167 396.833,152.833 399.5,151.5 Z"/></g>
<g><path style="opacity:0.078" fill="#09000b" d="M 1.5,157.5 C 2.83333,158.167 2.83333,158.167 1.5,157.5 Z"/></g>
<g><path style="opacity:0.616" fill="#1c0a0a" d="M 4.5,44.5 C 5.83333,44.5 7.16667,44.5 8.5,44.5C 8.5,44.8333 8.5,45.1667 8.5,45.5C 7.20895,45.2627 6.20895,45.596 5.5,46.5C 4.16667,83.1667 4.16667,119.833 5.5,156.5C 135.167,157.833 264.833,157.833 394.5,156.5C 395.498,119.67 395.832,82.6704 395.5,45.5C 396.419,47.3908 397.086,50.0575 397.5,53.5C 396.843,88.382 396.176,123.215 395.5,158C 392.475,158.361 389.475,158.861 386.5,159.5C 262.167,158.167 137.833,158.167 13.5,159.5C 10.2651,158.969 7.09847,158.302 4,157.5C 3.17356,119.762 3.34022,82.0954 4.5,44.5 Z"/></g>
<g><path style="opacity:1" fill="#b63631" d="M 393.5,47.5 C 393.833,47.5 394.167,47.5 394.5,47.5C 394.5,83.8333 394.5,120.167 394.5,156.5C 264.833,157.833 135.167,157.833 5.5,156.5C 5.17075,141.99 5.50408,127.657 6.5,113.5C 6.5,127.5 6.5,141.5 6.5,155.5C 135.5,155.5 264.5,155.5 393.5,155.5C 393.5,120.167 393.5,84.8333 393.5,49.5C 393.5,48.8333 393.5,48.1667 393.5,47.5 Z"/></g>
<g><path style="opacity:1" fill="#fe4d47" d="M 393.5,49.5 C 393.5,84.8333 393.5,120.167 393.5,155.5C 264.5,155.5 135.5,155.5 6.5,155.5C 6.5,141.5 6.5,127.5 6.5,113.5C 8.31833,126.128 9.15166,139.128 9,152.5C 10.1939,153.43 11.5272,154.097 13,154.5C 137.667,153.167 262.333,153.167 387,154.5C 388.473,154.097 389.806,153.43 391,152.5C 391.333,118.5 391.667,84.5 392,50.5C 392.383,49.944 392.883,49.6107 393.5,49.5 Z"/></g>
<g><path style="opacity:1" fill="#ef4845" d="M 393.5,47.5 C 393.5,48.1667 393.5,48.8333 393.5,49.5C 392.883,49.6107 392.383,49.944 392,50.5C 391.667,84.5 391.333,118.5 391,152.5C 389.806,153.43 388.473,154.097 387,154.5C 262.333,153.167 137.667,153.167 13,154.5C 11.5272,154.097 10.1939,153.43 9,152.5C 9.15166,139.128 8.31833,126.128 6.5,113.5C 6.5,91.5 6.5,69.5 6.5,47.5C 135.5,47.5 264.5,47.5 393.5,47.5 Z"/></g>
<g><path style="opacity:1" fill="#0a0201" d="M 318.5,74.5 C 343.737,70.242 354.57,80.5754 351,105.5C 349.58,109.345 347.413,112.678 344.5,115.5C 347.408,121.309 349.741,127.309 351.5,133.5C 348.428,133.817 345.428,133.484 342.5,132.5C 340.5,127.833 338.5,123.167 336.5,118.5C 333.914,117.52 331.247,117.187 328.5,117.5C 328.5,122.833 328.5,128.167 328.5,133.5C 325.167,133.5 321.833,133.5 318.5,133.5C 318.5,113.833 318.5,94.1667 318.5,74.5 Z"/></g>
<g><path style="opacity:1" fill="#ea4744" d="M 328.5,86.5 C 340.106,84.9431 344.606,89.9431 342,101.5C 341.535,102.931 340.701,104.097 339.5,105C 335.848,105.499 332.182,105.665 328.5,105.5C 328.5,99.1667 328.5,92.8333 328.5,86.5 Z"/></g>
<g><path style="opacity:1" fill="#030100" d="M 266.5,74.5 C 276.833,74.5 287.167,74.5 297.5,74.5C 297.5,78.1667 297.5,81.8333 297.5,85.5C 290.5,85.5 283.5,85.5 276.5,85.5C 276.5,90.8333 276.5,96.1667 276.5,101.5C 281.833,101.5 287.167,101.5 292.5,101.5C 292.5,105.167 292.5,108.833 292.5,112.5C 287.167,112.5 281.833,112.5 276.5,112.5C 276.5,115.5 276.5,118.5 276.5,121.5C 284.167,121.5 291.833,121.5 299.5,121.5C 299.5,125.5 299.5,129.5 299.5,133.5C 288.5,133.5 277.5,133.5 266.5,133.5C 266.5,113.833 266.5,94.1667 266.5,74.5 Z"/></g>
<g><path style="opacity:1" fill="#010000" d="M 213.5,74.5 C 220.175,74.3337 226.842,74.5004 233.5,75C 244.504,80.852 248.67,90.0187 246,102.5C 242.899,114.646 235.065,119.646 222.5,117.5C 222.5,122.833 222.5,128.167 222.5,133.5C 219.5,133.5 216.5,133.5 213.5,133.5C 213.5,113.833 213.5,94.1667 213.5,74.5 Z"/></g>
<g><path style="opacity:1" fill="#e94643" d="M 231.5,86.5 C 236.899,89.647 238.732,94.3137 237,100.5C 236.215,102.286 235.049,103.786 233.5,105C 230.183,105.498 226.85,105.665 223.5,105.5C 223.5,99.1667 223.5,92.8333 223.5,86.5C 226.167,86.5 228.833,86.5 231.5,86.5 Z"/></g>
<g><path style="opacity:1" fill="#952927" d="M 231.5,86.5 C 228.833,86.5 226.167,86.5 223.5,86.5C 223.5,92.8333 223.5,99.1667 223.5,105.5C 222.509,99.021 222.176,92.3543 222.5,85.5C 225.713,85.19 228.713,85.5233 231.5,86.5 Z"/></g>
<g><path style="opacity:1" fill="#000000" d="M 162.5,74.5 C 165.5,74.5 168.5,74.5 171.5,74.5C 171.5,90.1667 171.5,105.833 171.5,121.5C 178.833,121.5 186.167,121.5 193.5,121.5C 193.5,125.5 193.5,129.5 193.5,133.5C 183.167,133.5 172.833,133.5 162.5,133.5C 162.5,113.833 162.5,94.1667 162.5,74.5 Z"/></g>
<g><path style="opacity:1" fill="#020000" d="M 138.5,74.5 C 138.5,78.1667 138.5,81.8333 138.5,85.5C 131.5,85.5 124.5,85.5 117.5,85.5C 117.5,90.8333 117.5,96.1667 117.5,101.5C 122.833,101.5 128.167,101.5 133.5,101.5C 133.5,105.167 133.5,108.833 133.5,112.5C 128.167,112.5 122.833,112.5 117.5,112.5C 117.5,115.5 117.5,118.5 117.5,121.5C 125.167,121.5 132.833,121.5 140.5,121.5C 140.5,125.5 140.5,129.5 140.5,133.5C 129.833,133.5 119.167,133.5 108.5,133.5C 108.5,113.833 108.5,94.1667 108.5,74.5C 118.5,74.5 128.5,74.5 138.5,74.5 Z"/></g>
<g><path style="opacity:1" fill="#6e1c1a" d="M 138.5,74.5 C 128.5,74.5 118.5,74.5 108.5,74.5C 108.5,94.1667 108.5,113.833 108.5,133.5C 107.503,113.674 107.17,93.6736 107.5,73.5C 118.014,73.1724 128.347,73.5058 138.5,74.5 Z"/></g>
<g><path style="opacity:1" fill="#0e0402" d="M 61.5,74.5 C 61.5,83.8333 61.5,93.1667 61.5,102.5C 66.5,102.5 71.5,102.5 76.5,102.5C 76.5,93.1667 76.5,83.8333 76.5,74.5C 79.8333,74.5 83.1667,74.5 86.5,74.5C 86.5,94.1667 86.5,113.833 86.5,133.5C 83.1667,133.5 79.8333,133.5 76.5,133.5C 76.5,126.5 76.5,119.5 76.5,112.5C 71.5,112.5 66.5,112.5 61.5,112.5C 61.5,119.5 61.5,126.5 61.5,133.5C 58.1667,133.5 54.8333,133.5 51.5,133.5C 51.5,113.833 51.5,94.1667 51.5,74.5C 54.8333,74.5 58.1667,74.5 61.5,74.5 Z"/></g>
<g><path style="opacity:1" fill="#bd3735" d="M 61.5,74.5 C 62.4933,83.3178 62.8266,92.3178 62.5,101.5C 66.8333,101.5 71.1667,101.5 75.5,101.5C 75.1734,92.3178 75.5067,83.3178 76.5,74.5C 76.5,83.8333 76.5,93.1667 76.5,102.5C 71.5,102.5 66.5,102.5 61.5,102.5C 61.5,93.1667 61.5,83.8333 61.5,74.5 Z"/></g>
<g><path style="opacity:1" fill="#b43836" d="M 5.5,46.5 C 135.334,46.1671 265.001,46.5004 394.5,47.5C 394.167,47.5 393.833,47.5 393.5,47.5C 264.5,47.5 135.5,47.5 6.5,47.5C 6.5,69.5 6.5,91.5 6.5,113.5C 5.50408,127.657 5.17075,141.99 5.5,156.5C 4.16667,119.833 4.16667,83.1667 5.5,46.5 Z"/></g>
<g><path style="opacity:1" fill="#66201e" d="M 5.5,46.5 C 6.20895,45.596 7.20895,45.2627 8.5,45.5C 137.167,45.5 265.833,45.5 394.5,45.5C 394.833,45.5 395.167,45.5 395.5,45.5C 395.832,82.6704 395.498,119.67 394.5,156.5C 394.5,120.167 394.5,83.8333 394.5,47.5C 265.001,46.5004 135.334,46.1671 5.5,46.5 Z"/></g>
<g><path style="opacity:0.078" fill="#09000b" d="M 397.5,157.5 C 398.833,158.167 398.833,158.167 397.5,157.5 Z"/></g>
<g><path style="opacity:0.116" fill="#0d0108" d="M 3.5,161.5 C 5.41444,162.185 7.41444,162.685 9.5,163C 8.5,163.167 7.5,163.333 6.5,163.5C 4.97041,163.36 3.97041,162.693 3.5,161.5 Z"/></g>
<g><path style="opacity:0.116" fill="#0d0108" d="M 395.5,161.5 C 396.043,161.56 396.376,161.893 396.5,162.5C 394.579,163.641 392.579,163.808 390.5,163C 392.382,162.802 394.048,162.302 395.5,161.5 Z"/></g>
<g><path style="opacity:0.135" fill="#0e0104" d="M 6.5,166.5 C 9.13678,168.154 8.80345,168.654 5.5,168C 6.05596,167.617 6.38929,167.117 6.5,166.5 Z"/></g>
<g><path style="opacity:0.135" fill="#0e0104" d="M 392.5,166.5 C 395.137,168.154 394.803,168.654 391.5,168C 392.056,167.617 392.389,167.117 392.5,166.5 Z"/></g>
<g><path style="opacity:0.093" fill="#08040d" d="M 10.5,166.5 C 12.3675,167.786 12.5342,169.119 11,170.5C 9.23173,169.318 9.06507,167.985 10.5,166.5 Z"/></g>
<g><path style="opacity:0.093" fill="#08040d" d="M 388.5,166.5 C 390.852,167.543 391.019,168.876 389,170.5C 387.489,169.436 387.323,168.103 388.5,166.5 Z"/></g>
<g><path style="opacity:0.078" fill="#000c03" d="M 3.5,169.5 C 4.83333,170.167 4.83333,170.167 3.5,169.5 Z"/></g>
<g><path style="opacity:0.078" fill="#000c03" d="M 395.5,169.5 C 396.833,170.167 396.833,170.167 395.5,169.5 Z"/></g>
</svg>
