<?xml version="1.0" encoding="UTF-8"?>
<!DOCTYPE svg PUBLIC "-//W3C//DTD SVG 1.1//EN" "http://www.w3.org/Graphics/SVG/1.1/DTD/svg11.dtd">
<svg xmlns="http://www.w3.org/2000/svg" version="1.1" width="400px" height="198px" style="shape-rendering:geometricPrecision; text-rendering:geometricPrecision; image-rendering:optimizeQuality; fill-rule:evenodd; clip-rule:evenodd" xmlns:xlink="http://www.w3.org/1999/xlink">
<g><path style="opacity:0.012" fill="#010008" d="M 243.5,5.5 C 243.897,4.47498 244.563,4.30831 245.5,5C 244.906,5.46434 244.239,5.63101 243.5,5.5 Z"/></g>
<g><path style="opacity:0.012" fill="#060007" d="M 266.5,5.5 C 266.897,4.47498 267.563,4.30831 268.5,5C 267.906,5.46434 267.239,5.63101 266.5,5.5 Z"/></g>
<g><path style="opacity:0.875" fill="#39532d" d="M 267.5,7.5 C 255.354,6.35048 243.688,8.01714 232.5,12.5C 234.428,10.5259 236.761,9.02594 239.5,8C 242.796,7.54259 245.963,6.70925 249,5.5C 249.333,5.83333 249.667,6.16667 250,6.5C 253,5.83333 256,5.16667 259,4.5C 261.87,5.69318 264.704,6.69318 267.5,7.5 Z"/></g>
<g><path style="opacity:0.008" fill="#121d0b" d="M 186.5,8.5 C 183.167,8.5 179.833,8.5 176.5,8.5C 179.947,6.29295 183.28,6.29295 186.5,8.5 Z"/></g>
<g><path style="opacity:0.012" fill="#050008" d="M 235.5,7.5 C 236.833,8.16667 236.833,8.16667 235.5,7.5 Z"/></g>
<g><path style="opacity:0.008" fill="#040007" d="M 275.5,8.5 C 275.897,7.47498 276.563,7.30831 277.5,8C 276.906,8.46434 276.239,8.63101 275.5,8.5 Z"/></g>
<g><path style="opacity:0.659" fill="#2f4326" d="M 176.5,8.5 C 179.833,8.5 183.167,8.5 186.5,8.5C 193.82,9.16906 200.487,11.5024 206.5,15.5C 206.44,16.0431 206.107,16.3764 205.5,16.5C 194.721,9.93294 183.055,7.76627 170.5,10C 164.451,11.292 158.785,13.4587 153.5,16.5C 154.894,14.2918 156.894,12.7918 159.5,12C 164.949,9.7206 170.616,8.55393 176.5,8.5 Z"/></g>
<g><path style="opacity:0.118" fill="#26391e" d="M 267.5,7.5 C 272.446,8.37106 277.113,10.0377 281.5,12.5C 281.5,13.1667 281.833,13.5 282.5,13.5C 284.25,14.6594 285.25,16.326 285.5,18.5C 283.37,16.8729 281.37,15.0396 279.5,13C 275.226,11.4558 271.226,9.6225 267.5,7.5 Z"/></g>
<g><path style="opacity:0.011" fill="#040007" d="M 282.5,13.5 C 281.833,13.5 281.5,13.1667 281.5,12.5C 281.678,8.89786 282.678,8.89786 284.5,12.5C 284.043,13.2975 283.376,13.6309 282.5,13.5 Z"/></g>
<g><path style="opacity:0.006" fill="#020207" d="M 151.5,12.5 C 153.337,12.6395 153.67,13.3061 152.5,14.5C 151.702,14.0431 151.369,13.3764 151.5,12.5 Z"/></g>
<g><path style="opacity:0.013" fill="#030009" d="M 148.5,18.5 C 147.244,18.5386 146.244,18.0386 145.5,17C 146.833,16.3333 148.167,16.3333 149.5,17C 148.944,17.3826 148.611,17.8826 148.5,18.5 Z"/></g>
<g><path style="opacity:0.006" fill="#010006" d="M 142.5,18.5 C 144.337,18.6395 144.67,19.3061 143.5,20.5C 142.702,20.0431 142.369,19.3764 142.5,18.5 Z"/></g>
<g><path style="opacity:0.004" fill="#050106" d="M 298.5,21.5 C 299.386,20.2241 300.386,20.2241 301.5,21.5C 300.575,22.5624 299.575,22.5624 298.5,21.5 Z"/></g>
<g><path style="opacity:1" fill="#558a3b" d="M 158.5,30.5 C 163.834,24.6645 170.5,21.1645 178.5,20C 187.744,18.8447 196.744,19.6781 205.5,22.5C 205.5,23.5 205.5,24.5 205.5,25.5C 207.199,25.3398 208.866,25.5065 210.5,26C 211.756,26.4169 212.423,27.2502 212.5,28.5C 201.68,26.9654 191.68,29.1321 182.5,35C 177.167,39 171.833,43 166.5,47C 163.956,48.092 161.289,48.7586 158.5,49C 160.833,49.6667 163.167,49.6667 165.5,49C 171.444,45.3888 177.111,41.3888 182.5,37C 192.674,30.8005 203.674,28.8005 215.5,31C 223.083,31.5968 230.416,33.2634 237.5,36C 239.26,36.9653 239.594,38.132 238.5,39.5C 220.39,30.7773 202.723,31.6107 185.5,42C 180.111,46.3888 174.444,50.3888 168.5,54C 163.723,55.9803 158.723,56.9803 153.5,57C 151.789,58.1332 151.289,59.6332 152,61.5C 154.239,64.962 157.406,66.2954 161.5,65.5C 170.531,68.6816 179.531,72.1816 188.5,76C 196.628,77.6238 204.628,77.7904 212.5,76.5C 221.297,75.3334 229.964,73.3334 238.5,70.5C 241.726,67.5218 245.392,66.8551 249.5,68.5C 267.178,73.8444 284.844,73.6778 302.5,68C 307.485,66.0612 312.485,64.2279 317.5,62.5C 318.043,62.56 318.376,62.8933 318.5,63.5C 317.143,65.1856 315.81,66.8523 314.5,68.5C 307.835,71.5891 300.835,73.9225 293.5,75.5C 298.155,76.4629 302.655,75.7963 307,73.5C 307.5,73.6667 308,73.8333 308.5,74C 307.614,75.6147 306.614,77.1147 305.5,78.5C 303.466,80.6548 303.133,82.9882 304.5,85.5C 304.919,88.3245 303.919,90.4912 301.5,92C 296.764,94.4346 291.764,96.1013 286.5,97C 273.833,97.6667 261.167,97.6667 248.5,97C 227.241,92.403 206.741,85.903 187,77.5C 184.849,77.6431 183.182,78.6431 182,80.5C 180.134,82.5191 178.967,84.8524 178.5,87.5C 179.968,92.3009 182.635,96.3009 186.5,99.5C 188.22,102.731 190.553,105.564 193.5,108C 206.698,119.601 221.698,128.101 238.5,133.5C 240.958,135.713 243.958,136.879 247.5,137C 257.675,137.825 267.675,137.658 277.5,136.5C 279.861,136.326 282.194,135.993 284.5,135.5C 285.5,135.5 286.5,135.5 287.5,135.5C 287.675,137.621 287.341,139.621 286.5,141.5C 286.167,141.5 285.833,141.5 285.5,141.5C 280.9,141.28 276.567,141.946 272.5,143.5C 239.832,143.667 207.165,143.5 174.5,143C 163.487,142.248 152.487,141.415 141.5,140.5C 139.485,139.076 137.152,138.41 134.5,138.5C 132.833,138.5 131.167,138.5 129.5,138.5C 125.994,137.267 122.327,136.267 118.5,135.5C 117.329,134.655 115.995,133.989 114.5,133.5C 109.366,119.227 108.199,104.561 111,89.5C 112.677,80.9817 114.843,72.6483 117.5,64.5C 117.5,64.1667 117.5,63.8333 117.5,63.5C 121.88,54.5822 126.38,45.5822 131,36.5C 133.985,33.8384 136.485,30.8384 138.5,27.5C 142.323,24.0843 146.657,21.4176 151.5,19.5C 153.156,18.8535 154.823,18.1869 156.5,17.5C 159.185,17.7083 159.851,18.875 158.5,21C 156.5,21.3333 154.5,21.6667 152.5,22C 150.113,24.9525 150.779,27.2858 154.5,29C 151.959,30.8484 150.959,33.3484 151.5,36.5C 154.4,36.7204 157.067,36.0538 159.5,34.5C 158.975,33.8076 158.308,33.3076 157.5,33C 158.252,32.3292 158.586,31.4959 158.5,30.5 Z"/></g>
<g><path style="opacity:1" fill="#578a3e" d="M 267.5,7.5 C 271.226,9.6225 275.226,11.4558 279.5,13C 281.37,15.0396 283.37,16.8729 285.5,18.5C 285.03,19.6935 284.03,20.3601 282.5,20.5C 263.473,17.001 245.473,19.6677 228.5,28.5C 228.833,28.8333 229.167,29.1667 229.5,29.5C 245.35,21.9256 262.017,19.4256 279.5,22C 290.066,22.067 300.066,24.4003 309.5,29C 311.5,31 313.5,33 315.5,35C 306.995,32.7625 298.328,30.7625 289.5,29C 275.235,26.9245 262.568,30.4245 251.5,39.5C 250.167,40.1667 250.167,40.8333 251.5,41.5C 262.924,32.227 275.924,28.727 290.5,31C 300.527,32.922 310.194,35.922 319.5,40C 321.311,41.0407 321.645,42.2073 320.5,43.5C 315.978,40.4515 310.978,38.7848 305.5,38.5C 304.081,37.5489 302.415,37.2155 300.5,37.5C 293.741,35.6152 286.741,35.1152 279.5,36C 268.595,40.452 258.262,45.952 248.5,52.5C 246.812,50.1455 244.812,48.1455 242.5,46.5C 237.392,43.2987 231.725,41.4653 225.5,41C 219.167,40.3333 212.833,40.3333 206.5,41C 201.2,42.4866 196.867,45.3199 193.5,49.5C 188.783,52.0374 184.449,55.204 180.5,59C 176.192,60.6579 171.858,62.1579 167.5,63.5C 163.119,63.6282 158.785,63.2949 154.5,62.5C 154.5,61.1667 154.5,59.8333 154.5,58.5C 158.582,58.6564 162.582,58.1564 166.5,57C 174.5,51.6667 182.5,46.3333 190.5,41C 206.594,33.5799 222.594,33.7465 238.5,41.5C 240.724,40.9193 241.557,39.5859 241,37.5C 232.583,31.2155 223.083,28.2155 212.5,28.5C 212.423,27.2502 211.756,26.4169 210.5,26C 208.866,25.5065 207.199,25.3398 205.5,25.5C 205.5,24.5 205.5,23.5 205.5,22.5C 209.705,24.6142 214.039,26.1142 218.5,27C 202.049,16.4041 184.716,14.7374 166.5,22C 161.051,24.9583 157.051,28.7917 154.5,33.5C 155.852,32.4756 157.185,31.4756 158.5,30.5C 158.586,31.4959 158.252,32.3292 157.5,33C 158.308,33.3076 158.975,33.8076 159.5,34.5C 157.067,36.0538 154.4,36.7204 151.5,36.5C 150.959,33.3484 151.959,30.8484 154.5,29C 150.779,27.2858 150.113,24.9525 152.5,22C 154.5,21.6667 156.5,21.3333 158.5,21C 159.851,18.875 159.185,17.7083 156.5,17.5C 154.823,18.1869 153.156,18.8535 151.5,19.5C 152.167,18.5 152.833,17.5 153.5,16.5C 158.785,13.4587 164.451,11.292 170.5,10C 183.055,7.76627 194.721,9.93294 205.5,16.5C 206.107,16.3764 206.44,16.0431 206.5,15.5C 207.167,15.8333 207.833,16.1667 208.5,16.5C 208.953,17.4584 209.619,18.2917 210.5,19C 218.169,20.3067 224.835,18.4733 230.5,13.5C 230.842,12.6618 231.508,12.3284 232.5,12.5C 243.688,8.01714 255.354,6.35048 267.5,7.5 Z"/></g>
<g><path style="opacity:0.798" fill="#394e2e" d="M 230.5,13.5 C 224.835,18.4733 218.169,20.3067 210.5,19C 209.619,18.2917 208.953,17.4584 208.5,16.5C 211.064,16.9787 213.564,17.6453 216,18.5C 221.034,17.3224 225.867,15.6558 230.5,13.5 Z"/></g>
<g><path style="opacity:1" fill="#1a3216" d="M 205.5,22.5 C 196.744,19.6781 187.744,18.8447 178.5,20C 170.5,21.1645 163.834,24.6645 158.5,30.5C 157.185,31.4756 155.852,32.4756 154.5,33.5C 157.051,28.7917 161.051,24.9583 166.5,22C 184.716,14.7374 202.049,16.4041 218.5,27C 214.039,26.1142 209.705,24.6142 205.5,22.5 Z"/></g>
<g><path style="opacity:0.009" fill="#010007" d="M 199.5,10.5 C 200.386,9.2241 201.386,9.2241 202.5,10.5C 201.575,11.5624 200.575,11.5624 199.5,10.5 Z"/></g>
<g><path style="opacity:1" fill="#193116" d="M 212.5,28.5 C 223.083,28.2155 232.583,31.2155 241,37.5C 241.557,39.5859 240.724,40.9193 238.5,41.5C 222.594,33.7465 206.594,33.5799 190.5,41C 182.5,46.3333 174.5,51.6667 166.5,57C 162.582,58.1564 158.582,58.6564 154.5,58.5C 154.5,59.8333 154.5,61.1667 154.5,62.5C 158.785,63.2949 163.119,63.6282 167.5,63.5C 165.5,64.1667 163.5,64.8333 161.5,65.5C 157.406,66.2954 154.239,64.962 152,61.5C 151.289,59.6332 151.789,58.1332 153.5,57C 158.723,56.9803 163.723,55.9803 168.5,54C 174.444,50.3888 180.111,46.3888 185.5,42C 202.723,31.6107 220.39,30.7773 238.5,39.5C 239.594,38.132 239.26,36.9653 237.5,36C 230.416,33.2634 223.083,31.5968 215.5,31C 203.674,28.8005 192.674,30.8005 182.5,37C 177.111,41.3888 171.444,45.3888 165.5,49C 163.167,49.6667 160.833,49.6667 158.5,49C 161.289,48.7586 163.956,48.092 166.5,47C 171.833,43 177.167,39 182.5,35C 191.68,29.1321 201.68,26.9654 212.5,28.5 Z"/></g>
<g><path style="opacity:1" fill="#1d3419" d="M 285.5,18.5 C 287.233,19.0076 287.566,19.841 286.5,21C 295.084,21.5302 303.084,23.8635 310.5,28C 315.897,32.6854 319.897,38.1854 322.5,44.5C 321.508,44.6716 320.842,44.3382 320.5,43.5C 321.645,42.2073 321.311,41.0407 319.5,40C 310.194,35.922 300.527,32.922 290.5,31C 275.924,28.727 262.924,32.227 251.5,41.5C 250.167,40.8333 250.167,40.1667 251.5,39.5C 262.568,30.4245 275.235,26.9245 289.5,29C 298.328,30.7625 306.995,32.7625 315.5,35C 313.5,33 311.5,31 309.5,29C 300.066,24.4003 290.066,22.067 279.5,22C 262.017,19.4256 245.35,21.9256 229.5,29.5C 229.167,29.1667 228.833,28.8333 228.5,28.5C 245.473,19.6677 263.473,17.001 282.5,20.5C 284.03,20.3601 285.03,19.6935 285.5,18.5 Z"/></g>
<g><path style="opacity:0.008" fill="#030008" d="M 119.5,38.5 C 119.897,37.475 120.563,37.3083 121.5,38C 120.906,38.4643 120.239,38.631 119.5,38.5 Z"/></g>
<g><path style="opacity:1" fill="#b4b5b4" d="M 295.5,37.5 C 295.158,38.3382 294.492,38.6716 293.5,38.5C 289.731,38.244 286.064,38.5773 282.5,39.5C 282.158,38.6618 281.492,38.3284 280.5,38.5C 285.288,36.4483 290.288,36.115 295.5,37.5 Z"/></g>
<g><path style="opacity:1" fill="#434042" d="M 295.5,37.5 C 297.167,37.5 298.833,37.5 300.5,37.5C 302.415,37.2155 304.081,37.5489 305.5,38.5C 305.5,38.8333 305.5,39.1667 305.5,39.5C 302.959,38.8968 300.626,38.8968 298.5,39.5C 296.585,39.7845 294.919,39.4511 293.5,38.5C 294.492,38.6716 295.158,38.3382 295.5,37.5 Z"/></g>
<g><path style="opacity:1" fill="#0b0c0b" d="M 293.5,38.5 C 294.919,39.4511 296.585,39.7845 298.5,39.5C 305.352,42.6786 309.018,48.0119 309.5,55.5C 309.5,58.1667 309.5,60.8333 309.5,63.5C 310.791,63.7373 311.791,63.404 312.5,62.5C 314.713,61.2271 317.046,60.2271 319.5,59.5C 319.5,60.1667 319.5,60.8333 319.5,61.5C 318.508,61.3284 317.842,61.6618 317.5,62.5C 312.485,64.2279 307.485,66.0612 302.5,68C 284.844,73.6778 267.178,73.8444 249.5,68.5C 249.5,68.1667 249.5,67.8333 249.5,67.5C 255.404,69.0137 261.404,70.0137 267.5,70.5C 269.5,70.1667 271.5,69.8333 273.5,69.5C 272.826,67.8045 272.159,66.1379 271.5,64.5C 271.413,59.4635 271.746,54.4635 272.5,49.5C 274.167,44.5 277.5,41.1667 282.5,39.5C 286.064,38.5773 289.731,38.244 293.5,38.5 Z"/></g>
<g><path style="opacity:0.11" fill="#1e2c19" d="M 153.5,16.5 C 152.833,17.5 152.167,18.5 151.5,19.5C 146.657,21.4176 142.323,24.0843 138.5,27.5C 130.137,31.9297 123.637,38.263 119,46.5C 117.711,52.0884 117.211,57.7551 117.5,63.5C 117.5,63.8333 117.5,64.1667 117.5,64.5C 116.883,64.6107 116.383,64.944 116,65.5C 115.219,60.4456 115.386,55.4456 116.5,50.5C 115.767,49.913 114.767,49.913 113.5,50.5C 114.254,48.4947 115.421,47.828 117,48.5C 119.096,43.5602 121.929,39.0602 125.5,35C 132.574,28.5057 140.24,23.0057 148.5,18.5C 150.167,17.8333 151.833,17.1667 153.5,16.5 Z"/></g>
<g><path style="opacity:1" fill="#f4f4f4" d="M 280.5,38.5 C 281.492,38.3284 282.158,38.6618 282.5,39.5C 277.5,41.1667 274.167,44.5 272.5,49.5C 271.009,52.1864 270.343,55.1864 270.5,58.5C 270.505,60.6965 270.838,62.6965 271.5,64.5C 272.159,66.1379 272.826,67.8045 273.5,69.5C 271.5,69.8333 269.5,70.1667 267.5,70.5C 261.404,70.0137 255.404,69.0137 249.5,67.5C 248.791,66.596 247.791,66.2627 246.5,66.5C 247.637,62.5828 248.47,58.5828 249,54.5C 257.256,49.2871 265.756,44.4538 274.5,40C 276.436,39.187 278.436,38.687 280.5,38.5 Z"/></g>
<g><path style="opacity:1" fill="#f1f1f1" d="M 298.5,39.5 C 300.626,38.8968 302.959,38.8968 305.5,39.5C 312.659,40.3314 318.326,43.6647 322.5,49.5C 322.5,51.8333 322.5,54.1667 322.5,56.5C 321.833,57.5 321.167,58.5 320.5,59.5C 320.167,59.5 319.833,59.5 319.5,59.5C 317.046,60.2271 314.713,61.2271 312.5,62.5C 310.917,60.4922 309.917,58.1589 309.5,55.5C 309.018,48.0119 305.352,42.6786 298.5,39.5 Z"/></g>
<g><path style="opacity:1" fill="#283824" d="M 242.5,46.5 C 242.167,46.5 241.833,46.5 241.5,46.5C 229.791,42.8211 217.791,41.6545 205.5,43C 201.34,45.0226 197.34,47.1892 193.5,49.5C 196.867,45.3199 201.2,42.4866 206.5,41C 212.833,40.3333 219.167,40.3333 225.5,41C 231.725,41.4653 237.392,43.2987 242.5,46.5 Z"/></g>
<g><path style="opacity:1" fill="#476f31" d="M 138.5,27.5 C 136.485,30.8384 133.985,33.8384 131,36.5C 126.38,45.5822 121.88,54.5822 117.5,63.5C 117.211,57.7551 117.711,52.0884 119,46.5C 123.637,38.263 130.137,31.9297 138.5,27.5 Z"/></g>
<g><path style="opacity:1" fill="#e3e3e3" d="M 282.5,42.5 C 288.21,41.8675 290.21,44.2008 288.5,49.5C 281.35,51.3561 279.35,49.0228 282.5,42.5 Z"/></g>
<g><path style="opacity:1" fill="#0e0e0e" d="M 237.5,69.5 C 238.167,69.5 238.5,69.8333 238.5,70.5C 229.964,73.3334 221.297,75.3334 212.5,76.5C 207.833,76.5 203.167,76.5 198.5,76.5C 198.737,75.209 198.404,74.209 197.5,73.5C 191.748,62.2743 194.081,53.1076 204.5,46C 217.306,41.1576 227.139,44.6576 234,56.5C 234.738,60.7097 234.572,64.8764 233.5,69C 233.833,69.5 234.167,70 234.5,70.5C 235.417,69.8728 236.417,69.5394 237.5,69.5 Z"/></g>
<g><path style="opacity:0.004" fill="#1c1d1b" d="M 305.5,39.5 C 305.5,39.1667 305.5,38.8333 305.5,38.5C 310.978,38.7848 315.978,40.4515 320.5,43.5C 320.842,44.3382 321.508,44.6716 322.5,44.5C 324.373,45.8963 324.706,47.563 323.5,49.5C 323.167,49.5 322.833,49.5 322.5,49.5C 318.326,43.6647 312.659,40.3314 305.5,39.5 Z"/></g>
<g><path style="opacity:1" fill="#f2f2f1" d="M 241.5,46.5 C 246.8,51.1473 247.967,56.8139 245,63.5C 242.886,66.1208 240.386,68.1208 237.5,69.5C 236.417,69.5394 235.417,69.8728 234.5,70.5C 234.167,70 233.833,69.5 233.5,69C 234.572,64.8764 234.738,60.7097 234,56.5C 227.139,44.6576 217.306,41.1576 204.5,46C 194.081,53.1076 191.748,62.2743 197.5,73.5C 197.631,74.2389 197.464,74.9056 197,75.5C 186.797,73.973 177.297,70.6397 168.5,65.5C 172.677,63.3827 177.01,61.5494 181.5,60C 185.693,56.6349 189.693,53.1349 193.5,49.5C 197.34,47.1892 201.34,45.0226 205.5,43C 217.791,41.6545 229.791,42.8211 241.5,46.5 Z"/></g>
<g><path style="opacity:1" fill="#efefef" d="M 293.5,47.5 C 300.738,47.5675 302.904,50.9008 300,57.5C 293.108,60.5355 290.108,58.2021 291,50.5C 292.045,49.6266 292.878,48.6266 293.5,47.5 Z"/></g>
<g><path style="opacity:0.008" fill="#010005" d="M 111.5,50.5 C 110.761,50.631 110.094,50.4643 109.5,50C 110.437,49.3083 111.103,49.475 111.5,50.5 Z"/></g>
<g><path style="opacity:1" fill="#e6e6e6" d="M 204.5,49.5 C 211.084,49.004 212.751,51.504 209.5,57C 202.745,57.7558 201.078,55.2558 204.5,49.5 Z"/></g>
<g><path style="opacity:0.875" fill="#7c7c7c" d="M 322.5,49.5 C 322.833,49.5 323.167,49.5 323.5,49.5C 325.044,52.1721 324.711,54.5055 322.5,56.5C 322.5,54.1667 322.5,51.8333 322.5,49.5 Z"/></g>
<g><path style="opacity:1" fill="#ececec" d="M 217.5,54.5 C 224,53.4987 226.5,56.1653 225,62.5C 222,66.5 219,66.5 216,62.5C 215.282,59.5929 215.782,56.9262 217.5,54.5 Z"/></g>
<g><path style="opacity:1" fill="#dddddd" d="M 281.5,54.5 C 286.747,54.6398 287.747,56.8064 284.5,61C 283.216,61.6838 282.049,61.5171 281,60.5C 280.322,58.4024 280.489,56.4024 281.5,54.5 Z"/></g>
<g><path style="opacity:0.184" fill="#1f2a1b" d="M 111.5,50.5 C 112.167,50.5 112.833,50.5 113.5,50.5C 107.352,54.9778 102.686,60.6445 99.5,67.5C 101.167,60.1691 105.167,54.5025 111.5,50.5 Z"/></g>
<g><path style="opacity:1" fill="#3b3b3b" d="M 272.5,49.5 C 271.746,54.4635 271.413,59.4635 271.5,64.5C 270.838,62.6965 270.505,60.6965 270.5,58.5C 270.343,55.1864 271.009,52.1864 272.5,49.5 Z"/></g>
<g><path style="opacity:1" fill="#466d2f" d="M 117.5,64.5 C 114.843,72.6483 112.677,80.9817 111,89.5C 108.199,104.561 109.366,119.227 114.5,133.5C 112.883,132.962 111.216,132.629 109.5,132.5C 109.158,131.662 108.492,131.328 107.5,131.5C 106.198,129.178 104.198,127.845 101.5,127.5C 100.415,125.413 98.7488,124.08 96.5,123.5C 94.8506,122.527 93.184,121.527 91.5,120.5C 91.5,119.833 91.1667,119.5 90.5,119.5C 90.5,119.167 90.5,118.833 90.5,118.5C 90.0133,117.527 89.5133,116.527 89,115.5C 88.3333,108.833 88.3333,102.167 89,95.5C 92.7791,86.2745 96.2791,76.9412 99.5,67.5C 102.686,60.6445 107.352,54.9778 113.5,50.5C 114.767,49.913 115.767,49.913 116.5,50.5C 115.386,55.4456 115.219,60.4456 116,65.5C 116.383,64.944 116.883,64.6107 117.5,64.5 Z"/></g>
<g><path style="opacity:0.004" fill="#0c0c09" d="M 320.5,59.5 C 321.833,60.1667 321.833,60.8333 320.5,61.5C 320.5,60.8333 320.5,60.1667 320.5,59.5 Z"/></g>
<g><path style="opacity:1" fill="#e9e9e9" d="M 207.5,60.5 C 212.159,60.0146 213.492,61.848 211.5,66C 206.728,66.8104 205.395,64.9771 207.5,60.5 Z"/></g>
<g><path style="opacity:1" fill="#202c1c" d="M 193.5,49.5 C 189.693,53.1349 185.693,56.6349 181.5,60C 177.01,61.5494 172.677,63.3827 168.5,65.5C 177.297,70.6397 186.797,73.973 197,75.5C 197.464,74.9056 197.631,74.2389 197.5,73.5C 198.404,74.209 198.737,75.209 198.5,76.5C 203.167,76.5 207.833,76.5 212.5,76.5C 204.628,77.7904 196.628,77.6238 188.5,76C 179.531,72.1816 170.531,68.6816 161.5,65.5C 163.5,64.8333 165.5,64.1667 167.5,63.5C 171.858,62.1579 176.192,60.6579 180.5,59C 184.449,55.204 188.783,52.0374 193.5,49.5 Z"/></g>
<g><path style="opacity:1" fill="#dbdbdb" d="M 285.5,61.5 C 287.948,61.0847 289.281,62.0847 289.5,64.5C 287.81,69.5216 285.81,69.6883 283.5,65C 283.978,63.6974 284.645,62.5307 285.5,61.5 Z"/></g>
<g><path style="opacity:1" fill="#6a6868" d="M 309.5,55.5 C 309.917,58.1589 310.917,60.4922 312.5,62.5C 311.791,63.404 310.791,63.7373 309.5,63.5C 309.5,60.8333 309.5,58.1667 309.5,55.5 Z"/></g>
<g><path style="opacity:1" fill="#1a1e19" d="M 300.5,37.5 C 298.833,37.5 297.167,37.5 295.5,37.5C 290.288,36.115 285.288,36.4483 280.5,38.5C 278.436,38.687 276.436,39.187 274.5,40C 265.756,44.4538 257.256,49.2871 249,54.5C 248.47,58.5828 247.637,62.5828 246.5,66.5C 247.791,66.2627 248.791,66.596 249.5,67.5C 249.5,67.8333 249.5,68.1667 249.5,68.5C 245.392,66.8551 241.726,67.5218 238.5,70.5C 238.5,69.8333 238.167,69.5 237.5,69.5C 240.386,68.1208 242.886,66.1208 245,63.5C 247.967,56.8139 246.8,51.1473 241.5,46.5C 241.833,46.5 242.167,46.5 242.5,46.5C 244.812,48.1455 246.812,50.1455 248.5,52.5C 258.262,45.952 268.595,40.452 279.5,36C 286.741,35.1152 293.741,35.6152 300.5,37.5 Z"/></g>
<g><path style="opacity:0.027" fill="#27331f" d="M 317.5,62.5 C 317.842,61.6618 318.508,61.3284 319.5,61.5C 319.833,61.5 320.167,61.5 320.5,61.5C 319.946,65.0548 317.946,67.3882 314.5,68.5C 315.81,66.8523 317.143,65.1856 318.5,63.5C 318.376,62.8933 318.043,62.56 317.5,62.5 Z"/></g>
<g><path style="opacity:0.008" fill="#030008" d="M 317.5,68.5 C 320.137,70.1538 319.803,70.6538 316.5,70C 317.056,69.6174 317.389,69.1174 317.5,68.5 Z"/></g>
<g><path style="opacity:1" fill="#e4e4e3" d="M 209.5,68.5 C 214.159,68.0146 215.492,69.848 213.5,74C 208.728,74.8104 207.395,72.9771 209.5,68.5 Z"/></g>
<g><path style="opacity:1" fill="#1d3117" d="M 314.5,68.5 C 311.323,70.6841 309.323,73.6841 308.5,77.5C 307.833,77.5 307.5,77.8333 307.5,78.5C 306.833,78.5 306.167,78.5 305.5,78.5C 306.614,77.1147 307.614,75.6147 308.5,74C 308,73.8333 307.5,73.6667 307,73.5C 302.655,75.7963 298.155,76.4629 293.5,75.5C 300.835,73.9225 307.835,71.5891 314.5,68.5 Z"/></g>
<g><path style="opacity:0.006" fill="#070a08" d="M 308.5,77.5 C 307.789,80.2502 307.789,83.2502 308.5,86.5C 308.043,87.2975 307.376,87.6309 306.5,87.5C 306.672,86.5084 306.338,85.8417 305.5,85.5C 305.167,81.5 304.833,81.5 304.5,85.5C 303.133,82.9882 303.466,80.6548 305.5,78.5C 305.638,82.2861 306.305,82.2861 307.5,78.5C 308.167,78.5 308.5,78.1667 308.5,77.5 Z M 305.5,78.5 C 306.167,78.5 306.833,78.5 307.5,78.5C 306.305,82.2861 305.638,82.2861 305.5,78.5 Z"/></g>
<g><path style="opacity:0.11" fill="#1f291a" d="M 99.5,67.5 C 96.2791,76.9412 92.7791,86.2745 89,95.5C 88.3333,102.167 88.3333,108.833 89,115.5C 89.5133,116.527 90.0133,117.527 90.5,118.5C 89.5084,118.328 88.8417,118.662 88.5,119.5C 87.1196,118.294 85.9529,118.627 85,120.5C 84.5172,119.552 84.3505,118.552 84.5,117.5C 88.8762,118.112 89.5429,116.946 86.5,114C 86.4489,107.359 86.7822,100.525 87.5,93.5C 88.9298,91.2555 89.9298,88.7555 90.5,86C 89.6919,85.6924 89.0253,85.1924 88.5,84.5C 89.2739,83.2888 90.1072,83.2888 91,84.5C 93.8637,78.7726 96.6971,73.1059 99.5,67.5 Z"/></g>
<g><path style="opacity:1" fill="#2f2317" d="M 304.5,85.5 C 304.833,85.5 305.167,85.5 305.5,85.5C 305.328,86.4916 305.662,87.1583 306.5,87.5C 309.689,89.9449 310.189,92.9449 308,96.5C 305.015,99.4089 301.515,101.409 297.5,102.5C 297.833,101.833 298.167,101.167 298.5,100.5C 303.914,99.7536 306.914,96.7536 307.5,91.5C 302.799,93.0085 298.132,94.8419 293.5,97C 274.136,100.391 254.803,100.225 235.5,96.5C 232.702,95.1309 229.702,94.1309 226.5,93.5C 221.04,92.5142 215.707,91.0142 210.5,89C 203.191,85.4302 195.691,82.2635 188,79.5C 183.604,80.3958 181.104,83.0624 180.5,87.5C 181.973,91.7797 183.973,95.7797 186.5,99.5C 182.635,96.3009 179.968,92.3009 178.5,87.5C 178.967,84.8524 180.134,82.5191 182,80.5C 183.182,78.6431 184.849,77.6431 187,77.5C 206.741,85.903 227.241,92.403 248.5,97C 261.167,97.6667 273.833,97.6667 286.5,97C 291.764,96.1013 296.764,94.4346 301.5,92C 303.919,90.4912 304.919,88.3245 304.5,85.5 Z"/></g>
<g><path style="opacity:0.008" fill="#050008" d="M 87.5,93.5 C 86.7611,93.631 86.0944,93.4643 85.5,93C 86.4368,92.3083 87.1034,92.475 87.5,93.5 Z"/></g>
<g><path style="opacity:0.009" fill="#020007" d="M 84.5,99.5 C 85.5735,100.251 85.7401,101.251 85,102.5C 84.5172,101.552 84.3505,100.552 84.5,99.5 Z"/></g>
<g><path style="opacity:1" fill="#4a0c14" d="M 213.5,96.5 C 227.537,101.952 242.204,104.619 257.5,104.5C 257.833,105.167 258.167,105.833 258.5,106.5C 236.078,105.185 214.578,100.185 194,91.5C 192.521,92.8731 192.688,94.3731 194.5,96C 199.476,100.487 204.809,104.487 210.5,108C 211.448,108.483 212.448,108.649 213.5,108.5C 212.833,109.167 212.167,109.833 211.5,110.5C 203.615,106.117 196.782,100.45 191,93.5C 190.51,92.2068 190.343,90.8734 190.5,89.5C 198.265,91.6885 205.932,94.0219 213.5,96.5 Z"/></g>
<g><path style="opacity:1" fill="#201e13" d="M 186.5,99.5 C 201.886,113.857 219.22,125.19 238.5,133.5C 221.698,128.101 206.698,119.601 193.5,108C 190.553,105.564 188.22,102.731 186.5,99.5 Z"/></g>
<g><path style="opacity:1" fill="#a75d3b" d="M 298.5,100.5 C 287.419,102.22 276.252,103.22 265,103.5C 252.476,104.157 240.31,102.49 228.5,98.5C 226.983,99.9108 225.649,99.7441 224.5,98C 226.129,97.4145 227.629,96.5812 229,95.5C 231.099,96.2865 233.266,96.6199 235.5,96.5C 254.803,100.225 274.136,100.391 293.5,97C 298.132,94.8419 302.799,93.0085 307.5,91.5C 306.914,96.7536 303.914,99.7536 298.5,100.5 Z"/></g>
<g><path style="opacity:0.012" fill="#000703" d="M 300.5,103.5 C 300.897,102.475 301.563,102.308 302.5,103C 301.906,103.464 301.239,103.631 300.5,103.5 Z"/></g>
<g><path style="opacity:1" fill="#ba084f" d="M 258.5,106.5 C 259.492,106.328 260.158,106.662 260.5,107.5C 253.159,107.334 245.826,107.5 238.5,108C 237.975,108.692 237.308,109.192 236.5,109.5C 234.78,108.02 232.947,106.686 231,105.5C 229.541,105.808 228.374,106.475 227.5,107.5C 224.844,106.842 222.178,106.175 219.5,105.5C 217.022,105.667 215.022,106.667 213.5,108.5C 212.448,108.649 211.448,108.483 210.5,108C 204.809,104.487 199.476,100.487 194.5,96C 192.688,94.3731 192.521,92.8731 194,91.5C 214.578,100.185 236.078,105.185 258.5,106.5 Z"/></g>
<g><path style="opacity:1" fill="#9a5c3f" d="M 226.5,93.5 C 229.702,94.1309 232.702,95.1309 235.5,96.5C 233.266,96.6199 231.099,96.2865 229,95.5C 227.629,96.5812 226.129,97.4145 224.5,98C 225.649,99.7441 226.983,99.9108 228.5,98.5C 240.31,102.49 252.476,104.157 265,103.5C 276.252,103.22 287.419,102.22 298.5,100.5C 298.167,101.167 297.833,101.833 297.5,102.5C 297.167,102.5 296.833,102.5 296.5,102.5C 283.575,104.236 270.575,104.902 257.5,104.5C 242.204,104.619 227.537,101.952 213.5,96.5C 217.042,96.6198 220.542,96.2865 224,95.5C 225.376,95.3158 226.209,94.6491 226.5,93.5 Z"/></g>
<g><path style="opacity:0.008" fill="#381f15" d="M 293.5,105.5 C 295.001,106.752 296.668,107.752 298.5,108.5C 298.5,109.167 298.5,109.833 298.5,110.5C 296.089,109.483 294.422,107.816 293.5,105.5 Z"/></g>
<g><path style="opacity:0.012" fill="#170f0d" d="M 298.5,108.5 C 299.313,107.347 300.313,107.347 301.5,108.5C 302.788,110.299 302.788,111.965 301.5,113.5C 299.5,113.5 298.5,112.5 298.5,110.5C 299.458,110.953 300.292,111.619 301,112.5C 301.279,110.588 300.446,109.254 298.5,108.5 Z"/></g>
<g><path style="opacity:0.176" fill="#0d1835" d="M 88.5,119.5 C 89.1667,119.5 89.8333,119.5 90.5,119.5C 91.1667,119.5 91.5,119.833 91.5,120.5C 88.7667,122.433 86.4334,124.766 84.5,127.5C 85.6433,124.736 86.9766,122.069 88.5,119.5 Z"/></g>
<g><path style="opacity:0.01" fill="#0b0000" d="M 84.5,121.5 C 85.525,121.897 85.6917,122.563 85,123.5C 84.5357,122.906 84.369,122.239 84.5,121.5 Z"/></g>
<g><path style="opacity:1" fill="#361a17" d="M 296.5,102.5 C 295.048,103.302 293.382,103.802 291.5,104C 292.056,104.383 292.389,104.883 292.5,105.5C 289.813,105.336 287.146,105.503 284.5,106C 287.333,108.833 290.167,111.667 293,114.5C 294.462,120.051 292.295,123.218 286.5,124C 259.992,130.955 235.659,126.788 213.5,111.5C 213.833,111.5 214.167,111.5 214.5,111.5C 225.73,117.944 237.73,122.444 250.5,125C 263.017,126.091 275.35,125.091 287.5,122C 291.461,121.392 292.961,119.226 292,115.5C 289.113,112.613 286.279,109.779 283.5,107C 276.654,106.179 269.987,106.346 263.5,107.5C 263.167,107.5 262.833,107.5 262.5,107.5C 261.833,107.5 261.167,107.5 260.5,107.5C 260.158,106.662 259.492,106.328 258.5,106.5C 258.167,105.833 257.833,105.167 257.5,104.5C 270.575,104.902 283.575,104.236 296.5,102.5 Z"/></g>
<g><path style="opacity:0.055" fill="#1f1911" d="M 301.5,117.5 C 303.184,120.718 302.517,123.385 299.5,125.5C 300.75,122.994 301.416,120.327 301.5,117.5 Z"/></g>
<g><path style="opacity:1" fill="#0f226f" d="M 96.5,124.5 C 97.922,125.925 99.5887,126.925 101.5,127.5C 104.198,127.845 106.198,129.178 107.5,131.5C 104.482,130.438 101.482,129.271 98.5,128C 97.1772,127.184 96.5106,126.017 96.5,124.5 Z"/></g>
<g><path style="opacity:1" fill="#131925" d="M 96.5,124.5 C 96.5,124.167 96.5,123.833 96.5,123.5C 98.7488,124.08 100.415,125.413 101.5,127.5C 99.5887,126.925 97.922,125.925 96.5,124.5 Z"/></g>
<g><path style="opacity:1" fill="#a45b3a" d="M 226.5,93.5 C 226.209,94.6491 225.376,95.3158 224,95.5C 220.542,96.2865 217.042,96.6198 213.5,96.5C 205.932,94.0219 198.265,91.6885 190.5,89.5C 190.343,90.8734 190.51,92.2068 191,93.5C 196.782,100.45 203.615,106.117 211.5,110.5C 211.842,111.338 212.508,111.672 213.5,111.5C 235.659,126.788 259.992,130.955 286.5,124C 292.295,123.218 294.462,120.051 293,114.5C 290.167,111.667 287.333,108.833 284.5,106C 287.146,105.503 289.813,105.336 292.5,105.5C 292.833,105.5 293.167,105.5 293.5,105.5C 294.422,107.816 296.089,109.483 298.5,110.5C 298.5,112.5 299.5,113.5 301.5,113.5C 302.405,114.964 302.405,116.298 301.5,117.5C 301.416,120.327 300.75,122.994 299.5,125.5C 296.795,127.512 294.128,129.512 291.5,131.5C 287.447,132.35 283.447,133.516 279.5,135C 270.506,135.5 261.506,135.666 252.5,135.5C 247.673,135.779 243.007,135.113 238.5,133.5C 219.22,125.19 201.886,113.857 186.5,99.5C 183.973,95.7797 181.973,91.7797 180.5,87.5C 181.104,83.0624 183.604,80.3958 188,79.5C 195.691,82.2635 203.191,85.4302 210.5,89C 215.707,91.0142 221.04,92.5142 226.5,93.5 Z"/></g>
<g><path style="opacity:1" fill="#d1a8bb" d="M 263.5,107.5 C 269.987,106.346 276.654,106.179 283.5,107C 286.279,109.779 289.113,112.613 292,115.5C 292.961,119.226 291.461,121.392 287.5,122C 275.35,125.091 263.017,126.091 250.5,125C 237.73,122.444 225.73,117.944 214.5,111.5C 214.36,109.876 215.027,108.71 216.5,108C 218.5,107.333 220.5,107.333 222.5,108C 231.622,112.061 240.622,116.394 249.5,121C 256.559,124.06 262.392,122.56 267,116.5C 268.336,112.438 267.169,109.438 263.5,107.5 Z"/></g>
<g><path style="opacity:1" fill="#4c1f28" d="M 227.5,107.5 C 236.375,113.075 245.875,117.409 256,120.5C 265.779,119.591 267.945,115.258 262.5,107.5C 262.833,107.5 263.167,107.5 263.5,107.5C 267.169,109.438 268.336,112.438 267,116.5C 262.392,122.56 256.559,124.06 249.5,121C 240.622,116.394 231.622,112.061 222.5,108C 220.5,107.333 218.5,107.333 216.5,108C 215.027,108.71 214.36,109.876 214.5,111.5C 214.167,111.5 213.833,111.5 213.5,111.5C 212.508,111.672 211.842,111.338 211.5,110.5C 212.167,109.833 212.833,109.167 213.5,108.5C 215.022,106.667 217.022,105.667 219.5,105.5C 222.178,106.175 224.844,106.842 227.5,107.5 Z"/></g>
<g><path style="opacity:1" fill="#cf0655" d="M 260.5,107.5 C 261.167,107.5 261.833,107.5 262.5,107.5C 267.945,115.258 265.779,119.591 256,120.5C 245.875,117.409 236.375,113.075 227.5,107.5C 228.374,106.475 229.541,105.808 231,105.5C 232.947,106.686 234.78,108.02 236.5,109.5C 237.308,109.192 237.975,108.692 238.5,108C 245.826,107.5 253.159,107.334 260.5,107.5 Z"/></g>
<g><path style="opacity:0.024" fill="#00000d" d="M 75.5,127.5 C 76.5862,127.62 77.2528,128.287 77.5,129.5C 77.1667,130.167 76.8333,130.833 76.5,131.5C 75.5713,130.311 75.238,128.978 75.5,127.5 Z"/></g>
<g><path style="opacity:1" fill="#0436bf" d="M 91.5,120.5 C 93.184,121.527 94.8506,122.527 96.5,123.5C 96.5,123.833 96.5,124.167 96.5,124.5C 96.5106,126.017 97.1772,127.184 98.5,128C 101.482,129.271 104.482,130.438 107.5,131.5C 108.492,131.328 109.158,131.662 109.5,132.5C 112.008,134.554 115.008,135.554 118.5,135.5C 120.072,136.687 121.739,137.687 123.5,138.5C 119.788,138.039 116.121,137.373 112.5,136.5C 112.5,137.5 112.5,138.5 112.5,139.5C 110.549,139.227 109.049,139.893 108,141.5C 106.661,148.426 106.161,155.426 106.5,162.5C 109.896,162.633 110.229,163.633 107.5,165.5C 108.243,166.182 108.909,166.849 109.5,167.5C 101.674,166.907 94.0073,165.573 86.5,163.5C 83.9393,162.454 81.7726,160.788 80,158.5C 78.8909,149.825 79.7242,141.491 82.5,133.5C 84.0739,131.898 84.7406,129.898 84.5,127.5C 86.4334,124.766 88.7667,122.433 91.5,120.5 Z"/></g>
<g><path style="opacity:0.918" fill="#152869" d="M 84.5,127.5 C 84.7406,129.898 84.0739,131.898 82.5,133.5C 82.5,132.833 82.5,132.167 82.5,131.5C 82.6596,129.847 83.3263,128.514 84.5,127.5 Z"/></g>
<g><path style="opacity:0.161" fill="#2a1914" d="M 299.5,125.5 C 297.977,128.937 295.311,130.937 291.5,131.5C 294.128,129.512 296.795,127.512 299.5,125.5 Z"/></g>
<g><path style="opacity:0.013" fill="#030006" d="M 290.5,133.5 C 291.675,133.281 292.675,133.614 293.5,134.5C 291.948,135.798 290.948,135.465 290.5,133.5 Z"/></g>
<g><path style="opacity:0.012" fill="#0f152f" d="M 82.5,131.5 C 82.5,132.167 82.5,132.833 82.5,133.5C 79.7242,141.491 78.8909,149.825 80,158.5C 81.7726,160.788 83.9393,162.454 86.5,163.5C 81.4269,163.868 78.5936,161.534 78,156.5C 77.3784,148.351 78.2117,140.351 80.5,132.5C 78.9951,131.158 78.3285,129.492 78.5,127.5C 79.5,127.5 80.5,127.5 81.5,127.5C 81.2322,129.099 81.5655,130.432 82.5,131.5 Z"/></g>
<g><path style="opacity:1" fill="#0c1954" d="M 109.5,132.5 C 111.216,132.629 112.883,132.962 114.5,133.5C 115.995,133.989 117.329,134.655 118.5,135.5C 115.008,135.554 112.008,134.554 109.5,132.5 Z"/></g>
<g><path style="opacity:0.71" fill="#35482f" d="M 284.5,135.5 C 285.568,134.566 286.901,134.232 288.5,134.5C 289.215,136.834 289.548,139.167 289.5,141.5C 288.5,141.5 287.5,141.5 286.5,141.5C 287.341,139.621 287.675,137.621 287.5,135.5C 286.5,135.5 285.5,135.5 284.5,135.5 Z"/></g>
<g><path style="opacity:1" fill="#4b2f25" d="M 291.5,131.5 C 290.1,132.1 289.1,133.1 288.5,134.5C 286.901,134.232 285.568,134.566 284.5,135.5C 282.194,135.993 279.861,136.326 277.5,136.5C 268.983,136.826 260.65,136.493 252.5,135.5C 261.506,135.666 270.506,135.5 279.5,135C 283.447,133.516 287.447,132.35 291.5,131.5 Z"/></g>
<g><path style="opacity:1" fill="#0f163c" d="M 118.5,135.5 C 122.327,136.267 125.994,137.267 129.5,138.5C 127.5,138.5 125.5,138.5 123.5,138.5C 121.739,137.687 120.072,136.687 118.5,135.5 Z"/></g>
<g><path style="opacity:1" fill="#19200f" d="M 238.5,133.5 C 243.007,135.113 247.673,135.779 252.5,135.5C 260.65,136.493 268.983,136.826 277.5,136.5C 267.675,137.658 257.675,137.825 247.5,137C 243.958,136.879 240.958,135.713 238.5,133.5 Z"/></g>
<g><path style="opacity:0.012" fill="#030007" d="M 290.5,137.5 C 291.833,138.167 291.833,138.167 290.5,137.5 Z"/></g>
<g><path style="opacity:0.008" fill="#010007" d="M 292.5,138.5 C 294.337,138.639 294.67,139.306 293.5,140.5C 292.702,140.043 292.369,139.376 292.5,138.5 Z"/></g>
<g><path style="opacity:1" fill="#0442ee" d="M 123.5,138.5 C 125.5,138.5 127.5,138.5 129.5,138.5C 131.78,140.223 134.447,140.889 137.5,140.5C 139.265,141.461 141.265,141.795 143.5,141.5C 144.263,142.268 145.263,142.768 146.5,143C 149.817,143.498 153.15,143.665 156.5,143.5C 160.312,144.324 164.312,144.824 168.5,145C 200.498,145.5 232.498,145.667 264.5,145.5C 270.098,145.844 275.432,145.178 280.5,143.5C 281.919,142.549 283.585,142.216 285.5,142.5C 287.655,142.372 289.655,142.872 291.5,144C 293.703,146.372 296.037,148.539 298.5,150.5C 299.401,151.29 300.068,152.29 300.5,153.5C 301.167,155.167 301.833,156.833 302.5,158.5C 303.254,163.463 303.587,168.463 303.5,173.5C 303.443,174.609 303.11,175.609 302.5,176.5C 297.549,180.32 291.883,182.487 285.5,183C 271.504,183.5 257.504,183.667 243.5,183.5C 241.052,182.527 238.385,182.194 235.5,182.5C 230.025,181.511 224.358,181.178 218.5,181.5C 217.833,181.5 217.167,181.5 216.5,181.5C 207.391,179.721 198.058,178.721 188.5,178.5C 161.72,176.96 135.387,173.293 109.5,167.5C 108.909,166.849 108.243,166.182 107.5,165.5C 110.229,163.633 109.896,162.633 106.5,162.5C 106.161,155.426 106.661,148.426 108,141.5C 109.049,139.893 110.549,139.227 112.5,139.5C 112.5,138.5 112.5,137.5 112.5,136.5C 116.121,137.373 119.788,138.039 123.5,138.5 Z"/></g>
<g><path style="opacity:1" fill="#0c1447" d="M 129.5,138.5 C 131.167,138.5 132.833,138.5 134.5,138.5C 135.5,139.167 136.5,139.833 137.5,140.5C 134.447,140.889 131.78,140.223 129.5,138.5 Z"/></g>
<g><path style="opacity:1" fill="#283b20" d="M 134.5,138.5 C 137.152,138.41 139.485,139.076 141.5,140.5C 140.167,140.5 138.833,140.5 137.5,140.5C 136.5,139.833 135.5,139.167 134.5,138.5 Z"/></g>
<g><path style="opacity:1" fill="#24322a" d="M 137.5,140.5 C 138.833,140.5 140.167,140.5 141.5,140.5C 152.487,141.415 163.487,142.248 174.5,143C 207.165,143.5 239.832,143.667 272.5,143.5C 270.052,144.473 267.385,144.806 264.5,144.5C 228.492,144.709 192.492,144.375 156.5,143.5C 152.361,142.437 148.028,141.77 143.5,141.5C 141.265,141.795 139.265,141.461 137.5,140.5 Z"/></g>
<g><path style="opacity:0.012" fill="#0c0000" d="M 292.5,142.5 C 292.897,141.475 293.563,141.308 294.5,142C 293.906,142.464 293.239,142.631 292.5,142.5 Z"/></g>
<g><path style="opacity:0.004" fill="#070000" d="M 76.5,142.5 C 77.525,142.897 77.6917,143.563 77,144.5C 76.5357,143.906 76.369,143.239 76.5,142.5 Z"/></g>
<g><path style="opacity:1" fill="#051e73" d="M 143.5,141.5 C 148.028,141.77 152.361,142.437 156.5,143.5C 153.15,143.665 149.817,143.498 146.5,143C 145.263,142.768 144.263,142.268 143.5,141.5 Z"/></g>
<g><path style="opacity:1" fill="#162227" d="M 285.5,141.5 C 285.5,141.833 285.5,142.167 285.5,142.5C 283.585,142.216 281.919,142.549 280.5,143.5C 277.833,143.5 275.167,143.5 272.5,143.5C 276.567,141.946 280.9,141.28 285.5,141.5 Z"/></g>
<g><path style="opacity:0.353" fill="#0e1f4e" d="M 285.5,142.5 C 285.5,142.167 285.5,141.833 285.5,141.5C 285.833,141.5 286.167,141.5 286.5,141.5C 287.5,141.5 288.5,141.5 289.5,141.5C 290.609,141.557 291.609,141.89 292.5,142.5C 293.167,143.833 294.167,144.833 295.5,145.5C 295.5,146.167 295.833,146.5 296.5,146.5C 296.5,147.167 296.833,147.5 297.5,147.5C 297.5,148.167 297.833,148.5 298.5,148.5C 298.5,149.167 298.5,149.833 298.5,150.5C 296.037,148.539 293.703,146.372 291.5,144C 289.655,142.872 287.655,142.372 285.5,142.5 Z"/></g>
<g><path style="opacity:0.033" fill="#020014" d="M 300.5,146.5 C 300.281,145.325 300.614,144.325 301.5,143.5C 302.798,145.052 302.465,146.052 300.5,146.5 Z"/></g>
<g><path style="opacity:1" fill="#001769" d="M 156.5,143.5 C 192.492,144.375 228.492,144.709 264.5,144.5C 264.5,144.833 264.5,145.167 264.5,145.5C 232.498,145.667 200.498,145.5 168.5,145C 164.312,144.824 160.312,144.324 156.5,143.5 Z"/></g>
<g><path style="opacity:1" fill="#0731b8" d="M 272.5,143.5 C 275.167,143.5 277.833,143.5 280.5,143.5C 275.432,145.178 270.098,145.844 264.5,145.5C 264.5,145.167 264.5,144.833 264.5,144.5C 267.385,144.806 270.052,144.473 272.5,143.5 Z"/></g>
<g><path style="opacity:0.011" fill="#060008" d="M 300.5,146.5 C 300.5,147.833 299.833,148.5 298.5,148.5C 297.833,148.5 297.5,148.167 297.5,147.5C 296.833,147.5 296.5,147.167 296.5,146.5C 295.833,146.5 295.5,146.167 295.5,145.5C 295.75,144.078 296.583,143.078 298,142.5C 298.608,144.066 299.442,145.4 300.5,146.5 Z"/></g>
<g><path style="opacity:0.017" fill="#01000b" d="M 301.5,153.5 C 301.586,152.504 301.252,151.671 300.5,151C 303.967,150.691 304.3,151.524 301.5,153.5 Z"/></g>
<g><path style="opacity:0.007" fill="#020008" d="M 309.5,162.5 C 310.077,161.227 310.743,161.227 311.5,162.5C 311.03,163.463 310.363,163.463 309.5,162.5 Z"/></g>
<g><path style="opacity:1" fill="#133cb1" d="M 302.5,158.5 C 303.991,161.186 304.657,164.186 304.5,167.5C 304.495,169.696 304.162,171.696 303.5,173.5C 303.587,168.463 303.254,163.463 302.5,158.5 Z"/></g>
<g><path style="opacity:0.012" fill="#010006" d="M 83.5,164.5 C 87.0507,165.186 87.2173,166.186 84,167.5C 83.5172,166.552 83.3505,165.552 83.5,164.5 Z"/></g>
<g><path style="opacity:0.008" fill="#040108" d="M 88.5,165.5 C 89.463,166.363 89.463,167.03 88.5,167.5C 87.2267,166.743 87.2267,166.077 88.5,165.5 Z"/></g>
<g><path style="opacity:0.024" fill="#00000b" d="M 307.5,164.5 C 308.649,164.791 309.316,165.624 309.5,167C 309.167,167.833 308.833,168.667 308.5,169.5C 307.548,167.955 307.215,166.288 307.5,164.5 Z"/></g>
<g><path style="opacity:0.02" fill="#02000c" d="M 101.5,169.5 C 104.674,169.952 105.007,170.952 102.5,172.5C 100.481,171.867 100.147,170.867 101.5,169.5 Z"/></g>
<g><path style="opacity:0.008" fill="#070000" d="M 109.5,171.5 C 109.897,170.475 110.563,170.308 111.5,171C 110.906,171.464 110.239,171.631 109.5,171.5 Z"/></g>
<g><path style="opacity:0.006" fill="#010007" d="M 105.5,173.5 C 108.797,173.329 109.131,173.995 106.5,175.5C 105.702,175.043 105.369,174.376 105.5,173.5 Z"/></g>
<g><path style="opacity:0.008" fill="#010006" d="M 309.5,174.5 C 310.077,173.227 310.743,173.227 311.5,174.5C 311.03,175.463 310.363,175.463 309.5,174.5 Z"/></g>
<g><path style="opacity:0.007" fill="#010007" d="M 115.5,174.5 C 116.675,174.281 117.675,174.614 118.5,175.5C 116.948,176.798 115.948,176.465 115.5,174.5 Z"/></g>
<g><path style="opacity:0.098" fill="#0d0e1f" d="M 300.5,153.5 C 300.833,153.5 301.167,153.5 301.5,153.5C 302.504,154.683 303.338,156.016 304,157.5C 304.333,157.167 304.667,156.833 305,156.5C 306.298,157.56 307.465,158.726 308.5,160C 307.99,161.826 307.156,161.993 306,160.5C 305.833,161.167 305.667,161.833 305.5,162.5C 306.833,165.833 306.833,169.167 305.5,172.5C 305.43,174.666 306.096,174.999 307.5,173.5C 307.833,174 308.167,174.5 308.5,175C 307.681,176.319 306.681,177.485 305.5,178.5C 304.473,177.209 303.473,177.209 302.5,178.5C 302.5,177.833 302.5,177.167 302.5,176.5C 303.11,175.609 303.443,174.609 303.5,173.5C 304.162,171.696 304.495,169.696 304.5,167.5C 304.657,164.186 303.991,161.186 302.5,158.5C 301.833,156.833 301.167,155.167 300.5,153.5 Z"/></g>
<g><path style="opacity:0.349" fill="#0e1c4a" d="M 86.5,163.5 C 94.0073,165.573 101.674,166.907 109.5,167.5C 135.387,173.293 161.72,176.96 188.5,178.5C 197.608,180.303 206.941,181.303 216.5,181.5C 217.167,181.5 217.833,181.5 218.5,181.5C 219.167,182.167 219.833,182.833 220.5,183.5C 216.122,183.371 211.955,183.371 208,183.5C 204.38,181.817 200.546,181.15 196.5,181.5C 172.266,179.097 147.933,176.264 123.5,173C 112.032,169.864 100.366,167.364 88.5,165.5C 87.8333,164.833 87.1667,164.167 86.5,163.5 Z"/></g>
<g><path style="opacity:0.018" fill="#040008" d="M 151.5,177.5 C 156.638,179.001 156.638,180.001 151.5,180.5C 151.5,179.5 151.5,178.5 151.5,177.5 Z"/></g>
<g><path style="opacity:0.012" fill="#090000" d="M 160.5,178.5 C 161.833,179.167 161.833,179.167 160.5,178.5 Z"/></g>
<g><path style="opacity:1" fill="#133ebc" d="M 188.5,178.5 C 198.058,178.721 207.391,179.721 216.5,181.5C 206.941,181.303 197.608,180.303 188.5,178.5 Z"/></g>
<g><path style="opacity:0.013" fill="#020009" d="M 160.5,180.5 C 163.127,181.105 165.793,181.605 168.5,182C 165.905,182.226 163.405,182.726 161,183.5C 159.272,182.648 159.105,181.648 160.5,180.5 Z"/></g>
<g><path style="opacity:0.015" fill="#000008" d="M 175.5,180.5 C 176.289,180.783 176.956,181.283 177.5,182C 176.167,182.667 174.833,182.667 173.5,182C 174.416,181.722 175.082,181.222 175.5,180.5 Z"/></g>
<g><path style="opacity:0.007" fill="#070000" d="M 183.5,182.5 C 184.946,181.387 186.613,181.22 188.5,182C 186.866,182.494 185.199,182.66 183.5,182.5 Z"/></g>
<g><path style="opacity:0.008" fill="#010108" d="M 196.5,181.5 C 195.749,182.573 194.749,182.74 193.5,182C 194.448,181.517 195.448,181.351 196.5,181.5 Z"/></g>
<g><path style="opacity:0.996" fill="#113db3" d="M 218.5,181.5 C 224.358,181.178 230.025,181.511 235.5,182.5C 234.167,182.5 232.833,182.5 231.5,182.5C 228.287,182.19 225.287,182.523 222.5,183.5C 221.833,183.5 221.167,183.5 220.5,183.5C 219.833,182.833 219.167,182.167 218.5,181.5 Z"/></g>
<g><path style="opacity:0.007" fill="#040008" d="M 300.5,183.5 C 301.077,182.227 301.743,182.227 302.5,183.5C 302.03,184.463 301.363,184.463 300.5,183.5 Z"/></g>
<g><path style="opacity:0.004" fill="#0b0f2a" d="M 222.5,183.5 C 225.287,182.523 228.287,182.19 231.5,182.5C 232.167,183.167 232.833,183.833 233.5,184.5C 229.766,184.677 226.099,184.344 222.5,183.5 Z"/></g>
<g><path style="opacity:0.067" fill="#14266d" d="M 231.5,182.5 C 232.833,182.5 234.167,182.5 235.5,182.5C 238.385,182.194 241.052,182.527 243.5,183.5C 241.901,183.232 240.568,183.566 239.5,184.5C 237.5,184.5 235.5,184.5 233.5,184.5C 232.833,183.833 232.167,183.167 231.5,182.5 Z"/></g>
<g><path style="opacity:0.063" fill="#0d1842" d="M 302.5,176.5 C 302.5,177.167 302.5,177.833 302.5,178.5C 300.827,179.343 299.66,180.676 299,182.5C 298.667,182.167 298.333,181.833 298,181.5C 296.174,183.074 294.007,183.907 291.5,184C 274.18,185.791 256.847,185.958 239.5,184.5C 240.568,183.566 241.901,183.232 243.5,183.5C 257.504,183.667 271.504,183.5 285.5,183C 291.883,182.487 297.549,180.32 302.5,176.5 Z"/></g>
<g><path style="opacity:0.004" fill="#000005" d="M 250.5,186.5 C 251.833,187.167 251.833,187.167 250.5,186.5 Z"/></g>
</svg>
