<?xml version="1.0" encoding="UTF-8"?>
<!DOCTYPE svg PUBLIC "-//W3C//DTD SVG 1.1//EN" "http://www.w3.org/Graphics/SVG/1.1/DTD/svg11.dtd">
<svg xmlns="http://www.w3.org/2000/svg" version="1.1" width="400px" height="198px" style="shape-rendering:geometricPrecision; text-rendering:geometricPrecision; image-rendering:optimizeQuality; fill-rule:evenodd; clip-rule:evenodd" xmlns:xlink="http://www.w3.org/1999/xlink">
<g><path style="opacity:0.996" fill="#141711" d="M 147.5,3.5 C 162.442,1.69579 176.275,4.69579 189,12.5C 202.395,5.48713 216.562,2.98713 231.5,5C 234.362,5.93048 236.695,7.59715 238.5,10C 243.5,10.3333 248.5,10.6667 253.5,11C 262.833,14.6667 272.167,18.3333 281.5,22C 285.693,24.8355 288.193,28.6688 289,33.5C 296.146,39.5821 298.48,47.2487 296,56.5C 293.695,60.3037 291.195,63.9704 288.5,67.5C 289.833,69.1667 289.833,70.8333 288.5,72.5C 284.77,75.0317 280.77,77.0317 276.5,78.5C 290.307,81.7333 294.807,90.0666 290,103.5C 285.913,106.916 282.58,110.916 280,115.5C 280.507,134.486 280.507,153.486 280,172.5C 272.759,186.388 261.259,193.888 245.5,195C 213.327,197.842 181.66,195.175 150.5,187C 140.449,183.892 131.949,178.392 125,170.5C 110.192,154.87 102.526,136.203 102,114.5C 101.333,98.5 101.333,82.5 102,66.5C 103.977,35.727 119.144,14.727 147.5,3.5 Z"/></g>
<g><path style="opacity:1" fill="#56863e" d="M 213.5,5.5 C 218.844,5.33398 224.177,5.50065 229.5,6C 232.362,6.93048 234.695,8.59715 236.5,11C 232.954,12.7932 229.287,14.2932 225.5,15.5C 224.167,16.1667 224.167,16.8333 225.5,17.5C 235.741,12.2442 246.407,11.2442 257.5,14.5C 252.029,15.0794 246.696,16.2461 241.5,18C 235.13,21.1848 228.797,24.3515 222.5,27.5C 217.78,23.9782 212.447,21.8115 206.5,21C 202.636,17.568 198.302,14.9013 193.5,13C 199.844,9.3886 206.511,6.8886 213.5,5.5 Z"/></g>
<g><path style="opacity:1" fill="#57883f" d="M 154.5,4.5 C 165.14,3.93978 174.807,6.60644 183.5,12.5C 178.533,13.329 173.533,13.829 168.5,14C 157.677,14.9409 147.677,18.2742 138.5,24C 135.588,25.8578 134.088,28.3578 134,31.5C 137.251,27.5783 141.084,24.4117 145.5,22C 160.636,15.9928 176.303,13.9928 192.5,16C 195.874,16.521 198.874,17.8543 201.5,20C 182.271,17.7461 165.271,22.7461 150.5,35C 148.671,36.1133 147.837,37.6133 148,39.5C 168.06,21.9403 190.893,17.4403 216.5,26C 218.919,27.5088 219.919,29.6755 219.5,32.5C 206.081,26.4311 192.081,24.5978 177.5,27C 167.906,29.625 160.239,34.9584 154.5,43C 150.425,44.0827 146.425,45.416 142.5,47C 138.99,50.048 138.657,53.3813 141.5,57C 145.298,57.9603 148.965,59.2936 152.5,61C 168.909,79.0217 188.909,84.6884 212.5,78C 215.412,76.6274 218.246,75.1274 221,73.5C 220.409,79.1014 217.242,82.6014 211.5,84C 189.195,88.0156 169.195,83.1823 151.5,69.5C 151.167,69.6667 150.833,69.8333 150.5,70C 161.525,80.9032 174.858,86.5698 190.5,87C 200.73,88.7337 210.397,87.2337 219.5,82.5C 222.896,78.8307 225.063,74.4973 226,69.5C 228.167,66.5 230.333,63.5 232.5,60.5C 244.798,70.3973 258.798,73.8973 274.5,71C 278.856,69.8162 283.189,68.6495 287.5,67.5C 287.714,69.1439 287.38,70.6439 286.5,72C 282.685,73.9087 278.685,75.242 274.5,76C 264.448,76.4127 254.448,76.0793 244.5,75C 245.949,76.117 247.616,76.7837 249.5,77C 257.803,78.0179 266.136,78.6845 274.5,79C 277.604,81.9322 281.271,83.9322 285.5,85C 289.381,87.6524 290.381,91.1524 288.5,95.5C 280.045,92.0621 271.212,90.3955 262,90.5C 231.986,91.3613 203.153,97.528 175.5,109C 166.847,111.803 164.014,117.636 167,126.5C 168.207,131.668 169.874,136.668 172,141.5C 178.794,149.963 185.961,158.13 193.5,166C 201.872,171.519 210.539,176.519 219.5,181C 236.95,184.624 254.283,184.124 271.5,179.5C 271.833,179.667 272.167,179.833 272.5,180C 266.615,186.61 259.282,190.61 250.5,192C 214.426,197.369 179.093,194.369 144.5,183C 117.969,166.746 104.469,142.913 104,111.5C 103.333,96.1667 103.333,80.8333 104,65.5C 106.628,33.0664 123.461,12.7331 154.5,4.5 Z"/></g>
<g><path style="opacity:1" fill="#f9faf9" d="M 250.5,24.5 C 267.346,23.0552 281.512,28.3886 293,40.5C 297.765,50.8715 295.265,59.0382 285.5,65C 268.977,71.749 252.977,70.749 237.5,62C 233.105,58.6434 231.272,54.1434 232,48.5C 230.7,45.7053 229.2,43.0387 227.5,40.5C 232.592,31.4549 240.258,26.1216 250.5,24.5 Z"/></g>
<g><path style="opacity:1" fill="#f9f9f9" d="M 182.5,27.5 C 195.745,26.3947 208.078,29.2281 219.5,36C 234.135,48.14 234.135,60.14 219.5,72C 194.295,83.8649 172.295,79.5316 153.5,59C 149.91,57.4698 146.243,56.1365 142.5,55C 141.065,52.7328 141.398,50.7328 143.5,49C 146.73,47.692 150.064,46.692 153.5,46C 161.008,36.3019 170.675,30.1353 182.5,27.5 Z"/></g>
<g><path style="opacity:1" fill="#598941" d="M 249.5,17.5 C 258.916,16.5602 267.916,18.0602 276.5,22C 280.41,23.9066 283.744,26.5733 286.5,30C 279.758,27.3082 272.758,24.9749 265.5,23C 253.48,20.7567 242.48,23.0901 232.5,30C 229.798,32.5969 227.464,35.4303 225.5,38.5C 222.204,36.9575 220.871,34.6242 221.5,31.5C 230.114,25.1927 239.448,20.5261 249.5,17.5 Z"/></g>
<g><path style="opacity:1" fill="#131712" d="M 270.5,33.5 C 284.841,33.6659 290.341,40.6659 287,54.5C 277.452,65.7086 268.786,65.0419 261,52.5C 259.399,43.701 262.566,37.3676 270.5,33.5 Z"/></g>
<g><path style="opacity:1" fill="#121611" d="M 203.5,36.5 C 221.613,36.7697 227.78,45.4363 222,62.5C 210.639,72.8293 200.973,71.4959 193,58.5C 190.89,48.3893 194.39,41.056 203.5,36.5 Z"/></g>
<g><path style="opacity:1" fill="#dcdddc" d="M 266.5,43.5 C 271.34,44.1885 271.673,45.8552 267.5,48.5C 265.296,47.218 264.962,45.5514 266.5,43.5 Z"/></g>
<g><path style="opacity:1" fill="#efefef" d="M 275.5,44.5 C 278.864,43.8728 280.864,45.2061 281.5,48.5C 280.257,53.3104 277.757,54.3104 274,51.5C 273.167,48.829 273.667,46.4957 275.5,44.5 Z"/></g>
<g><path style="opacity:1" fill="#eff0ef" d="M 200.5,47.5 C 204.161,47.3501 205.161,48.8501 203.5,52C 199.707,52.4866 198.707,50.9866 200.5,47.5 Z"/></g>
<g><path style="opacity:1" fill="#f0f0ef" d="M 210.5,48.5 C 216,47.8314 218.167,50.1647 217,55.5C 211.333,60.1667 208.333,58.8333 208,51.5C 209.045,50.6266 209.878,49.6266 210.5,48.5 Z"/></g>
<g><path style="opacity:1" fill="#d5d6d4" d="M 268.5,52.5 C 270.465,52.9483 270.798,53.9483 269.5,55.5C 268.614,54.675 268.281,53.675 268.5,52.5 Z"/></g>
<g><path style="opacity:1" fill="#ebebeb" d="M 202.5,58.5 C 203.5,58.5 204.5,58.5 205.5,58.5C 205.5,59.5 205.5,60.5 205.5,61.5C 204.5,61.5 203.5,61.5 202.5,61.5C 202.5,60.5 202.5,59.5 202.5,58.5 Z"/></g>
<g><path style="opacity:1" fill="#a45a38" d="M 253.5,92.5 C 264.377,91.8629 275.044,93.0295 285.5,96C 288.087,97.5251 288.92,99.6917 288,102.5C 284.243,105.586 281.243,109.252 279,113.5C 278.667,133.167 278.333,152.833 278,172.5C 277.535,173.931 276.701,175.097 275.5,176C 257.098,181.991 238.431,182.991 219.5,179C 200.032,170.534 184.532,157.367 173,139.5C 170.377,133.26 168.877,126.76 168.5,120C 168.305,117.648 168.972,115.648 170.5,114C 196.922,101.819 224.588,94.6519 253.5,92.5 Z"/></g>
<g><path style="opacity:0.999" fill="#17150e" d="M 250.5,100.5 C 257.841,100.334 265.174,100.5 272.5,101C 274.677,102.497 276.01,104.497 276.5,107C 275.324,110.514 273.491,113.681 271,116.5C 270.586,131.541 270.919,146.541 272,161.5C 269.434,166.055 265.6,169.222 260.5,171C 247.766,175.39 235.099,175.39 222.5,171C 214.172,166.838 206.172,162.171 198.5,157C 193.887,153.225 190.22,148.725 187.5,143.5C 183.492,140.265 179.659,136.932 176,133.5C 175.035,129.218 175.702,125.218 178,121.5C 188.308,114.932 199.474,110.432 211.5,108C 224.648,105.479 237.648,102.979 250.5,100.5 Z"/></g>
<g><path style="opacity:1" fill="#b62b62" d="M 250.5,103.5 C 251.373,105.886 252.873,107.886 255,109.5C 257.851,118.805 256.517,127.472 251,135.5C 240.903,149.121 227.737,158.121 211.5,162.5C 201.961,158.464 194.794,151.797 190,142.5C 186.185,138.928 182.185,135.595 178,132.5C 176.996,126.146 179.496,121.646 185.5,119C 206.37,110.592 228.037,105.425 250.5,103.5 Z"/></g>
<g><path style="opacity:1" fill="#de347b" d="M 211.5,162.5 C 227.737,158.121 240.903,149.121 251,135.5C 256.517,127.472 257.851,118.805 255,109.5C 252.873,107.886 251.373,105.886 250.5,103.5C 257.42,102.372 264.42,102.205 271.5,103C 273.797,104.263 274.63,106.097 274,108.5C 272.088,110.657 270.421,112.991 269,115.5C 268.43,130.877 268.764,146.21 270,161.5C 265.793,166.03 260.626,169.197 254.5,171C 238.851,174.498 224.518,171.665 211.5,162.5 Z"/></g>
</svg>
