<?xml version="1.0" encoding="UTF-8"?>
<!DOCTYPE svg PUBLIC "-//W3C//DTD SVG 1.1//EN" "http://www.w3.org/Graphics/SVG/1.1/DTD/svg11.dtd">
<svg xmlns="http://www.w3.org/2000/svg" version="1.1" width="400px" height="198px" style="shape-rendering:geometricPrecision; text-rendering:geometricPrecision; image-rendering:optimizeQuality; fill-rule:evenodd; clip-rule:evenodd" xmlns:xlink="http://www.w3.org/1999/xlink">
<g><path style="opacity:0.288" fill="#040000" d="M 146.5,-0.5 C 150.833,-0.5 155.167,-0.5 159.5,-0.5C 153.87,6.46508 147.87,13.1317 141.5,19.5C 138.141,22.5285 134.808,25.5285 131.5,28.5C 130.833,28.5 130.5,28.8333 130.5,29.5C 129.599,30.2905 128.932,31.2905 128.5,32.5C 126.77,33.0256 125.436,34.0256 124.5,35.5C 123.167,36.1667 122.167,37.1667 121.5,38.5C 110.833,48.5 100.5,58.8333 90.5,69.5C 89.8333,69.5 89.5,69.8333 89.5,70.5C 79.1401,80.5275 68.8067,90.5275 58.5,100.5C 56.7274,101.314 56.2274,102.648 57,104.5C 64.7549,112.76 72.9216,120.426 81.5,127.5C 81.8333,127.5 82.1667,127.5 82.5,127.5C 84.8082,129.471 87.1415,131.471 89.5,133.5C 89.5,135.5 90.5,136.5 92.5,136.5C 93.1098,137.391 93.4431,138.391 93.5,139.5C 95.0872,142.268 96.9205,144.935 99,147.5C 115.733,163.731 131.9,180.398 147.5,197.5C 140.5,197.5 133.5,197.5 126.5,197.5C 99.8977,169.397 72.7311,141.73 45,114.5C 43,109.833 43,105.167 45,100.5C 79.3402,67.3265 113.174,33.6598 146.5,-0.5 Z"/></g>
<g><path style="opacity:0.955" fill="#922222" d="M 159.5,-0.5 C 160.833,-0.5 162.167,-0.5 163.5,-0.5C 161.286,2.71421 158.453,5.38088 155,7.5C 155.229,10.8103 153.729,12.6437 150.5,13C 148.701,16.9828 145.701,19.1494 141.5,19.5C 147.87,13.1317 153.87,6.46508 159.5,-0.5 Z"/></g>
<g><path style="opacity:1" fill="#d53030" d="M 163.5,-0.5 C 174.167,-0.5 184.833,-0.5 195.5,-0.5C 195.737,0.791047 195.404,1.79105 194.5,2.5C 194.53,1.50278 194.03,0.836112 193,0.5C 188.368,3.30361 184.201,6.63694 180.5,10.5C 178.264,11.3891 176.264,12.7224 174.5,14.5C 173.149,17.1963 171.316,19.5296 169,21.5C 167.092,24.2065 166.259,27.2065 166.5,30.5C 155.167,30.5 143.833,30.5 132.5,30.5C 132.5,46.8333 132.5,63.1667 132.5,79.5C 131.503,62.6749 131.17,45.6749 131.5,28.5C 134.808,25.5285 138.141,22.5285 141.5,19.5C 145.701,19.1494 148.701,16.9828 150.5,13C 153.729,12.6437 155.229,10.8103 155,7.5C 158.453,5.38088 161.286,2.71421 163.5,-0.5 Z"/></g>
<g><path style="opacity:0.995" fill="#d81818" d="M 195.5,-0.5 C 197.167,-0.5 198.833,-0.5 200.5,-0.5C 207.833,8.16526 215.5,16.4986 223.5,24.5C 221.955,25.4519 220.288,25.7852 218.5,25.5C 217.833,25.1667 217.167,24.8333 216.5,24.5C 210.702,19.2029 205.035,13.7029 199.5,8C 197.072,7.25301 195.406,8.08634 194.5,10.5C 189.755,14.7416 185.089,19.2416 180.5,24C 179.255,24.7914 177.922,25.2914 176.5,25.5C 175.503,25.5299 174.836,25.0299 174.5,24C 180.314,16.0202 186.981,8.85354 194.5,2.5C 195.404,1.79105 195.737,0.791047 195.5,-0.5 Z"/></g>
<g><path style="opacity:0.999" fill="#d83232" d="M 200.5,-0.5 C 212.5,-0.5 224.5,-0.5 236.5,-0.5C 246.535,9.26661 255.868,19.5999 264.5,30.5C 234.833,30.5 205.167,30.5 175.5,30.5C 175.5,29.5 175.5,28.5 175.5,27.5C 176.338,27.1583 176.672,26.4916 176.5,25.5C 177.922,25.2914 179.255,24.7914 180.5,24C 185.089,19.2416 189.755,14.7416 194.5,10.5C 194.12,12.698 194.787,14.3646 196.5,15.5C 197.931,17.1887 198.764,19.1887 199,21.5C 202.059,23.7244 205.226,25.8911 208.5,28C 211.167,28.6667 213.833,28.6667 216.5,28C 217.756,27.5831 218.423,26.7498 218.5,25.5C 220.288,25.7852 221.955,25.4519 223.5,24.5C 215.5,16.4986 207.833,8.16526 200.5,-0.5 Z"/></g>
<g><path style="opacity:0.123" fill="#0a0000" d="M 236.5,-0.5 C 238.167,-0.5 239.833,-0.5 241.5,-0.5C 249.272,6.77017 256.938,14.2702 264.5,22C 267.264,22.5323 269.93,23.3657 272.5,24.5C 273.774,27.367 274.607,30.367 275,33.5C 297.362,55.5281 319.362,77.8614 341,100.5C 341.667,103.5 341.667,106.5 341,109.5C 338.852,110.977 337.518,112.977 337,115.5C 309.605,143.062 282.105,170.395 254.5,197.5C 251.833,197.5 249.167,197.5 246.5,197.5C 263.5,180.167 280.5,162.833 297.5,145.5C 303.833,141.167 309.167,135.833 313.5,129.5C 322.628,122.206 330.962,114.039 338.5,105C 315.661,79.6612 291.661,55.4946 266.5,32.5C 266.5,31.1667 265.833,30.5 264.5,30.5C 255.868,19.5999 246.535,9.26661 236.5,-0.5 Z"/></g>
<g><path style="opacity:0.983" fill="#751919" d="M 194.5,2.5 C 186.981,8.85354 180.314,16.0202 174.5,24C 174.836,25.0299 175.503,25.5299 176.5,25.5C 176.672,26.4916 176.338,27.1583 175.5,27.5C 170.932,27.9174 169.432,25.9174 171,21.5C 174.002,17.6662 177.169,13.9995 180.5,10.5C 184.201,6.63694 188.368,3.30361 193,0.5C 194.03,0.836112 194.53,1.50278 194.5,2.5 Z"/></g>
<g><path style="opacity:1" fill="#410f0f" d="M 216.5,24.5 C 216.03,25.6935 215.03,26.3601 213.5,26.5C 209.141,24.3286 205.141,21.4952 201.5,18C 199.922,16.9055 198.255,16.0722 196.5,15.5C 194.787,14.3646 194.12,12.698 194.5,10.5C 195.406,8.08634 197.072,7.25301 199.5,8C 205.035,13.7029 210.702,19.2029 216.5,24.5 Z"/></g>
<g><path style="opacity:0.973" fill="#932222" d="M 196.5,15.5 C 198.255,16.0722 199.922,16.9055 201.5,18C 205.141,21.4952 209.141,24.3286 213.5,26.5C 215.03,26.3601 216.03,25.6935 216.5,24.5C 217.167,24.8333 217.833,25.1667 218.5,25.5C 218.423,26.7498 217.756,27.5831 216.5,28C 213.833,28.6667 211.167,28.6667 208.5,28C 205.226,25.8911 202.059,23.7244 199,21.5C 198.764,19.1887 197.931,17.1887 196.5,15.5 Z"/></g>
<g><path style="opacity:0.992" fill="#9f2525" d="M 180.5,10.5 C 177.169,13.9995 174.002,17.6662 171,21.5C 169.432,25.9174 170.932,27.9174 175.5,27.5C 175.5,28.5 175.5,29.5 175.5,30.5C 172.5,30.5 169.5,30.5 166.5,30.5C 166.259,27.2065 167.092,24.2065 169,21.5C 171.316,19.5296 173.149,17.1963 174.5,14.5C 176.264,12.7224 178.264,11.3891 180.5,10.5 Z"/></g>
<g><path style="opacity:1" fill="#db1b1a" d="M 166.5,30.5 C 169.5,30.5 172.5,30.5 175.5,30.5C 205.167,30.5 234.833,30.5 264.5,30.5C 265.833,30.5 266.5,31.1667 266.5,32.5C 266.405,47.8397 266.071,63.173 265.5,78.5C 264.833,78.5 264.5,78.8333 264.5,79.5C 263.944,64.8048 262.944,50.1381 261.5,35.5C 219.5,34.1667 177.5,34.1667 135.5,35.5C 134.22,47.0129 134.22,58.6796 135.5,70.5C 135.25,73.8673 134.25,76.8673 132.5,79.5C 132.5,63.1667 132.5,46.8333 132.5,30.5C 143.833,30.5 155.167,30.5 166.5,30.5 Z"/></g>
<g><path style="opacity:0.983" fill="#4c1111" d="M 128.5,32.5 C 129.793,44.8013 129.793,57.1347 128.5,69.5C 127.446,57.986 126.113,46.6527 124.5,35.5C 125.436,34.0256 126.77,33.0256 128.5,32.5 Z"/></g>
<g><path style="opacity:0.996" fill="#731919" d="M 261.5,35.5 C 261.666,41.8421 261.5,48.1754 261,54.5C 257.774,50.3807 255.94,45.714 255.5,40.5C 250.203,39.7255 244.87,39.3921 239.5,39.5C 237.393,38.5318 235.059,38.1984 232.5,38.5C 231.292,37.7659 229.959,37.4326 228.5,37.5C 229.429,41.1268 230.263,44.7934 231,48.5C 236.703,54.0353 242.203,59.7019 247.5,65.5C 240.891,60.0649 234.391,54.3982 228,48.5C 227.587,45.7679 226.92,43.1013 226,40.5C 225.329,39.7476 224.496,39.4142 223.5,39.5C 218.893,38.0317 214.059,37.0317 209,36.5C 207.941,36.6301 207.108,37.1301 206.5,38C 193.838,38.4999 181.171,38.6666 168.5,38.5C 164.958,38.1872 161.625,38.5206 158.5,39.5C 151.943,45.5545 145.443,51.8879 139,58.5C 137.762,62.4235 138.929,63.7568 142.5,62.5C 143.774,63.1894 143.774,64.0228 142.5,65C 140.323,66.2022 137.989,66.7022 135.5,66.5C 135.337,64.1432 135.503,61.8098 136,59.5C 138.503,56.4983 140.503,53.1649 142,49.5C 146.303,47.383 148.803,44.0497 149.5,39.5C 144.833,39.5 140.167,39.5 135.5,39.5C 135.5,38.1667 135.5,36.8333 135.5,35.5C 177.5,34.1667 219.5,34.1667 261.5,35.5 Z"/></g>
<g><path style="opacity:0.966" fill="#881e1e" d="M 223.5,39.5 C 218.5,39.5 213.5,39.5 208.5,39.5C 199.353,44.1405 191.52,50.4738 185,58.5C 184.506,60.1341 184.34,61.8008 184.5,63.5C 183.833,63.5 183.5,63.1667 183.5,62.5C 183.517,58.6235 182.351,57.9568 180,60.5C 179.17,65.143 178.503,69.8097 178,74.5C 174.535,80.4348 171.368,86.4348 168.5,92.5C 169.15,85.7152 171.65,79.7152 176,74.5C 176.248,69.4366 176.915,64.4366 178,59.5C 181.371,56.2975 184.538,52.9641 187.5,49.5C 190.284,47.6041 193.284,45.9374 196.5,44.5C 197.429,43.3112 197.762,41.9778 197.5,40.5C 190.159,40.6663 182.826,40.4997 175.5,40C 172.964,39.8138 170.631,39.3138 168.5,38.5C 181.171,38.6666 193.838,38.4999 206.5,38C 207.108,37.1301 207.941,36.6301 209,36.5C 214.059,37.0317 218.893,38.0317 223.5,39.5 Z"/></g>
<g><path style="opacity:0.998" fill="#400f0e" d="M 232.5,38.5 C 239.067,47.4067 246.4,55.7401 254.5,63.5C 253.01,65.2798 251.01,65.9465 248.5,65.5C 248.167,65.5 247.833,65.5 247.5,65.5C 242.203,59.7019 236.703,54.0353 231,48.5C 230.263,44.7934 229.429,41.1268 228.5,37.5C 229.959,37.4326 231.292,37.7659 232.5,38.5 Z"/></g>
<g><path style="opacity:0.997" fill="#ae2828" d="M 158.5,39.5 C 161.625,38.5206 164.958,38.1872 168.5,38.5C 170.631,39.3138 172.964,39.8138 175.5,40C 182.826,40.4997 190.159,40.6663 197.5,40.5C 197.762,41.9778 197.429,43.3112 196.5,44.5C 193.284,45.9374 190.284,47.6041 187.5,49.5C 187.406,46.4594 188.906,44.7928 192,44.5C 192.617,43.5509 192.451,42.7175 191.5,42C 186.5,41.3333 181.5,41.3333 176.5,42C 175.975,42.6924 175.308,43.1924 174.5,43.5C 171.242,42.5827 167.909,42.2493 164.5,42.5C 164.737,41.209 164.404,40.209 163.5,39.5C 161.833,39.5 160.167,39.5 158.5,39.5 Z"/></g>
<g><path style="opacity:0.999" fill="#dd1717" d="M 208.5,39.5 C 208.414,40.4959 208.748,41.3292 209.5,42C 211.473,42.4955 213.473,42.6621 215.5,42.5C 217.353,45.2084 218.353,48.2084 218.5,51.5C 217.178,51.33 216.011,51.6634 215,52.5C 214.027,54.3921 213.36,56.3921 213,58.5C 212.005,59.0659 211.172,59.7326 210.5,60.5C 204.843,62.9934 199.51,65.9934 194.5,69.5C 191.833,69.5 189.167,69.5 186.5,69.5C 185.27,67.7028 184.604,65.7028 184.5,63.5C 184.34,61.8008 184.506,60.1341 185,58.5C 191.52,50.4738 199.353,44.1405 208.5,39.5 Z"/></g>
<g><path style="opacity:0.983" fill="#bc2c2c" d="M 208.5,39.5 C 213.5,39.5 218.5,39.5 223.5,39.5C 224.496,39.4142 225.329,39.7476 226,40.5C 226.92,43.1013 227.587,45.7679 228,48.5C 234.391,54.3982 240.891,60.0649 247.5,65.5C 247.833,65.5 248.167,65.5 248.5,65.5C 249.5,66.8333 250.5,68.1667 251.5,69.5C 248.302,68.9644 245.635,69.631 243.5,71.5C 242.662,71.8417 242.328,72.5084 242.5,73.5C 239.163,74.484 237.663,76.8173 238,80.5C 237.761,94.1915 237.261,107.858 236.5,121.5C 234.833,121.5 233.167,121.5 231.5,121.5C 233.015,119.497 233.681,117.163 233.5,114.5C 233.616,103.52 233.449,92.5198 233,81.5C 234.317,76.9002 235.317,72.2335 236,67.5C 237.471,69.9022 238.971,69.7355 240.5,67C 239.056,65.2365 238.056,63.2365 237.5,61C 231.935,60.2684 228.935,57.1017 228.5,51.5C 227.022,51.762 225.689,51.4287 224.5,50.5C 223.333,45.7527 220.333,43.086 215.5,42.5C 213.473,42.6621 211.473,42.4955 209.5,42C 208.748,41.3292 208.414,40.4959 208.5,39.5 Z"/></g>
<g><path style="opacity:0.999" fill="#d41d1c" d="M 232.5,38.5 C 235.059,38.1984 237.393,38.5318 239.5,39.5C 242.929,40.9876 246.429,42.6543 250,44.5C 251.011,43.6634 252.178,43.33 253.5,43.5C 253.335,46.8499 253.502,50.1832 254,53.5C 256.522,56.6527 257.022,59.986 255.5,63.5C 255.167,63.5 254.833,63.5 254.5,63.5C 246.4,55.7401 239.067,47.4067 232.5,38.5 Z"/></g>
<g><path style="opacity:0.988" fill="#a72322" d="M 261.5,35.5 C 262.944,50.1381 263.944,64.8048 264.5,79.5C 263.833,80.8333 263.167,80.8333 262.5,79.5C 262.819,74.6367 262.486,69.97 261.5,65.5C 259.5,64.8333 257.5,64.1667 255.5,63.5C 257.022,59.986 256.522,56.6527 254,53.5C 253.502,50.1832 253.335,46.8499 253.5,43.5C 252.178,43.33 251.011,43.6634 250,44.5C 246.429,42.6543 242.929,40.9876 239.5,39.5C 244.87,39.3921 250.203,39.7255 255.5,40.5C 255.94,45.714 257.774,50.3807 261,54.5C 261.5,48.1754 261.666,41.8421 261.5,35.5 Z"/></g>
<g><path style="opacity:0.998" fill="#d63230" d="M 135.5,35.5 C 135.5,36.8333 135.5,38.1667 135.5,39.5C 140.167,39.5 144.833,39.5 149.5,39.5C 148.803,44.0497 146.303,47.383 142,49.5C 140.503,53.1649 138.503,56.4983 136,59.5C 135.503,61.8098 135.337,64.1432 135.5,66.5C 137.989,66.7022 140.323,66.2022 142.5,65C 143.774,64.0228 143.774,63.1894 142.5,62.5C 149.891,55.1128 156.891,47.4461 163.5,39.5C 164.404,40.209 164.737,41.209 164.5,42.5C 167.909,42.2493 171.242,42.5827 174.5,43.5C 175.308,43.1924 175.975,42.6924 176.5,42C 181.5,41.3333 186.5,41.3333 191.5,42C 192.451,42.7175 192.617,43.5509 192,44.5C 188.906,44.7928 187.406,46.4594 187.5,49.5C 184.538,52.9641 181.371,56.2975 178,59.5C 176.915,64.4366 176.248,69.4366 176,74.5C 171.65,79.7152 169.15,85.7152 168.5,92.5C 168.5,92.8333 168.5,93.1667 168.5,93.5C 164.668,86.4951 161.335,79.1618 158.5,71.5C 154.663,69.2855 150.663,68.9522 146.5,70.5C 146.167,70.5 145.833,70.5 145.5,70.5C 141.787,70.7697 138.954,72.4364 137,75.5C 136.832,95.6709 136.332,115.671 135.5,135.5C 135.666,129.824 135.499,124.157 135,118.5C 132.499,116.944 130.999,117.611 130.5,120.5C 128.45,120.961 126.45,121.628 124.5,122.5C 122.64,121.74 120.973,120.74 119.5,119.5C 118.167,117.833 116.833,116.167 115.5,114.5C 117.28,110.404 117.946,106.071 117.5,101.5C 112.167,101.5 106.833,101.5 101.5,101.5C 101.5,99.5 101.5,97.5 101.5,95.5C 103.523,92.4797 106.19,90.1464 109.5,88.5C 112.144,88.1601 114.477,88.8267 116.5,90.5C 119.332,89.5036 120.665,87.5036 120.5,84.5C 122.167,84.5 123.833,84.5 125.5,84.5C 125.5,81.8333 125.5,79.1667 125.5,76.5C 125.94,81.2686 128.606,83.6019 133.5,83.5C 133.567,82.0413 133.234,80.7079 132.5,79.5C 134.25,76.8673 135.25,73.8673 135.5,70.5C 134.22,58.6796 134.22,47.0129 135.5,35.5 Z"/></g>
<g><path style="opacity:0.985" fill="#d81717" d="M 158.5,39.5 C 160.167,39.5 161.833,39.5 163.5,39.5C 156.891,47.4461 149.891,55.1128 142.5,62.5C 138.929,63.7568 137.762,62.4235 139,58.5C 145.443,51.8879 151.943,45.5545 158.5,39.5 Z"/></g>
<g><path style="opacity:0.998" fill="#dc3936" d="M 215.5,42.5 C 220.333,43.086 223.333,45.7527 224.5,50.5C 225.689,51.4287 227.022,51.762 228.5,51.5C 228.935,57.1017 231.935,60.2684 237.5,61C 238.056,63.2365 239.056,65.2365 240.5,67C 238.971,69.7355 237.471,69.9022 236,67.5C 235.317,72.2335 234.317,76.9002 233,81.5C 233.449,92.5198 233.616,103.52 233.5,114.5C 233.681,117.163 233.015,119.497 231.5,121.5C 229.066,120.229 227.566,118.229 227,115.5C 226.5,100.17 226.333,84.837 226.5,69.5C 223.833,69.5 221.167,69.5 218.5,69.5C 218.167,69.5 217.833,69.5 217.5,69.5C 215.987,66.0728 213.987,65.7394 211.5,68.5C 210.287,68.2528 209.62,67.5862 209.5,66.5C 211.188,64.5233 211.521,62.5233 210.5,60.5C 211.172,59.7326 212.005,59.0659 213,58.5C 213.36,56.3921 214.027,54.3921 215,52.5C 216.011,51.6634 217.178,51.33 218.5,51.5C 218.353,48.2084 217.353,45.2084 215.5,42.5 Z"/></g>
<g><path style="opacity:0.967" fill="#a12626" d="M 121.5,38.5 C 122.5,38.5 123.5,38.5 124.5,38.5C 125.078,48.8236 125.412,59.1569 125.5,69.5C 125.167,69.5 124.833,69.5 124.5,69.5C 124.059,60.5979 123.392,51.7646 122.5,43C 120.433,42.4644 118.599,42.9644 117,44.5C 115.16,47.7071 113.16,50.7071 111,53.5C 107.805,54.8514 105.972,57.1847 105.5,60.5C 103.654,60.2222 102.32,60.8888 101.5,62.5C 102.64,64.0778 103.14,65.7445 103,67.5C 99.4895,64.4144 97.3229,65.081 96.5,69.5C 94.5,69.5 92.5,69.5 90.5,69.5C 100.5,58.8333 110.833,48.5 121.5,38.5 Z"/></g>
<g><path style="opacity:0.998" fill="#d43232" d="M 124.5,69.5 C 115.167,69.5 105.833,69.5 96.5,69.5C 97.3229,65.081 99.4895,64.4144 103,67.5C 103.14,65.7445 102.64,64.0778 101.5,62.5C 102.32,60.8888 103.654,60.2222 105.5,60.5C 105.972,57.1847 107.805,54.8514 111,53.5C 113.16,50.7071 115.16,47.7071 117,44.5C 118.599,42.9644 120.433,42.4644 122.5,43C 123.392,51.7646 124.059,60.5979 124.5,69.5 Z"/></g>
<g><path style="opacity:0.992" fill="#6c1818" d="M 130.5,29.5 C 130.5,43.5 130.5,57.5 130.5,71.5C 128.486,71.6085 126.82,70.9418 125.5,69.5C 125.412,59.1569 125.078,48.8236 124.5,38.5C 123.5,38.5 122.5,38.5 121.5,38.5C 122.167,37.1667 123.167,36.1667 124.5,35.5C 126.113,46.6527 127.446,57.986 128.5,69.5C 129.793,57.1347 129.793,44.8013 128.5,32.5C 128.932,31.2905 129.599,30.2905 130.5,29.5 Z"/></g>
<g><path style="opacity:0.997" fill="#9d2322" d="M 210.5,60.5 C 211.521,62.5233 211.188,64.5233 209.5,66.5C 204.104,68.0321 199.104,70.3654 194.5,73.5C 194.5,72.1667 194.5,70.8333 194.5,69.5C 199.51,65.9934 204.843,62.9934 210.5,60.5 Z"/></g>
<g><path style="opacity:0.994" fill="#220806" d="M 183.5,62.5 C 183.5,63.1667 183.833,63.5 184.5,63.5C 184.604,65.7028 185.27,67.7028 186.5,69.5C 184.833,69.5 183.167,69.5 181.5,69.5C 181.336,66.8127 181.503,64.146 182,61.5C 182.383,62.056 182.883,62.3893 183.5,62.5 Z"/></g>
<g><path style="opacity:0.993" fill="#8f2220" d="M 254.5,63.5 C 254.833,63.5 255.167,63.5 255.5,63.5C 257.5,64.1667 259.5,64.8333 261.5,65.5C 260.167,65.5 258.833,65.5 257.5,65.5C 257.5,70.1667 257.5,74.8333 257.5,79.5C 259.167,79.5 260.833,79.5 262.5,79.5C 263.167,80.8333 263.833,80.8333 264.5,79.5C 264.5,78.8333 264.833,78.5 265.5,78.5C 268.23,75.8088 271.564,74.4755 275.5,74.5C 275.5,75.1667 275.5,75.8333 275.5,76.5C 273.18,78.2261 270.513,78.8928 267.5,78.5C 267.279,81.2788 267.612,83.9455 268.5,86.5C 269.782,94.2955 269.782,101.962 268.5,109.5C 268.829,102.759 268.329,96.092 267,89.5C 264.453,85.2416 260.62,82.9082 255.5,82.5C 255.414,78.1434 255.08,73.81 254.5,69.5C 253.5,69.5 252.5,69.5 251.5,69.5C 250.5,68.1667 249.5,66.8333 248.5,65.5C 251.01,65.9465 253.01,65.2798 254.5,63.5 Z"/></g>
<g><path style="opacity:1" fill="#611616" d="M 261.5,65.5 C 262.486,69.97 262.819,74.6367 262.5,79.5C 260.833,79.5 259.167,79.5 257.5,79.5C 257.5,74.8333 257.5,70.1667 257.5,65.5C 258.833,65.5 260.167,65.5 261.5,65.5 Z"/></g>
<g><path style="opacity:0.966" fill="#ca2f2f" d="M 209.5,66.5 C 209.62,67.5862 210.287,68.2528 211.5,68.5C 213.987,65.7394 215.987,66.0728 217.5,69.5C 216.5,69.5 215.5,69.5 214.5,69.5C 214.5,70.5 214.5,71.5 214.5,72.5C 209.489,73.3554 207.322,76.3554 208,81.5C 206.667,95.4792 206.334,109.479 207,123.5C 208.945,128.365 211.445,132.865 214.5,137C 220.754,141.44 227.587,142.94 235,141.5C 236.749,141.748 237.582,142.748 237.5,144.5C 236.8,148.533 234.467,150.866 230.5,151.5C 230.5,154.167 230.5,156.833 230.5,159.5C 235.22,159.775 235.554,158.941 231.5,157C 232.066,156.005 232.733,155.172 233.5,154.5C 233.97,155.693 234.97,156.36 236.5,156.5C 237.5,156.333 238.5,156.167 239.5,156C 245.035,150.297 250.702,144.797 256.5,139.5C 255.573,146.443 255.24,153.443 255.5,160.5C 257.5,160.5 259.5,160.5 261.5,160.5C 249.714,162.238 237.714,162.905 225.5,162.5C 225.24,158.652 225.906,154.985 227.5,151.5C 226.554,149.742 226.554,148.075 227.5,146.5C 229.003,147.052 230.669,147.052 232.5,146.5C 232.5,145.5 232.5,144.5 232.5,143.5C 229.61,143.278 226.943,143.945 224.5,145.5C 223.354,144.855 222.354,144.022 221.5,143C 219.393,142.146 218.059,142.812 217.5,145C 223.024,152.143 222.19,152.976 215,147.5C 214.338,145.187 213.838,142.854 213.5,140.5C 209.511,138.878 208.511,140.211 210.5,144.5C 208.869,146.22 207.703,148.22 207,150.5C 206.501,146.179 206.334,141.846 206.5,137.5C 207.675,137.719 208.675,137.386 209.5,136.5C 207.758,131.28 206.258,131.28 205,136.5C 204.667,136.167 204.333,135.833 204,135.5C 203.704,131.249 204.204,127.083 205.5,123C 205.554,120.127 204.888,117.46 203.5,115C 205.77,110.11 204.437,106.777 199.5,105C 202.044,103.437 202.044,101.937 199.5,100.5C 201.167,99.8333 202.833,99.1667 204.5,98.5C 203.754,97.2638 203.421,95.9305 203.5,94.5C 202.5,94.5 201.5,94.5 200.5,94.5C 200.337,92.1432 200.503,89.8098 201,87.5C 201.915,88.3279 202.581,89.3279 203,90.5C 203.581,86.0639 203.081,81.7306 201.5,77.5C 201.799,75.1854 202.632,75.1854 204,77.5C 204.49,76.2068 204.657,74.8734 204.5,73.5C 202.833,73.5 201.167,73.5 199.5,73.5C 199.509,75.3084 199.009,76.9751 198,78.5C 197.667,78.1667 197.333,77.8333 197,77.5C 196.814,81.5159 196.814,85.5159 197,89.5C 196.218,86.6898 195.384,84.0232 194.5,81.5C 194.5,78.8333 194.5,76.1667 194.5,73.5C 199.104,70.3654 204.104,68.0321 209.5,66.5 Z"/></g>
<g><path style="opacity:0.929" fill="#d19f2d" d="M 90.5,69.5 C 92.5,69.5 94.5,69.5 96.5,69.5C 105.833,69.5 115.167,69.5 124.5,69.5C 124.833,69.5 125.167,69.5 125.5,69.5C 125.5,71.8333 125.5,74.1667 125.5,76.5C 125.5,79.1667 125.5,81.8333 125.5,84.5C 123.833,84.5 122.167,84.5 120.5,84.5C 117.833,84.5 115.167,84.5 112.5,84.5C 108.833,84.5 105.167,84.5 101.5,84.5C 108.982,83.508 116.648,83.1746 124.5,83.5C 124.5,79.1667 124.5,74.8333 124.5,70.5C 113.167,70.5 101.833,70.5 90.5,70.5C 90.8306,91.6733 90.4973,112.673 89.5,133.5C 89.5,114.833 89.5,96.1667 89.5,77.5C 89.5,75.1667 89.5,72.8333 89.5,70.5C 89.5,69.8333 89.8333,69.5 90.5,69.5 Z"/></g>
<g><path style="opacity:0.987" fill="#902020" d="M 131.5,28.5 C 131.17,45.6749 131.503,62.6749 132.5,79.5C 133.234,80.7079 133.567,82.0413 133.5,83.5C 128.606,83.6019 125.94,81.2686 125.5,76.5C 125.5,74.1667 125.5,71.8333 125.5,69.5C 126.82,70.9418 128.486,71.6085 130.5,71.5C 130.5,57.5 130.5,43.5 130.5,29.5C 130.5,28.8333 130.833,28.5 131.5,28.5 Z"/></g>
<g><path style="opacity:1" fill="#f2c40f" d="M 101.5,84.5 C 101.5,88.1667 101.5,91.8333 101.5,95.5C 101.5,97.5 101.5,99.5 101.5,101.5C 106.833,101.5 112.167,101.5 117.5,101.5C 117.946,106.071 117.28,110.404 115.5,114.5C 112.5,114.5 109.5,114.5 106.5,114.5C 105.167,114.5 103.833,114.5 102.5,114.5C 101.539,116.265 101.205,118.265 101.5,120.5C 101.5,121.5 101.5,122.5 101.5,123.5C 100.517,127.298 100.183,131.298 100.5,135.5C 97.9407,135.198 95.6074,135.532 93.5,136.5C 93.1667,136.5 92.8333,136.5 92.5,136.5C 90.5,136.5 89.5,135.5 89.5,133.5C 90.4973,112.673 90.8306,91.6733 90.5,70.5C 101.833,70.5 113.167,70.5 124.5,70.5C 124.5,74.8333 124.5,79.1667 124.5,83.5C 116.648,83.1746 108.982,83.508 101.5,84.5 Z"/></g>
<g><path style="opacity:1" fill="#f2c310" d="M 168.5,93.5 C 168.238,94.9778 168.571,96.3112 169.5,97.5C 174.603,88.629 178.603,79.2957 181.5,69.5C 183.167,69.5 184.833,69.5 186.5,69.5C 189.167,69.5 191.833,69.5 194.5,69.5C 194.5,70.8333 194.5,72.1667 194.5,73.5C 194.5,76.1667 194.5,78.8333 194.5,81.5C 194.667,99.5031 194.5,117.503 194,135.5C 192.301,136.406 190.467,136.739 188.5,136.5C 187.833,136.5 187.167,136.5 186.5,136.5C 185.167,136.5 183.833,136.5 182.5,136.5C 182.875,125.778 182.375,115.111 181,104.5C 179.012,108.296 177.512,112.296 176.5,116.5C 174.787,118.85 172.453,119.85 169.5,119.5C 168.022,119.762 166.689,119.429 165.5,118.5C 162.727,113.287 160.227,107.954 158,102.5C 157.536,103.094 157.369,103.761 157.5,104.5C 156.506,114.653 156.172,124.986 156.5,135.5C 153.167,135.5 149.833,135.5 146.5,135.5C 146.5,113.833 146.5,92.1667 146.5,70.5C 150.663,68.9522 154.663,69.2855 158.5,71.5C 161.335,79.1618 164.668,86.4951 168.5,93.5 Z"/></g>
<g><path style="opacity:1" fill="#f3c40e" d="M 218.5,69.5 C 221.167,69.5 223.833,69.5 226.5,69.5C 226.333,84.837 226.5,100.17 227,115.5C 227.566,118.229 229.066,120.229 231.5,121.5C 233.167,121.5 234.833,121.5 236.5,121.5C 238.933,121.727 240.599,120.727 241.5,118.5C 242.09,117.234 242.59,115.901 243,114.5C 243.5,100.171 243.667,85.8372 243.5,71.5C 245.635,69.631 248.302,68.9644 251.5,69.5C 252.5,69.5 253.5,69.5 254.5,69.5C 255.08,73.81 255.414,78.1434 255.5,82.5C 255.403,94.5147 254.903,106.515 254,118.5C 252.694,123.106 250.86,127.439 248.5,131.5C 244.691,133.55 240.691,135.216 236.5,136.5C 232.393,136.877 228.726,135.877 225.5,133.5C 221.355,130.854 218.521,127.187 217,122.5C 215.661,115.574 215.161,108.574 215.5,101.5C 215.5,91.1667 215.5,80.8333 215.5,70.5C 216.791,70.7373 217.791,70.404 218.5,69.5 Z"/></g>
<g><path style="opacity:1" fill="#f2c40f" d="M 311.5,126.5 C 308.407,130.927 304.407,134.26 299.5,136.5C 298.833,136.5 298.167,136.5 297.5,136.5C 290.687,135.509 283.687,135.175 276.5,135.5C 276.829,120.657 276.496,105.99 275.5,91.5C 275.5,86.5 275.5,81.5 275.5,76.5C 275.5,75.8333 275.5,75.1667 275.5,74.5C 275.5,73.1667 275.5,71.8333 275.5,70.5C 282.144,69.5572 288.811,69.3905 295.5,70C 304.395,71.9307 309.561,77.4307 311,86.5C 311.654,91.2738 311.154,95.9404 309.5,100.5C 313.629,108.975 314.296,117.642 311.5,126.5 Z"/></g>
<g><path style="opacity:0.96" fill="#7a1c1c" d="M 89.5,70.5 C 89.5,72.8333 89.5,75.1667 89.5,77.5C 88.2502,77.5774 87.4169,78.244 87,79.5C 86.3966,95.499 85.8966,111.499 85.5,127.5C 84.5,127.5 83.5,127.5 82.5,127.5C 82.1667,127.5 81.8333,127.5 81.5,127.5C 80.8333,126.5 80.1667,125.5 79.5,124.5C 80.8333,124.5 82.1667,124.5 83.5,124.5C 83.8981,110.44 83.2315,96.4396 81.5,82.5C 74.5955,86.8991 68.4288,92.2324 63,98.5C 61.7978,100.677 61.2978,103.011 61.5,105.5C 59.2729,104.599 58.2729,102.933 58.5,100.5C 68.8067,90.5275 79.1401,80.5275 89.5,70.5 Z"/></g>
<g><path style="opacity:0.986" fill="#b52b2b" d="M 145.5,70.5 C 145.5,71.5 145.5,72.5 145.5,73.5C 142.675,73.0807 140.509,74.0807 139,76.5C 138.667,96.5 138.333,116.5 138,136.5C 137.292,137.381 136.458,138.047 135.5,138.5C 135.5,137.833 135.5,137.167 135.5,136.5C 135.5,136.167 135.5,135.833 135.5,135.5C 136.332,115.671 136.832,95.6709 137,75.5C 138.954,72.4364 141.787,70.7697 145.5,70.5 Z"/></g>
<g><path style="opacity:0.999" fill="#da3232" d="M 225.5,162.5 C 195.493,162.618 165.493,162.284 135.5,161.5C 134.318,153.014 134.318,144.681 135.5,136.5C 135.5,137.167 135.5,137.833 135.5,138.5C 135.335,141.518 135.502,144.518 136,147.5C 139.516,149.926 142.849,152.593 146,155.5C 146.483,156.448 146.649,157.448 146.5,158.5C 149.028,159.011 151.528,159.678 154,160.5C 156.756,160.576 157.923,159.243 157.5,156.5C 160.073,157.555 162.739,157.722 165.5,157C 160.707,152.372 156.04,147.538 151.5,142.5C 150.311,141.571 148.978,141.238 147.5,141.5C 148.952,140.698 150.618,140.198 152.5,140C 153.823,139.184 154.489,138.017 154.5,136.5C 155.5,136.5 156.5,136.5 157.5,136.5C 157.5,132.167 157.5,127.833 157.5,123.5C 159.783,124.029 162.117,124.363 164.5,124.5C 168.145,123.793 171.479,122.459 174.5,120.5C 174.28,126.97 175.114,133.303 177,139.5C 180.667,142.167 184.333,142.167 188,139.5C 188.483,138.552 188.649,137.552 188.5,136.5C 190.467,136.739 192.301,136.406 194,135.5C 194.5,117.503 194.667,99.5031 194.5,81.5C 195.384,84.0232 196.218,86.6898 197,89.5C 196.814,85.5159 196.814,81.5159 197,77.5C 197.333,77.8333 197.667,78.1667 198,78.5C 199.009,76.9751 199.509,75.3084 199.5,73.5C 201.167,73.5 202.833,73.5 204.5,73.5C 204.657,74.8734 204.49,76.2068 204,77.5C 202.632,75.1854 201.799,75.1854 201.5,77.5C 203.081,81.7306 203.581,86.0639 203,90.5C 202.581,89.3279 201.915,88.3279 201,87.5C 200.503,89.8098 200.337,92.1432 200.5,94.5C 201.5,94.5 202.5,94.5 203.5,94.5C 203.421,95.9305 203.754,97.2638 204.5,98.5C 202.833,99.1667 201.167,99.8333 199.5,100.5C 202.044,101.937 202.044,103.437 199.5,105C 204.437,106.777 205.77,110.11 203.5,115C 204.888,117.46 205.554,120.127 205.5,123C 204.204,127.083 203.704,131.249 204,135.5C 204.333,135.833 204.667,136.167 205,136.5C 206.258,131.28 207.758,131.28 209.5,136.5C 208.675,137.386 207.675,137.719 206.5,137.5C 206.334,141.846 206.501,146.179 207,150.5C 207.703,148.22 208.869,146.22 210.5,144.5C 208.511,140.211 209.511,138.878 213.5,140.5C 213.838,142.854 214.338,145.187 215,147.5C 222.19,152.976 223.024,152.143 217.5,145C 218.059,142.812 219.393,142.146 221.5,143C 222.354,144.022 223.354,144.855 224.5,145.5C 226.943,143.945 229.61,143.278 232.5,143.5C 232.5,144.5 232.5,145.5 232.5,146.5C 230.669,147.052 229.003,147.052 227.5,146.5C 226.554,148.075 226.554,149.742 227.5,151.5C 225.906,154.985 225.24,158.652 225.5,162.5 Z"/></g>
<g><path style="opacity:0.999" fill="#d83533" d="M 266.5,32.5 C 291.661,55.4946 315.661,79.6612 338.5,105C 330.962,114.039 322.628,122.206 313.5,129.5C 311.952,129.179 311.285,128.179 311.5,126.5C 314.296,117.642 313.629,108.975 309.5,100.5C 311.154,95.9404 311.654,91.2738 311,86.5C 309.561,77.4307 304.395,71.9307 295.5,70C 288.811,69.3905 282.144,69.5572 275.5,70.5C 275.5,71.8333 275.5,73.1667 275.5,74.5C 271.564,74.4755 268.23,75.8088 265.5,78.5C 266.071,63.173 266.405,47.8397 266.5,32.5 Z"/></g>
<g><path style="opacity:0.988" fill="#81231e" d="M 242.5,73.5 C 240.558,76.9145 239.558,80.7478 239.5,85C 238.519,96.4903 238.352,107.99 239,119.5C 239.671,118.748 240.504,118.414 241.5,118.5C 240.599,120.727 238.933,121.727 236.5,121.5C 237.261,107.858 237.761,94.1915 238,80.5C 237.663,76.8173 239.163,74.484 242.5,73.5 Z"/></g>
<g><path style="opacity:0.989" fill="#5d261e" d="M 243.5,71.5 C 243.667,85.8372 243.5,100.171 243,114.5C 242.59,115.901 242.09,117.234 241.5,118.5C 240.504,118.414 239.671,118.748 239,119.5C 238.352,107.99 238.519,96.4903 239.5,85C 239.558,80.7478 240.558,76.9145 242.5,73.5C 242.328,72.5084 242.662,71.8417 243.5,71.5 Z"/></g>
<g><path style="opacity:0.996" fill="#471011" d="M 89.5,77.5 C 89.5,96.1667 89.5,114.833 89.5,133.5C 87.1415,131.471 84.8082,129.471 82.5,127.5C 83.5,127.5 84.5,127.5 85.5,127.5C 85.8966,111.499 86.3966,95.499 87,79.5C 87.4169,78.244 88.2502,77.5774 89.5,77.5 Z"/></g>
<g><path style="opacity:0.984" fill="#652318" d="M 183.5,62.5 C 182.883,62.3893 182.383,62.056 182,61.5C 181.503,64.146 181.336,66.8127 181.5,69.5C 178.603,79.2957 174.603,88.629 169.5,97.5C 168.571,96.3112 168.238,94.9778 168.5,93.5C 168.5,93.1667 168.5,92.8333 168.5,92.5C 171.368,86.4348 174.535,80.4348 178,74.5C 178.503,69.8097 179.17,65.143 180,60.5C 182.351,57.9568 183.517,58.6235 183.5,62.5 Z"/></g>
<g><path style="opacity:0.995" fill="#370c0b" d="M 275.5,76.5 C 275.5,81.5 275.5,86.5 275.5,91.5C 275.5,106.167 275.5,120.833 275.5,135.5C 273.793,132.201 272.46,128.534 271.5,124.5C 272.544,122.232 272.711,119.899 272,117.5C 271.333,118.833 270.667,120.167 270,121.5C 271.642,115.097 272.475,108.43 272.5,101.5C 272.333,98.1667 272.167,94.8333 272,91.5C 271.777,89.1192 270.61,87.4525 268.5,86.5C 267.612,83.9455 267.279,81.2788 267.5,78.5C 270.513,78.8928 273.18,78.2261 275.5,76.5 Z"/></g>
<g><path style="opacity:0.99" fill="#451010" d="M 145.5,78.5 C 145.5,97.5 145.5,116.5 145.5,135.5C 144.504,135.586 143.671,135.252 143,134.5C 142.833,130.167 142.667,125.833 142.5,121.5C 142.546,106.792 143.546,92.4583 145.5,78.5 Z"/></g>
<g><path style="opacity:0.867" fill="#c6952c" d="M 145.5,70.5 C 145.833,70.5 146.167,70.5 146.5,70.5C 146.5,92.1667 146.5,113.833 146.5,135.5C 149.833,135.5 153.167,135.5 156.5,135.5C 156.172,124.986 156.506,114.653 157.5,104.5C 157.5,109.833 157.5,115.167 157.5,120.5C 157.5,121.5 157.5,122.5 157.5,123.5C 157.5,127.833 157.5,132.167 157.5,136.5C 156.5,136.5 155.5,136.5 154.5,136.5C 152.167,136.5 149.833,136.5 147.5,136.5C 146.508,136.672 145.842,136.338 145.5,135.5C 145.5,116.5 145.5,97.5 145.5,78.5C 145.5,77.8333 145.5,77.1667 145.5,76.5C 145.5,75.5 145.5,74.5 145.5,73.5C 145.5,72.5 145.5,71.5 145.5,70.5 Z"/></g>
<g><path style="opacity:0.996" fill="#601515" d="M 145.5,76.5 C 145.5,77.1667 145.5,77.8333 145.5,78.5C 143.546,92.4583 142.546,106.792 142.5,121.5C 142.667,125.833 142.833,130.167 143,134.5C 143.671,135.252 144.504,135.586 145.5,135.5C 145.842,136.338 146.508,136.672 147.5,136.5C 145.611,137.742 143.611,137.742 141.5,136.5C 141.148,120.495 140.981,104.495 141,88.5C 141.333,85.1667 141.667,81.8333 142,78.5C 142.816,77.1772 143.983,76.5106 145.5,76.5 Z"/></g>
<g><path style="opacity:0.963" fill="#501a14" d="M 214.5,77.5 C 214.174,85.6841 214.508,93.6841 215.5,101.5C 215.161,108.574 215.661,115.574 217,122.5C 218.521,127.187 221.355,130.854 225.5,133.5C 225.631,134.376 225.298,135.043 224.5,135.5C 217.769,133.603 213.603,129.27 212,122.5C 211.333,107.833 211.333,93.1667 212,78.5C 212.671,77.7476 213.504,77.4142 214.5,77.5 Z"/></g>
<g><path style="opacity:0.998" fill="#d23430" d="M 255.5,82.5 C 260.62,82.9082 264.453,85.2416 267,89.5C 268.329,96.092 268.829,102.759 268.5,109.5C 265.703,112.394 264.703,115.727 265.5,119.5C 264.238,124.791 263.238,130.125 262.5,135.5C 262.666,130.156 262.499,124.823 262,119.5C 258.828,118.003 256.995,119.003 256.5,122.5C 256.5,123.5 256.5,124.5 256.5,125.5C 255.233,128.061 255.233,130.728 256.5,133.5C 254.041,133.31 252.374,134.31 251.5,136.5C 251.727,134.067 250.727,132.401 248.5,131.5C 250.86,127.439 252.694,123.106 254,118.5C 254.903,106.515 255.403,94.5147 255.5,82.5 Z"/></g>
<g><path style="opacity:0.999" fill="#d03131" d="M 79.5,124.5 C 74.2033,117.536 68.2033,111.202 61.5,105.5C 61.2978,103.011 61.7978,100.677 63,98.5C 68.4288,92.2324 74.5955,86.8991 81.5,82.5C 83.2315,96.4396 83.8981,110.44 83.5,124.5C 82.1667,124.5 80.8333,124.5 79.5,124.5 Z"/></g>
<g><path style="opacity:0.997" fill="#5e1f1e" d="M 101.5,84.5 C 105.167,84.5 108.833,84.5 112.5,84.5C 111.5,85.8333 110.5,87.1667 109.5,88.5C 106.19,90.1464 103.523,92.4797 101.5,95.5C 101.5,91.8333 101.5,88.1667 101.5,84.5 Z"/></g>
<g><path style="opacity:0.999" fill="#8b1313" d="M 112.5,84.5 C 115.167,84.5 117.833,84.5 120.5,84.5C 120.665,87.5036 119.332,89.5036 116.5,90.5C 114.477,88.8267 112.144,88.1601 109.5,88.5C 110.5,87.1667 111.5,85.8333 112.5,84.5 Z"/></g>
<g><path style="opacity:1" fill="#571714" d="M 292.5,96.5 C 292.759,92.7632 291.093,90.4298 287.5,89.5C 287.5,87.8333 287.5,86.1667 287.5,84.5C 290.909,84.2493 294.242,84.5827 297.5,85.5C 298.657,88.7844 298.824,92.1177 298,95.5C 296.301,96.4061 294.467,96.7394 292.5,96.5 Z"/></g>
<g><path style="opacity:0.976" fill="#631616" d="M 268.5,86.5 C 270.61,87.4525 271.777,89.1192 272,91.5C 272.167,94.8333 272.333,98.1667 272.5,101.5C 272.475,108.43 271.642,115.097 270,121.5C 270.667,120.167 271.333,118.833 272,117.5C 272.711,119.899 272.544,122.232 271.5,124.5C 272.46,128.534 273.793,132.201 275.5,135.5C 282.648,136.492 289.981,136.825 297.5,136.5C 294.305,138.03 290.805,138.696 287,138.5C 282.066,138.516 277.233,137.849 272.5,136.5C 271.681,132.209 270.181,128.209 268,124.5C 267.612,119.489 267.778,114.489 268.5,109.5C 269.782,101.962 269.782,94.2955 268.5,86.5 Z"/></g>
<g><path style="opacity:0.918" fill="#ca9e2b" d="M 217.5,69.5 C 217.833,69.5 218.167,69.5 218.5,69.5C 217.791,70.404 216.791,70.7373 215.5,70.5C 215.5,80.8333 215.5,91.1667 215.5,101.5C 214.508,93.6841 214.174,85.6841 214.5,77.5C 214.5,76.5 214.5,75.5 214.5,74.5C 214.5,73.8333 214.5,73.1667 214.5,72.5C 214.5,71.5 214.5,70.5 214.5,69.5C 215.5,69.5 216.5,69.5 217.5,69.5 Z"/></g>
<g><path style="opacity:0.992" fill="#bd1414" d="M 287.5,89.5 C 291.093,90.4298 292.759,92.7632 292.5,96.5C 290.833,96.5 289.167,96.5 287.5,96.5C 287.5,94.1667 287.5,91.8333 287.5,89.5 Z"/></g>
<g><path style="opacity:0.859" fill="#b98f2d" d="M 275.5,91.5 C 276.496,105.99 276.829,120.657 276.5,135.5C 283.687,135.175 290.687,135.509 297.5,136.5C 289.981,136.825 282.648,136.492 275.5,135.5C 275.5,120.833 275.5,106.167 275.5,91.5 Z"/></g>
<g><path style="opacity:0.949" fill="#420f10" d="M 58.5,100.5 C 58.2729,102.933 59.2729,104.599 61.5,105.5C 68.2033,111.202 74.2033,117.536 79.5,124.5C 80.1667,125.5 80.8333,126.5 81.5,127.5C 72.9216,120.426 64.7549,112.76 57,104.5C 56.2274,102.648 56.7274,101.314 58.5,100.5 Z"/></g>
<g><path style="opacity:0.993" fill="#851f1f" d="M 145.5,73.5 C 145.5,74.5 145.5,75.5 145.5,76.5C 143.983,76.5106 142.816,77.1772 142,78.5C 141.667,81.8333 141.333,85.1667 141,88.5C 140.981,104.495 141.148,120.495 141.5,136.5C 137.932,137.062 137.598,138.395 140.5,140.5C 139.212,143.597 139.712,146.597 142,149.5C 145.053,151.43 147.553,153.93 149.5,157C 151.5,157.667 153.5,157.667 155.5,157C 156.056,156.617 156.389,156.117 156.5,155.5C 157.167,155.5 157.5,155.833 157.5,156.5C 157.923,159.243 156.756,160.576 154,160.5C 151.528,159.678 149.028,159.011 146.5,158.5C 146.649,157.448 146.483,156.448 146,155.5C 142.849,152.593 139.516,149.926 136,147.5C 135.502,144.518 135.335,141.518 135.5,138.5C 136.458,138.047 137.292,137.381 138,136.5C 138.333,116.5 138.667,96.5 139,76.5C 140.509,74.0807 142.675,73.0807 145.5,73.5 Z"/></g>
<g><path style="opacity:0.996" fill="#631d19" d="M 186.5,136.5 C 185.508,138.026 184.008,138.693 182,138.5C 180.564,138.441 179.231,138.108 178,137.5C 176.837,130.547 176.337,123.547 176.5,116.5C 177.512,112.296 179.012,108.296 181,104.5C 182.375,115.111 182.875,125.778 182.5,136.5C 183.833,136.5 185.167,136.5 186.5,136.5 Z"/></g>
<g><path style="opacity:1" fill="#551b17" d="M 295.5,121.5 C 295.349,116.351 292.682,114.018 287.5,114.5C 287.5,113.5 287.5,112.5 287.5,111.5C 291.884,111.174 296.217,111.508 300.5,112.5C 302.999,118.13 301.332,121.13 295.5,121.5 Z"/></g>
<g><path style="opacity:0.986" fill="#671d18" d="M 169.5,119.5 C 165.958,123.168 161.958,123.501 157.5,120.5C 157.5,115.167 157.5,109.833 157.5,104.5C 157.369,103.761 157.536,103.094 158,102.5C 160.227,107.954 162.727,113.287 165.5,118.5C 166.689,119.429 168.022,119.762 169.5,119.5 Z"/></g>
<g><path style="opacity:0.999" fill="#2d0b09" d="M 106.5,114.5 C 109.5,114.5 112.5,114.5 115.5,114.5C 116.833,116.167 118.167,117.833 119.5,119.5C 118.796,121.344 117.463,121.844 115.5,121C 113.103,117.819 110.103,115.653 106.5,114.5 Z"/></g>
<g><path style="opacity:0.99" fill="#771919" d="M 102.5,114.5 C 103.833,114.5 105.167,114.5 106.5,114.5C 110.103,115.653 113.103,117.819 115.5,121C 117.463,121.844 118.796,121.344 119.5,119.5C 120.973,120.74 122.64,121.74 124.5,122.5C 126.45,121.628 128.45,120.961 130.5,120.5C 131.483,135.422 131.816,150.422 131.5,165.5C 130.504,151.677 130.171,137.677 130.5,123.5C 129.167,123.5 127.833,123.5 126.5,123.5C 126.492,126.545 126.159,129.545 125.5,132.5C 124.532,130.393 124.198,128.059 124.5,125.5C 119.181,125.816 114.848,123.982 111.5,120C 108.568,118.855 105.568,118.022 102.5,117.5C 102.5,116.5 102.5,115.5 102.5,114.5 Z"/></g>
<g><path style="opacity:1" fill="#b5312f" d="M 287.5,114.5 C 292.682,114.018 295.349,116.351 295.5,121.5C 292.833,121.5 290.167,121.5 287.5,121.5C 287.5,119.167 287.5,116.833 287.5,114.5 Z"/></g>
<g><path style="opacity:0.999" fill="#db1818" d="M 135.5,135.5 C 135.5,135.833 135.5,136.167 135.5,136.5C 134.318,144.681 134.318,153.014 135.5,161.5C 165.493,162.284 195.493,162.618 225.5,162.5C 237.714,162.905 249.714,162.238 261.5,160.5C 262.493,152.35 262.826,144.017 262.5,135.5C 263.238,130.125 264.238,124.791 265.5,119.5C 265.5,120.167 265.5,120.833 265.5,121.5C 265.5,136.167 265.5,150.833 265.5,165.5C 220.833,165.5 176.167,165.5 131.5,165.5C 131.816,150.422 131.483,135.422 130.5,120.5C 130.999,117.611 132.499,116.944 135,118.5C 135.499,124.157 135.666,129.824 135.5,135.5 Z"/></g>
<g><path style="opacity:0.998" fill="#d53232" d="M 101.5,120.5 C 105.844,120.339 109.511,121.839 112.5,125C 115.687,125.889 118.853,126.722 122,127.5C 122.973,139.58 122.473,151.58 120.5,163.5C 119.06,162.048 117.394,161.048 115.5,160.5C 108.778,152.776 101.445,145.776 93.5,139.5C 93.4431,138.391 93.1098,137.391 92.5,136.5C 92.8333,136.5 93.1667,136.5 93.5,136.5C 96.1667,136.5 98.8333,136.5 101.5,136.5C 101.5,132.167 101.5,127.833 101.5,123.5C 101.5,122.5 101.5,121.5 101.5,120.5 Z"/></g>
<g><path style="opacity:0.995" fill="#621616" d="M 256.5,125.5 C 256.5,124.5 256.5,123.5 256.5,122.5C 257.82,121.058 259.486,120.392 261.5,120.5C 261.823,124.226 261.489,127.893 260.5,131.5C 257.929,130.272 256.595,128.272 256.5,125.5 Z"/></g>
<g><path style="opacity:0.998" fill="#912120" d="M 268.5,109.5 C 267.778,114.489 267.612,119.489 268,124.5C 270.181,128.209 271.681,132.209 272.5,136.5C 277.233,137.849 282.066,138.516 287,138.5C 290.805,138.696 294.305,138.03 297.5,136.5C 298.167,136.5 298.833,136.5 299.5,136.5C 298.025,138.41 296.025,139.576 293.5,140C 285.507,140.5 277.507,140.666 269.5,140.5C 268.584,134.084 267.251,127.75 265.5,121.5C 265.5,120.833 265.5,120.167 265.5,119.5C 264.703,115.727 265.703,112.394 268.5,109.5 Z"/></g>
<g><path style="opacity:0.998" fill="#731c1a" d="M 214.5,74.5 C 214.5,75.5 214.5,76.5 214.5,77.5C 213.504,77.4142 212.671,77.7476 212,78.5C 211.333,93.1667 211.333,107.833 212,122.5C 213.603,129.27 217.769,133.603 224.5,135.5C 225.298,135.043 225.631,134.376 225.5,133.5C 228.726,135.877 232.393,136.877 236.5,136.5C 234.603,137.805 232.269,138.471 229.5,138.5C 226.468,138.403 223.468,138.069 220.5,137.5C 217.542,135.044 214.709,132.378 212,129.5C 211.206,126.529 210.539,123.529 210,120.5C 209.333,106.167 209.333,91.8333 210,77.5C 210.589,75.1367 212.089,74.1367 214.5,74.5 Z"/></g>
<g><path style="opacity:0.992" fill="#a22c2a" d="M 102.5,114.5 C 102.5,115.5 102.5,116.5 102.5,117.5C 105.568,118.022 108.568,118.855 111.5,120C 114.848,123.982 119.181,125.816 124.5,125.5C 124.198,128.059 124.532,130.393 125.5,132.5C 125.751,143.891 125.085,155.225 123.5,166.5C 122.583,165.873 121.583,165.539 120.5,165.5C 118.527,164.194 116.861,162.527 115.5,160.5C 117.394,161.048 119.06,162.048 120.5,163.5C 122.473,151.58 122.973,139.58 122,127.5C 118.853,126.722 115.687,125.889 112.5,125C 109.511,121.839 105.844,120.339 101.5,120.5C 101.205,118.265 101.539,116.265 102.5,114.5 Z"/></g>
<g><path style="opacity:0.986" fill="#a32926" d="M 214.5,72.5 C 214.5,73.1667 214.5,73.8333 214.5,74.5C 212.089,74.1367 210.589,75.1367 210,77.5C 209.333,91.8333 209.333,106.167 210,120.5C 210.539,123.529 211.206,126.529 212,129.5C 214.709,132.378 217.542,135.044 220.5,137.5C 223.468,138.069 226.468,138.403 229.5,138.5C 232.269,138.471 234.603,137.805 236.5,136.5C 240.691,135.216 244.691,133.55 248.5,131.5C 250.727,132.401 251.727,134.067 251.5,136.5C 250.833,136.833 250.167,137.167 249.5,137.5C 249.103,136.475 248.437,136.308 247.5,137C 244.836,140.511 241.502,143.011 237.5,144.5C 237.582,142.748 236.749,141.748 235,141.5C 227.587,142.94 220.754,141.44 214.5,137C 211.445,132.865 208.945,128.365 207,123.5C 206.334,109.479 206.667,95.4792 208,81.5C 207.322,76.3554 209.489,73.3554 214.5,72.5 Z"/></g>
<g><path style="opacity:0.985" fill="#d53030" d="M 265.5,121.5 C 267.251,127.75 268.584,134.084 269.5,140.5C 278.652,141.494 287.985,141.827 297.5,141.5C 297.5,142.833 297.5,144.167 297.5,145.5C 280.5,162.833 263.5,180.167 246.5,197.5C 230.833,197.5 215.167,197.5 199.5,197.5C 206.827,188.507 214.827,180.174 223.5,172.5C 236.185,173.967 248.852,173.801 261.5,172C 262.056,171.617 262.389,171.117 262.5,170.5C 263.234,169.292 263.567,167.959 263.5,166.5C 233.833,166.5 204.167,166.5 174.5,166.5C 159.99,166.829 145.657,166.496 131.5,165.5C 176.167,165.5 220.833,165.5 265.5,165.5C 265.5,150.833 265.5,136.167 265.5,121.5 Z"/></g>
<g><path style="opacity:0.95" fill="#b6322a" d="M 311.5,126.5 C 311.285,128.179 311.952,129.179 313.5,129.5C 309.167,135.833 303.833,141.167 297.5,145.5C 297.5,144.167 297.5,142.833 297.5,141.5C 287.985,141.827 278.652,141.494 269.5,140.5C 277.507,140.666 285.507,140.5 293.5,140C 296.025,139.576 298.025,138.41 299.5,136.5C 304.407,134.26 308.407,130.927 311.5,126.5 Z"/></g>
<g><path style="opacity:0.997" fill="#d71717" d="M 256.5,133.5 C 256.5,135.5 256.5,137.5 256.5,139.5C 250.702,144.797 245.035,150.297 239.5,156C 238.5,156.167 237.5,156.333 236.5,156.5C 234.97,156.36 233.97,155.693 233.5,154.5C 238.805,148.86 244.139,143.193 249.5,137.5C 250.167,137.167 250.833,136.833 251.5,136.5C 252.374,134.31 254.041,133.31 256.5,133.5 Z"/></g>
<g><path style="opacity:0.882" fill="#e0972f" d="M 101.5,123.5 C 101.5,127.833 101.5,132.167 101.5,136.5C 98.8333,136.5 96.1667,136.5 93.5,136.5C 95.6074,135.532 97.9407,135.198 100.5,135.5C 100.183,131.298 100.517,127.298 101.5,123.5 Z"/></g>
<g><path style="opacity:0.995" fill="#9d1817" d="M 141.5,136.5 C 143.611,137.742 145.611,137.742 147.5,136.5C 149.833,136.5 152.167,136.5 154.5,136.5C 154.489,138.017 153.823,139.184 152.5,140C 150.618,140.198 148.952,140.698 147.5,141.5C 145.973,141.427 144.973,142.094 144.5,143.5C 143.167,142.5 141.833,141.5 140.5,140.5C 137.598,138.395 137.932,137.062 141.5,136.5 Z"/></g>
<g><path style="opacity:1" fill="#a42727" d="M 176.5,116.5 C 176.337,123.547 176.837,130.547 178,137.5C 179.231,138.108 180.564,138.441 182,138.5C 184.008,138.693 185.508,138.026 186.5,136.5C 187.167,136.5 187.833,136.5 188.5,136.5C 188.649,137.552 188.483,138.552 188,139.5C 184.333,142.167 180.667,142.167 177,139.5C 175.114,133.303 174.28,126.97 174.5,120.5C 171.479,122.459 168.145,123.793 164.5,124.5C 162.117,124.363 159.783,124.029 157.5,123.5C 157.5,122.5 157.5,121.5 157.5,120.5C 161.958,123.501 165.958,123.168 169.5,119.5C 172.453,119.85 174.787,118.85 176.5,116.5 Z"/></g>
<g><path style="opacity:0.959" fill="#3f0e0f" d="M 93.5,139.5 C 101.445,145.776 108.778,152.776 115.5,160.5C 116.861,162.527 118.527,164.194 120.5,165.5C 122.167,167.833 124.167,169.833 126.5,171.5C 134.167,179.833 142.167,187.833 150.5,195.5C 150.5,196.167 150.5,196.833 150.5,197.5C 149.5,197.5 148.5,197.5 147.5,197.5C 131.9,180.398 115.733,163.731 99,147.5C 96.9205,144.935 95.0872,142.268 93.5,139.5 Z"/></g>
<g><path style="opacity:0.995" fill="#390d0c" d="M 140.5,140.5 C 141.833,141.5 143.167,142.5 144.5,143.5C 148.167,147.833 152.167,151.833 156.5,155.5C 156.389,156.117 156.056,156.617 155.5,157C 153.5,157.667 151.5,157.667 149.5,157C 147.553,153.93 145.053,151.43 142,149.5C 139.712,146.597 139.212,143.597 140.5,140.5 Z"/></g>
<g><path style="opacity:0.986" fill="#6d1717" d="M 249.5,137.5 C 244.139,143.193 238.805,148.86 233.5,154.5C 232.733,155.172 232.066,156.005 231.5,157C 235.554,158.941 235.22,159.775 230.5,159.5C 230.5,156.833 230.5,154.167 230.5,151.5C 234.467,150.866 236.8,148.533 237.5,144.5C 241.502,143.011 244.836,140.511 247.5,137C 248.437,136.308 249.103,136.475 249.5,137.5 Z"/></g>
<g><path style="opacity:0.993" fill="#d91818" d="M 147.5,141.5 C 148.978,141.238 150.311,141.571 151.5,142.5C 156.04,147.538 160.707,152.372 165.5,157C 162.739,157.722 160.073,157.555 157.5,156.5C 157.5,155.833 157.167,155.5 156.5,155.5C 152.167,151.833 148.167,147.833 144.5,143.5C 144.973,142.094 145.973,141.427 147.5,141.5 Z"/></g>
<g><path style="opacity:0.998" fill="#912121" d="M 262.5,135.5 C 262.826,144.017 262.493,152.35 261.5,160.5C 259.5,160.5 257.5,160.5 255.5,160.5C 255.24,153.443 255.573,146.443 256.5,139.5C 256.5,137.5 256.5,135.5 256.5,133.5C 255.233,130.728 255.233,128.061 256.5,125.5C 256.595,128.272 257.929,130.272 260.5,131.5C 261.489,127.893 261.823,124.226 261.5,120.5C 259.486,120.392 257.82,121.058 256.5,122.5C 256.995,119.003 258.828,118.003 262,119.5C 262.499,124.823 262.666,130.156 262.5,135.5 Z"/></g>
<g><path style="opacity:0.995" fill="#591515" d="M 258.5,140.5 C 259.5,140.5 260.5,140.5 261.5,140.5C 261.5,146.5 261.5,152.5 261.5,158.5C 260.167,158.5 258.833,158.5 257.5,158.5C 257.254,152.441 257.587,146.441 258.5,140.5 Z"/></g>
<g><path style="opacity:0.988" fill="#5a1414" d="M 131.5,165.5 C 145.657,166.496 159.99,166.829 174.5,166.5C 174.5,167.833 174.5,169.167 174.5,170.5C 173.314,171.705 173.314,173.039 174.5,174.5C 172.058,176.139 171.891,178.139 174,180.5C 179.703,186.035 185.203,191.702 190.5,197.5C 189.167,197.5 187.833,197.5 186.5,197.5C 182.157,191.524 177.323,185.857 172,180.5C 171.108,177.716 169.942,175.05 168.5,172.5C 163.88,171.507 159.214,171.173 154.5,171.5C 145.007,170.417 135.673,170.417 126.5,171.5C 124.167,169.833 122.167,167.833 120.5,165.5C 121.583,165.539 122.583,165.873 123.5,166.5C 125.085,155.225 125.751,143.891 125.5,132.5C 126.159,129.545 126.492,126.545 126.5,123.5C 127.833,123.5 129.167,123.5 130.5,123.5C 130.171,137.677 130.504,151.677 131.5,165.5 Z"/></g>
<g><path style="opacity:0.997" fill="#731818" d="M 174.5,166.5 C 204.167,166.5 233.833,166.5 263.5,166.5C 263.567,167.959 263.234,169.292 262.5,170.5C 248.584,172.427 234.917,171.76 221.5,168.5C 219.058,168.286 217.392,169.286 216.5,171.5C 210.67,176.497 205.337,181.997 200.5,188C 198.648,188.773 197.314,188.273 196.5,186.5C 199.534,181.954 203.201,177.787 207.5,174C 198.644,172.042 189.644,171.209 180.5,171.5C 178.565,170.85 176.565,170.517 174.5,170.5C 174.5,169.167 174.5,167.833 174.5,166.5 Z"/></g>
<g><path style="opacity:0.976" fill="#ab2626" d="M 262.5,170.5 C 262.389,171.117 262.056,171.617 261.5,172C 248.852,173.801 236.185,173.967 223.5,172.5C 221.393,171.532 219.059,171.198 216.5,171.5C 217.392,169.286 219.058,168.286 221.5,168.5C 234.917,171.76 248.584,172.427 262.5,170.5 Z"/></g>
<g><path style="opacity:0.989" fill="#d81717" d="M 174.5,170.5 C 176.565,170.517 178.565,170.85 180.5,171.5C 185.224,177.227 190.558,182.227 196.5,186.5C 197.314,188.273 198.648,188.773 200.5,188C 205.337,181.997 210.67,176.497 216.5,171.5C 219.059,171.198 221.393,171.532 223.5,172.5C 214.827,180.174 206.827,188.507 199.5,197.5C 198.5,197.5 197.5,197.5 196.5,197.5C 189.89,189.221 182.556,181.555 174.5,174.5C 173.314,173.039 173.314,171.705 174.5,170.5 Z"/></g>
<g><path style="opacity:0.988" fill="#ba2c2c" d="M 154.5,171.5 C 158.312,172.324 162.312,172.824 166.5,173C 168.532,178.511 171.532,183.345 175.5,187.5C 169.9,184.901 166.566,180.568 165.5,174.5C 162.681,174.131 159.848,173.798 157,173.5C 148.739,175.128 140.573,175.961 132.5,176C 134.167,177.667 135.833,179.333 137.5,181C 138.784,181.684 139.951,181.517 141,180.5C 142.923,184.258 145.423,187.591 148.5,190.5C 150.145,188.075 151.311,185.408 152,182.5C 151.423,186.768 150.923,191.102 150.5,195.5C 142.167,187.833 134.167,179.833 126.5,171.5C 135.673,170.417 145.007,170.417 154.5,171.5 Z"/></g>
<g><path style="opacity:0.996" fill="#d13131" d="M 180.5,171.5 C 189.644,171.209 198.644,172.042 207.5,174C 203.201,177.787 199.534,181.954 196.5,186.5C 190.558,182.227 185.224,177.227 180.5,171.5 Z"/></g>
<g><path style="opacity:0.971" fill="#dc3333" d="M 175.5,187.5 C 178.605,190.275 180.938,193.608 182.5,197.5C 171.833,197.5 161.167,197.5 150.5,197.5C 150.5,196.833 150.5,196.167 150.5,195.5C 150.923,191.102 151.423,186.768 152,182.5C 151.311,185.408 150.145,188.075 148.5,190.5C 145.423,187.591 142.923,184.258 141,180.5C 139.951,181.517 138.784,181.684 137.5,181C 135.833,179.333 134.167,177.667 132.5,176C 140.573,175.961 148.739,175.128 157,173.5C 159.848,173.798 162.681,174.131 165.5,174.5C 166.566,180.568 169.9,184.901 175.5,187.5 Z"/></g>
<g><path style="opacity:0.976" fill="#330c0b" d="M 174.5,174.5 C 182.556,181.555 189.89,189.221 196.5,197.5C 194.5,197.5 192.5,197.5 190.5,197.5C 185.203,191.702 179.703,186.035 174,180.5C 171.891,178.139 172.058,176.139 174.5,174.5 Z"/></g>
<g><path style="opacity:0.923" fill="#932222" d="M 154.5,171.5 C 159.214,171.173 163.88,171.507 168.5,172.5C 169.942,175.05 171.108,177.716 172,180.5C 177.323,185.857 182.157,191.524 186.5,197.5C 185.167,197.5 183.833,197.5 182.5,197.5C 180.938,193.608 178.605,190.275 175.5,187.5C 171.532,183.345 168.532,178.511 166.5,173C 162.312,172.824 158.312,172.324 154.5,171.5 Z"/></g>
</svg>
