<?xml version="1.0" encoding="UTF-8"?>
<!DOCTYPE svg PUBLIC "-//W3C//DTD SVG 1.1//EN" "http://www.w3.org/Graphics/SVG/1.1/DTD/svg11.dtd">
<svg xmlns="http://www.w3.org/2000/svg" version="1.1" width="400px" height="198px" style="shape-rendering:geometricPrecision; text-rendering:geometricPrecision; image-rendering:optimizeQuality; fill-rule:evenodd; clip-rule:evenodd" xmlns:xlink="http://www.w3.org/1999/xlink">
<g><path style="opacity:0.996" fill="#924b37" d="M 67.5,-0.5 C 76.8333,-0.5 86.1667,-0.5 95.5,-0.5C 93.1316,1.96485 92.1316,4.96485 92.5,8.5C 91.3065,8.97041 90.6399,9.97041 90.5,11.5C 89.2011,15.396 88.5344,19.396 88.5,23.5C 88.1667,23.5 87.8333,23.5 87.5,23.5C 86.3509,23.7911 85.6842,24.6244 85.5,26C 84.9233,28.137 84.59,30.3037 84.5,32.5C 82.9469,35.6644 81.9469,38.9978 81.5,42.5C 80.5041,42.4142 79.6708,42.7476 79,43.5C 78.502,46.4816 78.3354,49.4816 78.5,52.5C 77.3509,52.7911 76.6842,53.6244 76.5,55C 75.2666,58.8926 74.2666,62.726 73.5,66.5C 70.7968,71.3251 68.7968,76.3251 67.5,81.5C 67.5,54.1667 67.5,26.8333 67.5,-0.5 Z"/></g>
<g><path style="opacity:1" fill="#71230c" d="M 103.5,-0.5 C 107.167,-0.5 110.833,-0.5 114.5,-0.5C 115.002,7.33077 116.335,14.9974 118.5,22.5C 116.386,21.6398 115.22,19.9732 115,17.5C 114.162,16.001 113.329,15.6676 112.5,16.5C 110.416,12.6641 108.083,8.99741 105.5,5.5C 104.833,4.16667 104.167,2.83333 103.5,1.5C 103.5,0.833333 103.5,0.166667 103.5,-0.5 Z"/></g>
<g><path style="opacity:1" fill="#934b37" d="M 158.5,-0.5 C 200.5,-0.5 242.5,-0.5 284.5,-0.5C 284.5,0.166667 284.5,0.833333 284.5,1.5C 285.073,8.93139 286.073,16.2647 287.5,23.5C 287.198,26.0593 287.532,28.3926 288.5,30.5C 282.199,34.3172 275.532,37.6505 268.5,40.5C 254.908,38.4971 241.241,37.9971 227.5,39C 237.342,39.17 247.009,39.67 256.5,40.5C 244.148,40.3512 231.815,40.6846 219.5,41.5C 221.631,40.6862 223.964,40.1862 226.5,40C 224.167,39.8333 221.833,39.6667 219.5,39.5C 210.831,40.3949 202.165,40.8949 193.5,41C 183.833,29.8244 172.833,20.3244 160.5,12.5C 161.338,12.1583 161.672,11.4916 161.5,10.5C 161.105,6.6204 160.105,2.95373 158.5,-0.5 Z"/></g>
<g><path style="opacity:1" fill="#3e723b" d="M 138.5,-0.5 C 144.833,-0.5 151.167,-0.5 157.5,-0.5C 157.963,2.48237 158.296,5.48237 158.5,8.5C 157.167,8.5 155.833,8.5 154.5,8.5C 148.803,5.98901 143.47,2.98901 138.5,-0.5 Z"/></g>
<g><path style="opacity:0.999" fill="#45813c" d="M 290.5,-0.5 C 306.833,-0.5 323.167,-0.5 339.5,-0.5C 339.5,0.833333 339.5,2.16667 339.5,3.5C 324.83,3.66658 310.163,3.49991 295.5,3C 293.027,2.78048 291.36,1.61381 290.5,-0.5 Z"/></g>
<g><path style="opacity:1" fill="#3d4b29" d="M 95.5,-0.5 C 98.1667,-0.5 100.833,-0.5 103.5,-0.5C 103.5,0.166667 103.5,0.833333 103.5,1.5C 100.092,2.28734 97.0918,3.62067 94.5,5.5C 94.7148,7.17876 94.0481,8.17876 92.5,8.5C 92.1316,4.96485 93.1316,1.96485 95.5,-0.5 Z"/></g>
<g><path style="opacity:1" fill="#3c7038" d="M 284.5,-0.5 C 286.5,-0.5 288.5,-0.5 290.5,-0.5C 291.36,1.61381 293.027,2.78048 295.5,3C 310.163,3.49991 324.83,3.66658 339.5,3.5C 339.5,4.16667 339.5,4.83333 339.5,5.5C 322.28,5.92855 305.113,5.26189 288,3.5C 286.566,3.13821 285.399,2.47154 284.5,1.5C 284.5,0.833333 284.5,0.166667 284.5,-0.5 Z"/></g>
<g><path style="opacity:1" fill="#406832" d="M 103.5,1.5 C 104.167,2.83333 104.833,4.16667 105.5,5.5C 101.833,5.5 98.1667,5.5 94.5,5.5C 97.0918,3.62067 100.092,2.28734 103.5,1.5 Z"/></g>
<g><path style="opacity:1" fill="#4b2f14" d="M 134.5,-0.5 C 135.833,-0.5 137.167,-0.5 138.5,-0.5C 143.47,2.98901 148.803,5.98901 154.5,8.5C 156.438,10.1628 158.772,10.8294 161.5,10.5C 161.672,11.4916 161.338,12.1583 160.5,12.5C 159.508,12.3284 158.842,12.6618 158.5,13.5C 150.497,8.83198 142.497,4.16531 134.5,-0.5 Z"/></g>
<g><path style="opacity:1" fill="#4e5c31" d="M 157.5,-0.5 C 157.833,-0.5 158.167,-0.5 158.5,-0.5C 160.105,2.95373 161.105,6.6204 161.5,10.5C 158.772,10.8294 156.438,10.1628 154.5,8.5C 155.833,8.5 157.167,8.5 158.5,8.5C 158.296,5.48237 157.963,2.48237 157.5,-0.5 Z"/></g>
<g><path style="opacity:1" fill="#ebbb3e" d="M 114.5,-0.5 C 121.167,-0.5 127.833,-0.5 134.5,-0.5C 142.497,4.16531 150.497,8.83198 158.5,13.5C 171.809,21.3025 183.475,31.1358 193.5,43C 202.114,42.307 210.781,41.807 219.5,41.5C 231.815,40.6846 244.148,40.3512 256.5,40.5C 261.522,40.7823 266.522,40.949 271.5,41C 278.84,37.9968 285.84,34.4968 292.5,30.5C 299.799,27.5089 307.133,24.5089 314.5,21.5C 321.249,20.7245 327.583,18.5579 333.5,15C 335.473,14.5045 337.473,14.3379 339.5,14.5C 339.5,29.1667 339.5,43.8333 339.5,58.5C 332.617,66.3734 324.45,72.7067 315,77.5C 312.833,75.3333 310.667,73.1667 308.5,71C 307.668,70.3123 307.002,70.479 306.5,71.5C 313.098,76.773 317.765,83.4396 320.5,91.5C 320.335,95.1817 320.501,98.8484 321,102.5C 321.71,103.973 322.876,104.64 324.5,104.5C 325.451,105.919 325.784,107.585 325.5,109.5C 325.798,115.052 327.464,120.052 330.5,124.5C 332.521,133.02 334.854,141.354 337.5,149.5C 337.5,150.833 337.5,152.167 337.5,153.5C 337.927,156.01 338.593,158.343 339.5,160.5C 339.5,172.833 339.5,185.167 339.5,197.5C 276.5,197.5 213.5,197.5 150.5,197.5C 152.291,191.963 152.791,186.296 152,180.5C 145.066,169.635 140.066,157.968 137,145.5C 137.047,133.337 138.547,121.337 141.5,109.5C 143.101,106.45 144.101,103.116 144.5,99.5C 147.788,91.5778 151.121,83.5778 154.5,75.5C 157.101,71.2294 160.434,67.5628 164.5,64.5C 164.167,64.1667 163.833,63.8333 163.5,63.5C 160.748,66.2634 157.748,68.5967 154.5,70.5C 154.167,70.5 153.833,70.5 153.5,70.5C 145.77,62.7739 138.437,54.7739 131.5,46.5C 130.241,42.9754 128.241,39.9754 125.5,37.5C 123.438,32.3752 121.104,27.3752 118.5,22.5C 116.335,14.9974 115.002,7.33077 114.5,-0.5 Z"/></g>
<g><path style="opacity:1" fill="#4e3218" d="M 339.5,8.5 C 339.5,9.5 339.5,10.5 339.5,11.5C 335.789,12.3443 332.123,13.3443 328.5,14.5C 329.827,12.8184 331.494,11.4851 333.5,10.5C 335.297,9.27024 337.297,8.60357 339.5,8.5 Z"/></g>
<g><path style="opacity:1" fill="#e9b34f" d="M 339.5,11.5 C 339.5,12.5 339.5,13.5 339.5,14.5C 337.473,14.3379 335.473,14.5045 333.5,15C 327.583,18.5579 321.249,20.7245 314.5,21.5C 314.833,20.8333 315.167,20.1667 315.5,19.5C 320.207,18.6401 324.541,16.9734 328.5,14.5C 332.123,13.3443 335.789,12.3443 339.5,11.5 Z"/></g>
<g><path style="opacity:1" fill="#305833" d="M 284.5,1.5 C 285.399,2.47154 286.566,3.13821 288,3.5C 305.113,5.26189 322.28,5.92855 339.5,5.5C 339.5,6.5 339.5,7.5 339.5,8.5C 337.297,8.60357 335.297,9.27024 333.5,10.5C 329.266,10.807 325.266,10.1403 321.5,8.5C 319.223,9.47826 316.89,10.1449 314.5,10.5C 314.66,12.1992 314.494,13.8659 314,15.5C 312.951,14.4829 311.784,14.3162 310.5,15C 309,16.1667 307.5,17.3333 306,18.5C 302.942,15.6056 300.442,12.2723 298.5,8.5C 297.041,14.3524 297.375,20.0191 299.5,25.5C 296.479,28.4405 292.979,29.4405 289,28.5C 288.802,26.6183 288.302,24.9516 287.5,23.5C 286.073,16.2647 285.073,8.93139 284.5,1.5 Z"/></g>
<g><path style="opacity:1" fill="#345438" d="M 333.5,10.5 C 331.494,11.4851 329.827,12.8184 328.5,14.5C 323.841,15.3301 319.507,16.9967 315.5,19.5C 310.162,21.5028 304.829,23.5028 299.5,25.5C 297.375,20.0191 297.041,14.3524 298.5,8.5C 300.442,12.2723 302.942,15.6056 306,18.5C 307.5,17.3333 309,16.1667 310.5,15C 311.784,14.3162 312.951,14.4829 314,15.5C 314.494,13.8659 314.66,12.1992 314.5,10.5C 316.89,10.1449 319.223,9.47826 321.5,8.5C 325.266,10.1403 329.266,10.807 333.5,10.5 Z"/></g>
<g><path style="opacity:1" fill="#4f923f" d="M 94.5,5.5 C 98.1667,5.5 101.833,5.5 105.5,5.5C 106.662,9.90701 107.329,14.2403 107.5,18.5C 106.885,20.1161 105.885,21.4495 104.5,22.5C 105.167,23.1667 105.833,23.8333 106.5,24.5C 103.701,30.4565 102.201,36.7899 102,43.5C 101.367,48.0793 98.8675,49.9126 94.5,49C 95.6039,47.8687 95.2705,47.0354 93.5,46.5C 93.1667,47.1667 92.8333,47.8333 92.5,48.5C 90.5101,47.1268 88.3434,46.1268 86,45.5C 85.6577,43.1817 86.1577,41.015 87.5,39C 85.75,37.2458 85.0833,35.0792 85.5,32.5C 86.9288,29.6916 87.5955,26.6916 87.5,23.5C 87.8333,23.5 88.1667,23.5 88.5,23.5C 90.8303,18.8858 92.1636,13.8858 92.5,8.5C 94.0481,8.17876 94.7148,7.17876 94.5,5.5 Z"/></g>
<g><path style="opacity:1" fill="#616630" d="M 92.5,8.5 C 92.1636,13.8858 90.8303,18.8858 88.5,23.5C 88.5344,19.396 89.2011,15.396 90.5,11.5C 90.6399,9.97041 91.3065,8.97041 92.5,8.5 Z"/></g>
<g><path style="opacity:1" fill="#46230a" d="M 328.5,14.5 C 324.541,16.9734 320.207,18.6401 315.5,19.5C 319.507,16.9967 323.841,15.3301 328.5,14.5 Z"/></g>
<g><path style="opacity:1" fill="#601c0e" d="M 158.5,13.5 C 158.842,12.6618 159.508,12.3284 160.5,12.5C 172.833,20.3244 183.833,29.8244 193.5,41C 202.165,40.8949 210.831,40.3949 219.5,39.5C 221.833,39.6667 224.167,39.8333 226.5,40C 223.964,40.1862 221.631,40.6862 219.5,41.5C 210.781,41.807 202.114,42.307 193.5,43C 183.475,31.1358 171.809,21.3025 158.5,13.5 Z"/></g>
<g><path style="opacity:1" fill="#502112" d="M 118.5,22.5 C 121.104,27.3752 123.438,32.3752 125.5,37.5C 122.948,34.7601 120.615,31.7601 118.5,28.5C 118.25,26.326 117.25,24.6594 115.5,23.5C 113.887,21.5395 112.887,19.2061 112.5,16.5C 113.329,15.6676 114.162,16.001 115,17.5C 115.22,19.9732 116.386,21.6398 118.5,22.5 Z"/></g>
<g><path style="opacity:1" fill="#462b14" d="M 315.5,19.5 C 315.167,20.1667 314.833,20.8333 314.5,21.5C 307.133,24.5089 299.799,27.5089 292.5,30.5C 291.167,30.5 289.833,30.5 288.5,30.5C 287.532,28.3926 287.198,26.0593 287.5,23.5C 288.302,24.9516 288.802,26.6183 289,28.5C 292.979,29.4405 296.479,28.4405 299.5,25.5C 304.829,23.5028 310.162,21.5028 315.5,19.5 Z"/></g>
<g><path style="opacity:1" fill="#645a2b" d="M 87.5,23.5 C 87.5955,26.6916 86.9288,29.6916 85.5,32.5C 85.1667,32.5 84.8333,32.5 84.5,32.5C 84.59,30.3037 84.9233,28.137 85.5,26C 85.6842,24.6244 86.3509,23.7911 87.5,23.5 Z"/></g>
<g><path style="opacity:1" fill="#4d8a3e" d="M 105.5,5.5 C 108.083,8.99741 110.416,12.6641 112.5,16.5C 112.887,19.2061 113.887,21.5395 115.5,23.5C 115.5,24.1667 115.5,24.8333 115.5,25.5C 113.876,25.6399 112.71,24.9733 112,23.5C 112.155,25.8107 112.155,28.144 112,30.5C 110.426,31.9842 109.093,33.6508 108,35.5C 107.715,41.055 106.548,46.3883 104.5,51.5C 97.2089,53.0717 90.0422,52.7384 83,50.5C 82.6924,51.3081 82.1924,51.9747 81.5,52.5C 80.5344,50.604 80.2011,48.604 80.5,46.5C 81.2341,45.2921 81.5674,43.9587 81.5,42.5C 81.9469,38.9978 82.9469,35.6644 84.5,32.5C 84.8333,32.5 85.1667,32.5 85.5,32.5C 85.0833,35.0792 85.75,37.2458 87.5,39C 86.1577,41.015 85.6577,43.1817 86,45.5C 88.3434,46.1268 90.5101,47.1268 92.5,48.5C 92.8333,47.8333 93.1667,47.1667 93.5,46.5C 95.2705,47.0354 95.6039,47.8687 94.5,49C 98.8675,49.9126 101.367,48.0793 102,43.5C 102.201,36.7899 103.701,30.4565 106.5,24.5C 105.833,23.8333 105.167,23.1667 104.5,22.5C 105.885,21.4495 106.885,20.1161 107.5,18.5C 107.329,14.2403 106.662,9.90701 105.5,5.5 Z"/></g>
<g><path style="opacity:1" fill="#5d1709" d="M 288.5,30.5 C 289.833,30.5 291.167,30.5 292.5,30.5C 285.84,34.4968 278.84,37.9968 271.5,41C 266.522,40.949 261.522,40.7823 256.5,40.5C 247.009,39.67 237.342,39.17 227.5,39C 241.241,37.9971 254.908,38.4971 268.5,40.5C 275.532,37.6505 282.199,34.3172 288.5,30.5 Z"/></g>
<g><path style="opacity:1" fill="#315b36" d="M 118.5,28.5 C 120.615,31.7601 122.948,34.7601 125.5,37.5C 125.704,39.6854 126.37,41.6854 127.5,43.5C 127.5,45.1667 127.5,46.8333 127.5,48.5C 126.5,48.5 125.5,48.5 124.5,48.5C 127.296,55.6783 125.629,61.3449 119.5,65.5C 107.371,65.3452 95.0377,65.6785 82.5,66.5C 82.7692,64.5714 82.2692,62.9047 81,61.5C 78.1702,65.1384 77.3369,69.1384 78.5,73.5C 77.3112,74.4287 75.9778,74.762 74.5,74.5C 74.233,76.9653 73.5664,79.2986 72.5,81.5C 71.3065,81.0296 70.6399,80.0296 70.5,78.5C 72.0971,74.6424 73.0971,70.6424 73.5,66.5C 74.2666,62.726 75.2666,58.8926 76.5,55C 76.6842,53.6244 77.3509,52.7911 78.5,52.5C 78.6816,54.5914 78.3482,56.5914 77.5,58.5C 78.714,60.0691 80.3807,60.9024 82.5,61C 89.8333,61.6667 97.1667,61.6667 104.5,61C 111.083,60.248 115.416,56.748 117.5,50.5C 118.208,47.5422 119.208,44.7088 120.5,42C 119.295,39.7658 119.961,38.0992 122.5,37C 120.649,34.4711 119.315,31.6378 118.5,28.5 Z"/></g>
<g><path style="opacity:1" fill="#4f1f0d" d="M 125.5,37.5 C 128.241,39.9754 130.241,42.9754 131.5,46.5C 130.167,45.5 128.833,44.5 127.5,43.5C 126.37,41.6854 125.704,39.6854 125.5,37.5 Z"/></g>
<g><path style="opacity:1" fill="#6d522f" d="M 81.5,42.5 C 81.5674,43.9587 81.2341,45.2921 80.5,46.5C 79.5386,48.2646 79.2053,50.2646 79.5,52.5C 79.1667,52.5 78.8333,52.5 78.5,52.5C 78.3354,49.4816 78.502,46.4816 79,43.5C 79.6708,42.7476 80.5041,42.4142 81.5,42.5 Z"/></g>
<g><path style="opacity:1" fill="#447d3b" d="M 115.5,25.5 C 116.39,27.7819 116.556,30.1152 116,32.5C 115.667,32.1667 115.333,31.8333 115,31.5C 113.69,33.9515 112.524,36.4515 111.5,39C 112.059,39.7247 112.392,40.5581 112.5,41.5C 111.861,44.4748 111.361,47.4748 111,50.5C 108.493,52.1553 105.659,52.9886 102.5,53C 103.833,53.6667 103.833,54.3333 102.5,55C 94.8681,56.7701 87.2014,56.9368 79.5,55.5C 79.5,54.5 79.5,53.5 79.5,52.5C 79.2053,50.2646 79.5386,48.2646 80.5,46.5C 80.2011,48.604 80.5344,50.604 81.5,52.5C 82.1924,51.9747 82.6924,51.3081 83,50.5C 90.0422,52.7384 97.2089,53.0717 104.5,51.5C 106.548,46.3883 107.715,41.055 108,35.5C 109.093,33.6508 110.426,31.9842 112,30.5C 112.155,28.144 112.155,25.8107 112,23.5C 112.71,24.9733 113.876,25.6399 115.5,25.5 Z"/></g>
<g><path style="opacity:1" fill="#45280f" d="M 131.5,46.5 C 138.437,54.7739 145.77,62.7739 153.5,70.5C 150.43,69.5755 147.763,67.9089 145.5,65.5C 142.894,61.3908 139.727,57.7241 136,54.5C 134.644,51.6711 133.144,49.0045 131.5,46.5 Z"/></g>
<g><path style="opacity:1" fill="#3b6e39" d="M 115.5,23.5 C 117.25,24.6594 118.25,26.326 118.5,28.5C 119.315,31.6378 120.649,34.4711 122.5,37C 119.961,38.0992 119.295,39.7658 120.5,42C 119.208,44.7088 118.208,47.5422 117.5,50.5C 115.416,56.748 111.083,60.248 104.5,61C 97.1667,61.6667 89.8333,61.6667 82.5,61C 80.3807,60.9024 78.714,60.0691 77.5,58.5C 78.3482,56.5914 78.6816,54.5914 78.5,52.5C 78.8333,52.5 79.1667,52.5 79.5,52.5C 79.5,53.5 79.5,54.5 79.5,55.5C 87.2014,56.9368 94.8681,56.7701 102.5,55C 103.833,54.3333 103.833,53.6667 102.5,53C 105.659,52.9886 108.493,52.1553 111,50.5C 111.361,47.4748 111.861,44.4748 112.5,41.5C 112.392,40.5581 112.059,39.7247 111.5,39C 112.524,36.4515 113.69,33.9515 115,31.5C 115.333,31.8333 115.667,32.1667 116,32.5C 116.556,30.1152 116.39,27.7819 115.5,25.5C 115.5,24.8333 115.5,24.1667 115.5,23.5 Z"/></g>
<g><path style="opacity:1" fill="#2d5231" d="M 127.5,43.5 C 128.833,44.5 130.167,45.5 131.5,46.5C 133.144,49.0045 134.644,51.6711 136,54.5C 139.727,57.7241 142.894,61.3908 145.5,65.5C 147.763,67.9089 150.43,69.5755 153.5,70.5C 153.833,70.5 154.167,70.5 154.5,70.5C 154.5,72.1667 154.5,73.8333 154.5,75.5C 149.076,82.3894 145.742,90.3894 144.5,99.5C 144.167,99.5 143.833,99.5 143.5,99.5C 143.643,97.7376 143.309,96.0709 142.5,94.5C 145.143,91.734 146.143,88.4006 145.5,84.5C 144.167,84.5 142.833,84.5 141.5,84.5C 139.952,84.1788 139.285,83.1788 139.5,81.5C 134.843,80.2591 130.177,80.2591 125.5,81.5C 125.5,86.1667 125.5,90.8333 125.5,95.5C 126.675,95.281 127.675,95.6143 128.5,96.5C 127.752,98.3325 126.752,99.9991 125.5,101.5C 127.138,109.062 127.805,116.728 127.5,124.5C 125.952,124.821 125.285,125.821 125.5,127.5C 110.703,133.626 95.2027,136.626 79,136.5C 77.5272,136.097 76.1939,135.43 75,134.5C 72.6194,135.435 70.1194,135.768 67.5,135.5C 67.5,133.167 67.5,130.833 67.5,128.5C 72.3968,129.817 77.3968,130.817 82.5,131.5C 86.3136,130.407 90.1469,130.407 94,131.5C 102.231,131.202 109.565,128.535 116,123.5C 116.001,118.153 116.834,112.986 118.5,108C 117.336,102.478 116.502,96.6444 116,90.5C 114.688,88.0448 113.522,85.5448 112.5,83C 112.833,82.6667 113.167,82.3333 113.5,82C 112.5,81.6667 111.5,81.3333 110.5,81C 109.547,79.0448 108.213,77.3782 106.5,76C 98.3886,73.8325 90.5553,74.3325 83,77.5C 82.3333,76.8333 81.6667,76.1667 81,75.5C 80.654,77.2182 80.154,78.8849 79.5,80.5C 77.4912,82.0105 75.6579,83.6771 74,85.5C 73.79,83.9419 73.29,82.6085 72.5,81.5C 73.5664,79.2986 74.233,76.9653 74.5,74.5C 75.9778,74.762 77.3112,74.4287 78.5,73.5C 77.3369,69.1384 78.1702,65.1384 81,61.5C 82.2692,62.9047 82.7692,64.5714 82.5,66.5C 95.0377,65.6785 107.371,65.3452 119.5,65.5C 125.629,61.3449 127.296,55.6783 124.5,48.5C 125.5,48.5 126.5,48.5 127.5,48.5C 127.5,46.8333 127.5,45.1667 127.5,43.5 Z"/></g>
<g><path style="opacity:1" fill="#5b2210" d="M 154.5,75.5 C 154.5,73.8333 154.5,72.1667 154.5,70.5C 157.748,68.5967 160.748,66.2634 163.5,63.5C 163.833,63.8333 164.167,64.1667 164.5,64.5C 160.434,67.5628 157.101,71.2294 154.5,75.5 Z"/></g>
<g><path style="opacity:1" fill="#4c873e" d="M 339.5,61.5 C 339.5,71.1667 339.5,80.8333 339.5,90.5C 335.425,89.9784 331.758,89.9784 328.5,90.5C 327.462,87.6719 326.129,85.0052 324.5,82.5C 325.95,81.1502 326.617,79.4835 326.5,77.5C 325.325,77.719 324.325,77.3857 323.5,76.5C 324.826,75.3578 325.826,74.0245 326.5,72.5C 330.559,68.4349 334.893,64.7683 339.5,61.5 Z"/></g>
<g><path style="opacity:1" fill="#315b36" d="M 141.5,84.5 C 141.813,87.2469 141.48,89.9135 140.5,92.5C 139.376,87.2792 138.542,87.2792 138,92.5C 136.8,94.4116 135.133,95.7449 133,96.5C 132.273,104.073 132.773,111.573 134.5,119C 134.167,120.833 133.833,122.667 133.5,124.5C 131.806,122.446 130.639,120.112 130,117.5C 128.525,122.292 128.691,126.959 130.5,131.5C 130.5,134.5 130.5,137.5 130.5,140.5C 129.502,135.204 128.502,129.871 127.5,124.5C 127.805,116.728 127.138,109.062 125.5,101.5C 126.752,99.9991 127.752,98.3325 128.5,96.5C 127.675,95.6143 126.675,95.281 125.5,95.5C 125.5,90.8333 125.5,86.1667 125.5,81.5C 130.177,80.2591 134.843,80.2591 139.5,81.5C 139.285,83.1788 139.952,84.1788 141.5,84.5 Z"/></g>
<g><path style="opacity:1" fill="#234329" d="M 73.5,66.5 C 73.0971,70.6424 72.0971,74.6424 70.5,78.5C 70.6399,80.0296 71.3065,81.0296 72.5,81.5C 73.29,82.6085 73.79,83.9419 74,85.5C 75.6579,83.6771 77.4912,82.0105 79.5,80.5C 80.154,78.8849 80.654,77.2182 81,75.5C 81.6667,76.1667 82.3333,76.8333 83,77.5C 90.5553,74.3325 98.3886,73.8325 106.5,76C 108.213,77.3782 109.547,79.0448 110.5,81C 111.5,81.3333 112.5,81.6667 113.5,82C 113.167,82.3333 112.833,82.6667 112.5,83C 113.522,85.5448 114.688,88.0448 116,90.5C 116.502,96.6444 117.336,102.478 118.5,108C 116.834,112.986 116.001,118.153 116,123.5C 109.565,128.535 102.231,131.202 94,131.5C 90.1469,130.407 86.3136,130.407 82.5,131.5C 77.3968,130.817 72.3968,129.817 67.5,128.5C 67.5,112.833 67.5,97.1667 67.5,81.5C 68.7968,76.3251 70.7968,71.3251 73.5,66.5 Z"/></g>
<g><path style="opacity:1" fill="#3f6f3b" d="M 326.5,72.5 C 325.826,74.0245 324.826,75.3578 323.5,76.5C 324.325,77.3857 325.325,77.719 326.5,77.5C 326.617,79.4835 325.95,81.1502 324.5,82.5C 326.129,85.0052 327.462,87.6719 328.5,90.5C 331.758,89.9784 335.425,89.9784 339.5,90.5C 339.5,94.5 339.5,98.5 339.5,102.5C 336.091,102.751 332.758,102.417 329.5,101.5C 328.679,98.5535 328.179,95.5535 328,92.5C 327.218,95.3102 326.384,97.9768 325.5,100.5C 322.78,92.7254 319.78,85.0588 316.5,77.5C 320.074,76.3795 323.408,74.7128 326.5,72.5 Z"/></g>
<g><path style="opacity:1" fill="#621f0a" d="M 177.5,104.5 C 177.435,104.062 177.601,103.728 178,103.5C 182.561,109.758 187.561,110.091 193,104.5C 195.935,97.6408 194.268,92.3074 188,88.5C 186.97,88.8361 186.47,89.5028 186.5,90.5C 182.544,88.478 179.877,89.478 178.5,93.5C 177.778,93.9175 177.278,94.5842 177,95.5C 176.536,94.9056 176.369,94.2389 176.5,93.5C 180.473,85.955 185.973,84.6217 193,89.5C 198.335,97.8282 196.835,104.662 188.5,110C 183.22,111.36 179.554,109.527 177.5,104.5 Z"/></g>
<g><path style="opacity:1" fill="#366237" d="M 141.5,84.5 C 142.833,84.5 144.167,84.5 145.5,84.5C 146.143,88.4006 145.143,91.734 142.5,94.5C 143.309,96.0709 143.643,97.7376 143.5,99.5C 142.213,102.698 141.547,106.031 141.5,109.5C 140.883,109.611 140.383,109.944 140,110.5C 138.506,115.224 137.339,119.891 136.5,124.5C 135.691,126.028 135.024,127.694 134.5,129.5C 133.883,129.389 133.383,129.056 133,128.5C 132.148,129.571 131.315,130.571 130.5,131.5C 128.691,126.959 128.525,122.292 130,117.5C 130.639,120.112 131.806,122.446 133.5,124.5C 133.833,122.667 134.167,120.833 134.5,119C 132.773,111.573 132.273,104.073 133,96.5C 135.133,95.7449 136.8,94.4116 138,92.5C 138.542,87.2792 139.376,87.2792 140.5,92.5C 141.48,89.9135 141.813,87.2469 141.5,84.5 Z"/></g>
<g><path style="opacity:1" fill="#47230c" d="M 154.5,75.5 C 151.121,83.5778 147.788,91.5778 144.5,99.5C 145.742,90.3894 149.076,82.3894 154.5,75.5 Z"/></g>
<g><path style="opacity:1" fill="#45260f" d="M 339.5,58.5 C 339.5,59.5 339.5,60.5 339.5,61.5C 334.893,64.7683 330.559,68.4349 326.5,72.5C 323.408,74.7128 320.074,76.3795 316.5,77.5C 319.78,85.0588 322.78,92.7254 325.5,100.5C 328.05,111.047 331.05,121.38 334.5,131.5C 335.93,137.416 336.93,143.416 337.5,149.5C 334.854,141.354 332.521,133.02 330.5,124.5C 329.405,119.216 327.739,114.216 325.5,109.5C 325.784,107.585 325.451,105.919 324.5,104.5C 323.543,99.9679 322.21,95.6346 320.5,91.5C 317.765,83.4396 313.098,76.773 306.5,71.5C 307.002,70.479 307.668,70.3123 308.5,71C 310.667,73.1667 312.833,75.3333 315,77.5C 324.45,72.7067 332.617,66.3734 339.5,58.5 Z"/></g>
<g><path style="opacity:1" fill="#f3d0bd" d="M 186.5,90.5 C 188.742,96.4235 186.742,98.9235 180.5,98C 178.963,96.8904 178.297,95.3904 178.5,93.5C 179.877,89.478 182.544,88.478 186.5,90.5 Z"/></g>
<g><path style="opacity:1" fill="#7a2b11" d="M 177.5,104.5 C 175.73,100.906 175.397,97.2396 176.5,93.5C 176.369,94.2389 176.536,94.9056 177,95.5C 177.278,94.5842 177.778,93.9175 178.5,93.5C 178.297,95.3904 178.963,96.8904 180.5,98C 186.742,98.9235 188.742,96.4235 186.5,90.5C 186.47,89.5028 186.97,88.8361 188,88.5C 194.268,92.3074 195.935,97.6408 193,104.5C 187.561,110.091 182.561,109.758 178,103.5C 177.601,103.728 177.435,104.062 177.5,104.5 Z"/></g>
<g><path style="opacity:1" fill="#1d3621" d="M 94.5,84.5 C 98.5051,84.5565 102.005,85.8899 105,88.5C 105.417,92.9251 106.251,97.2584 107.5,101.5C 107.291,102.086 106.957,102.586 106.5,103C 111.588,110.157 111.588,117.157 106.5,124C 104.302,124.373 102.135,124.873 100,125.5C 94.5226,125.036 89.1892,124.036 84,122.5C 83.6667,122.833 83.3333,123.167 83,123.5C 80.2151,119.257 78.5484,114.591 78,109.5C 75.957,110.579 74.6237,112.246 74,114.5C 73.1477,111.967 73.8144,109.967 76,108.5C 76.266,104.019 77.0993,99.6859 78.5,95.5C 81.3613,95.4874 82.3613,94.3207 81.5,92C 82.6765,90.3257 84.0098,88.8257 85.5,87.5C 88.6417,87.4552 91.6417,86.4552 94.5,84.5 Z"/></g>
<g><path style="opacity:1" fill="#edae57" d="M 320.5,91.5 C 322.21,95.6346 323.543,99.9679 324.5,104.5C 322.876,104.64 321.71,103.973 321,102.5C 320.501,98.8484 320.335,95.1817 320.5,91.5 Z"/></g>
<g><path style="opacity:1" fill="#66210a" d="M 268.5,86.5 C 281.29,87.0581 285.29,93.3914 280.5,105.5C 280.475,101.738 280.308,97.7382 280,93.5C 279.363,91.6969 278.197,90.3636 276.5,89.5C 275.081,90.0047 274.415,91.0047 274.5,92.5C 271.364,88.6137 268.364,88.6137 265.5,92.5C 264.031,95.1024 264.698,97.269 267.5,99C 270.813,99.8642 273.146,98.6976 274.5,95.5C 275.043,95.56 275.376,95.8933 275.5,96.5C 273.851,99.7388 271.184,101.239 267.5,101C 264.659,104.159 265.326,106.492 269.5,108C 272.399,108.186 275.066,108.352 277.5,108.5C 275.412,109.939 273.079,110.606 270.5,110.5C 262.92,106.875 260.42,100.875 263,92.5C 265.04,90.6298 266.873,88.6298 268.5,86.5 Z"/></g>
<g><path style="opacity:1" fill="#e6b79d" d="M 274.5,92.5 C 274.5,93.5 274.5,94.5 274.5,95.5C 273.146,98.6976 270.813,99.8642 267.5,99C 264.698,97.269 264.031,95.1024 265.5,92.5C 268.364,88.6137 271.364,88.6137 274.5,92.5 Z"/></g>
<g><path style="opacity:1" fill="#f9e9dc" d="M 265.5,92.5 C 268.324,90.8322 270.657,91.3322 272.5,94C 272,95.8333 270.833,97 269,97.5C 266.824,96.4843 265.657,94.8176 265.5,92.5 Z"/></g>
<g><path style="opacity:1" fill="#7c280f" d="M 280.5,105.5 C 279.833,106.833 278.833,107.833 277.5,108.5C 275.066,108.352 272.399,108.186 269.5,108C 265.326,106.492 264.659,104.159 267.5,101C 271.184,101.239 273.851,99.7388 275.5,96.5C 275.376,95.8933 275.043,95.56 274.5,95.5C 274.5,94.5 274.5,93.5 274.5,92.5C 274.415,91.0047 275.081,90.0047 276.5,89.5C 278.197,90.3636 279.363,91.6969 280,93.5C 280.308,97.7382 280.475,101.738 280.5,105.5 Z"/></g>
<g><path style="opacity:1" fill="#432408" d="M 143.5,99.5 C 143.833,99.5 144.167,99.5 144.5,99.5C 144.101,103.116 143.101,106.45 141.5,109.5C 141.547,106.031 142.213,102.698 143.5,99.5 Z"/></g>
<g><path style="opacity:1" fill="#e7b04a" d="M 268.5,86.5 C 266.873,88.6298 265.04,90.6298 263,92.5C 260.42,100.875 262.92,106.875 270.5,110.5C 266.833,110.5 263.167,110.5 259.5,110.5C 259.739,104.264 260.572,97.9306 262,91.5C 263.191,88.4659 265.358,86.7993 268.5,86.5 Z"/></g>
<g><path style="opacity:1" fill="#d39d5c" d="M 325.5,109.5 C 327.739,114.216 329.405,119.216 330.5,124.5C 327.464,120.052 325.798,115.052 325.5,109.5 Z"/></g>
<g><path style="opacity:1" fill="#6a220e" d="M 224.5,114.5 C 229.196,116.073 229.529,118.24 225.5,121C 222.084,121.893 218.917,121.393 216,119.5C 215.517,118.552 215.351,117.552 215.5,116.5C 215.611,115.883 215.944,115.383 216.5,115C 219.146,114.503 221.813,114.336 224.5,114.5 Z"/></g>
<g><path style="opacity:1" fill="#315b37" d="M 339.5,102.5 C 339.5,111.5 339.5,120.5 339.5,129.5C 336.812,128.976 335.312,127.309 335,124.5C 334.503,126.81 334.337,129.143 334.5,131.5C 331.05,121.38 328.05,111.047 325.5,100.5C 326.384,97.9768 327.218,95.3102 328,92.5C 328.179,95.5535 328.679,98.5535 329.5,101.5C 332.758,102.417 336.091,102.751 339.5,102.5 Z"/></g>
<g><path style="opacity:1" fill="#b75e10" d="M 168.5,141.5 C 169.376,138.201 169.543,134.868 169,131.5C 167.951,129.893 166.451,129.227 164.5,129.5C 164.579,128.07 164.246,126.736 163.5,125.5C 158.208,124.505 152.875,124.172 147.5,124.5C 155.983,119.572 163.483,120.905 170,128.5C 172.424,133.345 171.924,137.679 168.5,141.5 Z"/></g>
<g><path style="opacity:1" fill="#eab550" d="M 224.5,114.5 C 226.861,114.674 229.194,115.007 231.5,115.5C 231.682,117.591 231.348,119.591 230.5,121.5C 227.406,122.241 224.406,123.241 221.5,124.5C 218.762,123.091 216.095,121.591 213.5,120C 214.085,118.698 214.751,117.531 215.5,116.5C 215.351,117.552 215.517,118.552 216,119.5C 218.917,121.393 222.084,121.893 225.5,121C 229.529,118.24 229.196,116.073 224.5,114.5 Z"/></g>
<g><path style="opacity:1" fill="#ca5520" d="M 285.5,124.5 C 286.5,124.5 287.5,124.5 288.5,124.5C 294.206,124.171 299.872,124.505 305.5,125.5C 305.929,128.147 307.262,130.147 309.5,131.5C 311.714,138.076 310.048,143.242 304.5,147C 301.782,147.653 299.116,148.487 296.5,149.5C 293.141,147.32 289.474,145.987 285.5,145.5C 281.284,141.817 279.784,137.15 281,131.5C 282.723,129.283 284.223,126.95 285.5,124.5 Z"/></g>
<g><path style="opacity:1" fill="#3f6c3b" d="M 339.5,129.5 C 339.5,137.5 339.5,145.5 339.5,153.5C 338.833,153.5 338.167,153.5 337.5,153.5C 337.5,152.167 337.5,150.833 337.5,149.5C 336.93,143.416 335.93,137.416 334.5,131.5C 334.337,129.143 334.503,126.81 335,124.5C 335.312,127.309 336.812,128.976 339.5,129.5 Z"/></g>
<g><path style="opacity:1" fill="#315c30" d="M 125.5,127.5 C 125.5,128.833 125.5,130.167 125.5,131.5C 119.829,132.585 114.496,134.585 109.5,137.5C 100.666,138.192 91.8331,138.192 83,137.5C 78.1827,140.086 73.0161,142.086 67.5,143.5C 67.5,140.833 67.5,138.167 67.5,135.5C 70.1194,135.768 72.6194,135.435 75,134.5C 76.1939,135.43 77.5272,136.097 79,136.5C 95.2027,136.626 110.703,133.626 125.5,127.5 Z"/></g>
<g><path style="opacity:1" fill="#c8551e" d="M 147.5,124.5 C 152.875,124.172 158.208,124.505 163.5,125.5C 164.246,126.736 164.579,128.07 164.5,129.5C 166.451,129.227 167.951,129.893 169,131.5C 169.543,134.868 169.376,138.201 168.5,141.5C 163.695,146.709 157.695,148.542 150.5,147C 142.509,143.181 139.842,137.014 142.5,128.5C 143.774,126.549 145.44,125.215 147.5,124.5 Z"/></g>
<g><path style="opacity:1" fill="#bc5c14" d="M 313.5,140.5 C 311.261,145.234 307.594,148.401 302.5,150C 295.798,151.734 290.131,150.234 285.5,145.5C 289.474,145.987 293.141,147.32 296.5,149.5C 299.116,148.487 301.782,147.653 304.5,147C 310.048,143.242 311.714,138.076 309.5,131.5C 307.262,130.147 305.929,128.147 305.5,125.5C 299.872,124.505 294.206,124.171 288.5,124.5C 298.939,119.005 307.439,121.339 314,131.5C 314.736,134.592 314.569,137.592 313.5,140.5 Z"/></g>
<g><path style="opacity:1" fill="#4f5233" d="M 136.5,124.5 C 135.71,131.471 135.377,138.471 135.5,145.5C 134.512,140.36 134.179,135.026 134.5,129.5C 135.024,127.694 135.691,126.028 136.5,124.5 Z"/></g>
<g><path style="opacity:1" fill="#532811" d="M 141.5,109.5 C 138.547,121.337 137.047,133.337 137,145.5C 140.066,157.968 145.066,169.635 152,180.5C 152.791,186.296 152.291,191.963 150.5,197.5C 150.167,197.5 149.833,197.5 149.5,197.5C 150.083,193.663 150.75,189.83 151.5,186C 151.486,184.615 151.152,183.449 150.5,182.5C 149.674,179.515 148.341,176.849 146.5,174.5C 141.458,165.377 137.791,155.71 135.5,145.5C 135.377,138.471 135.71,131.471 136.5,124.5C 137.339,119.891 138.506,115.224 140,110.5C 140.383,109.944 140.883,109.611 141.5,109.5 Z"/></g>
<g><path style="opacity:1" fill="#f5b64a" d="M 285.5,124.5 C 284.223,126.95 282.723,129.283 281,131.5C 279.784,137.15 281.284,141.817 285.5,145.5C 290.131,150.234 295.798,151.734 302.5,150C 307.594,148.401 311.261,145.234 313.5,140.5C 312.833,143.5 312.167,146.5 311.5,149.5C 304.32,151.462 296.986,151.962 289.5,151C 280.36,146.607 277.193,139.441 280,129.5C 281.438,128.1 282.271,126.433 282.5,124.5C 283.5,124.5 284.5,124.5 285.5,124.5 Z"/></g>
<g><path style="opacity:1" fill="#457e3b" d="M 134.5,129.5 C 134.179,135.026 134.512,140.36 135.5,145.5C 137.791,155.71 141.458,165.377 146.5,174.5C 146.235,177.697 144.901,180.364 142.5,182.5C 141.914,182.291 141.414,181.957 141,181.5C 140.749,183.433 140.249,185.266 139.5,187C 122.223,189.837 104.889,190.504 87.5,189C 84.9886,187.2 82.3219,186.7 79.5,187.5C 72.0442,179.397 68.3775,169.73 68.5,158.5C 70.0334,154.699 72.3668,151.532 75.5,149C 90.4491,146.342 105.449,144.008 120.5,142C 122.339,140.868 124.339,140.035 126.5,139.5C 127.308,137.577 127.808,135.577 128,133.5C 128.16,137.287 128.826,140.954 130,144.5C 130.49,143.207 130.657,141.873 130.5,140.5C 130.5,137.5 130.5,134.5 130.5,131.5C 131.315,130.571 132.148,129.571 133,128.5C 133.383,129.056 133.883,129.389 134.5,129.5 Z"/></g>
<g><path style="opacity:1" fill="#4e903f" d="M 125.5,147.5 C 128.763,148.149 130.763,150.149 131.5,153.5C 132.167,151.5 132.833,149.5 133.5,147.5C 134.434,150.267 135.1,153.1 135.5,156C 135.215,157.89 134.215,159.223 132.5,160C 133.747,161.458 133.747,162.958 132.5,164.5C 133.721,168.339 134.388,168.339 134.5,164.5C 136.39,164.703 137.89,164.037 139,162.5C 139.931,164.459 140.764,166.459 141.5,168.5C 140.253,170.323 139.586,172.323 139.5,174.5C 138.732,173.737 138.232,172.737 138,171.5C 134.8,173.765 131.467,175.765 128,177.5C 116.767,176.425 105.433,176.425 94,177.5C 91.436,175.923 88.6026,174.923 85.5,174.5C 83.341,170.701 81.6743,166.701 80.5,162.5C 81.5642,160.041 82.8975,157.708 84.5,155.5C 96.8834,154.325 109.217,152.491 121.5,150C 123.437,149.878 124.77,149.045 125.5,147.5 Z"/></g>
<g><path style="opacity:0.949" fill="#5f2f0c" d="M 337.5,153.5 C 338.167,153.5 338.833,153.5 339.5,153.5C 339.5,155.833 339.5,158.167 339.5,160.5C 338.593,158.343 337.927,156.01 337.5,153.5 Z"/></g>
<g><path style="opacity:1" fill="#7e2b09" d="M 220.5,136.5 C 226.176,136.334 231.843,136.501 237.5,137C 243.507,139.673 246.174,144.34 245.5,151C 246.693,158.472 243.693,163.139 236.5,165C 225.041,167.518 216.541,163.684 211,153.5C 210.333,150.167 210.333,146.833 211,143.5C 213.529,140.115 216.696,137.782 220.5,136.5 Z"/></g>
<g><path style="opacity:1" fill="#ee7f61" d="M 222.5,138.5 C 227.179,138.334 231.845,138.501 236.5,139C 241.978,141.053 244.312,145.053 243.5,151C 244.453,157.536 241.786,161.536 235.5,163C 225.645,165.173 218.145,162.006 213,153.5C 211.112,145.233 214.278,140.233 222.5,138.5 Z"/></g>
<g><path style="opacity:1" fill="#49863d" d="M 125.5,147.5 C 124.77,149.045 123.437,149.878 121.5,150C 109.217,152.491 96.8834,154.325 84.5,155.5C 82.8975,157.708 81.5642,160.041 80.5,162.5C 81.6743,166.701 83.341,170.701 85.5,174.5C 88.6026,174.923 91.436,175.923 94,177.5C 105.433,176.425 116.767,176.425 128,177.5C 131.467,175.765 134.8,173.765 138,171.5C 138.232,172.737 138.732,173.737 139.5,174.5C 140.682,176.003 141.182,177.67 141,179.5C 140.261,178.426 139.261,177.759 138,177.5C 134.695,178.144 131.862,179.644 129.5,182C 117.167,182.667 104.833,182.667 92.5,182C 87.1188,179.617 82.6188,176.117 79,171.5C 78.159,168.49 77.3257,165.49 76.5,162.5C 77.5715,159.727 78.5715,156.893 79.5,154C 86.8201,152.024 94.4868,150.191 102.5,148.5C 104.106,149.077 105.772,149.41 107.5,149.5C 113.476,148.551 119.476,147.884 125.5,147.5 Z"/></g>
<g><path style="opacity:1" fill="#396639" d="M 150.5,182.5 C 151.152,183.449 151.486,184.615 151.5,186C 150.75,189.83 150.083,193.663 149.5,197.5C 124.833,197.5 100.167,197.5 75.5,197.5C 94.3727,196.983 113.373,195.983 132.5,194.5C 135.371,194.618 138.038,195.284 140.5,196.5C 141.321,193.553 141.821,190.553 142,187.5C 143.324,186.12 144.657,185.786 146,186.5C 147.188,185.437 147.688,184.103 147.5,182.5C 148.5,182.5 149.5,182.5 150.5,182.5 Z"/></g>
<g><path style="opacity:1" fill="#3b7038" d="M 127.5,124.5 C 128.502,129.871 129.502,135.204 130.5,140.5C 130.657,141.873 130.49,143.207 130,144.5C 128.826,140.954 128.16,137.287 128,133.5C 127.808,135.577 127.308,137.577 126.5,139.5C 124.339,140.035 122.339,140.868 120.5,142C 105.449,144.008 90.4491,146.342 75.5,149C 72.3668,151.532 70.0334,154.699 68.5,158.5C 68.3775,169.73 72.0442,179.397 79.5,187.5C 82.3219,186.7 84.9886,187.2 87.5,189C 104.889,190.504 122.223,189.837 139.5,187C 140.249,185.266 140.749,183.433 141,181.5C 141.414,181.957 141.914,182.291 142.5,182.5C 144.901,180.364 146.235,177.697 146.5,174.5C 148.341,176.849 149.674,179.515 150.5,182.5C 149.5,182.5 148.5,182.5 147.5,182.5C 147.688,184.103 147.188,185.437 146,186.5C 144.657,185.786 143.324,186.12 142,187.5C 141.821,190.553 141.321,193.553 140.5,196.5C 138.038,195.284 135.371,194.618 132.5,194.5C 113.373,195.983 94.3727,196.983 75.5,197.5C 72.8333,197.5 70.1667,197.5 67.5,197.5C 67.5,179.5 67.5,161.5 67.5,143.5C 73.0161,142.086 78.1827,140.086 83,137.5C 91.8331,138.192 100.666,138.192 109.5,137.5C 114.496,134.585 119.829,132.585 125.5,131.5C 125.5,130.167 125.5,128.833 125.5,127.5C 125.285,125.821 125.952,124.821 127.5,124.5 Z"/></g>
</svg>
