<?xml version="1.0" encoding="UTF-8"?>
<!DOCTYPE svg PUBLIC "-//W3C//DTD SVG 1.1//EN" "http://www.w3.org/Graphics/SVG/1.1/DTD/svg11.dtd">
<svg xmlns="http://www.w3.org/2000/svg" version="1.1" width="400px" height="198px" style="shape-rendering:geometricPrecision; text-rendering:geometricPrecision; image-rendering:optimizeQuality; fill-rule:evenodd; clip-rule:evenodd" xmlns:xlink="http://www.w3.org/1999/xlink">
<g><path style="opacity:0.875" fill="#ce6f75" d="M 245.5,21.5 C 245.5,21.8333 245.5,22.1667 245.5,22.5C 244.067,20.4809 242.733,18.3143 241.5,16C 238.854,15.5026 236.187,15.3359 233.5,15.5C 232.833,15.5 232.167,15.5 231.5,15.5C 231.709,14.0783 232.209,12.745 233,11.5C 235.372,9.29681 237.539,6.96348 239.5,4.5C 240.009,3.6587 239.343,3.1587 237.5,3C 234.5,2.33333 231.5,2.33333 228.5,3C 226.294,5.0367 224.294,7.20337 222.5,9.5C 223.535,5.59666 225.868,2.76333 229.5,1C 234.868,0.259647 239.868,1.25965 244.5,4C 240.053,5.94559 236.72,9.11226 234.5,13.5C 240.735,12.0126 244.402,14.6793 245.5,21.5 Z"/></g>
<g><path style="opacity:0.208" fill="#825569" d="M 221.5,6.5 C 221.5,4.83333 221.5,3.16667 221.5,1.5C 222.302,0.115299 222.969,0.281966 223.5,2C 223.101,3.72755 222.434,5.22755 221.5,6.5 Z"/></g>
<g><path style="opacity:1" fill="#e9444c" d="M 239.5,4.5 C 233.305,6.69288 228.639,10.6929 225.5,16.5C 224.065,15.0867 223.065,13.42 222.5,11.5C 222.5,10.8333 222.5,10.1667 222.5,9.5C 224.294,7.20337 226.294,5.0367 228.5,3C 231.5,2.33333 234.5,2.33333 237.5,3C 239.343,3.1587 240.009,3.6587 239.5,4.5 Z"/></g>
<g><path style="opacity:0.953" fill="#cc545e" d="M 221.5,1.5 C 221.5,3.16667 221.5,4.83333 221.5,6.5C 221.263,7.79105 221.596,8.79105 222.5,9.5C 222.5,10.1667 222.5,10.8333 222.5,11.5C 221.828,12.2674 220.995,12.9341 220,13.5C 219.809,11.2922 219.309,9.29221 218.5,7.5C 218.992,5.18147 219.992,3.18147 221.5,1.5 Z"/></g>
<g><path style="opacity:0.808" fill="#a8723d" d="M 177.5,9.5 C 174.833,9.16667 172.167,8.83333 169.5,8.5C 169.5,9.83333 169.5,11.1667 169.5,12.5C 168.833,12.5 168.5,12.1667 168.5,11.5C 167.14,9.19846 167.807,7.53179 170.5,6.5C 173.127,7.05785 175.46,8.05785 177.5,9.5 Z"/></g>
<g><path style="opacity:1" fill="#e07632" d="M 177.5,9.5 C 177.369,10.3764 177.702,11.0431 178.5,11.5C 183.729,14.2744 188.729,17.2744 193.5,20.5C 193.167,20.5 192.833,20.5 192.5,20.5C 190.249,19.3052 187.915,18.3052 185.5,17.5C 182.317,14.7396 178.651,12.7396 174.5,11.5C 172.437,10.2892 171.437,11.1226 171.5,14C 171.696,15.8784 172.029,17.7117 172.5,19.5C 172.423,27.1956 175.756,32.6956 182.5,36C 184.134,36.4935 185.801,36.6602 187.5,36.5C 187.5,35.5 187.5,34.5 187.5,33.5C 188.791,33.2627 189.791,33.596 190.5,34.5C 189.662,34.8417 189.328,35.5084 189.5,36.5C 187.735,37.4614 185.735,37.7947 183.5,37.5C 180.447,37.4279 177.781,36.4279 175.5,34.5C 174.292,31.0806 172.792,27.7473 171,24.5C 169.985,20.5598 169.485,16.5598 169.5,12.5C 169.5,11.1667 169.5,9.83333 169.5,8.5C 172.167,8.83333 174.833,9.16667 177.5,9.5 Z"/></g>
<g><path style="opacity:1" fill="#ee6955" d="M 174.5,11.5 C 178.651,12.7396 182.317,14.7396 185.5,17.5C 182.53,17.7458 181.197,19.4124 181.5,22.5C 180.504,22.5858 179.671,22.2524 179,21.5C 178.505,19.5273 178.338,17.5273 178.5,15.5C 177.5,15.5 176.5,15.5 175.5,15.5C 174.766,14.2921 174.433,12.9587 174.5,11.5 Z"/></g>
<g><path style="opacity:1" fill="#f6826f" d="M 174.5,11.5 C 174.433,12.9587 174.766,14.2921 175.5,15.5C 176.984,19.0997 178.318,22.7664 179.5,26.5C 177.395,23.973 175.061,21.6397 172.5,19.5C 172.029,17.7117 171.696,15.8784 171.5,14C 171.437,11.1226 172.437,10.2892 174.5,11.5 Z"/></g>
<g><path style="opacity:1" fill="#cb2830" d="M 218.5,7.5 C 219.309,9.29221 219.809,11.2922 220,13.5C 220.995,12.9341 221.828,12.2674 222.5,11.5C 223.065,13.42 224.065,15.0867 225.5,16.5C 223.706,20.1854 222.206,20.1854 221,16.5C 219.67,17.5822 218.17,18.2488 216.5,18.5C 216.87,14.7674 217.537,11.1007 218.5,7.5 Z"/></g>
<g><path style="opacity:1" fill="#c8474d" d="M 218.5,7.5 C 217.537,11.1007 216.87,14.7674 216.5,18.5C 214.805,19.0114 213.139,19.6781 211.5,20.5C 211.624,21.1067 211.957,21.44 212.5,21.5C 212.5,21.8333 212.5,22.1667 212.5,22.5C 210.824,23.1834 210.157,24.5168 210.5,26.5C 208.833,26.5 207.167,26.5 205.5,26.5C 205.5,26.1667 205.5,25.8333 205.5,25.5C 207.221,21.7274 209.221,18.0608 211.5,14.5C 212.651,13.269 213.817,13.269 215,14.5C 215.898,11.9309 217.065,9.59761 218.5,7.5 Z"/></g>
<g><path style="opacity:1" fill="#cf2e3a" d="M 231.5,15.5 C 232.167,15.5 232.833,15.5 233.5,15.5C 235.743,16.0838 237.743,17.2505 239.5,19C 236.711,19.2414 234.044,19.908 231.5,21C 233.708,21.1909 235.708,21.6909 237.5,22.5C 234.813,22.6641 232.146,22.4974 229.5,22C 229.833,21.6667 230.167,21.3333 230.5,21C 227.868,18.7348 228.201,16.9015 231.5,15.5 Z"/></g>
<g><path style="opacity:1" fill="#92161a" d="M 239.5,4.5 C 237.539,6.96348 235.372,9.29681 233,11.5C 232.209,12.745 231.709,14.0783 231.5,15.5C 228.201,16.9015 227.868,18.7348 230.5,21C 230.167,21.3333 229.833,21.6667 229.5,22C 232.146,22.4974 234.813,22.6641 237.5,22.5C 238.791,22.2627 239.791,22.596 240.5,23.5C 236.629,23.185 232.962,23.5184 229.5,24.5C 224.213,21.8024 218.546,20.8024 212.5,21.5C 211.957,21.44 211.624,21.1067 211.5,20.5C 213.139,19.6781 214.805,19.0114 216.5,18.5C 218.17,18.2488 219.67,17.5822 221,16.5C 222.206,20.1854 223.706,20.1854 225.5,16.5C 228.639,10.6929 233.305,6.69288 239.5,4.5 Z"/></g>
<g><path style="opacity:0.745" fill="#974420" d="M 168.5,11.5 C 168.5,12.1667 168.833,12.5 169.5,12.5C 169.485,16.5598 169.985,20.5598 171,24.5C 172.792,27.7473 174.292,31.0806 175.5,34.5C 172.706,32.1807 170.872,29.1807 170,25.5C 169.074,21.348 168.24,17.1814 167.5,13C 167.57,12.2352 167.903,11.7352 168.5,11.5 Z"/></g>
<g><path style="opacity:1" fill="#dfac5b" d="M 177.5,9.5 C 187.62,13.0553 196.62,18.3887 204.5,25.5C 203.833,25.5 203.167,25.5 202.5,25.5C 201.833,25.5 201.167,25.5 200.5,25.5C 197.888,24.2213 195.555,22.5547 193.5,20.5C 188.729,17.2744 183.729,14.2744 178.5,11.5C 177.702,11.0431 177.369,10.3764 177.5,9.5 Z"/></g>
<g><path style="opacity:1" fill="#e9474e" d="M 233.5,15.5 C 236.187,15.3359 238.854,15.5026 241.5,16C 242.733,18.3143 244.067,20.4809 245.5,22.5C 245.833,23.8333 246.167,25.1667 246.5,26.5C 245.078,25.075 243.411,24.075 241.5,23.5C 241.167,23.5 240.833,23.5 240.5,23.5C 239.791,22.596 238.791,22.2627 237.5,22.5C 235.708,21.6909 233.708,21.1909 231.5,21C 234.044,19.908 236.711,19.2414 239.5,19C 237.743,17.2505 235.743,16.0838 233.5,15.5 Z"/></g>
<g><path style="opacity:1" fill="#e2594a" d="M 185.5,17.5 C 187.915,18.3052 190.249,19.3052 192.5,20.5C 193.5,21.8333 194.5,23.1667 195.5,24.5C 191.985,23.0807 188.319,22.414 184.5,22.5C 184.5,23.8333 184.5,25.1667 184.5,26.5C 183.512,25.205 182.512,23.8717 181.5,22.5C 181.197,19.4124 182.53,17.7458 185.5,17.5 Z"/></g>
<g><path style="opacity:1" fill="#77291b" d="M 212.5,22.5 C 218.432,21.7424 223.766,23.0757 228.5,26.5C 228.833,27.1667 229.167,27.8333 229.5,28.5C 229.785,30.288 229.452,31.9547 228.5,33.5C 227.478,33.1445 226.811,32.4778 226.5,31.5C 228.225,31.1575 228.725,30.1575 228,28.5C 227.097,27.2986 225.931,26.4652 224.5,26C 221.038,25.5403 217.704,26.0403 214.5,27.5C 211.287,27.81 208.287,27.4767 205.5,26.5C 207.167,26.5 208.833,26.5 210.5,26.5C 210.157,24.5168 210.824,23.1834 212.5,22.5 Z"/></g>
<g><path style="opacity:1" fill="#cf856d" d="M 212.5,22.5 C 212.5,22.1667 212.5,21.8333 212.5,21.5C 218.546,20.8024 224.213,21.8024 229.5,24.5C 229.5,24.8333 229.5,25.1667 229.5,25.5C 229.5,26.1667 229.167,26.5 228.5,26.5C 223.766,23.0757 218.432,21.7424 212.5,22.5 Z"/></g>
<g><path style="opacity:1" fill="#ce4439" d="M 195.5,24.5 C 196.404,25.209 196.737,26.209 196.5,27.5C 194.833,27.5 193.167,27.5 191.5,27.5C 190.624,27.3691 189.957,27.7025 189.5,28.5C 191.486,30.3945 191.819,32.3945 190.5,34.5C 189.791,33.596 188.791,33.2627 187.5,33.5C 186.758,31.0202 185.758,28.6869 184.5,26.5C 184.5,25.1667 184.5,23.8333 184.5,22.5C 188.319,22.414 191.985,23.0807 195.5,24.5 Z"/></g>
<g><path style="opacity:1" fill="#731722" d="M 240.5,23.5 C 240.833,23.5 241.167,23.5 241.5,23.5C 241.833,24.1667 242.167,24.8333 242.5,25.5C 241.833,25.5 241.167,25.5 240.5,25.5C 239.399,24.4017 238.066,24.235 236.5,25C 235.244,25.4169 234.577,26.2502 234.5,27.5C 233.5,27.5 232.5,27.5 231.5,27.5C 230.833,26.8333 230.167,26.1667 229.5,25.5C 229.5,25.1667 229.5,24.8333 229.5,24.5C 232.962,23.5184 236.629,23.185 240.5,23.5 Z"/></g>
<g><path style="opacity:1" fill="#67344a" d="M 240.5,25.5 C 239.833,25.5 239.5,25.8333 239.5,26.5C 239.167,26.5 238.833,26.5 238.5,26.5C 237.833,26.5 237.5,26.8333 237.5,27.5C 236.833,27.5 236.5,27.8333 236.5,28.5C 236.5,28.8333 236.5,29.1667 236.5,29.5C 235.5,29.1667 234.833,28.5 234.5,27.5C 234.577,26.2502 235.244,25.4169 236.5,25C 238.066,24.235 239.399,24.4017 240.5,25.5 Z"/></g>
<g><path style="opacity:1" fill="#ef7261" d="M 175.5,15.5 C 176.5,15.5 177.5,15.5 178.5,15.5C 178.338,17.5273 178.505,19.5273 179,21.5C 179.671,22.2524 180.504,22.5858 181.5,22.5C 182.512,23.8717 183.512,25.205 184.5,26.5C 185.758,28.6869 186.758,31.0202 187.5,33.5C 185.053,30.9677 182.386,28.6343 179.5,26.5C 178.318,22.7664 176.984,19.0997 175.5,15.5 Z"/></g>
<g><path style="opacity:1" fill="#b86f5b" d="M 226.5,31.5 C 222.414,29.1969 218.081,28.8636 213.5,30.5C 213.833,29.8333 214.167,29.1667 214.5,28.5C 214.5,28.1667 214.5,27.8333 214.5,27.5C 217.704,26.0403 221.038,25.5403 224.5,26C 225.931,26.4652 227.097,27.2986 228,28.5C 228.725,30.1575 228.225,31.1575 226.5,31.5 Z"/></g>
<g><path style="opacity:1" fill="#eda42b" d="M 202.5,25.5 C 203.167,25.5 203.833,25.5 204.5,25.5C 204.833,25.5 205.167,25.5 205.5,25.5C 205.5,25.8333 205.5,26.1667 205.5,26.5C 208.287,27.4767 211.287,27.81 214.5,27.5C 214.5,27.8333 214.5,28.1667 214.5,28.5C 211.681,30.0971 208.681,30.5971 205.5,30C 204.117,28.7292 203.117,27.2292 202.5,25.5 Z"/></g>
<g><path style="opacity:1" fill="#c24e0d" d="M 192.5,20.5 C 192.833,20.5 193.167,20.5 193.5,20.5C 195.555,22.5547 197.888,24.2213 200.5,25.5C 201.6,26.6049 202.267,27.9382 202.5,29.5C 201.504,29.4142 200.671,29.7476 200,30.5C 200.026,34.3048 198.192,36.3048 194.5,36.5C 197.372,34.6635 198.706,31.9968 198.5,28.5C 195.941,28.8016 193.607,28.4682 191.5,27.5C 193.167,27.5 194.833,27.5 196.5,27.5C 196.737,26.209 196.404,25.209 195.5,24.5C 194.5,23.1667 193.5,21.8333 192.5,20.5 Z"/></g>
<g><path style="opacity:1" fill="#b2542a" d="M 241.5,23.5 C 243.411,24.075 245.078,25.075 246.5,26.5C 245.735,29.0961 245.401,31.7628 245.5,34.5C 243.5,35.1667 241.5,35.8333 239.5,36.5C 237.972,37.3092 236.306,37.9759 234.5,38.5C 233.508,38.6716 232.842,38.3382 232.5,37.5C 232.328,36.5084 232.662,35.8417 233.5,35.5C 236.167,36.8333 236.833,36.1667 235.5,33.5C 236.338,33.1583 236.672,32.4916 236.5,31.5C 237.156,32.2778 237.989,32.9444 239,33.5C 240.995,31.6708 242.828,29.6708 244.5,27.5C 244.145,26.4777 243.478,25.811 242.5,25.5C 242.167,24.8333 241.833,24.1667 241.5,23.5 Z"/></g>
<g><path style="opacity:1" fill="#c67950" d="M 251.5,21.5 C 250.115,22.5736 248.949,23.9069 248,25.5C 247.943,28.8511 247.109,31.8511 245.5,34.5C 245.401,31.7628 245.735,29.0961 246.5,26.5C 246.167,25.1667 245.833,23.8333 245.5,22.5C 245.5,22.1667 245.5,21.8333 245.5,21.5C 247.411,21.0091 249.411,21.0091 251.5,21.5 Z"/></g>
<g><path style="opacity:1" fill="#d76057" d="M 231.5,27.5 C 232.5,27.5 233.5,27.5 234.5,27.5C 234.833,28.5 235.5,29.1667 236.5,29.5C 236.5,30.1667 236.5,30.8333 236.5,31.5C 236.672,32.4916 236.338,33.1583 235.5,33.5C 235.167,31.1667 233.833,29.8333 231.5,29.5C 231.5,28.8333 231.5,28.1667 231.5,27.5 Z"/></g>
<g><path style="opacity:1" fill="#fd9583" d="M 172.5,19.5 C 175.061,21.6397 177.395,23.973 179.5,26.5C 182.386,28.6343 185.053,30.9677 187.5,33.5C 187.5,34.5 187.5,35.5 187.5,36.5C 185.801,36.6602 184.134,36.4935 182.5,36C 175.756,32.6956 172.423,27.1956 172.5,19.5 Z"/></g>
<g><path style="opacity:1" fill="#ed9728" d="M 240.5,25.5 C 241.167,25.5 241.833,25.5 242.5,25.5C 243.478,25.811 244.145,26.4777 244.5,27.5C 242.828,29.6708 240.995,31.6708 239,33.5C 237.989,32.9444 237.156,32.2778 236.5,31.5C 236.5,30.8333 236.5,30.1667 236.5,29.5C 236.5,29.1667 236.5,28.8333 236.5,28.5C 237.167,28.5 237.5,28.1667 237.5,27.5C 238.167,27.5 238.5,27.1667 238.5,26.5C 238.833,26.5 239.167,26.5 239.5,26.5C 240.167,26.5 240.5,26.1667 240.5,25.5 Z"/></g>
<g><path style="opacity:1" fill="#d26313" d="M 191.5,27.5 C 193.607,28.4682 195.941,28.8016 198.5,28.5C 198.706,31.9968 197.372,34.6635 194.5,36.5C 192.833,36.5 191.167,36.5 189.5,36.5C 189.328,35.5084 189.662,34.8417 190.5,34.5C 191.819,32.3945 191.486,30.3945 189.5,28.5C 189.957,27.7025 190.624,27.3691 191.5,27.5 Z"/></g>
<g><path style="opacity:1" fill="#722a21" d="M 229.5,28.5 C 230.339,29.6412 231.006,30.9745 231.5,32.5C 230.37,33.6223 229.703,34.9557 229.5,36.5C 223.914,31.8872 217.58,30.5539 210.5,32.5C 210.973,31.0937 211.973,30.427 213.5,30.5C 218.081,28.8636 222.414,29.1969 226.5,31.5C 226.811,32.4778 227.478,33.1445 228.5,33.5C 229.452,31.9547 229.785,30.288 229.5,28.5 Z"/></g>
<g><path style="opacity:1" fill="#87300c" d="M 210.5,32.5 C 212.969,33.3171 215.635,33.8171 218.5,34C 218.833,34.3333 219.167,34.6667 219.5,35C 217.942,35.21 216.609,35.71 215.5,36.5C 213.938,36.7329 212.605,37.3995 211.5,38.5C 211.297,36.3618 210.297,34.6951 208.5,33.5C 208.957,32.7025 209.624,32.3691 210.5,32.5 Z"/></g>
<g><path style="opacity:1" fill="#853509" d="M 231.5,29.5 C 233.833,29.8333 235.167,31.1667 235.5,33.5C 236.833,36.1667 236.167,36.8333 233.5,35.5C 232.833,33.5 232.167,31.5 231.5,29.5 Z"/></g>
<g><path style="opacity:1" fill="#52170f" d="M 229.5,36.5 C 229.5,38.1667 229.5,39.8333 229.5,41.5C 228.652,42.625 227.652,42.625 226.5,41.5C 225.415,39.4131 223.749,38.0798 221.5,37.5C 219.735,36.5386 217.735,36.2053 215.5,36.5C 216.609,35.71 217.942,35.21 219.5,35C 219.167,34.6667 218.833,34.3333 218.5,34C 215.635,33.8171 212.969,33.3171 210.5,32.5C 217.58,30.5539 223.914,31.8872 229.5,36.5 Z"/></g>
<g><path style="opacity:1" fill="#8b5139" d="M 229.5,25.5 C 230.167,26.1667 230.833,26.8333 231.5,27.5C 231.5,28.1667 231.5,28.8333 231.5,29.5C 232.167,31.5 232.833,33.5 233.5,35.5C 232.662,35.8417 232.328,36.5084 232.5,37.5C 231.857,39.0764 230.857,40.4097 229.5,41.5C 229.5,39.8333 229.5,38.1667 229.5,36.5C 229.703,34.9557 230.37,33.6223 231.5,32.5C 231.006,30.9745 230.339,29.6412 229.5,28.5C 229.167,27.8333 228.833,27.1667 228.5,26.5C 229.167,26.5 229.5,26.1667 229.5,25.5 Z"/></g>
<g><path style="opacity:1" fill="#cc5a10" d="M 200.5,25.5 C 201.167,25.5 201.833,25.5 202.5,25.5C 203.117,27.2292 204.117,28.7292 205.5,30C 208.681,30.5971 211.681,30.0971 214.5,28.5C 214.167,29.1667 213.833,29.8333 213.5,30.5C 211.973,30.427 210.973,31.0937 210.5,32.5C 209.624,32.3691 208.957,32.7025 208.5,33.5C 210.297,34.6951 211.297,36.3618 211.5,38.5C 208.888,40.0522 207.555,42.3855 207.5,45.5C 206.833,45.5 206.167,45.5 205.5,45.5C 203.45,43.4525 201.117,41.7859 198.5,40.5C 197.508,40.6716 196.842,40.3382 196.5,39.5C 198.714,39.7093 200.381,38.876 201.5,37C 202.322,34.5661 202.656,32.0661 202.5,29.5C 202.267,27.9382 201.6,26.6049 200.5,25.5 Z"/></g>
<g><path style="opacity:1" fill="#b97e6b" d="M 251.5,21.5 C 249.972,26.6374 248.306,31.6374 246.5,36.5C 245.833,37.1667 245.167,37.8333 244.5,38.5C 242.446,38.6347 240.779,37.968 239.5,36.5C 241.5,35.8333 243.5,35.1667 245.5,34.5C 247.109,31.8511 247.943,28.8511 248,25.5C 248.949,23.9069 250.115,22.5736 251.5,21.5 Z"/></g>
<g><path style="opacity:1" fill="#aa3605" d="M 202.5,29.5 C 202.656,32.0661 202.322,34.5661 201.5,37C 200.381,38.876 198.714,39.7093 196.5,39.5C 192.685,39.1313 188.685,38.9647 184.5,39C 183.944,38.6174 183.611,38.1174 183.5,37.5C 185.735,37.7947 187.735,37.4614 189.5,36.5C 191.167,36.5 192.833,36.5 194.5,36.5C 198.192,36.3048 200.026,34.3048 200,30.5C 200.671,29.7476 201.504,29.4142 202.5,29.5 Z"/></g>
<g><path style="opacity:0.906" fill="#8f2e10" d="M 175.5,34.5 C 177.781,36.4279 180.447,37.4279 183.5,37.5C 183.611,38.1174 183.944,38.6174 184.5,39C 188.685,38.9647 192.685,39.1313 196.5,39.5C 193.547,39.1496 191.213,40.1496 189.5,42.5C 188.5,42.5 187.5,42.5 186.5,42.5C 185.833,42.5 185.167,42.5 184.5,42.5C 185.263,41.7321 186.263,41.2321 187.5,41C 182.435,40.6049 178.435,38.4383 175.5,34.5 Z"/></g>
<g><path style="opacity:1" fill="#7c300d" d="M 232.5,37.5 C 232.842,38.3382 233.508,38.6716 234.5,38.5C 232.919,40.1417 232.253,42.1417 232.5,44.5C 232.5,45.1667 232.5,45.8333 232.5,46.5C 232.167,46.5 231.833,46.5 231.5,46.5C 231.719,45.325 231.386,44.325 230.5,43.5C 229.893,43.6236 229.56,43.9569 229.5,44.5C 228.5,44.5 227.5,44.5 226.5,44.5C 226.5,43.5 226.5,42.5 226.5,41.5C 227.652,42.625 228.652,42.625 229.5,41.5C 230.857,40.4097 231.857,39.0764 232.5,37.5 Z"/></g>
<g><path style="opacity:1" fill="#ede5e4" d="M 221.5,37.5 C 223.994,42.436 223.994,47.436 221.5,52.5C 215.762,53.6315 211.762,51.6315 209.5,46.5C 210.52,42.6416 212.853,39.8083 216.5,38C 218.134,37.5065 219.801,37.3398 221.5,37.5 Z"/></g>
<g><path style="opacity:0.753" fill="#875a64" d="M 246.5,36.5 C 246.41,40.2142 245.41,43.5475 243.5,46.5C 243.5,45.1667 243.5,43.8333 243.5,42.5C 243.833,41.1667 244.167,39.8333 244.5,38.5C 245.167,37.8333 245.833,37.1667 246.5,36.5 Z"/></g>
<g><path style="opacity:1" fill="#762e2a" d="M 239.5,36.5 C 240.779,37.968 242.446,38.6347 244.5,38.5C 244.167,39.8333 243.833,41.1667 243.5,42.5C 239.586,42.1113 235.92,42.7779 232.5,44.5C 232.253,42.1417 232.919,40.1417 234.5,38.5C 236.306,37.9759 237.972,37.3092 239.5,36.5 Z"/></g>
<g><path style="opacity:0.855" fill="#a06a2f" d="M 184.5,42.5 C 184.5,42.8333 184.5,43.1667 184.5,43.5C 181.5,43.5 178.5,43.5 175.5,43.5C 174.292,44.2341 172.959,44.5674 171.5,44.5C 172.078,42.6198 173.412,41.6198 175.5,41.5C 178.468,42.1616 181.468,42.495 184.5,42.5 Z"/></g>
<g><path style="opacity:1" fill="#c8adae" d="M 215.5,36.5 C 217.735,36.2053 219.735,36.5386 221.5,37.5C 219.801,37.3398 218.134,37.5065 216.5,38C 212.853,39.8083 210.52,42.6416 209.5,46.5C 208.833,46.1667 208.167,45.8333 207.5,45.5C 207.555,42.3855 208.888,40.0522 211.5,38.5C 212.605,37.3995 213.938,36.7329 215.5,36.5 Z"/></g>
<g><path style="opacity:1" fill="#729b8a" d="M 219.5,42.5 C 219.737,43.791 219.404,44.791 218.5,45.5C 217.791,44.596 216.791,44.2627 215.5,44.5C 215.433,45.9587 215.766,47.2921 216.5,48.5C 215.833,48.5 215.5,48.8333 215.5,49.5C 214.378,47.7116 214.211,45.7116 215,43.5C 216.347,41.5339 217.847,41.2006 219.5,42.5 Z"/></g>
<g><path style="opacity:1" fill="#1d252e" d="M 218.5,45.5 C 218.573,47.0269 217.906,48.0269 216.5,48.5C 215.766,47.2921 215.433,45.9587 215.5,44.5C 216.791,44.2627 217.791,44.596 218.5,45.5 Z"/></g>
<g><path style="opacity:1" fill="#4e1b1a" d="M 243.5,42.5 C 243.5,43.8333 243.5,45.1667 243.5,46.5C 242.395,47.6005 241.062,48.2671 239.5,48.5C 239.5,47.5 239.5,46.5 239.5,45.5C 237.32,44.2056 235.32,44.5389 233.5,46.5C 233.167,46.5 232.833,46.5 232.5,46.5C 232.5,45.8333 232.5,45.1667 232.5,44.5C 235.92,42.7779 239.586,42.1113 243.5,42.5 Z"/></g>
<g><path style="opacity:1" fill="#f7b851" d="M 196.5,39.5 C 196.842,40.3382 197.508,40.6716 198.5,40.5C 198.5,40.8333 198.5,41.1667 198.5,41.5C 194.5,41.8333 194.5,42.1667 198.5,42.5C 198.5,43.5 198.5,44.5 198.5,45.5C 196.314,46.8233 194.814,48.8233 194,51.5C 193.692,50.6919 193.192,50.0253 192.5,49.5C 189.07,50.7422 187.737,49.4089 188.5,45.5C 188.557,44.391 188.89,43.391 189.5,42.5C 191.213,40.1496 193.547,39.1496 196.5,39.5 Z"/></g>
<g><path style="opacity:1" fill="#f39d25" d="M 175.5,43.5 C 178.5,43.5 181.5,43.5 184.5,43.5C 184.5,44.1667 184.167,44.5 183.5,44.5C 182.681,50.7526 179.348,55.4193 173.5,58.5C 174.211,56.9699 175.211,55.6366 176.5,54.5C 178.834,52.8243 179.834,50.491 179.5,47.5C 174.633,46.5889 170.633,47.9222 167.5,51.5C 167.984,47.4411 170.318,45.4411 174.5,45.5C 175.298,45.0431 175.631,44.3764 175.5,43.5 Z"/></g>
<g><path style="opacity:1" fill="#b0c18b" d="M 219.5,42.5 C 220.764,44.7721 220.598,47.1055 219,49.5C 217.708,50.7911 216.542,50.7911 215.5,49.5C 215.5,48.8333 215.833,48.5 216.5,48.5C 217.906,48.0269 218.573,47.0269 218.5,45.5C 219.404,44.791 219.737,43.791 219.5,42.5 Z"/></g>
<g><path style="opacity:1" fill="#cd6210" d="M 226.5,44.5 C 227.5,44.5 228.5,44.5 229.5,44.5C 229.71,48.9573 227.71,51.6239 223.5,52.5C 225.606,50.2812 226.606,47.6145 226.5,44.5 Z"/></g>
<g><path style="opacity:1" fill="#86797b" d="M 239.5,45.5 C 238.068,47.3271 236.401,48.9937 234.5,50.5C 234.768,48.901 234.434,47.5676 233.5,46.5C 235.32,44.5389 237.32,44.2056 239.5,45.5 Z"/></g>
<g><path style="opacity:1" fill="#3e5446" d="M 231.5,46.5 C 231.833,46.5 232.167,46.5 232.5,46.5C 232.833,46.5 233.167,46.5 233.5,46.5C 234.434,47.5676 234.768,48.901 234.5,50.5C 233.609,51.1098 232.609,51.4431 231.5,51.5C 230.28,49.9504 230.28,48.2837 231.5,46.5 Z"/></g>
<g><path style="opacity:0.039" fill="#7a5e73" d="M 243.5,46.5 C 243.167,48.8333 241.833,50.1667 239.5,50.5C 239.5,49.8333 239.5,49.1667 239.5,48.5C 241.062,48.2671 242.395,47.6005 243.5,46.5 Z"/></g>
<g><path style="opacity:1" fill="#c1aaa8" d="M 221.5,37.5 C 223.749,38.0798 225.415,39.4131 226.5,41.5C 226.5,42.5 226.5,43.5 226.5,44.5C 226.606,47.6145 225.606,50.2812 223.5,52.5C 222.833,52.5 222.167,52.5 221.5,52.5C 223.994,47.436 223.994,42.436 221.5,37.5 Z"/></g>
<g><path style="opacity:1" fill="#bab1b1" d="M 239.5,45.5 C 239.5,46.5 239.5,47.5 239.5,48.5C 239.5,49.1667 239.5,49.8333 239.5,50.5C 238.962,52.1172 238.629,53.7839 238.5,55.5C 238.167,55.5 237.833,55.5 237.5,55.5C 236.432,54.5655 235.099,54.2322 233.5,54.5C 233.218,53.2223 232.551,52.2223 231.5,51.5C 232.609,51.4431 233.609,51.1098 234.5,50.5C 236.401,48.9937 238.068,47.3271 239.5,45.5 Z"/></g>
<g><path style="opacity:1" fill="#d6862e" d="M 175.5,43.5 C 175.631,44.3764 175.298,45.0431 174.5,45.5C 170.318,45.4411 167.984,47.4411 167.5,51.5C 166.833,51.5 166.5,51.8333 166.5,52.5C 164.787,53.6354 164.12,55.302 164.5,57.5C 163.5,57.5 162.5,57.5 161.5,57.5C 162.577,51.424 165.91,47.0906 171.5,44.5C 172.959,44.5674 174.292,44.2341 175.5,43.5 Z"/></g>
<g><path style="opacity:1" fill="#f5ac10" d="M 198.5,41.5 C 198.5,41.1667 198.5,40.8333 198.5,40.5C 201.117,41.7859 203.45,43.4525 205.5,45.5C 207.922,49.3995 211.256,52.3995 215.5,54.5C 218.835,55.1347 222.168,56.1347 225.5,57.5C 225.113,58.7199 224.28,59.3865 223,59.5C 220.801,58.3546 218.635,58.3546 216.5,59.5C 217.949,60.1719 219.282,60.8386 220.5,61.5C 218.712,61.7852 217.045,61.4519 215.5,60.5C 214.017,57.7528 212.017,56.7528 209.5,57.5C 206.463,54.9399 204.629,51.6065 204,47.5C 202.383,45.2368 200.55,43.2368 198.5,41.5 Z"/></g>
<g><path style="opacity:1" fill="#ed8519" d="M 183.5,44.5 C 183.453,47.5682 182.953,50.5682 182,53.5C 179.271,56.3993 176.438,59.066 173.5,61.5C 170.667,63.4779 167.667,65.3112 164.5,67C 163.418,68.3297 162.751,69.8297 162.5,71.5C 161.127,71.3433 159.793,71.51 158.5,72C 155.737,74.3742 152.737,76.2075 149.5,77.5C 148.167,77.5 147.5,76.8333 147.5,75.5C 154.415,73.3738 160.415,69.7072 165.5,64.5C 167.596,61.7376 170.262,59.7376 173.5,58.5C 179.348,55.4193 182.681,50.7526 183.5,44.5 Z"/></g>
<g><path style="opacity:1" fill="#f8b62f" d="M 176.5,54.5 C 175.305,54.6775 174.138,55.0109 173,55.5C 170.852,54.2698 168.686,53.2698 166.5,52.5C 166.5,51.8333 166.833,51.5 167.5,51.5C 170.633,47.9222 174.633,46.5889 179.5,47.5C 179.834,50.491 178.834,52.8243 176.5,54.5 Z"/></g>
<g><path style="opacity:1" fill="#f2a74a" d="M 188.5,45.5 C 187.737,49.4089 189.07,50.7422 192.5,49.5C 193.192,50.0253 193.692,50.6919 194,51.5C 194.814,48.8233 196.314,46.8233 198.5,45.5C 201.1,48.3632 202.933,51.6965 204,55.5C 205.92,57.474 207.753,59.474 209.5,61.5C 206.744,61.2838 204.41,60.2838 202.5,58.5C 201.099,55.3661 199.432,52.3661 197.5,49.5C 197.08,51.326 197.08,53.326 197.5,55.5C 196.504,55.4142 195.671,55.7476 195,56.5C 194.501,60.1516 194.335,63.8183 194.5,67.5C 193.596,66.791 193.263,65.791 193.5,64.5C 193.811,60.3196 193.145,56.3196 191.5,52.5C 190.583,53.1272 189.583,53.4606 188.5,53.5C 187.167,50.8333 187.167,48.1667 188.5,45.5 Z"/></g>
<g><path style="opacity:1" fill="#af713d" d="M 202.5,58.5 C 202.5,58.8333 202.5,59.1667 202.5,59.5C 201.115,58.4264 199.949,57.0931 199,55.5C 198.517,56.448 198.351,57.448 198.5,58.5C 197.596,57.791 197.263,56.791 197.5,55.5C 197.08,53.326 197.08,51.326 197.5,49.5C 199.432,52.3661 201.099,55.3661 202.5,58.5 Z"/></g>
<g><path style="opacity:1" fill="#f4a627" d="M 166.5,52.5 C 168.686,53.2698 170.852,54.2698 173,55.5C 174.138,55.0109 175.305,54.6775 176.5,54.5C 175.211,55.6366 174.211,56.9699 173.5,58.5C 170.262,59.7376 167.596,61.7376 165.5,64.5C 163.139,64.6741 160.806,65.0074 158.5,65.5C 158.5,64.5 158.5,63.5 158.5,62.5C 159.925,61.078 160.925,59.4113 161.5,57.5C 162.5,57.5 163.5,57.5 164.5,57.5C 164.12,55.302 164.787,53.6354 166.5,52.5 Z"/></g>
<g><path style="opacity:1" fill="#fcc658" d="M 198.5,41.5 C 200.55,43.2368 202.383,45.2368 204,47.5C 204.629,51.6065 206.463,54.9399 209.5,57.5C 210.5,58.8333 211.5,60.1667 212.5,61.5C 211.5,61.5 210.5,61.5 209.5,61.5C 207.753,59.474 205.92,57.474 204,55.5C 202.933,51.6965 201.1,48.3632 198.5,45.5C 198.5,44.5 198.5,43.5 198.5,42.5C 194.5,42.1667 194.5,41.8333 198.5,41.5 Z"/></g>
<g><path style="opacity:1" fill="#e9951c" d="M 231.5,46.5 C 230.28,48.2837 230.28,49.9504 231.5,51.5C 232.551,52.2223 233.218,53.2223 233.5,54.5C 231.972,54.5173 231.472,55.184 232,56.5C 233.451,58.4641 235.284,59.7974 237.5,60.5C 237.5,61.1667 237.5,61.8333 237.5,62.5C 231.951,63.0113 226.617,64.0113 221.5,65.5C 218.5,64.1667 215.5,62.8333 212.5,61.5C 211.5,60.1667 210.5,58.8333 209.5,57.5C 212.017,56.7528 214.017,57.7528 215.5,60.5C 217.045,61.4519 218.712,61.7852 220.5,61.5C 224.509,61.9611 228.176,61.1278 231.5,59C 229.005,57.1729 226.505,55.3395 224,53.5C 221.23,54.3479 218.397,54.6813 215.5,54.5C 211.256,52.3995 207.922,49.3995 205.5,45.5C 206.167,45.5 206.833,45.5 207.5,45.5C 208.167,45.8333 208.833,46.1667 209.5,46.5C 211.762,51.6315 215.762,53.6315 221.5,52.5C 222.167,52.5 222.833,52.5 223.5,52.5C 227.71,51.6239 229.71,48.9573 229.5,44.5C 229.56,43.9569 229.893,43.6236 230.5,43.5C 231.386,44.325 231.719,45.325 231.5,46.5 Z"/></g>
<g><path style="opacity:1" fill="#d06616" d="M 233.5,54.5 C 235.099,54.2322 236.432,54.5655 237.5,55.5C 237.5,57.1667 237.5,58.8333 237.5,60.5C 235.284,59.7974 233.451,58.4641 232,56.5C 231.472,55.184 231.972,54.5173 233.5,54.5 Z"/></g>
<g><path style="opacity:1" fill="#7e3029" d="M 250.5,51.5 C 251.756,53.941 251.756,56.2743 250.5,58.5C 250.103,57.475 249.437,57.3083 248.5,58C 246.218,60.4577 243.884,62.6244 241.5,64.5C 241.167,64.5 240.833,64.5 240.5,64.5C 240.371,62.7839 240.038,61.1172 239.5,59.5C 240.621,57.2585 241.787,54.9252 243,52.5C 243.671,51.7476 244.504,51.4142 245.5,51.5C 247.167,50.1667 248.833,50.1667 250.5,51.5 Z"/></g>
<g><path style="opacity:1" fill="#f1c2b0" d="M 245.5,51.5 C 246.5,51.5 247.5,51.5 248.5,51.5C 248.5,52.5 248.5,53.5 248.5,54.5C 247.5,54.5 246.5,54.5 245.5,54.5C 245.5,53.5 245.5,52.5 245.5,51.5 Z"/></g>
<g><path style="opacity:1" fill="#de640f" d="M 184.5,42.5 C 185.167,42.5 185.833,42.5 186.5,42.5C 185.719,47.4176 185.219,52.4176 185,57.5C 183.698,58.0848 182.531,58.7515 181.5,59.5C 180.833,59.5 180.167,59.5 179.5,59.5C 177.315,59.7036 175.315,60.3702 173.5,61.5C 176.438,59.066 179.271,56.3993 182,53.5C 182.953,50.5682 183.453,47.5682 183.5,44.5C 184.167,44.5 184.5,44.1667 184.5,43.5C 184.5,43.1667 184.5,42.8333 184.5,42.5 Z"/></g>
<g><path style="opacity:1" fill="#ec9d44" d="M 193.5,64.5 C 192.5,64.5 191.5,64.5 190.5,64.5C 190.784,66.4147 190.451,68.0813 189.5,69.5C 189.167,64.1667 188.833,58.8333 188.5,53.5C 189.583,53.4606 190.583,53.1272 191.5,52.5C 193.145,56.3196 193.811,60.3196 193.5,64.5 Z"/></g>
<g><path style="opacity:1" fill="#f2a607" d="M 220.5,61.5 C 219.282,60.8386 217.949,60.1719 216.5,59.5C 218.635,58.3546 220.801,58.3546 223,59.5C 224.28,59.3865 225.113,58.7199 225.5,57.5C 222.168,56.1347 218.835,55.1347 215.5,54.5C 218.397,54.6813 221.23,54.3479 224,53.5C 226.505,55.3395 229.005,57.1729 231.5,59C 228.176,61.1278 224.509,61.9611 220.5,61.5 Z"/></g>
<g><path style="opacity:1" fill="#c6530f" d="M 186.5,42.5 C 187.5,42.5 188.5,42.5 189.5,42.5C 188.89,43.391 188.557,44.391 188.5,45.5C 187.167,48.1667 187.167,50.8333 188.5,53.5C 188.833,58.8333 189.167,64.1667 189.5,69.5C 189.5,71.5 189.5,73.5 189.5,75.5C 189.5,77.8333 189.5,80.1667 189.5,82.5C 187.302,82.8799 185.635,82.2132 184.5,80.5C 185.833,80.5 187.167,80.5 188.5,80.5C 188.5,78.1667 188.5,75.8333 188.5,73.5C 187.167,73.5 185.833,73.5 184.5,73.5C 185.568,72.5655 186.901,72.2322 188.5,72.5C 189.714,66.0769 187.381,61.7435 181.5,59.5C 182.531,58.7515 183.698,58.0848 185,57.5C 185.219,52.4176 185.719,47.4176 186.5,42.5 Z"/></g>
<g><path style="opacity:0.694" fill="#b49292" d="M 250.5,51.5 C 253.128,52.6248 253.961,54.6248 253,57.5C 251.917,61.4183 249.417,63.7517 245.5,64.5C 247.413,62.7089 249.08,60.7089 250.5,58.5C 251.756,56.2743 251.756,53.941 250.5,51.5 Z"/></g>
<g><path style="opacity:1" fill="#531f17" d="M 250.5,58.5 C 249.08,60.7089 247.413,62.7089 245.5,64.5C 244.041,64.4326 242.708,64.7659 241.5,65.5C 241.5,65.1667 241.5,64.8333 241.5,64.5C 243.884,62.6244 246.218,60.4577 248.5,58C 249.437,57.3083 250.103,57.475 250.5,58.5 Z"/></g>
<g><path style="opacity:1" fill="#d45d0d" d="M 179.5,59.5 C 179.5,59.8333 179.5,60.1667 179.5,60.5C 178.662,60.8417 178.328,61.5084 178.5,62.5C 177.026,63.4363 176.026,64.7697 175.5,66.5C 173.597,66.7959 171.93,67.4625 170.5,68.5C 169.85,68.1961 169.183,67.8627 168.5,67.5C 166.754,69.2516 164.754,70.5849 162.5,71.5C 162.751,69.8297 163.418,68.3297 164.5,67C 167.667,65.3112 170.667,63.4779 173.5,61.5C 175.315,60.3702 177.315,59.7036 179.5,59.5 Z"/></g>
<g><path style="opacity:1" fill="#cd5302" d="M 237.5,62.5 C 238.738,62.81 238.738,63.31 237.5,64C 233.414,66.0532 229.08,66.8866 224.5,66.5C 223.609,65.8902 222.609,65.5569 221.5,65.5C 226.617,64.0113 231.951,63.0113 237.5,62.5 Z"/></g>
<g><path style="opacity:1" fill="#ca4b0d" d="M 179.5,60.5 C 179.5,60.1667 179.5,59.8333 179.5,59.5C 180.167,59.5 180.833,59.5 181.5,59.5C 187.381,61.7435 189.714,66.0769 188.5,72.5C 186.901,72.2322 185.568,72.5655 184.5,73.5C 183.833,73.8333 183.167,74.1667 182.5,74.5C 182.5,69.8333 182.5,65.1667 182.5,60.5C 181.5,60.5 180.5,60.5 179.5,60.5 Z"/></g>
<g><path style="opacity:1" fill="#f6ac4a" d="M 209.5,61.5 C 210.5,61.5 211.5,61.5 212.5,61.5C 215.5,62.8333 218.5,64.1667 221.5,65.5C 221.611,66.1174 221.944,66.6174 222.5,67C 221.333,67.1667 220.167,67.3333 219,67.5C 215.859,66.6778 212.693,66.0112 209.5,65.5C 209.5,64.1667 209.5,62.8333 209.5,61.5 Z"/></g>
<g><path style="opacity:1" fill="#d3882f" d="M 161.5,57.5 C 160.925,59.4113 159.925,61.078 158.5,62.5C 157.249,64.3819 156.082,66.3819 155,68.5C 154.667,67.8333 154.333,67.1667 154,66.5C 153.329,67.2524 152.496,67.5858 151.5,67.5C 154.825,64.2094 158.158,60.8761 161.5,57.5 Z"/></g>
<g><path style="opacity:1" fill="#e9973e" d="M 202.5,58.5 C 204.41,60.2838 206.744,61.2838 209.5,61.5C 209.5,62.8333 209.5,64.1667 209.5,65.5C 212.693,66.0112 215.859,66.6778 219,67.5C 220.167,67.3333 221.333,67.1667 222.5,67C 221.944,66.6174 221.611,66.1174 221.5,65.5C 222.609,65.5569 223.609,65.8902 224.5,66.5C 226.631,67.3138 228.964,67.8138 231.5,68C 228.318,68.4069 225.151,68.9069 222,69.5C 218.542,68.7135 215.042,68.3802 211.5,68.5C 208.859,66.1956 206.192,63.8623 203.5,61.5C 202.662,61.1583 202.328,60.4916 202.5,59.5C 202.5,59.1667 202.5,58.8333 202.5,58.5 Z"/></g>
<g><path style="opacity:1" fill="#f1ac49" d="M 197.5,55.5 C 197.263,56.791 197.596,57.791 198.5,58.5C 198.833,60.5 199.167,62.5 199.5,64.5C 199.511,66.5466 199.844,68.5466 200.5,70.5C 201.84,71.9896 202.84,73.6563 203.5,75.5C 202.5,75.5 201.5,75.5 200.5,75.5C 199.888,72.3027 197.888,70.9694 194.5,71.5C 194.5,70.1667 194.5,68.8333 194.5,67.5C 194.335,63.8183 194.501,60.1516 195,56.5C 195.671,55.7476 196.504,55.4142 197.5,55.5 Z"/></g>
<g><path style="opacity:1" fill="#e58e3d" d="M 237.5,55.5 C 237.833,55.5 238.167,55.5 238.5,55.5C 239.434,56.5676 239.768,57.901 239.5,59.5C 240.038,61.1172 240.371,62.7839 240.5,64.5C 238.905,67.2599 236.572,69.0932 233.5,70C 228.511,70.4993 223.511,70.6659 218.5,70.5C 215.933,70.2785 213.599,69.6118 211.5,68.5C 215.042,68.3802 218.542,68.7135 222,69.5C 225.151,68.9069 228.318,68.4069 231.5,68C 228.964,67.8138 226.631,67.3138 224.5,66.5C 229.08,66.8866 233.414,66.0532 237.5,64C 238.738,63.31 238.738,62.81 237.5,62.5C 237.5,61.8333 237.5,61.1667 237.5,60.5C 237.5,58.8333 237.5,57.1667 237.5,55.5 Z"/></g>
<g><path style="opacity:1" fill="#d7c7c2" d="M 202.5,59.5 C 202.328,60.4916 202.662,61.1583 203.5,61.5C 206.119,67.1189 210.119,71.4523 215.5,74.5C 215.167,75.5 214.5,76.1667 213.5,76.5C 211.784,76.3713 210.117,76.038 208.5,75.5C 204.801,72.4551 201.801,68.7885 199.5,64.5C 199.167,62.5 198.833,60.5 198.5,58.5C 198.351,57.448 198.517,56.448 199,55.5C 199.949,57.0931 201.115,58.4264 202.5,59.5 Z"/></g>
<g><path style="opacity:0.271" fill="#b0806d" d="M 245.5,64.5 C 242.396,67.1009 239.396,69.9343 236.5,73C 234.283,74.2754 231.949,75.2754 229.5,76C 228.893,80.5349 226.559,84.3682 222.5,87.5C 224.622,84.0434 226.289,80.3767 227.5,76.5C 228.306,75.2719 229.306,74.2719 230.5,73.5C 235.292,72.3734 238.959,69.7067 241.5,65.5C 242.708,64.7659 244.041,64.4326 245.5,64.5 Z"/></g>
<g><path style="opacity:1" fill="#ac551d" d="M 240.5,64.5 C 240.833,64.5 241.167,64.5 241.5,64.5C 241.5,64.8333 241.5,65.1667 241.5,65.5C 238.959,69.7067 235.292,72.3734 230.5,73.5C 226.881,72.8195 223.214,72.3195 219.5,72C 218.944,71.6174 218.611,71.1174 218.5,70.5C 223.511,70.6659 228.511,70.4993 233.5,70C 236.572,69.0932 238.905,67.2599 240.5,64.5 Z"/></g>
<g><path style="opacity:1" fill="#f69f27" d="M 158.5,62.5 C 158.5,63.5 158.5,64.5 158.5,65.5C 160.806,65.0074 163.139,64.6741 165.5,64.5C 160.415,69.7072 154.415,73.3738 147.5,75.5C 146.518,76.1408 145.518,76.8075 144.5,77.5C 144.167,77.1667 143.833,76.8333 143.5,76.5C 145.758,74.5019 148.091,72.5019 150.5,70.5C 151.127,69.5832 151.461,68.5832 151.5,67.5C 152.496,67.5858 153.329,67.2524 154,66.5C 154.333,67.1667 154.667,67.8333 155,68.5C 156.082,66.3819 157.249,64.3819 158.5,62.5 Z"/></g>
<g><path style="opacity:1" fill="#eba142" d="M 193.5,64.5 C 193.263,65.791 193.596,66.791 194.5,67.5C 194.5,68.8333 194.5,70.1667 194.5,71.5C 197.888,70.9694 199.888,72.3027 200.5,75.5C 199.265,75.2786 198.265,74.6119 197.5,73.5C 196.148,74.5175 195.148,75.8508 194.5,77.5C 193.465,74.7344 191.799,74.0677 189.5,75.5C 189.5,73.5 189.5,71.5 189.5,69.5C 190.451,68.0813 190.784,66.4147 190.5,64.5C 191.5,64.5 192.5,64.5 193.5,64.5 Z"/></g>
<g><path style="opacity:0.706" fill="#a3664a" d="M 175.5,66.5 C 175.5,67.8333 174.833,68.5 173.5,68.5C 168.206,72.6223 163.04,76.9556 158,81.5C 157.472,82.816 157.972,83.4827 159.5,83.5C 160.167,83.5 160.833,83.5 161.5,83.5C 161.799,85.604 161.466,87.604 160.5,89.5C 159.482,88.8075 158.482,88.1408 157.5,87.5C 157.167,85.5 156.833,83.5 156.5,81.5C 161.167,77.1667 165.833,72.8333 170.5,68.5C 171.93,67.4625 173.597,66.7959 175.5,66.5 Z"/></g>
<g><path style="opacity:1" fill="#741a0a" d="M 178.5,62.5 C 179.158,63.7933 179.492,65.2933 179.5,67C 178.452,73.5032 177.452,80.0032 176.5,86.5C 176.158,87.3382 175.492,87.6716 174.5,87.5C 175.075,85.9245 175.408,84.2578 175.5,82.5C 174.701,77.8431 174.035,73.1765 173.5,68.5C 174.833,68.5 175.5,67.8333 175.5,66.5C 176.026,64.7697 177.026,63.4363 178.5,62.5 Z"/></g>
<g><path style="opacity:1" fill="#9f5326" d="M 203.5,61.5 C 206.192,63.8623 208.859,66.1956 211.5,68.5C 213.599,69.6118 215.933,70.2785 218.5,70.5C 218.611,71.1174 218.944,71.6174 219.5,72C 223.214,72.3195 226.881,72.8195 230.5,73.5C 229.306,74.2719 228.306,75.2719 227.5,76.5C 226.833,76.8333 226.167,77.1667 225.5,77.5C 224.167,77.5 222.833,77.5 221.5,77.5C 222.598,76.603 222.598,75.7697 221.5,75C 219.527,74.5045 217.527,74.3379 215.5,74.5C 210.119,71.4523 206.119,67.1189 203.5,61.5 Z"/></g>
<g><path style="opacity:1" fill="#e29842" d="M 200.5,75.5 C 201.5,75.5 202.5,75.5 203.5,75.5C 204.306,76.7281 205.306,77.7281 206.5,78.5C 203.606,78.0423 201.106,78.709 199,80.5C 197.211,78.771 195.044,78.1043 192.5,78.5C 192.167,80.5 191.833,82.5 191.5,84.5C 190.167,84.5 189.5,83.8333 189.5,82.5C 189.5,80.1667 189.5,77.8333 189.5,75.5C 191.799,74.0677 193.465,74.7344 194.5,77.5C 195.148,75.8508 196.148,74.5175 197.5,73.5C 198.265,74.6119 199.265,75.2786 200.5,75.5 Z"/></g>
<g><path style="opacity:1" fill="#a28579" d="M 215.5,74.5 C 217.527,74.3379 219.527,74.5045 221.5,75C 222.598,75.7697 222.598,76.603 221.5,77.5C 218.615,77.8064 215.948,77.4731 213.5,76.5C 214.5,76.1667 215.167,75.5 215.5,74.5 Z"/></g>
<g><path style="opacity:1" fill="#eb952d" d="M 151.5,67.5 C 151.461,68.5832 151.127,69.5832 150.5,70.5C 148.091,72.5019 145.758,74.5019 143.5,76.5C 143.833,76.8333 144.167,77.1667 144.5,77.5C 145.518,76.8075 146.518,76.1408 147.5,75.5C 147.5,76.8333 148.167,77.5 149.5,77.5C 149.67,78.8221 149.337,79.9887 148.5,81C 144.961,81.2819 141.461,81.7819 138,82.5C 136.923,81.5705 135.756,80.9038 134.5,80.5C 139.588,75.4508 145.255,71.1175 151.5,67.5 Z"/></g>
<g><path style="opacity:1" fill="#af4207" d="M 170.5,68.5 C 165.833,72.8333 161.167,77.1667 156.5,81.5C 155.395,80.3995 154.062,79.7329 152.5,79.5C 152.414,78.5041 152.748,77.6708 153.5,77C 156.596,75.1282 159.596,73.2948 162.5,71.5C 164.754,70.5849 166.754,69.2516 168.5,67.5C 169.183,67.8627 169.85,68.1961 170.5,68.5 Z"/></g>
<g><path style="opacity:1" fill="#f18320" d="M 184.5,73.5 C 185.833,73.5 187.167,73.5 188.5,73.5C 188.5,75.8333 188.5,78.1667 188.5,80.5C 187.167,80.5 185.833,80.5 184.5,80.5C 183.833,80.5 183.167,80.5 182.5,80.5C 182.5,78.5 182.5,76.5 182.5,74.5C 183.167,74.1667 183.833,73.8333 184.5,73.5 Z"/></g>
<g><path style="opacity:1" fill="#efb051" d="M 199.5,64.5 C 201.801,68.7885 204.801,72.4551 208.5,75.5C 209.058,76.7899 210.058,77.6232 211.5,78C 214.833,78.3333 218.167,78.6667 221.5,79C 220.473,79.5133 219.473,80.0133 218.5,80.5C 216.5,80.5 214.5,80.5 212.5,80.5C 210.698,79.5418 208.698,78.8751 206.5,78.5C 205.306,77.7281 204.306,76.7281 203.5,75.5C 202.84,73.6563 201.84,71.9896 200.5,70.5C 199.844,68.5466 199.511,66.5466 199.5,64.5 Z"/></g>
<g><path style="opacity:1" fill="#da8d35" d="M 206.5,78.5 C 208.698,78.8751 210.698,79.5418 212.5,80.5C 209.167,80.1667 205.833,79.8333 202.5,79.5C 202.649,80.552 202.483,81.552 202,82.5C 200.054,84.1848 198.554,86.1848 197.5,88.5C 197.167,88.5 196.833,88.5 196.5,88.5C 195.055,86.9373 193.389,85.604 191.5,84.5C 191.833,82.5 192.167,80.5 192.5,78.5C 195.044,78.1043 197.211,78.771 199,80.5C 201.106,78.709 203.606,78.0423 206.5,78.5 Z"/></g>
<g><path style="opacity:1" fill="#ab7a4c" d="M 208.5,75.5 C 210.117,76.038 211.784,76.3713 213.5,76.5C 215.948,77.4731 218.615,77.8064 221.5,77.5C 222.833,77.5 224.167,77.5 225.5,77.5C 224.5,78.8333 223.5,80.1667 222.5,81.5C 220.25,83.244 218.083,85.244 216,87.5C 213.475,91.8778 210.642,95.8778 207.5,99.5C 209.098,93.9506 211.931,89.284 216,85.5C 216.41,84.0993 216.91,82.766 217.5,81.5C 218.167,81.5 218.5,81.1667 218.5,80.5C 219.473,80.0133 220.473,79.5133 221.5,79C 218.167,78.6667 214.833,78.3333 211.5,78C 210.058,77.6232 209.058,76.7899 208.5,75.5 Z"/></g>
<g><path style="opacity:1" fill="#ec7e1c" d="M 162.5,71.5 C 159.596,73.2948 156.596,75.1282 153.5,77C 152.748,77.6708 152.414,78.5041 152.5,79.5C 152.859,81.7659 152.192,83.5993 150.5,85C 145.853,85.0047 141.186,84.838 136.5,84.5C 135.833,83.1667 135.167,81.8333 134.5,80.5C 135.756,80.9038 136.923,81.5705 138,82.5C 141.461,81.7819 144.961,81.2819 148.5,81C 149.337,79.9887 149.67,78.8221 149.5,77.5C 152.737,76.2075 155.737,74.3742 158.5,72C 159.793,71.51 161.127,71.3433 162.5,71.5 Z"/></g>
<g><path style="opacity:1" fill="#b76526" d="M 134.5,80.5 C 135.167,81.8333 135.833,83.1667 136.5,84.5C 136.389,85.1174 136.056,85.6174 135.5,86C 137.457,87.7456 138.457,89.9122 138.5,92.5C 138.167,92.5 137.833,92.5 137.5,92.5C 136.792,90.6221 135.626,88.9555 134,87.5C 133.204,84.9615 133.371,82.6282 134.5,80.5 Z"/></g>
<g><path style="opacity:0.996" fill="#684a48" d="M 174.5,87.5 C 174.158,88.3382 173.492,88.6716 172.5,88.5C 170.05,87.2235 167.717,85.7235 165.5,84C 164.207,83.51 162.873,83.3433 161.5,83.5C 160.833,83.5 160.167,83.5 159.5,83.5C 161.011,81.5589 163.011,81.0589 165.5,82C 168.139,84.4827 171.139,86.316 174.5,87.5 Z"/></g>
<g><path style="opacity:1" fill="#94240c" d="M 179.5,60.5 C 180.5,60.5 181.5,60.5 182.5,60.5C 182.5,65.1667 182.5,69.8333 182.5,74.5C 182.5,76.5 182.5,78.5 182.5,80.5C 180.684,82.1184 179.351,84.1184 178.5,86.5C 177.833,86.5 177.167,86.5 176.5,86.5C 177.452,80.0032 178.452,73.5032 179.5,67C 179.492,65.2933 179.158,63.7933 178.5,62.5C 178.328,61.5084 178.662,60.8417 179.5,60.5 Z"/></g>
<g><path style="opacity:1" fill="#e16816" d="M 152.5,79.5 C 154.062,79.7329 155.395,80.3995 156.5,81.5C 156.833,83.5 157.167,85.5 157.5,87.5C 157.733,89.0618 158.4,90.3951 159.5,91.5C 157.585,91.2155 155.919,91.5489 154.5,92.5C 153.833,92.8333 153.167,93.1667 152.5,93.5C 147.807,93.4599 143.141,93.1266 138.5,92.5C 138.457,89.9122 137.457,87.7456 135.5,86C 136.056,85.6174 136.389,85.1174 136.5,84.5C 141.186,84.838 145.853,85.0047 150.5,85C 152.192,83.5993 152.859,81.7659 152.5,79.5 Z"/></g>
<g><path style="opacity:1" fill="#925035" d="M 182.5,80.5 C 183.167,80.5 183.833,80.5 184.5,80.5C 185.635,82.2132 187.302,82.8799 189.5,82.5C 189.5,83.8333 190.167,84.5 191.5,84.5C 193.389,85.604 195.055,86.9373 196.5,88.5C 196.833,89.8333 197.167,91.1667 197.5,92.5C 196.185,91.5244 194.852,90.5244 193.5,89.5C 192.583,90.1272 191.583,90.4606 190.5,90.5C 190.5,89.5 190.5,88.5 190.5,87.5C 187.545,88.1587 184.545,88.4921 181.5,88.5C 181.649,89.552 181.483,90.552 181,91.5C 180.95,89.256 180.117,87.5893 178.5,86.5C 179.351,84.1184 180.684,82.1184 182.5,80.5 Z"/></g>
<g><path style="opacity:1" fill="#c07529" d="M 212.5,80.5 C 214.5,80.5 216.5,80.5 218.5,80.5C 218.5,81.1667 218.167,81.5 217.5,81.5C 215.833,81.5 214.167,81.5 212.5,81.5C 210.167,81.5 207.833,81.5 205.5,81.5C 205.908,86.2708 203.741,89.2708 199,90.5C 198.283,89.9558 197.783,89.2891 197.5,88.5C 198.554,86.1848 200.054,84.1848 202,82.5C 202.483,81.552 202.649,80.552 202.5,79.5C 205.833,79.8333 209.167,80.1667 212.5,80.5 Z"/></g>
<g><path style="opacity:1" fill="#a46129" d="M 212.5,81.5 C 214.167,81.5 215.833,81.5 217.5,81.5C 216.91,82.766 216.41,84.0993 216,85.5C 211.931,89.284 209.098,93.9506 207.5,99.5C 207.107,101.284 206.441,102.95 205.5,104.5C 204.596,105.209 204.263,106.209 204.5,107.5C 203.659,109.379 203.325,111.379 203.5,113.5C 203.167,113.5 202.833,113.5 202.5,113.5C 202.31,107.904 203.31,102.571 205.5,97.5C 206.465,94.8387 207.798,92.3387 209.5,90C 206.423,85.6622 207.423,82.8289 212.5,81.5 Z"/></g>
<g><path style="opacity:1" fill="#793a24" d="M 161.5,83.5 C 162.873,83.3433 164.207,83.51 165.5,84C 167.717,85.7235 170.05,87.2235 172.5,88.5C 171.136,90.1911 169.803,91.8577 168.5,93.5C 168.062,92.4937 167.396,92.4937 166.5,93.5C 167.028,92.1526 167.195,90.8193 167,89.5C 165.667,90.8333 164.333,92.1667 163,93.5C 162.837,91.6133 163.671,90.1133 165.5,89C 165.167,88.8333 164.833,88.6667 164.5,88.5C 163.06,89.9524 161.394,90.9524 159.5,91.5C 158.4,90.3951 157.733,89.0618 157.5,87.5C 158.482,88.1408 159.482,88.8075 160.5,89.5C 161.466,87.604 161.799,85.604 161.5,83.5 Z"/></g>
<g><path style="opacity:1" fill="#bb692d" d="M 175.5,89.5 C 176.568,88.5655 177.901,88.2322 179.5,88.5C 179.296,91.5176 178.963,94.5176 178.5,97.5C 178.167,97.5 177.833,97.5 177.5,97.5C 177.575,94.7938 177.908,92.1272 178.5,89.5C 177.5,89.5 176.5,89.5 175.5,89.5 Z"/></g>
<g><path style="opacity:1" fill="#ac601e" d="M 212.5,81.5 C 207.423,82.8289 206.423,85.6622 209.5,90C 207.798,92.3387 206.465,94.8387 205.5,97.5C 204.735,98.6602 203.735,99.6602 202.5,100.5C 201.459,98.0087 200.626,98.0087 200,100.5C 199.617,99.944 199.117,99.6107 198.5,99.5C 197.631,97.283 197.298,94.9496 197.5,92.5C 197.167,91.1667 196.833,89.8333 196.5,88.5C 196.833,88.5 197.167,88.5 197.5,88.5C 197.783,89.2891 198.283,89.9558 199,90.5C 203.741,89.2708 205.908,86.2708 205.5,81.5C 207.833,81.5 210.167,81.5 212.5,81.5 Z"/></g>
<g><path style="opacity:1" fill="#9c6248" d="M 176.5,86.5 C 177.167,86.5 177.833,86.5 178.5,86.5C 180.117,87.5893 180.95,89.256 181,91.5C 181.483,90.552 181.649,89.552 181.5,88.5C 184.545,88.4921 187.545,88.1587 190.5,87.5C 190.5,88.5 190.5,89.5 190.5,90.5C 189.833,93.1667 189.167,95.8333 188.5,98.5C 189.298,88.7721 186.964,87.9387 181.5,96C 182,97.5 182.5,99 183,100.5C 183.671,101.252 184.504,101.586 185.5,101.5C 184.859,102.482 184.193,103.482 183.5,104.5C 185.312,104.426 187.312,104.759 189.5,105.5C 188.754,106.736 188.421,108.07 188.5,109.5C 187.167,109.5 185.833,109.5 184.5,109.5C 182.791,105.244 180.791,101.244 178.5,97.5C 178.963,94.5176 179.296,91.5176 179.5,88.5C 177.901,88.2322 176.568,88.5655 175.5,89.5C 173.596,89.7376 172.262,90.7376 171.5,92.5C 170.728,93.6935 169.728,94.6935 168.5,95.5C 168.5,94.8333 168.5,94.1667 168.5,93.5C 169.803,91.8577 171.136,90.1911 172.5,88.5C 173.492,88.6716 174.158,88.3382 174.5,87.5C 175.492,87.6716 176.158,87.3382 176.5,86.5 Z"/></g>
<g><path style="opacity:1" fill="#701f09" d="M 222.5,81.5 C 221.68,85.064 219.68,87.7307 216.5,89.5C 214.796,92.7155 213.296,96.0488 212,99.5C 211.25,100.126 210.416,100.626 209.5,101C 210.167,101.167 210.833,101.333 211.5,101.5C 213.184,100.473 214.851,99.4728 216.5,98.5C 216.782,99.7777 217.449,100.778 218.5,101.5C 215.457,102.843 212.457,104.177 209.5,105.5C 208.167,105.5 207.5,106.167 207.5,107.5C 206.094,107.027 205.427,106.027 205.5,104.5C 206.441,102.95 207.107,101.284 207.5,99.5C 210.642,95.8778 213.475,91.8778 216,87.5C 218.083,85.244 220.25,83.244 222.5,81.5 Z"/></g>
<g><path style="opacity:1" fill="#933411" d="M 137.5,92.5 C 137.833,92.5 138.167,92.5 138.5,92.5C 143.141,93.1266 147.807,93.4599 152.5,93.5C 149.038,94.4816 145.371,94.815 141.5,94.5C 139.847,94.3404 138.514,93.6737 137.5,92.5 Z"/></g>
<g><path style="opacity:1" fill="#753d28" d="M 154.5,92.5 C 155.179,94.8139 156.512,95.1472 158.5,93.5C 159.429,94.6888 159.762,96.0222 159.5,97.5C 160.833,97.5 162.167,97.5 163.5,97.5C 162.766,98.7079 162.433,100.041 162.5,101.5C 159.167,101.5 155.833,101.5 152.5,101.5C 151.776,99.7816 151.109,97.9483 150.5,96C 147.305,95.8195 144.305,95.3195 141.5,94.5C 145.371,94.815 149.038,94.4816 152.5,93.5C 153.167,93.1667 153.833,92.8333 154.5,92.5 Z"/></g>
<g><path style="opacity:1" fill="#9d634a" d="M 166.5,93.5 C 165.026,94.4363 164.026,95.7697 163.5,97.5C 162.167,97.5 160.833,97.5 159.5,97.5C 159.762,96.0222 159.429,94.6888 158.5,93.5C 156.512,95.1472 155.179,94.8139 154.5,92.5C 155.919,91.5489 157.585,91.2155 159.5,91.5C 161.394,90.9524 163.06,89.9524 164.5,88.5C 164.833,88.6667 165.167,88.8333 165.5,89C 163.671,90.1133 162.837,91.6133 163,93.5C 164.333,92.1667 165.667,90.8333 167,89.5C 167.195,90.8193 167.028,92.1526 166.5,93.5 Z"/></g>
<g><path style="opacity:1" fill="#7c290e" d="M 227.5,76.5 C 226.289,80.3767 224.622,84.0434 222.5,87.5C 218.825,90.1936 216.825,93.8603 216.5,98.5C 214.851,99.4728 213.184,100.473 211.5,101.5C 210.833,101.333 210.167,101.167 209.5,101C 210.416,100.626 211.25,100.126 212,99.5C 213.296,96.0488 214.796,92.7155 216.5,89.5C 219.68,87.7307 221.68,85.064 222.5,81.5C 223.5,80.1667 224.5,78.8333 225.5,77.5C 226.167,77.1667 226.833,76.8333 227.5,76.5 Z"/></g>
<g><path style="opacity:1" fill="#ef861d" d="M 175.5,89.5 C 176.5,89.5 177.5,89.5 178.5,89.5C 177.908,92.1272 177.575,94.7938 177.5,97.5C 176.766,98.7079 176.433,100.041 176.5,101.5C 174.5,101.5 172.5,101.5 170.5,101.5C 170.704,98.4824 171.037,95.4824 171.5,92.5C 172.262,90.7376 173.596,89.7376 175.5,89.5 Z"/></g>
<g><path style="opacity:1" fill="#bc8f76" d="M 188.5,98.5 C 188.5,98.8333 188.5,99.1667 188.5,99.5C 187.833,99.5 187.5,99.8333 187.5,100.5C 186.833,100.833 186.167,101.167 185.5,101.5C 184.504,101.586 183.671,101.252 183,100.5C 182.5,99 182,97.5 181.5,96C 186.964,87.9387 189.298,88.7721 188.5,98.5 Z"/></g>
<g><path style="opacity:1" fill="#7b3e26" d="M 197.5,92.5 C 197.298,94.9496 197.631,97.283 198.5,99.5C 198.5,100.833 198.5,102.167 198.5,103.5C 197.883,103.611 197.383,103.944 197,104.5C 196.759,101.711 196.092,99.0444 195,96.5C 194.517,97.448 194.351,98.448 194.5,99.5C 192.5,99.5 190.5,99.5 188.5,99.5C 188.5,99.1667 188.5,98.8333 188.5,98.5C 189.167,95.8333 189.833,93.1667 190.5,90.5C 191.583,90.4606 192.583,90.1272 193.5,89.5C 194.852,90.5244 196.185,91.5244 197.5,92.5 Z"/></g>
<g><path style="opacity:1" fill="#b6683b" d="M 171.5,92.5 C 171.037,95.4824 170.704,98.4824 170.5,101.5C 172.5,101.5 174.5,101.5 176.5,101.5C 174.735,102.461 172.735,102.795 170.5,102.5C 169.883,102.389 169.383,102.056 169,101.5C 168.505,99.5273 168.338,97.5273 168.5,95.5C 169.728,94.6935 170.728,93.6935 171.5,92.5 Z"/></g>
<g><path style="opacity:1" fill="#4f2214" d="M 168.5,93.5 C 168.5,94.1667 168.5,94.8333 168.5,95.5C 168.338,97.5273 168.505,99.5273 169,101.5C 169.383,102.056 169.883,102.389 170.5,102.5C 170.842,103.338 171.508,103.672 172.5,103.5C 172.733,105.062 173.4,106.395 174.5,107.5C 172.804,107.315 171.471,106.481 170.5,105C 164.851,104.243 159.184,103.743 153.5,103.5C 152.662,103.158 152.328,102.492 152.5,101.5C 155.833,101.5 159.167,101.5 162.5,101.5C 162.433,100.041 162.766,98.7079 163.5,97.5C 164.026,95.7697 165.026,94.4363 166.5,93.5C 167.396,92.4937 168.062,92.4937 168.5,93.5 Z"/></g>
<g><path style="opacity:0.341" fill="#9b6f69" d="M 222.5,87.5 C 220.615,91.1531 218.948,94.9864 217.5,99C 220.665,101.335 223.665,103.835 226.5,106.5C 226.5,107.167 226.167,107.5 225.5,107.5C 223.167,105.5 220.833,103.5 218.5,101.5C 217.449,100.778 216.782,99.7777 216.5,98.5C 216.825,93.8603 218.825,90.1936 222.5,87.5 Z"/></g>
<g><path style="opacity:1" fill="#884e31" d="M 177.5,97.5 C 177.833,97.5 178.167,97.5 178.5,97.5C 180.791,101.244 182.791,105.244 184.5,109.5C 181.839,107.342 178.839,105.842 175.5,105C 175.833,104.667 176.167,104.333 176.5,104C 175.207,103.51 173.873,103.343 172.5,103.5C 171.508,103.672 170.842,103.338 170.5,102.5C 172.735,102.795 174.735,102.461 176.5,101.5C 176.433,100.041 176.766,98.7079 177.5,97.5 Z"/></g>
<g><path style="opacity:1" fill="#6d1806" d="M 218.5,101.5 C 220.833,103.5 223.167,105.5 225.5,107.5C 226.234,108.708 226.567,110.041 226.5,111.5C 224.988,113.934 222.988,114.601 220.5,113.5C 220.611,112.883 220.944,112.383 221.5,112C 220.027,111.29 219.36,110.124 219.5,108.5C 215.552,109.874 212.219,108.874 209.5,105.5C 212.457,104.177 215.457,102.843 218.5,101.5 Z"/></g>
<g><path style="opacity:1" fill="#a7591d" d="M 205.5,97.5 C 203.31,102.571 202.31,107.904 202.5,113.5C 202.158,114.338 201.492,114.672 200.5,114.5C 200.13,110.767 199.463,107.101 198.5,103.5C 198.5,102.167 198.5,100.833 198.5,99.5C 199.117,99.6107 199.617,99.944 200,100.5C 200.626,98.0087 201.459,98.0087 202.5,100.5C 203.735,99.6602 204.735,98.6602 205.5,97.5 Z"/></g>
<g><path style="opacity:0.29" fill="#554248" d="M 153.5,103.5 C 159.184,103.743 164.851,104.243 170.5,105C 171.471,106.481 172.804,107.315 174.5,107.5C 174.833,108.167 175.167,108.833 175.5,109.5C 172.91,108.872 170.577,107.705 168.5,106C 163.988,106.062 159.321,105.728 154.5,105C 153.944,104.617 153.611,104.117 153.5,103.5 Z"/></g>
<g><path style="opacity:0.741" fill="#978a86" d="M 229.5,103.5 C 231.914,104.911 233.581,106.911 234.5,109.5C 232.086,108.089 230.419,106.089 229.5,103.5 Z"/></g>
<g><path style="opacity:1" fill="#741b09" d="M 209.5,105.5 C 212.219,108.874 215.552,109.874 219.5,108.5C 219.36,110.124 220.027,111.29 221.5,112C 220.944,112.383 220.611,112.883 220.5,113.5C 216.615,112.095 212.615,111.095 208.5,110.5C 207.89,109.609 207.557,108.609 207.5,107.5C 207.5,106.167 208.167,105.5 209.5,105.5 Z"/></g>
<g><path style="opacity:1" fill="#763d25" d="M 187.5,100.5 C 187.414,101.496 187.748,102.329 188.5,103C 194.472,102.138 196.805,104.638 195.5,110.5C 192.813,110.336 190.146,110.503 187.5,111C 186.027,111.71 185.36,112.876 185.5,114.5C 184.391,114.443 183.391,114.11 182.5,113.5C 182.5,113.167 182.5,112.833 182.5,112.5C 180.794,110.464 178.461,109.464 175.5,109.5C 175.167,108.833 174.833,108.167 174.5,107.5C 173.4,106.395 172.733,105.062 172.5,103.5C 173.873,103.343 175.207,103.51 176.5,104C 176.167,104.333 175.833,104.667 175.5,105C 178.839,105.842 181.839,107.342 184.5,109.5C 185.833,109.5 187.167,109.5 188.5,109.5C 188.421,108.07 188.754,106.736 189.5,105.5C 187.312,104.759 185.312,104.426 183.5,104.5C 184.193,103.482 184.859,102.482 185.5,101.5C 186.167,101.167 186.833,100.833 187.5,100.5 Z"/></g>
<g><path style="opacity:0.502" fill="#5a2e2f" d="M 205.5,104.5 C 205.427,106.027 206.094,107.027 207.5,107.5C 207.557,108.609 207.89,109.609 208.5,110.5C 206.57,110.229 205.236,109.229 204.5,107.5C 204.263,106.209 204.596,105.209 205.5,104.5 Z"/></g>
<g><path style="opacity:1" fill="#5b3a31" d="M 229.5,103.5 C 230.419,106.089 232.086,108.089 234.5,109.5C 237.453,110.817 240.453,111.817 243.5,112.5C 241.585,112.216 239.919,112.549 238.5,113.5C 238.167,113.5 237.833,113.5 237.5,113.5C 236.833,113.5 236.167,113.5 235.5,113.5C 235.5,112.5 235.5,111.5 235.5,110.5C 234.07,110.579 232.736,110.246 231.5,109.5C 230.335,110.491 229.168,111.491 228,112.5C 227.235,112.43 226.735,112.097 226.5,111.5C 226.567,110.041 226.234,108.708 225.5,107.5C 226.167,107.5 226.5,107.167 226.5,106.5C 227.272,105.306 228.272,104.306 229.5,103.5 Z"/></g>
<g><path style="opacity:0.263" fill="#372a2f" d="M 175.5,109.5 C 178.461,109.464 180.794,110.464 182.5,112.5C 179.843,112.065 177.509,111.065 175.5,109.5 Z"/></g>
<g><path style="opacity:0.408" fill="#c89163" d="M 266.5,110.5 C 271.327,109.848 273.16,111.848 272,116.5C 271.329,117.252 270.496,117.586 269.5,117.5C 270.355,116.469 271.022,115.303 271.5,114C 271.43,113.235 271.097,112.735 270.5,112.5C 269.005,112.011 267.671,111.345 266.5,110.5 Z"/></g>
<g><path style="opacity:1" fill="#632a0f" d="M 198.5,103.5 C 199.463,107.101 200.13,110.767 200.5,114.5C 195.5,114.5 190.5,114.5 185.5,114.5C 185.36,112.876 186.027,111.71 187.5,111C 190.146,110.503 192.813,110.336 195.5,110.5C 196.805,104.638 194.472,102.138 188.5,103C 187.748,102.329 187.414,101.496 187.5,100.5C 187.5,99.8333 187.833,99.5 188.5,99.5C 190.5,99.5 192.5,99.5 194.5,99.5C 194.351,98.448 194.517,97.448 195,96.5C 196.092,99.0444 196.759,101.711 197,104.5C 197.383,103.944 197.883,103.611 198.5,103.5 Z"/></g>
<g><path style="opacity:0.204" fill="#a1877a" d="M 257.5,111.5 C 256.833,112.833 255.833,113.833 254.5,114.5C 249.473,114.497 244.473,114.164 239.5,113.5C 239.167,113.5 238.833,113.5 238.5,113.5C 239.919,112.549 241.585,112.216 243.5,112.5C 248.217,113.495 252.884,113.162 257.5,111.5 Z"/></g>
<g><path style="opacity:1" fill="#e47e29" d="M 266.5,110.5 C 267.671,111.345 269.005,112.011 270.5,112.5C 269.232,114.387 267.399,115.387 265,115.5C 262.6,115.198 260.434,114.532 258.5,113.5C 258.557,112.391 258.89,111.391 259.5,110.5C 261.833,109.167 264.167,109.167 266.5,110.5 Z"/></g>
<g><path style="opacity:1" fill="#552921" d="M 235.5,113.5 C 235.631,114.376 235.298,115.043 234.5,115.5C 232.817,114.408 230.984,113.741 229,113.5C 226.528,114.322 224.028,114.989 221.5,115.5C 216.856,114.401 212.522,112.734 208.5,110.5C 212.615,111.095 216.615,112.095 220.5,113.5C 222.988,114.601 224.988,113.934 226.5,111.5C 226.735,112.097 227.235,112.43 228,112.5C 229.168,111.491 230.335,110.491 231.5,109.5C 232.736,110.246 234.07,110.579 235.5,110.5C 235.5,111.5 235.5,112.5 235.5,113.5 Z"/></g>
<g><path style="opacity:0.698" fill="#3ea1bf" d="M 203.5,113.5 C 206.599,114.533 207.266,116.533 205.5,119.5C 204.833,118.5 204.167,117.5 203.5,116.5C 203.5,115.5 203.5,114.5 203.5,113.5 Z"/></g>
<g><path style="opacity:1" fill="#7b4733" d="M 239.5,113.5 C 244.473,114.164 249.473,114.497 254.5,114.5C 254.56,118.485 252.56,120.152 248.5,119.5C 244.892,119.464 242.559,121.131 241.5,124.5C 239.327,123.834 238.993,122.667 240.5,121C 242.247,118.311 244.247,116.645 246.5,116C 244.5,115.667 242.5,115.333 240.5,115C 239.944,114.617 239.611,114.117 239.5,113.5 Z"/></g>
<g><path style="opacity:1" fill="#6b3723" d="M 259.5,110.5 C 258.89,111.391 258.557,112.391 258.5,113.5C 257.226,114.189 257.226,115.023 258.5,116C 262.145,116.719 265.812,117.219 269.5,117.5C 267.469,117.972 265.802,118.972 264.5,120.5C 263.5,120.5 262.5,120.5 261.5,120.5C 261.5,119.5 261.5,118.5 261.5,117.5C 257.949,118.512 254.449,119.845 251,121.5C 249.699,121.361 248.866,120.695 248.5,119.5C 252.56,120.152 254.56,118.485 254.5,114.5C 255.833,113.833 256.833,112.833 257.5,111.5C 257.842,110.662 258.508,110.328 259.5,110.5 Z"/></g>
<g><path style="opacity:1" fill="#55cfe3" d="M 182.5,113.5 C 183.391,114.11 184.391,114.443 185.5,114.5C 185.5,114.833 185.5,115.167 185.5,115.5C 185.719,116.675 185.386,117.675 184.5,118.5C 183.583,117.873 182.583,117.539 181.5,117.5C 181.232,115.901 181.566,114.568 182.5,113.5 Z"/></g>
<g><path style="opacity:1" fill="#9b3e14" d="M 270.5,112.5 C 271.097,112.735 271.43,113.235 271.5,114C 271.022,115.303 270.355,116.469 269.5,117.5C 265.812,117.219 262.145,116.719 258.5,116C 257.226,115.023 257.226,114.189 258.5,113.5C 260.434,114.532 262.6,115.198 265,115.5C 267.399,115.387 269.232,114.387 270.5,112.5 Z"/></g>
<g><path style="opacity:1" fill="#2a5b6b" d="M 202.5,113.5 C 202.833,113.5 203.167,113.5 203.5,113.5C 203.5,114.5 203.5,115.5 203.5,116.5C 198.227,119.003 192.561,120.003 186.5,119.5C 186.768,117.901 186.434,116.568 185.5,115.5C 185.5,115.167 185.5,114.833 185.5,114.5C 190.5,114.5 195.5,114.5 200.5,114.5C 201.492,114.672 202.158,114.338 202.5,113.5 Z"/></g>
<g><path style="opacity:1" fill="#2e1510" d="M 235.5,113.5 C 236.167,113.5 236.833,113.5 237.5,113.5C 238.027,117.69 236.694,121.023 233.5,123.5C 233.5,123.167 233.5,122.833 233.5,122.5C 232.486,121.235 230.986,120.569 229,120.5C 227.293,120.508 225.793,120.842 224.5,121.5C 222.418,120.415 222.084,118.915 223.5,117C 222.584,116.722 221.918,116.222 221.5,115.5C 224.028,114.989 226.528,114.322 229,113.5C 230.984,113.741 232.817,114.408 234.5,115.5C 235.298,115.043 235.631,114.376 235.5,113.5 Z"/></g>
<g><path style="opacity:1" fill="#3187b9" d="M 185.5,115.5 C 186.434,116.568 186.768,117.901 186.5,119.5C 185.761,119.369 185.094,119.536 184.5,120C 186.577,120.192 188.577,120.692 190.5,121.5C 191.127,122.417 191.461,123.417 191.5,124.5C 189.971,124.681 188.304,125.014 186.5,125.5C 185.519,128.974 183.519,131.641 180.5,133.5C 181.037,131.289 182.037,129.289 183.5,127.5C 183.122,125.283 182.455,123.283 181.5,121.5C 182.833,120.167 182.833,118.833 181.5,117.5C 182.583,117.539 183.583,117.873 184.5,118.5C 185.386,117.675 185.719,116.675 185.5,115.5 Z"/></g>
<g><path style="opacity:0.18" fill="#48444d" d="M 224.5,121.5 C 225.793,120.842 227.293,120.508 229,120.5C 230.986,120.569 232.486,121.235 233.5,122.5C 230.375,121.703 227.375,121.37 224.5,121.5 Z"/></g>
<g><path style="opacity:1" fill="#562715" d="M 237.5,113.5 C 237.833,113.5 238.167,113.5 238.5,113.5C 238.833,113.5 239.167,113.5 239.5,113.5C 239.611,114.117 239.944,114.617 240.5,115C 242.5,115.333 244.5,115.667 246.5,116C 244.247,116.645 242.247,118.311 240.5,121C 238.993,122.667 239.327,123.834 241.5,124.5C 241.5,125.5 241.5,126.5 241.5,127.5C 241.5,128.167 241.167,128.5 240.5,128.5C 240.67,127.178 240.337,126.011 239.5,125C 237.527,124.505 235.527,124.338 233.5,124.5C 233.5,124.167 233.5,123.833 233.5,123.5C 236.694,121.023 238.027,117.69 237.5,113.5 Z"/></g>
<g><path style="opacity:1" fill="#381911" d="M 261.5,120.5 C 259.403,123.053 257.07,125.386 254.5,127.5C 253.609,128.11 252.609,128.443 251.5,128.5C 251.577,127.25 252.244,126.417 253.5,126C 252.944,125.617 252.611,125.117 252.5,124.5C 248.556,123.739 244.89,124.739 241.5,127.5C 241.5,126.5 241.5,125.5 241.5,124.5C 242.559,121.131 244.892,119.464 248.5,119.5C 248.866,120.695 249.699,121.361 251,121.5C 254.449,119.845 257.949,118.512 261.5,117.5C 261.5,118.5 261.5,119.5 261.5,120.5 Z"/></g>
<g><path style="opacity:1" fill="#143c5b" d="M 203.5,116.5 C 204.167,117.5 204.833,118.5 205.5,119.5C 205.5,120.167 205.5,120.833 205.5,121.5C 205.5,122.833 204.833,123.5 203.5,123.5C 200.014,125.598 196.348,127.431 192.5,129C 193.056,129.383 193.389,129.883 193.5,130.5C 191.297,130.604 189.297,131.27 187.5,132.5C 187.565,132.062 187.399,131.728 187,131.5C 185.333,133.167 183.667,134.833 182,136.5C 182.382,133.45 184.049,131.117 187,129.5C 187.483,128.552 187.649,127.552 187.5,126.5C 189.262,126.357 190.929,126.691 192.5,127.5C 193.665,126.14 193.332,125.14 191.5,124.5C 191.461,123.417 191.127,122.417 190.5,121.5C 188.577,120.692 186.577,120.192 184.5,120C 185.094,119.536 185.761,119.369 186.5,119.5C 192.561,120.003 198.227,119.003 203.5,116.5 Z"/></g>
<g><path style="opacity:0.675" fill="#9f7753" d="M 264.5,120.5 C 265.496,120.414 266.329,120.748 267,121.5C 267.5,124 268,126.5 268.5,129C 268.472,130.07 268.139,130.903 267.5,131.5C 267.167,131.5 266.833,131.5 266.5,131.5C 266.5,130.5 266.5,129.5 266.5,128.5C 266.44,125.659 265.774,122.993 264.5,120.5 Z"/></g>
<g><path style="opacity:1" fill="#7e300b" d="M 261.5,120.5 C 262.5,120.5 263.5,120.5 264.5,120.5C 265.774,122.993 266.44,125.659 266.5,128.5C 265.185,127.524 263.852,126.524 262.5,125.5C 261.614,126.325 261.281,127.325 261.5,128.5C 260.504,128.414 259.671,128.748 259,129.5C 257.67,128.418 256.17,127.751 254.5,127.5C 257.07,125.386 259.403,123.053 261.5,120.5 Z"/></g>
<g><path style="opacity:1" fill="#4da3da" d="M 181.5,121.5 C 182.455,123.283 183.122,125.283 183.5,127.5C 182.037,129.289 181.037,131.289 180.5,133.5C 179.5,135.167 178.167,136.5 176.5,137.5C 177.71,135.448 178.71,133.282 179.5,131C 179.041,129.058 178.041,127.558 176.5,126.5C 177.833,124.5 179.5,122.833 181.5,121.5 Z"/></g>
<g><path style="opacity:1" fill="#164773" d="M 205.5,121.5 C 206.492,121.328 207.158,121.662 207.5,122.5C 208.167,123.833 209.167,124.833 210.5,125.5C 204.155,128.907 204.155,132.574 210.5,136.5C 210.5,137.5 210.5,138.5 210.5,139.5C 208.475,137.804 206.475,136.137 204.5,134.5C 203.489,132.494 202.489,130.494 201.5,128.5C 202.187,126.823 202.854,125.156 203.5,123.5C 204.833,123.5 205.5,122.833 205.5,121.5 Z"/></g>
<g><path style="opacity:1" fill="#e16d1e" d="M 233.5,124.5 C 235.527,124.338 237.527,124.505 239.5,125C 240.337,126.011 240.67,127.178 240.5,128.5C 240.5,129.167 240.167,129.5 239.5,129.5C 236.022,129.816 232.688,129.316 229.5,128C 231.093,127.051 232.426,125.885 233.5,124.5 Z"/></g>
<g><path style="opacity:0.388" fill="#746361" d="M 252.5,124.5 C 250.049,125.894 247.382,126.728 244.5,127C 241.301,131.448 237.301,133.281 232.5,132.5C 235.481,132.818 237.815,131.818 239.5,129.5C 240.167,129.5 240.5,129.167 240.5,128.5C 241.167,128.5 241.5,128.167 241.5,127.5C 244.89,124.739 248.556,123.739 252.5,124.5 Z"/></g>
<g><path style="opacity:1" fill="#864422" d="M 254.5,127.5 C 256.17,127.751 257.67,128.418 259,129.5C 259.671,128.748 260.504,128.414 261.5,128.5C 262.401,130.727 264.067,131.727 266.5,131.5C 266.833,131.5 267.167,131.5 267.5,131.5C 267.189,132.478 266.522,133.145 265.5,133.5C 263.668,132.752 262.001,131.752 260.5,130.5C 257.71,133.291 254.543,133.958 251,132.5C 250.421,131.072 250.588,129.738 251.5,128.5C 252.609,128.443 253.609,128.11 254.5,127.5 Z"/></g>
<g><path style="opacity:1" fill="#e07022" d="M 266.5,128.5 C 266.5,129.5 266.5,130.5 266.5,131.5C 264.067,131.727 262.401,130.727 261.5,128.5C 261.281,127.325 261.614,126.325 262.5,125.5C 263.852,126.524 265.185,127.524 266.5,128.5 Z"/></g>
<g><path style="opacity:1" fill="#266ea8" d="M 210.5,125.5 C 216.113,128.113 220.446,132.113 223.5,137.5C 222.549,138.919 222.216,140.585 222.5,142.5C 221.5,142.5 220.5,142.5 219.5,142.5C 220.822,140.689 221.322,138.689 221,136.5C 218.833,134.333 216.667,132.167 214.5,130C 212.323,128.798 209.989,128.298 207.5,128.5C 207.351,129.552 207.517,130.552 208,131.5C 211.422,133.004 212.589,135.338 211.5,138.5C 211.672,137.508 211.338,136.842 210.5,136.5C 204.155,132.574 204.155,128.907 210.5,125.5 Z"/></g>
<g><path style="opacity:1" fill="#aa4c1e" d="M 233.5,124.5 C 232.426,125.885 231.093,127.051 229.5,128C 232.688,129.316 236.022,129.816 239.5,129.5C 237.815,131.818 235.481,132.818 232.5,132.5C 228.736,131.615 227.736,129.448 229.5,126C 230.745,125.209 232.078,124.709 233.5,124.5 Z"/></g>
<g><path style="opacity:0.878" fill="#0e294e" d="M 203.5,123.5 C 202.854,125.156 202.187,126.823 201.5,128.5C 202.489,130.494 203.489,132.494 204.5,134.5C 201.161,132.386 197.495,131.053 193.5,130.5C 193.389,129.883 193.056,129.383 192.5,129C 196.348,127.431 200.014,125.598 203.5,123.5 Z"/></g>
<g><path style="opacity:1" fill="#296593" d="M 191.5,124.5 C 193.332,125.14 193.665,126.14 192.5,127.5C 190.929,126.691 189.262,126.357 187.5,126.5C 187.649,127.552 187.483,128.552 187,129.5C 184.049,131.117 182.382,133.45 182,136.5C 183.667,134.833 185.333,133.167 187,131.5C 187.399,131.728 187.565,132.062 187.5,132.5C 186.207,134.296 184.707,135.963 183,137.5C 181.889,141.944 179.889,145.944 177,149.5C 176.506,151.134 176.34,152.801 176.5,154.5C 175.833,154.5 175.167,154.5 174.5,154.5C 174.34,152.801 174.506,151.134 175,149.5C 177.241,146.052 179.074,142.386 180.5,138.5C 180.167,138.167 179.833,137.833 179.5,137.5C 176.868,140.799 173.868,143.799 170.5,146.5C 172.171,148.51 172.838,150.843 172.5,153.5C 172.167,153.5 171.833,153.5 171.5,153.5C 170.508,153.672 169.842,153.338 169.5,152.5C 167.901,148.428 168.568,144.761 171.5,141.5C 173.179,140.084 174.846,138.75 176.5,137.5C 178.167,136.5 179.5,135.167 180.5,133.5C 183.519,131.641 185.519,128.974 186.5,125.5C 188.304,125.014 189.971,124.681 191.5,124.5 Z"/></g>
<g><path style="opacity:1" fill="#50afe3" d="M 176.5,126.5 C 178.041,127.558 179.041,129.058 179.5,131C 178.71,133.282 177.71,135.448 176.5,137.5C 174.846,138.75 173.179,140.084 171.5,141.5C 169.629,141.141 168.129,140.141 167,138.5C 166.329,139.252 165.496,139.586 164.5,139.5C 168.5,135.167 172.5,130.833 176.5,126.5 Z"/></g>
<g><path style="opacity:0.694" fill="#63a3cd" d="M 207.5,122.5 C 213.663,125.483 219.163,129.483 224,134.5C 225.022,136.702 225.522,139.035 225.5,141.5C 225.038,145.546 224.372,149.546 223.5,153.5C 222.833,154.167 222.167,154.833 221.5,155.5C 221.5,154.833 221.5,154.167 221.5,153.5C 223.808,148.3 224.475,142.967 223.5,137.5C 220.446,132.113 216.113,128.113 210.5,125.5C 209.167,124.833 208.167,123.833 207.5,122.5 Z"/></g>
<g><path style="opacity:1" fill="#3a8fc9" d="M 219.5,142.5 C 217.834,143.666 216.167,143.666 214.5,142.5C 215.025,141.808 215.692,141.308 216.5,141C 214.256,140.95 212.589,140.117 211.5,138.5C 212.589,135.338 211.422,133.004 208,131.5C 207.517,130.552 207.351,129.552 207.5,128.5C 209.989,128.298 212.323,128.798 214.5,130C 216.667,132.167 218.833,134.333 221,136.5C 221.322,138.689 220.822,140.689 219.5,142.5 Z"/></g>
<g><path style="opacity:1" fill="#0b426c" d="M 174.5,154.5 C 174.167,154.5 173.833,154.5 173.5,154.5C 173.5,153.833 173.167,153.5 172.5,153.5C 172.838,150.843 172.171,148.51 170.5,146.5C 173.868,143.799 176.868,140.799 179.5,137.5C 179.833,137.833 180.167,138.167 180.5,138.5C 179.074,142.386 177.241,146.052 175,149.5C 174.506,151.134 174.34,152.801 174.5,154.5 Z"/></g>
<g><path style="opacity:1" fill="#3c8cc9" d="M 171.5,141.5 C 168.568,144.761 167.901,148.428 169.5,152.5C 166.374,151.771 163.707,150.271 161.5,148C 162.414,146.594 163.08,145.094 163.5,143.5C 163.833,142.167 164.167,140.833 164.5,139.5C 165.496,139.586 166.329,139.252 167,138.5C 168.129,140.141 169.629,141.141 171.5,141.5 Z"/></g>
<g><path style="opacity:1" fill="#154e80" d="M 210.5,136.5 C 211.338,136.842 211.672,137.508 211.5,138.5C 212.589,140.117 214.256,140.95 216.5,141C 215.692,141.308 215.025,141.808 214.5,142.5C 216.167,143.666 217.834,143.666 219.5,142.5C 220.5,142.5 221.5,142.5 222.5,142.5C 222.216,140.585 222.549,138.919 223.5,137.5C 224.475,142.967 223.808,148.3 221.5,153.5C 220.532,151.393 220.198,149.059 220.5,146.5C 217.308,146.595 214.308,145.929 211.5,144.5C 210.833,144.167 210.167,143.833 209.5,143.5C 210.234,142.292 210.567,140.959 210.5,139.5C 210.5,138.5 210.5,137.5 210.5,136.5 Z"/></g>
<g><path style="opacity:1" fill="#2b86c8" d="M 209.5,143.5 C 210.167,143.833 210.833,144.167 211.5,144.5C 213.631,146.685 216.297,148.018 219.5,148.5C 218.167,150.5 218.167,152.5 219.5,154.5C 218.05,155.85 217.383,157.516 217.5,159.5C 216.167,159.5 214.833,159.5 213.5,159.5C 217.057,156.754 217.89,153.42 216,149.5C 213.541,148.351 211.041,148.351 208.5,149.5C 207.5,148.833 206.5,148.167 205.5,147.5C 206.5,145.833 207.833,144.5 209.5,143.5 Z"/></g>
<g><path style="opacity:1" fill="#55c7f6" d="M 163.5,143.5 C 163.08,145.094 162.414,146.594 161.5,148C 163.707,150.271 166.374,151.771 169.5,152.5C 169.842,153.338 170.508,153.672 171.5,153.5C 171.625,156.893 169.958,158.226 166.5,157.5C 162.628,156.799 160.128,154.466 159,150.5C 158.31,151.738 157.81,151.738 157.5,150.5C 158.8,147.568 160.8,145.234 163.5,143.5 Z"/></g>
<g><path style="opacity:0.557" fill="#10588f" d="M 202.5,151.5 C 202.615,153.947 203.615,155.947 205.5,157.5C 205.167,157.5 204.833,157.5 204.5,157.5C 201.651,156.08 200.984,154.08 202.5,151.5 Z"/></g>
<g><path style="opacity:1" fill="#3093d9" d="M 157.5,150.5 C 157.81,151.738 158.31,151.738 159,150.5C 160.128,154.466 162.628,156.799 166.5,157.5C 169.958,158.226 171.625,156.893 171.5,153.5C 171.833,153.5 172.167,153.5 172.5,153.5C 173.167,153.5 173.5,153.833 173.5,154.5C 173.5,154.833 173.5,155.167 173.5,155.5C 171.453,158.686 168.453,160.019 164.5,159.5C 163.833,159.5 163.167,159.5 162.5,159.5C 162.027,158.094 161.027,157.427 159.5,157.5C 155.468,155.834 154.801,153.5 157.5,150.5 Z"/></g>
<g><path style="opacity:1" fill="#3687ae" d="M 173.5,154.5 C 173.833,154.5 174.167,154.5 174.5,154.5C 174.343,155.873 174.51,157.207 175,158.5C 175.383,157.944 175.883,157.611 176.5,157.5C 175.89,159.434 174.89,161.101 173.5,162.5C 173.135,160.412 173.135,158.079 173.5,155.5C 173.5,155.167 173.5,154.833 173.5,154.5 Z"/></g>
<g><path style="opacity:0.973" fill="#76dff2" d="M 174.5,154.5 C 175.167,154.5 175.833,154.5 176.5,154.5C 176.5,155.5 176.5,156.5 176.5,157.5C 175.883,157.611 175.383,157.944 175,158.5C 174.51,157.207 174.343,155.873 174.5,154.5 Z"/></g>
<g><path style="opacity:1" fill="#60d1f6" d="M 205.5,147.5 C 206.5,148.167 207.5,148.833 208.5,149.5C 210.148,150.927 212.148,151.76 214.5,152C 215.303,156.377 213.303,158.543 208.5,158.5C 207.609,157.89 206.609,157.557 205.5,157.5C 203.615,155.947 202.615,153.947 202.5,151.5C 202.738,149.596 203.738,148.262 205.5,147.5 Z"/></g>
<g><path style="opacity:1" fill="#3daade" d="M 213.5,159.5 C 213.167,159.5 212.833,159.5 212.5,159.5C 210.901,159.768 209.568,159.434 208.5,158.5C 213.303,158.543 215.303,156.377 214.5,152C 212.148,151.76 210.148,150.927 208.5,149.5C 211.041,148.351 213.541,148.351 216,149.5C 217.89,153.42 217.057,156.754 213.5,159.5 Z"/></g>
<g><path style="opacity:1" fill="#1c75b6" d="M 211.5,144.5 C 214.308,145.929 217.308,146.595 220.5,146.5C 220.198,149.059 220.532,151.393 221.5,153.5C 221.5,154.167 221.5,154.833 221.5,155.5C 221.296,157.685 220.63,159.685 219.5,161.5C 217.167,161.5 214.833,161.5 212.5,161.5C 212.5,160.833 212.5,160.167 212.5,159.5C 212.833,159.5 213.167,159.5 213.5,159.5C 214.833,159.5 216.167,159.5 217.5,159.5C 217.383,157.516 218.05,155.85 219.5,154.5C 218.167,152.5 218.167,150.5 219.5,148.5C 216.297,148.018 213.631,146.685 211.5,144.5 Z"/></g>
<g><path style="opacity:0.733" fill="#85dcf1" d="M 223.5,153.5 C 223.741,157.019 222.407,159.685 219.5,161.5C 220.63,159.685 221.296,157.685 221.5,155.5C 222.167,154.833 222.833,154.167 223.5,153.5 Z"/></g>
<g><path style="opacity:1" fill="#6d3b27" d="M 159.5,157.5 C 161.027,157.427 162.027,158.094 162.5,159.5C 161.5,159.5 160.5,159.5 159.5,159.5C 159.5,158.833 159.5,158.167 159.5,157.5 Z"/></g>
<g><path style="opacity:1" fill="#1a66a4" d="M 173.5,155.5 C 173.135,158.079 173.135,160.412 173.5,162.5C 172.001,163.494 170.334,163.494 168.5,162.5C 168.027,161.094 167.027,160.427 165.5,160.5C 164.833,160.5 164.5,160.167 164.5,159.5C 168.453,160.019 171.453,158.686 173.5,155.5 Z"/></g>
<g><path style="opacity:1" fill="#863e1f" d="M 204.5,157.5 C 204.833,157.5 205.167,157.5 205.5,157.5C 206.609,157.557 207.609,157.89 208.5,158.5C 209.568,159.434 210.901,159.768 212.5,159.5C 212.5,160.167 212.5,160.833 212.5,161.5C 211.662,161.842 211.328,162.508 211.5,163.5C 210.609,164.11 209.609,164.443 208.5,164.5C 208.167,162.167 206.833,160.833 204.5,160.5C 203.5,160.5 202.5,160.5 201.5,160.5C 201.5,160.167 201.5,159.833 201.5,159.5C 203.179,159.715 204.179,159.048 204.5,157.5 Z"/></g>
<g><path style="opacity:0.937" fill="#744f4b" d="M 165.5,160.5 C 167.027,160.427 168.027,161.094 168.5,162.5C 167.833,163.833 166.833,164.833 165.5,165.5C 166.562,163.766 166.562,162.099 165.5,160.5 Z"/></g>
<g><path style="opacity:0.647" fill="#b03644" d="M 201.5,159.5 C 201.5,159.833 201.5,160.167 201.5,160.5C 201.536,163.461 200.536,165.794 198.5,167.5C 198.603,164.364 199.603,161.698 201.5,159.5 Z"/></g>
<g><path style="opacity:1" fill="#dd6b20" d="M 159.5,159.5 C 160.5,159.5 161.5,159.5 162.5,159.5C 163.355,160.531 164.022,161.697 164.5,163C 163.394,164.858 162.394,166.692 161.5,168.5C 158.5,168.833 157.167,167.5 157.5,164.5C 157.796,162.597 158.463,160.93 159.5,159.5 Z"/></g>
<g><path style="opacity:1" fill="#dd611b" d="M 204.5,160.5 C 206.833,160.833 208.167,162.167 208.5,164.5C 208.5,164.833 208.5,165.167 208.5,165.5C 208.167,165.5 207.833,165.5 207.5,165.5C 206.292,166.234 204.959,166.567 203.5,166.5C 203.833,164.5 204.167,162.5 204.5,160.5 Z"/></g>
<g><path style="opacity:1" fill="#410e14" d="M 211.5,163.5 C 212.492,163.328 213.158,163.662 213.5,164.5C 213.5,165.167 213.167,165.5 212.5,165.5C 210.965,166.354 209.632,166.354 208.5,165.5C 208.5,165.167 208.5,164.833 208.5,164.5C 209.609,164.443 210.609,164.11 211.5,163.5 Z"/></g>
<g><path style="opacity:1" fill="#a62218" d="M 156.5,164.5 C 156.833,164.5 157.167,164.5 157.5,164.5C 157.167,167.5 158.5,168.833 161.5,168.5C 161.027,169.906 160.027,170.573 158.5,170.5C 156.938,170.267 155.605,169.6 154.5,168.5C 154.389,167.883 154.056,167.383 153.5,167C 154.942,166.623 155.942,165.79 156.5,164.5 Z"/></g>
<g><path style="opacity:0.353" fill="#a96362" d="M 156.5,164.5 C 155.942,165.79 154.942,166.623 153.5,167C 154.056,167.383 154.389,167.883 154.5,168.5C 153.662,168.842 153.328,169.508 153.5,170.5C 153.167,170.5 152.833,170.5 152.5,170.5C 151.599,166.759 152.932,164.759 156.5,164.5 Z"/></g>
<g><path style="opacity:1" fill="#8f0e13" d="M 207.5,165.5 C 207.833,165.5 208.167,165.5 208.5,165.5C 209.632,166.354 210.965,166.354 212.5,165.5C 210.465,167.709 208.132,169.709 205.5,171.5C 206.808,172.626 208.142,172.626 209.5,171.5C 210.167,171.833 210.833,172.167 211.5,172.5C 210.058,173.82 209.392,175.486 209.5,177.5C 208.833,178.833 208.167,178.833 207.5,177.5C 208.782,176.292 208.782,174.958 207.5,173.5C 205.591,174.348 203.591,174.682 201.5,174.5C 201.993,172.194 202.326,169.861 202.5,167.5C 204.781,167.923 206.448,167.256 207.5,165.5 Z"/></g>
<g><path style="opacity:1" fill="#865c5c" d="M 213.5,164.5 C 214.465,165.721 214.298,167.054 213,168.5C 211.855,169.636 210.688,170.636 209.5,171.5C 208.142,172.626 206.808,172.626 205.5,171.5C 208.132,169.709 210.465,167.709 212.5,165.5C 213.167,165.5 213.5,165.167 213.5,164.5 Z"/></g>
<g><path style="opacity:1" fill="#8d342a" d="M 162.5,159.5 C 163.167,159.5 163.833,159.5 164.5,159.5C 164.5,160.167 164.833,160.5 165.5,160.5C 166.562,162.099 166.562,163.766 165.5,165.5C 165.586,166.496 165.252,167.329 164.5,168C 165.756,168.417 166.423,169.25 166.5,170.5C 165.713,172.104 164.38,172.771 162.5,172.5C 160.847,172.34 159.514,171.674 158.5,170.5C 160.027,170.573 161.027,169.906 161.5,168.5C 162.394,166.692 163.394,164.858 164.5,163C 164.022,161.697 163.355,160.531 162.5,159.5 Z"/></g>
<g><path style="opacity:1" fill="#942626" d="M 152.5,170.5 C 152.833,170.5 153.167,170.5 153.5,170.5C 155.23,171.026 156.564,172.026 157.5,173.5C 157.5,173.833 157.5,174.167 157.5,174.5C 155.486,174.608 153.82,173.942 152.5,172.5C 152.5,171.833 152.5,171.167 152.5,170.5 Z"/></g>
<g><path style="opacity:1" fill="#e0c0b7" d="M 154.5,168.5 C 155.605,169.6 156.938,170.267 158.5,170.5C 159.514,171.674 160.847,172.34 162.5,172.5C 161.081,173.451 159.415,173.784 157.5,173.5C 156.564,172.026 155.23,171.026 153.5,170.5C 153.328,169.508 153.662,168.842 154.5,168.5 Z"/></g>
<g><path style="opacity:0.341" fill="#a43f46" d="M 230.5,171.5 C 228.833,172.167 227.167,172.833 225.5,173.5C 224.167,173.5 222.833,173.5 221.5,173.5C 220.833,173.5 220.167,173.5 219.5,173.5C 219.5,172.833 219.833,172.5 220.5,172.5C 223.786,171.793 227.119,171.46 230.5,171.5 Z"/></g>
<g><path style="opacity:1" fill="#ad2121" d="M 201.5,160.5 C 202.5,160.5 203.5,160.5 204.5,160.5C 204.167,162.5 203.833,164.5 203.5,166.5C 204.959,166.567 206.292,166.234 207.5,165.5C 206.448,167.256 204.781,167.923 202.5,167.5C 202.326,169.861 201.993,172.194 201.5,174.5C 203.591,174.682 205.591,174.348 207.5,173.5C 208.782,174.958 208.782,176.292 207.5,177.5C 206.167,177.5 204.833,177.5 203.5,177.5C 199.944,177.722 197.277,176.389 195.5,173.5C 196.514,171.426 197.514,169.426 198.5,167.5C 200.536,165.794 201.536,163.461 201.5,160.5 Z"/></g>
<g><path style="opacity:1" fill="#da4f4c" d="M 230.5,171.5 C 235.647,171.247 239.98,172.913 243.5,176.5C 241.883,175.962 240.216,175.629 238.5,175.5C 236.858,173.919 234.858,173.253 232.5,173.5C 232.5,175.5 232.5,177.5 232.5,179.5C 231.127,179.657 229.793,179.49 228.5,179C 228.011,176.791 227.011,174.958 225.5,173.5C 227.167,172.833 228.833,172.167 230.5,171.5 Z"/></g>
<g><path style="opacity:1" fill="#dfc8bd" d="M 214.5,172.5 C 213.046,174.437 211.379,176.103 209.5,177.5C 209.392,175.486 210.058,173.82 211.5,172.5C 212.5,171.167 213.5,171.167 214.5,172.5 Z"/></g>
<g><path style="opacity:1" fill="#debbb5" d="M 152.5,172.5 C 153.82,173.942 155.486,174.608 157.5,174.5C 158.043,174.56 158.376,174.893 158.5,175.5C 157.675,176.386 156.675,176.719 155.5,176.5C 154.292,175.766 152.959,175.433 151.5,175.5C 151.263,174.209 151.596,173.209 152.5,172.5 Z"/></g>
<g><path style="opacity:1" fill="#c31d1e" d="M 219.5,173.5 C 220.167,173.5 220.833,173.5 221.5,173.5C 222.718,174.161 224.051,174.828 225.5,175.5C 223.896,177.179 223.229,179.179 223.5,181.5C 227.846,181.666 232.179,181.499 236.5,181C 238.192,179.599 238.859,177.766 238.5,175.5C 240.216,175.629 241.883,175.962 243.5,176.5C 243.92,178.094 244.586,179.594 245.5,181C 245.355,181.772 245.022,182.439 244.5,183C 238.555,184.162 232.555,184.662 226.5,184.5C 223.95,183.642 221.45,182.642 219,181.5C 218.444,179.115 218.61,176.782 219.5,174.5C 219.5,174.167 219.5,173.833 219.5,173.5 Z"/></g>
<g><path style="opacity:1" fill="#9d2d28" d="M 214.5,172.5 C 215.167,172.5 215.833,172.5 216.5,172.5C 216.523,174.6 215.856,176.433 214.5,178C 214.833,178.5 215.167,179 215.5,179.5C 216.612,177.581 217.946,175.914 219.5,174.5C 218.61,176.782 218.444,179.115 219,181.5C 221.45,182.642 223.95,183.642 226.5,184.5C 227.5,185.167 228.5,185.833 229.5,186.5C 226.402,186.244 223.402,185.578 220.5,184.5C 214.914,181.971 209.247,179.638 203.5,177.5C 204.833,177.5 206.167,177.5 207.5,177.5C 208.167,178.833 208.833,178.833 209.5,177.5C 211.379,176.103 213.046,174.437 214.5,172.5 Z"/></g>
<g><path style="opacity:1" fill="#dfc2b6" d="M 220.5,172.5 C 219.833,172.5 219.5,172.833 219.5,173.5C 219.5,173.833 219.5,174.167 219.5,174.5C 217.946,175.914 216.612,177.581 215.5,179.5C 215.167,179 214.833,178.5 214.5,178C 215.856,176.433 216.523,174.6 216.5,172.5C 218.035,171.646 219.368,171.646 220.5,172.5 Z"/></g>
<g><path style="opacity:1" fill="#a42a2b" d="M 151.5,175.5 C 152.959,175.433 154.292,175.766 155.5,176.5C 157.23,177.379 158.563,178.712 159.5,180.5C 159.561,182.721 158.895,183.054 157.5,181.5C 155.388,179.794 153.055,178.461 150.5,177.5C 150.833,176.833 151.167,176.167 151.5,175.5 Z"/></g>
<g><path style="opacity:1" fill="#6e2d31" d="M 166.5,170.5 C 167.043,170.56 167.376,170.893 167.5,171.5C 164.249,173.669 162.249,176.669 161.5,180.5C 159.372,183.144 157.872,186.144 157,189.5C 155.67,190.582 154.17,191.249 152.5,191.5C 154.785,188.435 155.118,185.102 153.5,181.5C 155.073,183.836 156.406,183.836 157.5,181.5C 158.895,183.054 159.561,182.721 159.5,180.5C 158.563,178.712 157.23,177.379 155.5,176.5C 156.675,176.719 157.675,176.386 158.5,175.5C 158.376,174.893 158.043,174.56 157.5,174.5C 157.5,174.167 157.5,173.833 157.5,173.5C 159.415,173.784 161.081,173.451 162.5,172.5C 164.38,172.771 165.713,172.104 166.5,170.5 Z"/></g>
<g><path style="opacity:0.804" fill="#be464d" d="M 148.5,177.5 C 148.5,178.167 148.5,178.833 148.5,179.5C 148.167,179.5 147.833,179.5 147.5,179.5C 144.36,178.359 141.027,178.192 137.5,179C 135.119,179.223 133.453,180.39 132.5,182.5C 131.167,183.5 129.833,184.5 128.5,185.5C 130.867,179.819 135.2,176.819 141.5,176.5C 143.782,177.223 146.116,177.557 148.5,177.5 Z"/></g>
<g><path style="opacity:1" fill="#d6b0a4" d="M 148.5,177.5 C 149.167,177.5 149.833,177.5 150.5,177.5C 153.055,178.461 155.388,179.794 157.5,181.5C 156.406,183.836 155.073,183.836 153.5,181.5C 153.167,181.5 152.833,181.5 152.5,181.5C 151.833,181.167 151.167,180.833 150.5,180.5C 149.833,180.167 149.167,179.833 148.5,179.5C 148.5,178.833 148.5,178.167 148.5,177.5 Z"/></g>
<g><path style="opacity:1" fill="#d9413e" d="M 221.5,173.5 C 222.833,173.5 224.167,173.5 225.5,173.5C 227.011,174.958 228.011,176.791 228.5,179C 229.793,179.49 231.127,179.657 232.5,179.5C 232.5,177.5 232.5,175.5 232.5,173.5C 234.858,173.253 236.858,173.919 238.5,175.5C 238.859,177.766 238.192,179.599 236.5,181C 232.179,181.499 227.846,181.666 223.5,181.5C 223.229,179.179 223.896,177.179 225.5,175.5C 224.051,174.828 222.718,174.161 221.5,173.5 Z"/></g>
<g><path style="opacity:0.49" fill="#d4cfcf" d="M 195.5,173.5 C 197.277,176.389 199.944,177.722 203.5,177.5C 209.247,179.638 214.914,181.971 220.5,184.5C 219.5,184.833 218.833,185.5 218.5,186.5C 211.221,183.907 203.888,181.407 196.5,179C 194.365,177.444 194.032,175.611 195.5,173.5 Z"/></g>
<g><path style="opacity:1" fill="#e13e3b" d="M 147.5,179.5 C 143.901,180.103 141.568,182.103 140.5,185.5C 139.833,185.833 139.167,186.167 138.5,186.5C 136.565,185.85 134.565,185.517 132.5,185.5C 132.5,184.5 132.5,183.5 132.5,182.5C 133.453,180.39 135.119,179.223 137.5,179C 141.027,178.192 144.36,178.359 147.5,179.5 Z"/></g>
<g><path style="opacity:1" fill="#d31b19" d="M 147.5,179.5 C 147.833,179.5 148.167,179.5 148.5,179.5C 149.167,179.833 149.833,180.167 150.5,180.5C 150.5,181.167 150.5,181.833 150.5,182.5C 148.043,186.422 144.709,187.422 140.5,185.5C 141.568,182.103 143.901,180.103 147.5,179.5 Z"/></g>
<g><path style="opacity:1" fill="#ad1010" d="M 243.5,176.5 C 244.833,177.167 245.833,178.167 246.5,179.5C 246.5,181.5 246.5,183.5 246.5,185.5C 240.879,186.354 235.212,186.687 229.5,186.5C 228.5,185.833 227.5,185.167 226.5,184.5C 232.555,184.662 238.555,184.162 244.5,183C 245.022,182.439 245.355,181.772 245.5,181C 244.586,179.594 243.92,178.094 243.5,176.5 Z"/></g>
<g><path style="opacity:1" fill="#c92c2d" d="M 132.5,182.5 C 132.5,183.5 132.5,184.5 132.5,185.5C 134.565,185.517 136.565,185.85 138.5,186.5C 138.5,188.167 138.5,189.833 138.5,191.5C 137.081,192.451 135.415,192.784 133.5,192.5C 129.2,192.185 127.533,189.851 128.5,185.5C 129.833,184.5 131.167,183.5 132.5,182.5 Z"/></g>
<g><path style="opacity:1" fill="#872624" d="M 246.5,179.5 C 247.401,180.29 248.068,181.29 248.5,182.5C 247.897,184.19 246.897,185.69 245.5,187C 239.984,187.817 234.65,187.651 229.5,186.5C 235.212,186.687 240.879,186.354 246.5,185.5C 246.5,183.5 246.5,181.5 246.5,179.5 Z"/></g>
<g><path style="opacity:1" fill="#861112" d="M 152.5,181.5 C 152.833,181.5 153.167,181.5 153.5,181.5C 155.118,185.102 154.785,188.435 152.5,191.5C 150.786,192.738 148.786,193.405 146.5,193.5C 145.833,193.5 145.167,193.5 144.5,193.5C 146.019,192.59 147.685,191.757 149.5,191C 150.304,189.229 151.471,187.729 153,186.5C 152.981,184.893 152.815,183.226 152.5,181.5 Z"/></g>
<g><path style="opacity:1" fill="#cecac7" d="M 248.5,182.5 C 250.425,186.383 249.425,189.216 245.5,191C 236.072,191.873 227.072,190.373 218.5,186.5C 218.833,185.5 219.5,184.833 220.5,184.5C 223.402,185.578 226.402,186.244 229.5,186.5C 234.65,187.651 239.984,187.817 245.5,187C 246.897,185.69 247.897,184.19 248.5,182.5 Z"/></g>
<g><path style="opacity:1" fill="#bb0d0d" d="M 150.5,182.5 C 151.449,185.029 150.782,187.362 148.5,189.5C 145.212,190.445 141.879,191.112 138.5,191.5C 138.5,189.833 138.5,188.167 138.5,186.5C 139.167,186.167 139.833,185.833 140.5,185.5C 144.709,187.422 148.043,186.422 150.5,182.5 Z"/></g>
<g><path style="opacity:1" fill="#a10807" d="M 150.5,180.5 C 151.167,180.833 151.833,181.167 152.5,181.5C 152.815,183.226 152.981,184.893 153,186.5C 151.471,187.729 150.304,189.229 149.5,191C 147.685,191.757 146.019,192.59 144.5,193.5C 140.629,193.815 136.962,193.482 133.5,192.5C 135.415,192.784 137.081,192.451 138.5,191.5C 141.879,191.112 145.212,190.445 148.5,189.5C 150.782,187.362 151.449,185.029 150.5,182.5C 150.5,181.833 150.5,181.167 150.5,180.5 Z"/></g>
<g><path style="opacity:1" fill="#8e3936" d="M 128.5,185.5 C 127.533,189.851 129.2,192.185 133.5,192.5C 136.962,193.482 140.629,193.815 144.5,193.5C 145.167,193.5 145.833,193.5 146.5,193.5C 143.375,194.479 140.042,194.813 136.5,194.5C 130.93,195.136 127.93,192.803 127.5,187.5C 127.328,186.508 127.662,185.842 128.5,185.5 Z"/></g>
<g><path style="opacity:0.573" fill="#c3c0bb" d="M 161.5,180.5 C 162.613,181.946 162.78,183.613 162,185.5C 159.416,187.576 157.749,190.243 157,193.5C 155.188,194.977 153.355,196.31 151.5,197.5C 148.5,197.5 145.5,197.5 142.5,197.5C 140.844,195.94 138.844,194.94 136.5,194.5C 140.042,194.813 143.375,194.479 146.5,193.5C 148.786,193.405 150.786,192.738 152.5,191.5C 154.17,191.249 155.67,190.582 157,189.5C 157.872,186.144 159.372,183.144 161.5,180.5 Z"/></g>
<g><path style="opacity:1" fill="#d9d7d5" d="M 127.5,187.5 C 127.93,192.803 130.93,195.136 136.5,194.5C 138.844,194.94 140.844,195.94 142.5,197.5C 137.833,197.5 133.167,197.5 128.5,197.5C 126.12,196.537 125.12,194.703 125.5,192C 125.307,189.992 125.974,188.492 127.5,187.5 Z"/></g>
</svg>
