<?xml version="1.0" encoding="UTF-8"?>
<!DOCTYPE svg PUBLIC "-//W3C//DTD SVG 1.1//EN" "http://www.w3.org/Graphics/SVG/1.1/DTD/svg11.dtd">
<svg xmlns="http://www.w3.org/2000/svg" version="1.1" width="400px" height="198px" style="shape-rendering:geometricPrecision; text-rendering:geometricPrecision; image-rendering:optimizeQuality; fill-rule:evenodd; clip-rule:evenodd" xmlns:xlink="http://www.w3.org/1999/xlink">
<g><path style="opacity:0.02" fill="#181b0e" d="M 277.5,4.5 C 277.897,3.47498 278.563,3.30831 279.5,4C 278.906,4.46434 278.239,4.63101 277.5,4.5 Z"/></g>
<g><path style="opacity:0.029" fill="#111b1d" d="M 280.5,4.5 C 280.897,3.47498 281.563,3.30831 282.5,4C 281.906,4.46434 281.239,4.63101 280.5,4.5 Z"/></g>
<g><path style="opacity:0.039" fill="#1e1521" d="M 293.5,4.5 C 295.288,3.37753 297.288,3.21086 299.5,4C 297.527,4.49546 295.527,4.66212 293.5,4.5 Z"/></g>
<g><path style="opacity:0.064" fill="#1a1b0b" d="M 291.5,6.5 C 293.364,5.20719 295.364,5.20719 297.5,6.5C 295.484,7.69423 293.484,7.69423 291.5,6.5 Z"/></g>
<g><path style="opacity:0.045" fill="#221514" d="M 282.5,9.5 C 281.325,9.71901 280.325,9.38568 279.5,8.5C 281.052,7.20211 282.052,7.53545 282.5,9.5 Z"/></g>
<g><path style="opacity:0.02" fill="#181b0d" d="M 298.5,8.5 C 299.833,9.16667 299.833,9.16667 298.5,8.5 Z"/></g>
<g><path style="opacity:0.02" fill="#1b1822" d="M 226.5,12.5 C 227.833,13.1667 227.833,13.1667 226.5,12.5 Z"/></g>
<g><path style="opacity:0.02" fill="#1a170f" d="M 313.5,14.5 C 314.525,14.8966 314.692,15.5632 314,16.5C 313.536,15.9056 313.369,15.2389 313.5,14.5 Z"/></g>
<g><path style="opacity:0.854" fill="#0d160e" d="M 320.5,35.5 C 319.833,35.5 319.5,35.8333 319.5,36.5C 315.6,35.5701 311.6,35.2367 307.5,35.5C 310.167,34.8333 312.833,34.1667 315.5,33.5C 315.378,30.7079 314.044,28.7079 311.5,27.5C 310.4,26.4415 309.066,25.6082 307.5,25C 288.869,24.4962 288.869,23.6628 307.5,22.5C 305.287,17.8259 301.954,16.4926 297.5,18.5C 295.5,18.5 293.5,18.5 291.5,18.5C 290.494,18.0623 290.494,17.3957 291.5,16.5C 292.5,16.5 293.5,16.5 294.5,16.5C 294.512,13.858 293.179,12.5246 290.5,12.5C 290.167,12.5 289.833,12.5 289.5,12.5C 286.623,11.4824 283.623,11.6491 280.5,13C 279.944,13.3826 279.611,13.8826 279.5,14.5C 275.669,16.3314 273.336,19.3314 272.5,23.5C 269.329,25.5189 267.996,28.5189 268.5,32.5C 270.099,32.2322 271.432,32.5655 272.5,33.5C 272.5,33.8333 272.5,34.1667 272.5,34.5C 271.333,36.0414 270,37.3748 268.5,38.5C 268.167,37.5 267.5,36.8333 266.5,36.5C 265.233,34.9611 264.233,33.2944 263.5,31.5C 264.865,29.4091 265.532,27.0758 265.5,24.5C 266.794,20.7771 267.961,20.7771 269,24.5C 270.934,22.5812 270.767,21.0812 268.5,20C 272.785,15.867 277.452,12.367 282.5,9.5C 287.14,8.60273 291.806,8.43607 296.5,9C 294.122,9.97448 294.456,10.6411 297.5,11C 296.359,11.7412 296.359,12.5745 297.5,13.5C 304.306,15.384 309.306,19.384 312.5,25.5C 313.425,24.3595 314.259,24.3595 315,25.5C 314.946,28.1906 316.113,30.0239 318.5,31C 318.167,31.3333 317.833,31.6667 317.5,32C 319.426,32.4224 320.426,33.5891 320.5,35.5 Z"/></g>
<g><path style="opacity:1" fill="#4f6a38" d="M 290.5,12.5 C 293.179,12.5246 294.512,13.858 294.5,16.5C 293.5,16.5 292.5,16.5 291.5,16.5C 291.167,16.5 290.833,16.5 290.5,16.5C 290.5,15.1667 290.5,13.8333 290.5,12.5 Z"/></g>
<g><path style="opacity:1" fill="#3c602d" d="M 289.5,12.5 C 286.413,14.017 283.079,14.6837 279.5,14.5C 279.611,13.8826 279.944,13.3826 280.5,13C 283.623,11.6491 286.623,11.4824 289.5,12.5 Z"/></g>
<g><path style="opacity:1" fill="#608c40" d="M 289.5,12.5 C 289.833,12.5 290.167,12.5 290.5,12.5C 290.5,13.8333 290.5,15.1667 290.5,16.5C 282.561,18.2666 276.394,22.5999 272,29.5C 271.5,29.1667 271,28.8333 270.5,28.5C 271.456,26.9246 272.123,25.258 272.5,23.5C 275.363,20.899 277.697,17.899 279.5,14.5C 283.079,14.6837 286.413,14.017 289.5,12.5 Z"/></g>
<g><path style="opacity:1" fill="#3a572a" d="M 279.5,14.5 C 277.697,17.899 275.363,20.899 272.5,23.5C 273.336,19.3314 275.669,16.3314 279.5,14.5 Z"/></g>
<g><path style="opacity:0.02" fill="#121d1e" d="M 313.5,19.5 C 314.833,20.1667 314.833,20.1667 313.5,19.5 Z"/></g>
<g><path style="opacity:1" fill="#55753e" d="M 291.5,18.5 C 293.5,18.5 295.5,18.5 297.5,18.5C 300.226,18.2639 302.559,19.0972 304.5,21C 300.833,21.3333 297.167,21.6667 293.5,22C 290.499,22.7378 287.832,23.9045 285.5,25.5C 280.739,27.9252 277.406,31.5918 275.5,36.5C 273.821,36.7148 272.821,36.0481 272.5,34.5C 272.5,34.1667 272.5,33.8333 272.5,33.5C 277.458,26.5179 283.792,21.5179 291.5,18.5 Z"/></g>
<g><path style="opacity:1" fill="#193115" d="M 290.5,16.5 C 290.833,16.5 291.167,16.5 291.5,16.5C 290.494,17.3957 290.494,18.0623 291.5,18.5C 283.792,21.5179 277.458,26.5179 272.5,33.5C 271.432,32.5655 270.099,32.2322 268.5,32.5C 267.996,28.5189 269.329,25.5189 272.5,23.5C 272.123,25.258 271.456,26.9246 270.5,28.5C 271,28.8333 271.5,29.1667 272,29.5C 276.394,22.5999 282.561,18.2666 290.5,16.5 Z"/></g>
<g><path style="opacity:0.02" fill="#201420" d="M 313.5,21.5 C 314.525,21.8966 314.692,22.5632 314,23.5C 313.536,22.9056 313.369,22.2389 313.5,21.5 Z"/></g>
<g><path style="opacity:1" fill="#28461c" d="M 297.5,18.5 C 301.954,16.4926 305.287,17.8259 307.5,22.5C 288.869,23.6628 288.869,24.4962 307.5,25C 309.066,25.6082 310.4,26.4415 311.5,27.5C 304.174,24.8857 296.84,24.8857 289.5,27.5C 289.918,26.7784 290.584,26.2784 291.5,26C 289.527,25.5045 287.527,25.3379 285.5,25.5C 287.832,23.9045 290.499,22.7378 293.5,22C 297.167,21.6667 300.833,21.3333 304.5,21C 302.559,19.0972 300.226,18.2639 297.5,18.5 Z"/></g>
<g><path style="opacity:1" fill="#1e3814" d="M 261.5,23.5 C 263.484,23.484 264.484,24.484 264.5,26.5C 264.253,27.7133 263.586,28.38 262.5,28.5C 261.596,29.209 261.263,30.209 261.5,31.5C 255.523,30.8354 249.523,30.502 243.5,30.5C 247.021,29.8337 250.687,29.1671 254.5,28.5C 253.975,27.8076 253.308,27.3076 252.5,27C 246.452,26.3372 240.452,26.6705 234.5,28C 228.033,32.6349 222.033,37.8016 216.5,43.5C 215.264,44.2458 213.93,44.5792 212.5,44.5C 212.281,43.325 212.614,42.325 213.5,41.5C 219.196,37.4674 224.196,32.8007 228.5,27.5C 230.98,26.758 233.313,25.758 235.5,24.5C 243.359,23.2504 251.192,23.5838 259,25.5C 260.376,25.3158 261.209,24.6491 261.5,23.5 Z"/></g>
<g><path style="opacity:1" fill="#558937" d="M 297.5,34.5 C 294.123,34.9595 290.789,35.6261 287.5,36.5C 286.503,36.5299 285.836,36.0299 285.5,35C 286.615,33.7651 286.615,32.5984 285.5,31.5C 286.714,29.9309 288.381,29.0976 290.5,29C 295.11,27.7095 299.777,27.3762 304.5,28C 304.957,28.414 305.291,28.914 305.5,29.5C 301.833,30.1667 298.167,30.8333 294.5,31.5C 295.993,32.1411 296.993,33.1411 297.5,34.5 Z"/></g>
<g><path style="opacity:0.02" fill="#1b151f" d="M 182.5,30.5 C 183.833,31.1667 183.833,31.1667 182.5,30.5 Z"/></g>
<g><path style="opacity:1" fill="#1a2d16" d="M 285.5,25.5 C 287.527,25.3379 289.527,25.5045 291.5,26C 290.584,26.2784 289.918,26.7784 289.5,27.5C 281.137,29.537 276.471,34.8704 275.5,43.5C 277.099,43.7678 278.432,43.4345 279.5,42.5C 281.076,41.8571 282.41,40.8571 283.5,39.5C 285.404,39.2624 286.738,38.2624 287.5,36.5C 290.789,35.6261 294.123,34.9595 297.5,34.5C 303.464,33.6932 309.464,33.3599 315.5,33.5C 312.833,34.1667 310.167,34.8333 307.5,35.5C 306.508,35.3284 305.842,35.6618 305.5,36.5C 298.979,36.6869 292.979,38.3535 287.5,41.5C 283.871,42.9822 280.538,44.9822 277.5,47.5C 276.9,48.9002 275.9,49.9002 274.5,50.5C 267.167,50.5 259.833,50.5 252.5,50.5C 252.611,49.8826 252.944,49.3826 253.5,49C 260.492,48.5004 267.492,48.3337 274.5,48.5C 274.405,46.2143 273.738,44.2143 272.5,42.5C 270.833,41.5 269.5,40.1667 268.5,38.5C 270,37.3748 271.333,36.0414 272.5,34.5C 272.821,36.0481 273.821,36.7148 275.5,36.5C 277.406,31.5918 280.739,27.9252 285.5,25.5 Z"/></g>
<g><path style="opacity:0.045" fill="#101a0b" d="M 265.5,24.5 C 265.532,27.0758 264.865,29.4091 263.5,31.5C 262.596,30.791 262.263,29.791 262.5,28.5C 263.586,28.38 264.253,27.7133 264.5,26.5C 264.484,24.484 263.484,23.484 261.5,23.5C 261.631,22.6236 261.298,21.9569 260.5,21.5C 256.799,21.0302 253.466,19.6969 250.5,17.5C 243.524,16.3356 236.524,16.1689 229.5,17C 228.944,17.3826 228.611,17.8826 228.5,18.5C 227.833,18.5 227.167,18.5 226.5,18.5C 220.464,19.5557 214.798,21.5557 209.5,24.5C 205.552,26.1453 201.885,28.1453 198.5,30.5C 192.337,33.878 186.004,37.0446 179.5,40C 178.695,41.1127 178.028,42.2794 177.5,43.5C 176.167,43.5 174.833,43.5 173.5,43.5C 173.167,43.5 172.833,43.5 172.5,43.5C 172.782,42.2223 173.449,41.2223 174.5,40.5C 188.129,33.7458 201.462,26.2458 214.5,18C 225.932,14.7005 237.599,13.3671 249.5,14C 251.956,15.6186 254.456,16.1186 257,15.5C 260.289,18.083 263.122,21.083 265.5,24.5 Z"/></g>
<g><path style="opacity:1" fill="#2e4b1e" d="M 209.5,24.5 C 208.833,25.5 208.167,26.5 207.5,27.5C 204.817,29.3357 201.817,30.3357 198.5,30.5C 201.885,28.1453 205.552,26.1453 209.5,24.5 Z"/></g>
<g><path style="opacity:1" fill="#4c7036" d="M 261.5,23.5 C 261.209,24.6491 260.376,25.3158 259,25.5C 251.192,23.5838 243.359,23.2504 235.5,24.5C 236.058,23.2101 237.058,22.3768 238.5,22C 242.211,21.8253 245.878,21.3253 249.5,20.5C 246.115,18.0299 242.282,17.0299 238,17.5C 234.783,17.5913 231.616,17.9246 228.5,18.5C 228.611,17.8826 228.944,17.3826 229.5,17C 236.524,16.1689 243.524,16.3356 250.5,17.5C 253.466,19.6969 256.799,21.0302 260.5,21.5C 261.298,21.9569 261.631,22.6236 261.5,23.5 Z"/></g>
<g><path style="opacity:1" fill="#5d8347" d="M 226.5,18.5 C 226.5,19.5 226.5,20.5 226.5,21.5C 223.813,21.3359 221.146,21.5026 218.5,22C 218.833,22.3333 219.167,22.6667 219.5,23C 217.695,23.972 216.028,25.1387 214.5,26.5C 212.257,27.4742 209.924,27.8076 207.5,27.5C 208.167,26.5 208.833,25.5 209.5,24.5C 214.798,21.5557 220.464,19.5557 226.5,18.5 Z"/></g>
<g><path style="opacity:1" fill="#56883b" d="M 235.5,24.5 C 233.313,25.758 230.98,26.758 228.5,27.5C 226.092,28.9991 222.759,29.8324 218.5,30C 213.469,35.5598 210.136,42.0598 208.5,49.5C 209.5,49.5 210.5,49.5 211.5,49.5C 211.5,48.1667 211.5,46.8333 211.5,45.5C 213.5,45.5 215.5,45.5 217.5,45.5C 217.649,46.552 217.483,47.552 217,48.5C 215.173,49.6587 213.507,50.992 212,52.5C 211.503,55.146 211.336,57.8127 211.5,60.5C 209.629,64.8662 208.962,69.5329 209.5,74.5C 209.756,76.7925 209.423,78.9592 208.5,81C 212.882,81.0027 214.549,83.1694 213.5,87.5C 210.833,87.5 208.167,87.5 205.5,87.5C 202.478,85.7893 199.811,83.7893 197.5,81.5C 197.512,77.5541 195.512,75.8874 191.5,76.5C 190.99,79.3878 191.656,81.7211 193.5,83.5C 193.617,87.2493 195.617,89.2493 199.5,89.5C 203.524,91.783 207.858,93.4497 212.5,94.5C 215.017,95.973 217.85,96.6397 221,96.5C 224.451,96.5795 227.618,95.9128 230.5,94.5C 231.167,94.5 231.833,94.5 232.5,94.5C 236.387,94.3541 240.054,93.6874 243.5,92.5C 245.515,91.0762 247.848,90.4095 250.5,90.5C 259.056,89.1438 266.056,84.9772 271.5,78C 272.793,77.51 274.127,77.3433 275.5,77.5C 279.272,78.4238 282.272,80.4238 284.5,83.5C 287.484,87.7571 291.151,91.4237 295.5,94.5C 298.028,95.1657 300.694,95.8324 303.5,96.5C 302.271,97.2811 300.938,97.7811 299.5,98C 300.406,99.6995 300.739,101.533 300.5,103.5C 297.513,103.998 294.513,104.498 291.5,105C 272.836,105.5 254.17,105.667 235.5,105.5C 232.5,105.5 229.5,105.5 226.5,105.5C 226.167,105.5 225.833,105.5 225.5,105.5C 221.79,103.864 217.79,103.198 213.5,103.5C 211.833,103.5 210.167,103.5 208.5,103.5C 206.012,101.612 203.012,100.945 199.5,101.5C 199.047,100.542 198.381,99.7083 197.5,99C 193.152,98.5355 188.819,98.0355 184.5,97.5C 178.892,94.9502 172.892,93.9502 166.5,94.5C 161.935,92.96 157.102,92.2933 152,92.5C 148.5,92.6667 145,92.8333 141.5,93C 140.944,93.3826 140.611,93.8826 140.5,94.5C 137.403,97.3677 133.736,99.201 129.5,100C 127.937,100.759 126.937,101.926 126.5,103.5C 124.058,105.121 122.725,107.454 122.5,110.5C 120.821,110.285 119.821,110.952 119.5,112.5C 118.679,115.641 118.179,118.975 118,122.5C 117.406,118.679 116.906,114.845 116.5,111C 116.94,107.752 117.607,104.585 118.5,101.5C 121.434,100.711 123.268,98.7106 124,95.5C 128.746,93.7825 128.579,92.7825 123.5,92.5C 122.167,92.5 120.833,92.5 119.5,92.5C 116.86,92.4467 114.36,91.78 112,90.5C 108.894,90.9146 108.728,91.9146 111.5,93.5C 107.815,101.76 104.815,110.26 102.5,119C 103.739,121.717 104.573,124.551 105,127.5C 106.458,128.747 107.958,128.747 109.5,127.5C 110.308,127.808 110.975,128.308 111.5,129C 110.74,130.441 110.074,131.941 109.5,133.5C 108.311,134.429 106.978,134.762 105.5,134.5C 103.292,133.106 101.792,131.106 101,128.5C 100.329,127.748 99.4959,127.414 98.5,127.5C 98.5848,124.351 97.5848,121.684 95.5,119.5C 94.596,118.791 94.2627,117.791 94.5,116.5C 94.4408,113.31 94.1074,110.143 93.5,107C 94.6901,102.884 95.6901,98.7172 96.5,94.5C 96.5,93.8333 96.5,93.1667 96.5,92.5C 101.496,87.5005 106.163,82.1672 110.5,76.5C 112.737,75.551 115.071,74.8844 117.5,74.5C 119.086,73.5868 120.586,73.5868 122,74.5C 126.697,70.4292 131.531,66.7626 136.5,63.5C 142.588,60.1034 148.921,57.1034 155.5,54.5C 159.121,53.6275 162.788,52.9608 166.5,52.5C 166.759,56.0681 168.759,57.4015 172.5,56.5C 172.67,55.1779 172.337,54.0113 171.5,53C 169.939,52.6824 168.772,51.8491 168,50.5C 167.282,51.4506 166.449,51.6172 165.5,51C 167.527,49.1207 169.86,47.954 172.5,47.5C 172.433,46.0413 172.766,44.7079 173.5,43.5C 174.833,43.5 176.167,43.5 177.5,43.5C 181.156,41.0345 185.156,39.2012 189.5,38C 192.571,35.4816 195.571,32.9816 198.5,30.5C 201.817,30.3357 204.817,29.3357 207.5,27.5C 209.924,27.8076 212.257,27.4742 214.5,26.5C 216.028,25.1387 217.695,23.972 219.5,23C 219.167,22.6667 218.833,22.3333 218.5,22C 221.146,21.5026 223.813,21.3359 226.5,21.5C 226.5,20.5 226.5,19.5 226.5,18.5C 227.167,18.5 227.833,18.5 228.5,18.5C 231.616,17.9246 234.783,17.5913 238,17.5C 242.282,17.0299 246.115,18.0299 249.5,20.5C 245.878,21.3253 242.211,21.8253 238.5,22C 237.058,22.3768 236.058,23.2101 235.5,24.5 Z"/></g>
<g><path style="opacity:1" fill="#547c3f" d="M 311.5,27.5 C 314.044,28.7079 315.378,30.7079 315.5,33.5C 309.464,33.3599 303.464,33.6932 297.5,34.5C 296.993,33.1411 295.993,32.1411 294.5,31.5C 298.167,30.8333 301.833,30.1667 305.5,29.5C 305.291,28.914 304.957,28.414 304.5,28C 299.777,27.3762 295.11,27.7095 290.5,29C 288.381,29.0976 286.714,29.9309 285.5,31.5C 286.615,32.5984 286.615,33.7651 285.5,35C 285.836,36.0299 286.503,36.5299 287.5,36.5C 286.738,38.2624 285.404,39.2624 283.5,39.5C 283.804,38.8501 284.137,38.1835 284.5,37.5C 282.5,36.1667 280.5,36.1667 278.5,37.5C 276.827,39.7615 277.16,41.4282 279.5,42.5C 278.432,43.4345 277.099,43.7678 275.5,43.5C 276.471,34.8704 281.137,29.537 289.5,27.5C 296.84,24.8857 304.174,24.8857 311.5,27.5 Z"/></g>
<g><path style="opacity:1" fill="#6c6f75" d="M 305.5,36.5 C 305.842,35.6618 306.508,35.3284 307.5,35.5C 311.6,35.2367 315.6,35.5701 319.5,36.5C 320.167,36.5 320.5,36.1667 320.5,35.5C 322.379,35.3932 322.712,35.8932 321.5,37C 322.756,37.4169 323.423,38.2502 323.5,39.5C 318.178,36.8901 312.511,35.8901 306.5,36.5C 306.167,36.5 305.833,36.5 305.5,36.5 Z"/></g>
<g><path style="opacity:1" fill="#3a572b" d="M 198.5,30.5 C 195.571,32.9816 192.571,35.4816 189.5,38C 185.156,39.2012 181.156,41.0345 177.5,43.5C 178.028,42.2794 178.695,41.1127 179.5,40C 186.004,37.0446 192.337,33.878 198.5,30.5 Z"/></g>
<g><path style="opacity:1" fill="#142a11" d="M 262.5,28.5 C 262.263,29.791 262.596,30.791 263.5,31.5C 264.233,33.2944 265.233,34.9611 266.5,36.5C 264.167,35.8333 261.833,35.1667 259.5,34.5C 253.654,33.1834 247.654,33.1834 241.5,34.5C 241.137,35.1835 240.804,35.8501 240.5,36.5C 234.631,37.0295 229.965,39.6962 226.5,44.5C 219.77,48.2171 216.437,53.8837 216.5,61.5C 216.337,63.8568 216.503,66.1902 217,68.5C 217.383,69.056 217.883,69.3893 218.5,69.5C 218.833,70.1667 219.167,70.8333 219.5,71.5C 218.662,71.8417 218.328,72.5084 218.5,73.5C 217.728,72.3065 216.728,71.3065 215.5,70.5C 214.016,65.9666 213.35,61.2999 213.5,56.5C 213.238,55.0222 213.571,53.6888 214.5,52.5C 220.223,46.4546 226.223,40.6213 232.5,35C 236.213,33.3371 239.88,31.8371 243.5,30.5C 249.523,30.502 255.523,30.8354 261.5,31.5C 261.263,30.209 261.596,29.209 262.5,28.5 Z"/></g>
<g><path style="opacity:1" fill="#486338" d="M 259.5,34.5 C 252.997,34.1056 246.664,34.7723 240.5,36.5C 240.804,35.8501 241.137,35.1835 241.5,34.5C 247.654,33.1834 253.654,33.1834 259.5,34.5 Z"/></g>
<g><path style="opacity:1" fill="#558937" d="M 283.5,39.5 C 282.41,40.8571 281.076,41.8571 279.5,42.5C 277.16,41.4282 276.827,39.7615 278.5,37.5C 280.5,36.1667 282.5,36.1667 284.5,37.5C 284.137,38.1835 283.804,38.8501 283.5,39.5 Z"/></g>
<g><path style="opacity:1" fill="#f4f4f3" d="M 306.5,36.5 C 312.511,35.8901 318.178,36.8901 323.5,39.5C 323.427,41.0269 324.094,42.0269 325.5,42.5C 325.232,44.099 325.566,45.4324 326.5,46.5C 326.82,49.8984 326.487,53.2317 325.5,56.5C 324.476,57.8532 323.143,58.5198 321.5,58.5C 321.946,55.9899 321.28,53.9899 319.5,52.5C 319.008,50.1815 318.008,48.1815 316.5,46.5C 316.141,44.629 315.141,43.129 313.5,42C 309.833,41.3333 306.167,41.3333 302.5,42C 301.944,42.3826 301.611,42.8826 301.5,43.5C 297.359,44.948 295.359,47.948 295.5,52.5C 293.57,56.3727 292.903,60.706 293.5,65.5C 290.813,65.6641 288.146,65.4974 285.5,65C 283.609,63.5576 281.609,62.3909 279.5,61.5C 278.662,61.1583 278.328,60.4916 278.5,59.5C 278.495,55.4659 278.162,51.4659 277.5,47.5C 280.538,44.9822 283.871,42.9822 287.5,41.5C 293.89,39.7392 300.223,38.0725 306.5,36.5 Z"/></g>
<g><path style="opacity:0.039" fill="#090a0a" d="M 324.5,38.5 C 325.833,39.1667 325.833,39.1667 324.5,38.5 Z"/></g>
<g><path style="opacity:0.02" fill="#1d141f" d="M 174.5,40.5 C 173.833,39.1667 173.833,39.1667 174.5,40.5 Z"/></g>
<g><path style="opacity:1" fill="#bfbebe" d="M 305.5,36.5 C 305.833,36.5 306.167,36.5 306.5,36.5C 300.223,38.0725 293.89,39.7392 287.5,41.5C 292.979,38.3535 298.979,36.6869 305.5,36.5 Z"/></g>
<g><path style="opacity:0.553" fill="#4f4f4f" d="M 323.5,39.5 C 323.833,39.5 324.167,39.5 324.5,39.5C 325.11,40.391 325.443,41.391 325.5,42.5C 324.094,42.0269 323.427,41.0269 323.5,39.5 Z"/></g>
<g><path style="opacity:1" fill="#909090" d="M 316.5,46.5 C 312.262,42.3891 307.262,41.3891 301.5,43.5C 301.611,42.8826 301.944,42.3826 302.5,42C 306.167,41.3333 309.833,41.3333 313.5,42C 315.141,43.129 316.141,44.629 316.5,46.5 Z"/></g>
<g><path style="opacity:1" fill="#0f1010" d="M 316.5,46.5 C 316.415,49.6489 317.415,52.3155 319.5,54.5C 319.5,55.1667 319.5,55.8333 319.5,56.5C 319.5,57.8333 319.5,59.1667 319.5,60.5C 321.415,60.7845 323.081,60.4511 324.5,59.5C 328.008,57.5749 329.341,54.5749 328.5,50.5C 328.5,49.1667 328.5,47.8333 328.5,46.5C 331.926,49.5998 333.26,53.5998 332.5,58.5C 322.874,63.1096 312.874,66.7762 302.5,69.5C 299.789,69.8151 297.456,69.1484 295.5,67.5C 295.5,63.1667 295.5,58.8333 295.5,54.5C 297.463,50.8552 299.463,47.1885 301.5,43.5C 307.262,41.3891 312.262,42.3891 316.5,46.5 Z"/></g>
<g><path style="opacity:0.592" fill="#494949" d="M 328.5,46.5 C 328.5,47.8333 328.5,49.1667 328.5,50.5C 327.833,49.1667 327.167,47.8333 326.5,46.5C 325.566,45.4324 325.232,44.099 325.5,42.5C 326.397,41.4019 327.23,41.4019 328,42.5C 327.645,43.9594 327.811,45.2928 328.5,46.5 Z"/></g>
<g><path style="opacity:1" fill="#56873b" d="M 259.5,34.5 C 261.833,35.1667 264.167,35.8333 266.5,36.5C 267.5,36.8333 268.167,37.5 268.5,38.5C 269.5,40.1667 270.833,41.5 272.5,42.5C 272.5,44.1667 272.5,45.8333 272.5,47.5C 265.825,47.3337 259.158,47.5004 252.5,48C 251.619,48.7083 250.953,49.5416 250.5,50.5C 244.548,52.6575 238.882,55.4909 233.5,59C 228.344,60.9618 223.011,61.7951 217.5,61.5C 217.664,58.2524 218.664,55.2524 220.5,52.5C 222.58,49.7726 224.58,47.1059 226.5,44.5C 229.965,39.6962 234.631,37.0295 240.5,36.5C 246.664,34.7723 252.997,34.1056 259.5,34.5 Z"/></g>
<g><path style="opacity:1" fill="#527d3c" d="M 243.5,30.5 C 239.88,31.8371 236.213,33.3371 232.5,35C 226.223,40.6213 220.223,46.4546 214.5,52.5C 213.571,53.6888 213.238,55.0222 213.5,56.5C 212.833,57.8333 212.167,59.1667 211.5,60.5C 211.336,57.8127 211.503,55.146 212,52.5C 213.507,50.992 215.173,49.6587 217,48.5C 217.483,47.552 217.649,46.552 217.5,45.5C 215.5,45.5 213.5,45.5 211.5,45.5C 211.5,46.8333 211.5,48.1667 211.5,49.5C 210.5,49.5 209.5,49.5 208.5,49.5C 210.136,42.0598 213.469,35.5598 218.5,30C 222.759,29.8324 226.092,28.9991 228.5,27.5C 224.196,32.8007 219.196,37.4674 213.5,41.5C 212.614,42.325 212.281,43.325 212.5,44.5C 213.93,44.5792 215.264,44.2458 216.5,43.5C 222.033,37.8016 228.033,32.6349 234.5,28C 240.452,26.6705 246.452,26.3372 252.5,27C 253.308,27.3076 253.975,27.8076 254.5,28.5C 250.687,29.1671 247.021,29.8337 243.5,30.5 Z"/></g>
<g><path style="opacity:1" fill="#3e5b32" d="M 272.5,42.5 C 273.738,44.2143 274.405,46.2143 274.5,48.5C 267.492,48.3337 260.492,48.5004 253.5,49C 252.944,49.3826 252.611,49.8826 252.5,50.5C 251.833,50.5 251.167,50.5 250.5,50.5C 250.953,49.5416 251.619,48.7083 252.5,48C 259.158,47.5004 265.825,47.3337 272.5,47.5C 272.5,45.8333 272.5,44.1667 272.5,42.5 Z"/></g>
<g><path style="opacity:1" fill="#656565" d="M 316.5,46.5 C 318.008,48.1815 319.008,50.1815 319.5,52.5C 319.5,53.1667 319.5,53.8333 319.5,54.5C 317.415,52.3155 316.415,49.6489 316.5,46.5 Z"/></g>
<g><path style="opacity:1" fill="#767a78" d="M 252.5,50.5 C 259.833,50.5 267.167,50.5 274.5,50.5C 274.5,50.8333 274.5,51.1667 274.5,51.5C 267.646,51.176 260.979,51.5093 254.5,52.5C 253.833,52.5 253.167,52.5 252.5,52.5C 252.5,51.8333 252.5,51.1667 252.5,50.5 Z"/></g>
<g><path style="opacity:1" fill="#727274" d="M 301.5,43.5 C 299.463,47.1885 297.463,50.8552 295.5,54.5C 295.5,53.8333 295.5,53.1667 295.5,52.5C 295.359,47.948 297.359,44.948 301.5,43.5 Z"/></g>
<g><path style="opacity:0.637" fill="#121d0c" d="M 171.5,43.5 C 166.49,47.6688 161.157,51.3355 155.5,54.5C 148.921,57.1034 142.588,60.1034 136.5,63.5C 133.67,63.6941 131.004,64.3608 128.5,65.5C 136.035,61.6683 143.368,57.1683 150.5,52C 152.715,50.9562 155.048,50.2895 157.5,50C 161.708,46.9344 166.208,44.4344 171,42.5C 171.399,42.7284 171.565,43.0618 171.5,43.5 Z"/></g>
<g><path style="opacity:1" fill="#50793c" d="M 171.5,43.5 C 171.833,43.5 172.167,43.5 172.5,43.5C 172.833,43.5 173.167,43.5 173.5,43.5C 172.766,44.7079 172.433,46.0413 172.5,47.5C 169.86,47.954 167.527,49.1207 165.5,51C 166.449,51.6172 167.282,51.4506 168,50.5C 168.772,51.8491 169.939,52.6824 171.5,53C 172.337,54.0113 172.67,55.1779 172.5,56.5C 168.759,57.4015 166.759,56.0681 166.5,52.5C 162.788,52.9608 159.121,53.6275 155.5,54.5C 161.157,51.3355 166.49,47.6688 171.5,43.5 Z"/></g>
<g><path style="opacity:1" fill="#f4f4f3" d="M 274.5,51.5 C 274.733,56.8947 274.4,62.228 273.5,67.5C 273.573,69.0269 272.906,70.0269 271.5,70.5C 270.197,72.1423 268.864,73.8089 267.5,75.5C 267.5,76.1667 267.167,76.5 266.5,76.5C 264.85,73.7435 263.517,70.7435 262.5,67.5C 262.768,65.901 262.434,64.5676 261.5,63.5C 260.712,60.3791 258.712,58.7124 255.5,58.5C 254.051,56.8356 252.051,56.0023 249.5,56C 251.233,54.8111 252.9,53.6444 254.5,52.5C 260.979,51.5093 267.646,51.176 274.5,51.5 Z"/></g>
<g><path style="opacity:1" fill="#353536" d="M 277.5,47.5 C 278.162,51.4659 278.495,55.4659 278.5,59.5C 277.698,58.0484 277.198,56.3817 277,54.5C 276.823,58.3563 276.323,62.023 275.5,65.5C 275.819,60.6367 275.486,55.97 274.5,51.5C 274.5,51.1667 274.5,50.8333 274.5,50.5C 275.9,49.9002 276.9,48.9002 277.5,47.5 Z"/></g>
<g><path style="opacity:1" fill="#293921" d="M 250.5,50.5 C 251.167,50.5 251.833,50.5 252.5,50.5C 252.5,51.1667 252.5,51.8333 252.5,52.5C 247.175,54.2683 242.175,56.6016 237.5,59.5C 234.507,60.4647 231.84,61.7981 229.5,63.5C 226.962,63.5072 224.462,63.8405 222,64.5C 219.648,64.5864 218.148,63.5864 217.5,61.5C 223.011,61.7951 228.344,60.9618 233.5,59C 238.882,55.4909 244.548,52.6575 250.5,50.5 Z"/></g>
<g><path style="opacity:1" fill="#51703a" d="M 226.5,44.5 C 224.58,47.1059 222.58,49.7726 220.5,52.5C 218.664,55.2524 217.664,58.2524 217.5,61.5C 217.167,61.5 216.833,61.5 216.5,61.5C 216.437,53.8837 219.77,48.2171 226.5,44.5 Z"/></g>
<g><path style="opacity:1" fill="#dad9d9" d="M 252.5,52.5 C 253.167,52.5 253.833,52.5 254.5,52.5C 252.9,53.6444 251.233,54.8111 249.5,56C 252.051,56.0023 254.051,56.8356 255.5,58.5C 252.941,58.1984 250.607,58.5318 248.5,59.5C 248.167,59.5 247.833,59.5 247.5,59.5C 245.589,60.075 243.922,61.075 242.5,62.5C 242.38,61.4138 241.713,60.7472 240.5,60.5C 238.823,61.1869 237.156,61.8535 235.5,62.5C 236.167,61.5 236.833,60.5 237.5,59.5C 242.175,56.6016 247.175,54.2683 252.5,52.5 Z"/></g>
<g><path style="opacity:1" fill="#bebbbf" d="M 326.5,46.5 C 327.167,47.8333 327.833,49.1667 328.5,50.5C 329.341,54.5749 328.008,57.5749 324.5,59.5C 323.167,59.5 321.833,59.5 320.5,59.5C 320.737,58.209 320.404,57.209 319.5,56.5C 319.5,55.8333 319.5,55.1667 319.5,54.5C 319.5,53.8333 319.5,53.1667 319.5,52.5C 321.28,53.9899 321.946,55.9899 321.5,58.5C 323.143,58.5198 324.476,57.8532 325.5,56.5C 326.487,53.2317 326.82,49.8984 326.5,46.5 Z"/></g>
<g><path style="opacity:0.034" fill="#1b1522" d="M 136.5,58.5 C 137.251,57.4265 138.251,57.2599 139.5,58C 138.552,58.4828 137.552,58.6495 136.5,58.5 Z"/></g>
<g><path style="opacity:1" fill="#e3e4e1" d="M 313.5,56.5 C 314.139,57.0968 314.472,57.9302 314.5,59C 314.613,60.6991 313.947,61.8658 312.5,62.5C 311.5,62.5 310.5,62.5 309.5,62.5C 309.5,60.5 309.5,58.5 309.5,56.5C 310.833,56.5 312.167,56.5 313.5,56.5 Z"/></g>
<g><path style="opacity:1" fill="#9c9c9c" d="M 248.5,59.5 C 250.607,58.5318 252.941,58.1984 255.5,58.5C 258.712,58.7124 260.712,60.3791 261.5,63.5C 260.833,63.1667 260.167,62.8333 259.5,62.5C 259.047,61.5416 258.381,60.7083 257.5,60C 254.518,59.502 251.518,59.3354 248.5,59.5 Z"/></g>
<g><path style="opacity:1" fill="#615c68" d="M 319.5,56.5 C 320.404,57.209 320.737,58.209 320.5,59.5C 321.833,59.5 323.167,59.5 324.5,59.5C 323.081,60.4511 321.415,60.7845 319.5,60.5C 319.5,59.1667 319.5,57.8333 319.5,56.5 Z"/></g>
<g><path style="opacity:1" fill="#090a0a" d="M 247.5,59.5 C 247.833,59.5 248.167,59.5 248.5,59.5C 251.518,59.3354 254.518,59.502 257.5,60C 258.381,60.7083 259.047,61.5416 259.5,62.5C 260.11,64.4341 261.11,66.1007 262.5,67.5C 262.5,68.8333 262.5,70.1667 262.5,71.5C 262.5,73.1667 262.5,74.8333 262.5,76.5C 259.583,76.3651 256.916,77.0318 254.5,78.5C 256.062,76.0993 255.729,74.0993 253.5,72.5C 250.713,69.7039 248.713,70.3705 247.5,74.5C 246.532,76.6074 246.198,78.9407 246.5,81.5C 248.167,81.5 249.833,81.5 251.5,81.5C 251.5,82.1667 251.5,82.8333 251.5,83.5C 244.5,83.5 237.5,83.5 230.5,83.5C 230.5,82.1667 229.833,81.5 228.5,81.5C 231.005,80.5033 233.672,80.5033 236.5,81.5C 236.87,77.7674 237.537,74.1007 238.5,70.5C 238.5,69.8333 238.5,69.1667 238.5,68.5C 241.833,65.8333 244.833,62.8333 247.5,59.5 Z"/></g>
<g><path style="opacity:1" fill="#868788" d="M 274.5,51.5 C 275.486,55.97 275.819,60.6367 275.5,65.5C 275.167,66.5 274.5,67.1667 273.5,67.5C 274.4,62.228 274.733,56.8947 274.5,51.5 Z"/></g>
<g><path style="opacity:1" fill="#9c9997" d="M 313.5,56.5 C 312.167,56.5 310.833,56.5 309.5,56.5C 309.5,58.5 309.5,60.5 309.5,62.5C 310.5,62.5 311.5,62.5 312.5,62.5C 311.432,63.4345 310.099,63.7678 308.5,63.5C 308.5,60.8333 308.5,58.1667 308.5,55.5C 310.415,55.2155 312.081,55.5489 313.5,56.5 Z"/></g>
<g><path style="opacity:1" fill="#737870" d="M 237.5,59.5 C 236.833,60.5 236.167,61.5 235.5,62.5C 233.379,62.3253 231.379,62.6586 229.5,63.5C 231.84,61.7981 234.507,60.4647 237.5,59.5 Z"/></g>
<g><path style="opacity:1" fill="#f7f7f5" d="M 242.5,62.5 C 240.748,64.2459 239.415,66.2459 238.5,68.5C 236.461,69.911 235.461,71.911 235.5,74.5C 235.5,75.1667 235.5,75.8333 235.5,76.5C 234.739,77.3909 233.739,78.0576 232.5,78.5C 229.481,77.1624 226.481,75.829 223.5,74.5C 222.167,73.5 220.833,72.5 219.5,71.5C 219.167,70.8333 218.833,70.1667 218.5,69.5C 218.5,68.5 218.5,67.5 218.5,66.5C 222.489,66.3185 226.156,65.3185 229.5,63.5C 231.379,62.6586 233.379,62.3253 235.5,62.5C 237.156,61.8535 238.823,61.1869 240.5,60.5C 241.713,60.7472 242.38,61.4138 242.5,62.5 Z"/></g>
<g><path style="opacity:1" fill="#b1b1b1" d="M 295.5,52.5 C 295.5,53.1667 295.5,53.8333 295.5,54.5C 294.517,58.2984 294.183,62.2984 294.5,66.5C 292.167,66.5 289.833,66.5 287.5,66.5C 284.098,65.9311 281.431,64.2644 279.5,61.5C 281.609,62.3909 283.609,63.5576 285.5,65C 288.146,65.4974 290.813,65.6641 293.5,65.5C 292.903,60.706 293.57,56.3727 295.5,52.5 Z"/></g>
<g><path style="opacity:1" fill="#70706e" d="M 247.5,59.5 C 244.833,62.8333 241.833,65.8333 238.5,68.5C 239.415,66.2459 240.748,64.2459 242.5,62.5C 243.922,61.075 245.589,60.075 247.5,59.5 Z"/></g>
<g><path style="opacity:1" fill="#576154" d="M 216.5,61.5 C 216.833,61.5 217.167,61.5 217.5,61.5C 218.148,63.5864 219.648,64.5864 222,64.5C 224.462,63.8405 226.962,63.5072 229.5,63.5C 226.156,65.3185 222.489,66.3185 218.5,66.5C 218.5,67.5 218.5,68.5 218.5,69.5C 217.883,69.3893 217.383,69.056 217,68.5C 216.503,66.1902 216.337,63.8568 216.5,61.5 Z"/></g>
<g><path style="opacity:1" fill="#59595b" d="M 259.5,62.5 C 260.167,62.8333 260.833,63.1667 261.5,63.5C 262.434,64.5676 262.768,65.901 262.5,67.5C 261.11,66.1007 260.11,64.4341 259.5,62.5 Z"/></g>
<g><path style="opacity:1" fill="#646268" d="M 295.5,54.5 C 295.5,58.8333 295.5,63.1667 295.5,67.5C 292.615,67.8064 289.948,67.4731 287.5,66.5C 289.833,66.5 292.167,66.5 294.5,66.5C 294.183,62.2984 294.517,58.2984 295.5,54.5 Z"/></g>
<g><path style="opacity:1" fill="#3e5c30" d="M 136.5,63.5 C 131.531,66.7626 126.697,70.4292 122,74.5C 120.586,73.5868 119.086,73.5868 117.5,74.5C 118.141,73.5178 118.807,72.5178 119.5,71.5C 123.127,70.1653 126.127,68.1653 128.5,65.5C 131.004,64.3608 133.67,63.6941 136.5,63.5 Z"/></g>
<g><path style="opacity:1" fill="#3c5d2a" d="M 213.5,56.5 C 213.35,61.2999 214.016,65.9666 215.5,70.5C 214.566,71.5676 214.232,72.901 214.5,74.5C 212.349,70.7194 211.349,71.3861 211.5,76.5C 210.833,75.8333 210.167,75.1667 209.5,74.5C 208.962,69.5329 209.629,64.8662 211.5,60.5C 212.167,59.1667 212.833,57.8333 213.5,56.5 Z"/></g>
<g><path style="opacity:0.551" fill="#14190d" d="M 128.5,65.5 C 126.127,68.1653 123.127,70.1653 119.5,71.5C 118.807,72.5178 118.141,73.5178 117.5,74.5C 115.071,74.8844 112.737,75.551 110.5,76.5C 112.244,74.2496 114.244,72.0829 116.5,70C 120.672,68.7384 124.672,67.2384 128.5,65.5 Z"/></g>
<g><path style="opacity:1" fill="#0f150d" d="M 278.5,59.5 C 278.328,60.4916 278.662,61.1583 279.5,61.5C 281.431,64.2644 284.098,65.9311 287.5,66.5C 289.948,67.4731 292.615,67.8064 295.5,67.5C 297.456,69.1484 299.789,69.8151 302.5,69.5C 302.5,69.8333 302.5,70.1667 302.5,70.5C 296.797,70.6252 291.13,70.2919 285.5,69.5C 283.162,67.9605 280.495,67.2938 277.5,67.5C 277.171,70.2282 277.837,72.5615 279.5,74.5C 281.258,76.8872 283.591,78.5539 286.5,79.5C 287.453,81.61 289.119,82.7767 291.5,83C 295.167,83.6667 298.833,83.6667 302.5,83C 303.416,82.7216 304.082,82.2216 304.5,81.5C 306.167,80.8333 307.833,80.1667 309.5,79.5C 311.544,78.4918 313.544,77.4918 315.5,76.5C 315.5,75.8333 315.5,75.1667 315.5,74.5C 316.675,74.719 317.675,74.3857 318.5,73.5C 316.577,72.6922 314.577,72.1922 312.5,72C 313.416,71.7216 314.082,71.2216 314.5,70.5C 318.811,68.0893 323.478,66.256 328.5,65C 330.253,63.0015 331.587,60.8348 332.5,58.5C 333.289,58.7828 333.956,59.2828 334.5,60C 333.762,63.6158 333.096,67.2825 332.5,71C 332.735,71.8732 333.069,72.7065 333.5,73.5C 332.23,74.2876 331.23,75.2876 330.5,76.5C 330.167,76.5 329.833,76.5 329.5,76.5C 328.848,75.2749 327.681,74.6083 326,74.5C 322.166,75.5004 318.666,77.1671 315.5,79.5C 309.802,82.0151 304.135,84.6817 298.5,87.5C 297.548,89.0453 297.215,90.712 297.5,92.5C 296.883,92.6107 296.383,92.944 296,93.5C 292.571,89.5615 288.737,86.2281 284.5,83.5C 282.272,80.4238 279.272,78.4238 275.5,77.5C 275.134,76.3054 274.301,75.6387 273,75.5C 270.216,77.2799 267.716,79.4465 265.5,82C 261.001,82.5194 256.334,83.0194 251.5,83.5C 251.5,82.8333 251.5,82.1667 251.5,81.5C 251.5,81.1667 251.5,80.8333 251.5,80.5C 252.5,79.8333 253.5,79.1667 254.5,78.5C 256.916,77.0318 259.583,76.3651 262.5,76.5C 262.5,74.8333 262.5,73.1667 262.5,71.5C 263.461,73.2646 263.795,75.2646 263.5,77.5C 264.791,77.7373 265.791,77.404 266.5,76.5C 267.167,76.5 267.5,76.1667 267.5,75.5C 270.297,75.0334 271.631,73.3667 271.5,70.5C 272.906,70.0269 273.573,69.0269 273.5,67.5C 274.5,67.1667 275.167,66.5 275.5,65.5C 276.323,62.023 276.823,58.3563 277,54.5C 277.198,56.3817 277.698,58.0484 278.5,59.5 Z"/></g>
<g><path style="opacity:1" fill="#475d3b" d="M 285.5,69.5 C 283.5,69.5 281.5,69.5 279.5,69.5C 279.5,71.1667 279.5,72.8333 279.5,74.5C 277.837,72.5615 277.171,70.2282 277.5,67.5C 280.495,67.2938 283.162,67.9605 285.5,69.5 Z"/></g>
<g><path style="opacity:1" fill="#4a6c36" d="M 332.5,58.5 C 331.587,60.8348 330.253,63.0015 328.5,65C 323.478,66.256 318.811,68.0893 314.5,70.5C 305.226,72.7262 295.893,74.0596 286.5,74.5C 285.957,74.44 285.624,74.1067 285.5,73.5C 291.559,73.1368 297.226,72.1368 302.5,70.5C 302.5,70.1667 302.5,69.8333 302.5,69.5C 312.874,66.7762 322.874,63.1096 332.5,58.5 Z"/></g>
<g><path style="opacity:1" fill="#b0afae" d="M 238.5,68.5 C 238.5,69.1667 238.5,69.8333 238.5,70.5C 237.5,71.8333 236.5,73.1667 235.5,74.5C 235.461,71.911 236.461,69.911 238.5,68.5 Z"/></g>
<g><path style="opacity:1" fill="#565555" d="M 253.5,72.5 C 251.901,72.2322 250.568,72.5655 249.5,73.5C 248.833,73.8333 248.167,74.1667 247.5,74.5C 248.713,70.3705 250.713,69.7039 253.5,72.5 Z"/></g>
<g><path style="opacity:1" fill="#eeeeec" d="M 253.5,72.5 C 253.713,75.4509 253.046,78.1175 251.5,80.5C 250.5,80.5 249.5,80.5 248.5,80.5C 248.448,78.0971 248.781,75.7638 249.5,73.5C 250.568,72.5655 251.901,72.2322 253.5,72.5 Z"/></g>
<g><path style="opacity:1" fill="#646767" d="M 262.5,67.5 C 263.517,70.7435 264.85,73.7435 266.5,76.5C 265.791,77.404 264.791,77.7373 263.5,77.5C 263.795,75.2646 263.461,73.2646 262.5,71.5C 262.5,70.1667 262.5,68.8333 262.5,67.5 Z"/></g>
<g><path style="opacity:1" fill="#706f71" d="M 271.5,70.5 C 271.631,73.3667 270.297,75.0334 267.5,75.5C 268.864,73.8089 270.197,72.1423 271.5,70.5 Z"/></g>
<g><path style="opacity:1" fill="#26471a" d="M 314.5,70.5 C 314.082,71.2216 313.416,71.7216 312.5,72C 314.577,72.1922 316.577,72.6922 318.5,73.5C 317.675,74.3857 316.675,74.719 315.5,74.5C 312.941,74.1984 310.607,74.5318 308.5,75.5C 303.31,75.4414 298.143,75.7748 293,76.5C 290.498,76.6616 288.331,75.9949 286.5,74.5C 295.893,74.0596 305.226,72.7262 314.5,70.5 Z"/></g>
<g><path style="opacity:0.039" fill="#1d1811" d="M 105.5,76.5 C 105.897,75.475 106.563,75.3083 107.5,76C 106.906,76.4643 106.239,76.631 105.5,76.5 Z"/></g>
<g><path style="opacity:1" fill="#898889" d="M 253.5,72.5 C 255.729,74.0993 256.062,76.0993 254.5,78.5C 253.5,79.1667 252.5,79.8333 251.5,80.5C 253.046,78.1175 253.713,75.4509 253.5,72.5 Z"/></g>
<g><path style="opacity:1" fill="#29451c" d="M 197.5,81.5 C 196.288,80.7701 195.288,79.7701 194.5,78.5C 193.548,80.0453 193.215,81.712 193.5,83.5C 191.656,81.7211 190.99,79.3878 191.5,76.5C 195.512,75.8874 197.512,77.5541 197.5,81.5 Z"/></g>
<g><path style="opacity:1" fill="#202324" d="M 238.5,70.5 C 237.537,74.1007 236.87,77.7674 236.5,81.5C 233.672,80.5033 231.005,80.5033 228.5,81.5C 224.271,79.9358 220.937,77.2692 218.5,73.5C 218.328,72.5084 218.662,71.8417 219.5,71.5C 220.833,72.5 222.167,73.5 223.5,74.5C 226.518,78.2772 230.518,79.9439 235.5,79.5C 235.5,78.5 235.5,77.5 235.5,76.5C 235.5,75.8333 235.5,75.1667 235.5,74.5C 236.5,73.1667 237.5,71.8333 238.5,70.5 Z"/></g>
<g><path style="opacity:1" fill="#537b3d" d="M 285.5,69.5 C 291.13,70.2919 296.797,70.6252 302.5,70.5C 297.226,72.1368 291.559,73.1368 285.5,73.5C 285.624,74.1067 285.957,74.44 286.5,74.5C 288.331,75.9949 290.498,76.6616 293,76.5C 298.143,75.7748 303.31,75.4414 308.5,75.5C 305.282,76.0909 302.116,77.0909 299,78.5C 295.211,77.438 291.377,77.2713 287.5,78C 288.056,78.3826 288.389,78.8826 288.5,79.5C 287.833,79.5 287.167,79.5 286.5,79.5C 283.591,78.5539 281.258,76.8872 279.5,74.5C 279.5,72.8333 279.5,71.1667 279.5,69.5C 281.5,69.5 283.5,69.5 285.5,69.5 Z"/></g>
<g><path style="opacity:1" fill="#5b5b57" d="M 247.5,74.5 C 247.205,76.7354 247.539,78.7354 248.5,80.5C 249.5,80.5 250.5,80.5 251.5,80.5C 251.5,80.8333 251.5,81.1667 251.5,81.5C 249.833,81.5 248.167,81.5 246.5,81.5C 246.198,78.9407 246.532,76.6074 247.5,74.5 Z"/></g>
<g><path style="opacity:1" fill="#a4a49f" d="M 249.5,73.5 C 248.781,75.7638 248.448,78.0971 248.5,80.5C 247.539,78.7354 247.205,76.7354 247.5,74.5C 248.167,74.1667 248.833,73.8333 249.5,73.5 Z"/></g>
<g><path style="opacity:1" fill="#2f432b" d="M 315.5,76.5 C 313.544,77.4918 311.544,78.4918 309.5,79.5C 310.687,77.0246 312.687,76.0246 315.5,76.5 Z"/></g>
<g><path style="opacity:1" fill="#2c4820" d="M 329.5,76.5 C 328.735,76.0766 327.902,75.7432 327,75.5C 323.385,77.5622 319.552,78.8955 315.5,79.5C 318.666,77.1671 322.166,75.5004 326,74.5C 327.681,74.6083 328.848,75.2749 329.5,76.5 Z"/></g>
<g><path style="opacity:1" fill="#aeaaa8" d="M 223.5,74.5 C 226.481,75.829 229.481,77.1624 232.5,78.5C 233.739,78.0576 234.739,77.3909 235.5,76.5C 235.5,77.5 235.5,78.5 235.5,79.5C 230.518,79.9439 226.518,78.2772 223.5,74.5 Z"/></g>
<g><path style="opacity:1" fill="#5f8e3f" d="M 315.5,74.5 C 315.5,75.1667 315.5,75.8333 315.5,76.5C 312.687,76.0246 310.687,77.0246 309.5,79.5C 307.833,80.1667 306.167,80.8333 304.5,81.5C 299.541,82.2617 294.541,82.095 289.5,81C 288.944,80.6174 288.611,80.1174 288.5,79.5C 288.389,78.8826 288.056,78.3826 287.5,78C 291.377,77.2713 295.211,77.438 299,78.5C 302.116,77.0909 305.282,76.0909 308.5,75.5C 310.607,74.5318 312.941,74.1984 315.5,74.5 Z"/></g>
<g><path style="opacity:1" fill="#56843c" d="M 329.5,76.5 C 332.344,82.2694 332.011,87.9361 328.5,93.5C 323.102,94.5889 318.769,97.2556 315.5,101.5C 312.09,101.457 308.757,101.957 305.5,103C 304.619,103.708 303.953,104.542 303.5,105.5C 295.92,106.981 288.253,107.647 280.5,107.5C 268.495,107.667 256.495,107.5 244.5,107C 241.305,106.819 238.305,106.319 235.5,105.5C 254.17,105.667 272.836,105.5 291.5,105C 294.513,104.498 297.513,103.998 300.5,103.5C 300.739,101.533 300.406,99.6995 299.5,98C 300.938,97.7811 302.271,97.2811 303.5,96.5C 300.694,95.8324 298.028,95.1657 295.5,94.5C 296.833,94.5 297.5,93.8333 297.5,92.5C 297.215,90.712 297.548,89.0453 298.5,87.5C 304.135,84.6817 309.802,82.0151 315.5,79.5C 319.552,78.8955 323.385,77.5622 327,75.5C 327.902,75.7432 328.735,76.0766 329.5,76.5 Z"/></g>
<g><path style="opacity:1" fill="#2b441c" d="M 286.5,79.5 C 287.167,79.5 287.833,79.5 288.5,79.5C 288.611,80.1174 288.944,80.6174 289.5,81C 294.541,82.095 299.541,82.2617 304.5,81.5C 304.082,82.2216 303.416,82.7216 302.5,83C 298.833,83.6667 295.167,83.6667 291.5,83C 289.119,82.7767 287.453,81.61 286.5,79.5 Z"/></g>
<g><path style="opacity:1" fill="#10220f" d="M 214.5,74.5 C 214.892,76.1789 215.392,77.8455 216,79.5C 218.363,81.3661 220.53,83.3661 222.5,85.5C 222.918,86.2216 223.584,86.7216 224.5,87C 223.833,87.1667 223.167,87.3333 222.5,87.5C 220.823,86.8131 219.156,86.1465 217.5,85.5C 215.533,83.6961 213.699,81.6961 212,79.5C 211.517,78.552 211.351,77.552 211.5,76.5C 211.349,71.3861 212.349,70.7194 214.5,74.5 Z"/></g>
<g><path style="opacity:0.102" fill="#0c170e" d="M 110.5,76.5 C 106.163,82.1672 101.496,87.5005 96.5,92.5C 94.3567,94.1307 92.69,96.1307 91.5,98.5C 91.5752,95.5933 92.4086,92.9266 94,90.5C 98.3333,86.1667 102.667,81.8333 107,77.5C 107.333,77.8333 107.667,78.1667 108,78.5C 108.417,77.244 109.25,76.5774 110.5,76.5 Z"/></g>
<g><path style="opacity:1" fill="#284118" d="M 284.5,83.5 C 288.737,86.2281 292.571,89.5615 296,93.5C 296.383,92.944 296.883,92.6107 297.5,92.5C 297.5,93.8333 296.833,94.5 295.5,94.5C 291.151,91.4237 287.484,87.7571 284.5,83.5 Z"/></g>
<g><path style="opacity:1" fill="#5c893e" d="M 215.5,70.5 C 216.728,71.3065 217.728,72.3065 218.5,73.5C 220.937,77.2692 224.271,79.9358 228.5,81.5C 229.833,81.5 230.5,82.1667 230.5,83.5C 236.992,84.7169 243.658,85.7169 250.5,86.5C 248.369,87.1687 246.369,87.8354 244.5,88.5C 244.167,88.5 243.833,88.5 243.5,88.5C 239.486,88.6655 235.486,88.4988 231.5,88C 228.688,86.4511 225.688,85.6178 222.5,85.5C 220.53,83.3661 218.363,81.3661 216,79.5C 215.392,77.8455 214.892,76.1789 214.5,74.5C 214.232,72.901 214.566,71.5676 215.5,70.5 Z"/></g>
<g><path style="opacity:1" fill="#375725" d="M 275.5,77.5 C 274.127,77.3433 272.793,77.51 271.5,78C 266.056,84.9772 259.056,89.1438 250.5,90.5C 250.918,89.7784 251.584,89.2784 252.5,89C 249.854,88.5026 247.187,88.3359 244.5,88.5C 246.369,87.8354 248.369,87.1687 250.5,86.5C 243.658,85.7169 236.992,84.7169 230.5,83.5C 237.5,83.5 244.5,83.5 251.5,83.5C 256.334,83.0194 261.001,82.5194 265.5,82C 267.716,79.4465 270.216,77.2799 273,75.5C 274.301,75.6387 275.134,76.3054 275.5,77.5 Z"/></g>
<g><path style="opacity:1" fill="#5a833f" d="M 209.5,74.5 C 210.167,75.1667 210.833,75.8333 211.5,76.5C 211.351,77.552 211.517,78.552 212,79.5C 213.699,81.6961 215.533,83.6961 217.5,85.5C 217.953,86.4584 218.619,87.2917 219.5,88C 223.11,89.3822 226.444,90.8822 229.5,92.5C 227.167,92.5 224.833,92.5 222.5,92.5C 216.723,91.8882 211.056,90.5549 205.5,88.5C 205.5,88.1667 205.5,87.8333 205.5,87.5C 208.167,87.5 210.833,87.5 213.5,87.5C 214.549,83.1694 212.882,81.0027 208.5,81C 209.423,78.9592 209.756,76.7925 209.5,74.5 Z"/></g>
<g><path style="opacity:1" fill="#3b5422" d="M 193.5,83.5 C 195.854,85.1878 197.854,87.1878 199.5,89.5C 195.617,89.2493 193.617,87.2493 193.5,83.5 Z"/></g>
<g><path style="opacity:1" fill="#203a1c" d="M 217.5,85.5 C 219.156,86.1465 220.823,86.8131 222.5,87.5C 223.167,87.3333 223.833,87.1667 224.5,87C 223.584,86.7216 222.918,86.2216 222.5,85.5C 225.688,85.6178 228.688,86.4511 231.5,88C 235.486,88.4988 239.486,88.6655 243.5,88.5C 240.038,89.4816 236.371,89.815 232.5,89.5C 232.5,90.5 232.5,91.5 232.5,92.5C 236.167,92.5 239.833,92.5 243.5,92.5C 240.054,93.6874 236.387,94.3541 232.5,94.5C 232.027,93.0937 231.027,92.427 229.5,92.5C 226.444,90.8822 223.11,89.3822 219.5,88C 218.619,87.2917 217.953,86.4584 217.5,85.5 Z"/></g>
<g><path style="opacity:1" fill="#0e1b0c" d="M 243.5,88.5 C 243.833,88.5 244.167,88.5 244.5,88.5C 247.187,88.3359 249.854,88.5026 252.5,89C 251.584,89.2784 250.918,89.7784 250.5,90.5C 247.848,90.4095 245.515,91.0762 243.5,92.5C 239.833,92.5 236.167,92.5 232.5,92.5C 232.5,91.5 232.5,90.5 232.5,89.5C 236.371,89.815 240.038,89.4816 243.5,88.5 Z"/></g>
<g><path style="opacity:1" fill="#2d4f18" d="M 205.5,88.5 C 211.056,90.5549 216.723,91.8882 222.5,92.5C 219.15,92.665 215.817,92.4983 212.5,92C 209.916,91.1398 207.583,89.9731 205.5,88.5 Z"/></g>
<g><path style="opacity:1" fill="#131e0f" d="M 197.5,81.5 C 199.811,83.7893 202.478,85.7893 205.5,87.5C 205.5,87.8333 205.5,88.1667 205.5,88.5C 207.583,89.9731 209.916,91.1398 212.5,92C 215.817,92.4983 219.15,92.665 222.5,92.5C 224.833,92.5 227.167,92.5 229.5,92.5C 231.027,92.427 232.027,93.0937 232.5,94.5C 231.833,94.5 231.167,94.5 230.5,94.5C 224.5,94.5 218.5,94.5 212.5,94.5C 207.858,93.4497 203.524,91.783 199.5,89.5C 197.854,87.1878 195.854,85.1878 193.5,83.5C 193.215,81.712 193.548,80.0453 194.5,78.5C 195.288,79.7701 196.288,80.7701 197.5,81.5 Z"/></g>
<g><path style="opacity:1" fill="#3f662f" d="M 166.5,94.5 C 164.5,94.5 162.5,94.5 160.5,94.5C 157.167,94.5 153.833,94.5 150.5,94.5C 147.167,94.5 143.833,94.5 140.5,94.5C 140.611,93.8826 140.944,93.3826 141.5,93C 145,92.8333 148.5,92.6667 152,92.5C 157.102,92.2933 161.935,92.96 166.5,94.5 Z"/></g>
<g><path style="opacity:1" fill="#2d3318" d="M 160.5,94.5 C 162.5,94.5 164.5,94.5 166.5,94.5C 172.892,93.9502 178.892,94.9502 184.5,97.5C 186.77,98.5452 188.77,99.8786 190.5,101.5C 188.5,101.5 186.5,101.5 184.5,101.5C 184.167,100.833 183.833,100.167 183.5,99.5C 182.942,98.2101 181.942,97.3768 180.5,97C 173.575,96.9934 166.908,96.1601 160.5,94.5 Z"/></g>
<g><path style="opacity:1" fill="#365a28" d="M 212.5,94.5 C 218.5,94.5 224.5,94.5 230.5,94.5C 227.618,95.9128 224.451,96.5795 221,96.5C 217.85,96.6397 215.017,95.973 212.5,94.5 Z"/></g>
<g><path style="opacity:1" fill="#2a3518" d="M 329.5,76.5 C 329.833,76.5 330.167,76.5 330.5,76.5C 331.496,76.4142 332.329,76.7476 333,77.5C 333.256,80.557 333.756,83.557 334.5,86.5C 333.705,89.1444 333.038,91.8111 332.5,94.5C 329.389,95.9444 326.056,96.7777 322.5,97C 321.944,97.3826 321.611,97.8826 321.5,98.5C 321.5,99.5 321.5,100.5 321.5,101.5C 319.5,101.5 317.5,101.5 315.5,101.5C 318.769,97.2556 323.102,94.5889 328.5,93.5C 332.011,87.9361 332.344,82.2694 329.5,76.5 Z"/></g>
<g><path style="opacity:1" fill="#342106" d="M 150.5,94.5 C 153.833,94.5 157.167,94.5 160.5,94.5C 166.908,96.1601 173.575,96.9934 180.5,97C 181.942,97.3768 182.942,98.2101 183.5,99.5C 168.142,96.4958 152.808,96.1625 137.5,98.5C 138.058,97.2101 139.058,96.3768 140.5,96C 144.025,95.8213 147.359,95.3213 150.5,94.5 Z"/></g>
<g><path style="opacity:1" fill="#363a15" d="M 140.5,94.5 C 143.833,94.5 147.167,94.5 150.5,94.5C 147.359,95.3213 144.025,95.8213 140.5,96C 139.058,96.3768 138.058,97.2101 137.5,98.5C 136.833,98.5 136.5,98.8333 136.5,99.5C 133.615,100.382 130.948,101.716 128.5,103.5C 127.833,103.5 127.167,103.5 126.5,103.5C 126.937,101.926 127.937,100.759 129.5,100C 133.736,99.201 137.403,97.3677 140.5,94.5 Z"/></g>
<g><path style="opacity:1" fill="#77431a" d="M 183.5,99.5 C 183.833,100.167 184.167,100.833 184.5,101.5C 168.626,98.9106 152.626,98.244 136.5,99.5C 136.5,98.8333 136.833,98.5 137.5,98.5C 152.808,96.1625 168.142,96.4958 183.5,99.5 Z"/></g>
<g><path style="opacity:1" fill="#3c6127" d="M 184.5,97.5 C 188.819,98.0355 193.152,98.5355 197.5,99C 198.381,99.7083 199.047,100.542 199.5,101.5C 196.5,101.5 193.5,101.5 190.5,101.5C 188.77,99.8786 186.77,98.5452 184.5,97.5 Z"/></g>
<g><path style="opacity:1" fill="#7a4725" d="M 321.5,98.5 C 323.467,98.2606 325.301,98.5939 327,99.5C 327.801,102.367 327.634,105.034 326.5,107.5C 326.5,105.5 326.5,103.5 326.5,101.5C 324.833,101.5 323.167,101.5 321.5,101.5C 321.5,100.5 321.5,99.5 321.5,98.5 Z"/></g>
<g><path style="opacity:0.551" fill="#152810" d="M 96.5,92.5 C 96.5,93.1667 96.5,93.8333 96.5,94.5C 95.0688,95.9025 93.9022,97.5692 93,99.5C 92.5014,103.152 92.3347,106.818 92.5,110.5C 90.6122,108.012 89.9455,105.012 90.5,101.5C 90.5569,100.391 90.8902,99.391 91.5,98.5C 92.69,96.1307 94.3567,94.1307 96.5,92.5 Z"/></g>
<g><path style="opacity:1" fill="#a05f20" d="M 184.5,101.5 C 186.5,101.5 188.5,101.5 190.5,101.5C 190.5,102.167 190.5,102.833 190.5,103.5C 183.285,103.446 176.118,102.779 169,101.5C 164.999,102.551 160.333,103.218 155,103.5C 150.669,103.67 146.502,103.003 142.5,101.5C 140.334,101.43 140.001,102.096 141.5,103.5C 140.828,105.16 139.828,106.493 138.5,107.5C 137.566,106.432 137.232,105.099 137.5,103.5C 131.402,103.898 131.069,102.565 136.5,99.5C 152.626,98.244 168.626,98.9106 184.5,101.5 Z"/></g>
<g><path style="opacity:1" fill="#2e5122" d="M 199.5,101.5 C 203.012,100.945 206.012,101.612 208.5,103.5C 205.123,103.932 202.123,103.265 199.5,101.5 Z"/></g>
<g><path style="opacity:1" fill="#335927" d="M 213.5,103.5 C 217.79,103.198 221.79,103.864 225.5,105.5C 222.15,105.665 218.817,105.498 215.5,105C 214.584,104.722 213.918,104.222 213.5,103.5 Z"/></g>
<g><path style="opacity:1" fill="#3e3d14" d="M 315.5,101.5 C 311.771,103.163 307.771,104.496 303.5,105.5C 303.953,104.542 304.619,103.708 305.5,103C 308.757,101.957 312.09,101.457 315.5,101.5 Z"/></g>
<g><path style="opacity:1" fill="#925725" d="M 315.5,101.5 C 317.5,101.5 319.5,101.5 321.5,101.5C 321.279,102.735 320.612,103.735 319.5,104.5C 312.032,105.672 304.698,107.005 297.5,108.5C 299.751,107.985 301.751,106.985 303.5,105.5C 307.771,104.496 311.771,103.163 315.5,101.5 Z"/></g>
<g><path style="opacity:1" fill="#995722" d="M 136.5,99.5 C 131.069,102.565 131.402,103.898 137.5,103.5C 137.232,105.099 137.566,106.432 138.5,107.5C 141.026,108.657 143.693,108.657 146.5,107.5C 145.316,108.688 145.316,109.855 146.5,111C 158.417,111.67 170.083,113.503 181.5,116.5C 181.5,116.833 181.5,117.167 181.5,117.5C 168.235,114.869 154.735,113.202 141,112.5C 138.761,111.909 136.594,111.242 134.5,110.5C 134.5,113.167 134.5,115.833 134.5,118.5C 132.042,118.773 130.375,117.773 129.5,115.5C 130.077,113.45 131.41,112.45 133.5,112.5C 133.261,110.533 133.594,108.699 134.5,107C 132.045,105.136 129.878,105.302 128,107.5C 127.163,109.838 126.33,112.172 125.5,114.5C 126.932,117.327 127.599,120.327 127.5,123.5C 127.167,123.5 126.833,123.5 126.5,123.5C 124.817,119.364 124.15,115.031 124.5,110.5C 126.083,108.337 127.416,106.004 128.5,103.5C 130.948,101.716 133.615,100.382 136.5,99.5 Z"/></g>
<g><path style="opacity:1" fill="#a85f1e" d="M 190.5,103.5 C 191.833,103.5 193.167,103.5 194.5,103.5C 194.944,105.113 195.944,106.28 197.5,107C 195.406,108.352 193.073,108.852 190.5,108.5C 190.5,109.5 190.5,110.5 190.5,111.5C 187.813,111.664 185.146,111.497 182.5,111C 184.246,110.529 185.913,109.862 187.5,109C 181.313,108.324 175.146,108.49 169,109.5C 167.833,109.333 166.667,109.167 165.5,109C 165.833,108.667 166.167,108.333 166.5,108C 163.183,107.502 159.85,107.335 156.5,107.5C 153.167,107.5 149.833,107.5 146.5,107.5C 143.693,108.657 141.026,108.657 138.5,107.5C 139.828,106.493 140.828,105.16 141.5,103.5C 140.001,102.096 140.334,101.43 142.5,101.5C 146.502,103.003 150.669,103.67 155,103.5C 160.333,103.218 164.999,102.551 169,101.5C 176.118,102.779 183.285,103.446 190.5,103.5 Z"/></g>
<g><path style="opacity:1" fill="#5e3510" d="M 199.5,105.5 C 203.514,105.334 207.514,105.501 211.5,106C 216.473,107.573 221.473,108.74 226.5,109.5C 217.16,109.544 208.16,108.211 199.5,105.5 Z"/></g>
<g><path style="opacity:1" fill="#1f1a08" d="M 190.5,101.5 C 193.5,101.5 196.5,101.5 199.5,101.5C 202.123,103.265 205.123,103.932 208.5,103.5C 210.167,103.5 211.833,103.5 213.5,103.5C 213.918,104.222 214.584,104.722 215.5,105C 218.817,105.498 222.15,105.665 225.5,105.5C 225.833,105.5 226.167,105.5 226.5,105.5C 230.233,106.977 234.233,107.811 238.5,108C 246.159,108.5 253.826,108.666 261.5,108.5C 261.5,109.167 261.5,109.833 261.5,110.5C 249.815,110.635 238.148,110.302 226.5,109.5C 221.473,108.74 216.473,107.573 211.5,106C 207.514,105.501 203.514,105.334 199.5,105.5C 198.448,103.744 196.781,103.077 194.5,103.5C 193.167,103.5 191.833,103.5 190.5,103.5C 190.5,102.833 190.5,102.167 190.5,101.5 Z"/></g>
<g><path style="opacity:1" fill="#466933" d="M 96.5,94.5 C 95.6901,98.7172 94.6901,102.884 93.5,107C 94.1074,110.143 94.4408,113.31 94.5,116.5C 92.9261,114.898 92.2594,112.898 92.5,110.5C 92.3347,106.818 92.5014,103.152 93,99.5C 93.9022,97.5692 95.0688,95.9025 96.5,94.5 Z"/></g>
<g><path style="opacity:1" fill="#405a27" d="M 226.5,105.5 C 229.5,105.5 232.5,105.5 235.5,105.5C 238.305,106.319 241.305,106.819 244.5,107C 256.495,107.5 268.495,107.667 280.5,107.5C 274.355,108.49 268.022,108.823 261.5,108.5C 253.826,108.666 246.159,108.5 238.5,108C 234.233,107.811 230.233,106.977 226.5,105.5 Z"/></g>
<g><path style="opacity:0.029" fill="#1c1621" d="M 86.5,109.5 C 86.8966,108.475 87.5632,108.308 88.5,109C 87.9056,109.464 87.2389,109.631 86.5,109.5 Z"/></g>
<g><path style="opacity:1" fill="#492308" d="M 146.5,107.5 C 149.833,107.5 153.167,107.5 156.5,107.5C 163.272,109.673 170.272,111.339 177.5,112.5C 177.611,113.117 177.944,113.617 178.5,114C 184.61,114.088 190.61,114.755 196.5,116C 191.511,116.499 186.511,116.666 181.5,116.5C 170.083,113.503 158.417,111.67 146.5,111C 145.316,109.855 145.316,108.688 146.5,107.5 Z"/></g>
<g><path style="opacity:1" fill="#2b310d" d="M 303.5,105.5 C 301.751,106.985 299.751,107.985 297.5,108.5C 285.587,110.275 273.587,110.942 261.5,110.5C 261.5,109.833 261.5,109.167 261.5,108.5C 268.022,108.823 274.355,108.49 280.5,107.5C 288.253,107.647 295.92,106.981 303.5,105.5 Z"/></g>
<g><path style="opacity:1" fill="#a15e20" d="M 194.5,103.5 C 196.781,103.077 198.448,103.744 199.5,105.5C 208.16,108.211 217.16,109.544 226.5,109.5C 229.023,110.384 231.69,111.218 234.5,112C 249.496,112.5 264.496,112.667 279.5,112.5C 276.742,113.761 273.742,114.594 270.5,115C 254.165,115.813 237.832,116.646 221.5,117.5C 223.969,118.168 226.302,118.835 228.5,119.5C 221.731,119.612 215.065,118.945 208.5,117.5C 198.642,113.802 188.308,112.135 177.5,112.5C 170.272,111.339 163.272,109.673 156.5,107.5C 159.85,107.335 163.183,107.502 166.5,108C 166.167,108.333 165.833,108.667 165.5,109C 166.667,109.167 167.833,109.333 169,109.5C 175.146,108.49 181.313,108.324 187.5,109C 185.913,109.862 184.246,110.529 182.5,111C 185.146,111.497 187.813,111.664 190.5,111.5C 190.5,110.5 190.5,109.5 190.5,108.5C 193.073,108.852 195.406,108.352 197.5,107C 195.944,106.28 194.944,105.113 194.5,103.5 Z"/></g>
<g><path style="opacity:1" fill="#643917" d="M 297.5,108.5 C 295.889,110.095 293.889,111.261 291.5,112C 287.514,112.499 283.514,112.666 279.5,112.5C 264.496,112.667 249.496,112.5 234.5,112C 231.69,111.218 229.023,110.384 226.5,109.5C 238.148,110.302 249.815,110.635 261.5,110.5C 273.587,110.942 285.587,110.275 297.5,108.5 Z"/></g>
<g><path style="opacity:1" fill="#5a3213" d="M 326.5,107.5 C 325.551,109.737 324.884,112.071 324.5,114.5C 322.801,114.34 321.134,114.506 319.5,115C 316.028,116.71 312.695,118.71 309.5,121C 306.854,121.497 304.187,121.664 301.5,121.5C 310.805,118.678 319.139,114.011 326.5,107.5 Z"/></g>
<g><path style="opacity:1" fill="#a8601d" d="M 321.5,101.5 C 323.167,101.5 324.833,101.5 326.5,101.5C 326.5,103.5 326.5,105.5 326.5,107.5C 319.139,114.011 310.805,118.678 301.5,121.5C 300.167,121.5 298.833,121.5 297.5,121.5C 283.179,122.49 268.846,122.656 254.5,122C 253.692,121.692 253.025,121.192 252.5,120.5C 245.866,119.503 239.2,119.17 232.5,119.5C 231.167,119.5 229.833,119.5 228.5,119.5C 226.302,118.835 223.969,118.168 221.5,117.5C 237.832,116.646 254.165,115.813 270.5,115C 273.742,114.594 276.742,113.761 279.5,112.5C 283.514,112.666 287.514,112.499 291.5,112C 293.889,111.261 295.889,110.095 297.5,108.5C 304.698,107.005 312.032,105.672 319.5,104.5C 320.612,103.735 321.279,102.735 321.5,101.5 Z"/></g>
<g><path style="opacity:1" fill="#1e2f14" d="M 122.5,110.5 C 121.274,114.845 121.274,119.178 122.5,123.5C 119.945,120.373 118.945,116.706 119.5,112.5C 119.821,110.952 120.821,110.285 122.5,110.5 Z"/></g>
<g><path style="opacity:1" fill="#5d3410" d="M 177.5,112.5 C 188.308,112.135 198.642,113.802 208.5,117.5C 205.482,117.335 202.482,117.502 199.5,118C 202.365,118.183 205.031,118.683 207.5,119.5C 198.945,118.079 190.278,117.412 181.5,117.5C 181.5,117.167 181.5,116.833 181.5,116.5C 186.511,116.666 191.511,116.499 196.5,116C 190.61,114.755 184.61,114.088 178.5,114C 177.944,113.617 177.611,113.117 177.5,112.5 Z"/></g>
<g><path style="opacity:0.131" fill="#13190f" d="M 90.5,101.5 C 89.9455,105.012 90.6122,108.012 92.5,110.5C 92.2594,112.898 92.9261,114.898 94.5,116.5C 94.2627,117.791 94.596,118.791 95.5,119.5C 95.5,121.5 95.5,123.5 95.5,125.5C 90.9758,128.154 90.6425,127.654 94.5,124C 89.7998,117.012 88.4665,109.512 90.5,101.5 Z"/></g>
<g><path style="opacity:1" fill="#5f361e" d="M 124.5,110.5 C 124.15,115.031 124.817,119.364 126.5,123.5C 125.25,123.423 124.417,122.756 124,121.5C 123.19,117.642 123.357,113.976 124.5,110.5 Z"/></g>
<g><path style="opacity:1" fill="#a85e1a" d="M 181.5,117.5 C 180.993,118.859 179.993,119.859 178.5,120.5C 174.765,121.153 171.099,121.986 167.5,123C 154.171,123.5 140.837,123.667 127.5,123.5C 127.599,120.327 126.932,117.327 125.5,114.5C 126.33,112.172 127.163,109.838 128,107.5C 129.878,105.302 132.045,105.136 134.5,107C 133.594,108.699 133.261,110.533 133.5,112.5C 131.41,112.45 130.077,113.45 129.5,115.5C 130.375,117.773 132.042,118.773 134.5,118.5C 134.5,115.833 134.5,113.167 134.5,110.5C 136.594,111.242 138.761,111.909 141,112.5C 154.735,113.202 168.235,114.869 181.5,117.5 Z"/></g>
<g><path style="opacity:1" fill="#411f09" d="M 208.5,117.5 C 215.065,118.945 221.731,119.612 228.5,119.5C 229.833,119.5 231.167,119.5 232.5,119.5C 236.5,120.167 240.5,120.833 244.5,121.5C 237.745,120.877 231.412,121.544 225.5,123.5C 219.917,122.268 214.25,121.434 208.5,121C 207.944,120.617 207.611,120.117 207.5,119.5C 205.031,118.683 202.365,118.183 199.5,118C 202.482,117.502 205.482,117.335 208.5,117.5 Z"/></g>
<g><path style="opacity:0.008" fill="#121e15" d="M 322.5,121.5 C 323.833,122.167 323.833,122.167 322.5,121.5 Z"/></g>
<g><path style="opacity:1" fill="#8a521d" d="M 232.5,119.5 C 239.2,119.17 245.866,119.503 252.5,120.5C 253.025,121.192 253.692,121.692 254.5,122C 268.846,122.656 283.179,122.49 297.5,121.5C 294.997,122.371 292.33,123.037 289.5,123.5C 280.174,124.76 270.841,124.76 261.5,123.5C 255.705,123.56 250.039,122.893 244.5,121.5C 240.5,120.833 236.5,120.167 232.5,119.5 Z"/></g>
<g><path style="opacity:0.02" fill="#171d11" d="M 322.5,122.5 C 321.923,123.773 321.257,123.773 320.5,122.5C 320.97,121.537 321.637,121.537 322.5,122.5 Z"/></g>
<g><path style="opacity:1" fill="#2c1605" d="M 244.5,121.5 C 250.039,122.893 255.705,123.56 261.5,123.5C 257.971,125.423 253.971,126.089 249.5,125.5C 242.049,124.028 234.382,123.361 226.5,123.5C 226.167,123.5 225.833,123.5 225.5,123.5C 231.412,121.544 237.745,120.877 244.5,121.5 Z"/></g>
<g><path style="opacity:1" fill="#3f230f" d="M 297.5,121.5 C 298.833,121.5 300.167,121.5 301.5,121.5C 301.97,122.693 302.97,123.36 304.5,123.5C 307.999,122.406 311.332,122.406 314.5,123.5C 308.855,124.328 303.188,124.994 297.5,125.5C 293.818,125.665 290.152,125.499 286.5,125C 287.737,124.768 288.737,124.268 289.5,123.5C 292.33,123.037 294.997,122.371 297.5,121.5 Z"/></g>
<g><path style="opacity:1" fill="#203718" d="M 95.5,119.5 C 97.5848,121.684 98.5848,124.351 98.5,127.5C 97.7777,126.449 96.7777,125.782 95.5,125.5C 95.5,123.5 95.5,121.5 95.5,119.5 Z"/></g>
<g><path style="opacity:1" fill="#30221b" d="M 332.5,94.5 C 333.043,94.56 333.376,94.8933 333.5,95.5C 332.568,97.7954 331.735,100.129 331,102.5C 330.667,101.833 330.333,101.167 330,100.5C 329.749,102.433 329.249,104.266 328.5,106C 329.464,108.647 328.964,111.147 327,113.5C 324.923,117.081 322.089,119.747 318.5,121.5C 319.309,123.071 319.643,124.738 319.5,126.5C 324.794,126.682 324.794,127.182 319.5,128C 320.167,128.333 320.833,128.667 321.5,129C 320.167,130.667 318.833,132.333 317.5,134C 311.579,136.209 306.079,139.043 301,142.5C 299.989,141.663 298.822,141.33 297.5,141.5C 297.5,140.833 297.5,140.167 297.5,139.5C 302.355,138.503 306.688,136.336 310.5,133C 312.134,132.506 313.801,132.34 315.5,132.5C 315.81,129.287 315.477,126.287 314.5,123.5C 311.332,122.406 307.999,122.406 304.5,123.5C 302.97,123.36 301.97,122.693 301.5,121.5C 304.187,121.664 306.854,121.497 309.5,121C 312.695,118.71 316.028,116.71 319.5,115C 321.134,114.506 322.801,114.34 324.5,114.5C 324.884,112.071 325.551,109.737 326.5,107.5C 327.634,105.034 327.801,102.367 327,99.5C 325.301,98.5939 323.467,98.2606 321.5,98.5C 321.611,97.8826 321.944,97.3826 322.5,97C 326.056,96.7777 329.389,95.9444 332.5,94.5 Z"/></g>
<g><path style="opacity:0.004" fill="#111e18" d="M 88.5,126.5 C 89.8333,127.167 89.8333,127.167 88.5,126.5 Z"/></g>
<g><path style="opacity:1" fill="#6a4318" d="M 127.5,124.5 C 129.893,125.95 132.56,126.617 135.5,126.5C 144.994,125.298 154.327,125.298 163.5,126.5C 154.149,126.349 144.816,126.683 135.5,127.5C 133.5,127.333 131.5,127.167 129.5,127C 128.619,126.292 127.953,125.458 127.5,124.5 Z"/></g>
<g><path style="opacity:1" fill="#362909" d="M 126.5,103.5 C 127.167,103.5 127.833,103.5 128.5,103.5C 127.416,106.004 126.083,108.337 124.5,110.5C 123.357,113.976 123.19,117.642 124,121.5C 124.417,122.756 125.25,123.423 126.5,123.5C 126.833,123.5 127.167,123.5 127.5,123.5C 127.5,123.833 127.5,124.167 127.5,124.5C 127.953,125.458 128.619,126.292 129.5,127C 131.5,127.167 133.5,127.333 135.5,127.5C 144.816,126.683 154.149,126.349 163.5,126.5C 166.655,126.99 169.655,127.656 172.5,128.5C 157.833,128.5 143.167,128.5 128.5,128.5C 125.911,127.581 123.911,125.914 122.5,123.5C 121.274,119.178 121.274,114.845 122.5,110.5C 122.725,107.454 124.058,105.121 126.5,103.5 Z"/></g>
<g><path style="opacity:1" fill="#a45f1f" d="M 181.5,117.5 C 190.278,117.412 198.945,118.079 207.5,119.5C 207.611,120.117 207.944,120.617 208.5,121C 214.25,121.434 219.917,122.268 225.5,123.5C 225.833,123.5 226.167,123.5 226.5,123.5C 233.944,125.058 241.611,125.724 249.5,125.5C 249.5,126.167 249.833,126.5 250.5,126.5C 251.263,127.268 252.263,127.768 253.5,128C 260.833,128.167 268.167,128.333 275.5,128.5C 283.198,128.497 290.532,127.831 297.5,126.5C 297.5,126.167 297.5,125.833 297.5,125.5C 303.188,124.994 308.855,124.328 314.5,123.5C 315.477,126.287 315.81,129.287 315.5,132.5C 313.801,132.34 312.134,132.506 310.5,133C 306.688,136.336 302.355,138.503 297.5,139.5C 291.5,139.5 285.5,139.5 279.5,139.5C 266.33,138.321 252.997,137.321 239.5,136.5C 232.345,135.671 225.011,135.171 217.5,135C 208.544,133.172 199.544,131.672 190.5,130.5C 184.53,129.623 178.53,128.956 172.5,128.5C 169.655,127.656 166.655,126.99 163.5,126.5C 154.327,125.298 144.994,125.298 135.5,126.5C 132.56,126.617 129.893,125.95 127.5,124.5C 127.5,124.167 127.5,123.833 127.5,123.5C 140.837,123.667 154.171,123.5 167.5,123C 171.099,121.986 174.765,121.153 178.5,120.5C 179.993,119.859 180.993,118.859 181.5,117.5 Z"/></g>
<g><path style="opacity:1" fill="#512907" d="M 261.5,123.5 C 270.841,124.76 280.174,124.76 289.5,123.5C 288.737,124.268 287.737,124.768 286.5,125C 290.152,125.499 293.818,125.665 297.5,125.5C 297.5,125.833 297.5,126.167 297.5,126.5C 281.837,127.762 266.17,127.762 250.5,126.5C 249.833,126.5 249.5,126.167 249.5,125.5C 253.971,126.089 257.971,125.423 261.5,123.5 Z"/></g>
<g><path style="opacity:1" fill="#6a3b16" d="M 226.5,123.5 C 234.382,123.361 242.049,124.028 249.5,125.5C 241.611,125.724 233.944,125.058 226.5,123.5 Z"/></g>
<g><path style="opacity:1" fill="#8a5120" d="M 250.5,126.5 C 266.17,127.762 281.837,127.762 297.5,126.5C 290.532,127.831 283.198,128.497 275.5,128.5C 268.167,128.333 260.833,128.167 253.5,128C 252.263,127.768 251.263,127.268 250.5,126.5 Z"/></g>
<g><path style="opacity:0.008" fill="#1e1a0f" d="M 90.5,129.5 C 90.8966,128.475 91.5632,128.308 92.5,129C 91.9056,129.464 91.2389,129.631 90.5,129.5 Z"/></g>
<g><path style="opacity:1" fill="#07160f" d="M 95.5,125.5 C 96.7777,125.782 97.7777,126.449 98.5,127.5C 99.8146,128.895 99.4812,129.895 97.5,130.5C 96.8333,130.5 96.1667,130.5 95.5,130.5C 94.9285,129.027 94.9285,127.36 95.5,125.5 Z"/></g>
<g><path style="opacity:1" fill="#345026" d="M 128.5,128.5 C 143.167,128.5 157.833,128.5 172.5,128.5C 172.5,129.167 172.5,129.833 172.5,130.5C 158.163,130.667 143.829,130.5 129.5,130C 128.944,129.617 128.611,129.117 128.5,128.5 Z"/></g>
<g><path style="opacity:1" fill="#493a0d" d="M 172.5,128.5 C 178.53,128.956 184.53,129.623 190.5,130.5C 190.5,131.167 190.5,131.833 190.5,132.5C 185.467,131.978 180.467,131.311 175.5,130.5C 174.5,130.5 173.5,130.5 172.5,130.5C 172.5,129.833 172.5,129.167 172.5,128.5 Z"/></g>
<g><path style="opacity:1" fill="#435a23" d="M 175.5,130.5 C 180.467,131.311 185.467,131.978 190.5,132.5C 190.5,133.167 190.5,133.833 190.5,134.5C 188.473,134.662 186.473,134.495 184.5,134C 181.092,133.343 178.092,132.177 175.5,130.5 Z"/></g>
<g><path style="opacity:1" fill="#6a3a18" d="M 190.5,130.5 C 199.544,131.672 208.544,133.172 217.5,135C 225.011,135.171 232.345,135.671 239.5,136.5C 230.494,136.666 221.494,136.5 212.5,136C 205.153,134.796 197.82,133.629 190.5,132.5C 190.5,131.833 190.5,131.167 190.5,130.5 Z"/></g>
<g><path style="opacity:1" fill="#201607" d="M 190.5,132.5 C 197.82,133.629 205.153,134.796 212.5,136C 221.494,136.5 230.494,136.666 239.5,136.5C 239.5,136.833 239.5,137.167 239.5,137.5C 231.35,138.493 223.017,138.826 214.5,138.5C 207.63,137.092 200.63,135.759 193.5,134.5C 192.5,134.5 191.5,134.5 190.5,134.5C 190.5,133.833 190.5,133.167 190.5,132.5 Z"/></g>
<g><path style="opacity:1" fill="#714818" d="M 239.5,137.5 C 239.5,137.167 239.5,136.833 239.5,136.5C 252.997,137.321 266.33,138.321 279.5,139.5C 273.5,139.5 267.5,139.5 261.5,139.5C 254.087,139.605 246.753,138.938 239.5,137.5 Z"/></g>
<g><path style="opacity:1" fill="#1c2e14" d="M 95.5,130.5 C 96.1667,130.5 96.8333,130.5 97.5,130.5C 96.8902,131.391 96.5569,132.391 96.5,133.5C 96.5,136.167 96.5,138.833 96.5,141.5C 95.8333,141.5 95.1667,141.5 94.5,141.5C 94.0733,138.99 93.4067,136.657 92.5,134.5C 92.5,133.167 92.5,131.833 92.5,130.5C 93.5,130.5 94.5,130.5 95.5,130.5 Z"/></g>
<g><path style="opacity:1" fill="#283013" d="M 239.5,137.5 C 246.753,138.938 254.087,139.605 261.5,139.5C 261.5,139.833 261.5,140.167 261.5,140.5C 245.66,140.207 229.994,139.54 214.5,138.5C 223.017,138.826 231.35,138.493 239.5,137.5 Z"/></g>
<g><path style="opacity:1" fill="#3f602f" d="M 193.5,134.5 C 200.63,135.759 207.63,137.092 214.5,138.5C 229.994,139.54 245.66,140.207 261.5,140.5C 261.5,140.833 261.5,141.167 261.5,141.5C 245.83,141.667 230.163,141.5 214.5,141C 207.782,139.792 201.115,138.292 194.5,136.5C 194.137,135.817 193.804,135.15 193.5,134.5 Z"/></g>
<g><path style="opacity:1" fill="#483c15" d="M 261.5,139.5 C 267.5,139.5 273.5,139.5 279.5,139.5C 279.5,140.167 279.5,140.833 279.5,141.5C 279.167,141.5 278.833,141.5 278.5,141.5C 275.167,141.5 271.833,141.5 268.5,141.5C 266.167,141.5 263.833,141.5 261.5,141.5C 261.5,141.167 261.5,140.833 261.5,140.5C 261.5,140.167 261.5,139.833 261.5,139.5 Z"/></g>
<g><path style="opacity:0.99" fill="#5d3114" d="M 279.5,139.5 C 285.5,139.5 291.5,139.5 297.5,139.5C 297.5,140.167 297.5,140.833 297.5,141.5C 295.833,141.5 294.167,141.5 292.5,141.5C 288.167,141.5 283.833,141.5 279.5,141.5C 279.5,140.833 279.5,140.167 279.5,139.5 Z"/></g>
<g><path style="opacity:1" fill="#1f4368" d="M 94.5,141.5 C 95.1667,141.5 95.8333,141.5 96.5,141.5C 96.5,142.167 96.5,142.833 96.5,143.5C 95.1667,143.5 94.5,142.833 94.5,141.5 Z"/></g>
<g><path style="opacity:1" fill="#244313" d="M 98.5,127.5 C 99.4959,127.414 100.329,127.748 101,128.5C 101.792,131.106 103.292,133.106 105.5,134.5C 108.28,138.782 111.613,142.616 115.5,146C 121.452,150.16 127.452,153.994 133.5,157.5C 128.386,156.867 123.386,155.867 118.5,154.5C 117.833,154.5 117.167,154.5 116.5,154.5C 116.167,154.5 115.833,154.5 115.5,154.5C 115.5,153.833 115.5,153.167 115.5,152.5C 117.54,153.519 119.54,153.519 121.5,152.5C 113.048,147.548 106.048,141.048 100.5,133C 99.0715,132.421 97.7382,132.588 96.5,133.5C 96.5569,132.391 96.8902,131.391 97.5,130.5C 99.4812,129.895 99.8146,128.895 98.5,127.5 Z"/></g>
<g><path style="opacity:1" fill="#56873b" d="M 119.5,92.5 C 115.48,95.3583 112.314,99.025 110,103.5C 108.863,110.12 108.363,116.786 108.5,123.5C 109.833,123.5 111.167,123.5 112.5,123.5C 112.617,115.656 113.784,107.989 116,100.5C 118.039,98.1255 120.372,96.1255 123,94.5C 123.464,93.9056 123.631,93.2389 123.5,92.5C 128.579,92.7825 128.746,93.7825 124,95.5C 123.268,98.7106 121.434,100.711 118.5,101.5C 117.607,104.585 116.94,107.752 116.5,111C 116.906,114.845 117.406,118.679 118,122.5C 118.179,118.975 118.679,115.641 119.5,112.5C 118.945,116.706 119.945,120.373 122.5,123.5C 123.911,125.914 125.911,127.581 128.5,128.5C 128.611,129.117 128.944,129.617 129.5,130C 143.829,130.5 158.163,130.667 172.5,130.5C 173.5,130.5 174.5,130.5 175.5,130.5C 178.092,132.177 181.092,133.343 184.5,134C 186.473,134.495 188.473,134.662 190.5,134.5C 191.5,134.5 192.5,134.5 193.5,134.5C 193.804,135.15 194.137,135.817 194.5,136.5C 201.115,138.292 207.782,139.792 214.5,141C 230.163,141.5 245.83,141.667 261.5,141.5C 261.5,142.833 261.5,144.167 261.5,145.5C 257.411,147.052 253.744,149.385 250.5,152.5C 249.833,152.5 249.5,152.833 249.5,153.5C 244.348,154.314 239.348,155.314 234.5,156.5C 217.474,160.34 200.141,162.007 182.5,161.5C 172.5,161.333 162.5,161.167 152.5,161C 153.167,160.667 153.833,160.333 154.5,160C 148.477,159.641 142.477,159.141 136.5,158.5C 135.791,157.596 134.791,157.263 133.5,157.5C 127.452,153.994 121.452,150.16 115.5,146C 111.613,142.616 108.28,138.782 105.5,134.5C 106.978,134.762 108.311,134.429 109.5,133.5C 110.074,131.941 110.74,130.441 111.5,129C 110.975,128.308 110.308,127.808 109.5,127.5C 107.958,128.747 106.458,128.747 105,127.5C 104.573,124.551 103.739,121.717 102.5,119C 104.815,110.26 107.815,101.76 111.5,93.5C 108.728,91.9146 108.894,90.9146 112,90.5C 114.36,91.78 116.86,92.4467 119.5,92.5 Z"/></g>
<g><path style="opacity:1" fill="#365e20" d="M 119.5,92.5 C 120.833,92.5 122.167,92.5 123.5,92.5C 123.631,93.2389 123.464,93.9056 123,94.5C 120.372,96.1255 118.039,98.1255 116,100.5C 113.784,107.989 112.617,115.656 112.5,123.5C 111.167,123.5 109.833,123.5 108.5,123.5C 108.363,116.786 108.863,110.12 110,103.5C 112.314,99.025 115.48,95.3583 119.5,92.5 Z"/></g>
<g><path style="opacity:0.033" fill="#12100c" d="M 278.5,141.5 C 278.833,141.5 279.167,141.5 279.5,141.5C 283.833,141.5 288.167,141.5 292.5,141.5C 290.719,143.787 288.552,144.12 286,142.5C 282.865,143.654 279.698,144.654 276.5,145.5C 277.167,144.167 277.833,142.833 278.5,141.5 Z"/></g>
<g><path style="opacity:1" fill="#2b3f56" d="M 97.5,143.5 C 99.3797,143.229 100.713,143.896 101.5,145.5C 99.5168,145.843 98.1834,145.176 97.5,143.5 Z"/></g>
<g><path style="opacity:1" fill="#4e7b39" d="M 261.5,141.5 C 263.833,141.5 266.167,141.5 268.5,141.5C 269.919,142.451 271.585,142.784 273.5,142.5C 273.5,143.5 273.5,144.5 273.5,145.5C 267.452,147.401 261.786,149.734 256.5,152.5C 254.5,152.5 252.5,152.5 250.5,152.5C 253.744,149.385 257.411,147.052 261.5,145.5C 261.5,144.167 261.5,142.833 261.5,141.5 Z"/></g>
<g><path style="opacity:0.02" fill="#15211a" d="M 295.5,144.5 C 296.833,145.167 296.833,145.167 295.5,144.5 Z"/></g>
<g><path style="opacity:1" fill="#264353" d="M 101.5,146.5 C 101.5,146.167 101.5,145.833 101.5,145.5C 103.404,145.738 104.738,146.738 105.5,148.5C 103.938,148.267 102.605,147.6 101.5,146.5 Z"/></g>
<g><path style="opacity:0.243" fill="#1e3017" d="M 268.5,141.5 C 271.833,141.5 275.167,141.5 278.5,141.5C 277.833,142.833 277.167,144.167 276.5,145.5C 272.818,148.008 268.818,150.008 264.5,151.5C 264.167,150.167 263.833,150.167 263.5,151.5C 262.288,152.23 261.288,153.23 260.5,154.5C 259.378,153.37 258.044,152.703 256.5,152.5C 261.786,149.734 267.452,147.401 273.5,145.5C 273.5,144.5 273.5,143.5 273.5,142.5C 271.585,142.784 269.919,142.451 268.5,141.5 Z"/></g>
<g><path style="opacity:1" fill="#294750" d="M 106.5,148.5 C 108.027,148.427 109.027,149.094 109.5,150.5C 107.973,150.573 106.973,149.906 106.5,148.5 Z"/></g>
<g><path style="opacity:1" fill="#5c8245" d="M 115.5,152.5 C 114.833,152.5 114.167,152.5 113.5,152.5C 112.713,150.896 111.38,150.229 109.5,150.5C 109.027,149.094 108.027,148.427 106.5,148.5C 106.167,148.5 105.833,148.5 105.5,148.5C 104.738,146.738 103.404,145.738 101.5,145.5C 100.713,143.896 99.3797,143.229 97.5,143.5C 97.1667,143.5 96.8333,143.5 96.5,143.5C 96.5,142.833 96.5,142.167 96.5,141.5C 96.5,138.833 96.5,136.167 96.5,133.5C 97.7382,132.588 99.0715,132.421 100.5,133C 106.048,141.048 113.048,147.548 121.5,152.5C 119.54,153.519 117.54,153.519 115.5,152.5 Z"/></g>
<g><path style="opacity:1" fill="#0f32a0" d="M 101.5,146.5 C 102.605,147.6 103.938,148.267 105.5,148.5C 105.833,148.5 106.167,148.5 106.5,148.5C 106.973,149.906 107.973,150.573 109.5,150.5C 109.5,151.167 109.5,151.833 109.5,152.5C 107.092,151.799 104.758,150.799 102.5,149.5C 101.873,148.583 101.539,147.583 101.5,146.5 Z"/></g>
<g><path style="opacity:0.895" fill="#15171c" d="M 92.5,134.5 C 93.4067,136.657 94.0733,138.99 94.5,141.5C 92.8333,141.5 91.1667,141.5 89.5,141.5C 89.5,142.833 89.5,144.167 89.5,145.5C 88.5043,158.99 88.171,172.656 88.5,186.5C 87.7784,186.918 87.2784,187.584 87,188.5C 86.9544,183.355 87.1211,178.188 87.5,173C 87.3607,165.949 86.6941,159.282 85.5,153C 86.2931,149.589 86.7931,146.089 87,142.5C 88.8506,139.716 90.6839,137.049 92.5,134.5 Z"/></g>
<g><path style="opacity:1" fill="#1c2d5a" d="M 109.5,150.5 C 111.38,150.229 112.713,150.896 113.5,152.5C 112.5,152.5 111.5,152.5 110.5,152.5C 110.167,152.5 109.833,152.5 109.5,152.5C 109.5,151.833 109.5,151.167 109.5,150.5 Z"/></g>
<g><path style="opacity:0.004" fill="#0b140c" d="M 263.5,151.5 C 263.833,151.5 264.167,151.5 264.5,151.5C 264.315,152.17 263.981,152.17 263.5,151.5 Z"/></g>
<g><path style="opacity:1" fill="#112d6d" d="M 113.5,152.5 C 114.167,152.5 114.833,152.5 115.5,152.5C 115.5,153.167 115.5,153.833 115.5,154.5C 114.167,154.5 113.5,153.833 113.5,152.5 Z"/></g>
<g><path style="opacity:1" fill="#0646f7" d="M 101.5,146.5 C 101.539,147.583 101.873,148.583 102.5,149.5C 104.758,150.799 107.092,151.799 109.5,152.5C 109.833,152.5 110.167,152.5 110.5,152.5C 112.951,155.726 116.284,157.392 120.5,157.5C 120.833,157.5 121.167,157.5 121.5,157.5C 120.4,158.605 119.733,159.938 119.5,161.5C 117.723,161.786 116.056,162.453 114.5,163.5C 112.833,163.167 111.833,162.167 111.5,160.5C 109.257,159.526 106.924,159.192 104.5,159.5C 104.5,160.833 104.5,162.167 104.5,163.5C 101.879,163.523 100.545,162.189 100.5,159.5C 100.728,157.603 101.728,156.27 103.5,155.5C 102.311,154.571 100.978,154.238 99.5,154.5C 99.273,165.072 98.273,175.405 96.5,185.5C 94.5,185.5 92.5,185.5 90.5,185.5C 90.3334,172.163 90.5001,158.829 91,145.5C 91.5613,144.978 92.228,144.645 93,144.5C 95.6388,145.994 98.4721,146.661 101.5,146.5 Z"/></g>
<g><path style="opacity:1" fill="#0b35bd" d="M 110.5,152.5 C 111.5,152.5 112.5,152.5 113.5,152.5C 113.5,153.833 114.167,154.5 115.5,154.5C 115.833,154.5 116.167,154.5 116.5,154.5C 117.59,155.857 118.924,156.857 120.5,157.5C 116.284,157.392 112.951,155.726 110.5,152.5 Z"/></g>
<g><path style="opacity:1" fill="#122e7d" d="M 116.5,154.5 C 117.167,154.5 117.833,154.5 118.5,154.5C 122.102,155.634 125.435,157.301 128.5,159.5C 125.789,159.815 123.456,159.148 121.5,157.5C 121.167,157.5 120.833,157.5 120.5,157.5C 118.924,156.857 117.59,155.857 116.5,154.5 Z"/></g>
<g><path style="opacity:1" fill="#1d3014" d="M 250.5,152.5 C 252.5,152.5 254.5,152.5 256.5,152.5C 255.41,153.857 254.076,154.857 252.5,155.5C 251.292,156.234 249.959,156.567 248.5,156.5C 248.5,157.5 248.5,158.5 248.5,159.5C 247.833,159.5 247.167,159.5 246.5,159.5C 246.489,157.983 245.823,156.816 244.5,156C 246.315,155.243 247.981,154.41 249.5,153.5C 249.5,152.833 249.833,152.5 250.5,152.5 Z"/></g>
<g><path style="opacity:1" fill="#2b4c15" d="M 249.5,153.5 C 247.981,154.41 246.315,155.243 244.5,156C 245.823,156.816 246.489,157.983 246.5,159.5C 246.167,159.5 245.833,159.5 245.5,159.5C 241.558,159.125 237.891,158.125 234.5,156.5C 239.348,155.314 244.348,154.314 249.5,153.5 Z"/></g>
<g><path style="opacity:1" fill="#273c36" d="M 118.5,154.5 C 123.386,155.867 128.386,156.867 133.5,157.5C 134.791,157.263 135.791,157.596 136.5,158.5C 139.9,160.085 143.567,161.252 147.5,162C 148.056,162.383 148.389,162.883 148.5,163.5C 148.167,163.5 147.833,163.5 147.5,163.5C 146.5,163.5 145.5,163.5 144.5,163.5C 143.01,161.72 141.01,161.054 138.5,161.5C 136.5,161.5 134.5,161.5 132.5,161.5C 131.817,159.824 130.483,159.157 128.5,159.5C 125.435,157.301 122.102,155.634 118.5,154.5 Z"/></g>
<g><path style="opacity:1" fill="#0c3fd6" d="M 121.5,157.5 C 123.456,159.148 125.789,159.815 128.5,159.5C 130.483,159.157 131.817,159.824 132.5,161.5C 128.167,161.5 123.833,161.5 119.5,161.5C 119.733,159.938 120.4,158.605 121.5,157.5 Z"/></g>
<g><path style="opacity:1" fill="#45712e" d="M 234.5,156.5 C 237.891,158.125 241.558,159.125 245.5,159.5C 234.662,160.619 223.995,162.285 213.5,164.5C 208.167,164.5 202.833,164.5 197.5,164.5C 183.343,163.504 169.01,163.171 154.5,163.5C 152.5,163.5 150.5,163.5 148.5,163.5C 148.389,162.883 148.056,162.383 147.5,162C 143.567,161.252 139.9,160.085 136.5,158.5C 142.477,159.141 148.477,159.641 154.5,160C 153.833,160.333 153.167,160.667 152.5,161C 162.5,161.167 172.5,161.333 182.5,161.5C 200.141,162.007 217.474,160.34 234.5,156.5 Z"/></g>
<g><path style="opacity:1" fill="#0544fc" d="M 119.5,161.5 C 123.833,161.5 128.167,161.5 132.5,161.5C 133.903,162.931 135.569,164.098 137.5,165C 141.152,165.499 144.818,165.665 148.5,165.5C 152.634,166.485 156.968,166.818 161.5,166.5C 164.876,168.082 168.542,168.749 172.5,168.5C 178.311,169.949 184.311,170.616 190.5,170.5C 190.286,172.144 190.62,173.644 191.5,175C 200.833,175.333 210.167,175.667 219.5,176C 219.167,176.333 218.833,176.667 218.5,177C 206.153,177.167 193.82,177.667 181.5,178.5C 200.167,179.833 218.833,179.833 237.5,178.5C 234.442,176.859 231.108,176.026 227.5,176C 233.568,171.951 240.068,171.451 247,174.5C 248.928,174.067 250.761,173.4 252.5,172.5C 255.199,174.347 258.199,175.347 261.5,175.5C 264.466,176.737 266.8,178.903 268.5,182C 269.5,182.333 270.5,182.667 271.5,183C 214.491,182.836 157.824,183.67 101.5,185.5C 99.8333,185.5 98.1667,185.5 96.5,185.5C 98.273,175.405 99.273,165.072 99.5,154.5C 100.978,154.238 102.311,154.571 103.5,155.5C 101.728,156.27 100.728,157.603 100.5,159.5C 100.545,162.189 101.879,163.523 104.5,163.5C 104.5,162.167 104.5,160.833 104.5,159.5C 106.924,159.192 109.257,159.526 111.5,160.5C 111.833,162.167 112.833,163.167 114.5,163.5C 116.056,162.453 117.723,161.786 119.5,161.5 Z"/></g>
<g><path style="opacity:1" fill="#102051" d="M 138.5,161.5 C 141.01,161.054 143.01,161.72 144.5,163.5C 142.102,163.741 140.102,163.074 138.5,161.5 Z"/></g>
<g><path style="opacity:1" fill="#5b8944" d="M 245.5,159.5 C 245.833,159.5 246.167,159.5 246.5,159.5C 246.167,160.833 245.833,162.167 245.5,163.5C 245.167,163.5 244.833,163.5 244.5,163.5C 243.167,163.5 241.833,163.5 240.5,163.5C 236.154,163.334 231.821,163.501 227.5,164C 226.944,164.383 226.611,164.883 226.5,165.5C 221.968,165.818 217.634,165.485 213.5,164.5C 223.995,162.285 234.662,160.619 245.5,159.5 Z"/></g>
<g><path style="opacity:1" fill="#1d415c" d="M 246.5,159.5 C 247.167,159.5 247.833,159.5 248.5,159.5C 248.446,161.632 247.446,162.965 245.5,163.5C 245.833,162.167 246.167,160.833 246.5,159.5 Z"/></g>
<g><path style="opacity:1" fill="#0f32ae" d="M 132.5,161.5 C 134.5,161.5 136.5,161.5 138.5,161.5C 140.102,163.074 142.102,163.741 144.5,163.5C 145.5,163.5 146.5,163.5 147.5,163.5C 147.833,164.167 148.167,164.833 148.5,165.5C 144.818,165.665 141.152,165.499 137.5,165C 135.569,164.098 133.903,162.931 132.5,161.5 Z"/></g>
<g><path style="opacity:1" fill="#375329" d="M 154.5,164.5 C 154.5,164.167 154.5,163.833 154.5,163.5C 169.01,163.171 183.343,163.504 197.5,164.5C 194.941,164.198 192.607,164.532 190.5,165.5C 188.833,165.5 187.167,165.5 185.5,165.5C 181.167,165.5 176.833,165.5 172.5,165.5C 166.5,165.167 160.5,164.833 154.5,164.5 Z"/></g>
<g><path style="opacity:1" fill="#223d4f" d="M 240.5,163.5 C 241.833,163.5 243.167,163.5 244.5,163.5C 243.365,165.213 241.698,165.88 239.5,165.5C 239.833,164.833 240.167,164.167 240.5,163.5 Z"/></g>
<g><path style="opacity:1" fill="#0c256e" d="M 147.5,163.5 C 147.833,163.5 148.167,163.5 148.5,163.5C 150.5,163.5 152.5,163.5 154.5,163.5C 154.5,163.833 154.5,164.167 154.5,164.5C 156.833,165.167 159.167,165.833 161.5,166.5C 156.968,166.818 152.634,166.485 148.5,165.5C 148.167,164.833 147.833,164.167 147.5,163.5 Z"/></g>
<g><path style="opacity:1" fill="#19334e" d="M 154.5,164.5 C 160.5,164.833 166.5,165.167 172.5,165.5C 172.5,165.833 172.5,166.167 172.5,166.5C 168.833,166.5 165.167,166.5 161.5,166.5C 159.167,165.833 156.833,165.167 154.5,164.5 Z"/></g>
<g><path style="opacity:1" fill="#5e8651" d="M 190.5,165.5 C 192.607,164.532 194.941,164.198 197.5,164.5C 202.833,164.5 208.167,164.5 213.5,164.5C 217.634,165.485 221.968,165.818 226.5,165.5C 214.654,166.71 202.654,166.71 190.5,165.5 Z"/></g>
<g><path style="opacity:1" fill="#132f94" d="M 257.5,164.5 C 260.198,165.143 262.865,165.976 265.5,167C 266.337,168.011 266.67,169.178 266.5,170.5C 265.167,169.833 263.833,169.167 262.5,168.5C 260.833,167.167 259.167,165.833 257.5,164.5 Z"/></g>
<g><path style="opacity:1" fill="#042e95" d="M 161.5,166.5 C 165.167,166.5 168.833,166.5 172.5,166.5C 172.5,166.833 172.5,167.167 172.5,167.5C 172.5,167.833 172.5,168.167 172.5,168.5C 168.542,168.749 164.876,168.082 161.5,166.5 Z"/></g>
<g><path style="opacity:1" fill="#466944" d="M 240.5,163.5 C 240.167,164.167 239.833,164.833 239.5,165.5C 238.833,165.5 238.167,165.5 237.5,165.5C 233.626,166.761 229.626,167.428 225.5,167.5C 212.829,167.667 200.162,167.5 187.5,167C 186.584,166.722 185.918,166.222 185.5,165.5C 187.167,165.5 188.833,165.5 190.5,165.5C 202.654,166.71 214.654,166.71 226.5,165.5C 226.611,164.883 226.944,164.383 227.5,164C 231.821,163.501 236.154,163.334 240.5,163.5 Z"/></g>
<g><path style="opacity:1" fill="#234646" d="M 172.5,165.5 C 176.833,165.5 181.167,165.5 185.5,165.5C 185.918,166.222 186.584,166.722 187.5,167C 200.162,167.5 212.829,167.667 225.5,167.5C 225.5,167.833 225.5,168.167 225.5,168.5C 223.833,168.5 222.167,168.5 220.5,168.5C 204.487,168.635 188.487,168.301 172.5,167.5C 172.5,167.167 172.5,166.833 172.5,166.5C 172.5,166.167 172.5,165.833 172.5,165.5 Z"/></g>
<g><path style="opacity:1" fill="#113464" d="M 237.5,165.5 C 234.032,168.114 230.032,169.114 225.5,168.5C 225.5,168.167 225.5,167.833 225.5,167.5C 229.626,167.428 233.626,166.761 237.5,165.5 Z"/></g>
<g><path style="opacity:1" fill="#0d3291" d="M 172.5,168.5 C 172.5,168.167 172.5,167.833 172.5,167.5C 188.487,168.301 204.487,168.635 220.5,168.5C 219.833,169.167 219.167,169.833 218.5,170.5C 209.167,170.5 199.833,170.5 190.5,170.5C 184.311,170.616 178.311,169.949 172.5,168.5 Z"/></g>
<g><path style="opacity:1" fill="#0e39bf" d="M 248.5,159.5 C 250.781,159.077 252.448,159.744 253.5,161.5C 250.255,161.293 248.255,162.793 247.5,166C 243.465,166.091 239.798,167.257 236.5,169.5C 230.537,170.496 224.537,170.829 218.5,170.5C 219.167,169.833 219.833,169.167 220.5,168.5C 222.167,168.5 223.833,168.5 225.5,168.5C 230.032,169.114 234.032,168.114 237.5,165.5C 238.167,165.5 238.833,165.5 239.5,165.5C 241.698,165.88 243.365,165.213 244.5,163.5C 244.833,163.5 245.167,163.5 245.5,163.5C 247.446,162.965 248.446,161.632 248.5,159.5 Z"/></g>
<g><path style="opacity:1" fill="#0645f7" d="M 253.5,161.5 C 255.122,162.122 256.455,163.122 257.5,164.5C 259.167,165.833 260.833,167.167 262.5,168.5C 262.5,169.5 262.5,170.5 262.5,171.5C 264.5,172.167 266.5,172.833 268.5,173.5C 268.5,174.5 268.5,175.5 268.5,176.5C 266.014,175.871 263.681,174.871 261.5,173.5C 260.5,173.667 259.5,173.833 258.5,174C 259.737,174.232 260.737,174.732 261.5,175.5C 258.199,175.347 255.199,174.347 252.5,172.5C 250.761,173.4 248.928,174.067 247,174.5C 240.068,171.451 233.568,171.951 227.5,176C 231.108,176.026 234.442,176.859 237.5,178.5C 218.833,179.833 200.167,179.833 181.5,178.5C 193.82,177.667 206.153,177.167 218.5,177C 218.833,176.667 219.167,176.333 219.5,176C 210.167,175.667 200.833,175.333 191.5,175C 190.62,173.644 190.286,172.144 190.5,170.5C 199.833,170.5 209.167,170.5 218.5,170.5C 224.537,170.829 230.537,170.496 236.5,169.5C 239.798,167.257 243.465,166.091 247.5,166C 248.255,162.793 250.255,161.293 253.5,161.5 Z"/></g>
<g><path style="opacity:0.996" fill="#0c2e8d" d="M 269.5,170.5 C 271.452,171.785 273.118,173.451 274.5,175.5C 271.5,175.167 269.833,173.5 269.5,170.5 Z"/></g>
<g><path style="opacity:1" fill="#1230a5" d="M 274.5,175.5 C 277.236,176.573 278.903,178.573 279.5,181.5C 278.167,181.5 276.833,181.5 275.5,181.5C 275.483,179.435 275.15,177.435 274.5,175.5 Z"/></g>
<g><path style="opacity:1" fill="#074af0" d="M 262.5,168.5 C 263.833,169.167 265.167,169.833 266.5,170.5C 267.5,170.5 268.5,170.5 269.5,170.5C 269.833,173.5 271.5,175.167 274.5,175.5C 275.15,177.435 275.483,179.435 275.5,181.5C 276.833,181.5 278.167,181.5 279.5,181.5C 279.5,182.833 279.5,184.167 279.5,185.5C 220.167,185.5 160.833,185.5 101.5,185.5C 157.824,183.67 214.491,182.836 271.5,183C 270.5,182.667 269.5,182.333 268.5,182C 266.8,178.903 264.466,176.737 261.5,175.5C 260.737,174.732 259.737,174.232 258.5,174C 259.5,173.833 260.5,173.667 261.5,173.5C 263.681,174.871 266.014,175.871 268.5,176.5C 268.5,175.5 268.5,174.5 268.5,173.5C 266.5,172.833 264.5,172.167 262.5,171.5C 262.5,170.5 262.5,169.5 262.5,168.5 Z"/></g>
<g><path style="opacity:0.008" fill="#171b0d" d="M 286.5,183.5 C 287.573,184.251 287.74,185.251 287,186.5C 286.517,185.552 286.351,184.552 286.5,183.5 Z"/></g>
<g><path style="opacity:1" fill="#202440" d="M 252.5,155.5 C 258.7,159.956 265.033,164.456 271.5,169C 277.386,173.731 282.386,178.564 286.5,183.5C 284.955,184.23 284.122,185.563 284,187.5C 283.329,188.252 282.496,188.586 281.5,188.5C 279.5,187.833 277.5,187.167 275.5,186.5C 277.167,186.5 278.833,186.5 280.5,186.5C 280.784,184.585 280.451,182.919 279.5,181.5C 278.903,178.573 277.236,176.573 274.5,175.5C 273.118,173.451 271.452,171.785 269.5,170.5C 268.5,170.5 267.5,170.5 266.5,170.5C 266.67,169.178 266.337,168.011 265.5,167C 262.865,165.976 260.198,165.143 257.5,164.5C 256.455,163.122 255.122,162.122 253.5,161.5C 252.448,159.744 250.781,159.077 248.5,159.5C 248.5,158.5 248.5,157.5 248.5,156.5C 249.959,156.567 251.292,156.234 252.5,155.5 Z"/></g>
<g><path style="opacity:1" fill="#103aad" d="M 94.5,141.5 C 94.5,142.833 95.1667,143.5 96.5,143.5C 96.8333,143.5 97.1667,143.5 97.5,143.5C 98.1834,145.176 99.5168,145.843 101.5,145.5C 101.5,145.833 101.5,146.167 101.5,146.5C 98.4721,146.661 95.6388,145.994 93,144.5C 92.228,144.645 91.5613,144.978 91,145.5C 90.5001,158.829 90.3334,172.163 90.5,185.5C 92.5,185.5 94.5,185.5 96.5,185.5C 98.1667,185.5 99.8333,185.5 101.5,185.5C 160.833,185.5 220.167,185.5 279.5,185.5C 279.5,184.167 279.5,182.833 279.5,181.5C 280.451,182.919 280.784,184.585 280.5,186.5C 278.833,186.5 277.167,186.5 275.5,186.5C 213.5,186.5 151.5,186.5 89.5,186.5C 89.5,172.833 89.5,159.167 89.5,145.5C 89.5,144.167 89.5,142.833 89.5,141.5C 91.1667,141.5 92.8333,141.5 94.5,141.5 Z"/></g>
<g><path style="opacity:0.408" fill="#111948" d="M 89.5,145.5 C 89.5,159.167 89.5,172.833 89.5,186.5C 151.5,186.5 213.5,186.5 275.5,186.5C 277.5,187.167 279.5,187.833 281.5,188.5C 281.489,191.001 280.822,191.168 279.5,189C 215.492,189.164 151.825,188.331 88.5,186.5C 88.171,172.656 88.5043,158.99 89.5,145.5 Z"/></g>
<g><path style="opacity:0.004" fill="#0f1f13" d="M 83.5,191.5 C 84.8333,192.167 84.8333,192.167 83.5,191.5 Z"/></g>
<g><path style="opacity:0.02" fill="#111d17" d="M 93.5,191.5 C 155.336,191.46 217.336,191.46 279.5,191.5C 217.474,192.822 155.474,192.822 93.5,191.5 Z"/></g>
<g><path style="opacity:0.039" fill="#1f1321" d="M 266.5,194.5 C 270.646,193.353 274.98,193.186 279.5,194C 275.179,194.499 270.846,194.666 266.5,194.5 Z"/></g>
<g><path style="opacity:0.02" fill="#181723" d="M 106.5,196.5 C 141.998,195.336 177.664,195.169 213.5,196C 177.835,196.5 142.168,196.667 106.5,196.5 Z"/></g>
<g><path style="opacity:0.035" fill="#191623" d="M 215.5,196.5 C 230.661,195.339 245.994,195.172 261.5,196C 246.17,196.5 230.837,196.667 215.5,196.5 Z"/></g>
</svg>
