<?xml version="1.0" encoding="UTF-8"?>
<!DOCTYPE svg PUBLIC "-//W3C//DTD SVG 1.1//EN" "http://www.w3.org/Graphics/SVG/1.1/DTD/svg11.dtd">
<svg xmlns="http://www.w3.org/2000/svg" version="1.1" width="400px" height="198px" style="shape-rendering:geometricPrecision; text-rendering:geometricPrecision; image-rendering:optimizeQuality; fill-rule:evenodd; clip-rule:evenodd" xmlns:xlink="http://www.w3.org/1999/xlink">
<g><path style="opacity:1" fill="#dbdcda" d="M 189.5,-0.5 C 193.833,-0.5 198.167,-0.5 202.5,-0.5C 203.405,0.964302 203.405,2.29764 202.5,3.5C 203.824,7.51598 204.824,11.516 205.5,15.5C 205.685,17.1958 206.519,18.5291 208,19.5C 209.079,22.0627 209.579,24.7294 209.5,27.5C 209.833,28.5 210.5,29.1667 211.5,29.5C 211.67,33.6948 213.17,37.6948 216,41.5C 216.497,43.8098 216.663,46.1432 216.5,48.5C 217.931,51.9942 218.764,55.6609 219,59.5C 219.383,60.056 219.883,60.3893 220.5,60.5C 220.5,62.1667 220.5,63.8333 220.5,65.5C 218.901,65.7678 217.568,65.4345 216.5,64.5C 215.153,60.2263 213.986,55.893 213,51.5C 212.502,48.1832 212.335,44.8499 212.5,41.5C 211.167,41.5 209.833,41.5 208.5,41.5C 208.665,38.4816 208.498,35.4816 208,32.5C 207.617,31.944 207.117,31.6107 206.5,31.5C 205.433,25.6077 203.433,20.2744 200.5,15.5C 200.808,10.6292 199.975,5.96257 198,1.5C 196.667,0.166667 195.333,0.166667 194,1.5C 192.046,7.02607 190.713,12.6927 190,18.5C 187.904,22.8862 185.904,27.2196 184,31.5C 183.502,34.8168 183.335,38.1501 183.5,41.5C 182.5,41.5 181.5,41.5 180.5,41.5C 179.762,46.8352 178.762,52.1685 177.5,57.5C 176.5,57.5 175.5,57.5 174.5,57.5C 174.5,54.8333 174.5,52.1667 174.5,49.5C 176.388,47.0122 177.055,44.0122 176.5,40.5C 176.685,38.8042 177.519,37.4709 179,36.5C 179.333,34.1667 179.667,31.8333 180,29.5C 181.626,28.0445 182.792,26.3779 183.5,24.5C 184.736,22.351 185.736,20.0177 186.5,17.5C 186.196,16.8501 185.863,16.1835 185.5,15.5C 186.711,10.1052 188.044,4.77187 189.5,-0.5 Z"/></g>
<g><path style="opacity:0.098" fill="#2a2b2b" d="M 202.5,3.5 C 203.931,3.88066 204.764,4.88066 205,6.5C 205.498,9.48162 205.665,12.4816 205.5,15.5C 204.824,11.516 203.824,7.51598 202.5,3.5 Z"/></g>
<g><path style="opacity:1" fill="#274c2a" d="M 200.5,15.5 C 203.433,20.2744 205.433,25.6077 206.5,31.5C 204.972,30.1979 203.972,28.5313 203.5,26.5C 203.5,25.5 203.5,24.5 203.5,23.5C 202.5,23.5 201.5,23.5 200.5,23.5C 200.5,20.8333 200.5,18.1667 200.5,15.5 Z"/></g>
<g><path style="opacity:1" fill="#28582c" d="M 200.5,15.5 C 199.144,12.4233 198.311,9.08993 198,5.5C 197.632,4.09001 196.799,3.09001 195.5,2.5C 193.057,9.25454 191.724,16.2545 191.5,23.5C 190.5,23.5 189.5,23.5 188.5,23.5C 188.5,26.5 188.5,29.5 188.5,32.5C 187.5,32.5 186.5,32.5 185.5,32.5C 185.823,36.226 185.489,39.8927 184.5,43.5C 183.833,43.1667 183.167,42.8333 182.5,42.5C 181.414,46.1551 181.414,49.8218 182.5,53.5C 181.5,53.5 180.5,53.5 179.5,53.5C 180.43,49.6002 180.763,45.6002 180.5,41.5C 181.5,41.5 182.5,41.5 183.5,41.5C 183.335,38.1501 183.502,34.8168 184,31.5C 185.904,27.2196 187.904,22.8862 190,18.5C 190.713,12.6927 192.046,7.02607 194,1.5C 195.333,0.166667 196.667,0.166667 198,1.5C 199.975,5.96257 200.808,10.6292 200.5,15.5 Z"/></g>
<g><path style="opacity:0.494" fill="#8a8a8a" d="M 186.5,17.5 C 185.736,20.0177 184.736,22.351 183.5,24.5C 183.166,21.509 184.166,19.1757 186.5,17.5 Z"/></g>
<g><path style="opacity:0.008" fill="#2c2c2b" d="M 209.5,27.5 C 210.833,27.5 211.5,28.1667 211.5,29.5C 210.5,29.1667 209.833,28.5 209.5,27.5 Z"/></g>
<g><path style="opacity:1" fill="#2ce68b" d="M 200.5,15.5 C 200.5,18.1667 200.5,20.8333 200.5,23.5C 201.5,23.5 202.5,23.5 203.5,23.5C 203.5,24.5 203.5,25.5 203.5,26.5C 203.025,29.0821 203.692,31.0821 205.5,32.5C 205.5,33.8333 205.5,35.1667 205.5,36.5C 204.178,36.67 203.011,36.3366 202,35.5C 201.808,33.4233 201.308,31.4233 200.5,29.5C 199.757,30.9079 198.923,32.2412 198,33.5C 197.226,29.853 196.559,26.1864 196,22.5C 195.461,25.5285 194.794,28.5285 194,31.5C 193.333,32.8333 192.667,32.8333 192,31.5C 192.148,35.9904 190.314,37.6571 186.5,36.5C 186.527,34.8007 187.194,33.4674 188.5,32.5C 188.5,29.5 188.5,26.5 188.5,23.5C 189.5,23.5 190.5,23.5 191.5,23.5C 191.724,16.2545 193.057,9.25454 195.5,2.5C 196.799,3.09001 197.632,4.09001 198,5.5C 198.311,9.08993 199.144,12.4233 200.5,15.5 Z"/></g>
<g><path style="opacity:0.471" fill="#808080" d="M 91.5,39.5 C 92.6216,38.8442 93.9549,38.5108 95.5,38.5C 97.8825,38.361 99.8825,39.0277 101.5,40.5C 98.2139,39.7929 94.8806,39.4595 91.5,39.5 Z"/></g>
<g><path style="opacity:1" fill="#20de75" d="M 205.5,32.5 C 205.875,36.4425 206.875,40.1091 208.5,43.5C 208.612,48.3705 205.945,50.7038 200.5,50.5C 200.5,51.5 200.5,52.5 200.5,53.5C 199.325,53.719 198.325,53.3857 197.5,52.5C 199.803,49.7542 201.303,46.7542 202,43.5C 200.257,45.3211 198.757,47.3211 197.5,49.5C 196.243,46.1565 196.243,42.8231 197.5,39.5C 197.167,38.5 196.5,37.8333 195.5,37.5C 194.675,41.1224 194.175,44.789 194,48.5C 192.414,46.3295 191.08,43.9962 190,41.5C 189.762,44.3078 190.096,46.9744 191,49.5C 188.392,50.9732 186.225,50.4732 184.5,48C 186.289,44.435 186.956,40.6017 186.5,36.5C 190.314,37.6571 192.148,35.9904 192,31.5C 192.667,32.8333 193.333,32.8333 194,31.5C 194.794,28.5285 195.461,25.5285 196,22.5C 196.559,26.1864 197.226,29.853 198,33.5C 198.923,32.2412 199.757,30.9079 200.5,29.5C 201.308,31.4233 201.808,33.4233 202,35.5C 203.011,36.3366 204.178,36.67 205.5,36.5C 205.5,35.1667 205.5,33.8333 205.5,32.5 Z"/></g>
<g><path style="opacity:0.471" fill="#7f7f7f" d="M 301.5,39.5 C 297.785,39.423 294.119,39.7564 290.5,40.5C 292.29,39.0027 294.456,38.336 297,38.5C 298.707,38.5085 300.207,38.8418 301.5,39.5 Z"/></g>
<g><path style="opacity:0.031" fill="#343333" d="M 104.5,40.5 C 105.71,40.9321 106.71,41.5987 107.5,42.5C 105.821,42.7148 104.821,42.0481 104.5,40.5 Z"/></g>
<g><path style="opacity:0.238" fill="#4d4d4d" d="M 176.5,40.5 C 177.055,44.0122 176.388,47.0122 174.5,49.5C 175.088,46.3896 175.755,43.3896 176.5,40.5 Z"/></g>
<g><path style="opacity:0.514" fill="#797979" d="M 301.5,39.5 C 302.117,39.6107 302.617,39.944 303,40.5C 304.187,44.7831 303.353,48.4497 300.5,51.5C 301.151,49.1743 301.818,46.8409 302.5,44.5C 302.272,42.7927 301.938,41.126 301.5,39.5 Z"/></g>
<g><path style="opacity:0.545" fill="#646565" d="M 286.5,41.5 C 285.738,43.2624 284.404,44.2624 282.5,44.5C 283.262,42.7376 284.596,41.7376 286.5,41.5 Z"/></g>
<g><path style="opacity:0.408" fill="#5e5f5d" d="M 89.5,41.5 C 89.5751,44.2062 89.9084,46.8728 90.5,49.5C 88.4162,47.007 88.0829,44.3404 89.5,41.5 Z"/></g>
<g><path style="opacity:1" fill="#205122" d="M 127.5,57.5 C 126.178,57.33 125.011,57.6634 124,58.5C 121.391,55.2631 118.224,53.9297 114.5,54.5C 108.888,49.6937 102.554,46.527 95.5,45C 99.3333,49.5 103.167,54 107,58.5C 105.907,62.6255 107.407,65.6255 111.5,67.5C 111.461,68.5832 111.127,69.5832 110.5,70.5C 111.921,73.0094 113.588,75.3428 115.5,77.5C 114.339,79.2237 114.505,80.8904 116,82.5C 118.293,84.3723 120.793,85.8723 123.5,87C 122.692,87.3076 122.025,87.8076 121.5,88.5C 122.903,90.5699 124.57,92.2365 126.5,93.5C 126.112,98.1091 128.112,101.109 132.5,102.5C 135.896,102.633 136.229,103.633 133.5,105.5C 135.367,108.382 138.034,109.715 141.5,109.5C 140.713,111.104 139.38,111.771 137.5,111.5C 135.246,110.585 133.246,109.252 131.5,107.5C 128.833,103.167 126.167,98.8333 123.5,94.5C 120.263,92.7683 118.429,90.1016 118,86.5C 114.435,84.1318 112.602,80.7984 112.5,76.5C 109.492,74.3068 107.992,71.3068 108,67.5C 105.212,65.5879 103.879,62.9213 104,59.5C 100.284,55.4518 96.9504,51.1185 94,46.5C 93.51,45.2068 93.3433,43.8734 93.5,42.5C 101.009,43.7531 107.676,46.9198 113.5,52C 114.549,52.4922 115.549,52.3256 116.5,51.5C 120.143,53.8162 123.809,55.8162 127.5,57.5 Z"/></g>
<g><path style="opacity:1" fill="#22dd82" d="M 127.5,57.5 C 128.833,59.1667 130.167,60.8333 131.5,62.5C 131.642,65.9753 131.642,69.4753 131.5,73C 130.668,73.6877 130.002,73.521 129.5,72.5C 128,70.1667 126.5,67.8333 125,65.5C 124.86,67.2555 125.36,68.9222 126.5,70.5C 126.069,71.2935 125.735,72.1268 125.5,73C 127.994,75.3283 130.328,77.8283 132.5,80.5C 132,80.8333 131.5,81.1667 131,81.5C 126.445,79.8072 122.278,77.4739 118.5,74.5C 115.551,75.4471 113.551,74.2804 112.5,71C 114.301,70.6827 114.634,70.016 113.5,69C 120.856,71.3157 121.19,70.4824 114.5,66.5C 113.583,67.1272 112.583,67.4606 111.5,67.5C 107.407,65.6255 105.907,62.6255 107,58.5C 103.167,54 99.3333,49.5 95.5,45C 102.554,46.527 108.888,49.6937 114.5,54.5C 118.224,53.9297 121.391,55.2631 124,58.5C 125.011,57.6634 126.178,57.33 127.5,57.5 Z"/></g>
<g><path style="opacity:0.137" fill="#434443" d="M 267.5,51.5 C 265.412,52.2008 263.412,53.2008 261.5,54.5C 261.414,53.5041 261.748,52.6708 262.5,52C 264.134,51.5065 265.801,51.3398 267.5,51.5 Z"/></g>
<g><path style="opacity:1" fill="#245729" d="M 203.5,26.5 C 203.972,28.5313 204.972,30.1979 206.5,31.5C 207.117,31.6107 207.617,31.944 208,32.5C 208.498,35.4816 208.665,38.4816 208.5,41.5C 209.833,41.5 211.167,41.5 212.5,41.5C 212.335,44.8499 212.502,48.1832 213,51.5C 213.986,55.893 215.153,60.2263 216.5,64.5C 215.167,64.5 213.833,64.5 212.5,64.5C 212.158,63.6618 211.492,63.3284 210.5,63.5C 211.793,60.3209 212.46,56.9876 212.5,53.5C 211.5,53.5 210.5,53.5 209.5,53.5C 209.749,50.9979 210.083,48.4979 210.5,46C 210.167,44.8333 209.833,43.6667 209.5,42.5C 208.893,42.6236 208.56,42.9569 208.5,43.5C 206.875,40.1091 205.875,36.4425 205.5,32.5C 203.692,31.0821 203.025,29.0821 203.5,26.5 Z"/></g>
<g><path style="opacity:0.247" fill="#4e4f4e" d="M 216.5,48.5 C 217.79,49.0577 218.623,50.0577 219,51.5C 219.363,54.544 219.863,57.544 220.5,60.5C 219.883,60.3893 219.383,60.056 219,59.5C 218.764,55.6609 217.931,51.9942 216.5,48.5 Z"/></g>
<g><path style="opacity:1" fill="#1ccc63" d="M 188.5,32.5 C 187.194,33.4674 186.527,34.8007 186.5,36.5C 186.956,40.6017 186.289,44.435 184.5,48C 186.225,50.4732 188.392,50.9732 191,49.5C 190.096,46.9744 189.762,44.3078 190,41.5C 191.08,43.9962 192.414,46.3295 194,48.5C 194.175,44.789 194.675,41.1224 195.5,37.5C 196.5,37.8333 197.167,38.5 197.5,39.5C 196.243,42.8231 196.243,46.1565 197.5,49.5C 198.757,47.3211 200.257,45.3211 202,43.5C 201.303,46.7542 199.803,49.7542 197.5,52.5C 198.325,53.3857 199.325,53.719 200.5,53.5C 200.5,52.5 200.5,51.5 200.5,50.5C 205.945,50.7038 208.612,48.3705 208.5,43.5C 208.56,42.9569 208.893,42.6236 209.5,42.5C 209.833,43.6667 210.167,44.8333 210.5,46C 210.083,48.4979 209.749,50.9979 209.5,53.5C 210.5,53.5 211.5,53.5 212.5,53.5C 212.46,56.9876 211.793,60.3209 210.5,63.5C 208.181,64.167 205.847,64.3336 203.5,64C 196.528,56.9535 188.194,54.4535 178.5,56.5C 178.263,55.209 178.596,54.209 179.5,53.5C 180.5,53.5 181.5,53.5 182.5,53.5C 181.414,49.8218 181.414,46.1551 182.5,42.5C 183.167,42.8333 183.833,43.1667 184.5,43.5C 185.489,39.8927 185.823,36.226 185.5,32.5C 186.5,32.5 187.5,32.5 188.5,32.5 Z"/></g>
<g><path style="opacity:1" fill="#1c4f20" d="M 270.5,92.5 C 271.536,90.6089 271.536,88.7755 270.5,87C 271.381,86.2917 272.047,85.4584 272.5,84.5C 273.94,82.6121 275.606,80.9454 277.5,79.5C 276.5,78.8333 275.5,78.1667 274.5,77.5C 276.521,76.1455 278.188,74.4788 279.5,72.5C 282.018,71.3063 282.018,70.1396 279.5,69C 281.684,66.9835 283.684,64.8169 285.5,62.5C 284.189,61.7425 283.689,60.7425 284,59.5C 288.167,54.6667 292.333,49.8333 296.5,45C 295.167,44.3333 293.833,44.3333 292.5,45C 287.565,47.6057 282.898,50.6057 278.5,54C 277.328,54.3534 276.162,54.1868 275,53.5C 273.235,54.6321 271.402,55.6321 269.5,56.5C 271.376,53.1432 274.376,51.6432 278.5,52C 283.334,48.7484 288.334,45.7484 293.5,43C 295.134,42.5065 296.801,42.3398 298.5,42.5C 296.86,48.3392 293.693,53.3392 289,57.5C 287.956,59.7148 287.29,62.0481 287,64.5C 284.679,68.6279 282.179,72.6279 279.5,76.5C 279.522,81.0655 277.522,84.3989 273.5,86.5C 272.989,88.8839 271.989,90.8839 270.5,92.5 Z"/></g>
<g><path style="opacity:1" fill="#aac6cf" d="M 181.5,58.5 C 192.147,57.373 200.147,61.373 205.5,70.5C 201.569,67.0722 197.236,64.2388 192.5,62C 187.798,61.1717 183.131,61.3384 178.5,62.5C 175.538,65.6363 172.705,68.9696 170,72.5C 169.158,75.6889 167.825,78.6889 166,81.5C 165.278,84.2605 165.445,86.9272 166.5,89.5C 165.833,89.8333 165.167,90.1667 164.5,90.5C 164.443,89.391 164.11,88.391 163.5,87.5C 164.483,83.7016 164.817,79.7016 164.5,75.5C 165.984,69.495 169.318,64.6617 174.5,61C 176.65,59.5886 178.984,58.7553 181.5,58.5 Z"/></g>
<g><path style="opacity:1" fill="#375959" d="M 180.5,41.5 C 180.763,45.6002 180.43,49.6002 179.5,53.5C 178.596,54.209 178.263,55.209 178.5,56.5C 188.194,54.4535 196.528,56.9535 203.5,64C 205.847,64.3336 208.181,64.167 210.5,63.5C 211.492,63.3284 212.158,63.6618 212.5,64.5C 210.901,64.2322 209.568,64.5655 208.5,65.5C 207.414,65.62 206.747,66.2867 206.5,67.5C 206.543,68.4164 206.876,69.0831 207.5,69.5C 208.573,71.6531 208.573,73.6531 207.5,75.5C 207.204,73.597 206.537,71.9303 205.5,70.5C 200.147,61.373 192.147,57.373 181.5,58.5C 180.432,57.5655 179.099,57.2322 177.5,57.5C 178.762,52.1685 179.762,46.8352 180.5,41.5 Z"/></g>
<g><path style="opacity:0.008" fill="#050c07" d="M 248.5,62.5 C 247.833,61.1667 247.833,61.1667 248.5,62.5 Z"/></g>
<g><path style="opacity:1" fill="#285a31" d="M 127.5,57.5 C 130.144,59.6281 133.144,61.1281 136.5,62C 143.327,66.663 149.327,72.163 154.5,78.5C 154.167,79.5 153.5,80.1667 152.5,80.5C 152.78,77.6118 151.447,76.1118 148.5,76C 147.624,74.414 146.624,72.914 145.5,71.5C 144.28,70.2889 143.113,70.2889 142,71.5C 140.533,68.7336 138.7,66.2336 136.5,64C 135.451,63.5078 134.451,63.6744 133.5,64.5C 132.818,63.7573 132.151,63.0906 131.5,62.5C 130.167,60.8333 128.833,59.1667 127.5,57.5 Z"/></g>
<g><path style="opacity:1" fill="#f3f9fa" d="M 205.5,70.5 C 206.537,71.9303 207.204,73.597 207.5,75.5C 207.56,76.0431 207.893,76.3764 208.5,76.5C 209.167,75.1667 209.833,73.8333 210.5,72.5C 219.197,75.502 227.864,78.502 236.5,81.5C 240.304,87.9623 241.47,94.9623 240,102.5C 238.907,104.349 237.574,106.016 236,107.5C 235.722,106.584 235.222,105.918 234.5,105.5C 232.697,103.16 231.03,100.827 229.5,98.5C 228.833,97.8333 228.167,97.1667 227.5,96.5C 226.855,95.1882 225.855,94.1882 224.5,93.5C 219.968,95.692 215.302,96.3587 210.5,95.5C 212.306,92.528 214.306,89.6947 216.5,87C 213.484,86.336 210.651,86.836 208,88.5C 205.276,87.162 204.109,88.162 204.5,91.5C 206.226,91.1854 207.893,91.0187 209.5,91C 207.607,93.3031 205.607,95.4698 203.5,97.5C 202.722,93.5705 202.389,89.7372 202.5,86C 203.227,83.876 203.894,81.7094 204.5,79.5C 203.132,78.4063 201.965,78.7397 201,80.5C 199.863,87.1196 199.363,93.7863 199.5,100.5C 204.068,98.966 204.568,99.966 201,103.5C 200.505,105.473 200.338,107.473 200.5,109.5C 200.267,111.062 199.6,112.395 198.5,113.5C 197.213,112.129 196.547,110.295 196.5,108C 197.01,99.46 197.677,90.96 198.5,82.5C 196.981,79.9357 195.481,79.9357 194,82.5C 193.667,86.5 193.333,90.5 193,94.5C 191.812,93.4366 191.312,92.1033 191.5,90.5C 190.325,90.281 189.325,90.6143 188.5,91.5C 187.948,93.3334 187.115,95.0001 186,96.5C 184.98,92.5796 185.813,89.2463 188.5,86.5C 189.139,85.9032 189.472,85.0698 189.5,84C 189.613,82.3009 188.947,81.1342 187.5,80.5C 182.18,80.4263 180.18,83.0929 181.5,88.5C 179.801,88.3796 178.135,88.0463 176.5,87.5C 173.358,89.1187 170.025,89.7854 166.5,89.5C 165.445,86.9272 165.278,84.2605 166,81.5C 167.825,78.6889 169.158,75.6889 170,72.5C 172.705,68.9696 175.538,65.6363 178.5,62.5C 183.131,61.3384 187.798,61.1717 192.5,62C 197.236,64.2388 201.569,67.0722 205.5,70.5 Z"/></g>
<g><path style="opacity:0.938" fill="#263746" d="M 220.5,60.5 C 221.216,62.5563 221.883,64.723 222.5,67C 228.39,66.9688 233.723,68.4688 238.5,71.5C 238.157,73.4832 238.824,74.8166 240.5,75.5C 240.5,76.5 240.5,77.5 240.5,78.5C 234.743,73.8019 228.076,71.4686 220.5,71.5C 217.78,67.0325 213.78,65.0325 208.5,65.5C 209.568,64.5655 210.901,64.2322 212.5,64.5C 213.833,64.5 215.167,64.5 216.5,64.5C 217.568,65.4345 218.901,65.7678 220.5,65.5C 220.5,63.8333 220.5,62.1667 220.5,60.5 Z"/></g>
<g><path style="opacity:1" fill="#25532d" d="M 264.5,57.5 C 263.04,59.4628 261.373,61.2962 259.5,63C 256.807,62.4477 254.807,63.6144 253.5,66.5C 252.163,67.3149 251.163,68.4815 250.5,70C 245.661,71.1325 243.328,74.2992 243.5,79.5C 241.896,78.713 241.229,77.3797 241.5,75.5C 243.268,73.4922 244.934,71.3256 246.5,69C 250.021,67.4953 253.021,65.162 255.5,62C 258.856,61.1281 261.856,59.6281 264.5,57.5 Z"/></g>
<g><path style="opacity:1" fill="#d9dad9" d="M 91.5,39.5 C 94.8806,39.4595 98.2139,39.7929 101.5,40.5C 102.5,40.5 103.5,40.5 104.5,40.5C 104.821,42.0481 105.821,42.7148 107.5,42.5C 109.465,44.4879 111.798,45.9879 114.5,47C 119.366,48.9259 124.366,50.5926 129.5,52C 132.329,54.8273 135.663,56.8273 139.5,58C 145.381,63.0535 151.048,68.2202 156.5,73.5C 156.5,75.1667 156.5,76.8333 156.5,78.5C 155.833,78.5 155.167,78.5 154.5,78.5C 149.327,72.163 143.327,66.663 136.5,62C 133.144,61.1281 130.144,59.6281 127.5,57.5C 123.809,55.8162 120.143,53.8162 116.5,51.5C 115.549,52.3256 114.549,52.4922 113.5,52C 107.676,46.9198 101.009,43.7531 93.5,42.5C 93.3433,43.8734 93.51,45.2068 94,46.5C 96.9504,51.1185 100.284,55.4518 104,59.5C 103.879,62.9213 105.212,65.5879 108,67.5C 107.992,71.3068 109.492,74.3068 112.5,76.5C 112.602,80.7984 114.435,84.1318 118,86.5C 118.429,90.1016 120.263,92.7683 123.5,94.5C 126.167,98.8333 128.833,103.167 131.5,107.5C 133.246,109.252 135.246,110.585 137.5,111.5C 137.5,113.167 137.5,114.833 137.5,116.5C 136.5,116.5 135.5,116.5 134.5,116.5C 131.861,114.527 129.527,112.194 127.5,109.5C 127.843,107.517 127.176,106.183 125.5,105.5C 121.749,103.135 119.415,99.8016 118.5,95.5C 118.027,94.0937 117.027,93.427 115.5,93.5C 114.699,90.1865 112.866,87.5198 110,85.5C 108.063,81.186 106.23,76.8526 104.5,72.5C 104.771,70.6203 104.104,69.287 102.5,68.5C 101.636,67.3117 100.636,66.1451 99.5,65C 99.8333,64 100.167,63 100.5,62C 98.7618,59.2873 96.4285,57.2873 93.5,56C 93.8333,55.6667 94.1667,55.3333 94.5,55C 93.035,53.2258 91.7017,51.3925 90.5,49.5C 89.9084,46.8728 89.5751,44.2062 89.5,41.5C 89.5,40.1667 90.1667,39.5 91.5,39.5 Z"/></g>
<g><path style="opacity:0.078" fill="#2d2e2e" d="M 102.5,68.5 C 104.104,69.287 104.771,70.6203 104.5,72.5C 103.326,71.4863 102.66,70.153 102.5,68.5 Z"/></g>
<g><path style="opacity:1" fill="#273948" d="M 174.5,49.5 C 174.5,52.1667 174.5,54.8333 174.5,57.5C 175.5,57.5 176.5,57.5 177.5,57.5C 179.099,57.2322 180.432,57.5655 181.5,58.5C 178.984,58.7553 176.65,59.5886 174.5,61C 169.318,64.6617 165.984,69.495 164.5,75.5C 163.596,76.209 163.263,77.209 163.5,78.5C 161.585,78.2155 159.919,78.5489 158.5,79.5C 158.167,79.5 157.833,79.5 157.5,79.5C 156.833,79.5 156.5,79.1667 156.5,78.5C 156.5,76.8333 156.5,75.1667 156.5,73.5C 157.688,74.6843 158.855,74.6843 160,73.5C 162.111,66.2363 166.277,60.5696 172.5,56.5C 173.168,54.0312 173.835,51.6979 174.5,49.5 Z"/></g>
<g><path style="opacity:1" fill="#d8e7ec" d="M 242.5,103.5 C 241.883,105.229 240.883,106.729 239.5,108C 240.577,108.47 241.577,108.303 242.5,107.5C 249.517,111.018 252.017,116.684 250,124.5C 249.489,129.355 246.989,132.855 242.5,135C 240.866,135.494 239.199,135.66 237.5,135.5C 236.833,135.5 236.5,135.167 236.5,134.5C 247.85,132.946 251.683,126.613 248,115.5C 245.347,111.503 241.68,109.169 237,108.5C 236.802,110.382 236.302,112.048 235.5,113.5C 235.425,110.794 235.092,108.127 234.5,105.5C 235.222,105.918 235.722,106.584 236,107.5C 237.574,106.016 238.907,104.349 240,102.5C 241.47,94.9623 240.304,87.9623 236.5,81.5C 227.864,78.502 219.197,75.502 210.5,72.5C 209.833,73.8333 209.167,75.1667 208.5,76.5C 207.893,76.3764 207.56,76.0431 207.5,75.5C 208.573,73.6531 208.573,71.6531 207.5,69.5C 211.171,68.1259 214.505,68.9592 217.5,72C 215.604,73.0646 215.437,73.8979 217,74.5C 226.757,72.5438 234.757,75.5438 241,83.5C 242.377,90.0764 242.877,96.7431 242.5,103.5 Z"/></g>
<g><path style="opacity:0.016" fill="#000000" d="M 308.5,75.5 C 309.833,76.1667 309.833,76.1667 308.5,75.5 Z"/></g>
<g><path style="opacity:1" fill="#14c562" d="M 131.5,62.5 C 132.151,63.0906 132.818,63.7573 133.5,64.5C 134.451,63.6744 135.451,63.5078 136.5,64C 138.7,66.2336 140.533,68.7336 142,71.5C 143.113,70.2889 144.28,70.2889 145.5,71.5C 146.624,72.914 147.624,74.414 148.5,76C 151.447,76.1118 152.78,77.6118 152.5,80.5C 148.13,82.5557 145.13,85.889 143.5,90.5C 142.262,95.8344 142.262,101.168 143.5,106.5C 143.058,107.739 142.391,108.739 141.5,109.5C 138.034,109.715 135.367,108.382 133.5,105.5C 136.229,103.633 135.896,102.633 132.5,102.5C 131.04,100.537 129.373,98.7038 127.5,97C 128.985,95.2435 128.652,94.0768 126.5,93.5C 124.57,92.2365 122.903,90.5699 121.5,88.5C 122.025,87.8076 122.692,87.3076 123.5,87C 120.793,85.8723 118.293,84.3723 116,82.5C 114.505,80.8904 114.339,79.2237 115.5,77.5C 113.588,75.3428 111.921,73.0094 110.5,70.5C 111.127,69.5832 111.461,68.5832 111.5,67.5C 112.583,67.4606 113.583,67.1272 114.5,66.5C 121.19,70.4824 120.856,71.3157 113.5,69C 114.634,70.016 114.301,70.6827 112.5,71C 113.551,74.2804 115.551,75.4471 118.5,74.5C 122.278,77.4739 126.445,79.8072 131,81.5C 131.5,81.1667 132,80.8333 132.5,80.5C 130.328,77.8283 127.994,75.3283 125.5,73C 125.735,72.1268 126.069,71.2935 126.5,70.5C 125.36,68.9222 124.86,67.2555 125,65.5C 126.5,67.8333 128,70.1667 129.5,72.5C 130.002,73.521 130.668,73.6877 131.5,73C 131.642,69.4753 131.642,65.9753 131.5,62.5 Z"/></g>
<g><path style="opacity:0.016" fill="#000000" d="M 308.5,77.5 C 309.833,78.1667 309.833,78.1667 308.5,77.5 Z"/></g>
<g><path style="opacity:1" fill="#1ed980" d="M 279.5,72.5 C 279.631,71.6236 279.298,70.9569 278.5,70.5C 277.069,70.9766 275.736,71.6433 274.5,72.5C 270.505,77.8184 266.505,83.1517 262.5,88.5C 259.833,89.5 257.167,90.5 254.5,91.5C 253.571,92.6888 253.238,94.0222 253.5,95.5C 252.07,95.4208 250.736,95.7542 249.5,96.5C 248.571,95.3112 248.238,93.9778 248.5,92.5C 251.598,92.5875 251.932,92.0875 249.5,91C 255.464,84.3657 261.464,77.699 267.5,71C 266.848,68.9095 266.681,66.7429 267,64.5C 264.997,67.2215 262.997,69.8882 261,72.5C 259.883,71.0506 259.216,69.3839 259,67.5C 258.581,68.6721 257.915,69.6721 257,70.5C 254.929,69.8971 253.762,68.5638 253.5,66.5C 254.807,63.6144 256.807,62.4477 259.5,63C 261.373,61.2962 263.04,59.4628 264.5,57.5C 265.822,57.33 266.989,57.6634 268,58.5C 268.717,57.9558 269.217,57.2891 269.5,56.5C 271.402,55.6321 273.235,54.6321 275,53.5C 276.162,54.1868 277.328,54.3534 278.5,54C 282.898,50.6057 287.565,47.6057 292.5,45C 293.833,44.3333 295.167,44.3333 296.5,45C 292.333,49.8333 288.167,54.6667 284,59.5C 283.689,60.7425 284.189,61.7425 285.5,62.5C 283.684,64.8169 281.684,66.9835 279.5,69C 282.018,70.1396 282.018,71.3063 279.5,72.5 Z"/></g>
<g><path style="opacity:1" fill="#5f7580" d="M 164.5,75.5 C 164.817,79.7016 164.483,83.7016 163.5,87.5C 163.167,85.5 162.833,83.5 162.5,81.5C 161.817,79.8235 160.483,79.1568 158.5,79.5C 159.919,78.5489 161.585,78.2155 163.5,78.5C 163.263,77.209 163.596,76.209 164.5,75.5 Z"/></g>
<g><path style="opacity:1" fill="#3a86ae" d="M 227.5,96.5 C 222.572,97.1066 217.572,97.9399 212.5,99C 215.553,100.581 216.22,102.914 214.5,106C 213.365,106.749 212.365,106.583 211.5,105.5C 212.246,104.264 212.579,102.93 212.5,101.5C 209.266,101.237 207.932,102.737 208.5,106C 208.667,107.167 208.833,108.333 209,109.5C 210.011,108.663 211.178,108.33 212.5,108.5C 212.949,110.977 212.283,112.977 210.5,114.5C 209.808,113.975 209.308,113.308 209,112.5C 208.833,113.667 208.667,114.833 208.5,116C 208.608,117.681 209.275,118.848 210.5,119.5C 209.791,120.404 208.791,120.737 207.5,120.5C 207.665,117.482 207.498,114.482 207,111.5C 206.722,110.584 206.222,109.918 205.5,109.5C 204.814,105.713 205.814,102.546 208.5,100C 206.924,99.6124 205.591,100.112 204.5,101.5C 203.907,103.382 203.24,105.215 202.5,107C 203.46,110.73 203.793,114.563 203.5,118.5C 202.679,115.359 202.179,112.025 202,108.5C 201.617,109.056 201.117,109.389 200.5,109.5C 200.338,107.473 200.505,105.473 201,103.5C 204.568,99.966 204.068,98.966 199.5,100.5C 199.363,93.7863 199.863,87.1196 201,80.5C 201.965,78.7397 203.132,78.4063 204.5,79.5C 203.894,81.7094 203.227,83.876 202.5,86C 202.389,89.7372 202.722,93.5705 203.5,97.5C 205.607,95.4698 207.607,93.3031 209.5,91C 207.893,91.0187 206.226,91.1854 204.5,91.5C 204.109,88.162 205.276,87.162 208,88.5C 210.651,86.836 213.484,86.336 216.5,87C 214.306,89.6947 212.306,92.528 210.5,95.5C 215.302,96.3587 219.968,95.692 224.5,93.5C 225.855,94.1882 226.855,95.1882 227.5,96.5 Z"/></g>
<g><path style="opacity:1" fill="#077123" d="M 272.5,84.5 C 272.047,85.4584 271.381,86.2917 270.5,87C 271.536,88.7755 271.536,90.6089 270.5,92.5C 269.5,92.5 268.5,92.5 267.5,92.5C 268.29,91.2058 269.29,90.0391 270.5,89C 269.376,88.7508 268.376,88.2508 267.5,87.5C 268.94,86.0476 270.606,85.0476 272.5,84.5 Z"/></g>
<g><path style="opacity:1" fill="#99b8c3" d="M 208.5,65.5 C 213.78,65.0325 217.78,67.0325 220.5,71.5C 228.076,71.4686 234.743,73.8019 240.5,78.5C 246.302,86.4563 246.969,94.7896 242.5,103.5C 242.877,96.7431 242.377,90.0764 241,83.5C 234.757,75.5438 226.757,72.5438 217,74.5C 215.437,73.8979 215.604,73.0646 217.5,72C 214.505,68.9592 211.171,68.1259 207.5,69.5C 206.876,69.0831 206.543,68.4164 206.5,67.5C 206.747,66.2867 207.414,65.62 208.5,65.5 Z"/></g>
<g><path style="opacity:0.663" fill="#636061" d="M 115.5,93.5 C 117.027,93.427 118.027,94.0937 118.5,95.5C 116.973,95.573 115.973,94.9063 115.5,93.5 Z"/></g>
<g><path style="opacity:1" fill="#14c765" d="M 279.5,72.5 C 278.188,74.4788 276.521,76.1455 274.5,77.5C 275.5,78.1667 276.5,78.8333 277.5,79.5C 275.606,80.9454 273.94,82.6121 272.5,84.5C 270.606,85.0476 268.94,86.0476 267.5,87.5C 268.376,88.2508 269.376,88.7508 270.5,89C 269.29,90.0391 268.29,91.2058 267.5,92.5C 265.577,92.795 263.91,93.6283 262.5,95C 263.448,95.4828 264.448,95.6495 265.5,95.5C 265.473,97.1993 264.806,98.5326 263.5,99.5C 260.733,100.051 258.4,101.384 256.5,103.5C 257.025,104.192 257.692,104.692 258.5,105C 257.211,106.802 255.544,107.969 253.5,108.5C 251.454,106.721 249.287,105.054 247,103.5C 247.384,97.8605 247.384,92.1938 247,86.5C 246.861,83.5547 245.694,81.2214 243.5,79.5C 243.328,74.2992 245.661,71.1325 250.5,70C 251.163,68.4815 252.163,67.3149 253.5,66.5C 253.762,68.5638 254.929,69.8971 257,70.5C 257.915,69.6721 258.581,68.6721 259,67.5C 259.216,69.3839 259.883,71.0506 261,72.5C 262.997,69.8882 264.997,67.2215 267,64.5C 266.681,66.7429 266.848,68.9095 267.5,71C 261.464,77.699 255.464,84.3657 249.5,91C 251.932,92.0875 251.598,92.5875 248.5,92.5C 248.238,93.9778 248.571,95.3112 249.5,96.5C 250.736,95.7542 252.07,95.4208 253.5,95.5C 253.238,94.0222 253.571,92.6888 254.5,91.5C 257.167,90.5 259.833,89.5 262.5,88.5C 266.505,83.1517 270.505,77.8184 274.5,72.5C 275.736,71.6433 277.069,70.9766 278.5,70.5C 279.298,70.9569 279.631,71.6236 279.5,72.5 Z"/></g>
<g><path style="opacity:1" fill="#0a7525" d="M 126.5,93.5 C 128.652,94.0768 128.985,95.2435 127.5,97C 129.373,98.7038 131.04,100.537 132.5,102.5C 128.112,101.109 126.112,98.1091 126.5,93.5 Z"/></g>
<g><path style="opacity:0.055" fill="#2e2d2d" d="M 275.5,94.5 C 275.5,95.8333 274.833,96.5 273.5,96.5C 273.833,95.5 274.5,94.8333 275.5,94.5 Z"/></g>
<g><path style="opacity:1" fill="#a8c6cf" d="M 157.5,79.5 C 157.833,79.5 158.167,79.5 158.5,79.5C 160.483,79.1568 161.817,79.8235 162.5,81.5C 152.122,84.5795 147.789,91.5795 149.5,102.5C 151.527,102.338 153.527,102.505 155.5,103C 154.756,104.039 153.756,104.539 152.5,104.5C 152.083,103.876 151.416,103.543 150.5,103.5C 148.675,104.651 146.675,105.318 144.5,105.5C 142.742,93.6387 147.075,84.972 157.5,79.5 Z"/></g>
<g><path style="opacity:1" fill="#174315" d="M 267.5,92.5 C 268.5,92.5 269.5,92.5 270.5,92.5C 268.691,96.9912 265.691,100.658 261.5,103.5C 260.892,107.103 258.892,109.436 255.5,110.5C 255.167,110.5 254.833,110.5 254.5,110.5C 254.5,110.167 254.5,109.833 254.5,109.5C 257.971,108.522 259.805,106.188 260,102.5C 261.518,101.837 262.685,100.837 263.5,99.5C 264.806,98.5326 265.473,97.1993 265.5,95.5C 264.448,95.6495 263.448,95.4828 262.5,95C 263.91,93.6283 265.577,92.795 267.5,92.5 Z"/></g>
<g><path style="opacity:1" fill="#06661a" d="M 263.5,99.5 C 262.685,100.837 261.518,101.837 260,102.5C 259.805,106.188 257.971,108.522 254.5,109.5C 253.833,109.5 253.5,109.167 253.5,108.5C 255.544,107.969 257.211,106.802 258.5,105C 257.692,104.692 257.025,104.192 256.5,103.5C 258.4,101.384 260.733,100.051 263.5,99.5 Z"/></g>
<g><path style="opacity:1" fill="#d8d9d8" d="M 301.5,39.5 C 301.938,41.126 302.272,42.7927 302.5,44.5C 301.818,46.8409 301.151,49.1743 300.5,51.5C 297.399,54.8354 294.399,58.3354 291.5,62C 293.394,65.1244 292.394,67.6244 288.5,69.5C 287.804,73.8931 285.804,77.5597 282.5,80.5C 283.326,81.451 283.492,82.451 283,83.5C 279.785,86.8461 277.285,90.5127 275.5,94.5C 274.5,94.8333 273.833,95.5 273.5,96.5C 271.99,99.5144 269.99,102.181 267.5,104.5C 265.241,105.344 264.241,107.011 264.5,109.5C 263.5,111.167 262.167,112.5 260.5,113.5C 257.715,114.084 256.048,113.084 255.5,110.5C 258.892,109.436 260.892,107.103 261.5,103.5C 265.691,100.658 268.691,96.9912 270.5,92.5C 271.989,90.8839 272.989,88.8839 273.5,86.5C 277.522,84.3989 279.522,81.0655 279.5,76.5C 282.179,72.6279 284.679,68.6279 287,64.5C 287.29,62.0481 287.956,59.7148 289,57.5C 293.693,53.3392 296.86,48.3392 298.5,42.5C 296.801,42.3398 295.134,42.5065 293.5,43C 288.334,45.7484 283.334,48.7484 278.5,52C 274.376,51.6432 271.376,53.1432 269.5,56.5C 267.585,56.2155 265.919,56.5489 264.5,57.5C 261.856,59.6281 258.856,61.1281 255.5,62C 253.021,65.162 250.021,67.4953 246.5,69C 244.934,71.3256 243.268,73.4922 241.5,75.5C 241.167,75.5 240.833,75.5 240.5,75.5C 238.824,74.8166 238.157,73.4832 238.5,71.5C 241.235,67.7619 244.568,64.7619 248.5,62.5C 250.033,60.6452 251.7,58.8119 253.5,57C 256.285,56.3425 258.951,55.5091 261.5,54.5C 263.412,53.2008 265.412,52.2008 267.5,51.5C 269.1,50.3556 270.767,49.1889 272.5,48C 276.155,47.669 279.488,46.5024 282.5,44.5C 284.404,44.2624 285.738,43.2624 286.5,41.5C 287.568,40.5655 288.901,40.2322 290.5,40.5C 294.119,39.7564 297.785,39.423 301.5,39.5 Z"/></g>
<g><path style="opacity:1" fill="#184a26" d="M 264.5,57.5 C 265.919,56.5489 267.585,56.2155 269.5,56.5C 269.217,57.2891 268.717,57.9558 268,58.5C 266.989,57.6634 265.822,57.33 264.5,57.5 Z"/></g>
<g><path style="opacity:1" fill="#347ea9" d="M 187.5,80.5 C 185.752,82.1599 185.252,84.1599 186,86.5C 186.977,85.2264 187.811,85.2264 188.5,86.5C 185.813,89.2463 184.98,92.5796 186,96.5C 187.115,95.0001 187.948,93.3334 188.5,91.5C 189.325,90.6143 190.325,90.281 191.5,90.5C 191.312,92.1033 191.812,93.4366 193,94.5C 193.333,90.5 193.667,86.5 194,82.5C 195.481,79.9357 196.981,79.9357 198.5,82.5C 197.677,90.96 197.01,99.46 196.5,108C 196.547,110.295 197.213,112.129 198.5,113.5C 196.719,117.104 194.719,120.604 192.5,124C 192.728,124.399 193.062,124.565 193.5,124.5C 186.33,127.359 178.997,128.025 171.5,126.5C 172.873,126.657 174.207,126.49 175.5,126C 172.281,122.448 169.448,118.615 167,114.5C 165.736,112.393 163.903,111.393 161.5,111.5C 161.724,115.204 161.89,118.871 162,122.5C 159.443,123.646 158.11,122.646 158,119.5C 157.189,112.586 157.355,105.752 158.5,99C 159.944,98.2195 161.277,98.3861 162.5,99.5C 161.425,102.438 161.259,105.438 162,108.5C 163.917,105.085 165.25,101.419 166,97.5C 167.388,96.4464 168.888,96.2797 170.5,97C 169.018,100.251 167.684,103.585 166.5,107C 167.536,108.901 168.702,110.735 170,112.5C 170.333,108.167 170.667,103.833 171,99.5C 172.183,98.269 173.349,98.269 174.5,99.5C 172.702,103.186 173.368,106.186 176.5,108.5C 177.48,105.914 177.813,103.247 177.5,100.5C 178.873,100.343 180.207,100.51 181.5,101C 180.374,104.744 180.207,108.577 181,112.5C 182.372,109.382 183.538,106.216 184.5,103C 183.151,102.228 182.318,101.061 182,99.5C 181.503,96.854 181.336,94.1873 181.5,91.5C 176.329,92.0836 171.162,92.7503 166,93.5C 159.638,93.9517 159.138,92.9517 164.5,90.5C 165.167,90.1667 165.833,89.8333 166.5,89.5C 170.025,89.7854 173.358,89.1187 176.5,87.5C 178.135,88.0463 179.801,88.3796 181.5,88.5C 180.18,83.0929 182.18,80.4263 187.5,80.5 Z"/></g>
<g><path style="opacity:1" fill="#e0f0f5" d="M 189.5,94.5 C 191.497,96.513 193.164,98.8463 194.5,101.5C 193.732,105.445 193.232,109.445 193,113.5C 189.881,109.985 188.714,105.985 189.5,101.5C 187.105,99.2413 187.105,96.908 189.5,94.5 Z"/></g>
<g><path style="opacity:1" fill="#88bace" d="M 187.5,80.5 C 188.947,81.1342 189.613,82.3009 189.5,84C 189.472,85.0698 189.139,85.9032 188.5,86.5C 187.811,85.2264 186.977,85.2264 186,86.5C 185.252,84.1599 185.752,82.1599 187.5,80.5 Z"/></g>
<g><path style="opacity:1" fill="#b8d9e8" d="M 227.5,96.5 C 228.167,97.1667 228.833,97.8333 229.5,98.5C 228.766,99.7079 228.433,101.041 228.5,102.5C 227.833,101.833 227.167,101.167 226.5,100.5C 225.811,99.2264 224.977,99.2264 224,100.5C 223.51,101.793 223.343,103.127 223.5,104.5C 222.596,105.209 222.263,106.209 222.5,107.5C 221.527,105.052 221.194,102.385 221.5,99.5C 220.178,99.33 219.011,99.6634 218,100.5C 217.751,103.177 216.751,105.51 215,107.5C 214.608,110.627 213.775,113.627 212.5,116.5C 213.425,117.562 214.425,117.562 215.5,116.5C 215.5,117.167 215.833,117.5 216.5,117.5C 214.786,118.738 212.786,119.405 210.5,119.5C 209.275,118.848 208.608,117.681 208.5,116C 208.667,114.833 208.833,113.667 209,112.5C 209.308,113.308 209.808,113.975 210.5,114.5C 212.283,112.977 212.949,110.977 212.5,108.5C 211.178,108.33 210.011,108.663 209,109.5C 208.833,108.333 208.667,107.167 208.5,106C 207.932,102.737 209.266,101.237 212.5,101.5C 212.579,102.93 212.246,104.264 211.5,105.5C 212.365,106.583 213.365,106.749 214.5,106C 216.22,102.914 215.553,100.581 212.5,99C 217.572,97.9399 222.572,97.1066 227.5,96.5 Z"/></g>
<g><path style="opacity:1" fill="#4488ad" d="M 226.5,100.5 C 226.5,102.167 226.5,103.833 226.5,105.5C 225.209,105.737 224.209,105.404 223.5,104.5C 223.343,103.127 223.51,101.793 224,100.5C 224.977,99.2264 225.811,99.2264 226.5,100.5 Z"/></g>
<g><path style="opacity:1" fill="#e4f2f6" d="M 226.5,100.5 C 227.167,101.167 227.833,101.833 228.5,102.5C 230.637,105.11 231.97,108.11 232.5,111.5C 232.167,112.5 231.833,113.5 231.5,114.5C 229.783,113.332 229.116,111.665 229.5,109.5C 228.209,109.263 227.209,109.596 226.5,110.5C 225.833,111.5 225.167,112.5 224.5,113.5C 224.125,111.302 223.458,109.302 222.5,107.5C 222.263,106.209 222.596,105.209 223.5,104.5C 224.209,105.404 225.209,105.737 226.5,105.5C 226.5,103.833 226.5,102.167 226.5,100.5 Z"/></g>
<g><path style="opacity:1" fill="#305556" d="M 240.5,75.5 C 240.833,75.5 241.167,75.5 241.5,75.5C 241.229,77.3797 241.896,78.713 243.5,79.5C 245.694,81.2214 246.861,83.5547 247,86.5C 247.384,92.1938 247.384,97.8605 247,103.5C 249.287,105.054 251.454,106.721 253.5,108.5C 253.5,109.167 253.833,109.5 254.5,109.5C 254.5,109.833 254.5,110.167 254.5,110.5C 253.833,110.5 253.167,110.5 252.5,110.5C 250.152,108.32 247.652,106.32 245,104.5C 243.69,105.13 242.856,106.13 242.5,107.5C 241.577,108.303 240.577,108.47 239.5,108C 240.883,106.729 241.883,105.229 242.5,103.5C 246.969,94.7896 246.302,86.4563 240.5,78.5C 240.5,77.5 240.5,76.5 240.5,75.5 Z"/></g>
<g><path style="opacity:0.22" fill="#3c3d3c" d="M 267.5,104.5 C 266.64,106.288 265.64,107.955 264.5,109.5C 264.241,107.011 265.241,105.344 267.5,104.5 Z"/></g>
<g><path style="opacity:0.275" fill="#4c4e4d" d="M 125.5,105.5 C 127.176,106.183 127.843,107.517 127.5,109.5C 126.655,108.329 125.989,106.995 125.5,105.5 Z"/></g>
<g><path style="opacity:1" fill="#305156" d="M 154.5,78.5 C 155.167,78.5 155.833,78.5 156.5,78.5C 156.5,79.1667 156.833,79.5 157.5,79.5C 147.075,84.972 142.742,93.6387 144.5,105.5C 146.675,105.318 148.675,104.651 150.5,103.5C 151.416,103.543 152.083,103.876 152.5,104.5C 151.833,104.833 151.167,105.167 150.5,105.5C 144.07,108.262 139.737,112.928 137.5,119.5C 137.5,118.5 137.5,117.5 137.5,116.5C 137.5,114.833 137.5,113.167 137.5,111.5C 139.38,111.771 140.713,111.104 141.5,109.5C 142.391,108.739 143.058,107.739 143.5,106.5C 142.262,101.168 142.262,95.8344 143.5,90.5C 145.13,85.889 148.13,82.5557 152.5,80.5C 153.5,80.1667 154.167,79.5 154.5,78.5 Z"/></g>
<g><path style="opacity:1" fill="#f3f8f9" d="M 162.5,81.5 C 162.833,83.5 163.167,85.5 163.5,87.5C 164.11,88.391 164.443,89.391 164.5,90.5C 159.138,92.9517 159.638,93.9517 166,93.5C 171.162,92.7503 176.329,92.0836 181.5,91.5C 181.336,94.1873 181.503,96.854 182,99.5C 182.318,101.061 183.151,102.228 184.5,103C 183.538,106.216 182.372,109.382 181,112.5C 180.207,108.577 180.374,104.744 181.5,101C 180.207,100.51 178.873,100.343 177.5,100.5C 177.813,103.247 177.48,105.914 176.5,108.5C 173.368,106.186 172.702,103.186 174.5,99.5C 173.349,98.269 172.183,98.269 171,99.5C 170.667,103.833 170.333,108.167 170,112.5C 168.702,110.735 167.536,108.901 166.5,107C 167.684,103.585 169.018,100.251 170.5,97C 168.888,96.2797 167.388,96.4464 166,97.5C 165.25,101.419 163.917,105.085 162,108.5C 161.259,105.438 161.425,102.438 162.5,99.5C 161.277,98.3861 159.944,98.2195 158.5,99C 157.355,105.752 157.189,112.586 158,119.5C 158.11,122.646 159.443,123.646 162,122.5C 161.89,118.871 161.724,115.204 161.5,111.5C 163.903,111.393 165.736,112.393 167,114.5C 169.448,118.615 172.281,122.448 175.5,126C 174.207,126.49 172.873,126.657 171.5,126.5C 170.305,126.322 169.138,125.989 168,125.5C 166.357,126.315 164.857,127.315 163.5,128.5C 164.292,127.033 164.292,125.7 163.5,124.5C 161.431,127.315 158.931,129.648 156,131.5C 155.51,132.793 155.343,134.127 155.5,135.5C 160.363,135.819 165.03,135.486 169.5,134.5C 172.187,134.664 174.854,134.497 177.5,134C 186.941,132.146 196.274,129.98 205.5,127.5C 205.5,128.833 205.5,130.167 205.5,131.5C 207.167,131.5 208.833,131.5 210.5,131.5C 209.652,129.519 209.152,127.519 209,125.5C 213.529,121.871 218.529,120.538 224,121.5C 225.123,124.249 226.623,126.749 228.5,129C 230.387,129.78 232.054,129.613 233.5,128.5C 235.67,126.458 237.337,123.958 238.5,121C 236.271,119.58 234.604,117.747 233.5,115.5C 234.5,115.167 235.167,114.5 235.5,113.5C 236.302,112.048 236.802,110.382 237,108.5C 241.68,109.169 245.347,111.503 248,115.5C 251.683,126.613 247.85,132.946 236.5,134.5C 235.609,133.89 234.609,133.557 233.5,133.5C 229.71,132.098 226.044,132.431 222.5,134.5C 213.637,136.682 205.471,140.349 198,145.5C 197.505,147.473 197.338,149.473 197.5,151.5C 196.796,153.344 195.463,153.844 193.5,153C 191.771,151.211 191.104,149.044 191.5,146.5C 184.678,148.058 178.011,147.724 171.5,145.5C 170.189,142.865 168.522,140.531 166.5,138.5C 161.695,137.513 156.695,137.179 151.5,137.5C 151.167,136.833 150.833,136.167 150.5,135.5C 145.498,128.636 144.165,120.97 146.5,112.5C 147.806,110.184 149.139,107.85 150.5,105.5C 151.167,105.167 151.833,104.833 152.5,104.5C 153.756,104.539 154.756,104.039 155.5,103C 153.527,102.505 151.527,102.338 149.5,102.5C 147.789,91.5795 152.122,84.5795 162.5,81.5 Z"/></g>
<g><path style="opacity:1" fill="#12699a" d="M 203.5,118.5 C 203.179,120.048 202.179,120.715 200.5,120.5C 201.01,117.612 200.344,115.279 198.5,113.5C 199.6,112.395 200.267,111.062 200.5,109.5C 201.117,109.389 201.617,109.056 202,108.5C 202.179,112.025 202.679,115.359 203.5,118.5 Z"/></g>
<g><path style="opacity:1" fill="#93c1da" d="M 205.5,109.5 C 205.666,113.514 205.499,117.514 205,121.5C 202.699,122.867 200.199,123.534 197.5,123.5C 198.9,122.9 199.9,121.9 200.5,120.5C 202.179,120.715 203.179,120.048 203.5,118.5C 203.793,114.563 203.46,110.73 202.5,107C 203.24,105.215 203.907,103.382 204.5,101.5C 205.591,100.112 206.924,99.6124 208.5,100C 205.814,102.546 204.814,105.713 205.5,109.5 Z"/></g>
<g><path style="opacity:1" fill="#337aa5" d="M 229.5,98.5 C 231.03,100.827 232.697,103.16 234.5,105.5C 235.092,108.127 235.425,110.794 235.5,113.5C 235.167,114.5 234.5,115.167 233.5,115.5C 228.607,117.472 226.274,115.806 226.5,110.5C 227.209,109.596 228.209,109.263 229.5,109.5C 229.116,111.665 229.783,113.332 231.5,114.5C 231.833,113.5 232.167,112.5 232.5,111.5C 231.97,108.11 230.637,105.11 228.5,102.5C 228.433,101.041 228.766,99.7079 229.5,98.5 Z"/></g>
<g><path style="opacity:1" fill="#2c434f" d="M 252.5,110.5 C 253.167,110.5 253.833,110.5 254.5,110.5C 254.833,110.5 255.167,110.5 255.5,110.5C 256.048,113.084 257.715,114.084 260.5,113.5C 259.725,115.388 259.725,117.388 260.5,119.5C 261.833,119.5 263.167,119.5 264.5,119.5C 262.958,120.163 261.291,120.83 259.5,121.5C 258.295,122.995 258.295,124.328 259.5,125.5C 257.495,132.846 253.495,138.846 247.5,143.5C 245.716,143.893 244.05,144.559 242.5,145.5C 241.659,143.621 241.325,141.621 241.5,139.5C 242.161,140.718 242.828,142.051 243.5,143.5C 256.545,135.16 259.545,124.16 252.5,110.5 Z"/></g>
<g><path style="opacity:1" fill="#e1f0f5" d="M 189.5,122.5 C 188.837,120.958 188.17,119.291 187.5,117.5C 186.358,118.826 185.024,119.826 183.5,120.5C 182.6,116.962 183.933,114.296 187.5,112.5C 189.685,114.35 191.018,116.684 191.5,119.5C 191.36,121.03 190.693,122.03 189.5,122.5 Z"/></g>
<g><path style="opacity:1" fill="#deedf4" d="M 198.5,113.5 C 200.344,115.279 201.01,117.612 200.5,120.5C 199.9,121.9 198.9,122.9 197.5,123.5C 196.167,123.833 194.833,124.167 193.5,124.5C 193.062,124.565 192.728,124.399 192.5,124C 194.719,120.604 196.719,117.104 198.5,113.5 Z"/></g>
<g><path style="opacity:0.016" fill="#000000" d="M 308.5,116.5 C 309.525,116.897 309.692,117.563 309,118.5C 308.536,117.906 308.369,117.239 308.5,116.5 Z"/></g>
<g><path style="opacity:1" fill="#e8f3f6" d="M 173.5,109.5 C 175.017,109.511 176.184,110.177 177,111.5C 178.403,115.414 179.57,119.414 180.5,123.5C 177.737,123.256 175.571,121.923 174,119.5C 174.813,116.161 174.646,112.828 173.5,109.5 Z"/></g>
<g><path style="opacity:1" fill="#93b8cd" d="M 226.5,110.5 C 226.274,115.806 228.607,117.472 233.5,115.5C 234.604,117.747 236.271,119.58 238.5,121C 237.337,123.958 235.67,126.458 233.5,128.5C 232.833,127.833 232.167,127.167 231.5,126.5C 232.5,126.5 233.5,126.5 234.5,126.5C 233.916,121.871 231.583,120.205 227.5,121.5C 226.957,121.44 226.624,121.107 226.5,120.5C 231.54,119.105 231.206,118.105 225.5,117.5C 225.567,116.041 225.234,114.708 224.5,113.5C 225.167,112.5 225.833,111.5 226.5,110.5 Z"/></g>
<g><path style="opacity:0.996" fill="#d5d6d5" d="M 305.5,138.5 C 302.772,138.171 300.438,138.837 298.5,140.5C 294.846,143.452 290.846,146.119 286.5,148.5C 285.167,148.5 283.833,148.5 282.5,148.5C 282.5,146.833 282.5,145.167 282.5,143.5C 284.099,143.768 285.432,143.434 286.5,142.5C 288.662,142.103 289.995,140.769 290.5,138.5C 292.801,137.675 295.135,137.008 297.5,136.5C 300.427,135.35 303.427,134.35 306.5,133.5C 307.9,131.218 307.234,129.718 304.5,129C 298.514,128.091 292.514,127.257 286.5,126.5C 286.291,125.914 285.957,125.414 285.5,125C 281.445,124.854 277.612,124.02 274,122.5C 271.487,123.73 268.987,123.73 266.5,122.5C 264.308,122.757 262.641,123.757 261.5,125.5C 260.833,125.5 260.167,125.5 259.5,125.5C 258.295,124.328 258.295,122.995 259.5,121.5C 261.291,120.83 262.958,120.163 264.5,119.5C 269.167,118.839 274.167,118.672 279.5,119C 289.331,121.651 299.331,123.818 309.5,125.5C 309.666,129.514 309.499,133.514 309,137.5C 307.989,138.337 306.822,138.67 305.5,138.5 Z"/></g>
<g><path style="opacity:0.016" fill="#000000" d="M 308.5,119.5 C 309.833,120.167 309.833,120.167 308.5,119.5 Z"/></g>
<g><path style="opacity:0.624" fill="#8f9192" d="M 127.5,119.5 C 129.565,119.517 131.565,119.85 133.5,120.5C 134.167,120.5 134.5,120.833 134.5,121.5C 131.848,121.59 129.515,120.924 127.5,119.5 Z"/></g>
<g><path style="opacity:0.086" fill="#2a2929" d="M 103.5,121.5 C 101.012,123.388 98.0122,124.055 94.5,123.5C 97.3896,122.755 100.39,122.088 103.5,121.5 Z"/></g>
<g><path style="opacity:0.016" fill="#030403" d="M 308.5,122.5 C 309.525,122.897 309.692,123.563 309,124.5C 308.536,123.906 308.369,123.239 308.5,122.5 Z"/></g>
<g><path style="opacity:1" fill="#3b5e3f" d="M 129.5,124.5 C 128.833,124.5 128.5,124.833 128.5,125.5C 128.167,125.5 127.833,125.5 127.5,125.5C 126.021,124.494 124.354,124.494 122.5,125.5C 120.896,125.061 119.396,124.394 118,123.5C 113.822,124.793 109.655,126.127 105.5,127.5C 102.833,127.5 100.167,127.5 97.5,127.5C 104.15,125.633 110.983,123.966 118,122.5C 120.513,123.73 123.013,123.73 125.5,122.5C 127.171,122.668 128.504,123.335 129.5,124.5 Z"/></g>
<g><path style="opacity:1" fill="#9abfc9" d="M 150.5,105.5 C 149.139,107.85 147.806,110.184 146.5,112.5C 140.416,118.279 139.083,125.113 142.5,133C 142.836,134.03 143.503,134.53 144.5,134.5C 144.158,135.338 143.492,135.672 142.5,135.5C 141.504,135.586 140.671,135.252 140,134.5C 137.967,129.705 137.134,124.705 137.5,119.5C 139.737,112.928 144.07,108.262 150.5,105.5 Z"/></g>
<g><path style="opacity:1" fill="#2c719d" d="M 189.5,122.5 C 189.918,123.222 190.584,123.722 191.5,124C 188.091,123.766 184.758,123.932 181.5,124.5C 181.157,122.517 181.824,121.183 183.5,120.5C 185.024,119.826 186.358,118.826 187.5,117.5C 188.17,119.291 188.837,120.958 189.5,122.5 Z"/></g>
<g><path style="opacity:1" fill="#ecf6fa" d="M 227.5,121.5 C 231.583,120.205 233.916,121.871 234.5,126.5C 233.5,126.5 232.5,126.5 231.5,126.5C 230.136,124.809 228.803,123.142 227.5,121.5 Z"/></g>
<g><path style="opacity:1" fill="#293742" d="M 134.5,116.5 C 135.5,116.5 136.5,116.5 137.5,116.5C 137.5,117.5 137.5,118.5 137.5,119.5C 137.134,124.705 137.967,129.705 140,134.5C 140.671,135.252 141.504,135.586 142.5,135.5C 141.211,136.637 140.211,137.97 139.5,139.5C 138.833,139.833 138.167,140.167 137.5,140.5C 136.325,140.719 135.325,140.386 134.5,139.5C 135.127,138.583 135.461,137.583 135.5,136.5C 136.833,134.833 136.833,133.167 135.5,131.5C 135.828,126.582 133.495,124.582 128.5,125.5C 128.5,124.833 128.833,124.5 129.5,124.5C 131.5,124.5 133.5,124.5 135.5,124.5C 135.737,123.209 135.404,122.209 134.5,121.5C 134.5,120.833 134.167,120.5 133.5,120.5C 133.433,119.041 133.766,117.708 134.5,116.5 Z"/></g>
<g><path style="opacity:1" fill="#16689a" d="M 222.5,107.5 C 223.458,109.302 224.125,111.302 224.5,113.5C 225.234,114.708 225.567,116.041 225.5,117.5C 231.206,118.105 231.54,119.105 226.5,120.5C 226.624,121.107 226.957,121.44 227.5,121.5C 228.803,123.142 230.136,124.809 231.5,126.5C 232.167,127.167 232.833,127.833 233.5,128.5C 232.054,129.613 230.387,129.78 228.5,129C 226.623,126.749 225.123,124.249 224,121.5C 218.529,120.538 213.529,121.871 209,125.5C 209.152,127.519 209.652,129.519 210.5,131.5C 208.833,131.5 207.167,131.5 205.5,131.5C 205.5,130.167 205.5,128.833 205.5,127.5C 196.274,129.98 186.941,132.146 177.5,134C 174.854,134.497 172.187,134.664 169.5,134.5C 165.445,134.824 161.445,134.491 157.5,133.5C 160.122,132.541 162.122,130.875 163.5,128.5C 164.857,127.315 166.357,126.315 168,125.5C 169.138,125.989 170.305,126.322 171.5,126.5C 178.997,128.025 186.33,127.359 193.5,124.5C 194.833,124.167 196.167,123.833 197.5,123.5C 200.199,123.534 202.699,122.867 205,121.5C 205.499,117.514 205.666,113.514 205.5,109.5C 206.222,109.918 206.722,110.584 207,111.5C 207.498,114.482 207.665,117.482 207.5,120.5C 208.791,120.737 209.791,120.404 210.5,119.5C 212.786,119.405 214.786,118.738 216.5,117.5C 218.167,117.5 219.833,117.5 221.5,117.5C 220.773,109.859 218.773,109.525 215.5,116.5C 214.425,117.562 213.425,117.562 212.5,116.5C 213.775,113.627 214.608,110.627 215,107.5C 216.751,105.51 217.751,103.177 218,100.5C 219.011,99.6634 220.178,99.33 221.5,99.5C 221.194,102.385 221.527,105.052 222.5,107.5 Z"/></g>
<g><path style="opacity:1" fill="#e2f0f7" d="M 216.5,117.5 C 215.833,117.5 215.5,117.167 215.5,116.5C 218.773,109.525 220.773,109.859 221.5,117.5C 219.833,117.5 218.167,117.5 216.5,117.5 Z"/></g>
<g><path style="opacity:1" fill="#245730" d="M 297.5,136.5 C 298.672,134.461 300.338,133.128 302.5,132.5C 302.918,131.778 303.584,131.278 304.5,131C 298.344,129.068 292.011,128.068 285.5,128C 283.276,125.318 280.61,124.818 277.5,126.5C 275.952,126.179 275.285,125.179 275.5,123.5C 273.213,123.724 271.047,124.391 269,125.5C 266.493,124.253 263.993,124.253 261.5,125.5C 262.641,123.757 264.308,122.757 266.5,122.5C 268.987,123.73 271.487,123.73 274,122.5C 277.612,124.02 281.445,124.854 285.5,125C 285.957,125.414 286.291,125.914 286.5,126.5C 292.514,127.257 298.514,128.091 304.5,129C 307.234,129.718 307.9,131.218 306.5,133.5C 303.427,134.35 300.427,135.35 297.5,136.5 Z"/></g>
<g><path style="opacity:1" fill="#3a2b10" d="M 127.5,125.5 C 127.833,125.5 128.167,125.5 128.5,125.5C 133.495,124.582 135.828,126.582 135.5,131.5C 135.167,131.5 134.833,131.5 134.5,131.5C 134.178,127.024 131.844,125.524 127.5,127C 125.959,128.371 124.625,129.871 123.5,131.5C 123.167,131.5 122.833,131.5 122.5,131.5C 122.5,130.833 122.5,130.167 122.5,129.5C 123.579,127.457 125.246,126.124 127.5,125.5 Z"/></g>
<g><path style="opacity:1" fill="#0fbb63" d="M 277.5,126.5 C 276.054,127.613 274.387,127.78 272.5,127C 273.696,126.346 273.696,125.846 272.5,125.5C 270.667,126.052 269,126.885 267.5,128C 268.549,128.492 269.549,128.326 270.5,127.5C 271.696,127.846 271.696,128.346 270.5,129C 272.833,129.333 275.167,129.667 277.5,130C 276.833,130.667 276.167,131.333 275.5,132C 277.5,132.333 279.5,132.667 281.5,133C 279.754,133.471 278.087,134.138 276.5,135C 277.056,135.383 277.389,135.883 277.5,136.5C 275.608,135.149 273.442,134.482 271,134.5C 269.615,134.514 268.449,134.848 267.5,135.5C 264.224,136.122 262.891,138.122 263.5,141.5C 260.15,141.335 256.817,141.502 253.5,142C 252.177,142.816 251.511,143.983 251.5,145.5C 249.517,145.843 248.183,145.176 247.5,143.5C 253.495,138.846 257.495,132.846 259.5,125.5C 260.167,125.5 260.833,125.5 261.5,125.5C 263.993,124.253 266.493,124.253 269,125.5C 271.047,124.391 273.213,123.724 275.5,123.5C 275.285,125.179 275.952,126.179 277.5,126.5 Z"/></g>
<g><path style="opacity:1" fill="#265330" d="M 97.5,127.5 C 100.167,127.5 102.833,127.5 105.5,127.5C 99.9834,128.358 94.3168,129.191 88.5,130C 86.6412,130.601 86.3079,131.434 87.5,132.5C 87.8333,133.167 88.1667,133.833 88.5,134.5C 84.344,133.788 83.6774,131.955 86.5,129C 90.1135,128.064 93.7802,127.564 97.5,127.5 Z"/></g>
<g><path style="opacity:1" fill="#c0dee5" d="M 146.5,112.5 C 144.165,120.97 145.498,128.636 150.5,135.5C 148.621,134.659 146.621,134.325 144.5,134.5C 143.503,134.53 142.836,134.03 142.5,133C 139.083,125.113 140.416,118.279 146.5,112.5 Z"/></g>
<g><path style="opacity:1" fill="#a1c6d0" d="M 252.5,110.5 C 259.545,124.16 256.545,135.16 243.5,143.5C 242.828,142.051 242.161,140.718 241.5,139.5C 240.473,137.806 239.139,136.473 237.5,135.5C 239.199,135.66 240.866,135.494 242.5,135C 246.989,132.855 249.489,129.355 250,124.5C 252.017,116.684 249.517,111.018 242.5,107.5C 242.856,106.13 243.69,105.13 245,104.5C 247.652,106.32 250.152,108.32 252.5,110.5 Z"/></g>
<g><path style="opacity:1" fill="#10cf7a" d="M 277.5,126.5 C 280.61,124.818 283.276,125.318 285.5,128C 292.011,128.068 298.344,129.068 304.5,131C 303.584,131.278 302.918,131.778 302.5,132.5C 297.763,133.368 293.096,134.534 288.5,136C 287.071,139.554 284.405,141.387 280.5,141.5C 279.692,139.78 278.692,138.113 277.5,136.5C 277.389,135.883 277.056,135.383 276.5,135C 278.087,134.138 279.754,133.471 281.5,133C 279.5,132.667 277.5,132.333 275.5,132C 276.167,131.333 276.833,130.667 277.5,130C 275.167,129.667 272.833,129.333 270.5,129C 271.696,128.346 271.696,127.846 270.5,127.5C 269.549,128.326 268.549,128.492 267.5,128C 269,126.885 270.667,126.052 272.5,125.5C 273.696,125.846 273.696,126.346 272.5,127C 274.387,127.78 276.054,127.613 277.5,126.5 Z"/></g>
<g><path style="opacity:0.996" fill="#e2e3e2" d="M 127.5,119.5 C 129.515,120.924 131.848,121.59 134.5,121.5C 135.404,122.209 135.737,123.209 135.5,124.5C 133.5,124.5 131.5,124.5 129.5,124.5C 128.504,123.335 127.171,122.668 125.5,122.5C 123.013,123.73 120.513,123.73 118,122.5C 110.983,123.966 104.15,125.633 97.5,127.5C 93.7802,127.564 90.1135,128.064 86.5,129C 83.6774,131.955 84.344,133.788 88.5,134.5C 92.7938,136.816 97.4605,138.15 102.5,138.5C 102.351,139.552 102.517,140.552 103,141.5C 105.131,142.615 106.965,143.948 108.5,145.5C 108.158,146.338 107.492,146.672 106.5,146.5C 104.079,146.122 101.746,145.455 99.5,144.5C 98.9694,141.221 96.9694,139.887 93.5,140.5C 90.1012,139.984 86.7679,139.15 83.5,138C 82.1667,134 82.1667,130 83.5,126C 86.9231,124.096 90.5898,123.263 94.5,123.5C 98.0122,124.055 101.012,123.388 103.5,121.5C 108.089,120.728 112.589,119.728 117,118.5C 120.579,118.986 124.079,119.32 127.5,119.5 Z"/></g>
<g><path style="opacity:1" fill="#10c773" d="M 127.5,125.5 C 125.246,126.124 123.579,127.457 122.5,129.5C 120.629,129.859 119.129,130.859 118,132.5C 115.833,135.333 113.667,138.167 111.5,141C 109.153,141.334 106.819,141.167 104.5,140.5C 104.512,137.858 103.179,136.525 100.5,136.5C 96.561,134.219 92.2277,132.886 87.5,132.5C 86.3079,131.434 86.6412,130.601 88.5,130C 94.3168,129.191 99.9834,128.358 105.5,127.5C 109.655,126.127 113.822,124.793 118,123.5C 119.396,124.394 120.896,125.061 122.5,125.5C 124.354,124.494 126.021,124.494 127.5,125.5 Z"/></g>
<g><path style="opacity:1" fill="#5b6675" d="M 233.5,133.5 C 230.941,133.198 228.607,133.532 226.5,134.5C 225.167,134.5 223.833,134.5 222.5,134.5C 226.044,132.431 229.71,132.098 233.5,133.5 Z"/></g>
<g><path style="opacity:1" fill="#9d5d08" d="M 134.5,131.5 C 134.833,131.5 135.167,131.5 135.5,131.5C 136.833,133.167 136.833,134.833 135.5,136.5C 133.806,137.527 132.473,138.861 131.5,140.5C 129.833,141.167 128.167,141.833 126.5,142.5C 129.984,139.361 132.651,135.694 134.5,131.5 Z"/></g>
<g><path style="opacity:1" fill="#568eb0" d="M 163.5,128.5 C 162.122,130.875 160.122,132.541 157.5,133.5C 161.445,134.491 165.445,134.824 169.5,134.5C 165.03,135.486 160.363,135.819 155.5,135.5C 155.343,134.127 155.51,132.793 156,131.5C 158.931,129.648 161.431,127.315 163.5,124.5C 164.292,125.7 164.292,127.033 163.5,128.5 Z"/></g>
<g><path style="opacity:1" fill="#0f5917" d="M 302.5,132.5 C 300.338,133.128 298.672,134.461 297.5,136.5C 295.135,137.008 292.801,137.675 290.5,138.5C 289.995,140.769 288.662,142.103 286.5,142.5C 284.265,142.795 282.265,142.461 280.5,141.5C 284.405,141.387 287.071,139.554 288.5,136C 293.096,134.534 297.763,133.368 302.5,132.5 Z"/></g>
<g><path style="opacity:1" fill="#055407" d="M 87.5,132.5 C 92.2277,132.886 96.561,134.219 100.5,136.5C 96.4616,136.042 92.4616,135.376 88.5,134.5C 88.1667,133.833 87.8333,133.167 87.5,132.5 Z"/></g>
<g><path style="opacity:1" fill="#d5be60" d="M 226.5,134.5 C 228.857,134.337 231.19,134.503 233.5,135C 234.381,135.708 235.047,136.542 235.5,137.5C 230.523,136.31 225.523,136.31 220.5,137.5C 222.371,136.203 224.371,135.203 226.5,134.5 Z"/></g>
<g><path style="opacity:1" fill="#244825" d="M 122.5,129.5 C 122.5,130.167 122.5,130.833 122.5,131.5C 119.412,132.92 117.412,135.253 116.5,138.5C 114.726,139.37 113.393,140.703 112.5,142.5C 111.5,142.5 110.5,142.5 109.5,142.5C 109.737,143.791 109.404,144.791 108.5,145.5C 106.965,143.948 105.131,142.615 103,141.5C 102.517,140.552 102.351,139.552 102.5,138.5C 97.4605,138.15 92.7938,136.816 88.5,134.5C 92.4616,135.376 96.4616,136.042 100.5,136.5C 103.179,136.525 104.512,137.858 104.5,140.5C 106.819,141.167 109.153,141.334 111.5,141C 113.667,138.167 115.833,135.333 118,132.5C 119.129,130.859 120.629,129.859 122.5,129.5 Z"/></g>
<g><path style="opacity:1" fill="#886118" d="M 122.5,131.5 C 122.833,131.5 123.167,131.5 123.5,131.5C 121.167,133.833 118.833,136.167 116.5,138.5C 117.412,135.253 119.412,132.92 122.5,131.5 Z"/></g>
<g><path style="opacity:1" fill="#188258" d="M 267.5,135.5 C 266.292,138.348 264.792,141.014 263,143.5C 258.633,141.716 254.8,142.383 251.5,145.5C 251.511,143.983 252.177,142.816 253.5,142C 256.817,141.502 260.15,141.335 263.5,141.5C 262.891,138.122 264.224,136.122 267.5,135.5 Z"/></g>
<g><path style="opacity:0.722" fill="#868686" d="M 305.5,138.5 C 303.401,139.612 301.067,140.279 298.5,140.5C 300.438,138.837 302.772,138.171 305.5,138.5 Z"/></g>
<g><path style="opacity:1" fill="#d0b457" d="M 220.5,137.5 C 216.077,140.044 211.41,142.044 206.5,143.5C 210.396,139.89 215.063,137.89 220.5,137.5 Z"/></g>
<g><path style="opacity:1" fill="#f5f262" d="M 235.5,137.5 C 236.167,137.833 236.833,138.167 237.5,138.5C 237.773,140.451 237.107,141.951 235.5,143C 230.3,143.459 225.3,144.625 220.5,146.5C 216.956,146.239 215.122,147.905 215,151.5C 211.242,151.234 207.409,150.234 203.5,148.5C 202.614,147.675 202.281,146.675 202.5,145.5C 204.179,145.715 205.179,145.048 205.5,143.5C 205.833,143.5 206.167,143.5 206.5,143.5C 211.41,142.044 216.077,140.044 220.5,137.5C 225.523,136.31 230.523,136.31 235.5,137.5 Z"/></g>
<g><path style="opacity:1" fill="#2a1f17" d="M 135.5,136.5 C 135.461,137.583 135.127,138.583 134.5,139.5C 135.325,140.386 136.325,140.719 137.5,140.5C 137.167,141.167 136.833,141.833 136.5,142.5C 133.366,143.901 130.366,145.568 127.5,147.5C 126.475,147.103 126.308,146.437 127,145.5C 128.707,143.963 130.207,142.296 131.5,140.5C 132.473,138.861 133.806,137.527 135.5,136.5 Z"/></g>
<g><path style="opacity:1" fill="#322d28" d="M 144.5,134.5 C 146.621,134.325 148.621,134.659 150.5,135.5C 150.833,136.167 151.167,136.833 151.5,137.5C 152.493,140.144 153.493,142.81 154.5,145.5C 157.601,143.902 160.268,141.735 162.5,139C 163.793,138.51 165.127,138.343 166.5,138.5C 168.522,140.531 170.189,142.865 171.5,145.5C 171.279,148.279 171.612,150.946 172.5,153.5C 177.681,154.315 183.014,154.982 188.5,155.5C 192.208,156.914 195.875,156.747 199.5,155C 198.915,153.698 198.249,152.531 197.5,151.5C 197.338,149.473 197.505,147.473 198,145.5C 205.471,140.349 213.637,136.682 222.5,134.5C 223.833,134.5 225.167,134.5 226.5,134.5C 224.371,135.203 222.371,136.203 220.5,137.5C 215.063,137.89 210.396,139.89 206.5,143.5C 206.167,143.5 205.833,143.5 205.5,143.5C 203.847,143.66 202.514,144.326 201.5,145.5C 199.559,147.011 199.059,149.011 200,151.5C 201.041,153.585 202.541,155.252 204.5,156.5C 201.127,157.101 199.293,159.101 199,162.5C 198.329,163.252 197.496,163.586 196.5,163.5C 194.588,160.539 191.921,158.539 188.5,157.5C 183.447,155.74 178.114,155.073 172.5,155.5C 171.833,155.167 171.167,154.833 170.5,154.5C 169.748,151.253 169.248,147.919 169,144.5C 168.623,143.058 167.79,142.058 166.5,141.5C 164.872,140.147 163.538,140.481 162.5,142.5C 157.895,145.436 153.895,149.102 150.5,153.5C 148.938,153.733 147.605,154.4 146.5,155.5C 145.957,155.44 145.624,155.107 145.5,154.5C 147.58,152.427 149.246,150.093 150.5,147.5C 151.83,144.56 151.663,141.56 150,138.5C 147.379,135.86 144.879,135.86 142.5,138.5C 141.391,138.557 140.391,138.89 139.5,139.5C 140.211,137.97 141.211,136.637 142.5,135.5C 143.492,135.672 144.158,135.338 144.5,134.5 Z"/></g>
<g><path style="opacity:1" fill="#b2d4dc" d="M 151.5,137.5 C 156.695,137.179 161.695,137.513 166.5,138.5C 165.127,138.343 163.793,138.51 162.5,139C 160.268,141.735 157.601,143.902 154.5,145.5C 153.493,142.81 152.493,140.144 151.5,137.5 Z"/></g>
<g><path style="opacity:0.643" fill="#828381" d="M 93.5,140.5 C 96.9694,139.887 98.9694,141.221 99.5,144.5C 97.8102,142.658 95.8102,141.325 93.5,140.5 Z"/></g>
<g><path style="opacity:1" fill="#845c15" d="M 116.5,138.5 C 115.559,140.05 114.893,141.716 114.5,143.5C 113.5,144.167 112.5,144.833 111.5,145.5C 111.557,144.391 111.89,143.391 112.5,142.5C 113.393,140.703 114.726,139.37 116.5,138.5 Z"/></g>
<g><path style="opacity:1" fill="#352c17" d="M 277.5,136.5 C 278.692,138.113 279.692,139.78 280.5,141.5C 282.265,142.461 284.265,142.795 286.5,142.5C 285.432,143.434 284.099,143.768 282.5,143.5C 282.5,145.167 282.5,146.833 282.5,148.5C 282.5,149.167 282.5,149.833 282.5,150.5C 279.831,146.831 277.831,142.831 276.5,138.5C 269.568,134.425 266.235,136.425 266.5,144.5C 265.778,145.551 264.778,146.218 263.5,146.5C 260.627,144.373 257.627,144.04 254.5,145.5C 253.596,146.209 253.263,147.209 253.5,148.5C 252.5,148.5 251.5,148.5 250.5,148.5C 248.716,147.28 247.05,147.28 245.5,148.5C 245.167,148.5 244.833,148.5 244.5,148.5C 244.5,148.167 244.5,147.833 244.5,147.5C 246.833,146.833 249.167,146.167 251.5,145.5C 254.8,142.383 258.633,141.716 263,143.5C 264.792,141.014 266.292,138.348 267.5,135.5C 268.449,134.848 269.615,134.514 271,134.5C 273.442,134.482 275.608,135.149 277.5,136.5 Z"/></g>
<g><path style="opacity:1" fill="#9f6713" d="M 150.5,147.5 C 148.938,147.733 147.605,148.4 146.5,149.5C 146.685,147.804 147.519,146.471 149,145.5C 150.62,139.29 148.453,136.956 142.5,138.5C 144.879,135.86 147.379,135.86 150,138.5C 151.663,141.56 151.83,144.56 150.5,147.5 Z"/></g>
<g><path style="opacity:1" fill="#a76709" d="M 237.5,138.5 C 241.728,141.615 241.394,144.282 236.5,146.5C 231.105,146.267 225.772,146.6 220.5,147.5C 220.5,147.167 220.5,146.833 220.5,146.5C 225.3,144.625 230.3,143.459 235.5,143C 237.107,141.951 237.773,140.451 237.5,138.5 Z"/></g>
<g><path style="opacity:1" fill="#16684f" d="M 247.5,143.5 C 248.183,145.176 249.517,145.843 251.5,145.5C 249.167,146.167 246.833,146.833 244.5,147.5C 242.007,147.869 241.34,147.203 242.5,145.5C 244.05,144.559 245.716,143.893 247.5,143.5 Z"/></g>
<g><path style="opacity:0.529" fill="#8e9092" d="M 99.5,144.5 C 101.746,145.455 104.079,146.122 106.5,146.5C 106.5,147.167 106.167,147.5 105.5,147.5C 102.911,147.539 100.911,146.539 99.5,144.5 Z"/></g>
<g><path style="opacity:1" fill="#a06212" d="M 254.5,145.5 C 254.799,147.604 254.466,149.604 253.5,151.5C 252.145,150.812 251.145,149.812 250.5,148.5C 251.5,148.5 252.5,148.5 253.5,148.5C 253.263,147.209 253.596,146.209 254.5,145.5 Z"/></g>
<g><path style="opacity:1" fill="#a26b10" d="M 166.5,141.5 C 167.79,142.058 168.623,143.058 169,144.5C 169.248,147.919 169.748,151.253 170.5,154.5C 168.219,154.923 166.552,154.256 165.5,152.5C 167.793,149.094 168.126,145.427 166.5,141.5 Z"/></g>
<g><path style="opacity:1" fill="#7d3904" d="M 236.5,146.5 C 230.238,147.103 224.238,148.769 218.5,151.5C 218.5,150.5 218.5,149.5 218.5,148.5C 218.842,147.662 219.508,147.328 220.5,147.5C 225.772,146.6 231.105,146.267 236.5,146.5 Z"/></g>
<g><path style="opacity:1" fill="#f2ea57" d="M 134.5,131.5 C 132.651,135.694 129.984,139.361 126.5,142.5C 123.804,144.199 121.804,146.533 120.5,149.5C 122.24,150.809 123.573,150.476 124.5,148.5C 125.791,148.737 126.791,148.404 127.5,147.5C 130.366,145.568 133.366,143.901 136.5,142.5C 138.966,141.702 140.966,140.369 142.5,138.5C 148.453,136.956 150.62,139.29 149,145.5C 147.519,146.471 146.685,147.804 146.5,149.5C 145.5,150.167 144.5,150.833 143.5,151.5C 143.719,150.325 143.386,149.325 142.5,148.5C 140.386,147.966 138.552,146.966 137,145.5C 136.506,147.134 136.34,148.801 136.5,150.5C 133.934,150.656 131.434,150.322 129,149.5C 125.089,151.52 120.922,152.687 116.5,153C 115.809,154.067 115.309,155.234 115,156.5C 114.066,153.864 113.232,151.197 112.5,148.5C 113.187,146.823 113.854,145.156 114.5,143.5C 114.893,141.716 115.559,140.05 116.5,138.5C 118.833,136.167 121.167,133.833 123.5,131.5C 124.625,129.871 125.959,128.371 127.5,127C 131.844,125.524 134.178,127.024 134.5,131.5 Z"/></g>
<g><path style="opacity:1" fill="#b27216" d="M 126.5,142.5 C 125.797,144.716 124.464,146.549 122.5,148C 123.094,148.464 123.761,148.631 124.5,148.5C 123.573,150.476 122.24,150.809 120.5,149.5C 121.804,146.533 123.804,144.199 126.5,142.5 Z"/></g>
<g><path style="opacity:1" fill="#713107" d="M 131.5,140.5 C 130.207,142.296 128.707,143.963 127,145.5C 126.308,146.437 126.475,147.103 127.5,147.5C 126.791,148.404 125.791,148.737 124.5,148.5C 123.761,148.631 123.094,148.464 122.5,148C 124.464,146.549 125.797,144.716 126.5,142.5C 128.167,141.833 129.833,141.167 131.5,140.5 Z"/></g>
<g><path style="opacity:1" fill="#b8933e" d="M 142.5,138.5 C 140.966,140.369 138.966,141.702 136.5,142.5C 136.833,141.833 137.167,141.167 137.5,140.5C 138.167,140.167 138.833,139.833 139.5,139.5C 140.391,138.89 141.391,138.557 142.5,138.5 Z"/></g>
<g><path style="opacity:1" fill="#20333f" d="M 242.5,145.5 C 241.34,147.203 242.007,147.869 244.5,147.5C 244.5,147.833 244.5,148.167 244.5,148.5C 243.143,149.59 242.143,150.924 241.5,152.5C 234.679,151.705 227.679,151.705 220.5,152.5C 227.859,150.166 235.192,147.833 242.5,145.5 Z"/></g>
<g><path style="opacity:1" fill="#f0e044" d="M 276.5,138.5 C 276.834,143.498 278.168,148.164 280.5,152.5C 280.798,155.603 279.465,157.27 276.5,157.5C 275.987,154.14 274.653,151.14 272.5,148.5C 270.62,151.091 268.62,153.591 266.5,156C 265.552,156.483 264.552,156.649 263.5,156.5C 262.791,155.596 261.791,155.263 260.5,155.5C 258.63,158.809 257.63,162.475 257.5,166.5C 254.834,166.067 252.168,165.567 249.5,165C 248.874,164.25 248.374,163.416 248,162.5C 247.667,162.833 247.333,163.167 247,163.5C 246.465,160.031 245.298,157.031 243.5,154.5C 243.971,152.421 244.637,150.421 245.5,148.5C 247.05,147.28 248.716,147.28 250.5,148.5C 251.145,149.812 252.145,150.812 253.5,151.5C 254.466,149.604 254.799,147.604 254.5,145.5C 257.627,144.04 260.627,144.373 263.5,146.5C 263.821,148.048 264.821,148.715 266.5,148.5C 266.5,147.167 266.5,145.833 266.5,144.5C 266.235,136.425 269.568,134.425 276.5,138.5 Z"/></g>
<g><path style="opacity:1" fill="#b17521" d="M 266.5,144.5 C 266.5,145.833 266.5,147.167 266.5,148.5C 264.821,148.715 263.821,148.048 263.5,146.5C 264.778,146.218 265.778,145.551 266.5,144.5 Z"/></g>
<g><path style="opacity:1" fill="#312317" d="M 226.5,134.5 C 228.607,133.532 230.941,133.198 233.5,133.5C 234.609,133.557 235.609,133.89 236.5,134.5C 236.5,135.167 236.833,135.5 237.5,135.5C 239.139,136.473 240.473,137.806 241.5,139.5C 241.325,141.621 241.659,143.621 242.5,145.5C 235.192,147.833 227.859,150.166 220.5,152.5C 227.679,151.705 234.679,151.705 241.5,152.5C 241.5,153.5 241.5,154.5 241.5,155.5C 239.938,155.267 238.605,154.6 237.5,153.5C 234.438,151.879 231.772,152.379 229.5,155C 226.518,155.498 223.518,155.665 220.5,155.5C 218.824,154.817 218.157,153.483 218.5,151.5C 224.238,148.769 230.238,147.103 236.5,146.5C 241.394,144.282 241.728,141.615 237.5,138.5C 236.833,138.167 236.167,137.833 235.5,137.5C 235.047,136.542 234.381,135.708 233.5,135C 231.19,134.503 228.857,134.337 226.5,134.5 Z"/></g>
<g><path style="opacity:1" fill="#cdac42" d="M 162.5,142.5 C 159.105,146.898 155.105,150.564 150.5,153.5C 153.895,149.102 157.895,145.436 162.5,142.5 Z"/></g>
<g><path style="opacity:1" fill="#af7410" d="M 218.5,148.5 C 218.5,149.5 218.5,150.5 218.5,151.5C 218.157,153.483 218.824,154.817 220.5,155.5C 219.359,156.339 218.026,157.006 216.5,157.5C 216.167,156.833 215.833,156.167 215.5,155.5C 215.643,152.594 216.643,150.261 218.5,148.5 Z"/></g>
<g><path style="opacity:1" fill="#f1e53c" d="M 114.5,143.5 C 113.854,145.156 113.187,146.823 112.5,148.5C 113.232,151.197 114.066,153.864 115,156.5C 115.309,155.234 115.809,154.067 116.5,153C 120.922,152.687 125.089,151.52 129,149.5C 131.434,150.322 133.934,150.656 136.5,150.5C 136.34,148.801 136.506,147.134 137,145.5C 138.552,146.966 140.386,147.966 142.5,148.5C 143.386,149.325 143.719,150.325 143.5,151.5C 142.833,152.833 142.167,154.167 141.5,155.5C 140.875,158.835 139.375,161.835 137,164.5C 136.86,162.744 137.36,161.078 138.5,159.5C 138.062,158.494 137.396,158.494 136.5,159.5C 135.571,158.311 135.238,156.978 135.5,155.5C 133.585,155.216 131.919,155.549 130.5,156.5C 130.5,156.833 130.5,157.167 130.5,157.5C 129.833,157.5 129.5,157.833 129.5,158.5C 129.167,158.5 128.833,158.5 128.5,158.5C 116.311,162.993 110.644,158.66 111.5,145.5C 112.5,144.833 113.5,144.167 114.5,143.5 Z"/></g>
<g><path style="opacity:1" fill="#894507" d="M 150.5,147.5 C 149.246,150.093 147.58,152.427 145.5,154.5C 145.624,155.107 145.957,155.44 146.5,155.5C 145.306,156.272 144.306,157.272 143.5,158.5C 141.952,158.179 141.285,157.179 141.5,155.5C 142.167,154.167 142.833,152.833 143.5,151.5C 144.5,150.833 145.5,150.167 146.5,149.5C 147.605,148.4 148.938,147.733 150.5,147.5 Z"/></g>
<g><path style="opacity:1" fill="#986c18" d="M 244.5,148.5 C 244.833,148.5 245.167,148.5 245.5,148.5C 244.637,150.421 243.971,152.421 243.5,154.5C 242.833,154.833 242.167,155.167 241.5,155.5C 241.5,154.5 241.5,153.5 241.5,152.5C 242.143,150.924 243.143,149.59 244.5,148.5 Z"/></g>
<g><path style="opacity:1" fill="#3e5764" d="M 188.5,155.5 C 183.014,154.982 177.681,154.315 172.5,153.5C 176.514,153.666 180.514,153.499 184.5,153C 186.587,152.208 188.421,151.041 190,149.5C 189.405,151.35 188.905,153.35 188.5,155.5 Z"/></g>
<g><path style="opacity:1" fill="#acd0d8" d="M 171.5,145.5 C 178.011,147.724 184.678,148.058 191.5,146.5C 191.104,149.044 191.771,151.211 193.5,153C 195.463,153.844 196.796,153.344 197.5,151.5C 198.249,152.531 198.915,153.698 199.5,155C 195.875,156.747 192.208,156.914 188.5,155.5C 188.905,153.35 189.405,151.35 190,149.5C 188.421,151.041 186.587,152.208 184.5,153C 180.514,153.499 176.514,153.666 172.5,153.5C 171.612,150.946 171.279,148.279 171.5,145.5 Z"/></g>
<g><path style="opacity:1" fill="#a28435" d="M 172.5,155.5 C 178.114,155.073 183.447,155.74 188.5,157.5C 182.991,157.125 177.658,156.458 172.5,155.5 Z"/></g>
<g><path style="opacity:1" fill="#c27810" d="M 246.5,154.5 C 247.833,154.5 249.167,154.5 250.5,154.5C 250.55,156.59 249.55,157.923 247.5,158.5C 246.571,157.311 246.238,155.978 246.5,154.5 Z"/></g>
<g><path style="opacity:1" fill="#a7690a" d="M 276.5,138.5 C 277.831,142.831 279.831,146.831 282.5,150.5C 283.029,154.192 282.029,157.358 279.5,160C 278.5,160.667 277.5,160.667 276.5,160C 274.52,154.82 271.854,154.32 268.5,158.5C 266.738,158.643 265.071,158.309 263.5,157.5C 262.702,157.957 262.369,158.624 262.5,159.5C 261.115,158.053 261.448,157.053 263.5,156.5C 264.552,156.649 265.552,156.483 266.5,156C 268.62,153.591 270.62,151.091 272.5,148.5C 274.653,151.14 275.987,154.14 276.5,157.5C 279.465,157.27 280.798,155.603 280.5,152.5C 278.168,148.164 276.834,143.498 276.5,138.5 Z"/></g>
<g><path style="opacity:1" fill="#9e6106" d="M 111.5,145.5 C 110.644,158.66 116.311,162.993 128.5,158.5C 127.375,160 126.041,161.333 124.5,162.5C 120.618,163.979 116.784,163.645 113,161.5C 112.74,159.382 111.74,157.716 110,156.5C 109.333,153.167 109.333,149.833 110,146.5C 110.383,145.944 110.883,145.611 111.5,145.5 Z"/></g>
<g><path style="opacity:1" fill="#f1e13c" d="M 205.5,143.5 C 205.179,145.048 204.179,145.715 202.5,145.5C 202.281,146.675 202.614,147.675 203.5,148.5C 207.409,150.234 211.242,151.234 215,151.5C 215.122,147.905 216.956,146.239 220.5,146.5C 220.5,146.833 220.5,147.167 220.5,147.5C 219.508,147.328 218.842,147.662 218.5,148.5C 216.643,150.261 215.643,152.594 215.5,155.5C 215.833,156.167 216.167,156.833 216.5,157.5C 218.026,157.006 219.359,156.339 220.5,155.5C 223.518,155.665 226.518,155.498 229.5,155C 231.772,152.379 234.438,151.879 237.5,153.5C 238.933,155.558 239.6,157.892 239.5,160.5C 235.998,157.88 232.498,157.88 229,160.5C 228.586,160.043 228.086,159.709 227.5,159.5C 221.853,161.072 216.353,163.072 211,165.5C 209.902,164.616 209.402,163.616 209.5,162.5C 208.066,163.936 206.9,165.602 206,167.5C 205.517,166.552 205.351,165.552 205.5,164.5C 204.167,164.5 202.833,164.5 201.5,164.5C 201.5,163.5 201.5,162.5 201.5,161.5C 202.048,158.916 203.715,157.916 206.5,158.5C 206.833,156.5 207.167,154.5 207.5,152.5C 206.178,152.67 205.011,152.337 204,151.5C 202.331,149.831 201.498,147.831 201.5,145.5C 202.514,144.326 203.847,143.66 205.5,143.5 Z"/></g>
<g><path style="opacity:1" fill="#b37d11" d="M 237.5,153.5 C 238.605,154.6 239.938,155.267 241.5,155.5C 241.799,157.604 241.466,159.604 240.5,161.5C 239.893,161.376 239.56,161.043 239.5,160.5C 239.6,157.892 238.933,155.558 237.5,153.5 Z"/></g>
<g><path style="opacity:1" fill="#6a2904" d="M 128.5,158.5 C 128.833,158.5 129.167,158.5 129.5,158.5C 130.5,158.5 131.5,158.5 132.5,158.5C 132.5,159.5 132.5,160.5 132.5,161.5C 129.833,161.833 127.167,162.167 124.5,162.5C 126.041,161.333 127.375,160 128.5,158.5 Z"/></g>
<g><path style="opacity:1" fill="#cf9711" d="M 130.5,157.5 C 130.5,157.167 130.5,156.833 130.5,156.5C 131.833,156.5 133.167,156.5 134.5,156.5C 134.942,160.154 135.276,163.821 135.5,167.5C 134.778,167.082 134.278,166.416 134,165.5C 133.503,162.854 133.336,160.187 133.5,157.5C 132.5,157.5 131.5,157.5 130.5,157.5 Z"/></g>
<g><path style="opacity:1" fill="#f0e238" d="M 166.5,141.5 C 168.126,145.427 167.793,149.094 165.5,152.5C 163.952,152.821 163.285,153.821 163.5,155.5C 165.604,155.201 167.604,155.534 169.5,156.5C 169.333,156.833 169.167,157.167 169,157.5C 166.061,158.128 163.228,158.795 160.5,159.5C 160.5,160.5 160.5,161.5 160.5,162.5C 161.833,162.5 163.167,162.5 164.5,162.5C 161.102,164.821 157.268,165.155 153,163.5C 150.468,164.119 148.135,165.119 146,166.5C 144.174,165.99 144.007,165.156 145.5,164C 144.049,164.263 142.716,164.096 141.5,163.5C 142.5,162.833 143.5,162.167 144.5,161.5C 143.873,160.583 143.539,159.583 143.5,158.5C 144.306,157.272 145.306,156.272 146.5,155.5C 147.605,154.4 148.938,153.733 150.5,153.5C 155.105,150.564 159.105,146.898 162.5,142.5C 163.538,140.481 164.872,140.147 166.5,141.5 Z"/></g>
<g><path style="opacity:1" fill="#945607" d="M 201.5,145.5 C 201.498,147.831 202.331,149.831 204,151.5C 205.011,152.337 206.178,152.67 207.5,152.5C 207.167,154.5 206.833,156.5 206.5,158.5C 203.715,157.916 202.048,158.916 201.5,161.5C 200.861,162.097 200.528,162.93 200.5,164C 201.418,166.086 202.085,168.253 202.5,170.5C 201.532,172.607 201.198,174.941 201.5,177.5C 201.167,177.5 200.833,177.5 200.5,177.5C 200.813,174.753 200.48,172.086 199.5,169.5C 196.982,175.928 192.315,179.762 185.5,181C 178.841,181.027 172.174,180.694 165.5,180C 164.584,179.722 163.918,179.222 163.5,178.5C 164.11,177.609 164.443,176.609 164.5,175.5C 168.474,178.729 172.974,179.396 178,177.5C 184.475,179.472 190.142,177.805 195,172.5C 196.289,169.649 196.789,166.649 196.5,163.5C 197.496,163.586 198.329,163.252 199,162.5C 199.293,159.101 201.127,157.101 204.5,156.5C 202.541,155.252 201.041,153.585 200,151.5C 199.059,149.011 199.559,147.011 201.5,145.5 Z"/></g>
<g><path style="opacity:1" fill="#eed61e" d="M 243.5,154.5 C 245.298,157.031 246.465,160.031 247,163.5C 247.333,163.167 247.667,162.833 248,162.5C 248.374,163.416 248.874,164.25 249.5,165C 252.168,165.567 254.834,166.067 257.5,166.5C 257.63,162.475 258.63,158.809 260.5,155.5C 260.927,159.824 261.261,164.158 261.5,168.5C 258.375,169.479 255.042,169.813 251.5,169.5C 251.167,169.5 250.833,169.5 250.5,169.5C 249.791,168.596 248.791,168.263 247.5,168.5C 247.5,169.833 247.5,171.167 247.5,172.5C 244.979,172.44 242.646,173.106 240.5,174.5C 239.261,174.058 238.261,173.391 237.5,172.5C 237.715,170.821 237.048,169.821 235.5,169.5C 233.5,169.167 231.5,168.833 229.5,168.5C 229.492,171.545 229.159,174.545 228.5,177.5C 227.5,177.5 226.5,177.5 225.5,177.5C 225.5,176.833 225.5,176.167 225.5,175.5C 225.833,171.5 226.167,167.5 226.5,163.5C 223.772,163.171 221.438,163.837 219.5,165.5C 217.708,165.366 216.042,165.699 214.5,166.5C 212.665,167.122 211.498,168.456 211,170.5C 210.782,173.426 210.282,176.26 209.5,179C 207.299,179.825 205.466,179.325 204,177.5C 202.798,175.323 202.298,172.989 202.5,170.5C 202.085,168.253 201.418,166.086 200.5,164C 200.528,162.93 200.861,162.097 201.5,161.5C 201.5,162.5 201.5,163.5 201.5,164.5C 202.833,164.5 204.167,164.5 205.5,164.5C 205.351,165.552 205.517,166.552 206,167.5C 206.9,165.602 208.066,163.936 209.5,162.5C 209.402,163.616 209.902,164.616 211,165.5C 216.353,163.072 221.853,161.072 227.5,159.5C 228.086,159.709 228.586,160.043 229,160.5C 232.498,157.88 235.998,157.88 239.5,160.5C 239.56,161.043 239.893,161.376 240.5,161.5C 241.466,159.604 241.799,157.604 241.5,155.5C 242.167,155.167 242.833,154.833 243.5,154.5 Z"/></g>
<g><path style="opacity:1" fill="#ba6807" d="M 253.5,159.5 C 255.176,160.183 255.843,161.517 255.5,163.5C 253.712,163.785 252.045,163.452 250.5,162.5C 251.77,161.712 252.77,160.712 253.5,159.5 Z"/></g>
<g><path style="opacity:1" fill="#da9e1b" d="M 232.5,160.5 C 233.5,160.5 234.5,160.5 235.5,160.5C 235.5,162.167 235.5,163.833 235.5,165.5C 234.167,165.5 232.833,165.5 231.5,165.5C 231.366,163.708 231.699,162.042 232.5,160.5 Z"/></g>
<g><path style="opacity:1" fill="#5f3309" d="M 268.5,158.5 C 267.817,160.176 266.483,160.843 264.5,160.5C 264.81,163.713 264.477,166.713 263.5,169.5C 263.81,166.287 263.477,163.287 262.5,160.5C 262.5,160.167 262.5,159.833 262.5,159.5C 262.369,158.624 262.702,157.957 263.5,157.5C 265.071,158.309 266.738,158.643 268.5,158.5 Z"/></g>
<g><path style="opacity:1" fill="#d9a616" d="M 260.5,155.5 C 261.791,155.263 262.791,155.596 263.5,156.5C 261.448,157.053 261.115,158.053 262.5,159.5C 262.5,159.833 262.5,160.167 262.5,160.5C 262.806,163.385 262.473,166.052 261.5,168.5C 261.261,164.158 260.927,159.824 260.5,155.5 Z"/></g>
<g><path style="opacity:1" fill="#b17007" d="M 262.5,160.5 C 263.477,163.287 263.81,166.287 263.5,169.5C 263.167,170.5 262.5,171.167 261.5,171.5C 257.84,171.841 254.507,171.175 251.5,169.5C 255.042,169.813 258.375,169.479 261.5,168.5C 262.473,166.052 262.806,163.385 262.5,160.5 Z"/></g>
<g><path style="opacity:1" fill="#a35f07" d="M 129.5,158.5 C 129.5,157.833 129.833,157.5 130.5,157.5C 131.5,157.5 132.5,157.5 133.5,157.5C 133.336,160.187 133.503,162.854 134,165.5C 134.278,166.416 134.778,167.082 135.5,167.5C 135.414,168.496 135.748,169.329 136.5,170C 139.221,170.602 141.887,170.435 144.5,169.5C 142.478,171.693 139.811,172.693 136.5,172.5C 132.991,169.761 131.657,166.094 132.5,161.5C 132.5,160.5 132.5,159.5 132.5,158.5C 131.5,158.5 130.5,158.5 129.5,158.5 Z"/></g>
<g><path style="opacity:1" fill="#eed422" d="M 165.5,152.5 C 166.552,154.256 168.219,154.923 170.5,154.5C 171.167,154.833 171.833,155.167 172.5,155.5C 177.658,156.458 182.991,157.125 188.5,157.5C 191.921,158.539 194.588,160.539 196.5,163.5C 196.789,166.649 196.289,169.649 195,172.5C 190.142,177.805 184.475,179.472 178,177.5C 172.974,179.396 168.474,178.729 164.5,175.5C 160.38,175.415 156.047,175.249 151.5,175C 149.513,172.86 148.18,170.36 147.5,167.5C 146.478,167.855 145.811,168.522 145.5,169.5C 145.167,169.5 144.833,169.5 144.5,169.5C 141.887,170.435 139.221,170.602 136.5,170C 135.748,169.329 135.414,168.496 135.5,167.5C 135.276,163.821 134.942,160.154 134.5,156.5C 133.167,156.5 131.833,156.5 130.5,156.5C 131.919,155.549 133.585,155.216 135.5,155.5C 135.238,156.978 135.571,158.311 136.5,159.5C 137.396,158.494 138.062,158.494 138.5,159.5C 137.36,161.078 136.86,162.744 137,164.5C 139.375,161.835 140.875,158.835 141.5,155.5C 141.285,157.179 141.952,158.179 143.5,158.5C 143.539,159.583 143.873,160.583 144.5,161.5C 143.5,162.167 142.5,162.833 141.5,163.5C 142.716,164.096 144.049,164.263 145.5,164C 144.007,165.156 144.174,165.99 146,166.5C 148.135,165.119 150.468,164.119 153,163.5C 157.268,165.155 161.102,164.821 164.5,162.5C 166.879,163.567 167.879,162.567 167.5,159.5C 165.167,159.5 162.833,159.5 160.5,159.5C 163.228,158.795 166.061,158.128 169,157.5C 169.167,157.167 169.333,156.833 169.5,156.5C 167.604,155.534 165.604,155.201 163.5,155.5C 163.285,153.821 163.952,152.821 165.5,152.5 Z"/></g>
<g><path style="opacity:1" fill="#dba021" d="M 179.5,165.5 C 180.5,165.5 181.5,165.5 182.5,165.5C 181.87,167.75 180.87,169.75 179.5,171.5C 178.848,170.275 177.681,169.608 176,169.5C 174.833,169.833 173.667,170.167 172.5,170.5C 174.396,171.466 176.396,171.799 178.5,171.5C 177.551,172.152 176.385,172.486 175,172.5C 171.552,173.061 170.385,171.894 171.5,169C 174.146,168.503 176.813,168.336 179.5,168.5C 179.5,167.5 179.5,166.5 179.5,165.5 Z"/></g>
<g><path style="opacity:1" fill="#b7680c" d="M 156.5,166.5 C 159.5,166.5 162.5,166.5 165.5,166.5C 165.5,167.5 165.5,168.5 165.5,169.5C 162.813,169.664 160.146,169.497 157.5,169C 156.748,168.329 156.414,167.496 156.5,166.5 Z"/></g>
<g><path style="opacity:1" fill="#af6806" d="M 189.5,164.5 C 187.403,165.879 187.07,167.545 188.5,169.5C 187.573,171.476 186.24,171.809 184.5,170.5C 185.946,168.382 186.613,166.049 186.5,163.5C 187.791,163.263 188.791,163.596 189.5,164.5 Z"/></g>
<g><path style="opacity:1" fill="#7e3e04" d="M 189.5,164.5 C 192.305,166.756 191.972,168.423 188.5,169.5C 187.07,167.545 187.403,165.879 189.5,164.5 Z"/></g>
<g><path style="opacity:1" fill="#ac590a" d="M 182.5,165.5 C 181.5,165.5 180.5,165.5 179.5,165.5C 177.958,164.837 176.291,164.17 174.5,163.5C 174.667,163.167 174.833,162.833 175,162.5C 177.381,161.565 179.881,161.232 182.5,161.5C 182.5,162.833 182.5,164.167 182.5,165.5 Z"/></g>
<g><path style="opacity:1" fill="#a44e07" d="M 160.5,159.5 C 162.833,159.5 165.167,159.5 167.5,159.5C 167.879,162.567 166.879,163.567 164.5,162.5C 163.167,162.5 161.833,162.5 160.5,162.5C 160.5,161.5 160.5,160.5 160.5,159.5 Z"/></g>
<g><path style="opacity:1" fill="#915606" d="M 225.5,175.5 C 225.5,176.167 225.5,176.833 225.5,177.5C 226.919,178.451 228.585,178.784 230.5,178.5C 227.762,181.3 225.262,180.966 223,177.5C 222.223,174.571 222.39,171.737 223.5,169C 220.1,168.847 216.767,169.347 213.5,170.5C 213.433,169.041 213.766,167.708 214.5,166.5C 216.042,165.699 217.708,165.366 219.5,165.5C 221.262,165.643 222.929,165.309 224.5,164.5C 224.833,165 225.167,165.5 225.5,166C 224.255,169.314 224.255,172.481 225.5,175.5 Z"/></g>
<g><path style="opacity:1" fill="#dca614" d="M 225.5,175.5 C 224.255,172.481 224.255,169.314 225.5,166C 225.167,165.5 224.833,165 224.5,164.5C 222.929,165.309 221.262,165.643 219.5,165.5C 221.438,163.837 223.772,163.171 226.5,163.5C 226.167,167.5 225.833,171.5 225.5,175.5 Z"/></g>
<g><path style="opacity:1" fill="#ac6f08" d="M 214.5,166.5 C 213.766,167.708 213.433,169.041 213.5,170.5C 212.955,173.813 212.455,177.146 212,180.5C 207.249,183.793 203.749,182.793 201.5,177.5C 201.198,174.941 201.532,172.607 202.5,170.5C 202.298,172.989 202.798,175.323 204,177.5C 205.466,179.325 207.299,179.825 209.5,179C 210.282,176.26 210.782,173.426 211,170.5C 211.498,168.456 212.665,167.122 214.5,166.5 Z"/></g>
<g><path style="opacity:1" fill="#ad6a03" d="M 164.5,175.5 C 160.257,176.681 155.924,177.348 151.5,177.5C 149.124,176.794 147.79,175.127 147.5,172.5C 147.715,170.821 147.048,169.821 145.5,169.5C 145.811,168.522 146.478,167.855 147.5,167.5C 148.18,170.36 149.513,172.86 151.5,175C 156.047,175.249 160.38,175.415 164.5,175.5 Z"/></g>
<g><path style="opacity:1" fill="#1d3f2d" d="M 200.5,177.5 C 200.833,178.833 201.167,180.167 201.5,181.5C 200.833,185.833 200.167,190.167 199.5,194.5C 199.5,190.833 199.5,187.167 199.5,183.5C 199.5,181.833 199.5,180.167 199.5,178.5C 197.167,179.167 194.833,179.833 192.5,180.5C 194.771,178.734 196.937,176.734 199,174.5C 199.232,175.737 199.732,176.737 200.5,177.5 Z"/></g>
<g><path style="opacity:1" fill="#0e3b2b" d="M 251.5,175.5 C 251.586,176.496 251.252,177.329 250.5,178C 246.822,179.103 243.155,180.27 239.5,181.5C 237.827,179.914 235.827,179.247 233.5,179.5C 233.47,178.503 233.97,177.836 235,177.5C 240.91,179.314 246.41,178.648 251.5,175.5 Z"/></g>
<g><path style="opacity:1" fill="#e3e4e3" d="M 130.5,173.5 C 132.38,173.229 133.713,173.896 134.5,175.5C 131.906,179.272 129.073,182.939 126,186.5C 125.506,188.134 125.34,189.801 125.5,191.5C 127.415,191.784 129.081,191.451 130.5,190.5C 133.578,189.798 136.578,188.798 139.5,187.5C 142.152,189.054 144.485,188.721 146.5,186.5C 150.945,186.28 155.278,185.446 159.5,184C 160.373,182.955 161.373,182.122 162.5,181.5C 164.104,182.287 164.771,183.62 164.5,185.5C 161.57,187.738 158.237,189.071 154.5,189.5C 152.048,190.065 149.715,190.732 147.5,191.5C 144.482,191.335 141.482,191.502 138.5,192C 137.944,192.383 137.611,192.883 137.5,193.5C 134.983,194.973 132.15,195.64 129,195.5C 126.967,195.494 125.134,195.161 123.5,194.5C 123.068,193.29 122.401,192.29 121.5,191.5C 121.674,189.139 122.007,186.806 122.5,184.5C 125.167,180.833 127.833,177.167 130.5,173.5 Z"/></g>
<g><path style="opacity:1" fill="#164925" d="M 134.5,175.5 C 138.5,175.5 142.5,175.5 146.5,175.5C 146.36,177.124 147.027,178.29 148.5,179C 153.272,179.983 157.938,180.817 162.5,181.5C 161.373,182.122 160.373,182.955 159.5,184C 155.278,185.446 150.945,186.28 146.5,186.5C 147.179,184.186 148.512,183.853 150.5,185.5C 153.439,184.793 153.939,183.46 152,181.5C 149.856,182.844 148.023,182.51 146.5,180.5C 142.327,180.613 137.993,180.446 133.5,180C 130.906,182.086 128.906,184.586 127.5,187.5C 126.596,188.209 126.263,189.209 126.5,190.5C 127.833,190.5 129.167,190.5 130.5,190.5C 129.081,191.451 127.415,191.784 125.5,191.5C 125.34,189.801 125.506,188.134 126,186.5C 129.073,182.939 131.906,179.272 134.5,175.5 Z"/></g>
<g><path style="opacity:1" fill="#1d4e25" d="M 199.5,183.5 C 198.788,182.261 197.788,181.761 196.5,182C 192.648,185.308 191.648,189.308 193.5,194C 195.473,194.495 197.473,194.662 199.5,194.5C 196.77,195.817 193.937,195.817 191,194.5C 190.585,190.152 190.751,185.819 191.5,181.5C 192.167,181.5 192.5,181.167 192.5,180.5C 194.833,179.833 197.167,179.167 199.5,178.5C 199.5,180.167 199.5,181.833 199.5,183.5 Z"/></g>
<g><path style="opacity:1" fill="#1a4e22" d="M 257.5,175.5 C 260.094,179.272 262.927,182.939 266,186.5C 266.494,188.134 266.66,189.801 266.5,191.5C 261.314,191.494 256.48,190.161 252,187.5C 251,187.833 250,188.167 249,188.5C 245.67,187.023 242.17,186.189 238.5,186C 235.916,185.14 233.583,183.973 231.5,182.5C 231.782,181.222 232.449,180.222 233.5,179.5C 235.827,179.247 237.827,179.914 239.5,181.5C 243.155,180.27 246.822,179.103 250.5,178C 251.252,177.329 251.586,176.496 251.5,175.5C 253.5,174.167 255.5,174.167 257.5,175.5 Z"/></g>
<g><path style="opacity:1" fill="#e1e2e1" d="M 257.5,175.5 C 259.117,176.038 260.784,176.371 262.5,176.5C 269.845,180.527 272.179,186.527 269.5,194.5C 264.256,196.021 259.256,195.687 254.5,193.5C 254.389,192.883 254.056,192.383 253.5,192C 250.518,191.502 247.518,191.335 244.5,191.5C 241.997,190.629 239.33,189.963 236.5,189.5C 233.318,189.052 230.651,187.718 228.5,185.5C 228.5,184.5 228.5,183.5 228.5,182.5C 229.5,182.5 230.5,182.5 231.5,182.5C 233.583,183.973 235.916,185.14 238.5,186C 242.17,186.189 245.67,187.023 249,188.5C 250,188.167 251,187.833 252,187.5C 256.48,190.161 261.314,191.494 266.5,191.5C 266.66,189.801 266.494,188.134 266,186.5C 262.927,182.939 260.094,179.272 257.5,175.5 Z"/></g>
<g><path style="opacity:1" fill="#069a4a" d="M 146.5,180.5 C 146.301,184.713 144.301,186.046 140.5,184.5C 136.264,186.942 131.93,187.942 127.5,187.5C 128.906,184.586 130.906,182.086 133.5,180C 137.993,180.446 142.327,180.613 146.5,180.5 Z"/></g>
<g><path style="opacity:0.984" fill="#dddfdd" d="M 191.5,181.5 C 190.751,185.819 190.585,190.152 191,194.5C 193.937,195.817 196.77,195.817 199.5,194.5C 200.167,190.167 200.833,185.833 201.5,181.5C 204.169,186.372 205.169,191.705 204.5,197.5C 198.5,197.5 192.5,197.5 186.5,197.5C 185.583,194.995 185.583,192.662 186.5,190.5C 187.309,188.708 187.809,186.708 188,184.5C 188.759,182.937 189.926,181.937 191.5,181.5 Z"/></g>
<g><path style="opacity:0.098" fill="#1e2125" d="M 112.5,142.5 C 111.89,143.391 111.557,144.391 111.5,145.5C 110.883,145.611 110.383,145.944 110,146.5C 109.333,149.833 109.333,153.167 110,156.5C 111.74,157.716 112.74,159.382 113,161.5C 116.784,163.645 120.618,163.979 124.5,162.5C 127.167,162.167 129.833,161.833 132.5,161.5C 131.657,166.094 132.991,169.761 136.5,172.5C 140.006,173.498 143.672,173.498 147.5,172.5C 147.79,175.127 149.124,176.794 151.5,177.5C 155.298,178.483 159.298,178.817 163.5,178.5C 163.918,179.222 164.584,179.722 165.5,180C 172.174,180.694 178.841,181.027 185.5,181C 192.315,179.762 196.982,175.928 199.5,169.5C 200.48,172.086 200.813,174.753 200.5,177.5C 199.732,176.737 199.232,175.737 199,174.5C 196.937,176.734 194.771,178.734 192.5,180.5C 192.5,181.167 192.167,181.5 191.5,181.5C 189.926,181.937 188.759,182.937 188,184.5C 187.809,186.708 187.309,188.708 186.5,190.5C 186.66,188.801 186.494,187.134 186,185.5C 178.921,185.949 171.754,185.949 164.5,185.5C 164.771,183.62 164.104,182.287 162.5,181.5C 157.938,180.817 153.272,179.983 148.5,179C 147.027,178.29 146.36,177.124 146.5,175.5C 142.5,175.5 138.5,175.5 134.5,175.5C 133.713,173.896 132.38,173.229 130.5,173.5C 128.926,171.898 128.259,169.898 128.5,167.5C 111.856,170.761 104.189,164.095 105.5,147.5C 106.167,147.5 106.5,147.167 106.5,146.5C 107.492,146.672 108.158,146.338 108.5,145.5C 109.404,144.791 109.737,143.791 109.5,142.5C 110.5,142.5 111.5,142.5 112.5,142.5 Z"/></g>
<g><path style="opacity:1" fill="#703103" d="M 164.5,175.5 C 164.443,176.609 164.11,177.609 163.5,178.5C 159.298,178.817 155.298,178.483 151.5,177.5C 155.924,177.348 160.257,176.681 164.5,175.5 Z"/></g>
<g><path style="opacity:1" fill="#692e08" d="M 144.5,169.5 C 144.833,169.5 145.167,169.5 145.5,169.5C 147.048,169.821 147.715,170.821 147.5,172.5C 143.672,173.498 140.006,173.498 136.5,172.5C 139.811,172.693 142.478,171.693 144.5,169.5 Z"/></g>
<g><path style="opacity:1" fill="#a44c01" d="M 179.5,171.5 C 179.167,171.5 178.833,171.5 178.5,171.5C 176.396,171.799 174.396,171.466 172.5,170.5C 173.667,170.167 174.833,169.833 176,169.5C 177.681,169.608 178.848,170.275 179.5,171.5 Z"/></g>
<g><path style="opacity:1" fill="#202427" d="M 282.5,148.5 C 283.833,148.5 285.167,148.5 286.5,148.5C 288.486,162.354 282.819,167.52 269.5,164C 268.718,166.74 268.218,169.574 268,172.5C 266.188,173.977 264.355,175.31 262.5,176.5C 260.784,176.371 259.117,176.038 257.5,175.5C 255.5,174.167 253.5,174.167 251.5,175.5C 246.41,178.648 240.91,179.314 235,177.5C 233.97,177.836 233.47,178.503 233.5,179.5C 232.449,180.222 231.782,181.222 231.5,182.5C 230.5,182.5 229.5,182.5 228.5,182.5C 228.5,183.5 228.5,184.5 228.5,185.5C 223.887,185.531 220.553,183.531 218.5,179.5C 221.225,177.049 220.725,175.049 217,173.5C 216.5,173.833 216,174.167 215.5,174.5C 216.174,176.195 216.841,177.862 217.5,179.5C 216.041,185.801 212.207,188.134 206,186.5C 205.501,190.152 205.335,193.818 205.5,197.5C 205.167,197.5 204.833,197.5 204.5,197.5C 205.169,191.705 204.169,186.372 201.5,181.5C 201.167,180.167 200.833,178.833 200.5,177.5C 200.833,177.5 201.167,177.5 201.5,177.5C 203.749,182.793 207.249,183.793 212,180.5C 212.455,177.146 212.955,173.813 213.5,170.5C 216.767,169.347 220.1,168.847 223.5,169C 222.39,171.737 222.223,174.571 223,177.5C 225.262,180.966 227.762,181.3 230.5,178.5C 232.256,177.448 232.923,175.781 232.5,173.5C 234.824,173.662 236.491,174.828 237.5,177C 239.387,177.78 241.054,177.613 242.5,176.5C 243.167,176.5 243.5,176.167 243.5,175.5C 245.5,175.5 247.5,175.5 249.5,175.5C 249.5,174.5 249.5,173.5 249.5,172.5C 253.702,172.817 257.702,172.483 261.5,171.5C 262.5,171.167 263.167,170.5 263.5,169.5C 264.477,166.713 264.81,163.713 264.5,160.5C 266.483,160.843 267.817,160.176 268.5,158.5C 271.854,154.32 274.52,154.82 276.5,160C 277.5,160.667 278.5,160.667 279.5,160C 282.029,157.358 283.029,154.192 282.5,150.5C 282.5,149.833 282.5,149.167 282.5,148.5 Z"/></g>
<g><path style="opacity:1" fill="#bf7c07" d="M 250.5,169.5 C 248.824,170.183 248.157,171.517 248.5,173.5C 246.219,173.077 244.552,173.744 243.5,175.5C 243.5,176.167 243.167,176.5 242.5,176.5C 239.05,177.244 237.384,175.91 237.5,172.5C 238.261,173.391 239.261,174.058 240.5,174.5C 242.646,173.106 244.979,172.44 247.5,172.5C 247.5,171.167 247.5,169.833 247.5,168.5C 248.791,168.263 249.791,168.596 250.5,169.5 Z"/></g>
<g><path style="opacity:1" fill="#e2e5e5" d="M 218.5,179.5 C 218.167,179.5 217.833,179.5 217.5,179.5C 216.841,177.862 216.174,176.195 215.5,174.5C 216,174.167 216.5,173.833 217,173.5C 220.725,175.049 221.225,177.049 218.5,179.5 Z"/></g>
<g><path style="opacity:1" fill="#8d4f07" d="M 235.5,169.5 C 237.048,169.821 237.715,170.821 237.5,172.5C 237.384,175.91 239.05,177.244 242.5,176.5C 241.054,177.613 239.387,177.78 237.5,177C 236.491,174.828 234.824,173.662 232.5,173.5C 232.923,175.781 232.256,177.448 230.5,178.5C 230.5,175.833 230.5,173.167 230.5,170.5C 232.415,170.784 234.081,170.451 235.5,169.5 Z"/></g>
<g><path style="opacity:1" fill="#804306" d="M 250.5,169.5 C 250.833,169.5 251.167,169.5 251.5,169.5C 254.507,171.175 257.84,171.841 261.5,171.5C 257.702,172.483 253.702,172.817 249.5,172.5C 249.5,173.5 249.5,174.5 249.5,175.5C 247.5,175.5 245.5,175.5 243.5,175.5C 244.552,173.744 246.219,173.077 248.5,173.5C 248.157,171.517 248.824,170.183 250.5,169.5 Z"/></g>
<g><path style="opacity:1" fill="#e0a90f" d="M 235.5,169.5 C 234.081,170.451 232.415,170.784 230.5,170.5C 230.5,173.167 230.5,175.833 230.5,178.5C 228.585,178.784 226.919,178.451 225.5,177.5C 226.5,177.5 227.5,177.5 228.5,177.5C 229.159,174.545 229.492,171.545 229.5,168.5C 231.5,168.833 233.5,169.167 235.5,169.5 Z"/></g>
<g><path style="opacity:1" fill="#079e4c" d="M 250.5,179.5 C 258.084,178.479 262.417,181.479 263.5,188.5C 259.308,187.269 255.141,185.936 251,184.5C 248.078,187.128 246.245,186.461 245.5,182.5C 247.989,182.759 249.656,181.759 250.5,179.5 Z"/></g>
<g><path style="opacity:0.298" fill="#505050" d="M 122.5,184.5 C 122.007,186.806 121.674,189.139 121.5,191.5C 120.133,188.988 120.466,186.655 122.5,184.5 Z"/></g>
<g><path style="opacity:1" fill="#124b12" d="M 146.5,180.5 C 148.023,182.51 149.856,182.844 152,181.5C 153.939,183.46 153.439,184.793 150.5,185.5C 148.512,183.853 147.179,184.186 146.5,186.5C 144.485,188.721 142.152,189.054 139.5,187.5C 136.578,188.798 133.578,189.798 130.5,190.5C 129.167,190.5 127.833,190.5 126.5,190.5C 126.263,189.209 126.596,188.209 127.5,187.5C 131.93,187.942 136.264,186.942 140.5,184.5C 144.301,186.046 146.301,184.713 146.5,180.5 Z"/></g>
<g><path style="opacity:0.529" fill="#7d7e7d" d="M 154.5,189.5 C 152.721,191.344 150.388,192.01 147.5,191.5C 149.715,190.732 152.048,190.065 154.5,189.5 Z"/></g>
<g><path style="opacity:1" fill="#079643" d="M 199.5,183.5 C 199.5,187.167 199.5,190.833 199.5,194.5C 197.473,194.662 195.473,194.495 193.5,194C 191.648,189.308 192.648,185.308 196.5,182C 197.788,181.761 198.788,182.261 199.5,183.5 Z"/></g>
<g><path style="opacity:0.542" fill="#808180" d="M 236.5,189.5 C 239.33,189.963 241.997,190.629 244.5,191.5C 242.143,191.663 239.81,191.497 237.5,191C 236.944,190.617 236.611,190.117 236.5,189.5 Z"/></g>
<g><path style="opacity:0.384" fill="#5a5959" d="M 147.5,191.5 C 144.316,192.323 140.983,192.99 137.5,193.5C 137.611,192.883 137.944,192.383 138.5,192C 141.482,191.502 144.482,191.335 147.5,191.5 Z"/></g>
<g><path style="opacity:0.392" fill="#5e5e5d" d="M 244.5,191.5 C 247.518,191.335 250.518,191.502 253.5,192C 254.056,192.383 254.389,192.883 254.5,193.5C 251.017,192.99 247.684,192.323 244.5,191.5 Z"/></g>
<g><path style="opacity:0.42" fill="#646464" d="M 121.5,191.5 C 122.401,192.29 123.068,193.29 123.5,194.5C 121.952,194.179 121.285,193.179 121.5,191.5 Z"/></g>
</svg>
