<?xml version="1.0" encoding="UTF-8"?>
<!DOCTYPE svg PUBLIC "-//W3C//DTD SVG 1.1//EN" "http://www.w3.org/Graphics/SVG/1.1/DTD/svg11.dtd">
<svg xmlns="http://www.w3.org/2000/svg" version="1.1" width="400px" height="198px" style="shape-rendering:geometricPrecision; text-rendering:geometricPrecision; image-rendering:optimizeQuality; fill-rule:evenodd; clip-rule:evenodd" xmlns:xlink="http://www.w3.org/1999/xlink">
<g><path style="opacity:0.729" fill="#383119" d="M 179.5,-0.5 C 182.5,-0.5 185.5,-0.5 188.5,-0.5C 188.5,-0.166667 188.5,0.166667 188.5,0.5C 186.194,0.992551 183.861,1.32588 181.5,1.5C 180.167,1.5 178.833,1.5 177.5,1.5C 178.167,0.833333 178.833,0.166667 179.5,-0.5 Z"/></g>
<g><path style="opacity:0.384" fill="#453e17" d="M 188.5,0.5 C 188.5,0.166667 188.5,-0.166667 188.5,-0.5C 198.833,-0.5 209.167,-0.5 219.5,-0.5C 220.167,0.166667 220.833,0.833333 221.5,1.5C 220.5,1.5 219.5,1.5 218.5,1.5C 208.521,0.703866 198.521,0.370533 188.5,0.5 Z"/></g>
<g><path style="opacity:0.992" fill="#8e7430" d="M 177.5,1.5 C 178.833,1.5 180.167,1.5 181.5,1.5C 179.485,2.92381 177.152,3.59047 174.5,3.5C 175.5,2.83333 176.5,2.16667 177.5,1.5 Z"/></g>
<g><path style="opacity:0.784" fill="#705d22" d="M 218.5,1.5 C 219.5,1.5 220.5,1.5 221.5,1.5C 221.833,1.5 222.167,1.5 222.5,1.5C 223.167,2.16667 223.833,2.83333 224.5,3.5C 222.102,3.74061 220.102,3.07394 218.5,1.5 Z"/></g>
<g><path style="opacity:0.471" fill="#282c11" d="M 222.5,1.5 C 225.067,1.72148 227.401,2.38815 229.5,3.5C 228.167,3.5 226.833,3.5 225.5,3.5C 225.167,3.5 224.833,3.5 224.5,3.5C 223.833,2.83333 223.167,2.16667 222.5,1.5 Z"/></g>
<g><path style="opacity:0.565" fill="#5e5318" d="M 225.5,3.5 C 226.833,3.5 228.167,3.5 229.5,3.5C 229.833,3.5 230.167,3.5 230.5,3.5C 230.5,4.16667 230.5,4.83333 230.5,5.5C 228.597,5.20414 226.93,4.53747 225.5,3.5 Z"/></g>
<g><path style="opacity:0.365" fill="#292715" d="M 177.5,1.5 C 176.5,2.16667 175.5,2.83333 174.5,3.5C 163.919,5.88841 154.252,10.2217 145.5,16.5C 144.833,16.5 144.167,16.5 143.5,16.5C 143.5,16.1667 143.5,15.8333 143.5,15.5C 153.539,7.92518 164.872,3.25852 177.5,1.5 Z"/></g>
<g><path style="opacity:0.573" fill="#323113" d="M 230.5,3.5 C 239.15,5.32669 246.817,8.99335 253.5,14.5C 253.833,15.1667 254.167,15.8333 254.5,16.5C 248.389,13.5586 242.389,10.3919 236.5,7C 234.564,6.18701 232.564,5.68701 230.5,5.5C 230.5,4.83333 230.5,4.16667 230.5,3.5 Z"/></g>
<g><path style="opacity:1" fill="#1e2a2c" d="M 209.5,4.5 C 211.167,4.5 212.833,4.5 214.5,4.5C 216.515,5.92381 218.848,6.59047 221.5,6.5C 235.337,9.5862 247.671,15.5862 258.5,24.5C 259.802,26.6899 261.469,28.6899 263.5,30.5C 262.3,31.2916 260.967,31.2916 259.5,30.5C 258.415,28.4131 256.749,27.0798 254.5,26.5C 251.825,24.8302 249.159,23.1635 246.5,21.5C 244.168,18.7276 241.168,17.0609 237.5,16.5C 237.167,16.5 236.833,16.5 236.5,16.5C 236.027,15.0937 235.027,14.427 233.5,14.5C 231.035,14.233 228.701,13.5664 226.5,12.5C 222.902,10.3082 218.902,9.30823 214.5,9.5C 214.167,8.83333 213.833,8.16667 213.5,7.5C 212.552,6.02211 211.219,5.02211 209.5,4.5 Z"/></g>
<g><path style="opacity:1" fill="#c79d3d" d="M 188.5,0.5 C 198.521,0.370533 208.521,0.703866 218.5,1.5C 220.102,3.07394 222.102,3.74061 224.5,3.5C 224.833,3.5 225.167,3.5 225.5,3.5C 226.93,4.53747 228.597,5.20414 230.5,5.5C 232.564,5.68701 234.564,6.18701 236.5,7C 242.389,10.3919 248.389,13.5586 254.5,16.5C 272.676,29.3378 286.01,46.0044 294.5,66.5C 295.167,70.5 295.833,74.5 296.5,78.5C 298.302,88.7205 298.968,99.0539 298.5,109.5C 298.167,109.5 297.833,109.5 297.5,109.5C 297.666,103.824 297.499,98.1569 297,92.5C 296.825,97.0195 296.325,101.353 295.5,105.5C 295.666,98.825 295.5,92.1583 295,85.5C 294.802,83.6183 294.302,81.9516 293.5,80.5C 293.59,77.8478 292.924,75.5145 291.5,73.5C 291.737,72.209 291.404,71.209 290.5,70.5C 289.566,64.6563 287.566,59.3229 284.5,54.5C 284.573,52.9731 283.906,51.9731 282.5,51.5C 281.66,49.1475 280.326,47.1475 278.5,45.5C 278.262,43.5956 277.262,42.2623 275.5,41.5C 274.92,39.2512 273.587,37.5846 271.5,36.5C 270.5,35.1667 269.5,33.8333 268.5,32.5C 265.48,29.4838 262.146,26.8171 258.5,24.5C 247.671,15.5862 235.337,9.5862 221.5,6.5C 219.485,5.07619 217.152,4.40953 214.5,4.5C 212.833,4.5 211.167,4.5 209.5,4.5C 205.681,3.83443 201.681,3.5011 197.5,3.5C 191.26,3.33319 185.26,3.99986 179.5,5.5C 171.337,6.99768 163.67,9.66435 156.5,13.5C 154.326,13.7497 152.659,14.7497 151.5,16.5C 149.973,16.427 148.973,17.0937 148.5,18.5C 147.833,18.5 147.167,18.5 146.5,18.5C 144.302,18.5912 143.969,17.9245 145.5,16.5C 154.252,10.2217 163.919,5.88841 174.5,3.5C 177.152,3.59047 179.485,2.92381 181.5,1.5C 183.861,1.32588 186.194,0.992551 188.5,0.5 Z"/></g>
<g><path style="opacity:1" fill="#54471c" d="M 212.5,9.5 C 213.167,9.5 213.833,9.5 214.5,9.5C 218.902,9.30823 222.902,10.3082 226.5,12.5C 221.717,11.4915 217.05,10.4915 212.5,9.5 Z"/></g>
<g><path style="opacity:1" fill="#6d5c25" d="M 182.5,9.5 C 183.833,9.5 185.167,9.5 186.5,9.5C 184.167,10.1667 181.833,10.8333 179.5,11.5C 179.167,11.5 178.833,11.5 178.5,11.5C 177.167,11.8333 175.833,12.1667 174.5,12.5C 176.617,10.3455 179.284,9.3455 182.5,9.5 Z"/></g>
<g><path style="opacity:1" fill="#2b2b13" d="M 213.5,7.5 C 213.833,8.16667 214.167,8.83333 214.5,9.5C 213.833,9.5 213.167,9.5 212.5,9.5C 203.932,8.18547 195.265,8.18547 186.5,9.5C 185.167,9.5 183.833,9.5 182.5,9.5C 182.918,8.77842 183.584,8.27842 184.5,8C 194.161,7.5002 203.828,7.33353 213.5,7.5 Z"/></g>
<g><path style="opacity:1" fill="#1a282f" d="M 209.5,4.5 C 211.219,5.02211 212.552,6.02211 213.5,7.5C 203.828,7.33353 194.161,7.5002 184.5,8C 183.584,8.27842 182.918,8.77842 182.5,9.5C 179.284,9.3455 176.617,10.3455 174.5,12.5C 171.579,12.2826 168.913,12.9493 166.5,14.5C 163.903,14.4668 162.903,13.4668 163.5,11.5C 169.01,9.6676 174.343,7.6676 179.5,5.5C 189.482,4.74332 199.482,4.40998 209.5,4.5 Z"/></g>
<g><path style="opacity:1" fill="#504417" d="M 214.5,4.5 C 217.152,4.40953 219.485,5.07619 221.5,6.5C 218.848,6.59047 216.515,5.92381 214.5,4.5 Z"/></g>
<g><path style="opacity:1" fill="#483b14" d="M 209.5,4.5 C 199.482,4.40998 189.482,4.74332 179.5,5.5C 185.26,3.99986 191.26,3.33319 197.5,3.5C 201.681,3.5011 205.681,3.83443 209.5,4.5 Z"/></g>
<g><path style="opacity:1" fill="#eca417" d="M 201.5,18.5 C 189.495,18.6665 177.495,18.4999 165.5,18C 164.402,17.2303 164.402,16.397 165.5,15.5C 165.833,15.5 166.167,15.5 166.5,15.5C 169.983,14.2477 173.649,13.4144 177.5,13C 178.056,12.6174 178.389,12.1174 178.5,11.5C 178.833,11.5 179.167,11.5 179.5,11.5C 192.522,10.1235 205.522,10.2901 218.5,12C 214.949,12.9497 211.616,14.4497 208.5,16.5C 204.794,13.3371 202.461,14.0038 201.5,18.5 Z"/></g>
<g><path style="opacity:1" fill="#3a351f" d="M 179.5,5.5 C 174.343,7.6676 169.01,9.6676 163.5,11.5C 162.903,13.4668 163.903,14.4668 166.5,14.5C 166.5,14.8333 166.5,15.1667 166.5,15.5C 166.167,15.5 165.833,15.5 165.5,15.5C 162.977,16.8008 160.31,17.8008 157.5,18.5C 158.183,16.8235 159.517,16.1568 161.5,16.5C 161.5,15.5 161.5,14.5 161.5,13.5C 159.833,13.5 158.167,13.5 156.5,13.5C 163.67,9.66435 171.337,6.99768 179.5,5.5 Z"/></g>
<g><path style="opacity:1" fill="#dfa222" d="M 212.5,9.5 C 217.05,10.4915 221.717,11.4915 226.5,12.5C 228.701,13.5664 231.035,14.233 233.5,14.5C 233.973,15.9063 234.973,16.573 236.5,16.5C 236.833,16.5 237.167,16.5 237.5,16.5C 240.144,18.7226 243.144,20.3893 246.5,21.5C 249.159,23.1635 251.825,24.8302 254.5,26.5C 254.833,27.1667 255.167,27.8333 255.5,28.5C 254.833,28.5 254.167,28.5 253.5,28.5C 252.432,27.5655 251.099,27.2322 249.5,27.5C 249.5,26.5 249.5,25.5 249.5,24.5C 246.86,22.9922 244.527,23.3256 242.5,25.5C 239.531,24.332 239.198,22.9987 241.5,21.5C 238.933,20.1465 236.599,20.4798 234.5,22.5C 231.348,21.2103 228.181,21.2103 225,22.5C 222.311,19.8152 218.978,18.4818 215,18.5C 213.128,19.0352 211.462,19.0352 210,18.5C 208.67,19.5822 207.17,20.2488 205.5,20.5C 205.611,19.8826 205.944,19.3826 206.5,19C 204.866,18.5065 203.199,18.3398 201.5,18.5C 202.461,14.0038 204.794,13.3371 208.5,16.5C 211.616,14.4497 214.949,12.9497 218.5,12C 205.522,10.2901 192.522,10.1235 179.5,11.5C 181.833,10.8333 184.167,10.1667 186.5,9.5C 195.265,8.18547 203.932,8.18547 212.5,9.5 Z"/></g>
<g><path style="opacity:1" fill="#c69936" d="M 178.5,11.5 C 178.389,12.1174 178.056,12.6174 177.5,13C 173.649,13.4144 169.983,14.2477 166.5,15.5C 166.5,15.1667 166.5,14.8333 166.5,14.5C 168.913,12.9493 171.579,12.2826 174.5,12.5C 175.833,12.1667 177.167,11.8333 178.5,11.5 Z"/></g>
<g><path style="opacity:1" fill="#48421b" d="M 156.5,13.5 C 155.514,15.4077 153.848,16.4077 151.5,16.5C 152.659,14.7497 154.326,13.7497 156.5,13.5 Z"/></g>
<g><path style="opacity:1" fill="#5d4d1d" d="M 233.5,14.5 C 235.027,14.427 236.027,15.0937 236.5,16.5C 234.973,16.573 233.973,15.9063 233.5,14.5 Z"/></g>
<g><path style="opacity:1" fill="#41391c" d="M 237.5,16.5 C 241.168,17.0609 244.168,18.7276 246.5,21.5C 243.144,20.3893 240.144,18.7226 237.5,16.5 Z"/></g>
<g><path style="opacity:1" fill="#d18608" d="M 165.5,15.5 C 164.402,16.397 164.402,17.2303 165.5,18C 177.495,18.4999 189.495,18.6665 201.5,18.5C 203.199,18.3398 204.866,18.5065 206.5,19C 205.944,19.3826 205.611,19.8826 205.5,20.5C 188.5,20.5 171.5,20.5 154.5,20.5C 155.29,19.5987 156.29,18.9321 157.5,18.5C 160.31,17.8008 162.977,16.8008 165.5,15.5 Z"/></g>
<g><path style="opacity:1" fill="#212a30" d="M 156.5,13.5 C 158.167,13.5 159.833,13.5 161.5,13.5C 161.5,14.5 161.5,15.5 161.5,16.5C 159.517,16.1568 158.183,16.8235 157.5,18.5C 156.29,18.9321 155.29,19.5987 154.5,20.5C 152.142,21.8739 149.808,23.2072 147.5,24.5C 146.022,24.762 144.689,24.4287 143.5,23.5C 145.394,22.0546 147.06,20.3879 148.5,18.5C 148.973,17.0937 149.973,16.427 151.5,16.5C 153.848,16.4077 155.514,15.4077 156.5,13.5 Z"/></g>
<g><path style="opacity:0.427" fill="#1e1f17" d="M 143.5,15.5 C 143.5,15.8333 143.5,16.1667 143.5,16.5C 120.491,33.1776 106.491,55.511 101.5,83.5C 100.834,87.6533 100.501,91.9866 100.5,96.5C 100.398,104.052 101.065,111.385 102.5,118.5C 102.963,121.482 103.296,124.482 103.5,127.5C 102.339,124.898 101.172,122.231 100,119.5C 95.0442,88.6596 101.711,60.6596 120,35.5C 123.779,31.7208 127.613,27.8874 131.5,24C 135.383,20.9017 139.383,18.0684 143.5,15.5 Z"/></g>
<g><path style="opacity:1" fill="#ac8633" d="M 154.5,20.5 C 153.004,23.3276 150.671,24.9943 147.5,25.5C 147.5,25.1667 147.5,24.8333 147.5,24.5C 149.808,23.2072 152.142,21.8739 154.5,20.5 Z"/></g>
<g><path style="opacity:1" fill="#eaa716" d="M 253.5,28.5 C 244.833,28.5 236.167,28.5 227.5,28.5C 229.969,27.6829 232.635,27.1829 235.5,27C 229.892,26.4318 224.559,24.9318 219.5,22.5C 211.288,21.7014 203.121,21.368 195,21.5C 185.478,23.9596 175.978,26.4596 166.5,29C 164.106,32.4098 160.939,34.5765 157,35.5C 156.211,37.7116 156.378,39.7116 157.5,41.5C 157.5,42.1667 157.5,42.8333 157.5,43.5C 148.827,43.6664 140.16,43.4998 131.5,43C 137.528,42.8303 143.528,42.3303 149.5,41.5C 144.208,40.5052 138.875,40.1718 133.5,40.5C 134.502,38.9891 135.169,37.3224 135.5,35.5C 135.5,35.1667 135.5,34.8333 135.5,34.5C 137.833,32.5 140.167,30.5 142.5,28.5C 143.922,27.075 145.589,26.075 147.5,25.5C 150.671,24.9943 153.004,23.3276 154.5,20.5C 171.5,20.5 188.5,20.5 205.5,20.5C 207.17,20.2488 208.67,19.5822 210,18.5C 211.462,19.0352 213.128,19.0352 215,18.5C 218.978,18.4818 222.311,19.8152 225,22.5C 228.181,21.2103 231.348,21.2103 234.5,22.5C 236.599,20.4798 238.933,20.1465 241.5,21.5C 239.198,22.9987 239.531,24.332 242.5,25.5C 244.527,23.3256 246.86,22.9922 249.5,24.5C 249.5,25.5 249.5,26.5 249.5,27.5C 251.099,27.2322 252.432,27.5655 253.5,28.5 Z"/></g>
<g><path style="opacity:0.318" fill="#21220f" d="M 253.5,14.5 C 258.879,17.3655 263.879,20.8655 268.5,25C 280.858,36.5563 289.525,50.3897 294.5,66.5C 286.01,46.0044 272.676,29.3378 254.5,16.5C 254.167,15.8333 253.833,15.1667 253.5,14.5 Z"/></g>
<g><path style="opacity:1" fill="#eeb711" d="M 209.5,31.5 C 207.914,32.1481 206.247,32.6481 204.5,33C 206.708,33.1909 208.708,33.6909 210.5,34.5C 207.482,34.6646 204.482,34.498 201.5,34C 200.286,32.4309 198.619,31.5976 196.5,31.5C 192.5,32 188.5,32.5 184.5,33C 179.291,35.3226 173.957,37.6559 168.5,40C 167.29,41.0391 166.29,42.2058 165.5,43.5C 164.167,43.5 162.833,43.5 161.5,43.5C 160.167,43.5 158.833,43.5 157.5,43.5C 157.5,42.8333 157.5,42.1667 157.5,41.5C 159.49,40.001 161.823,39.1676 164.5,39C 166.766,36.245 169.766,34.9116 173.5,35C 174.406,33.3005 174.739,31.4672 174.5,29.5C 177.565,29.7593 180.065,28.7593 182,26.5C 192.676,25.8765 203.51,25.8765 214.5,26.5C 214.5,27.5 214.5,28.5 214.5,29.5C 215.873,29.3433 217.207,29.51 218.5,30C 215.305,30.1805 212.305,30.6805 209.5,31.5 Z"/></g>
<g><path style="opacity:1" fill="#212a2d" d="M 142.5,28.5 C 140.167,30.5 137.833,32.5 135.5,34.5C 134.261,33.788 133.761,32.788 134,31.5C 136.207,28.436 139.041,26.436 142.5,25.5C 142.5,26.5 142.5,27.5 142.5,28.5 Z"/></g>
<g><path style="opacity:1" fill="#eeb113" d="M 227.5,28.5 C 230.478,30.0141 233.144,31.0141 235.5,31.5C 226.833,31.5 218.167,31.5 209.5,31.5C 212.305,30.6805 215.305,30.1805 218.5,30C 217.207,29.51 215.873,29.3433 214.5,29.5C 214.5,28.5 214.5,27.5 214.5,26.5C 203.51,25.8765 192.676,25.8765 182,26.5C 180.065,28.7593 177.565,29.7593 174.5,29.5C 174.739,31.4672 174.406,33.3005 173.5,35C 169.766,34.9116 166.766,36.245 164.5,39C 161.823,39.1676 159.49,40.001 157.5,41.5C 156.378,39.7116 156.211,37.7116 157,35.5C 160.939,34.5765 164.106,32.4098 166.5,29C 175.978,26.4596 185.478,23.9596 195,21.5C 203.121,21.368 211.288,21.7014 219.5,22.5C 224.559,24.9318 229.892,26.4318 235.5,27C 232.635,27.1829 229.969,27.6829 227.5,28.5 Z"/></g>
<g><path style="opacity:1" fill="#392f16" d="M 254.5,26.5 C 256.749,27.0798 258.415,28.4131 259.5,30.5C 257.938,30.2671 256.605,29.6005 255.5,28.5C 255.167,27.8333 254.833,27.1667 254.5,26.5 Z"/></g>
<g><path style="opacity:1" fill="#282c20" d="M 258.5,24.5 C 262.146,26.8171 265.48,29.4838 268.5,32.5C 264.814,32.13 263.814,33.4633 265.5,36.5C 264.167,35.5 262.833,34.5 261.5,33.5C 260.833,32.5 260.167,31.5 259.5,30.5C 260.967,31.2916 262.3,31.2916 263.5,30.5C 261.469,28.6899 259.802,26.6899 258.5,24.5 Z"/></g>
<g><path style="opacity:1" fill="#292a1c" d="M 146.5,18.5 C 147.167,18.5 147.833,18.5 148.5,18.5C 147.06,20.3879 145.394,22.0546 143.5,23.5C 144.689,24.4287 146.022,24.762 147.5,24.5C 147.5,24.8333 147.5,25.1667 147.5,25.5C 145.589,26.075 143.922,27.075 142.5,28.5C 142.5,27.5 142.5,26.5 142.5,25.5C 139.041,26.436 136.207,28.436 134,31.5C 133.761,32.788 134.261,33.788 135.5,34.5C 135.5,34.8333 135.5,35.1667 135.5,35.5C 134.5,36.1667 133.5,36.8333 132.5,37.5C 132.657,36.1266 132.49,34.7932 132,33.5C 129.297,36.3714 126.464,39.0381 123.5,41.5C 130.173,32.8273 137.839,25.1606 146.5,18.5 Z"/></g>
<g><path style="opacity:1" fill="#f1bf10" d="M 210.5,34.5 C 215.96,35.7373 221.627,36.404 227.5,36.5C 227.35,40.1612 228.85,41.1612 232,39.5C 236.636,44.9833 241.803,49.8167 247.5,54C 246.748,54.6708 246.414,55.5041 246.5,56.5C 244.576,56.7107 244.243,57.3774 245.5,58.5C 247.343,59.2829 249.343,59.9495 251.5,60.5C 252.126,64.725 253.792,68.3917 256.5,71.5C 254.722,72.7258 253.722,74.3925 253.5,76.5C 249.833,76.5 246.167,76.5 242.5,76.5C 244.808,67.8591 242.475,60.3591 235.5,54C 237.169,50.0235 235.836,47.5235 231.5,46.5C 230.833,46.8333 230.167,47.1667 229.5,47.5C 229.06,46.302 228.727,45.1353 228.5,44C 223.677,42.2985 219.01,40.2985 214.5,38C 209.667,37.1254 204.834,36.292 200,35.5C 196.713,35.8698 193.713,36.8698 191,38.5C 188.619,37.565 186.119,37.2317 183.5,37.5C 183.5,38.5 183.5,39.5 183.5,40.5C 181.856,40.2865 180.356,40.6198 179,41.5C 177.414,44.2943 175.914,47.1276 174.5,50C 167.654,49.7473 162.321,52.414 158.5,58C 161.919,58.2485 165.253,58.7485 168.5,59.5C 168.5,60.1667 168.167,60.5 167.5,60.5C 166.833,60.5 166.167,60.5 165.5,60.5C 160.349,59.6733 155.016,59.1733 149.5,59C 148.167,58 146.833,57 145.5,56C 149.574,54.4602 149.907,53.1268 146.5,52C 148.422,50.54 149.089,48.8733 148.5,47C 154.157,46.5006 159.824,46.3339 165.5,46.5C 165.5,45.5 165.5,44.5 165.5,43.5C 166.29,42.2058 167.29,41.0391 168.5,40C 173.957,37.6559 179.291,35.3226 184.5,33C 188.5,32.5 192.5,32 196.5,31.5C 198.619,31.5976 200.286,32.4309 201.5,34C 204.482,34.498 207.482,34.6646 210.5,34.5 Z"/></g>
<g><path style="opacity:1" fill="#d88b0d" d="M 227.5,28.5 C 236.167,28.5 244.833,28.5 253.5,28.5C 254.167,28.5 254.833,28.5 255.5,28.5C 256.605,29.6005 257.938,30.2671 259.5,30.5C 260.167,31.5 260.833,32.5 261.5,33.5C 248.496,33.6666 235.496,33.4999 222.5,33C 227.019,32.8247 231.353,32.3247 235.5,31.5C 233.144,31.0141 230.478,30.0141 227.5,28.5 Z"/></g>
<g><path style="opacity:1" fill="#e79f12" d="M 209.5,31.5 C 218.167,31.5 226.833,31.5 235.5,31.5C 231.353,32.3247 227.019,32.8247 222.5,33C 235.496,33.4999 248.496,33.6666 261.5,33.5C 261.414,34.4959 261.748,35.3292 262.5,36C 256.843,36.4994 251.176,36.6661 245.5,36.5C 234.215,34.5216 222.548,33.8549 210.5,34.5C 208.708,33.6909 206.708,33.1909 204.5,33C 206.247,32.6481 207.914,32.1481 209.5,31.5 Z"/></g>
<g><path style="opacity:1" fill="#f0c713" d="M 242.5,76.5 C 242.5,77.1667 242.5,77.8333 242.5,78.5C 239.753,78.8134 237.086,78.48 234.5,77.5C 234.957,76.7025 235.624,76.3691 236.5,76.5C 238.167,76.5 239.833,76.5 241.5,76.5C 240.6,65.7437 235.933,56.9103 227.5,50C 204.963,35.964 185.297,39.1307 168.5,59.5C 165.253,58.7485 161.919,58.2485 158.5,58C 162.321,52.414 167.654,49.7473 174.5,50C 175.914,47.1276 177.414,44.2943 179,41.5C 180.356,40.6198 181.856,40.2865 183.5,40.5C 183.5,39.5 183.5,38.5 183.5,37.5C 186.119,37.2317 188.619,37.565 191,38.5C 193.713,36.8698 196.713,35.8698 200,35.5C 204.834,36.292 209.667,37.1254 214.5,38C 219.01,40.2985 223.677,42.2985 228.5,44C 228.727,45.1353 229.06,46.302 229.5,47.5C 230.167,47.1667 230.833,46.8333 231.5,46.5C 235.836,47.5235 237.169,50.0235 235.5,54C 242.475,60.3591 244.808,67.8591 242.5,76.5 Z"/></g>
<g><path style="opacity:1" fill="#23292e" d="M 268.5,32.5 C 269.5,33.8333 270.5,35.1667 271.5,36.5C 272.08,38.7488 273.413,40.4154 275.5,41.5C 275.5,42.5 275.5,43.5 275.5,44.5C 274.5,44.5 273.5,44.5 272.5,44.5C 272.167,44.5 271.833,44.5 271.5,44.5C 270.299,42.0905 268.633,40.0905 266.5,38.5C 266.167,37.8333 265.833,37.1667 265.5,36.5C 263.814,33.4633 264.814,32.13 268.5,32.5 Z"/></g>
<g><path style="opacity:1" fill="#c29330" d="M 135.5,35.5 C 135.169,37.3224 134.502,38.9891 133.5,40.5C 131.938,40.7329 130.605,41.3995 129.5,42.5C 130.075,40.5887 131.075,38.922 132.5,37.5C 133.5,36.8333 134.5,36.1667 135.5,35.5 Z"/></g>
<g><path style="opacity:1" fill="#d58b10" d="M 261.5,33.5 C 262.833,34.5 264.167,35.5 265.5,36.5C 265.833,37.1667 266.167,37.8333 266.5,38.5C 259.5,38.5 252.5,38.5 245.5,38.5C 244.167,37.8333 244.167,37.1667 245.5,36.5C 251.176,36.6661 256.843,36.4994 262.5,36C 261.748,35.3292 261.414,34.4959 261.5,33.5 Z"/></g>
<g><path style="opacity:1" fill="#3c3514" d="M 271.5,36.5 C 273.587,37.5846 274.92,39.2512 275.5,41.5C 273.413,40.4154 272.08,38.7488 271.5,36.5 Z"/></g>
<g><path style="opacity:1" fill="#efb512" d="M 210.5,34.5 C 222.548,33.8549 234.215,34.5216 245.5,36.5C 244.167,37.1667 244.167,37.8333 245.5,38.5C 247.969,39.3171 250.635,39.8171 253.5,40C 253.982,41.0084 254.148,42.175 254,43.5C 256.564,46.0597 258.731,48.893 260.5,52C 259.318,53.4896 258.318,54.8229 257.5,56C 253.848,56.4986 250.182,56.6653 246.5,56.5C 246.414,55.5041 246.748,54.6708 247.5,54C 241.803,49.8167 236.636,44.9833 232,39.5C 228.85,41.1612 227.35,40.1612 227.5,36.5C 221.627,36.404 215.96,35.7373 210.5,34.5 Z"/></g>
<g><path style="opacity:1" fill="#e8a619" d="M 245.5,38.5 C 252.5,38.5 259.5,38.5 266.5,38.5C 268.633,40.0905 270.299,42.0905 271.5,44.5C 273.22,47.8892 273.887,51.5559 273.5,55.5C 273.5,56.1667 273.167,56.5 272.5,56.5C 267.821,56.3342 263.155,56.5008 258.5,57C 256.942,57.21 255.609,57.71 254.5,58.5C 251.5,58.5 248.5,58.5 245.5,58.5C 244.243,57.3774 244.576,56.7107 246.5,56.5C 250.182,56.6653 253.848,56.4986 257.5,56C 258.318,54.8229 259.318,53.4896 260.5,52C 258.731,48.893 256.564,46.0597 254,43.5C 254.148,42.175 253.982,41.0084 253.5,40C 250.635,39.8171 247.969,39.3171 245.5,38.5 Z"/></g>
<g><path style="opacity:1" fill="#c1993e" d="M 143.5,16.5 C 144.167,16.5 144.833,16.5 145.5,16.5C 143.969,17.9245 144.302,18.5912 146.5,18.5C 137.839,25.1606 130.173,32.8273 123.5,41.5C 118.987,46.03 115.654,51.3633 113.5,57.5C 112.326,58.5137 111.66,59.847 111.5,61.5C 107.152,70.2324 104.819,79.5658 104.5,89.5C 104.167,89.5 103.833,89.5 103.5,89.5C 103.975,86.9179 103.308,84.9179 101.5,83.5C 106.491,55.511 120.491,33.1776 143.5,16.5 Z"/></g>
<g><path style="opacity:1" fill="#252b2b" d="M 132.5,37.5 C 131.075,38.922 130.075,40.5887 129.5,42.5C 128.833,42.5 128.5,42.8333 128.5,43.5C 126.1,45.2964 124.433,47.6298 123.5,50.5C 121.058,52.1209 119.725,54.4542 119.5,57.5C 118.833,57.5 118.5,57.8333 118.5,58.5C 118.167,58.5 117.833,58.5 117.5,58.5C 117.657,57.1266 117.49,55.7932 117,54.5C 116.241,56.0629 115.074,57.0629 113.5,57.5C 115.654,51.3633 118.987,46.03 123.5,41.5C 126.464,39.0381 129.297,36.3714 132,33.5C 132.49,34.7932 132.657,36.1266 132.5,37.5 Z"/></g>
<g><path style="opacity:1" fill="#d88a07" d="M 133.5,40.5 C 138.875,40.1718 144.208,40.5052 149.5,41.5C 143.528,42.3303 137.528,42.8303 131.5,43C 140.16,43.4998 148.827,43.6664 157.5,43.5C 158.833,43.5 160.167,43.5 161.5,43.5C 150.884,45.477 139.884,46.1436 128.5,45.5C 128.5,44.8333 128.5,44.1667 128.5,43.5C 128.5,42.8333 128.833,42.5 129.5,42.5C 130.605,41.3995 131.938,40.7329 133.5,40.5 Z"/></g>
<g><path style="opacity:1" fill="#2f2e20" d="M 275.5,41.5 C 277.262,42.2623 278.262,43.5956 278.5,45.5C 277.325,45.281 276.325,45.6143 275.5,46.5C 278.104,51.3201 277.104,55.3201 272.5,58.5C 272.5,57.8333 272.5,57.1667 272.5,56.5C 273.167,56.5 273.5,56.1667 273.5,55.5C 276.3,51.6518 275.967,47.9852 272.5,44.5C 273.5,44.5 274.5,44.5 275.5,44.5C 275.5,43.5 275.5,42.5 275.5,41.5 Z"/></g>
<g><path style="opacity:1" fill="#edac15" d="M 161.5,43.5 C 162.833,43.5 164.167,43.5 165.5,43.5C 165.5,44.5 165.5,45.5 165.5,46.5C 159.824,46.3339 154.157,46.5006 148.5,47C 149.089,48.8733 148.422,50.54 146.5,52C 149.907,53.1268 149.574,54.4602 145.5,56C 146.833,57 148.167,58 149.5,59C 155.016,59.1733 160.349,59.6733 165.5,60.5C 154.482,60.4435 143.482,59.9435 132.5,59C 133.167,58.6667 133.833,58.3333 134.5,58C 132.913,57.1376 131.246,56.4709 129.5,56C 132.167,55.6667 134.833,55.3333 137.5,55C 137.957,54.586 138.291,54.086 138.5,53.5C 133.544,52.5059 128.544,52.1725 123.5,52.5C 123.5,51.8333 123.5,51.1667 123.5,50.5C 125.395,49.027 127.061,47.3603 128.5,45.5C 139.884,46.1436 150.884,45.477 161.5,43.5 Z"/></g>
<g><path style="opacity:1" fill="#a88638" d="M 128.5,43.5 C 128.5,44.1667 128.5,44.8333 128.5,45.5C 127.061,47.3603 125.395,49.027 123.5,50.5C 124.433,47.6298 126.1,45.2964 128.5,43.5 Z"/></g>
<g><path style="opacity:1" fill="#b7953a" d="M 271.5,44.5 C 271.833,44.5 272.167,44.5 272.5,44.5C 275.967,47.9852 276.3,51.6518 273.5,55.5C 273.887,51.5559 273.22,47.8892 271.5,44.5 Z"/></g>
<g><path style="opacity:1" fill="#66591d" d="M 282.5,51.5 C 283.906,51.9731 284.573,52.9731 284.5,54.5C 283.094,54.0269 282.427,53.0269 282.5,51.5 Z"/></g>
<g><path style="opacity:1" fill="#aa8436" d="M 123.5,50.5 C 123.5,51.1667 123.5,51.8333 123.5,52.5C 122.167,54.1667 120.833,55.8333 119.5,57.5C 119.725,54.4542 121.058,52.1209 123.5,50.5 Z"/></g>
<g><path style="opacity:1" fill="#e29811" d="M 123.5,52.5 C 128.544,52.1725 133.544,52.5059 138.5,53.5C 138.291,54.086 137.957,54.586 137.5,55C 134.833,55.3333 132.167,55.6667 129.5,56C 131.246,56.4709 132.913,57.1376 134.5,58C 133.833,58.3333 133.167,58.6667 132.5,59C 143.482,59.9435 154.482,60.4435 165.5,60.5C 166.167,60.5 166.833,60.5 167.5,60.5C 167.5,61.1667 167.167,61.5 166.5,61.5C 157.154,61.5378 147.82,61.8711 138.5,62.5C 135.5,62.5 132.5,62.5 129.5,62.5C 126.998,62.2505 124.498,61.9172 122,61.5C 120.319,61.3917 119.152,60.7251 118.5,59.5C 118.5,59.1667 118.5,58.8333 118.5,58.5C 118.5,57.8333 118.833,57.5 119.5,57.5C 120.833,55.8333 122.167,54.1667 123.5,52.5 Z"/></g>
<g><path style="opacity:1" fill="#cf8711" d="M 272.5,56.5 C 272.5,57.1667 272.5,57.8333 272.5,58.5C 272.5,58.8333 272.5,59.1667 272.5,59.5C 271.833,60.1667 271.167,60.8333 270.5,61.5C 270.5,60.5 270.5,59.5 270.5,58.5C 266.5,58.5 262.5,58.5 258.5,58.5C 257.167,58.5 255.833,58.5 254.5,58.5C 255.609,57.71 256.942,57.21 258.5,57C 263.155,56.5008 267.821,56.3342 272.5,56.5 Z"/></g>
<g><path style="opacity:1" fill="#fdf05e" d="M 236.5,76.5 C 236.585,73.3459 236.752,70.0126 237,66.5C 235.846,65.2567 234.512,64.2567 233,63.5C 233.471,59.9666 232.304,56.8 229.5,54C 228.223,53.8726 227.057,54.3726 226,55.5C 223.182,54.5666 222.016,52.5666 222.5,49.5C 219.124,47.7587 215.791,46.092 212.5,44.5C 212.5,45.5 212.5,46.5 212.5,47.5C 206.183,46.9058 199.849,46.4058 193.5,46C 191.585,43.9187 189.919,44.0854 188.5,46.5C 186.604,47.4656 184.604,47.7989 182.5,47.5C 182.721,49.6636 183.721,51.3303 185.5,52.5C 184.89,53.391 184.557,54.391 184.5,55.5C 183.5,55.8333 182.833,56.5 182.5,57.5C 182.167,58.1667 181.833,58.8333 181.5,59.5C 181.167,59.5 180.833,59.5 180.5,59.5C 178.82,60.7822 177.487,62.4489 176.5,64.5C 176.5,65.1667 176.167,65.5 175.5,65.5C 174.833,65.5 174.167,65.5 173.5,65.5C 170.095,69.3983 168.595,74.065 169,79.5C 168.439,80.0219 167.772,80.3552 167,80.5C 165.594,79.5862 164.094,78.9195 162.5,78.5C 162.389,77.8826 162.056,77.3826 161.5,77C 163.067,72.1334 164.733,67.3 166.5,62.5C 166.5,62.1667 166.5,61.8333 166.5,61.5C 167.167,61.5 167.5,61.1667 167.5,60.5C 168.167,60.5 168.5,60.1667 168.5,59.5C 185.297,39.1307 204.963,35.964 227.5,50C 235.933,56.9103 240.6,65.7437 241.5,76.5C 239.833,76.5 238.167,76.5 236.5,76.5 Z"/></g>
<g><path style="opacity:1" fill="#687350" d="M 182.5,57.5 C 187.5,57.5 192.5,57.5 197.5,57.5C 197.5,57.8333 197.5,58.1667 197.5,58.5C 192.105,58.2665 186.772,58.5998 181.5,59.5C 181.833,58.8333 182.167,58.1667 182.5,57.5 Z"/></g>
<g><path style="opacity:1" fill="#b0b57e" d="M 208.5,54.5 C 208.5,55.5 208.5,56.5 208.5,57.5C 204.833,57.5 201.167,57.5 197.5,57.5C 201.292,57.0074 204.958,56.0074 208.5,54.5 Z"/></g>
<g><path style="opacity:1" fill="#f6f695" d="M 209.5,52.5 C 209.167,53.1667 208.833,53.8333 208.5,54.5C 204.958,56.0074 201.292,57.0074 197.5,57.5C 192.5,57.5 187.5,57.5 182.5,57.5C 182.833,56.5 183.5,55.8333 184.5,55.5C 191.863,55.8306 199.197,55.4973 206.5,54.5C 207.005,53.0815 208.005,52.4148 209.5,52.5 Z"/></g>
<g><path style="opacity:1" fill="#303921" d="M 215.5,51.5 C 215.833,52.1667 216.167,52.8333 216.5,53.5C 214.5,53.5 212.5,53.5 210.5,53.5C 210.771,55.3797 210.104,56.713 208.5,57.5C 208.5,56.5 208.5,55.5 208.5,54.5C 208.833,53.8333 209.167,53.1667 209.5,52.5C 211.379,51.6586 213.379,51.3253 215.5,51.5 Z"/></g>
<g><path style="opacity:1" fill="#fcf277" d="M 215.5,51.5 C 213.379,51.3253 211.379,51.6586 209.5,52.5C 208.005,52.4148 207.005,53.0815 206.5,54.5C 199.197,55.4973 191.863,55.8306 184.5,55.5C 184.557,54.391 184.89,53.391 185.5,52.5C 190.529,50.9528 195.696,49.9528 201,49.5C 204.883,50.3103 208.716,50.3103 212.5,49.5C 214.03,49.6399 215.03,50.3065 215.5,51.5 Z"/></g>
<g><path style="opacity:1" fill="#eeb516" d="M 245.5,58.5 C 248.5,58.5 251.5,58.5 254.5,58.5C 255.833,58.5 257.167,58.5 258.5,58.5C 261.358,59.166 264.358,59.8326 267.5,60.5C 265.955,61.4519 264.288,61.7852 262.5,61.5C 262.5,62.5 262.5,63.5 262.5,64.5C 259.753,64.1866 257.086,64.52 254.5,65.5C 258.787,66.601 262.787,67.9344 266.5,69.5C 265.89,70.391 265.557,71.391 265.5,72.5C 264.512,73.795 263.512,75.1283 262.5,76.5C 259.5,76.5 256.5,76.5 253.5,76.5C 253.722,74.3925 254.722,72.7258 256.5,71.5C 253.792,68.3917 252.126,64.725 251.5,60.5C 249.343,59.9495 247.343,59.2829 245.5,58.5 Z"/></g>
<g><path style="opacity:1" fill="#a7792f" d="M 118.5,59.5 C 119.152,60.7251 120.319,61.3917 122,61.5C 124.498,61.9172 126.998,62.2505 129.5,62.5C 129.5,62.8333 129.5,63.1667 129.5,63.5C 125.466,63.4955 121.466,63.1621 117.5,62.5C 117.263,61.209 117.596,60.209 118.5,59.5 Z"/></g>
<g><path style="opacity:1" fill="#616342" d="M 180.5,59.5 C 180.833,59.5 181.167,59.5 181.5,59.5C 181.573,61.0269 180.906,62.0269 179.5,62.5C 179.557,61.391 179.89,60.391 180.5,59.5 Z"/></g>
<g><path style="opacity:1" fill="#1d2c30" d="M 197.5,58.5 C 194.359,59.3213 191.025,59.8213 187.5,60C 188.949,61.117 190.616,61.7837 192.5,62C 190.978,65.0854 188.645,67.2521 185.5,68.5C 184.523,71.2869 184.19,74.2869 184.5,77.5C 183.527,75.0521 183.194,72.3854 183.5,69.5C 184.254,66.909 185.921,65.0757 188.5,64C 186.16,63.2516 184.16,63.7516 182.5,65.5C 181.094,65.9731 180.427,66.9731 180.5,68.5C 179.022,68.762 177.689,68.4287 176.5,67.5C 177.826,66.3578 178.826,65.0245 179.5,63.5C 179.5,63.1667 179.5,62.8333 179.5,62.5C 180.906,62.0269 181.573,61.0269 181.5,59.5C 186.772,58.5998 192.105,58.2665 197.5,58.5 Z"/></g>
<g><path style="opacity:1" fill="#192a39" d="M 216.5,53.5 C 216.833,53.5 217.167,53.5 217.5,53.5C 217.121,58.0704 217.787,62.4037 219.5,66.5C 218.047,68.229 216.047,69.229 213.5,69.5C 212.702,69.9569 212.369,70.6236 212.5,71.5C 212.167,71.5 211.833,71.5 211.5,71.5C 208.15,71.335 204.817,71.5017 201.5,72C 200.577,74.0408 200.244,76.2075 200.5,78.5C 202.199,78.3398 203.866,78.5065 205.5,79C 206.053,80.8778 207.053,82.3778 208.5,83.5C 210.262,84.2623 211.262,85.5956 211.5,87.5C 211.5,88.1667 211.5,88.8333 211.5,89.5C 207.909,90.2673 204.243,90.6006 200.5,90.5C 199.687,86.424 197.354,83.5907 193.5,82C 193.833,81 194.167,80 194.5,79C 192.709,76.8938 192.042,74.3938 192.5,71.5C 190.473,71.6621 188.473,71.4955 186.5,71C 185.748,70.3292 185.414,69.4959 185.5,68.5C 188.645,67.2521 190.978,65.0854 192.5,62C 190.616,61.7837 188.949,61.117 187.5,60C 191.025,59.8213 194.359,59.3213 197.5,58.5C 197.5,58.1667 197.5,57.8333 197.5,57.5C 201.167,57.5 204.833,57.5 208.5,57.5C 210.104,56.713 210.771,55.3797 210.5,53.5C 212.5,53.5 214.5,53.5 216.5,53.5 Z"/></g>
<g><path style="opacity:1" fill="#d7a933" d="M 129.5,63.5 C 129.5,63.1667 129.5,62.8333 129.5,62.5C 132.5,62.5 135.5,62.5 138.5,62.5C 138.5,63.5 138.5,64.5 138.5,65.5C 139.791,65.2627 140.791,65.596 141.5,66.5C 140.833,66.5 140.167,66.5 139.5,66.5C 138.833,66.5 138.167,66.5 137.5,66.5C 135.021,65.2051 132.354,64.2051 129.5,63.5 Z"/></g>
<g><path style="opacity:1" fill="#3c3818" d="M 272.5,59.5 C 271.299,63.2636 269.799,66.9303 268,70.5C 267.292,71.3805 266.458,72.0472 265.5,72.5C 265.557,71.391 265.89,70.391 266.5,69.5C 268.2,67.1004 269.533,64.4337 270.5,61.5C 271.167,60.8333 271.833,60.1667 272.5,59.5 Z"/></g>
<g><path style="opacity:1" fill="#e5e599" d="M 180.5,59.5 C 179.89,60.391 179.557,61.391 179.5,62.5C 179.5,62.8333 179.5,63.1667 179.5,63.5C 178.609,64.1098 177.609,64.4431 176.5,64.5C 177.487,62.4489 178.82,60.7822 180.5,59.5 Z"/></g>
<g><path style="opacity:1" fill="#30402f" d="M 217.5,53.5 C 218.319,56.3054 218.819,59.3054 219,62.5C 222.142,65.1167 223.975,68.45 224.5,72.5C 222.565,70.6203 220.899,68.6203 219.5,66.5C 217.787,62.4037 217.121,58.0704 217.5,53.5 Z"/></g>
<g><path style="opacity:1" fill="#3d371c" d="M 284.5,54.5 C 287.566,59.3229 289.566,64.6563 290.5,70.5C 288.62,67.4034 287.287,64.07 286.5,60.5C 284.919,58.8583 284.253,56.8583 284.5,54.5 Z"/></g>
<g><path style="opacity:1" fill="#2e2e1a" d="M 117.5,58.5 C 117.833,58.5 118.167,58.5 118.5,58.5C 118.5,58.8333 118.5,59.1667 118.5,59.5C 117.596,60.209 117.263,61.209 117.5,62.5C 121.466,63.1621 125.466,63.4955 129.5,63.5C 132.354,64.2051 135.021,65.2051 137.5,66.5C 131.268,65.2753 124.935,64.4419 118.5,64C 116.368,62.3796 116.035,60.5463 117.5,58.5 Z"/></g>
<g><path style="opacity:1" fill="#edb914" d="M 166.5,61.5 C 166.5,61.8333 166.5,62.1667 166.5,62.5C 162.818,62.3347 159.152,62.5014 155.5,63C 156.833,63.6667 156.833,64.3333 155.5,65C 152.998,66.3543 150.665,67.8543 148.5,69.5C 146.013,68.6772 143.679,67.6772 141.5,66.5C 140.791,65.596 139.791,65.2627 138.5,65.5C 138.5,64.5 138.5,63.5 138.5,62.5C 147.82,61.8711 157.154,61.5378 166.5,61.5 Z"/></g>
<g><path style="opacity:1" fill="#d8dea0" d="M 183.5,69.5 C 182.833,70.1667 182.167,70.8333 181.5,71.5C 179.833,70.8333 178.167,70.1667 176.5,69.5C 178.099,69.7678 179.432,69.4345 180.5,68.5C 181.906,68.0269 182.573,67.0269 182.5,65.5C 184.16,63.7516 186.16,63.2516 188.5,64C 185.921,65.0757 184.254,66.909 183.5,69.5 Z"/></g>
<g><path style="opacity:1" fill="#fbf27a" d="M 238.5,96.5 C 235.733,92.6263 233.733,88.2929 232.5,83.5C 232.509,81.6916 232.009,80.0249 231,78.5C 226.8,72.7557 223.133,66.7557 220,60.5C 219.921,57.1694 219.087,54.1694 217.5,51.5C 218.15,51.1961 218.817,50.8627 219.5,50.5C 219.598,55.579 221.932,59.079 226.5,61C 227.956,62.7448 229.289,64.5781 230.5,66.5C 231.988,72.4288 233.155,78.4288 234,84.5C 236.338,88.1778 237.838,92.1778 238.5,96.5 Z"/></g>
<g><path style="opacity:1" fill="#efc716" d="M 166.5,62.5 C 164.733,67.3 163.067,72.1334 161.5,77C 162.056,77.3826 162.389,77.8826 162.5,78.5C 160.517,77.5294 158.517,76.5294 156.5,75.5C 155.205,74.5116 153.872,73.5116 152.5,72.5C 152.027,71.0937 151.027,70.427 149.5,70.5C 149.167,70.5 148.833,70.5 148.5,70.5C 148.5,70.1667 148.5,69.8333 148.5,69.5C 150.665,67.8543 152.998,66.3543 155.5,65C 156.833,64.3333 156.833,63.6667 155.5,63C 159.152,62.5014 162.818,62.3347 166.5,62.5 Z"/></g>
<g><path style="opacity:1" fill="#df9f14" d="M 258.5,58.5 C 262.5,58.5 266.5,58.5 270.5,58.5C 270.5,59.5 270.5,60.5 270.5,61.5C 269.533,64.4337 268.2,67.1004 266.5,69.5C 262.787,67.9344 258.787,66.601 254.5,65.5C 257.086,64.52 259.753,64.1866 262.5,64.5C 262.5,63.5 262.5,62.5 262.5,61.5C 264.288,61.7852 265.955,61.4519 267.5,60.5C 264.358,59.8326 261.358,59.166 258.5,58.5 Z"/></g>
<g><path style="opacity:1" fill="#374124" d="M 179.5,63.5 C 178.826,65.0245 177.826,66.3578 176.5,67.5C 177.689,68.4287 179.022,68.762 180.5,68.5C 179.432,69.4345 178.099,69.7678 176.5,69.5C 175.566,68.4324 175.232,67.099 175.5,65.5C 176.167,65.5 176.5,65.1667 176.5,64.5C 177.609,64.4431 178.609,64.1098 179.5,63.5 Z"/></g>
<g><path style="opacity:1" fill="#695f22" d="M 139.5,66.5 C 140.167,66.5 140.833,66.5 141.5,66.5C 143.679,67.6772 146.013,68.6772 148.5,69.5C 148.5,69.8333 148.5,70.1667 148.5,70.5C 147.833,70.5 147.167,70.5 146.5,70.5C 145.791,69.596 144.791,69.2627 143.5,69.5C 141.924,68.8571 140.59,67.8571 139.5,66.5 Z"/></g>
<g><path style="opacity:1" fill="#fbf176" d="M 173.5,65.5 C 173.5,67.5 173.5,69.5 173.5,71.5C 175.833,71.5 178.167,71.5 180.5,71.5C 180.5,74.5 180.5,77.5 180.5,80.5C 178.167,80.5 175.833,80.5 173.5,80.5C 173.778,82.3464 173.111,83.6798 171.5,84.5C 170.274,82.7221 168.607,81.7221 166.5,81.5C 165.391,81.4431 164.391,81.1098 163.5,80.5C 163.167,79.8333 162.833,79.1667 162.5,78.5C 164.094,78.9195 165.594,79.5862 167,80.5C 167.772,80.3552 168.439,80.0219 169,79.5C 168.595,74.065 170.095,69.3983 173.5,65.5 Z"/></g>
<g><path style="opacity:1" fill="#4e5b34" d="M 182.5,65.5 C 182.573,67.0269 181.906,68.0269 180.5,68.5C 180.427,66.9731 181.094,65.9731 182.5,65.5 Z"/></g>
<g><path style="opacity:1" fill="#e2e491" d="M 215.5,51.5 C 216.167,51.5 216.833,51.5 217.5,51.5C 219.087,54.1694 219.921,57.1694 220,60.5C 223.133,66.7557 226.8,72.7557 231,78.5C 232.009,80.0249 232.509,81.6916 232.5,83.5C 232.167,83.5 231.833,83.5 231.5,83.5C 231.573,81.9731 230.906,80.9731 229.5,80.5C 227.819,77.7972 226.153,75.1305 224.5,72.5C 223.975,68.45 222.142,65.1167 219,62.5C 218.819,59.3054 218.319,56.3054 217.5,53.5C 217.167,53.5 216.833,53.5 216.5,53.5C 216.167,52.8333 215.833,52.1667 215.5,51.5 Z"/></g>
<g><path style="opacity:1" fill="#3fa8de" d="M 280.5,57.5 C 282.254,60.6136 283.587,63.9469 284.5,67.5C 283.324,70.5293 281.657,73.1959 279.5,75.5C 279.5,74.5 279.5,73.5 279.5,72.5C 277.5,71.8333 275.5,71.1667 273.5,70.5C 273.396,73.9386 271.73,76.2719 268.5,77.5C 270.407,72.0157 273.073,67.0157 276.5,62.5C 276.892,60.8211 277.392,59.1545 278,57.5C 278.77,56.4019 279.603,56.4019 280.5,57.5 Z"/></g>
<g><path style="opacity:1" fill="#37b4f8" d="M 276.5,62.5 C 281.761,61.4428 283.761,63.7761 282.5,69.5C 280.876,69.6399 279.71,68.9733 279,67.5C 278.935,69.8833 278.102,70.55 276.5,69.5C 275.943,67.2825 275.943,64.9491 276.5,62.5 Z"/></g>
<g><path style="opacity:1" fill="#978925" d="M 149.5,70.5 C 151.027,70.427 152.027,71.0937 152.5,72.5C 150.973,72.573 149.973,71.9063 149.5,70.5 Z"/></g>
<g><path style="opacity:1" fill="#222b1f" d="M 146.5,70.5 C 147.167,70.5 147.833,70.5 148.5,70.5C 148.833,70.5 149.167,70.5 149.5,70.5C 149.973,71.9063 150.973,72.573 152.5,72.5C 153.872,73.5116 155.205,74.5116 156.5,75.5C 153.418,74.8698 150.418,73.8698 147.5,72.5C 147.137,71.8165 146.804,71.1499 146.5,70.5 Z"/></g>
<g><path style="opacity:1" fill="#1f2d2c" d="M 219.5,66.5 C 220.899,68.6203 222.565,70.6203 224.5,72.5C 226.153,75.1305 227.819,77.7972 229.5,80.5C 229.427,82.0269 230.094,83.0269 231.5,83.5C 231.634,85.2915 231.301,86.9582 230.5,88.5C 226.925,84.347 223.591,80.0137 220.5,75.5C 219.35,71.0012 216.684,69.6679 212.5,71.5C 212.369,70.6236 212.702,69.9569 213.5,69.5C 216.047,69.229 218.047,68.229 219.5,66.5 Z"/></g>
<g><path style="opacity:1" fill="#fdf167" d="M 236.5,76.5 C 235.624,76.3691 234.957,76.7025 234.5,77.5C 237.086,78.48 239.753,78.8134 242.5,78.5C 242.665,81.8499 242.498,85.1832 242,88.5C 240.731,90.9934 239.898,93.6601 239.5,96.5C 239.167,96.5 238.833,96.5 238.5,96.5C 237.838,92.1778 236.338,88.1778 234,84.5C 233.155,78.4288 231.988,72.4288 230.5,66.5C 229.289,64.5781 227.956,62.7448 226.5,61C 221.932,59.079 219.598,55.579 219.5,50.5C 218.817,50.8627 218.15,51.1961 217.5,51.5C 216.833,51.5 216.167,51.5 215.5,51.5C 215.03,50.3065 214.03,49.6399 212.5,49.5C 208.716,50.3103 204.883,50.3103 201,49.5C 195.696,49.9528 190.529,50.9528 185.5,52.5C 183.721,51.3303 182.721,49.6636 182.5,47.5C 184.604,47.7989 186.604,47.4656 188.5,46.5C 189.919,44.0854 191.585,43.9187 193.5,46C 199.849,46.4058 206.183,46.9058 212.5,47.5C 212.5,46.5 212.5,45.5 212.5,44.5C 215.791,46.092 219.124,47.7587 222.5,49.5C 222.016,52.5666 223.182,54.5666 226,55.5C 227.057,54.3726 228.223,53.8726 229.5,54C 232.304,56.8 233.471,59.9666 233,63.5C 234.512,64.2567 235.846,65.2567 237,66.5C 236.752,70.0126 236.585,73.3459 236.5,76.5 Z"/></g>
<g><path style="opacity:1" fill="#153046" d="M 134.5,69.5 C 137.5,69.5 140.5,69.5 143.5,69.5C 144.791,69.2627 145.791,69.596 146.5,70.5C 146.804,71.1499 147.137,71.8165 147.5,72.5C 150.418,73.8698 153.418,74.8698 156.5,75.5C 157.72,77.2821 158.386,79.2821 158.5,81.5C 155.22,80.1932 152.22,78.5265 149.5,76.5C 144.39,74.4455 139.39,72.1121 134.5,69.5 Z"/></g>
<g><path style="opacity:1" fill="#2f3c2a" d="M 183.5,69.5 C 183.194,72.3854 183.527,75.0521 184.5,77.5C 184.953,78.4584 185.619,79.2917 186.5,80C 188.723,80.5662 190.723,81.3995 192.5,82.5C 185.149,82.4825 181.483,78.8159 181.5,71.5C 182.167,70.8333 182.833,70.1667 183.5,69.5 Z"/></g>
<g><path style="opacity:1" fill="#f8f28d" d="M 220.5,75.5 C 223.591,80.0137 226.925,84.347 230.5,88.5C 231.11,89.391 231.443,90.391 231.5,91.5C 227.073,88.683 222.739,85.683 218.5,82.5C 217.009,83.3481 216.342,84.6814 216.5,86.5C 218.089,89.2847 218.589,92.2847 218,95.5C 216.89,97.0368 215.39,97.7035 213.5,97.5C 215.632,94.4324 215.965,91.0991 214.5,87.5C 212.937,86.0552 211.604,84.3885 210.5,82.5C 211.516,79.8663 211.516,77.1996 210.5,74.5C 212.277,74.2137 213.944,73.5471 215.5,72.5C 217.423,73.0924 219.089,74.0924 220.5,75.5 Z"/></g>
<g><path style="opacity:1" fill="#1679ad" d="M 123.5,67.5 C 127.167,68.1667 130.833,68.8333 134.5,69.5C 139.39,72.1121 144.39,74.4455 149.5,76.5C 145.06,76.8447 144.06,78.5114 146.5,81.5C 138.542,75.687 129.875,71.187 120.5,68C 121.448,67.5172 122.448,67.3505 123.5,67.5 Z"/></g>
<g><path style="opacity:1" fill="#473d1b" d="M 291.5,73.5 C 292.924,75.5145 293.59,77.8478 293.5,80.5C 292.076,78.4855 291.41,76.1522 291.5,73.5 Z"/></g>
<g><path style="opacity:0.639" fill="#151b22" d="M 294.5,66.5 C 296.591,71.1906 297.924,76.1906 298.5,81.5C 297.833,80.5 297.167,79.5 296.5,78.5C 295.833,74.5 295.167,70.5 294.5,66.5 Z"/></g>
<g><path style="opacity:1" fill="#172c38" d="M 117.5,58.5 C 116.035,60.5463 116.368,62.3796 118.5,64C 124.935,64.4419 131.268,65.2753 137.5,66.5C 138.167,66.5 138.833,66.5 139.5,66.5C 140.59,67.8571 141.924,68.8571 143.5,69.5C 140.5,69.5 137.5,69.5 134.5,69.5C 130.833,68.8333 127.167,68.1667 123.5,67.5C 123.611,66.8826 123.944,66.3826 124.5,66C 120.686,65.7655 117.019,64.9322 113.5,63.5C 112.152,65.6114 112.485,67.4447 114.5,69C 113.604,71.179 112.271,73.0124 110.5,74.5C 115.252,75.9569 119.919,77.6236 124.5,79.5C 125.426,82.0949 127.093,84.0949 129.5,85.5C 129,85.8333 128.5,86.1667 128,86.5C 126.269,85.259 124.436,84.259 122.5,83.5C 120.095,82.6019 118.095,81.1019 116.5,79C 115.563,78.3083 114.897,78.475 114.5,79.5C 112.621,80.3414 110.621,80.6747 108.5,80.5C 108.561,82.5922 109.561,84.0922 111.5,85C 110.388,87.1079 111.054,88.6079 113.5,89.5C 114.338,89.8417 114.672,90.5084 114.5,91.5C 114.5,92.8333 114.5,94.1667 114.5,95.5C 113.167,95.5 111.833,95.5 110.5,95.5C 110.778,93.6536 110.111,92.3202 108.5,91.5C 107.723,93.7767 106.723,95.9434 105.5,98C 105.646,99.7271 106.313,99.8938 107.5,98.5C 108.452,100.045 108.785,101.712 108.5,103.5C 107.5,103.5 106.5,103.5 105.5,103.5C 105.5,104.5 105.5,105.5 105.5,106.5C 105.5,107.5 105.5,108.5 105.5,109.5C 104.509,103.021 104.176,96.3543 104.5,89.5C 105.977,85.7665 106.811,81.7665 107,77.5C 107.94,75.0582 109.106,72.7249 110.5,70.5C 111.484,67.5719 111.817,64.5719 111.5,61.5C 111.66,59.847 112.326,58.5137 113.5,57.5C 115.074,57.0629 116.241,56.0629 117,54.5C 117.49,55.7932 117.657,57.1266 117.5,58.5 Z"/></g>
<g><path style="opacity:1" fill="#22322c" d="M 211.5,71.5 C 208.786,72.9581 205.786,73.9581 202.5,74.5C 203.945,76.0627 205.611,77.396 207.5,78.5C 208.452,80.0453 208.785,81.712 208.5,83.5C 207.053,82.3778 206.053,80.8778 205.5,79C 203.866,78.5065 202.199,78.3398 200.5,78.5C 200.244,76.2075 200.577,74.0408 201.5,72C 204.817,71.5017 208.15,71.335 211.5,71.5 Z"/></g>
<g><path style="opacity:1" fill="#e5e69a" d="M 220.5,75.5 C 219.089,74.0924 217.423,73.0924 215.5,72.5C 213.944,73.5471 212.277,74.2137 210.5,74.5C 211.516,77.1996 211.516,79.8663 210.5,82.5C 211.604,84.3885 212.937,86.0552 214.5,87.5C 215.965,91.0991 215.632,94.4324 213.5,97.5C 209.435,96.801 205.435,96.801 201.5,97.5C 201.328,96.5084 201.662,95.8417 202.5,95.5C 206.182,95.6653 209.848,95.4986 213.5,95C 215.167,91.8223 214.5,89.3223 211.5,87.5C 211.262,85.5956 210.262,84.2623 208.5,83.5C 208.785,81.712 208.452,80.0453 207.5,78.5C 205.611,77.396 203.945,76.0627 202.5,74.5C 205.786,73.9581 208.786,72.9581 211.5,71.5C 211.833,71.5 212.167,71.5 212.5,71.5C 216.684,69.6679 219.35,71.0012 220.5,75.5 Z"/></g>
<g><path style="opacity:1" fill="#d1910d" d="M 242.5,76.5 C 246.167,76.5 249.833,76.5 253.5,76.5C 256.5,76.5 259.5,76.5 262.5,76.5C 261.89,77.391 261.557,78.391 261.5,79.5C 261.167,79.5 260.833,79.5 260.5,79.5C 254.69,78.5104 248.69,78.1771 242.5,78.5C 242.5,77.8333 242.5,77.1667 242.5,76.5 Z"/></g>
<g><path style="opacity:1" fill="#3a3514" d="M 265.5,72.5 C 265.002,75.3263 263.669,77.6597 261.5,79.5C 261.557,78.391 261.89,77.391 262.5,76.5C 263.512,75.1283 264.512,73.795 265.5,72.5 Z"/></g>
<g><path style="opacity:1" fill="#232b27" d="M 156.5,75.5 C 158.517,76.5294 160.517,77.5294 162.5,78.5C 162.833,79.1667 163.167,79.8333 163.5,80.5C 161.784,80.6287 160.117,80.962 158.5,81.5C 158.386,79.2821 157.72,77.2821 156.5,75.5 Z"/></g>
<g><path style="opacity:1" fill="#faf384" d="M 180.5,80.5 C 183.928,82.0498 187.262,83.8832 190.5,86C 187.907,87.3732 185.574,88.8732 183.5,90.5C 180.763,90.5987 178.096,90.2653 175.5,89.5C 172.271,87.0584 169.271,84.3918 166.5,81.5C 168.607,81.7221 170.274,82.7221 171.5,84.5C 173.111,83.6798 173.778,82.3464 173.5,80.5C 175.833,80.5 178.167,80.5 180.5,80.5 Z"/></g>
<g><path style="opacity:1" fill="#36aff1" d="M 279.5,75.5 C 279.5,76.1667 279.5,76.8333 279.5,77.5C 277.213,81.1219 274.547,84.4552 271.5,87.5C 268.557,86.7408 266.89,88.0742 266.5,91.5C 265.167,91.5 263.833,91.5 262.5,91.5C 262.5,89.8333 262.5,88.1667 262.5,86.5C 264.255,83.3197 266.255,80.3197 268.5,77.5C 271.73,76.2719 273.396,73.9386 273.5,70.5C 275.5,71.1667 277.5,71.8333 279.5,72.5C 279.5,73.5 279.5,74.5 279.5,75.5 Z"/></g>
<g><path style="opacity:1" fill="#41a3d5" d="M 288.5,93.5 C 288.037,90.5176 287.704,87.5176 287.5,84.5C 285.379,84.3253 283.379,84.6586 281.5,85.5C 282.833,82.8333 284.167,80.1667 285.5,77.5C 286.117,77.3893 286.617,77.056 287,76.5C 289.367,82.155 289.867,87.8217 288.5,93.5 Z"/></g>
<g><path style="opacity:1" fill="#157fb8" d="M 142.5,86.5 C 141.883,86.6107 141.383,86.944 141,87.5C 139.386,84.3977 137.553,84.0644 135.5,86.5C 136.518,87.8524 137.851,88.8524 139.5,89.5C 140.246,90.7362 140.579,92.0695 140.5,93.5C 135.463,88.4607 130.129,83.794 124.5,79.5C 122.159,77.1712 119.492,75.1712 116.5,73.5C 118.466,72.628 120.466,72.7947 122.5,74C 130.073,76.9406 136.739,81.1072 142.5,86.5 Z"/></g>
<g><path style="opacity:1" fill="#5b653f" d="M 229.5,80.5 C 230.906,80.9731 231.573,81.9731 231.5,83.5C 230.094,83.0269 229.427,82.0269 229.5,80.5 Z"/></g>
<g><path style="opacity:1" fill="#f1ef92" d="M 173.5,65.5 C 174.167,65.5 174.833,65.5 175.5,65.5C 175.232,67.099 175.566,68.4324 176.5,69.5C 178.167,70.1667 179.833,70.8333 181.5,71.5C 181.483,78.8159 185.149,82.4825 192.5,82.5C 194.36,83.9387 196.027,85.6053 197.5,87.5C 194.833,88.1667 192.167,88.8333 189.5,89.5C 187.735,90.4614 185.735,90.7947 183.5,90.5C 185.574,88.8732 187.907,87.3732 190.5,86C 187.262,83.8832 183.928,82.0498 180.5,80.5C 180.5,77.5 180.5,74.5 180.5,71.5C 178.167,71.5 175.833,71.5 173.5,71.5C 173.5,69.5 173.5,67.5 173.5,65.5 Z"/></g>
<g><path style="opacity:1" fill="#efc61d" d="M 242.5,78.5 C 248.69,78.1771 254.69,78.5104 260.5,79.5C 258.902,81.6979 257.569,84.0313 256.5,86.5C 254.833,87.5 253.5,88.8333 252.5,90.5C 250.413,91.5846 249.08,93.2512 248.5,95.5C 246.81,95.8564 245.81,96.8564 245.5,98.5C 243.938,98.7329 242.605,99.3995 241.5,100.5C 240.833,99.8333 240.167,99.1667 239.5,98.5C 239.5,97.8333 239.5,97.1667 239.5,96.5C 239.898,93.6601 240.731,90.9934 242,88.5C 242.498,85.1832 242.665,81.8499 242.5,78.5 Z"/></g>
<g><path style="opacity:1" fill="#2c3020" d="M 260.5,79.5 C 260.833,79.5 261.167,79.5 261.5,79.5C 260.067,81.5582 259.4,83.8915 259.5,86.5C 258.5,86.5 257.5,86.5 256.5,86.5C 257.569,84.0313 258.902,81.6979 260.5,79.5 Z"/></g>
<g><path style="opacity:1" fill="#1877a8" d="M 122.5,83.5 C 123.833,85.1667 125.167,86.8333 126.5,88.5C 125.904,89.9354 125.904,91.602 126.5,93.5C 122.904,88.5641 118.904,83.8974 114.5,79.5C 114.897,78.475 115.563,78.3083 116.5,79C 118.095,81.1019 120.095,82.6019 122.5,83.5 Z"/></g>
<g><path style="opacity:1" fill="#fbf281" d="M 231.5,91.5 C 232.451,92.9187 232.784,94.5853 232.5,96.5C 232.794,99.4811 234.128,100.148 236.5,98.5C 236.833,98.5 237.167,98.5 237.5,98.5C 237.5,98.8333 237.5,99.1667 237.5,99.5C 237.5,99.8333 237.5,100.167 237.5,100.5C 231.498,101.196 229.165,98.5289 230.5,92.5C 229.5,92.5 228.5,92.5 227.5,92.5C 225.663,102.17 219.829,107.503 210,108.5C 209.503,110.81 209.337,113.143 209.5,115.5C 215.146,115.089 220.479,113.755 225.5,111.5C 220.664,115.269 215.331,117.269 209.5,117.5C 208.2,114.568 206.2,112.234 203.5,110.5C 203.315,108.804 202.481,107.471 201,106.5C 200.503,104.19 200.337,101.857 200.5,99.5C 200.833,98.8333 201.167,98.1667 201.5,97.5C 205.435,96.801 209.435,96.801 213.5,97.5C 215.39,97.7035 216.89,97.0368 218,95.5C 218.589,92.2847 218.089,89.2847 216.5,86.5C 216.342,84.6814 217.009,83.3481 218.5,82.5C 222.739,85.683 227.073,88.683 231.5,91.5 Z"/></g>
<g><path style="opacity:1" fill="#30301c" d="M 111.5,61.5 C 111.817,64.5719 111.484,67.5719 110.5,70.5C 109.106,72.7249 107.94,75.0582 107,77.5C 106.811,81.7665 105.977,85.7665 104.5,89.5C 104.819,79.5658 107.152,70.2324 111.5,61.5 Z"/></g>
<g><path style="opacity:1" fill="#2397d6" d="M 149.5,76.5 C 152.22,78.5265 155.22,80.1932 158.5,81.5C 162.167,84.8333 165.833,88.1667 169.5,91.5C 170.606,95.5698 168.939,97.4031 164.5,97C 163.663,95.9887 163.33,94.8221 163.5,93.5C 162.5,93.5 161.5,93.5 160.5,93.5C 160.5,92.5 160.5,91.5 160.5,90.5C 157.513,88.8544 154.513,87.1877 151.5,85.5C 149.251,84.9202 147.585,83.5869 146.5,81.5C 144.06,78.5114 145.06,76.8447 149.5,76.5 Z"/></g>
<g><path style="opacity:1" fill="#9ba378" d="M 197.5,87.5 C 198.338,87.8417 198.672,88.5084 198.5,89.5C 195.5,89.5 192.5,89.5 189.5,89.5C 192.167,88.8333 194.833,88.1667 197.5,87.5 Z"/></g>
<g><path style="opacity:1" fill="#252d16" d="M 256.5,86.5 C 256.475,89.179 255.142,90.5123 252.5,90.5C 253.5,88.8333 254.833,87.5 256.5,86.5 Z"/></g>
<g><path style="opacity:1" fill="#1a2724" d="M 290.5,70.5 C 291.404,71.209 291.737,72.209 291.5,73.5C 291.41,76.1522 292.076,78.4855 293.5,80.5C 294.76,91.837 294.76,103.17 293.5,114.5C 293.296,117.518 292.963,120.518 292.5,123.5C 291.833,124.5 291.167,125.5 290.5,126.5C 292.161,118.603 292.827,110.603 292.5,102.5C 292.813,91.7149 292.146,81.0482 290.5,70.5 Z"/></g>
<g><path style="opacity:1" fill="#2d9fdc" d="M 262.5,86.5 C 262.5,88.1667 262.5,89.8333 262.5,91.5C 263.833,91.5 265.167,91.5 266.5,91.5C 266.89,88.0742 268.557,86.7408 271.5,87.5C 264.778,97.1856 256.111,104.519 245.5,109.5C 242.752,109.598 242.086,108.598 243.5,106.5C 250.286,100.258 256.62,93.5913 262.5,86.5 Z"/></g>
<g><path style="opacity:1" fill="#1d6f98" d="M 118.5,92.5 C 117.596,93.209 117.263,94.209 117.5,95.5C 116.143,94.4097 115.143,93.0764 114.5,91.5C 114.672,90.5084 114.338,89.8417 113.5,89.5C 112.708,88.0331 112.708,86.6998 113.5,85.5C 115.605,87.5916 117.272,89.9249 118.5,92.5 Z"/></g>
<g><path style="opacity:1" fill="#192b36" d="M 185.5,68.5 C 185.414,69.4959 185.748,70.3292 186.5,71C 188.473,71.4955 190.473,71.6621 192.5,71.5C 192.042,74.3938 192.709,76.8938 194.5,79C 194.167,80 193.833,81 193.5,82C 197.354,83.5907 199.687,86.424 200.5,90.5C 204.243,90.6006 207.909,90.2673 211.5,89.5C 213.104,90.287 213.771,91.6203 213.5,93.5C 209.663,93.9309 205.997,94.5975 202.5,95.5C 201.662,95.8417 201.328,96.5084 201.5,97.5C 201.167,98.1667 200.833,98.8333 200.5,99.5C 198.518,103.976 199.518,107.643 203.5,110.5C 206.2,112.234 208.2,114.568 209.5,117.5C 210.183,119.176 211.517,119.843 213.5,119.5C 210.404,119.905 208.071,121.572 206.5,124.5C 205.583,123.873 204.583,123.539 203.5,123.5C 203.196,122.85 202.863,122.183 202.5,121.5C 204.013,120.154 205.347,118.654 206.5,117C 204.424,115.756 203.424,113.923 203.5,111.5C 201.61,111.703 200.11,111.037 199,109.5C 197.686,110.313 196.519,111.313 195.5,112.5C 194.261,110.993 194.595,109.826 196.5,109C 194.068,107.913 194.402,107.413 197.5,107.5C 196.266,103.055 195.099,98.7216 194,94.5C 193.808,96.5767 193.308,98.5767 192.5,100.5C 190.729,99.9646 190.396,99.1313 191.5,98C 190.149,94.805 187.815,92.9717 184.5,92.5C 189.137,91.3375 193.804,90.3375 198.5,89.5C 198.672,88.5084 198.338,87.8417 197.5,87.5C 196.027,85.6053 194.36,83.9387 192.5,82.5C 190.723,81.3995 188.723,80.5662 186.5,80C 185.619,79.2917 184.953,78.4584 184.5,77.5C 184.19,74.2869 184.523,71.2869 185.5,68.5 Z"/></g>
<g><path style="opacity:1" fill="#cca03e" d="M 101.5,83.5 C 103.308,84.9179 103.975,86.9179 103.5,89.5C 103.26,97.8746 103.593,106.208 104.5,114.5C 104.66,116.199 104.494,117.866 104,119.5C 103.617,118.944 103.117,118.611 102.5,118.5C 101.065,111.385 100.398,104.052 100.5,96.5C 100.501,91.9866 100.834,87.6533 101.5,83.5 Z"/></g>
<g><path style="opacity:1" fill="#1b89c2" d="M 126.5,88.5 C 131.816,92.8189 136.483,97.8189 140.5,103.5C 137.989,102.24 135.656,100.573 133.5,98.5C 132.166,100.818 132.832,102.485 135.5,103.5C 136.466,105.396 136.799,107.396 136.5,109.5C 132.805,104.455 129.472,99.1218 126.5,93.5C 125.904,91.602 125.904,89.9354 126.5,88.5 Z"/></g>
<g><path style="opacity:1" fill="#494c13" d="M 252.5,90.5 C 251.92,92.7488 250.587,94.4154 248.5,95.5C 249.08,93.2512 250.413,91.5846 252.5,90.5 Z"/></g>
<g><path style="opacity:1" fill="#123148" d="M 285.5,77.5 C 284.167,80.1667 282.833,82.8333 281.5,85.5C 276.203,92.4644 270.203,98.7977 263.5,104.5C 256.811,108.867 250.144,113.2 243.5,117.5C 237.589,119.455 231.923,121.955 226.5,125C 233.887,124.957 240.887,123.457 247.5,120.5C 249.216,120.371 250.883,120.038 252.5,119.5C 249.741,122.047 246.408,123.547 242.5,124C 241.167,124.667 241.167,125.333 242.5,126C 243.448,126.483 244.448,126.649 245.5,126.5C 241.702,127.868 237.702,128.868 233.5,129.5C 233.953,128.542 234.619,127.708 235.5,127C 230.149,126.737 224.816,126.737 219.5,127C 222.47,125.847 225.137,124.18 227.5,122C 225.866,121.506 224.199,121.34 222.5,121.5C 227.842,118.501 233.508,116.001 239.5,114C 241.747,112.723 243.747,111.223 245.5,109.5C 256.111,104.519 264.778,97.1856 271.5,87.5C 274.547,84.4552 277.213,81.1219 279.5,77.5C 282.085,81.3718 283.752,80.7052 284.5,75.5C 285.298,75.9569 285.631,76.6236 285.5,77.5 Z"/></g>
<g><path style="opacity:1" fill="#162d3d" d="M 163.5,80.5 C 164.087,84.442 166.42,86.6087 170.5,87C 173.059,91.7784 176.725,95.4451 181.5,98C 182.449,98.6172 183.282,98.4506 184,97.5C 184.494,95.8659 184.66,94.1992 184.5,92.5C 187.815,92.9717 190.149,94.805 191.5,98C 190.396,99.1313 190.729,99.9646 192.5,100.5C 193.308,98.5767 193.808,96.5767 194,94.5C 195.099,98.7216 196.266,103.055 197.5,107.5C 194.402,107.413 194.068,107.913 196.5,109C 194.595,109.826 194.261,110.993 195.5,112.5C 196.519,111.313 197.686,110.313 199,109.5C 200.11,111.037 201.61,111.703 203.5,111.5C 203.424,113.923 204.424,115.756 206.5,117C 205.347,118.654 204.013,120.154 202.5,121.5C 202.863,122.183 203.196,122.85 203.5,123.5C 202.761,123.631 202.094,123.464 201.5,123C 191.629,111.629 180.962,101.129 169.5,91.5C 165.833,88.1667 162.167,84.8333 158.5,81.5C 160.117,80.962 161.784,80.6287 163.5,80.5 Z"/></g>
<g><path style="opacity:1" fill="#313f26" d="M 211.5,87.5 C 214.5,89.3223 215.167,91.8223 213.5,95C 209.848,95.4986 206.182,95.6653 202.5,95.5C 205.997,94.5975 209.663,93.9309 213.5,93.5C 213.771,91.6203 213.104,90.287 211.5,89.5C 211.5,88.8333 211.5,88.1667 211.5,87.5 Z"/></g>
<g><path style="opacity:1" fill="#28341e" d="M 231.5,83.5 C 231.833,83.5 232.167,83.5 232.5,83.5C 233.733,88.2929 235.733,92.6263 238.5,96.5C 238.672,97.4916 238.338,98.1583 237.5,98.5C 237.167,98.5 236.833,98.5 236.5,98.5C 236.217,97.7109 235.717,97.0442 235,96.5C 234.23,97.5981 233.397,97.5981 232.5,96.5C 232.784,94.5853 232.451,92.9187 231.5,91.5C 231.443,90.391 231.11,89.391 230.5,88.5C 231.301,86.9582 231.634,85.2915 231.5,83.5 Z"/></g>
<g><path style="opacity:1" fill="#172e3c" d="M 278.5,45.5 C 280.326,47.1475 281.66,49.1475 282.5,51.5C 282.427,53.0269 283.094,54.0269 284.5,54.5C 284.253,56.8583 284.919,58.8583 286.5,60.5C 284.012,60.3167 282.012,59.3167 280.5,57.5C 279.603,56.4019 278.77,56.4019 278,57.5C 277.392,59.1545 276.892,60.8211 276.5,62.5C 273.073,67.0157 270.407,72.0157 268.5,77.5C 266.255,80.3197 264.255,83.3197 262.5,86.5C 256.62,93.5913 250.286,100.258 243.5,106.5C 235.689,111.575 227.689,116.409 219.5,121C 220.448,121.483 221.448,121.649 222.5,121.5C 224.199,121.34 225.866,121.506 227.5,122C 225.137,124.18 222.47,125.847 219.5,127C 224.816,126.737 230.149,126.737 235.5,127C 234.619,127.708 233.953,128.542 233.5,129.5C 233.167,129.5 232.833,129.5 232.5,129.5C 229.68,129.248 227.014,129.748 224.5,131C 224.957,131.414 225.291,131.914 225.5,132.5C 223.955,133.452 222.288,133.785 220.5,133.5C 219.5,133.5 218.5,133.5 217.5,133.5C 212.481,130.657 207.814,127.324 203.5,123.5C 204.583,123.539 205.583,123.873 206.5,124.5C 208.071,121.572 210.404,119.905 213.5,119.5C 215.401,119.567 217.234,119.233 219,118.5C 222.996,115.835 227.162,113.502 231.5,111.5C 232.127,110.583 232.461,109.583 232.5,108.5C 236.181,108.427 238.514,106.76 239.5,103.5C 242.089,102.581 244.089,100.914 245.5,98.5C 245.81,96.8564 246.81,95.8564 248.5,95.5C 250.587,94.4154 251.92,92.7488 252.5,90.5C 255.142,90.5123 256.475,89.179 256.5,86.5C 257.5,86.5 258.5,86.5 259.5,86.5C 259.4,83.8915 260.067,81.5582 261.5,79.5C 263.669,77.6597 265.002,75.3263 265.5,72.5C 266.458,72.0472 267.292,71.3805 268,70.5C 269.799,66.9303 271.299,63.2636 272.5,59.5C 272.5,59.1667 272.5,58.8333 272.5,58.5C 277.104,55.3201 278.104,51.3201 275.5,46.5C 276.325,45.6143 277.325,45.281 278.5,45.5 Z"/></g>
<g><path style="opacity:1" fill="#2894cf" d="M 142.5,86.5 C 150.5,92.5 157.5,99.5 163.5,107.5C 161.272,106.287 159.272,104.62 157.5,102.5C 152.246,105.133 152.246,107.633 157.5,110C 156.584,110.278 155.918,110.778 155.5,111.5C 153.139,109.806 151.139,107.806 149.5,105.5C 146.5,101.5 143.5,97.5 140.5,93.5C 140.579,92.0695 140.246,90.7362 139.5,89.5C 137.851,88.8524 136.518,87.8524 135.5,86.5C 137.553,84.0644 139.386,84.3977 141,87.5C 141.383,86.944 141.883,86.6107 142.5,86.5 Z"/></g>
<g><path style="opacity:1" fill="#1c2d2a" d="M 163.5,80.5 C 164.391,81.1098 165.391,81.4431 166.5,81.5C 169.271,84.3918 172.271,87.0584 175.5,89.5C 177.606,92.0546 179.94,94.3879 182.5,96.5C 182.465,94.5575 182.798,92.5575 183.5,90.5C 185.735,90.7947 187.735,90.4614 189.5,89.5C 192.5,89.5 195.5,89.5 198.5,89.5C 193.804,90.3375 189.137,91.3375 184.5,92.5C 184.66,94.1992 184.494,95.8659 184,97.5C 183.282,98.4506 182.449,98.6172 181.5,98C 176.725,95.4451 173.059,91.7784 170.5,87C 166.42,86.6087 164.087,84.442 163.5,80.5 Z"/></g>
<g><path style="opacity:1" fill="#dadc93" d="M 175.5,89.5 C 178.096,90.2653 180.763,90.5987 183.5,90.5C 182.798,92.5575 182.465,94.5575 182.5,96.5C 179.94,94.3879 177.606,92.0546 175.5,89.5 Z"/></g>
<g><path style="opacity:1" fill="#50471a" d="M 293.5,80.5 C 294.302,81.9516 294.802,83.6183 295,85.5C 295.5,92.1583 295.666,98.825 295.5,105.5C 295.324,108.727 294.657,111.727 293.5,114.5C 294.76,103.17 294.76,91.837 293.5,80.5 Z"/></g>
<g><path style="opacity:0.984" fill="#342d1e" d="M 296.5,78.5 C 297.167,79.5 297.833,80.5 298.5,81.5C 299.819,92.5981 299.819,103.598 298.5,114.5C 298.5,112.833 298.5,111.167 298.5,109.5C 298.968,99.0539 298.302,88.7205 296.5,78.5 Z"/></g>
<g><path style="opacity:1" fill="#133046" d="M 124.5,79.5 C 130.129,83.794 135.463,88.4607 140.5,93.5C 143.5,97.5 146.5,101.5 149.5,105.5C 147.906,105.08 146.406,104.414 145,103.5C 143.97,103.836 143.47,104.503 143.5,105.5C 142.5,104.833 141.5,104.167 140.5,103.5C 136.483,97.8189 131.816,92.8189 126.5,88.5C 125.167,86.8333 123.833,85.1667 122.5,83.5C 124.436,84.259 126.269,85.259 128,86.5C 128.5,86.1667 129,85.8333 129.5,85.5C 127.093,84.0949 125.426,82.0949 124.5,79.5 Z"/></g>
<g><path style="opacity:1" fill="#584918" d="M 103.5,89.5 C 103.833,89.5 104.167,89.5 104.5,89.5C 104.176,96.3543 104.509,103.021 105.5,109.5C 105.5,111.167 105.5,112.833 105.5,114.5C 105.167,114.5 104.833,114.5 104.5,114.5C 103.593,106.208 103.26,97.8746 103.5,89.5 Z"/></g>
<g><path style="opacity:1" fill="#949244" d="M 232.5,96.5 C 233.397,97.5981 234.23,97.5981 235,96.5C 235.717,97.0442 236.217,97.7109 236.5,98.5C 234.128,100.148 232.794,99.4811 232.5,96.5 Z"/></g>
<g><path style="opacity:1" fill="#686710" d="M 238.5,96.5 C 238.833,96.5 239.167,96.5 239.5,96.5C 239.5,97.1667 239.5,97.8333 239.5,98.5C 239.591,100.698 238.925,101.031 237.5,99.5C 237.5,99.1667 237.5,98.8333 237.5,98.5C 238.338,98.1583 238.672,97.4916 238.5,96.5 Z"/></g>
<g><path style="opacity:1" fill="#32aaea" d="M 288.5,93.5 C 282.893,101.135 275.893,107.135 267.5,111.5C 267.146,109.459 267.146,107.626 267.5,106C 266.437,104.812 265.103,104.312 263.5,104.5C 270.203,98.7977 276.203,92.4644 281.5,85.5C 283.379,84.6586 285.379,84.3253 287.5,84.5C 287.704,87.5176 288.037,90.5176 288.5,93.5 Z"/></g>
<g><path style="opacity:1" fill="#d7c33f" d="M 239.5,98.5 C 240.167,99.1667 240.833,99.8333 241.5,100.5C 240.833,101.5 240.167,102.5 239.5,103.5C 238.391,103.557 237.391,103.89 236.5,104.5C 236.433,103.041 236.766,101.708 237.5,100.5C 237.5,100.167 237.5,99.8333 237.5,99.5C 238.925,101.031 239.591,100.698 239.5,98.5 Z"/></g>
<g><path style="opacity:1" fill="#343511" d="M 245.5,98.5 C 244.089,100.914 242.089,102.581 239.5,103.5C 240.167,102.5 240.833,101.5 241.5,100.5C 242.605,99.3995 243.938,98.7329 245.5,98.5 Z"/></g>
<g><path style="opacity:1" fill="#fcf168" d="M 237.5,100.5 C 236.766,101.708 236.433,103.041 236.5,104.5C 234.861,105.473 233.527,106.806 232.5,108.5C 230.02,109.242 227.687,110.242 225.5,111.5C 220.479,113.755 215.146,115.089 209.5,115.5C 209.337,113.143 209.503,110.81 210,108.5C 219.829,107.503 225.663,102.17 227.5,92.5C 228.5,92.5 229.5,92.5 230.5,92.5C 229.165,98.5289 231.498,101.196 237.5,100.5 Z"/></g>
<g><path style="opacity:1" fill="#319dd9" d="M 140.5,103.5 C 141.5,104.167 142.5,104.833 143.5,105.5C 148.255,112.676 153.255,119.676 158.5,126.5C 156.726,125.119 155.226,125.452 154,127.5C 152.305,130.789 152.138,134.122 153.5,137.5C 146.843,128.868 141.176,119.535 136.5,109.5C 136.799,107.396 136.466,105.396 135.5,103.5C 132.832,102.485 132.166,100.818 133.5,98.5C 135.656,100.573 137.989,102.24 140.5,103.5 Z"/></g>
<g><path style="opacity:1" fill="#132f42" d="M 123.5,67.5 C 122.448,67.3505 121.448,67.5172 120.5,68C 129.875,71.187 138.542,75.687 146.5,81.5C 147.585,83.5869 149.251,84.9202 151.5,85.5C 159.924,93.9183 167.924,102.585 175.5,111.5C 174.711,111.783 174.044,112.283 173.5,113C 176.876,113.307 178.21,115.14 177.5,118.5C 179.827,118.247 181.827,118.914 183.5,120.5C 185.593,122.658 187.259,124.992 188.5,127.5C 187.209,127.263 186.209,127.596 185.5,128.5C 177.508,122.174 170.175,115.174 163.5,107.5C 157.5,99.5 150.5,92.5 142.5,86.5C 136.739,81.1072 130.073,76.9406 122.5,74C 120.466,72.7947 118.466,72.628 116.5,73.5C 119.492,75.1712 122.159,77.1712 124.5,79.5C 119.919,77.6236 115.252,75.9569 110.5,74.5C 112.271,73.0124 113.604,71.179 114.5,69C 112.485,67.4447 112.152,65.6114 113.5,63.5C 117.019,64.9322 120.686,65.7655 124.5,66C 123.944,66.3826 123.611,66.8826 123.5,67.5 Z"/></g>
<g><path style="opacity:1" fill="#1c729e" d="M 115.5,109.5 C 114.732,108.737 114.232,107.737 114,106.5C 113.503,108.81 113.337,111.143 113.5,113.5C 112.833,110.833 112.167,108.167 111.5,105.5C 110.532,102.555 110.366,99.5547 111,96.5C 113.089,100.668 114.589,105.002 115.5,109.5 Z"/></g>
<g><path style="opacity:1" fill="#48553d" d="M 200.5,99.5 C 200.337,101.857 200.503,104.19 201,106.5C 202.481,107.471 203.315,108.804 203.5,110.5C 199.518,107.643 198.518,103.976 200.5,99.5 Z"/></g>
<g><path style="opacity:1" fill="#263421" d="M 239.5,103.5 C 238.514,106.76 236.181,108.427 232.5,108.5C 233.527,106.806 234.861,105.473 236.5,104.5C 237.391,103.89 238.391,103.557 239.5,103.5 Z"/></g>
<g><path style="opacity:1" fill="#2887bf" d="M 243.5,106.5 C 242.086,108.598 242.752,109.598 245.5,109.5C 243.747,111.223 241.747,112.723 239.5,114C 233.508,116.001 227.842,118.501 222.5,121.5C 221.448,121.649 220.448,121.483 219.5,121C 227.689,116.409 235.689,111.575 243.5,106.5 Z"/></g>
<g><path style="opacity:1" fill="#259bd9" d="M 263.5,104.5 C 265.103,104.312 266.437,104.812 267.5,106C 267.146,107.626 267.146,109.459 267.5,111.5C 262.716,114.542 257.716,117.208 252.5,119.5C 250.883,120.038 249.216,120.371 247.5,120.5C 245.801,120.66 244.134,120.494 242.5,120C 243.252,119.329 243.586,118.496 243.5,117.5C 250.144,113.2 256.811,108.867 263.5,104.5 Z"/></g>
<g><path style="opacity:1" fill="#133042" d="M 280.5,57.5 C 282.012,59.3167 284.012,60.3167 286.5,60.5C 287.287,64.07 288.62,67.4034 290.5,70.5C 292.146,81.0482 292.813,91.7149 292.5,102.5C 291.566,107.339 290.732,112.339 290,117.5C 288.556,119.155 286.722,119.822 284.5,119.5C 285.531,118.751 286.698,118.085 288,117.5C 289.328,112.558 289.661,107.558 289,102.5C 279.386,111.39 268.553,118.39 256.5,123.5C 252.89,124.703 249.223,125.703 245.5,126.5C 244.448,126.649 243.448,126.483 242.5,126C 241.167,125.333 241.167,124.667 242.5,124C 246.408,123.547 249.741,122.047 252.5,119.5C 257.716,117.208 262.716,114.542 267.5,111.5C 275.893,107.135 282.893,101.135 288.5,93.5C 289.867,87.8217 289.367,82.155 287,76.5C 286.617,77.056 286.117,77.3893 285.5,77.5C 285.631,76.6236 285.298,75.9569 284.5,75.5C 283.752,80.7052 282.085,81.3718 279.5,77.5C 279.5,76.8333 279.5,76.1667 279.5,75.5C 281.657,73.1959 283.324,70.5293 284.5,67.5C 283.587,63.9469 282.254,60.6136 280.5,57.5 Z"/></g>
<g><path style="opacity:1" fill="#41aae2" d="M 151.5,85.5 C 154.513,87.1877 157.513,88.8544 160.5,90.5C 160.5,91.5 160.5,92.5 160.5,93.5C 161.5,93.5 162.5,93.5 163.5,93.5C 163.33,94.8221 163.663,95.9887 164.5,97C 168.939,97.4031 170.606,95.5698 169.5,91.5C 180.962,101.129 191.629,111.629 201.5,123C 202.094,123.464 202.761,123.631 203.5,123.5C 207.814,127.324 212.481,130.657 217.5,133.5C 216.127,133.657 214.793,133.49 213.5,133C 209.472,131.03 205.638,128.864 202,126.5C 200.338,126.388 199.171,127.054 198.5,128.5C 199.524,129.852 200.524,131.185 201.5,132.5C 192.274,126.282 183.607,119.282 175.5,111.5C 167.924,102.585 159.924,93.9183 151.5,85.5 Z"/></g>
<g><path style="opacity:1" fill="#2089c2" d="M 118.5,92.5 C 125.089,100.667 130.423,109.667 134.5,119.5C 132.926,119.063 131.759,118.063 131,116.5C 130.153,118.193 129.32,119.86 128.5,121.5C 127.196,120.013 126.03,118.346 125,116.5C 122.79,109.369 120.29,102.369 117.5,95.5C 117.263,94.209 117.596,93.209 118.5,92.5 Z"/></g>
<g><path style="opacity:1" fill="#2da1de" d="M 284.5,119.5 C 273.475,124.842 261.808,128.175 249.5,129.5C 247.473,129.662 245.473,129.495 243.5,129C 248.255,127.815 252.588,125.982 256.5,123.5C 268.553,118.39 279.386,111.39 289,102.5C 289.661,107.558 289.328,112.558 288,117.5C 286.698,118.085 285.531,118.751 284.5,119.5 Z"/></g>
<g><path style="opacity:1" fill="#2086bd" d="M 115.5,109.5 C 119.471,117.406 122.471,125.74 124.5,134.5C 121.461,131.554 120.128,127.887 120.5,123.5C 119.5,123.5 118.5,123.5 117.5,123.5C 117.5,124.833 117.5,126.167 117.5,127.5C 115.595,123.103 114.261,118.437 113.5,113.5C 113.337,111.143 113.503,108.81 114,106.5C 114.232,107.737 114.732,108.737 115.5,109.5 Z"/></g>
<g><path style="opacity:0.914" fill="#786234" d="M 297.5,109.5 C 297.833,109.5 298.167,109.5 298.5,109.5C 298.5,111.167 298.5,112.833 298.5,114.5C 298.5,114.833 298.5,115.167 298.5,115.5C 297.833,116.167 297.167,116.833 296.5,117.5C 296.833,114.833 297.167,112.167 297.5,109.5 Z"/></g>
<g><path style="opacity:1" fill="#25362a" d="M 232.5,108.5 C 232.461,109.583 232.127,110.583 231.5,111.5C 227.162,113.502 222.996,115.835 219,118.5C 217.234,119.233 215.401,119.567 213.5,119.5C 211.517,119.843 210.183,119.176 209.5,117.5C 215.331,117.269 220.664,115.269 225.5,111.5C 227.687,110.242 230.02,109.242 232.5,108.5 Z"/></g>
<g><path style="opacity:1" fill="#a18433" d="M 104.5,114.5 C 104.833,114.5 105.167,114.5 105.5,114.5C 105.833,117.167 106.167,119.833 106.5,122.5C 105.778,122.082 105.278,121.416 105,120.5C 104.398,123.221 104.565,125.887 105.5,128.5C 104.833,128.167 104.167,127.833 103.5,127.5C 103.296,124.482 102.963,121.482 102.5,118.5C 103.117,118.611 103.617,118.944 104,119.5C 104.494,117.866 104.66,116.199 104.5,114.5 Z"/></g>
<g><path style="opacity:1" fill="#1f2a28" d="M 105.5,109.5 C 106.822,113.086 108.489,116.586 110.5,120C 109.963,121.792 109.63,123.625 109.5,125.5C 110.593,128.769 111.259,132.103 111.5,135.5C 111.167,135.5 110.833,135.5 110.5,135.5C 110.296,133.315 109.63,131.315 108.5,129.5C 108.741,127.102 108.074,125.102 106.5,123.5C 106.5,123.167 106.5,122.833 106.5,122.5C 106.167,119.833 105.833,117.167 105.5,114.5C 105.5,112.833 105.5,111.167 105.5,109.5 Z"/></g>
<g><path style="opacity:0.475" fill="#252626" d="M 298.5,115.5 C 298.435,118.428 297.768,121.095 296.5,123.5C 296.5,122.5 296.5,121.5 296.5,120.5C 296.5,119.5 296.5,118.5 296.5,117.5C 297.167,116.833 297.833,116.167 298.5,115.5 Z"/></g>
<g><path style="opacity:1" fill="#132f44" d="M 114.5,79.5 C 118.904,83.8974 122.904,88.5641 126.5,93.5C 129.472,99.1218 132.805,104.455 136.5,109.5C 141.176,119.535 146.843,128.868 153.5,137.5C 156.037,142.217 159.204,146.551 163,150.5C 165.106,153.118 167.606,155.118 170.5,156.5C 176.133,162.819 183.133,166.819 191.5,168.5C 192.391,169.11 193.391,169.443 194.5,169.5C 195.568,170.434 196.901,170.768 198.5,170.5C 199.5,171.167 200.5,171.833 201.5,172.5C 197.51,171.81 193.51,171.643 189.5,172C 189.167,172.333 188.833,172.667 188.5,173C 189.942,173.377 190.942,174.21 191.5,175.5C 191.167,175.5 190.833,175.5 190.5,175.5C 183.51,173.838 177.176,170.838 171.5,166.5C 158.144,155.128 147.144,141.794 138.5,126.5C 137.921,123.669 136.588,121.336 134.5,119.5C 130.423,109.667 125.089,100.667 118.5,92.5C 117.272,89.9249 115.605,87.5916 113.5,85.5C 112.708,86.6998 112.708,88.0331 113.5,89.5C 111.054,88.6079 110.388,87.1079 111.5,85C 109.561,84.0922 108.561,82.5922 108.5,80.5C 110.621,80.6747 112.621,80.3414 114.5,79.5 Z"/></g>
<g><path style="opacity:1" fill="#2681b6" d="M 243.5,117.5 C 243.586,118.496 243.252,119.329 242.5,120C 244.134,120.494 245.801,120.66 247.5,120.5C 240.887,123.457 233.887,124.957 226.5,125C 231.923,121.955 237.589,119.455 243.5,117.5 Z"/></g>
<g><path style="opacity:1" fill="#2476a3" d="M 256.5,123.5 C 252.588,125.982 248.255,127.815 243.5,129C 245.473,129.495 247.473,129.662 249.5,129.5C 243.733,131.22 237.733,131.72 231.5,131C 232.056,130.617 232.389,130.117 232.5,129.5C 232.833,129.5 233.167,129.5 233.5,129.5C 237.702,128.868 241.702,127.868 245.5,126.5C 249.223,125.703 252.89,124.703 256.5,123.5 Z"/></g>
<g><path style="opacity:1" fill="#8f732b" d="M 292.5,123.5 C 292.655,126.716 291.655,129.383 289.5,131.5C 290.038,129.883 290.371,128.216 290.5,126.5C 291.167,125.5 291.833,124.5 292.5,123.5 Z"/></g>
<g><path style="opacity:0.722" fill="#483e1c" d="M 296.5,120.5 C 296.5,121.5 296.5,122.5 296.5,123.5C 295.771,128.351 294.438,133.018 292.5,137.5C 291.833,137.833 291.167,138.167 290.5,138.5C 292.817,132.548 294.817,126.548 296.5,120.5 Z"/></g>
<g><path style="opacity:1" fill="#8c7027" d="M 106.5,123.5 C 108.074,125.102 108.741,127.102 108.5,129.5C 106.926,127.898 106.259,125.898 106.5,123.5 Z"/></g>
<g><path style="opacity:1" fill="#30a0de" d="M 134.5,119.5 C 136.588,121.336 137.921,123.669 138.5,126.5C 139.584,130.985 141.25,135.319 143.5,139.5C 144.325,140.386 145.325,140.719 146.5,140.5C 146.5,141.5 146.5,142.5 146.5,143.5C 143.5,142.833 140.5,142.167 137.5,141.5C 133.435,135.365 130.435,128.699 128.5,121.5C 129.32,119.86 130.153,118.193 131,116.5C 131.759,118.063 132.926,119.063 134.5,119.5 Z"/></g>
<g><path style="opacity:1" fill="#2999d5" d="M 280.5,135.5 C 279.833,135.5 279.167,135.5 278.5,135.5C 274.476,136.038 270.476,136.705 266.5,137.5C 262.486,137.666 258.486,137.499 254.5,137C 257.311,136.017 259.977,134.851 262.5,133.5C 270.052,130.984 277.719,128.651 285.5,126.5C 284.915,130.2 283.248,133.2 280.5,135.5 Z"/></g>
<g><path style="opacity:1" fill="#123044" d="M 149.5,105.5 C 151.139,107.806 153.139,109.806 155.5,111.5C 161.076,118.955 166.909,126.288 173,133.5C 177.776,138.122 182.942,142.122 188.5,145.5C 190.629,147.95 193.296,149.617 196.5,150.5C 201.244,153.862 206.577,155.862 212.5,156.5C 212.5,156.833 212.5,157.167 212.5,157.5C 210.833,157.5 209.167,157.5 207.5,157.5C 207.5,158.5 207.5,159.5 207.5,160.5C 218.742,162.207 230.075,162.874 241.5,162.5C 234.352,163.492 227.019,163.825 219.5,163.5C 215.342,163.668 211.342,163.002 207.5,161.5C 202.71,159.237 197.71,157.57 192.5,156.5C 188.378,153.266 184.045,150.266 179.5,147.5C 172.167,140.833 165.167,133.833 158.5,126.5C 153.255,119.676 148.255,112.676 143.5,105.5C 143.47,104.503 143.97,103.836 145,103.5C 146.406,104.414 147.906,105.08 149.5,105.5 Z"/></g>
<g><path style="opacity:1" fill="#182e3e" d="M 111.5,105.5 C 112.167,108.167 112.833,110.833 113.5,113.5C 114.261,118.437 115.595,123.103 117.5,127.5C 122.091,147.032 132.425,162.699 148.5,174.5C 146.94,174.519 145.44,174.852 144,175.5C 142.269,174.259 140.436,173.259 138.5,172.5C 136.431,169.427 133.764,167.094 130.5,165.5C 129.833,164.5 129.167,163.5 128.5,162.5C 127.701,159.57 127.368,156.57 127.5,153.5C 125.5,153.5 123.5,153.5 121.5,153.5C 120.026,152.564 119.026,151.23 118.5,149.5C 118.087,145.662 116.42,142.662 113.5,140.5C 112.662,140.158 112.328,139.492 112.5,138.5C 112.443,137.391 112.11,136.391 111.5,135.5C 111.259,132.103 110.593,128.769 109.5,125.5C 109.63,123.625 109.963,121.792 110.5,120C 108.489,116.586 106.822,113.086 105.5,109.5C 105.5,108.5 105.5,107.5 105.5,106.5C 107.435,105.85 109.435,105.517 111.5,105.5 Z"/></g>
<g><path style="opacity:1" fill="#272d1a" d="M 290.5,126.5 C 290.371,128.216 290.038,129.883 289.5,131.5C 288.736,134.018 287.736,136.351 286.5,138.5C 287.028,134.788 287.862,131.121 289,127.5C 289.383,126.944 289.883,126.611 290.5,126.5 Z"/></g>
<g><path style="opacity:0.271" fill="#25251d" d="M 103.5,127.5 C 104.167,127.833 104.833,128.167 105.5,128.5C 106.67,134.497 108.67,140.163 111.5,145.5C 111.5,146.167 111.5,146.833 111.5,147.5C 107.487,141.479 104.82,134.812 103.5,127.5 Z"/></g>
<g><path style="opacity:1" fill="#132f42" d="M 284.5,119.5 C 282.615,121.053 281.615,123.053 281.5,125.5C 283.167,125.5 284.833,125.5 286.5,125.5C 286.789,128.649 286.289,131.649 285,134.5C 283.644,135.38 282.144,135.714 280.5,135.5C 283.248,133.2 284.915,130.2 285.5,126.5C 277.719,128.651 270.052,130.984 262.5,133.5C 255.406,134.319 248.406,135.652 241.5,137.5C 249.807,138.498 258.14,138.831 266.5,138.5C 270.154,138.058 273.821,137.724 277.5,137.5C 271.7,138.992 265.7,140.159 259.5,141C 261.179,144.068 263.179,144.234 265.5,141.5C 267.519,142.133 267.853,143.133 266.5,144.5C 257.905,143.263 249.238,142.263 240.5,141.5C 234.741,139.788 229.074,137.788 223.5,135.5C 222.29,135.068 221.29,134.401 220.5,133.5C 222.288,133.785 223.955,133.452 225.5,132.5C 225.291,131.914 224.957,131.414 224.5,131C 227.014,129.748 229.68,129.248 232.5,129.5C 232.389,130.117 232.056,130.617 231.5,131C 237.733,131.72 243.733,131.22 249.5,129.5C 261.808,128.175 273.475,124.842 284.5,119.5 Z"/></g>
<g><path style="opacity:1" fill="#12496c" d="M 278.5,135.5 C 278.167,136.167 277.833,136.833 277.5,137.5C 273.821,137.724 270.154,138.058 266.5,138.5C 266.5,138.167 266.5,137.833 266.5,137.5C 270.476,136.705 274.476,136.038 278.5,135.5 Z"/></g>
<g><path style="opacity:1" fill="#665522" d="M 110.5,135.5 C 110.833,135.5 111.167,135.5 111.5,135.5C 112.11,136.391 112.443,137.391 112.5,138.5C 111.094,138.027 110.427,137.027 110.5,135.5 Z"/></g>
<g><path style="opacity:1" fill="#2496d3" d="M 217.5,133.5 C 218.5,133.5 219.5,133.5 220.5,133.5C 221.29,134.401 222.29,135.068 223.5,135.5C 224.23,137.045 225.563,137.878 227.5,138C 223.747,139.989 219.747,140.822 215.5,140.5C 210.206,138.855 205.539,136.189 201.5,132.5C 200.524,131.185 199.524,129.852 198.5,128.5C 199.171,127.054 200.338,126.388 202,126.5C 205.638,128.864 209.472,131.03 213.5,133C 214.793,133.49 216.127,133.657 217.5,133.5 Z"/></g>
<g><path style="opacity:1" fill="#24719e" d="M 262.5,133.5 C 259.977,134.851 257.311,136.017 254.5,137C 258.486,137.499 262.486,137.666 266.5,137.5C 266.5,137.833 266.5,138.167 266.5,138.5C 258.14,138.831 249.807,138.498 241.5,137.5C 248.406,135.652 255.406,134.319 262.5,133.5 Z"/></g>
<g><path style="opacity:1" fill="#43ade7" d="M 163.5,107.5 C 170.175,115.174 177.508,122.174 185.5,128.5C 188.167,130.833 190.833,133.167 193.5,135.5C 193.586,136.496 193.252,137.329 192.5,138C 190.5,139.333 188.5,140.667 186.5,142C 187.305,143.113 187.972,144.279 188.5,145.5C 182.942,142.122 177.776,138.122 173,133.5C 166.909,126.288 161.076,118.955 155.5,111.5C 155.918,110.778 156.584,110.278 157.5,110C 152.246,107.633 152.246,105.133 157.5,102.5C 159.272,104.62 161.272,106.287 163.5,107.5 Z"/></g>
<g><path style="opacity:1" fill="#152f41" d="M 114.5,91.5 C 115.143,93.0764 116.143,94.4097 117.5,95.5C 120.29,102.369 122.79,109.369 125,116.5C 126.03,118.346 127.196,120.013 128.5,121.5C 130.435,128.699 133.435,135.365 137.5,141.5C 139.981,147.13 142.981,152.463 146.5,157.5C 147.843,163.374 147.343,163.708 145,158.5C 143.374,158.854 141.541,158.854 139.5,158.5C 138.017,156.906 136.517,155.24 135,153.5C 131.958,146.832 128.458,140.499 124.5,134.5C 122.471,125.74 119.471,117.406 115.5,109.5C 114.589,105.002 113.089,100.668 111,96.5C 110.366,99.5547 110.532,102.555 111.5,105.5C 109.435,105.517 107.435,105.85 105.5,106.5C 105.5,105.5 105.5,104.5 105.5,103.5C 106.5,103.5 107.5,103.5 108.5,103.5C 108.785,101.712 108.452,100.045 107.5,98.5C 106.313,99.8938 105.646,99.7271 105.5,98C 106.723,95.9434 107.723,93.7767 108.5,91.5C 110.111,92.3202 110.778,93.6536 110.5,95.5C 111.833,95.5 113.167,95.5 114.5,95.5C 114.5,94.1667 114.5,92.8333 114.5,91.5 Z"/></g>
<g><path style="opacity:1" fill="#2c9eda" d="M 193.5,135.5 C 197.372,137.597 201.039,139.931 204.5,142.5C 204.937,144.074 205.937,145.241 207.5,146C 212.958,145.63 214.292,147.463 211.5,151.5C 210.333,151.833 209.167,152.167 208,152.5C 204.17,151.75 200.337,151.083 196.5,150.5C 193.296,149.617 190.629,147.95 188.5,145.5C 187.972,144.279 187.305,143.113 186.5,142C 188.5,140.667 190.5,139.333 192.5,138C 193.252,137.329 193.586,136.496 193.5,135.5 Z"/></g>
<g><path style="opacity:1" fill="#182b38" d="M 292.5,102.5 C 292.827,110.603 292.161,118.603 290.5,126.5C 289.883,126.611 289.383,126.944 289,127.5C 287.862,131.121 287.028,134.788 286.5,138.5C 286.107,140.284 285.441,141.95 284.5,143.5C 283.094,143.973 282.427,144.973 282.5,146.5C 281.32,149.54 279.653,152.206 277.5,154.5C 276.833,154.833 276.167,155.167 275.5,155.5C 275.189,154.522 274.522,153.855 273.5,153.5C 271.801,154.815 270.135,154.815 268.5,153.5C 268.611,152.883 268.944,152.383 269.5,152C 259.839,151.5 250.172,151.334 240.5,151.5C 234.296,149.672 234.296,148.672 240.5,148.5C 249.839,148.334 259.173,148.5 268.5,149C 270.307,149.928 271.974,151.094 273.5,152.5C 274.672,152.081 275.672,151.415 276.5,150.5C 270.053,149.036 270.053,147.37 276.5,145.5C 273.232,144.513 269.898,144.18 266.5,144.5C 267.853,143.133 267.519,142.133 265.5,141.5C 263.179,144.234 261.179,144.068 259.5,141C 265.7,140.159 271.7,138.992 277.5,137.5C 277.833,136.833 278.167,136.167 278.5,135.5C 279.167,135.5 279.833,135.5 280.5,135.5C 282.144,135.714 283.644,135.38 285,134.5C 286.289,131.649 286.789,128.649 286.5,125.5C 284.833,125.5 283.167,125.5 281.5,125.5C 281.615,123.053 282.615,121.053 284.5,119.5C 286.722,119.822 288.556,119.155 290,117.5C 290.732,112.339 291.566,107.339 292.5,102.5 Z"/></g>
<g><path style="opacity:1" fill="#22241a" d="M 113.5,140.5 C 116.42,142.662 118.087,145.662 118.5,149.5C 116.595,146.696 114.929,143.696 113.5,140.5 Z"/></g>
<g><path style="opacity:1" fill="#147fb9" d="M 223.5,135.5 C 229.074,137.788 234.741,139.788 240.5,141.5C 248.548,143.901 256.882,145.568 265.5,146.5C 257.193,147.498 248.86,147.831 240.5,147.5C 231.678,146.543 223.344,144.21 215.5,140.5C 219.747,140.822 223.747,139.989 227.5,138C 225.563,137.878 224.23,137.045 223.5,135.5 Z"/></g>
<g><path style="opacity:0.016" fill="#2a2513" d="M 292.5,137.5 C 291.36,143.121 288.694,147.788 284.5,151.5C 284.5,151.167 284.5,150.833 284.5,150.5C 286.513,146.473 288.513,142.473 290.5,138.5C 291.167,138.167 291.833,137.833 292.5,137.5 Z"/></g>
<g><path style="opacity:1" fill="#5c491b" d="M 284.5,143.5 C 284.573,145.027 283.906,146.027 282.5,146.5C 282.427,144.973 283.094,143.973 284.5,143.5 Z"/></g>
<g><path style="opacity:1" fill="#122e43" d="M 175.5,111.5 C 183.607,119.282 192.274,126.282 201.5,132.5C 205.539,136.189 210.206,138.855 215.5,140.5C 223.344,144.21 231.678,146.543 240.5,147.5C 240.5,147.833 240.5,148.167 240.5,148.5C 234.296,148.672 234.296,149.672 240.5,151.5C 232.759,150.727 225.093,149.393 217.5,147.5C 213.363,145.373 209.029,143.706 204.5,142.5C 201.039,139.931 197.372,137.597 193.5,135.5C 190.833,133.167 188.167,130.833 185.5,128.5C 186.209,127.596 187.209,127.263 188.5,127.5C 187.259,124.992 185.593,122.658 183.5,120.5C 181.827,118.914 179.827,118.247 177.5,118.5C 178.21,115.14 176.876,113.307 173.5,113C 174.044,112.283 174.711,111.783 175.5,111.5 Z"/></g>
<g><path style="opacity:0.537" fill="#393119" d="M 111.5,145.5 C 115.497,151.492 119.497,157.492 123.5,163.5C 118.441,159.088 114.441,153.754 111.5,147.5C 111.5,146.833 111.5,146.167 111.5,145.5 Z"/></g>
<g><path style="opacity:1" fill="#41ade6" d="M 158.5,126.5 C 165.167,133.833 172.167,140.833 179.5,147.5C 177.833,147.5 176.167,147.5 174.5,147.5C 174.5,148.833 174.5,150.167 174.5,151.5C 173.5,151.5 172.5,151.5 171.5,151.5C 171.5,152.5 171.5,153.5 171.5,154.5C 172.978,154.238 174.311,154.571 175.5,155.5C 174.286,157.754 172.619,158.087 170.5,156.5C 167.606,155.118 165.106,153.118 163,150.5C 159.204,146.551 156.037,142.217 153.5,137.5C 152.138,134.122 152.305,130.789 154,127.5C 155.226,125.452 156.726,125.119 158.5,126.5 Z"/></g>
<g><path style="opacity:1" fill="#143952" d="M 240.5,141.5 C 249.238,142.263 257.905,143.263 266.5,144.5C 269.898,144.18 273.232,144.513 276.5,145.5C 270.053,147.37 270.053,149.036 276.5,150.5C 275.672,151.415 274.672,152.081 273.5,152.5C 271.974,151.094 270.307,149.928 268.5,149C 259.173,148.5 249.839,148.334 240.5,148.5C 240.5,148.167 240.5,147.833 240.5,147.5C 248.86,147.831 257.193,147.498 265.5,146.5C 256.882,145.568 248.548,143.901 240.5,141.5 Z"/></g>
<g><path style="opacity:1" fill="#1e8dc6" d="M 204.5,142.5 C 209.029,143.706 213.363,145.373 217.5,147.5C 218.537,149.738 218.703,152.071 218,154.5C 215.702,153.554 213.868,154.221 212.5,156.5C 206.577,155.862 201.244,153.862 196.5,150.5C 200.337,151.083 204.17,151.75 208,152.5C 209.167,152.167 210.333,151.833 211.5,151.5C 214.292,147.463 212.958,145.63 207.5,146C 205.937,145.241 204.937,144.074 204.5,142.5 Z"/></g>
<g><path style="opacity:1" fill="#164b68" d="M 240.5,152.5 C 240.5,152.167 240.5,151.833 240.5,151.5C 250.172,151.334 259.839,151.5 269.5,152C 268.944,152.383 268.611,152.883 268.5,153.5C 266.565,154.15 264.565,154.483 262.5,154.5C 263.263,153.732 264.263,153.232 265.5,153C 257.173,152.5 248.84,152.334 240.5,152.5 Z"/></g>
<g><path style="opacity:1" fill="#1678a8" d="M 240.5,152.5 C 248.84,152.334 257.173,152.5 265.5,153C 264.263,153.232 263.263,153.732 262.5,154.5C 257.883,155.487 253.216,156.154 248.5,156.5C 248.918,155.778 249.584,155.278 250.5,155C 250.167,154.667 249.833,154.333 249.5,154C 246.305,153.819 243.305,153.319 240.5,152.5 Z"/></g>
<g><path style="opacity:1" fill="#0e83c1" d="M 217.5,147.5 C 225.093,149.393 232.759,150.727 240.5,151.5C 240.5,151.833 240.5,152.167 240.5,152.5C 243.305,153.319 246.305,153.819 249.5,154C 249.833,154.333 250.167,154.667 250.5,155C 249.584,155.278 248.918,155.778 248.5,156.5C 245.214,157.207 241.881,157.54 238.5,157.5C 229.815,157.536 221.149,157.203 212.5,156.5C 213.868,154.221 215.702,153.554 218,154.5C 218.703,152.071 218.537,149.738 217.5,147.5 Z"/></g>
<g><path style="opacity:0.169" fill="#473c1b" d="M 284.5,150.5 C 284.5,150.833 284.5,151.167 284.5,151.5C 282.363,156.783 279.03,161.116 274.5,164.5C 277.836,159.825 281.169,155.158 284.5,150.5 Z"/></g>
<g><path style="opacity:1" fill="#222a29" d="M 121.5,153.5 C 123.5,153.5 125.5,153.5 127.5,153.5C 127.368,156.57 127.701,159.57 128.5,162.5C 125.027,160.363 122.694,157.363 121.5,153.5 Z"/></g>
<g><path style="opacity:1" fill="#3498ce" d="M 124.5,134.5 C 128.458,140.499 131.958,146.832 135,153.5C 136.517,155.24 138.017,156.906 139.5,158.5C 144.099,166.101 150.099,172.434 157.5,177.5C 157.5,178.167 157.167,178.5 156.5,178.5C 153.807,177.153 151.14,175.82 148.5,174.5C 132.425,162.699 122.091,147.032 117.5,127.5C 117.5,126.167 117.5,124.833 117.5,123.5C 118.5,123.5 119.5,123.5 120.5,123.5C 120.128,127.887 121.461,131.554 124.5,134.5 Z"/></g>
<g><path style="opacity:1" fill="#5c4c18" d="M 277.5,154.5 C 277.573,156.027 276.906,157.027 275.5,157.5C 275.5,157.167 275.5,156.833 275.5,156.5C 275.5,156.167 275.5,155.833 275.5,155.5C 276.167,155.167 276.833,154.833 277.5,154.5 Z"/></g>
<g><path style="opacity:1" fill="#136396" d="M 212.5,157.5 C 212.5,157.167 212.5,156.833 212.5,156.5C 221.149,157.203 229.815,157.536 238.5,157.5C 230.975,158.748 223.308,158.748 215.5,157.5C 214.5,157.5 213.5,157.5 212.5,157.5 Z"/></g>
<g><path style="opacity:0.996" fill="#cda03e" d="M 297.5,109.5 C 297.167,112.167 296.833,114.833 296.5,117.5C 296.5,118.5 296.5,119.5 296.5,120.5C 294.817,126.548 292.817,132.548 290.5,138.5C 288.513,142.473 286.513,146.473 284.5,150.5C 281.169,155.158 277.836,159.825 274.5,164.5C 271.5,166.833 268.833,169.5 266.5,172.5C 266.5,173.167 266.167,173.5 265.5,173.5C 260.548,176.13 256.215,179.463 252.5,183.5C 251.035,184.737 249.368,185.737 247.5,186.5C 245.437,187.215 243.104,187.215 240.5,186.5C 243.09,185.251 245.424,183.584 247.5,181.5C 251.049,180.277 254.049,178.277 256.5,175.5C 256.833,175.5 257.167,175.5 257.5,175.5C 258.167,175.167 258.833,174.833 259.5,174.5C 262.764,172.906 265.431,170.573 267.5,167.5C 270.178,164.127 272.844,160.794 275.5,157.5C 276.906,157.027 277.573,156.027 277.5,154.5C 279.653,152.206 281.32,149.54 282.5,146.5C 283.906,146.027 284.573,145.027 284.5,143.5C 285.441,141.95 286.107,140.284 286.5,138.5C 287.736,136.351 288.736,134.018 289.5,131.5C 291.655,129.383 292.655,126.716 292.5,123.5C 292.963,120.518 293.296,117.518 293.5,114.5C 294.657,111.727 295.324,108.727 295.5,105.5C 296.325,101.353 296.825,97.0195 297,92.5C 297.499,98.1569 297.666,103.824 297.5,109.5 Z"/></g>
<g><path style="opacity:1" fill="#152b38" d="M 212.5,157.5 C 213.5,157.5 214.5,157.5 215.5,157.5C 215.611,158.117 215.944,158.617 216.5,159C 226.194,159.725 235.86,159.559 245.5,158.5C 245.5,159.5 245.5,160.5 245.5,161.5C 244.209,161.263 243.209,161.596 242.5,162.5C 242.167,162.5 241.833,162.5 241.5,162.5C 230.075,162.874 218.742,162.207 207.5,160.5C 207.5,159.5 207.5,158.5 207.5,157.5C 209.167,157.5 210.833,157.5 212.5,157.5 Z"/></g>
<g><path style="opacity:1" fill="#36a3dd" d="M 138.5,126.5 C 147.144,141.794 158.144,155.128 171.5,166.5C 171.577,167.75 172.244,168.583 173.5,169C 171.714,169.785 170.214,170.951 169,172.5C 168.667,172.167 168.333,171.833 168,171.5C 166.67,172.582 165.17,173.249 163.5,173.5C 157.197,168.865 151.531,163.531 146.5,157.5C 142.981,152.463 139.981,147.13 137.5,141.5C 140.5,142.167 143.5,142.833 146.5,143.5C 146.5,142.5 146.5,141.5 146.5,140.5C 145.325,140.719 144.325,140.386 143.5,139.5C 141.25,135.319 139.584,130.985 138.5,126.5 Z"/></g>
<g><path style="opacity:1" fill="#2c9eda" d="M 179.5,147.5 C 184.045,150.266 188.378,153.266 192.5,156.5C 187.167,157.167 187.167,157.833 192.5,158.5C 191.948,160.331 191.948,161.997 192.5,163.5C 191.167,163.833 189.833,164.167 188.5,164.5C 189.524,165.852 190.524,167.185 191.5,168.5C 183.133,166.819 176.133,162.819 170.5,156.5C 172.619,158.087 174.286,157.754 175.5,155.5C 174.311,154.571 172.978,154.238 171.5,154.5C 171.5,153.5 171.5,152.5 171.5,151.5C 172.5,151.5 173.5,151.5 174.5,151.5C 174.5,150.167 174.5,148.833 174.5,147.5C 176.167,147.5 177.833,147.5 179.5,147.5 Z"/></g>
<g><path style="opacity:1" fill="#1b92d1" d="M 192.5,156.5 C 197.71,157.57 202.71,159.237 207.5,161.5C 206.172,163.745 204.339,164.078 202,162.5C 201.691,163.766 201.191,164.933 200.5,166C 203.889,165.813 207.222,165.979 210.5,166.5C 208.5,167.333 206.5,168.167 204.5,169C 205.5,169.333 206.5,169.667 207.5,170C 203.209,169.804 198.876,169.637 194.5,169.5C 193.391,169.443 192.391,169.11 191.5,168.5C 190.524,167.185 189.524,165.852 188.5,164.5C 189.833,164.167 191.167,163.833 192.5,163.5C 191.948,161.997 191.948,160.331 192.5,158.5C 187.167,157.833 187.167,157.167 192.5,156.5 Z"/></g>
<g><path style="opacity:1" fill="#1f2a2f" d="M 275.5,156.5 C 275.5,156.833 275.5,157.167 275.5,157.5C 272.844,160.794 270.178,164.127 267.5,167.5C 265.589,168.075 263.922,169.075 262.5,170.5C 262.5,169.167 262.5,167.833 262.5,166.5C 263.978,166.762 265.311,166.429 266.5,165.5C 265.675,164.614 264.675,164.281 263.5,164.5C 263.5,163.5 263.5,162.5 263.5,161.5C 265.833,161.5 268.167,161.5 270.5,161.5C 270.36,159.876 271.027,158.71 272.5,158C 271.5,157.667 270.5,157.333 269.5,157C 271.473,156.505 273.473,156.338 275.5,156.5 Z"/></g>
<g><path style="opacity:1" fill="#156fa2" d="M 251.5,165.5 C 247.803,166.008 244.136,166.674 240.5,167.5C 241.589,165.883 243.256,165.05 245.5,165C 236.657,164.83 227.99,164.33 219.5,163.5C 227.019,163.825 234.352,163.492 241.5,162.5C 241.833,162.5 242.167,162.5 242.5,162.5C 249.552,161.719 256.552,160.886 263.5,160C 259.262,161.542 255.262,163.375 251.5,165.5 Z"/></g>
<g><path style="opacity:1" fill="#142f42" d="M 268.5,153.5 C 270.135,154.815 271.801,154.815 273.5,153.5C 274.522,153.855 275.189,154.522 275.5,155.5C 275.5,155.833 275.5,156.167 275.5,156.5C 273.473,156.338 271.473,156.505 269.5,157C 270.5,157.333 271.5,157.667 272.5,158C 271.027,158.71 270.36,159.876 270.5,161.5C 268.167,161.5 265.833,161.5 263.5,161.5C 263.5,162.5 263.5,163.5 263.5,164.5C 264.675,164.281 265.675,164.614 266.5,165.5C 265.311,166.429 263.978,166.762 262.5,166.5C 262.5,167.833 262.5,169.167 262.5,170.5C 258.5,169.833 256.833,171.5 257.5,175.5C 257.167,175.5 256.833,175.5 256.5,175.5C 255.542,175.047 254.708,174.381 254,173.5C 250.318,174.854 247.318,177.187 245,180.5C 242.618,179.134 240.452,179.467 238.5,181.5C 237.914,181.291 237.414,180.957 237,180.5C 233.951,181.61 230.784,182.277 227.5,182.5C 236.644,179.401 245.644,175.734 254.5,171.5C 255.298,171.043 255.631,170.376 255.5,169.5C 253.983,168.265 252.316,168.265 250.5,169.5C 250.167,169 249.833,168.5 249.5,168C 250.056,166.989 250.722,166.156 251.5,165.5C 255.262,163.375 259.262,161.542 263.5,160C 256.552,160.886 249.552,161.719 242.5,162.5C 243.209,161.596 244.209,161.263 245.5,161.5C 245.5,160.5 245.5,159.5 245.5,158.5C 235.86,159.559 226.194,159.725 216.5,159C 215.944,158.617 215.611,158.117 215.5,157.5C 223.308,158.748 230.975,158.748 238.5,157.5C 241.881,157.54 245.214,157.207 248.5,156.5C 253.216,156.154 257.883,155.487 262.5,154.5C 264.565,154.483 266.565,154.15 268.5,153.5 Z"/></g>
<g><path style="opacity:0.373" fill="#453915" d="M 123.5,163.5 C 126.785,166.118 129.785,169.118 132.5,172.5C 132.5,172.833 132.5,173.167 132.5,173.5C 128.788,170.789 125.788,167.456 123.5,163.5 Z"/></g>
<g><path style="opacity:1" fill="#3f3b16" d="M 130.5,165.5 C 133.764,167.094 136.431,169.427 138.5,172.5C 135.236,170.906 132.569,168.573 130.5,165.5 Z"/></g>
<g><path style="opacity:1" fill="#0d83c2" d="M 207.5,161.5 C 211.342,163.002 215.342,163.668 219.5,163.5C 227.99,164.33 236.657,164.83 245.5,165C 243.256,165.05 241.589,165.883 240.5,167.5C 234.353,169.619 228.02,170.953 221.5,171.5C 213.799,171.691 206.132,171.358 198.5,170.5C 196.901,170.768 195.568,170.434 194.5,169.5C 198.876,169.637 203.209,169.804 207.5,170C 206.5,169.667 205.5,169.333 204.5,169C 206.5,168.167 208.5,167.333 210.5,166.5C 207.222,165.979 203.889,165.813 200.5,166C 201.191,164.933 201.691,163.766 202,162.5C 204.339,164.078 206.172,163.745 207.5,161.5 Z"/></g>
<g><path style="opacity:0.055" fill="#3c3712" d="M 274.5,164.5 C 272.833,168.167 270.167,170.833 266.5,172.5C 268.833,169.5 271.5,166.833 274.5,164.5 Z"/></g>
<g><path style="opacity:1" fill="#132e40" d="M 251.5,165.5 C 250.722,166.156 250.056,166.989 249.5,168C 249.833,168.5 250.167,169 250.5,169.5C 252.316,168.265 253.983,168.265 255.5,169.5C 244.999,172.588 234.332,175.255 223.5,177.5C 212.715,177.813 202.048,177.146 191.5,175.5C 190.942,174.21 189.942,173.377 188.5,173C 188.833,172.667 189.167,172.333 189.5,172C 193.51,171.643 197.51,171.81 201.5,172.5C 208.354,172.824 215.021,172.491 221.5,171.5C 228.02,170.953 234.353,169.619 240.5,167.5C 244.136,166.674 247.803,166.008 251.5,165.5 Z"/></g>
<g><path style="opacity:1" fill="#0a5176" d="M 198.5,170.5 C 206.132,171.358 213.799,171.691 221.5,171.5C 215.021,172.491 208.354,172.824 201.5,172.5C 200.5,171.833 199.5,171.167 198.5,170.5 Z"/></g>
<g><path style="opacity:1" fill="#242c21" d="M 262.5,170.5 C 261.5,171.833 260.5,173.167 259.5,174.5C 258.833,174.833 258.167,175.167 257.5,175.5C 256.833,171.5 258.5,169.833 262.5,170.5 Z"/></g>
<g><path style="opacity:1" fill="#a38334" d="M 267.5,167.5 C 265.431,170.573 262.764,172.906 259.5,174.5C 260.5,173.167 261.5,171.833 262.5,170.5C 263.922,169.075 265.589,168.075 267.5,167.5 Z"/></g>
<g><path style="opacity:1" fill="#1c91ce" d="M 171.5,166.5 C 177.176,170.838 183.51,173.838 190.5,175.5C 191.833,176.167 193.167,176.833 194.5,177.5C 193.127,177.343 191.793,177.51 190.5,178C 190.899,179.294 190.899,180.794 190.5,182.5C 189.14,180.152 187.473,179.985 185.5,182C 186.167,182.333 186.833,182.667 187.5,183C 187.272,183.399 186.938,183.565 186.5,183.5C 185.167,183.5 183.833,183.5 182.5,183.5C 179.833,182.833 177.167,182.167 174.5,181.5C 170.691,179.089 167.024,176.422 163.5,173.5C 165.17,173.249 166.67,172.582 168,171.5C 168.333,171.833 168.667,172.167 169,172.5C 170.214,170.951 171.714,169.785 173.5,169C 172.244,168.583 171.577,167.75 171.5,166.5 Z"/></g>
<g><path style="opacity:1" fill="#0e4e6f" d="M 190.5,175.5 C 190.833,175.5 191.167,175.5 191.5,175.5C 202.048,177.146 212.715,177.813 223.5,177.5C 214.319,178.702 204.986,178.702 195.5,177.5C 195.167,177.5 194.833,177.5 194.5,177.5C 193.167,176.833 191.833,176.167 190.5,175.5 Z"/></g>
<g><path style="opacity:0.443" fill="#78652b" d="M 132.5,173.5 C 132.5,173.167 132.5,172.833 132.5,172.5C 137.789,175.465 142.456,179.132 146.5,183.5C 141.555,180.555 136.888,177.221 132.5,173.5 Z"/></g>
<g><path style="opacity:1" fill="#303125" d="M 138.5,172.5 C 140.436,173.259 142.269,174.259 144,175.5C 145.44,174.852 146.94,174.519 148.5,174.5C 147.637,175.94 147.637,177.274 148.5,178.5C 152.174,180.512 155.841,182.512 159.5,184.5C 159.833,185.167 160.167,185.833 160.5,186.5C 151.843,183.83 144.51,179.164 138.5,172.5 Z"/></g>
<g><path style="opacity:1" fill="#0686cb" d="M 194.5,177.5 C 194.833,177.5 195.167,177.5 195.5,177.5C 197.311,180.779 199.977,181.446 203.5,179.5C 207.817,180.132 212.15,180.632 216.5,181C 217.833,181.667 217.833,182.333 216.5,183C 206.386,184.738 196.386,184.905 186.5,183.5C 186.938,183.565 187.272,183.399 187.5,183C 186.833,182.667 186.167,182.333 185.5,182C 187.473,179.985 189.14,180.152 190.5,182.5C 190.899,180.794 190.899,179.294 190.5,178C 191.793,177.51 193.127,177.343 194.5,177.5 Z"/></g>
<g><path style="opacity:1" fill="#127db7" d="M 255.5,169.5 C 255.631,170.376 255.298,171.043 254.5,171.5C 245.644,175.734 236.644,179.401 227.5,182.5C 215.669,185.117 203.669,186.117 191.5,185.5C 188.171,185.785 185.171,185.118 182.5,183.5C 183.833,183.5 185.167,183.5 186.5,183.5C 196.386,184.905 206.386,184.738 216.5,183C 217.833,182.333 217.833,181.667 216.5,181C 212.15,180.632 207.817,180.132 203.5,179.5C 199.977,181.446 197.311,180.779 195.5,177.5C 204.986,178.702 214.319,178.702 223.5,177.5C 234.332,175.255 244.999,172.588 255.5,169.5 Z"/></g>
<g><path style="opacity:0.106" fill="#8b6e2e" d="M 265.5,173.5 C 262.046,177.951 257.713,181.284 252.5,183.5C 256.215,179.463 260.548,176.13 265.5,173.5 Z"/></g>
<g><path style="opacity:1" fill="#142e41" d="M 146.5,157.5 C 151.531,163.531 157.197,168.865 163.5,173.5C 167.024,176.422 170.691,179.089 174.5,181.5C 172.234,181.859 170.401,181.192 169,179.5C 166.432,183.031 163.265,184.698 159.5,184.5C 155.841,182.512 152.174,180.512 148.5,178.5C 147.637,177.274 147.637,175.94 148.5,174.5C 151.14,175.82 153.807,177.153 156.5,178.5C 158.573,181.037 161.24,182.204 164.5,182C 162.138,180.489 159.805,178.989 157.5,177.5C 150.099,172.434 144.099,166.101 139.5,158.5C 141.541,158.854 143.374,158.854 145,158.5C 147.343,163.708 147.843,163.374 146.5,157.5 Z"/></g>
<g><path style="opacity:1" fill="#2b556d" d="M 157.5,177.5 C 159.805,178.989 162.138,180.489 164.5,182C 161.24,182.204 158.573,181.037 156.5,178.5C 157.167,178.5 157.5,178.167 157.5,177.5 Z"/></g>
<g><path style="opacity:1" fill="#3b3716" d="M 247.5,181.5 C 245.424,183.584 243.09,185.251 240.5,186.5C 239.833,186.5 239.167,186.5 238.5,186.5C 240.474,185.094 242.474,183.594 244.5,182C 245.448,181.517 246.448,181.351 247.5,181.5 Z"/></g>
<g><path style="opacity:0.969" fill="#cba13f" d="M 106.5,122.5 C 106.5,122.833 106.5,123.167 106.5,123.5C 106.259,125.898 106.926,127.898 108.5,129.5C 109.63,131.315 110.296,133.315 110.5,135.5C 110.427,137.027 111.094,138.027 112.5,138.5C 112.328,139.492 112.662,140.158 113.5,140.5C 114.929,143.696 116.595,146.696 118.5,149.5C 119.026,151.23 120.026,152.564 121.5,153.5C 122.694,157.363 125.027,160.363 128.5,162.5C 129.167,163.5 129.833,164.5 130.5,165.5C 132.569,168.573 135.236,170.906 138.5,172.5C 144.51,179.164 151.843,183.83 160.5,186.5C 162.684,188.585 165.351,189.585 168.5,189.5C 170.315,190.63 172.315,191.296 174.5,191.5C 176.663,192.469 178.996,193.302 181.5,194C 187.813,194.765 194.146,195.265 200.5,195.5C 205.424,195.646 210.091,194.979 214.5,193.5C 217.545,193.492 220.545,193.159 223.5,192.5C 226.578,192.38 229.245,191.38 231.5,189.5C 234.018,188.736 236.351,187.736 238.5,186.5C 239.167,186.5 239.833,186.5 240.5,186.5C 243.104,187.215 245.437,187.215 247.5,186.5C 245.727,187.892 243.727,189.059 241.5,190C 234.01,192.44 226.676,194.94 219.5,197.5C 206.167,197.5 192.833,197.5 179.5,197.5C 174.675,195.669 169.675,194.003 164.5,192.5C 164.53,191.503 164.03,190.836 163,190.5C 159.316,188.829 155.649,187.163 152,185.5C 151.601,185.728 151.435,186.062 151.5,186.5C 149.632,185.737 147.965,184.737 146.5,183.5C 142.456,179.132 137.789,175.465 132.5,172.5C 129.785,169.118 126.785,166.118 123.5,163.5C 119.497,157.492 115.497,151.492 111.5,145.5C 108.67,140.163 106.67,134.497 105.5,128.5C 104.565,125.887 104.398,123.221 105,120.5C 105.278,121.416 105.778,122.082 106.5,122.5 Z"/></g>
<g><path style="opacity:1" fill="#192a38" d="M 256.5,175.5 C 254.049,178.277 251.049,180.277 247.5,181.5C 246.448,181.351 245.448,181.517 244.5,182C 242.474,183.594 240.474,185.094 238.5,186.5C 229.995,187.62 221.995,189.954 214.5,193.5C 201.096,193.829 187.762,193.162 174.5,191.5C 172.315,191.296 170.315,190.63 168.5,189.5C 166.316,187.415 163.649,186.415 160.5,186.5C 160.167,185.833 159.833,185.167 159.5,184.5C 163.265,184.698 166.432,183.031 169,179.5C 170.401,181.192 172.234,181.859 174.5,181.5C 177.167,182.167 179.833,182.833 182.5,183.5C 185.171,185.118 188.171,185.785 191.5,185.5C 203.322,186.495 215.322,186.828 227.5,186.5C 227.5,185.167 227.5,183.833 227.5,182.5C 230.784,182.277 233.951,181.61 237,180.5C 237.414,180.957 237.914,181.291 238.5,181.5C 240.452,179.467 242.618,179.134 245,180.5C 247.318,177.187 250.318,174.854 254,173.5C 254.708,174.381 255.542,175.047 256.5,175.5 Z"/></g>
<g><path style="opacity:1" fill="#133852" d="M 227.5,182.5 C 227.5,183.833 227.5,185.167 227.5,186.5C 215.322,186.828 203.322,186.495 191.5,185.5C 203.669,186.117 215.669,185.117 227.5,182.5 Z"/></g>
<g><path style="opacity:1" fill="#3c3718" d="M 160.5,186.5 C 163.649,186.415 166.316,187.415 168.5,189.5C 165.351,189.585 162.684,188.585 160.5,186.5 Z"/></g>
<g><path style="opacity:1" fill="#2a2e23" d="M 238.5,186.5 C 236.351,187.736 234.018,188.736 231.5,189.5C 228.422,189.62 225.755,190.62 223.5,192.5C 220.545,193.159 217.545,193.492 214.5,193.5C 221.995,189.954 229.995,187.62 238.5,186.5 Z"/></g>
<g><path style="opacity:0.059" fill="#a28336" d="M 164.5,192.5 C 159.75,191.257 155.416,189.257 151.5,186.5C 151.435,186.062 151.601,185.728 152,185.5C 155.649,187.163 159.316,188.829 163,190.5C 164.03,190.836 164.53,191.503 164.5,192.5 Z"/></g>
<g><path style="opacity:1" fill="#937731" d="M 231.5,189.5 C 229.245,191.38 226.578,192.38 223.5,192.5C 225.755,190.62 228.422,189.62 231.5,189.5 Z"/></g>
<g><path style="opacity:1" fill="#473e17" d="M 174.5,191.5 C 187.762,193.162 201.096,193.829 214.5,193.5C 210.091,194.979 205.424,195.646 200.5,195.5C 194.146,195.265 187.813,194.765 181.5,194C 178.996,193.302 176.663,192.469 174.5,191.5 Z"/></g>
</svg>
