<?xml version="1.0" encoding="UTF-8"?>
<!DOCTYPE svg PUBLIC "-//W3C//DTD SVG 1.1//EN" "http://www.w3.org/Graphics/SVG/1.1/DTD/svg11.dtd">
<svg xmlns="http://www.w3.org/2000/svg" version="1.1" width="400px" height="198px" style="shape-rendering:geometricPrecision; text-rendering:geometricPrecision; image-rendering:optimizeQuality; fill-rule:evenodd; clip-rule:evenodd" xmlns:xlink="http://www.w3.org/1999/xlink">
<g><path style="opacity:0.275" fill="#ce9077" d="M 143.5,-0.5 C 144.167,-0.5 144.833,-0.5 145.5,-0.5C 145.595,1.7857 146.262,3.7857 147.5,5.5C 147.5,6.16667 147.5,6.83333 147.5,7.5C 145.229,5.3877 143.896,2.72104 143.5,-0.5 Z"/></g>
<g><path style="opacity:1" fill="#c2723b" d="M 162.5,-0.5 C 174.167,-0.5 185.833,-0.5 197.5,-0.5C 197.5,-0.166667 197.5,0.166667 197.5,0.5C 197.5,2.5 197.5,4.5 197.5,6.5C 191.167,6.5 184.833,6.5 178.5,6.5C 178.167,6.5 177.833,6.5 177.5,6.5C 174.023,5.6773 170.356,5.1773 166.5,5C 164.254,3.7432 162.921,1.90987 162.5,-0.5 Z"/></g>
<g><path style="opacity:1" fill="#d1975b" d="M 197.5,0.5 C 197.5,0.166667 197.5,-0.166667 197.5,-0.5C 207.5,-0.5 217.5,-0.5 227.5,-0.5C 226.081,0.451145 224.415,0.784479 222.5,0.5C 220.5,0.5 218.5,0.5 216.5,0.5C 216.5,2.16667 216.5,3.83333 216.5,5.5C 210.5,5.5 204.5,5.5 198.5,5.5C 198.784,3.58533 198.451,1.91866 197.5,0.5 Z"/></g>
<g><path style="opacity:1" fill="#ce9b53" d="M 227.5,-0.5 C 234.833,-0.5 242.167,-0.5 249.5,-0.5C 249.737,0.791047 249.404,1.79105 248.5,2.5C 241.687,1.50881 234.687,1.17547 227.5,1.5C 226.566,2.56764 226.232,3.90097 226.5,5.5C 225.167,5.5 223.833,5.5 222.5,5.5C 222.5,3.83333 222.5,2.16667 222.5,0.5C 224.415,0.784479 226.081,0.451145 227.5,-0.5 Z"/></g>
<g><path style="opacity:0.318" fill="#e0be90" d="M 249.5,-0.5 C 250.167,-0.5 250.833,-0.5 251.5,-0.5C 250.763,1.60849 250.096,3.77516 249.5,6C 249.164,7.02992 248.497,7.52992 247.5,7.5C 248.038,5.88277 248.371,4.2161 248.5,2.5C 249.404,1.79105 249.737,0.791047 249.5,-0.5 Z"/></g>
<g><path style="opacity:1" fill="#b25934" d="M 150.5,-0.5 C 154.5,-0.5 158.5,-0.5 162.5,-0.5C 162.921,1.90987 164.254,3.7432 166.5,5C 170.356,5.1773 174.023,5.6773 177.5,6.5C 169.5,6.5 161.5,6.5 153.5,6.5C 152.659,4.18789 151.659,1.85455 150.5,-0.5 Z"/></g>
<g><path style="opacity:0.999" fill="#c18537" d="M 227.5,1.5 C 234.687,1.17547 241.687,1.50881 248.5,2.5C 248.371,4.2161 248.038,5.88277 247.5,7.5C 246.167,7.5 245.5,8.16667 245.5,9.5C 245.167,9.5 244.833,9.5 244.5,9.5C 244.5,8.5 244.5,7.5 244.5,6.5C 238.833,6.5 233.167,6.5 227.5,6.5C 227.5,4.83333 227.5,3.16667 227.5,1.5 Z"/></g>
<g><path style="opacity:0.137" fill="#e9c9ab" d="M 107.5,4.5 C 118.833,4.5 130.167,4.5 141.5,4.5C 141.5,5.5 141.5,6.5 141.5,7.5C 130.24,5.87769 118.907,4.87769 107.5,4.5 Z"/></g>
<g><path style="opacity:1" fill="#c78747" d="M 197.5,0.5 C 198.451,1.91866 198.784,3.58533 198.5,5.5C 204.5,5.5 210.5,5.5 216.5,5.5C 216.5,3.83333 216.5,2.16667 216.5,0.5C 218.5,0.5 220.5,0.5 222.5,0.5C 222.5,2.16667 222.5,3.83333 222.5,5.5C 223.833,5.5 225.167,5.5 226.5,5.5C 226.232,3.90097 226.566,2.56764 227.5,1.5C 227.5,3.16667 227.5,4.83333 227.5,6.5C 225.5,6.5 223.5,6.5 221.5,6.5C 213.5,6.5 205.5,6.5 197.5,6.5C 197.5,4.5 197.5,2.5 197.5,0.5 Z"/></g>
<g><path style="opacity:0.775" fill="#d7a56d" d="M 255.5,4.5 C 266.884,3.85637 277.884,4.52303 288.5,6.5C 285.5,6.5 282.5,6.5 279.5,6.5C 279.5,7.83333 279.5,9.16667 279.5,10.5C 278.167,10.5 276.833,10.5 275.5,10.5C 275.5,9.16667 275.5,7.83333 275.5,6.5C 274.5,6.5 273.5,6.5 272.5,6.5C 272.5,7.83333 272.5,9.16667 272.5,10.5C 270.5,10.5 268.5,10.5 266.5,10.5C 266.5,9.16667 266.5,7.83333 266.5,6.5C 262.833,6.5 259.167,6.5 255.5,6.5C 255.5,5.83333 255.5,5.16667 255.5,4.5 Z"/></g>
<g><path style="opacity:1" fill="#d0935a" d="M 107.5,4.5 C 118.907,4.87769 130.24,5.87769 141.5,7.5C 141.053,11.4899 141.72,15.4899 143.5,19.5C 139.997,15.9695 138.663,11.6361 139.5,6.5C 137.167,6.5 134.833,6.5 132.5,6.5C 132.5,7.83333 132.5,9.16667 132.5,10.5C 131.5,10.5 130.5,10.5 129.5,10.5C 129.5,9.16667 129.5,7.83333 129.5,6.5C 128.167,6.5 126.833,6.5 125.5,6.5C 125.5,7.83333 125.5,9.16667 125.5,10.5C 123.167,10.5 120.833,10.5 118.5,10.5C 118.5,9.16667 118.5,7.83333 118.5,6.5C 115.167,6.5 111.833,6.5 108.5,6.5C 108.167,6.5 107.833,6.5 107.5,6.5C 106.833,6.83333 106.167,7.16667 105.5,7.5C 105.427,5.97306 106.094,4.97306 107.5,4.5 Z"/></g>
<g><path style="opacity:1" fill="#8d3b21" d="M 153.5,6.5 C 161.5,6.5 169.5,6.5 177.5,6.5C 177.833,6.5 178.167,6.5 178.5,6.5C 178.833,7.16667 179.167,7.83333 179.5,8.5C 170.812,8.41346 162.146,8.74679 153.5,9.5C 153.5,8.5 153.5,7.5 153.5,6.5 Z"/></g>
<g><path style="opacity:1" fill="#c17436" d="M 255.5,6.5 C 259.167,6.5 262.833,6.5 266.5,6.5C 266.5,7.83333 266.5,9.16667 266.5,10.5C 268.5,10.5 270.5,10.5 272.5,10.5C 272.5,9.16667 272.5,7.83333 272.5,6.5C 273.5,6.5 274.5,6.5 275.5,6.5C 275.5,7.83333 275.5,9.16667 275.5,10.5C 276.833,10.5 278.167,10.5 279.5,10.5C 280.5,10.5 281.5,10.5 282.5,10.5C 281.674,16.2991 280.341,21.9658 278.5,27.5C 277.501,30.1618 276.501,32.8284 275.5,35.5C 273.992,37.1815 272.992,39.1815 272.5,41.5C 270.686,43.7641 268.853,46.0975 267,48.5C 266.667,51.1667 266.333,53.8333 266,56.5C 261.522,61.4911 256.689,65.8245 251.5,69.5C 251.5,70.1667 251.167,70.5 250.5,70.5C 250.158,69.6618 249.492,69.3284 248.5,69.5C 248.144,67.8102 247.144,66.8102 245.5,66.5C 248.944,64.264 252.277,61.764 255.5,59C 257.025,57.9914 258.692,57.4914 260.5,57.5C 261.167,55.1667 261.833,52.8333 262.5,50.5C 264.5,50.5 265.5,49.5 265.5,47.5C 267.822,46.1979 269.155,44.1979 269.5,41.5C 272.535,38.0976 274.535,34.0976 275.5,29.5C 278.036,24.202 279.703,18.5353 280.5,12.5C 274.167,11.1667 267.833,11.1667 261.5,12.5C 259.861,16.4524 258.195,20.4524 256.5,24.5C 255.833,25.8333 254.833,26.8333 253.5,27.5C 251.716,27.8925 250.05,28.5592 248.5,29.5C 248.167,29.5 247.833,29.5 247.5,29.5C 246.668,25.5031 248.168,22.8364 252,21.5C 255.008,16.9474 256.174,11.9474 255.5,6.5 Z"/></g>
<g><path style="opacity:1" fill="#c28737" d="M 288.5,6.5 C 288.5,7.5 288.5,8.5 288.5,9.5C 286.764,18.444 284.097,27.1107 280.5,35.5C 279.833,32.8333 279.167,30.1667 278.5,27.5C 280.341,21.9658 281.674,16.2991 282.5,10.5C 281.5,10.5 280.5,10.5 279.5,10.5C 279.5,9.16667 279.5,7.83333 279.5,6.5C 282.5,6.5 285.5,6.5 288.5,6.5 Z"/></g>
<g><path style="opacity:1" fill="#ab5727" d="M 178.5,6.5 C 184.833,6.5 191.167,6.5 197.5,6.5C 205.5,6.5 213.5,6.5 221.5,6.5C 228.648,7.49163 235.981,7.82497 243.5,7.5C 243.5,8.83333 243.5,10.1667 243.5,11.5C 235.521,10.7758 227.521,10.4425 219.5,10.5C 217.833,10.5 216.167,10.5 214.5,10.5C 203.012,9.50507 191.345,9.17174 179.5,9.5C 179.5,9.16667 179.5,8.83333 179.5,8.5C 179.167,7.83333 178.833,7.16667 178.5,6.5 Z"/></g>
<g><path style="opacity:0.704" fill="#c67d61" d="M 255.5,4.5 C 255.5,5.16667 255.5,5.83333 255.5,6.5C 254.715,8.37358 254.048,10.3736 253.5,12.5C 253.167,12.5 252.833,12.5 252.5,12.5C 251.901,9.05239 252.901,6.38573 255.5,4.5 Z"/></g>
<g><path style="opacity:0.778" fill="#c57954" d="M 107.5,6.5 C 107.5,9.5 107.5,12.5 107.5,15.5C 106.833,14.8333 106.167,14.1667 105.5,13.5C 105.5,11.5 105.5,9.5 105.5,7.5C 106.167,7.16667 106.833,6.83333 107.5,6.5 Z"/></g>
<g><path style="opacity:1" fill="#9f4729" d="M 145.5,-0.5 C 147.167,-0.5 148.833,-0.5 150.5,-0.5C 151.659,1.85455 152.659,4.18789 153.5,6.5C 153.5,7.5 153.5,8.5 153.5,9.5C 162.146,8.74679 170.812,8.41346 179.5,8.5C 179.5,8.83333 179.5,9.16667 179.5,9.5C 179.167,9.5 178.833,9.5 178.5,9.5C 172.358,9.09986 166.358,9.76653 160.5,11.5C 163.787,26.1949 167.787,40.6949 172.5,55C 172.836,56.0299 173.503,56.5299 174.5,56.5C 175.5,59.1667 176.5,61.8333 177.5,64.5C 176.833,72.1667 176.167,79.8333 175.5,87.5C 172.865,84.921 170.699,81.921 169,78.5C 164.298,69.3485 160.964,59.6818 159,49.5C 156.429,34.816 153.929,20.1493 151.5,5.5C 150.167,5.5 148.833,5.5 147.5,5.5C 146.262,3.7857 145.595,1.7857 145.5,-0.5 Z"/></g>
<g><path style="opacity:1" fill="#b25a32" d="M 178.5,9.5 C 177.828,10.2674 176.995,10.9341 176,11.5C 175.501,16.8229 175.334,22.1563 175.5,27.5C 174.514,23.03 174.181,18.3633 174.5,13.5C 171.813,13.3359 169.146,13.5026 166.5,14C 166.704,26.4621 169.704,38.2954 175.5,49.5C 175.317,51.8211 174.984,54.1544 174.5,56.5C 173.503,56.5299 172.836,56.0299 172.5,55C 167.787,40.6949 163.787,26.1949 160.5,11.5C 166.358,9.76653 172.358,9.09986 178.5,9.5 Z"/></g>
<g><path style="opacity:1" fill="#b25b2e" d="M 178.5,9.5 C 178.833,9.5 179.167,9.5 179.5,9.5C 179.749,24.0751 182.416,38.0751 187.5,51.5C 187.223,54.4475 187.556,57.2809 188.5,60C 192.821,60.499 197.154,60.6657 201.5,60.5C 198.311,61.1661 194.977,61.8328 191.5,62.5C 193.178,65.1947 194.844,67.8614 196.5,70.5C 195.772,75.4512 195.272,80.4512 195,85.5C 193.893,84.2881 193.393,84.6214 193.5,86.5C 187.006,80.0068 181.673,72.6735 177.5,64.5C 176.5,61.8333 175.5,59.1667 174.5,56.5C 174.984,54.1544 175.317,51.8211 175.5,49.5C 177.657,52.4706 179.824,55.4706 182,58.5C 180.667,52.5139 179.001,46.5139 177,40.5C 176.417,36.1679 175.917,31.8346 175.5,27.5C 175.334,22.1563 175.501,16.8229 176,11.5C 176.995,10.9341 177.828,10.2674 178.5,9.5 Z"/></g>
<g><path style="opacity:1" fill="#c07137" d="M 179.5,9.5 C 191.345,9.17174 203.012,9.50507 214.5,10.5C 212.833,10.5 211.167,10.5 209.5,10.5C 204.821,10.3342 200.155,10.5008 195.5,11C 196.5,11.5 197.5,12 198.5,12.5C 199.491,16.4454 199.824,20.4454 199.5,24.5C 197.265,24.2053 195.265,24.5386 193.5,25.5C 192.5,26.1667 191.5,26.8333 190.5,27.5C 189.883,27.6107 189.383,27.944 189,28.5C 188.502,31.4816 188.335,34.4816 188.5,37.5C 192.833,38.3147 195.166,36.648 195.5,32.5C 200.339,31.6766 202.673,33.6766 202.5,38.5C 199.306,39.7576 195.973,40.4242 192.5,40.5C 192.5,42.5 192.5,44.5 192.5,46.5C 196.192,45.9712 199.358,46.9712 202,49.5C 202.72,51.1124 202.554,52.6124 201.5,54C 199.527,54.4955 197.527,54.6621 195.5,54.5C 194.699,52.9582 194.366,51.2915 194.5,49.5C 192.265,49.2053 190.265,49.5386 188.5,50.5C 187.833,50.5 187.5,50.8333 187.5,51.5C 182.416,38.0751 179.749,24.0751 179.5,9.5 Z"/></g>
<g><path style="opacity:1" fill="#c27836" d="M 209.5,10.5 C 209.295,16.8778 209.628,23.2111 210.5,29.5C 208.711,28.1228 206.711,27.1228 204.5,26.5C 201.038,25.5184 197.371,25.185 193.5,25.5C 195.265,24.5386 197.265,24.2053 199.5,24.5C 199.824,20.4454 199.491,16.4454 198.5,12.5C 197.5,12 196.5,11.5 195.5,11C 200.155,10.5008 204.821,10.3342 209.5,10.5 Z"/></g>
<g><path style="opacity:1" fill="#b1692c" d="M 221.5,6.5 C 223.5,6.5 225.5,6.5 227.5,6.5C 233.167,6.5 238.833,6.5 244.5,6.5C 244.5,7.5 244.5,8.5 244.5,9.5C 244.5,10.5 244.5,11.5 244.5,12.5C 241.167,12.5 237.833,12.5 234.5,12.5C 229.5,11.8333 224.5,11.1667 219.5,10.5C 227.521,10.4425 235.521,10.7758 243.5,11.5C 243.5,10.1667 243.5,8.83333 243.5,7.5C 235.981,7.82497 228.648,7.49163 221.5,6.5 Z"/></g>
<g><path style="opacity:0.267" fill="#b5613e" d="M 261.5,12.5 C 267.833,11.1667 274.167,11.1667 280.5,12.5C 279.508,12.3284 278.842,12.6618 278.5,13.5C 273.167,13.5 267.833,13.5 262.5,13.5C 262.5,12.8333 262.167,12.5 261.5,12.5 Z"/></g>
<g><path style="opacity:1" fill="#c17d37" d="M 209.5,10.5 C 211.167,10.5 212.833,10.5 214.5,10.5C 216.167,10.5 217.833,10.5 219.5,10.5C 224.5,11.1667 229.5,11.8333 234.5,12.5C 231.287,12.19 228.287,12.5233 225.5,13.5C 221.358,14.0397 217.358,14.7063 213.5,15.5C 213.333,33.5031 213.5,51.5031 214,69.5C 214.717,68.9558 215.217,68.2891 215.5,67.5C 216.787,66.4715 217.954,66.8048 219,68.5C 222.879,66.9926 226.046,64.6593 228.5,61.5C 230.248,64.9982 229.248,67.6648 225.5,69.5C 225.624,70.1067 225.957,70.44 226.5,70.5C 223.669,72.4168 220.669,74.0834 217.5,75.5C 215.473,75.6621 213.473,75.4955 211.5,75C 212.428,74.6121 213.095,73.9454 213.5,73C 212.904,67.8369 212.238,62.6702 211.5,57.5C 210.67,63.1376 210.17,68.8042 210,74.5C 209.807,69.2497 209.307,64.083 208.5,59C 209.056,58.6174 209.389,58.1174 209.5,57.5C 211.461,55.2018 212.461,52.5351 212.5,49.5C 212.774,45.7981 211.108,43.4648 207.5,42.5C 208.415,40.2459 209.748,38.2459 211.5,36.5C 211.702,34.0504 211.369,31.717 210.5,29.5C 209.628,23.2111 209.295,16.8778 209.5,10.5 Z"/></g>
<g><path style="opacity:1" fill="#cd9950" d="M 233.5,13.5 C 235.833,13.5 238.167,13.5 240.5,13.5C 240.384,25.4301 238.55,37.0968 235,48.5C 233.619,52.204 231.786,55.5373 229.5,58.5C 229.456,44.0804 229.456,29.4137 229.5,14.5C 231.099,14.7678 232.432,14.4345 233.5,13.5 Z"/></g>
<g><path style="opacity:1" fill="#d29f60" d="M 214.5,15.5 C 217.5,15.5 220.5,15.5 223.5,15.5C 223.783,31.1885 221.783,46.5218 217.5,61.5C 217.404,47.0345 217.404,32.3679 217.5,17.5C 215.821,17.7148 214.821,17.0481 214.5,15.5 Z"/></g>
<g><path style="opacity:1" fill="#ca9049" d="M 225.5,13.5 C 228.167,13.5 230.833,13.5 233.5,13.5C 232.432,14.4345 231.099,14.7678 229.5,14.5C 229.456,29.4137 229.456,44.0804 229.5,58.5C 229.443,59.609 229.11,60.609 228.5,61.5C 226.046,64.6593 222.879,66.9926 219,68.5C 217.954,66.8048 216.787,66.4715 215.5,67.5C 216.63,65.6854 217.296,63.6854 217.5,61.5C 221.783,46.5218 223.783,31.1885 223.5,15.5C 220.5,15.5 217.5,15.5 214.5,15.5C 214.167,15.5 213.833,15.5 213.5,15.5C 217.358,14.7063 221.358,14.0397 225.5,13.5 Z"/></g>
<g><path style="opacity:0.22" fill="#d9a38e" d="M 252.5,12.5 C 252.833,12.5 253.167,12.5 253.5,12.5C 253.308,16.1024 251.974,19.1024 249.5,21.5C 250.698,18.5738 251.698,15.5738 252.5,12.5 Z"/></g>
<g><path style="opacity:0.404" fill="#d1a367" d="M 244.5,9.5 C 244.833,9.5 245.167,9.5 245.5,9.5C 244.873,14.1408 244.54,18.8075 244.5,23.5C 244.167,24.5 243.5,25.1667 242.5,25.5C 242.15,20.9639 242.817,16.6306 244.5,12.5C 244.5,11.5 244.5,10.5 244.5,9.5 Z"/></g>
<g><path style="opacity:0.282" fill="#daa68c" d="M 105.5,13.5 C 106.167,14.1667 106.833,14.8333 107.5,15.5C 109.511,27.1979 113.511,38.1979 119.5,48.5C 111.358,38.3078 106.691,26.6411 105.5,13.5 Z"/></g>
<g><path style="opacity:1" fill="#d19a5a" d="M 213.5,15.5 C 213.833,15.5 214.167,15.5 214.5,15.5C 214.821,17.0481 215.821,17.7148 217.5,17.5C 217.404,32.3679 217.404,47.0345 217.5,61.5C 217.296,63.6854 216.63,65.6854 215.5,67.5C 215.217,68.2891 214.717,68.9558 214,69.5C 213.5,51.5031 213.333,33.5031 213.5,15.5 Z"/></g>
<g><path style="opacity:0.333" fill="#dfb08b" d="M 261.5,12.5 C 262.167,12.5 262.5,12.8333 262.5,13.5C 261.462,16.4289 260.296,19.4289 259,22.5C 258.292,23.3805 257.458,24.0472 256.5,24.5C 258.195,20.4524 259.861,16.4524 261.5,12.5 Z"/></g>
<g><path style="opacity:1" fill="#bc6436" d="M 107.5,6.5 C 107.833,6.5 108.167,6.5 108.5,6.5C 108.224,19.3227 111.557,30.9893 118.5,41.5C 120.024,45.2022 122.19,48.5355 125,51.5C 125.191,49.2922 125.691,47.2922 126.5,45.5C 127.5,46.8333 128.5,48.1667 129.5,49.5C 129.5,51.8333 129.5,54.1667 129.5,56.5C 127.855,55.5213 126.521,54.188 125.5,52.5C 124.893,52.6236 124.56,52.9569 124.5,53.5C 124.167,53.5 123.833,53.5 123.5,53.5C 122.833,53.5 122.5,53.1667 122.5,52.5C 122.262,50.5956 121.262,49.2623 119.5,48.5C 113.511,38.1979 109.511,27.1979 107.5,15.5C 107.5,12.5 107.5,9.5 107.5,6.5 Z"/></g>
<g><path style="opacity:1" fill="#b75f35" d="M 255.5,6.5 C 256.174,11.9474 255.008,16.9474 252,21.5C 248.168,22.8364 246.668,25.5031 247.5,29.5C 245.883,30.038 244.216,30.3713 242.5,30.5C 242.5,28.8333 242.5,27.1667 242.5,25.5C 243.5,25.1667 244.167,24.5 244.5,23.5C 246.514,23.6085 248.18,22.9418 249.5,21.5C 251.974,19.1024 253.308,16.1024 253.5,12.5C 254.048,10.3736 254.715,8.37358 255.5,6.5 Z"/></g>
<g><path style="opacity:1" fill="#c17334" d="M 108.5,6.5 C 111.833,6.5 115.167,6.5 118.5,6.5C 118.5,7.83333 118.5,9.16667 118.5,10.5C 120.833,10.5 123.167,10.5 125.5,10.5C 125.5,9.16667 125.5,7.83333 125.5,6.5C 126.833,6.5 128.167,6.5 129.5,6.5C 129.5,7.83333 129.5,9.16667 129.5,10.5C 130.5,10.5 131.5,10.5 132.5,10.5C 132.5,9.16667 132.5,7.83333 132.5,6.5C 134.833,6.5 137.167,6.5 139.5,6.5C 138.663,11.6361 139.997,15.9695 143.5,19.5C 143.427,21.0269 144.094,22.0269 145.5,22.5C 146.167,23.1667 146.833,23.8333 147.5,24.5C 148.441,29.1339 147.107,30.3006 143.5,28C 138.504,24.008 135.671,18.8413 135,12.5C 134.617,11.944 134.117,11.6107 133.5,11.5C 126.978,11.1765 120.645,11.5098 114.5,12.5C 113.355,14.9533 113.688,17.2866 115.5,19.5C 116.434,20.5676 116.768,21.901 116.5,23.5C 116.171,26.2282 116.837,28.5615 118.5,30.5C 118.5,30.8333 118.5,31.1667 118.5,31.5C 118.5,34.8333 118.5,38.1667 118.5,41.5C 111.557,30.9893 108.224,19.3227 108.5,6.5 Z"/></g>
<g><path style="opacity:0.198" fill="#d9a67b" d="M 114.5,12.5 C 114.5,12.8333 114.5,13.1667 114.5,13.5C 115.341,15.3792 115.675,17.3792 115.5,19.5C 113.688,17.2866 113.355,14.9533 114.5,12.5 Z"/></g>
<g><path style="opacity:0.382" fill="#a44d36" d="M 133.5,11.5 C 133.672,12.4916 133.338,13.1583 132.5,13.5C 126.5,13.5 120.5,13.5 114.5,13.5C 114.5,13.1667 114.5,12.8333 114.5,12.5C 120.645,11.5098 126.978,11.1765 133.5,11.5 Z"/></g>
<g><path style="opacity:0.259" fill="#ddb787" d="M 288.5,9.5 C 288.119,18.0356 286.286,26.369 283,34.5C 282.623,35.9423 281.79,36.9423 280.5,37.5C 280.5,36.8333 280.5,36.1667 280.5,35.5C 284.097,27.1107 286.764,18.444 288.5,9.5 Z"/></g>
<g><path style="opacity:0.118" fill="#d8a18f" d="M 132.5,16.5 C 134.446,18.3527 135.946,20.686 137,23.5C 139.106,26.1177 141.606,28.1177 144.5,29.5C 144.5,30.1667 144.5,30.8333 144.5,31.5C 138.284,28.2829 134.284,23.2829 132.5,16.5 Z"/></g>
<g><path style="opacity:1" fill="#9d5b2a" d="M 193.5,25.5 C 197.371,25.185 201.038,25.5184 204.5,26.5C 199.797,26.4372 195.13,26.7705 190.5,27.5C 191.5,26.8333 192.5,26.1667 193.5,25.5 Z"/></g>
<g><path style="opacity:0.522" fill="#d9a07e" d="M 280.5,12.5 C 279.703,18.5353 278.036,24.202 275.5,29.5C 276.816,24.2329 277.816,18.8996 278.5,13.5C 278.842,12.6618 279.508,12.3284 280.5,12.5 Z"/></g>
<g><path style="opacity:0.824" fill="#d49769" d="M 116.5,23.5 C 117.537,24.9303 118.204,26.597 118.5,28.5C 118.5,29.1667 118.5,29.8333 118.5,30.5C 116.837,28.5615 116.171,26.2282 116.5,23.5 Z"/></g>
<g><path style="opacity:0.992" fill="#b25734" d="M 147.5,5.5 C 148.833,5.5 150.167,5.5 151.5,5.5C 153.929,20.1493 156.429,34.816 159,49.5C 160.964,59.6818 164.298,69.3485 169,78.5C 170.699,81.921 172.865,84.921 175.5,87.5C 176.957,89.6282 177.957,91.9616 178.5,94.5C 176.833,93.1667 175.167,91.8333 173.5,90.5C 172.864,88.2054 171.531,86.5387 169.5,85.5C 168.588,81.7493 166.922,78.416 164.5,75.5C 164.608,73.4862 163.942,71.8195 162.5,70.5C 160.19,61.4503 157.69,52.4503 155,43.5C 154.064,39.8865 153.564,36.2198 153.5,32.5C 150.702,31.1309 147.702,30.1309 144.5,29.5C 141.606,28.1177 139.106,26.1177 137,23.5C 135.946,20.686 134.446,18.3527 132.5,16.5C 132.5,15.5 132.5,14.5 132.5,13.5C 133.338,13.1583 133.672,12.4916 133.5,11.5C 134.117,11.6107 134.617,11.944 135,12.5C 135.671,18.8413 138.504,24.008 143.5,28C 147.107,30.3006 148.441,29.1339 147.5,24.5C 149.167,24.5 150.833,24.5 152.5,24.5C 152.715,22.8212 152.048,21.8212 150.5,21.5C 150.5,20.8333 150.5,20.1667 150.5,19.5C 151.152,18.5514 151.486,17.3847 151.5,16C 151.392,14.3189 150.725,13.1522 149.5,12.5C 149.923,10.2188 149.256,8.55213 147.5,7.5C 147.5,6.83333 147.5,6.16667 147.5,5.5 Z"/></g>
<g><path style="opacity:0.392" fill="#c98361" d="M 150.5,21.5 C 152.048,21.8212 152.715,22.8212 152.5,24.5C 150.833,24.5 149.167,24.5 147.5,24.5C 146.833,23.8333 146.167,23.1667 145.5,22.5C 145.833,22.5 146.167,22.5 146.5,22.5C 147.583,22.5394 148.583,22.8728 149.5,23.5C 150.298,23.0431 150.631,22.3764 150.5,21.5 Z"/></g>
<g><path style="opacity:0.549" fill="#e2b393" d="M 143.5,19.5 C 144.833,20.1667 145.833,21.1667 146.5,22.5C 146.167,22.5 145.833,22.5 145.5,22.5C 144.094,22.0269 143.427,21.0269 143.5,19.5 Z"/></g>
<g><path style="opacity:0.333" fill="#cc8568" d="M 149.5,12.5 C 150.725,13.1522 151.392,14.3189 151.5,16C 151.486,17.3847 151.152,18.5514 150.5,19.5C 150.702,17.0504 150.369,14.717 149.5,12.5 Z"/></g>
<g><path style="opacity:1" fill="#bc6a42" d="M 175.5,27.5 C 175.917,31.8346 176.417,36.1679 177,40.5C 179.001,46.5139 180.667,52.5139 182,58.5C 179.824,55.4706 177.657,52.4706 175.5,49.5C 169.704,38.2954 166.704,26.4621 166.5,14C 169.146,13.5026 171.813,13.3359 174.5,13.5C 174.181,18.3633 174.514,23.03 175.5,27.5 Z"/></g>
<g><path style="opacity:1" fill="#683017" d="M 204.5,26.5 C 206.711,27.1228 208.711,28.1228 210.5,29.5C 211.369,31.717 211.702,34.0504 211.5,36.5C 210.892,33.0417 208.892,30.5417 205.5,29C 200.581,28.1985 195.748,28.3651 191,29.5C 190.536,28.9056 190.369,28.2389 190.5,27.5C 195.13,26.7705 199.797,26.4372 204.5,26.5 Z"/></g>
<g><path style="opacity:1" fill="#843c1c" d="M 190.5,27.5 C 190.369,28.2389 190.536,28.9056 191,29.5C 195.748,28.3651 200.581,28.1985 205.5,29C 208.892,30.5417 210.892,33.0417 211.5,36.5C 209.748,38.2459 208.415,40.2459 207.5,42.5C 206.761,42.369 206.094,42.5357 205.5,43C 208.358,44.6941 210.691,46.8607 212.5,49.5C 212.461,52.5351 211.461,55.2018 209.5,57.5C 207.219,59.4279 204.553,60.4279 201.5,60.5C 197.154,60.6657 192.821,60.499 188.5,60C 187.556,57.2809 187.223,54.4475 187.5,51.5C 187.5,50.8333 187.833,50.5 188.5,50.5C 188.369,51.2389 188.536,51.9056 189,52.5C 192.309,51.3239 193.809,52.6572 193.5,56.5C 195.857,56.6633 198.19,56.4966 200.5,56C 198.618,55.8019 196.952,55.3019 195.5,54.5C 197.527,54.6621 199.527,54.4955 201.5,54C 202.554,52.6124 202.72,51.1124 202,49.5C 199.358,46.9712 196.192,45.9712 192.5,46.5C 192.5,44.5 192.5,42.5 192.5,40.5C 195.973,40.4242 199.306,39.7576 202.5,38.5C 202.673,33.6766 200.339,31.6766 195.5,32.5C 195.166,36.648 192.833,38.3147 188.5,37.5C 188.335,34.4816 188.502,31.4816 189,28.5C 189.383,27.944 189.883,27.6107 190.5,27.5 Z"/></g>
<g><path style="opacity:0.012" fill="#dba680" d="M 253.5,27.5 C 252.341,29.2503 250.674,30.2503 248.5,30.5C 248.5,30.1667 248.5,29.8333 248.5,29.5C 250.05,28.5592 251.716,27.8925 253.5,27.5 Z"/></g>
<g><path style="opacity:0.997" fill="#c28738" d="M 225.5,13.5 C 228.287,12.5233 231.287,12.19 234.5,12.5C 237.833,12.5 241.167,12.5 244.5,12.5C 242.817,16.6306 242.15,20.9639 242.5,25.5C 242.5,27.1667 242.5,28.8333 242.5,30.5C 242.5,30.8333 242.5,31.1667 242.5,31.5C 240.772,43.0725 237.772,54.4058 233.5,65.5C 231.445,67.5547 229.112,69.2213 226.5,70.5C 225.957,70.44 225.624,70.1067 225.5,69.5C 229.248,67.6648 230.248,64.9982 228.5,61.5C 229.11,60.609 229.443,59.609 229.5,58.5C 231.786,55.5373 233.619,52.204 235,48.5C 238.55,37.0968 240.384,25.4301 240.5,13.5C 238.167,13.5 235.833,13.5 233.5,13.5C 230.833,13.5 228.167,13.5 225.5,13.5 Z"/></g>
<g><path style="opacity:0.016" fill="#c88163" d="M 247.5,29.5 C 247.833,29.5 248.167,29.5 248.5,29.5C 248.5,29.8333 248.5,30.1667 248.5,30.5C 246.786,31.7384 244.786,32.405 242.5,32.5C 242.5,32.1667 242.5,31.8333 242.5,31.5C 242.5,31.1667 242.5,30.8333 242.5,30.5C 244.216,30.3713 245.883,30.038 247.5,29.5 Z"/></g>
<g><path style="opacity:0.165" fill="#bf6f5a" d="M 144.5,29.5 C 147.702,30.1309 150.702,31.1309 153.5,32.5C 152.833,32.5 152.167,32.5 151.5,32.5C 149.097,32.552 146.764,32.2186 144.5,31.5C 144.5,30.8333 144.5,30.1667 144.5,29.5 Z"/></g>
<g><path style="opacity:0.039" fill="#e6bfa1" d="M 118.5,28.5 C 120.403,31.9789 122.07,35.6456 123.5,39.5C 121.32,37.1367 119.653,34.47 118.5,31.5C 118.5,31.1667 118.5,30.8333 118.5,30.5C 118.5,29.8333 118.5,29.1667 118.5,28.5 Z"/></g>
<g><path style="opacity:1" fill="#cc964e" d="M 278.5,27.5 C 279.167,30.1667 279.833,32.8333 280.5,35.5C 280.5,36.1667 280.5,36.8333 280.5,37.5C 278.588,39.6572 276.921,41.9906 275.5,44.5C 275.5,41.5 275.5,38.5 275.5,35.5C 276.501,32.8284 277.501,30.1618 278.5,27.5 Z"/></g>
<g><path style="opacity:0.22" fill="#e0b298" d="M 275.5,29.5 C 274.535,34.0976 272.535,38.0976 269.5,41.5C 271.008,37.1509 273.008,33.1509 275.5,29.5 Z"/></g>
<g><path style="opacity:1" fill="#c28035" d="M 275.5,35.5 C 275.5,38.5 275.5,41.5 275.5,44.5C 274.833,45.8333 274.167,47.1667 273.5,48.5C 272.532,46.3926 272.198,44.0593 272.5,41.5C 272.992,39.1815 273.992,37.1815 275.5,35.5 Z"/></g>
<g><path style="opacity:1" fill="#ce8652" d="M 118.5,31.5 C 119.653,34.47 121.32,37.1367 123.5,39.5C 123.241,41.9893 124.241,43.656 126.5,44.5C 126.5,44.8333 126.5,45.1667 126.5,45.5C 125.691,47.2922 125.191,49.2922 125,51.5C 122.19,48.5355 120.024,45.2022 118.5,41.5C 118.5,38.1667 118.5,34.8333 118.5,31.5 Z"/></g>
<g><path style="opacity:0.976" fill="#dda57d" d="M 123.5,39.5 C 124.89,40.8993 125.89,42.5659 126.5,44.5C 124.241,43.656 123.241,41.9893 123.5,39.5 Z"/></g>
<g><path style="opacity:0.063" fill="#dbb583" d="M 242.5,31.5 C 242.5,31.8333 242.5,32.1667 242.5,32.5C 241.694,44.9159 239.028,56.9159 234.5,68.5C 233.833,68.5 233.5,68.8333 233.5,69.5C 233.167,69.5 232.833,69.5 232.5,69.5C 232.833,68.1667 233.167,66.8333 233.5,65.5C 237.772,54.4058 240.772,43.0725 242.5,31.5 Z"/></g>
<g><path style="opacity:0.22" fill="#e5c49d" d="M 280.5,37.5 C 279.172,42.1651 276.839,46.1651 273.5,49.5C 273.5,49.1667 273.5,48.8333 273.5,48.5C 274.167,47.1667 274.833,45.8333 275.5,44.5C 276.921,41.9906 278.588,39.6572 280.5,37.5 Z"/></g>
<g><path style="opacity:0.647" fill="#e3b194" d="M 126.5,44.5 C 128.587,45.5846 129.92,47.2512 130.5,49.5C 130.167,49.5 129.833,49.5 129.5,49.5C 128.5,48.1667 127.5,46.8333 126.5,45.5C 126.5,45.1667 126.5,44.8333 126.5,44.5 Z"/></g>
<g><path style="opacity:0.275" fill="#dcab91" d="M 269.5,41.5 C 269.155,44.1979 267.822,46.1979 265.5,47.5C 266.34,45.1475 267.674,43.1475 269.5,41.5 Z"/></g>
<g><path style="opacity:1" fill="#d1995c" d="M 272.5,41.5 C 272.198,44.0593 272.532,46.3926 273.5,48.5C 273.5,48.8333 273.5,49.1667 273.5,49.5C 273.167,50.5 272.5,51.1667 271.5,51.5C 268.956,52.7079 267.622,54.7079 267.5,57.5C 262.996,62.6788 257.663,66.6788 251.5,69.5C 256.689,65.8245 261.522,61.4911 266,56.5C 266.333,53.8333 266.667,51.1667 267,48.5C 268.853,46.0975 270.686,43.7641 272.5,41.5 Z"/></g>
<g><path style="opacity:1" fill="#673016" d="M 207.5,42.5 C 211.108,43.4648 212.774,45.7981 212.5,49.5C 210.691,46.8607 208.358,44.6941 205.5,43C 206.094,42.5357 206.761,42.369 207.5,42.5 Z"/></g>
<g><path style="opacity:0.471" fill="#d69c80" d="M 265.5,47.5 C 265.5,49.5 264.5,50.5 262.5,50.5C 263.167,49.1667 264.167,48.1667 265.5,47.5 Z"/></g>
<g><path style="opacity:0.063" fill="#e2b6a2" d="M 119.5,48.5 C 121.262,49.2623 122.262,50.5956 122.5,52.5C 120.738,51.7377 119.738,50.4044 119.5,48.5 Z"/></g>
<g><path style="opacity:0.627" fill="#e2af91" d="M 130.5,49.5 C 132.833,51.1667 134.833,53.1667 136.5,55.5C 135.391,55.4431 134.391,55.1098 133.5,54.5C 132.075,53.078 131.075,51.4113 130.5,49.5 Z"/></g>
<g><path style="opacity:1" fill="#ce7e4f" d="M 129.5,49.5 C 129.833,49.5 130.167,49.5 130.5,49.5C 131.075,51.4113 132.075,53.078 133.5,54.5C 132.698,55.9516 132.198,57.6183 132,59.5C 130.955,58.6266 130.122,57.6266 129.5,56.5C 129.5,54.1667 129.5,51.8333 129.5,49.5 Z"/></g>
<g><path style="opacity:1" fill="#6f3519" d="M 195.5,54.5 C 196.952,55.3019 198.618,55.8019 200.5,56C 198.19,56.4966 195.857,56.6633 193.5,56.5C 193.809,52.6572 192.309,51.3239 189,52.5C 188.536,51.9056 188.369,51.2389 188.5,50.5C 190.265,49.5386 192.265,49.2053 194.5,49.5C 194.366,51.2915 194.699,52.9582 195.5,54.5 Z"/></g>
<g><path style="opacity:0.114" fill="#e1ba8e" d="M 271.5,51.5 C 270.551,53.7772 269.218,55.7772 267.5,57.5C 267.622,54.7079 268.956,52.7079 271.5,51.5 Z"/></g>
<g><path style="opacity:1" fill="#c17736" d="M 209.5,57.5 C 209.389,58.1174 209.056,58.6174 208.5,59C 209.307,64.083 209.807,69.2497 210,74.5C 210.17,68.8042 210.67,63.1376 211.5,57.5C 212.238,62.6702 212.904,67.8369 213.5,73C 213.095,73.9454 212.428,74.6121 211.5,75C 213.473,75.4955 215.473,75.6621 217.5,75.5C 214.038,76.4816 210.371,76.815 206.5,76.5C 202.576,75.5358 199.243,73.5358 196.5,70.5C 194.844,67.8614 193.178,65.1947 191.5,62.5C 194.977,61.8328 198.311,61.1661 201.5,60.5C 204.553,60.4279 207.219,59.4279 209.5,57.5 Z"/></g>
<g><path style="opacity:1" fill="#be5c32" d="M 129.5,56.5 C 130.122,57.6266 130.955,58.6266 132,59.5C 132.198,57.6183 132.698,55.9516 133.5,54.5C 134.391,55.1098 135.391,55.4431 136.5,55.5C 136.511,57.0174 137.177,58.1841 138.5,59C 145.588,64.7106 153.588,68.5439 162.5,70.5C 163.942,71.8195 164.608,73.4862 164.5,75.5C 164.631,76.2389 164.464,76.9056 164,77.5C 161.695,75.0695 158.862,74.0695 155.5,74.5C 151.302,73.7328 147.302,72.3995 143.5,70.5C 140.789,67.9562 137.789,65.6228 134.5,63.5C 130.833,60.5 127.5,57.1667 124.5,53.5C 124.56,52.9569 124.893,52.6236 125.5,52.5C 126.521,54.188 127.855,55.5213 129.5,56.5 Z"/></g>
<g><path style="opacity:0.573" fill="#d39173" d="M 151.5,32.5 C 152.167,32.5 152.833,32.5 153.5,32.5C 153.564,36.2198 154.064,39.8865 155,43.5C 157.69,52.4503 160.19,61.4503 162.5,70.5C 153.588,68.5439 145.588,64.7106 138.5,59C 137.177,58.1841 136.511,57.0174 136.5,55.5C 143.285,60.9789 150.785,65.3122 159,68.5C 159.5,68.1667 160,67.8333 160.5,67.5C 156.87,55.9526 153.87,44.2859 151.5,32.5 Z"/></g>
<g><path style="opacity:0.455" fill="#cc8764" d="M 262.5,50.5 C 261.833,52.8333 261.167,55.1667 260.5,57.5C 258.692,57.4914 257.025,57.9914 255.5,59C 252.277,61.764 248.944,64.264 245.5,66.5C 243.958,67.3007 242.292,67.634 240.5,67.5C 245.939,64.2724 251.273,60.7724 256.5,57C 258.293,54.6122 260.293,52.4455 262.5,50.5 Z"/></g>
<g><path style="opacity:0.008" fill="#d59b83" d="M 123.5,53.5 C 123.833,53.5 124.167,53.5 124.5,53.5C 127.5,57.1667 130.833,60.5 134.5,63.5C 134.5,64.1667 134.5,64.8333 134.5,65.5C 130.102,62.1053 126.436,58.1053 123.5,53.5 Z"/></g>
<g><path style="opacity:0.188" fill="#c3775e" d="M 134.5,63.5 C 137.789,65.6228 140.789,67.9562 143.5,70.5C 140.262,69.2625 137.262,67.5958 134.5,65.5C 134.5,64.8333 134.5,64.1667 134.5,63.5 Z"/></g>
<g><path style="opacity:0.478" fill="#d08961" d="M 239.5,67.5 C 237.91,69.821 235.577,70.821 232.5,70.5C 232.5,70.1667 232.5,69.8333 232.5,69.5C 232.833,69.5 233.167,69.5 233.5,69.5C 234.167,69.5 234.5,69.1667 234.5,68.5C 236.216,68.3713 237.883,68.038 239.5,67.5 Z"/></g>
<g><path style="opacity:1" fill="#b2662c" d="M 233.5,65.5 C 233.167,66.8333 232.833,68.1667 232.5,69.5C 232.5,69.8333 232.5,70.1667 232.5,70.5C 231.662,70.8417 231.328,71.5084 231.5,72.5C 229.256,77.4804 226.59,82.3138 223.5,87C 224.056,87.3826 224.389,87.8826 224.5,88.5C 223.508,88.3284 222.842,88.6618 222.5,89.5C 219.167,92.1667 216.167,95.1667 213.5,98.5C 212.833,98.5 212.167,98.5 211.5,98.5C 211.565,92.0363 211.398,85.3697 211,78.5C 209.378,77.9011 207.878,77.2344 206.5,76.5C 210.371,76.815 214.038,76.4816 217.5,75.5C 220.669,74.0834 223.669,72.4168 226.5,70.5C 229.112,69.2213 231.445,67.5547 233.5,65.5 Z"/></g>
<g><path style="opacity:1" fill="#b15f2c" d="M 196.5,70.5 C 199.243,73.5358 202.576,75.5358 206.5,76.5C 207.878,77.2344 209.378,77.9011 211,78.5C 211.398,85.3697 211.565,92.0363 211.5,98.5C 211.5,98.8333 211.5,99.1667 211.5,99.5C 209.5,99.5 207.5,99.5 205.5,99.5C 206.609,98.71 207.942,98.21 209.5,98C 203.251,95.3816 197.918,91.5483 193.5,86.5C 193.393,84.6214 193.893,84.2881 195,85.5C 195.272,80.4512 195.772,75.4512 196.5,70.5 Z"/></g>
<g><path style="opacity:0.157" fill="#d08d6b" d="M 248.5,69.5 C 249.492,69.3284 250.158,69.6618 250.5,70.5C 245.21,73.6415 239.544,75.9749 233.5,77.5C 233.47,76.5028 233.97,75.8361 235,75.5C 239.977,74.35 244.477,72.35 248.5,69.5 Z"/></g>
<g><path style="opacity:0.502" fill="#c37563" d="M 143.5,70.5 C 147.302,72.3995 151.302,73.7328 155.5,74.5C 162.294,76.4203 164.627,80.7536 162.5,87.5C 162.672,86.5084 162.338,85.8417 161.5,85.5C 161.708,83.0799 161.374,80.7466 160.5,78.5C 157.21,77.2365 153.876,76.0698 150.5,75C 147.761,73.9741 145.428,72.4741 143.5,70.5 Z"/></g>
<g><path style="opacity:1" fill="#9e4a25" d="M 177.5,64.5 C 181.673,72.6735 187.006,80.0068 193.5,86.5C 197.918,91.5483 203.251,95.3816 209.5,98C 207.942,98.21 206.609,98.71 205.5,99.5C 204.5,99.5 203.5,99.5 202.5,99.5C 198.879,99.7084 195.546,100.708 192.5,102.5C 193.598,101.603 193.598,100.77 192.5,100C 189.156,99.0935 186.156,99.5935 183.5,101.5C 183.649,100.448 183.483,99.448 183,98.5C 181.008,97.6719 179.508,96.3386 178.5,94.5C 177.957,91.9616 176.957,89.6282 175.5,87.5C 176.167,79.8333 176.833,72.1667 177.5,64.5 Z"/></g>
<g><path style="opacity:1" fill="#b6532f" d="M 155.5,74.5 C 158.862,74.0695 161.695,75.0695 164,77.5C 164.464,76.9056 164.631,76.2389 164.5,75.5C 166.922,78.416 168.588,81.7493 169.5,85.5C 169.5,86.5 169.5,87.5 169.5,88.5C 167.755,90.0326 166.755,92.0326 166.5,94.5C 166.167,95.5 165.5,96.1667 164.5,96.5C 162.03,96.6535 160.03,97.6535 158.5,99.5C 158.167,99.5 157.833,99.5 157.5,99.5C 157.5,98.1667 157.5,96.8333 157.5,95.5C 159.95,93.3709 161.617,90.7043 162.5,87.5C 164.627,80.7536 162.294,76.4203 155.5,74.5 Z"/></g>
<g><path style="opacity:0.18" fill="#dea687" d="M 233.5,77.5 C 233.167,78.8333 232.833,80.1667 232.5,81.5C 231.876,81.0831 231.543,80.4164 231.5,79.5C 231.747,78.2867 232.414,77.62 233.5,77.5 Z"/></g>
<g><path style="opacity:0.275" fill="#dcac9e" d="M 161.5,85.5 C 162.338,85.8417 162.672,86.5084 162.5,87.5C 161.617,90.7043 159.95,93.3709 157.5,95.5C 159.279,92.3729 160.613,89.0396 161.5,85.5 Z"/></g>
<g><path style="opacity:0.008" fill="#dca98f" d="M 169.5,85.5 C 171.531,86.5387 172.864,88.2054 173.5,90.5C 172.395,89.3995 171.062,88.7329 169.5,88.5C 169.5,87.5 169.5,86.5 169.5,85.5 Z"/></g>
<g><path style="opacity:0.196" fill="#e3b7a8" d="M 222.5,89.5 C 222.842,88.6618 223.508,88.3284 224.5,88.5C 224.557,89.609 224.89,90.609 225.5,91.5C 225.5,92.1667 225.5,92.8333 225.5,93.5C 224.5,92.1667 223.5,90.8333 222.5,89.5 Z"/></g>
<g><path style="opacity:0.318" fill="#e0a98b" d="M 232.5,82.5 C 233.099,85.9631 234.099,89.2964 235.5,92.5C 234.833,92.1667 234.167,91.8333 233.5,91.5C 231.501,88.5507 231.168,85.5507 232.5,82.5 Z"/></g>
<g><path style="opacity:0.624" fill="#d18d73" d="M 169.5,88.5 C 169.539,91.089 168.539,93.089 166.5,94.5C 166.755,92.0326 167.755,90.0326 169.5,88.5 Z"/></g>
<g><path style="opacity:1" fill="#c16533" d="M 245.5,66.5 C 247.144,66.8102 248.144,67.8102 248.5,69.5C 244.477,72.35 239.977,74.35 235,75.5C 233.97,75.8361 233.47,76.5028 233.5,77.5C 232.414,77.62 231.747,78.2867 231.5,79.5C 231.543,80.4164 231.876,81.0831 232.5,81.5C 232.5,81.8333 232.5,82.1667 232.5,82.5C 231.168,85.5507 231.501,88.5507 233.5,91.5C 233.5,93.1667 233.5,94.8333 233.5,96.5C 231.665,95.8777 230.498,94.5444 230,92.5C 229.201,85.7169 229.701,79.0502 231.5,72.5C 231.328,71.5084 231.662,70.8417 232.5,70.5C 235.577,70.821 237.91,69.821 239.5,67.5C 239.833,67.5 240.167,67.5 240.5,67.5C 242.292,67.634 243.958,67.3007 245.5,66.5 Z"/></g>
<g><path style="opacity:1" fill="#ac482b" d="M 231.5,72.5 C 229.701,79.0502 229.201,85.7169 230,92.5C 230.498,94.5444 231.665,95.8777 233.5,96.5C 233.833,97.1667 234.167,97.8333 234.5,98.5C 234.5,98.8333 234.5,99.1667 234.5,99.5C 234.167,99.5 233.833,99.5 233.5,99.5C 229.833,97.8333 227.167,95.1667 225.5,91.5C 224.89,90.609 224.557,89.609 224.5,88.5C 224.389,87.8826 224.056,87.3826 223.5,87C 226.59,82.3138 229.256,77.4804 231.5,72.5 Z"/></g>
<g><path style="opacity:0.082" fill="#d5a47d" d="M 222.5,89.5 C 220.5,93.5 217.5,96.5 213.5,98.5C 216.167,95.1667 219.167,92.1667 222.5,89.5 Z"/></g>
<g><path style="opacity:1" fill="#cf8357" d="M 233.5,91.5 C 234.167,91.8333 234.833,92.1667 235.5,92.5C 236.338,92.8417 236.672,93.5084 236.5,94.5C 236.843,96.4832 236.176,97.8166 234.5,98.5C 234.167,97.8333 233.833,97.1667 233.5,96.5C 233.5,94.8333 233.5,93.1667 233.5,91.5 Z"/></g>
<g><path style="opacity:0.02" fill="#e8c3b5" d="M 157.5,95.5 C 157.5,96.8333 157.5,98.1667 157.5,99.5C 156.105,101.054 155.439,100.721 155.5,98.5C 155.453,96.9623 156.12,95.9623 157.5,95.5 Z"/></g>
<g><path style="opacity:0.125" fill="#bd715c" d="M 164.5,96.5 C 163.089,98.539 161.089,99.539 158.5,99.5C 160.03,97.6535 162.03,96.6535 164.5,96.5 Z"/></g>
<g><path style="opacity:0.047" fill="#ca8674" d="M 225.5,91.5 C 227.167,95.1667 229.833,97.8333 233.5,99.5C 229.394,99.3914 226.727,97.3914 225.5,93.5C 225.5,92.8333 225.5,92.1667 225.5,91.5 Z"/></g>
<g><path style="opacity:0.09" fill="#d9a189" d="M 236.5,94.5 C 238.213,95.6354 238.88,97.302 238.5,99.5C 237.167,99.5 235.833,99.5 234.5,99.5C 234.5,99.1667 234.5,98.8333 234.5,98.5C 236.176,97.8166 236.843,96.4832 236.5,94.5 Z"/></g>
<g><path style="opacity:1" fill="#b14d2c" d="M 192.5,102.5 C 190.616,102.712 189.283,103.712 188.5,105.5C 186.604,106.466 184.604,106.799 182.5,106.5C 182.629,104.784 182.962,103.117 183.5,101.5C 186.156,99.5935 189.156,99.0935 192.5,100C 193.598,100.77 193.598,101.603 192.5,102.5 Z"/></g>
<g><path style="opacity:1" fill="#c37d3b" d="M 202.5,99.5 C 203.5,99.5 204.5,99.5 205.5,99.5C 207.5,99.5 209.5,99.5 211.5,99.5C 211.5,100.5 211.5,101.5 211.5,102.5C 208.443,104.095 205.11,105.262 201.5,106C 205.152,106.499 208.818,106.665 212.5,106.5C 212.167,107.5 211.5,108.167 210.5,108.5C 206.316,107.834 201.982,107.167 197.5,106.5C 198.833,105.167 198.833,103.833 197.5,102.5C 199.36,101.675 201.026,100.675 202.5,99.5 Z"/></g>
<g><path style="opacity:1" fill="#ce9954" d="M 211.5,102.5 C 212.434,103.568 212.768,104.901 212.5,106.5C 208.818,106.665 205.152,106.499 201.5,106C 205.11,105.262 208.443,104.095 211.5,102.5 Z"/></g>
<g><path style="opacity:1" fill="#b35d2d" d="M 192.5,102.5 C 191.402,103.397 191.402,104.23 192.5,105C 188.755,107.496 189.422,108.663 194.5,108.5C 193.262,114.211 193.262,119.878 194.5,125.5C 192.708,125.634 191.042,125.301 189.5,124.5C 188.099,120.302 187.265,115.968 187,111.5C 185.634,109.638 184.134,107.972 182.5,106.5C 184.604,106.799 186.604,106.466 188.5,105.5C 189.283,103.712 190.616,102.712 192.5,102.5 Z"/></g>
<g><path style="opacity:0.012" fill="#dfb58d" d="M 211.5,98.5 C 212.167,98.5 212.833,98.5 213.5,98.5C 212.793,100.973 213.127,103.473 214.5,106C 213.35,108.316 211.683,110.15 209.5,111.5C 209.5,111.167 209.5,110.833 209.5,110.5C 209.833,109.833 210.167,109.167 210.5,108.5C 211.5,108.167 212.167,107.5 212.5,106.5C 212.768,104.901 212.434,103.568 211.5,102.5C 211.5,101.5 211.5,100.5 211.5,99.5C 211.5,99.1667 211.5,98.8333 211.5,98.5 Z"/></g>
<g><path style="opacity:0.294" fill="#d59b7c" d="M 173.5,90.5 C 175.167,91.8333 176.833,93.1667 178.5,94.5C 179.508,96.3386 181.008,97.6719 183,98.5C 183.483,99.448 183.649,100.448 183.5,101.5C 182.962,103.117 182.629,104.784 182.5,106.5C 184.134,107.972 185.634,109.638 187,111.5C 187.265,115.968 188.099,120.302 189.5,124.5C 189.599,127.237 189.265,129.904 188.5,132.5C 187.833,132.5 187.167,132.5 186.5,132.5C 186.961,130.45 187.628,128.45 188.5,126.5C 187.05,121.958 186.217,117.292 186,112.5C 181.091,109.575 179.924,105.742 182.5,101C 178.965,97.9644 175.965,94.4644 173.5,90.5 Z"/></g>
<g><path style="opacity:0.999" fill="#b25d2c" d="M 207.5,111.5 C 207.448,115.198 207.114,118.865 206.5,122.5C 205.662,122.842 205.328,123.508 205.5,124.5C 204.849,125.091 204.182,125.757 203.5,126.5C 203.167,126.167 202.833,125.833 202.5,125.5C 203.585,122.227 203.752,118.894 203,115.5C 201.926,114.382 200.76,113.382 199.5,112.5C 202.086,111.52 204.753,111.187 207.5,111.5 Z"/></g>
<g><path style="opacity:0.153" fill="#cf936e" d="M 209.5,110.5 C 209.5,110.833 209.5,111.167 209.5,111.5C 208.833,115.167 208.167,118.833 207.5,122.5C 207.167,122.5 206.833,122.5 206.5,122.5C 207.114,118.865 207.448,115.198 207.5,111.5C 208.167,111.167 208.833,110.833 209.5,110.5 Z"/></g>
<g><path style="opacity:1" fill="#ac452b" d="M 189.5,124.5 C 191.042,125.301 192.708,125.634 194.5,125.5C 195.417,127.662 195.417,129.995 194.5,132.5C 192.5,132.5 190.5,132.5 188.5,132.5C 189.265,129.904 189.599,127.237 189.5,124.5 Z"/></g>
<g><path style="opacity:0.02" fill="#ddaf88" d="M 206.5,122.5 C 206.833,122.5 207.167,122.5 207.5,122.5C 206.657,126.183 206.99,129.85 208.5,133.5C 207.833,133.5 207.167,133.5 206.5,133.5C 206.296,130.482 205.963,127.482 205.5,124.5C 205.328,123.508 205.662,122.842 206.5,122.5 Z"/></g>
<g><path style="opacity:1" fill="#b25c2d" d="M 188.5,132.5 C 190.5,132.5 192.5,132.5 194.5,132.5C 192.952,149.081 192.452,165.747 193,182.5C 194.444,184.155 196.278,184.822 198.5,184.5C 200.969,185.317 203.635,185.817 206.5,186C 207.252,186.671 207.586,187.504 207.5,188.5C 200.167,188.5 192.833,188.5 185.5,188.5C 185.5,190.833 185.5,193.167 185.5,195.5C 190.1,195.28 194.433,195.946 198.5,197.5C 193.833,197.5 189.167,197.5 184.5,197.5C 184.5,196.5 184.5,195.5 184.5,194.5C 183.46,188.898 185.46,184.898 190.5,182.5C 191.386,181.675 191.719,180.675 191.5,179.5C 189.167,179.5 186.833,179.5 184.5,179.5C 185.528,163.804 186.861,148.137 188.5,132.5 Z"/></g>
<g><path style="opacity:1" fill="#c27338" d="M 202.5,99.5 C 201.026,100.675 199.36,101.675 197.5,102.5C 198.833,103.833 198.833,105.167 197.5,106.5C 201.982,107.167 206.316,107.834 210.5,108.5C 210.167,109.167 209.833,109.833 209.5,110.5C 208.833,110.833 208.167,111.167 207.5,111.5C 204.753,111.187 202.086,111.52 199.5,112.5C 200.76,113.382 201.926,114.382 203,115.5C 203.752,118.894 203.585,122.227 202.5,125.5C 202.833,125.833 203.167,126.167 203.5,126.5C 204.182,125.757 204.849,125.091 205.5,124.5C 205.963,127.482 206.296,130.482 206.5,133.5C 208.13,148.763 209.463,164.096 210.5,179.5C 209.307,179.03 208.64,178.03 208.5,176.5C 206.936,167.443 205.269,158.443 203.5,149.5C 202.613,154.815 201.946,160.148 201.5,165.5C 200.833,170.681 200.167,176.015 199.5,181.5C 198.813,170.816 197.98,160.149 197,149.5C 195.927,161.345 196.427,173.012 198.5,184.5C 196.278,184.822 194.444,184.155 193,182.5C 192.452,165.747 192.952,149.081 194.5,132.5C 195.417,129.995 195.417,127.662 194.5,125.5C 193.262,119.878 193.262,114.211 194.5,108.5C 189.422,108.663 188.755,107.496 192.5,105C 191.402,104.23 191.402,103.397 192.5,102.5C 195.546,100.708 198.879,99.7084 202.5,99.5 Z"/></g>
<g><path style="opacity:0.212" fill="#d19465" d="M 206.5,133.5 C 207.167,133.5 207.833,133.5 208.5,133.5C 209.806,147.477 210.806,161.477 211.5,175.5C 211.5,176.833 211.5,178.167 211.5,179.5C 211.167,179.5 210.833,179.5 210.5,179.5C 209.463,164.096 208.13,148.763 206.5,133.5 Z"/></g>
<g><path style="opacity:1" fill="#ce8d54" d="M 210.5,179.5 C 210.833,179.5 211.167,179.5 211.5,179.5C 214.059,179.198 216.393,179.532 218.5,180.5C 212.805,181.461 207.138,181.461 201.5,180.5C 201.5,175.5 201.5,170.5 201.5,165.5C 201.946,160.148 202.613,154.815 203.5,149.5C 205.269,158.443 206.936,167.443 208.5,176.5C 208.64,178.03 209.307,179.03 210.5,179.5 Z"/></g>
<g><path style="opacity:0.157" fill="#c8855d" d="M 186.5,132.5 C 187.167,132.5 187.833,132.5 188.5,132.5C 186.861,148.137 185.528,163.804 184.5,179.5C 184.167,179.5 183.833,179.5 183.5,179.5C 183.5,177.833 183.5,176.167 183.5,174.5C 184.38,160.491 185.38,146.491 186.5,132.5 Z"/></g>
<g><path style="opacity:0.114" fill="#d89a78" d="M 183.5,174.5 C 183.5,176.167 183.5,177.833 183.5,179.5C 183.5,180.167 183.167,180.5 182.5,180.5C 180.265,180.205 178.265,180.539 176.5,181.5C 176.167,181.5 175.833,181.5 175.5,181.5C 175.5,180.5 175.5,179.5 175.5,178.5C 177.833,178.5 180.167,178.5 182.5,178.5C 182.232,176.901 182.566,175.568 183.5,174.5 Z"/></g>
<g><path style="opacity:0.112" fill="#e0bc90" d="M 211.5,175.5 C 212.404,176.209 212.737,177.209 212.5,178.5C 215.388,177.99 217.721,178.656 219.5,180.5C 219.167,180.5 218.833,180.5 218.5,180.5C 216.393,179.532 214.059,179.198 211.5,179.5C 211.5,178.167 211.5,176.833 211.5,175.5 Z"/></g>
<g><path style="opacity:1" fill="#c78146" d="M 201.5,165.5 C 201.5,170.5 201.5,175.5 201.5,180.5C 207.138,181.461 212.805,181.461 218.5,180.5C 218.833,180.5 219.167,180.5 219.5,180.5C 221.607,181.468 223.941,181.802 226.5,181.5C 226.5,182.167 226.5,182.833 226.5,183.5C 222.815,183.105 219.148,182.938 215.5,183C 219.2,183.843 222.2,185.676 224.5,188.5C 218.833,188.5 213.167,188.5 207.5,188.5C 207.586,187.504 207.252,186.671 206.5,186C 203.635,185.817 200.969,185.317 198.5,184.5C 196.427,173.012 195.927,161.345 197,149.5C 197.98,160.149 198.813,170.816 199.5,181.5C 200.167,176.015 200.833,170.681 201.5,165.5 Z"/></g>
<g><path style="opacity:0.435" fill="#c68158" d="M 175.5,181.5 C 175.833,181.5 176.167,181.5 176.5,181.5C 176.082,182.222 175.416,182.722 174.5,183C 167.109,183.636 159.776,184.636 152.5,186C 151.429,186.852 150.429,187.685 149.5,188.5C 148.833,188.5 148.167,188.5 147.5,188.5C 149.12,186.016 151.453,184.516 154.5,184C 161.401,182.294 168.401,181.461 175.5,181.5 Z"/></g>
<g><path style="opacity:1" fill="#a24a25" d="M 183.5,179.5 C 183.833,179.5 184.167,179.5 184.5,179.5C 186.833,179.5 189.167,179.5 191.5,179.5C 191.719,180.675 191.386,181.675 190.5,182.5C 185.46,184.898 183.46,188.898 184.5,194.5C 180.476,193.962 176.476,193.295 172.5,192.5C 172.5,191.167 172.5,189.833 172.5,188.5C 170.833,188.5 169.167,188.5 167.5,188.5C 167.167,188.5 166.833,188.5 166.5,188.5C 171.746,185.641 177.079,182.975 182.5,180.5C 183.167,180.5 183.5,180.167 183.5,179.5 Z"/></g>
<g><path style="opacity:0.318" fill="#d3986b" d="M 226.5,181.5 C 230.523,182.075 234.523,182.741 238.5,183.5C 234.679,184.226 230.679,184.226 226.5,183.5C 226.5,182.833 226.5,182.167 226.5,181.5 Z"/></g>
<g><path style="opacity:1" fill="#b15a2c" d="M 182.5,180.5 C 177.079,182.975 171.746,185.641 166.5,188.5C 160.833,188.5 155.167,188.5 149.5,188.5C 150.429,187.685 151.429,186.852 152.5,186C 159.776,184.636 167.109,183.636 174.5,183C 175.416,182.722 176.082,182.222 176.5,181.5C 178.265,180.539 180.265,180.205 182.5,180.5 Z"/></g>
<g><path style="opacity:1" fill="#c27338" d="M 226.5,183.5 C 230.679,184.226 234.679,184.226 238.5,183.5C 238.833,183.5 239.167,183.5 239.5,183.5C 240.211,185.03 241.211,186.363 242.5,187.5C 236.828,187.76 231.161,188.093 225.5,188.5C 225.167,188.5 224.833,188.5 224.5,188.5C 222.2,185.676 219.2,183.843 215.5,183C 219.148,182.938 222.815,183.105 226.5,183.5 Z"/></g>
<g><path style="opacity:0.82" fill="#d39767" d="M 239.5,183.5 C 242.849,184.169 245.516,185.836 247.5,188.5C 245.883,187.962 244.216,187.629 242.5,187.5C 241.211,186.363 240.211,185.03 239.5,183.5 Z"/></g>
<g><path style="opacity:0.984" fill="#b24b30" d="M 147.5,188.5 C 148.167,188.5 148.833,188.5 149.5,188.5C 155.167,188.5 160.833,188.5 166.5,188.5C 166.833,188.5 167.167,188.5 167.5,188.5C 167.5,191.5 167.5,194.5 167.5,197.5C 160.833,197.5 154.167,197.5 147.5,197.5C 147.5,194.5 147.5,191.5 147.5,188.5 Z"/></g>
<g><path style="opacity:1" fill="#c17438" d="M 207.5,188.5 C 207.368,191.57 207.701,194.57 208.5,197.5C 205.167,197.5 201.833,197.5 198.5,197.5C 194.433,195.946 190.1,195.28 185.5,195.5C 185.5,193.167 185.5,190.833 185.5,188.5C 192.833,188.5 200.167,188.5 207.5,188.5 Z"/></g>
<g><path style="opacity:1" fill="#c78743" d="M 207.5,188.5 C 213.167,188.5 218.833,188.5 224.5,188.5C 224.833,188.5 225.167,188.5 225.5,188.5C 225.5,191.5 225.5,194.5 225.5,197.5C 219.833,197.5 214.167,197.5 208.5,197.5C 207.701,194.57 207.368,191.57 207.5,188.5 Z"/></g>
<g><path style="opacity:1" fill="#c28537" d="M 242.5,187.5 C 244.216,187.629 245.883,187.962 247.5,188.5C 247.5,191.5 247.5,194.5 247.5,197.5C 240.167,197.5 232.833,197.5 225.5,197.5C 225.5,194.5 225.5,191.5 225.5,188.5C 231.161,188.093 236.828,187.76 242.5,187.5 Z"/></g>
<g><path style="opacity:0.959" fill="#943a21" d="M 167.5,188.5 C 169.167,188.5 170.833,188.5 172.5,188.5C 172.5,189.833 172.5,191.167 172.5,192.5C 176.476,193.295 180.476,193.962 184.5,194.5C 184.5,195.5 184.5,196.5 184.5,197.5C 178.833,197.5 173.167,197.5 167.5,197.5C 167.5,194.5 167.5,191.5 167.5,188.5 Z"/></g>
</svg>
