<?xml version="1.0" encoding="UTF-8"?>
<!DOCTYPE svg PUBLIC "-//W3C//DTD SVG 1.1//EN" "http://www.w3.org/Graphics/SVG/1.1/DTD/svg11.dtd">
<svg xmlns="http://www.w3.org/2000/svg" version="1.1" width="400px" height="198px" style="shape-rendering:geometricPrecision; text-rendering:geometricPrecision; image-rendering:optimizeQuality; fill-rule:evenodd; clip-rule:evenodd" xmlns:xlink="http://www.w3.org/1999/xlink">
<g><path style="opacity:1" fill="#626874" d="M 144.5,-0.5 C 146.5,-0.5 148.5,-0.5 150.5,-0.5C 150.5,1.16667 150.5,2.83333 150.5,4.5C 149.167,4.5 147.833,4.5 146.5,4.5C 145.833,3.83333 145.167,3.16667 144.5,2.5C 144.5,1.5 144.5,0.5 144.5,-0.5 Z"/></g>
<g><path style="opacity:1" fill="#767d89" d="M 150.5,-0.5 C 154.167,-0.5 157.833,-0.5 161.5,-0.5C 161.916,1.75247 163.249,3.25247 165.5,4C 170.019,4.17526 174.353,4.67526 178.5,5.5C 168.311,4.94257 158.311,5.60923 148.5,7.5C 148.158,6.66175 147.492,6.32842 146.5,6.5C 146.5,5.83333 146.5,5.16667 146.5,4.5C 147.833,4.5 149.167,4.5 150.5,4.5C 150.5,2.83333 150.5,1.16667 150.5,-0.5 Z"/></g>
<g><path style="opacity:1" fill="#888d99" d="M 161.5,-0.5 C 173.167,-0.5 184.833,-0.5 196.5,-0.5C 196.5,1.5 196.5,3.5 196.5,5.5C 190.5,5.5 184.5,5.5 178.5,5.5C 174.353,4.67526 170.019,4.17526 165.5,4C 163.249,3.25247 161.916,1.75247 161.5,-0.5 Z"/></g>
<g><path style="opacity:1" fill="#a3a5b1" d="M 196.5,-0.5 C 203.167,-0.5 209.833,-0.5 216.5,-0.5C 216.5,1.5 216.5,3.5 216.5,5.5C 209.833,5.5 203.167,5.5 196.5,5.5C 196.5,3.5 196.5,1.5 196.5,-0.5 Z"/></g>
<g><path style="opacity:1" fill="#a2a4b0" d="M 221.5,-0.5 C 230.833,-0.5 240.167,-0.5 249.5,-0.5C 249.737,0.791047 249.404,1.79105 248.5,2.5C 241.576,0.536724 234.243,-0.129942 226.5,0.5C 226.5,2.16667 226.5,3.83333 226.5,5.5C 224.833,5.5 223.167,5.5 221.5,5.5C 221.5,3.5 221.5,1.5 221.5,-0.5 Z"/></g>
<g><path style="opacity:0.012" fill="#c0bdbe" d="M 142.5,-0.5 C 143.167,-0.5 143.833,-0.5 144.5,-0.5C 144.5,0.5 144.5,1.5 144.5,2.5C 143.599,1.70951 142.932,0.709515 142.5,-0.5 Z"/></g>
<g><path style="opacity:1" fill="#888c98" d="M 216.5,-0.5 C 218.167,-0.5 219.833,-0.5 221.5,-0.5C 221.5,1.5 221.5,3.5 221.5,5.5C 219.833,5.5 218.167,5.5 216.5,5.5C 216.5,3.5 216.5,1.5 216.5,-0.5 Z"/></g>
<g><path style="opacity:1" fill="#888a99" d="M 248.5,2.5 C 248.631,3.23891 248.464,3.90558 248,4.5C 246.698,5.0848 245.531,5.75147 244.5,6.5C 245.562,8.09922 245.562,9.76589 244.5,11.5C 244.167,11.5 243.833,11.5 243.5,11.5C 243.5,9.5 243.5,7.5 243.5,5.5C 237.833,5.5 232.167,5.5 226.5,5.5C 226.5,3.83333 226.5,2.16667 226.5,0.5C 234.243,-0.129942 241.576,0.536724 248.5,2.5 Z"/></g>
<g><path style="opacity:0.118" fill="#b9b6bb" d="M 249.5,-0.5 C 249.833,-0.5 250.167,-0.5 250.5,-0.5C 250.326,1.86105 249.993,4.19438 249.5,6.5C 247.833,6.5 246.167,6.5 244.5,6.5C 245.531,5.75147 246.698,5.0848 248,4.5C 248.464,3.90558 248.631,3.23891 248.5,2.5C 249.404,1.79105 249.737,0.791047 249.5,-0.5 Z"/></g>
<g><path style="opacity:0.075" fill="#d7d1d0" d="M 106.5,3.5 C 117.505,3.33349 128.505,3.50015 139.5,4C 140.056,4.38258 140.389,4.88258 140.5,5.5C 139.833,5.5 139.167,5.5 138.5,5.5C 127.833,4.83333 117.167,4.16667 106.5,3.5 Z"/></g>
<g><path style="opacity:0.651" fill="#a5a6af" d="M 106.5,3.5 C 117.167,4.16667 127.833,4.83333 138.5,5.5C 136.5,5.5 134.5,5.5 132.5,5.5C 132.634,7.29152 132.301,8.95819 131.5,10.5C 130.209,10.7373 129.209,10.404 128.5,9.5C 128.5,8.16667 128.5,6.83333 128.5,5.5C 127.167,5.5 125.833,5.5 124.5,5.5C 124.5,6.83333 124.5,8.16667 124.5,9.5C 122.167,10.8333 119.833,10.8333 117.5,9.5C 117.5,8.16667 117.5,6.83333 117.5,5.5C 113.298,5.81675 109.298,5.48342 105.5,4.5C 105.5,3.83333 105.833,3.5 106.5,3.5 Z"/></g>
<g><path style="opacity:0.169" fill="#adacaf" d="M 144.5,2.5 C 145.167,3.16667 145.833,3.83333 146.5,4.5C 146.5,5.16667 146.5,5.83333 146.5,6.5C 144.896,5.71304 144.229,4.3797 144.5,2.5 Z"/></g>
<g><path style="opacity:1" fill="#858a95" d="M 105.5,4.5 C 109.298,5.48342 113.298,5.81675 117.5,5.5C 117.5,6.83333 117.5,8.16667 117.5,9.5C 115.712,9.21478 114.045,9.54811 112.5,10.5C 112.863,11.1835 113.196,11.8501 113.5,12.5C 112.516,14.5979 112.849,16.5979 114.5,18.5C 114.5,18.8333 114.5,19.1667 114.5,19.5C 114.446,22.9924 115.446,25.9924 117.5,28.5C 117.5,30.1667 117.5,31.8333 117.5,33.5C 116.285,39.7013 117.952,44.8679 122.5,49C 121.648,50.7284 120.648,50.895 119.5,49.5C 118.331,46.4887 116.664,43.822 114.5,41.5C 112.992,39.8185 111.992,37.8185 111.5,35.5C 109.125,26.7302 106.792,18.0635 104.5,9.5C 104.216,7.58533 104.549,5.91866 105.5,4.5 Z"/></g>
<g><path style="opacity:1" fill="#4d515b" d="M 178.5,6.5 C 178.5,7.16667 178.5,7.83333 178.5,8.5C 171.978,8.1765 165.645,8.50984 159.5,9.5C 157.167,9.5 154.833,9.5 152.5,9.5C 152.5,8.5 152.5,7.5 152.5,6.5C 161.167,6.5 169.833,6.5 178.5,6.5 Z"/></g>
<g><path style="opacity:1" fill="#626678" d="M 178.5,5.5 C 184.5,5.5 190.5,5.5 196.5,5.5C 203.167,5.5 209.833,5.5 216.5,5.5C 218.167,5.5 219.833,5.5 221.5,5.5C 223.167,5.5 224.833,5.5 226.5,5.5C 232.167,5.5 237.833,5.5 243.5,5.5C 243.5,7.5 243.5,9.5 243.5,11.5C 236.847,10.9457 230.18,10.6123 223.5,10.5C 208.53,9.27949 193.53,8.61283 178.5,8.5C 178.5,7.83333 178.5,7.16667 178.5,6.5C 178.5,6.16667 178.5,5.83333 178.5,5.5 Z"/></g>
<g><path style="opacity:1" fill="#afafb6" d="M 288.5,5.5 C 285.167,5.5 281.833,5.5 278.5,5.5C 278.762,6.97782 278.429,8.31116 277.5,9.5C 276.828,8.05084 276.161,6.7175 275.5,5.5C 274.5,5.5 273.5,5.5 272.5,5.5C 272.5,6.83333 272.5,8.16667 272.5,9.5C 270.5,9.5 268.5,9.5 266.5,9.5C 266.5,8.16667 266.5,6.83333 266.5,5.5C 262.486,5.33449 258.486,5.50115 254.5,6C 253.825,10.3716 252.825,14.7049 251.5,19C 251.164,20.0299 250.497,20.5299 249.5,20.5C 251.95,15.4697 252.95,10.1363 252.5,4.5C 258.966,3.89455 265.466,3.56121 272,3.5C 277.876,3.50478 283.376,4.17144 288.5,5.5 Z"/></g>
<g><path style="opacity:1" fill="#878a98" d="M 275.5,5.5 C 276.161,6.7175 276.828,8.05084 277.5,9.5C 278.429,8.31116 278.762,6.97782 278.5,5.5C 281.833,5.5 285.167,5.5 288.5,5.5C 288.5,6.16667 288.5,6.83333 288.5,7.5C 286.77,11.1842 285.77,15.1842 285.5,19.5C 284.632,25.1031 282.965,30.4364 280.5,35.5C 279.679,32.3586 279.179,29.0252 279,25.5C 277.893,26.7119 277.393,26.3786 277.5,24.5C 278.614,20.75 279.614,17.0833 280.5,13.5C 281.576,17.0999 281.576,15.7665 280.5,9.5C 278.929,10.3094 277.262,10.6427 275.5,10.5C 275.5,8.83333 275.5,7.16667 275.5,5.5 Z"/></g>
<g><path style="opacity:1" fill="#868a97" d="M 128.5,9.5 C 127.167,9.5 125.833,9.5 124.5,9.5C 124.5,8.16667 124.5,6.83333 124.5,5.5C 125.833,5.5 127.167,5.5 128.5,5.5C 128.5,6.83333 128.5,8.16667 128.5,9.5 Z"/></g>
<g><path style="opacity:1" fill="#848a95" d="M 138.5,5.5 C 139.167,5.5 139.833,5.5 140.5,5.5C 139.766,6.70792 139.433,8.04125 139.5,9.5C 139.338,11.5273 139.505,13.5273 140,15.5C 140.383,16.056 140.883,16.3893 141.5,16.5C 141.5,16.8333 141.5,17.1667 141.5,17.5C 141.5,19.5 142.5,20.5 144.5,20.5C 145.605,21.6005 146.938,22.2671 148.5,22.5C 147.194,24.2452 146.194,26.2452 145.5,28.5C 138.982,25.1425 135.149,19.8092 134,12.5C 133.517,13.448 133.351,14.448 133.5,15.5C 132.833,14.8333 132.167,14.1667 131.5,13.5C 131.5,13.1667 131.5,12.8333 131.5,12.5C 132.833,11.8333 132.833,11.1667 131.5,10.5C 132.301,8.95819 132.634,7.29152 132.5,5.5C 134.5,5.5 136.5,5.5 138.5,5.5 Z"/></g>
<g><path style="opacity:1" fill="#717885" d="M 159.5,9.5 C 165.645,8.50984 171.978,8.1765 178.5,8.5C 178.194,11.3854 178.527,14.0521 179.5,16.5C 180.029,21.8223 180.529,27.1557 181,32.5C 182.198,39.2848 184.031,45.9515 186.5,52.5C 184.974,53.1047 183.974,54.2714 183.5,56C 184.639,61.4162 184.806,66.9162 184,72.5C 183.329,71.7476 182.496,71.4142 181.5,71.5C 176.684,63.3692 172.351,55.0358 168.5,46.5C 168.5,45.8333 168.5,45.1667 168.5,44.5C 169.117,44.6107 169.617,44.944 170,45.5C 169.716,43.3208 169.883,41.3208 170.5,39.5C 173.218,45.9323 176.718,51.9323 181,57.5C 181.167,57 181.333,56.5 181.5,56C 175.885,42.0368 173.552,27.5368 174.5,12.5C 172.833,12.5 171.167,12.5 169.5,12.5C 169.747,11.1237 171.081,10.2903 173.5,10C 168.845,9.50085 164.179,9.33418 159.5,9.5 Z"/></g>
<g><path style="opacity:1" fill="#868b97" d="M 178.5,8.5 C 193.53,8.61283 208.53,9.27949 223.5,10.5C 224.167,11.1667 224.833,11.8333 225.5,12.5C 221.336,12.9557 217.336,13.6223 213.5,14.5C 212.507,22.6499 212.174,30.9832 212.5,39.5C 211.833,39.5 211.5,39.1667 211.5,38.5C 211.802,35.9407 211.468,33.6074 210.5,31.5C 208.996,29.1644 206.996,27.331 204.5,26C 200.514,25.5012 196.514,25.3345 192.5,25.5C 196.312,24.6762 200.312,24.1762 204.5,24C 199.5,23.3333 194.5,23.3333 189.5,24C 188.333,25.1667 187.167,26.3333 186,27.5C 185.333,22.1667 185.333,16.8333 186,11.5C 188.203,11.761 190.37,11.261 192.5,10C 188.179,9.50098 183.846,9.33432 179.5,9.5C 179.5,11.8333 179.5,14.1667 179.5,16.5C 178.527,14.0521 178.194,11.3854 178.5,8.5 Z"/></g>
<g><path style="opacity:0.237" fill="#6b6f76" d="M 117.5,9.5 C 119.833,10.8333 122.167,10.8333 124.5,9.5C 125.833,9.5 127.167,9.5 128.5,9.5C 129.209,10.404 130.209,10.7373 131.5,10.5C 132.833,11.1667 132.833,11.8333 131.5,12.5C 125.5,12.5 119.5,12.5 113.5,12.5C 113.196,11.8501 112.863,11.1835 112.5,10.5C 114.045,9.54811 115.712,9.21478 117.5,9.5 Z"/></g>
<g><path style="opacity:0.333" fill="#b6b5b8" d="M 139.5,9.5 C 140.407,11.6568 141.073,13.9902 141.5,16.5C 140.883,16.3893 140.383,16.056 140,15.5C 139.505,13.5273 139.338,11.5273 139.5,9.5 Z"/></g>
<g><path style="opacity:1" fill="#848b96" d="M 169.5,12.5 C 171.167,12.5 172.833,12.5 174.5,12.5C 173.552,27.5368 175.885,42.0368 181.5,56C 181.333,56.5 181.167,57 181,57.5C 176.718,51.9323 173.218,45.9323 170.5,39.5C 167.746,31.0609 166.413,22.3942 166.5,13.5C 167.791,13.7373 168.791,13.404 169.5,12.5 Z"/></g>
<g><path style="opacity:1" fill="#9799a6" d="M 225.5,12.5 C 230.5,12.5 235.5,12.5 240.5,12.5C 240.813,16.0419 240.479,19.3752 239.5,22.5C 239.5,19.5 239.5,16.5 239.5,13.5C 237.5,13.5 235.5,13.5 233.5,13.5C 231.801,13.3398 230.134,13.5065 228.5,14C 229.463,28.669 229.796,43.169 229.5,57.5C 226.513,64.6674 221.18,69.0007 213.5,70.5C 212.501,60.1881 212.168,49.8548 212.5,39.5C 212.174,30.9832 212.507,22.6499 213.5,14.5C 217.336,13.6223 221.336,12.9557 225.5,12.5 Z"/></g>
<g><path style="opacity:1" fill="#9da0ac" d="M 233.5,13.5 C 233.426,25.7227 233.426,37.7227 233.5,49.5C 233.206,52.7541 231.873,55.4208 229.5,57.5C 229.796,43.169 229.463,28.669 228.5,14C 230.134,13.5065 231.801,13.3398 233.5,13.5 Z"/></g>
<g><path style="opacity:1" fill="#a3a4b0" d="M 233.5,13.5 C 235.5,13.5 237.5,13.5 239.5,13.5C 239.5,16.5 239.5,19.5 239.5,22.5C 239.148,31.8838 237.148,40.8838 233.5,49.5C 233.426,37.7227 233.426,25.7227 233.5,13.5 Z"/></g>
<g><path style="opacity:0.063" fill="#b9b7ba" d="M 113.5,12.5 C 114.341,14.3792 114.675,16.3792 114.5,18.5C 112.849,16.5979 112.516,14.5979 113.5,12.5 Z"/></g>
<g><path style="opacity:0.235" fill="#adadb0" d="M 148.5,9.5 C 149.492,9.32842 150.158,9.66175 150.5,10.5C 150.806,13.3854 150.473,16.0521 149.5,18.5C 149.492,15.4552 149.159,12.4552 148.5,9.5 Z"/></g>
<g><path style="opacity:1" fill="#a9acb6" d="M 213.5,14.5 C 216.833,14.5 220.167,14.5 223.5,14.5C 224.502,33.315 221.335,51.315 214,68.5C 213.5,50.5031 213.333,32.5031 213.5,14.5 Z"/></g>
<g><path style="opacity:0.2" fill="#a09fa9" d="M 288.5,7.5 C 288.5,11.1667 288.5,14.8333 288.5,18.5C 287.391,18.5569 286.391,18.8902 285.5,19.5C 285.77,15.1842 286.77,11.1842 288.5,7.5 Z"/></g>
<g><path style="opacity:0.141" fill="#bbbab9" d="M 131.5,13.5 C 132.167,14.1667 132.833,14.8333 133.5,15.5C 133.914,18.7431 134.914,21.7431 136.5,24.5C 133.197,21.6891 131.53,18.0224 131.5,13.5 Z"/></g>
<g><path style="opacity:0.227" fill="#b8b6b9" d="M 114.5,19.5 C 115.946,22.2542 116.946,25.2542 117.5,28.5C 115.446,25.9924 114.446,22.9924 114.5,19.5 Z"/></g>
<g><path style="opacity:0.024" fill="#c3c0c1" d="M 261.5,13.5 C 261.341,17.6744 259.675,21.0078 256.5,23.5C 258.175,20.1228 259.842,16.7895 261.5,13.5 Z"/></g>
<g><path style="opacity:0.353" fill="#b0b0b4" d="M 280.5,13.5 C 279.614,17.0833 278.614,20.75 277.5,24.5C 277.167,24.5 276.833,24.5 276.5,24.5C 277.486,20.5568 278.152,16.5568 278.5,12.5C 279.925,10.9689 280.591,11.3023 280.5,13.5 Z"/></g>
<g><path style="opacity:1" fill="#757d89" d="M 159.5,9.5 C 164.179,9.33418 168.845,9.50085 173.5,10C 171.081,10.2903 169.747,11.1237 169.5,12.5C 168.791,13.404 167.791,13.7373 166.5,13.5C 166.413,22.3942 167.746,31.0609 170.5,39.5C 169.883,41.3208 169.716,43.3208 170,45.5C 169.617,44.944 169.117,44.6107 168.5,44.5C 164.065,33.1965 161.065,21.5298 159.5,9.5 Z"/></g>
<g><path style="opacity:0.998" fill="#696f7c" d="M 247.5,28.5 C 246.609,29.1098 245.609,29.4431 244.5,29.5C 242.744,28.4479 242.077,26.7812 242.5,24.5C 243.93,24.5792 245.264,24.2458 246.5,23.5C 247.452,25.0453 247.785,26.712 247.5,28.5 Z"/></g>
<g><path style="opacity:0.135" fill="#b3b3b3" d="M 136.5,24.5 C 137.833,25.1667 138.833,26.1667 139.5,27.5C 137.5,27.5 136.5,26.5 136.5,24.5 Z"/></g>
<g><path style="opacity:1" fill="#4f5052" d="M 192.5,25.5 C 196.514,25.3345 200.514,25.5012 204.5,26C 206.996,27.331 208.996,29.1644 210.5,31.5C 210.662,33.5273 210.495,35.5273 210,37.5C 210.081,33.1538 208.247,29.9872 204.5,28C 199.581,27.1985 194.748,27.3651 190,28.5C 189.536,27.9056 189.369,27.2389 189.5,26.5C 190.391,25.8902 191.391,25.5569 192.5,25.5 Z"/></g>
<g><path style="opacity:1" fill="#979aa5" d="M 276.5,24.5 C 276.833,24.5 277.167,24.5 277.5,24.5C 277.393,26.3786 277.893,26.7119 279,25.5C 279.179,29.0252 279.679,32.3586 280.5,35.5C 280.5,36.1667 280.5,36.8333 280.5,37.5C 278.78,35.3419 277.947,32.6752 278,29.5C 276.576,33.2968 276.076,37.2968 276.5,41.5C 276.672,42.4916 276.338,43.1583 275.5,43.5C 275.815,39.6286 275.482,35.9619 274.5,32.5C 274.833,31.1667 275.167,29.8333 275.5,28.5C 275.433,27.0413 275.766,25.7079 276.5,24.5 Z"/></g>
<g><path style="opacity:0.302" fill="#bdb9bd" d="M 288.5,18.5 C 286.582,25.2015 283.916,31.5348 280.5,37.5C 280.5,36.8333 280.5,36.1667 280.5,35.5C 282.965,30.4364 284.632,25.1031 285.5,19.5C 286.391,18.8902 287.391,18.5569 288.5,18.5 Z"/></g>
<g><path style="opacity:0.161" fill="#adadaf" d="M 104.5,9.5 C 106.792,18.0635 109.125,26.7302 111.5,35.5C 110.883,35.3893 110.383,35.056 110,34.5C 107.03,26.3012 105.197,17.9679 104.5,9.5 Z"/></g>
<g><path style="opacity:1" fill="#7b838d" d="M 150.5,10.5 C 151.5,10.5 152.5,10.5 153.5,10.5C 153.532,16.1886 153.866,21.8552 154.5,27.5C 154.5,31.5 154.5,35.5 154.5,39.5C 153.693,36.7038 152.693,33.8705 151.5,31C 147.329,30.3307 143.329,29.1641 139.5,27.5C 138.833,26.1667 137.833,25.1667 136.5,24.5C 134.914,21.7431 133.914,18.7431 133.5,15.5C 133.351,14.448 133.517,13.448 134,12.5C 135.149,19.8092 138.982,25.1425 145.5,28.5C 146.194,26.2452 147.194,24.2452 148.5,22.5C 149.434,21.4324 149.768,20.099 149.5,18.5C 150.473,16.0521 150.806,13.3854 150.5,10.5 Z"/></g>
<g><path style="opacity:1" fill="#5a616e" d="M 147.5,24.5 C 148.833,24.5 150.167,24.5 151.5,24.5C 151.5,26.1667 151.5,27.8333 151.5,29.5C 150.167,29.5 148.833,29.5 147.5,29.5C 147.5,27.8333 147.5,26.1667 147.5,24.5 Z"/></g>
<g><path style="opacity:0.004" fill="#b5b4b7" d="M 141.5,17.5 C 142.833,18.1667 143.833,19.1667 144.5,20.5C 142.5,20.5 141.5,19.5 141.5,17.5 Z"/></g>
<g><path style="opacity:0.278" fill="#9a9da3" d="M 256.5,23.5 C 253.144,28.1859 248.478,30.8525 242.5,31.5C 242.167,31.5 241.833,31.5 241.5,31.5C 242.5,30.8333 243.5,30.1667 244.5,29.5C 245.609,29.4431 246.609,29.1098 247.5,28.5C 250.752,27.2391 253.752,25.5725 256.5,23.5 Z"/></g>
<g><path style="opacity:1" fill="#62676d" d="M 189.5,26.5 C 189.369,27.2389 189.536,27.9056 190,28.5C 194.748,27.3651 199.581,27.1985 204.5,28C 208.247,29.9872 210.081,33.1538 210,37.5C 210.495,35.5273 210.662,33.5273 210.5,31.5C 211.468,33.6074 211.802,35.9407 211.5,38.5C 207.723,43.0648 203.723,47.3981 199.5,51.5C 198.624,51.3691 197.957,51.7025 197.5,52.5C 201.445,53.4909 205.445,53.8242 209.5,53.5C 209.5,55.1667 209.5,56.8333 209.5,58.5C 202.833,58.5 196.167,58.5 189.5,58.5C 186.401,57.4673 185.734,55.4673 187.5,52.5C 193.169,48.9968 197.669,44.3302 201,38.5C 201.491,33.8214 199.325,31.4881 194.5,31.5C 194.828,36.4177 192.495,38.4177 187.5,37.5C 187.335,34.1501 187.502,30.8168 188,27.5C 188.383,26.944 188.883,26.6107 189.5,26.5 Z"/></g>
<g><path style="opacity:1" fill="#5e6570" d="M 178.5,5.5 C 178.5,5.83333 178.5,6.16667 178.5,6.5C 169.833,6.5 161.167,6.5 152.5,6.5C 152.5,7.5 152.5,8.5 152.5,9.5C 154.833,9.5 157.167,9.5 159.5,9.5C 161.065,21.5298 164.065,33.1965 168.5,44.5C 168.5,45.1667 168.5,45.8333 168.5,46.5C 167.732,45.7375 167.232,44.7375 167,43.5C 167.753,53.2035 167.586,62.8702 166.5,72.5C 160.154,58.1164 156.154,43.1164 154.5,27.5C 153.866,21.8552 153.532,16.1886 153.5,10.5C 152.5,10.5 151.5,10.5 150.5,10.5C 150.158,9.66175 149.492,9.32842 148.5,9.5C 148.5,8.83333 148.5,8.16667 148.5,7.5C 158.311,5.60923 168.311,4.94257 178.5,5.5 Z"/></g>
<g><path style="opacity:1" fill="#a6a8b3" d="M 280.5,37.5 C 280.573,39.0269 279.906,40.0269 278.5,40.5C 277.833,40.8333 277.167,41.1667 276.5,41.5C 276.076,37.2968 276.576,33.2968 278,29.5C 277.947,32.6752 278.78,35.3419 280.5,37.5 Z"/></g>
<g><path style="opacity:0.086" fill="#c2c2c4" d="M 117.5,28.5 C 119.677,32.3333 121.677,36.3333 123.5,40.5C 121.5,38.1667 119.5,35.8333 117.5,33.5C 117.5,31.8333 117.5,30.1667 117.5,28.5 Z"/></g>
<g><path style="opacity:1" fill="#878c98" d="M 192.5,25.5 C 191.391,25.5569 190.391,25.8902 189.5,26.5C 188.883,26.6107 188.383,26.944 188,27.5C 187.502,30.8168 187.335,34.1501 187.5,37.5C 192.495,38.4177 194.828,36.4177 194.5,31.5C 199.325,31.4881 201.491,33.8214 201,38.5C 197.669,44.3302 193.169,48.9968 187.5,52.5C 187.167,52.5 186.833,52.5 186.5,52.5C 184.031,45.9515 182.198,39.2848 181,32.5C 180.529,27.1557 180.029,21.8223 179.5,16.5C 179.5,14.1667 179.5,11.8333 179.5,9.5C 183.846,9.33432 188.179,9.50098 192.5,10C 190.37,11.261 188.203,11.761 186,11.5C 185.333,16.8333 185.333,22.1667 186,27.5C 187.167,26.3333 188.333,25.1667 189.5,24C 194.5,23.3333 199.5,23.3333 204.5,24C 200.312,24.1762 196.312,24.6762 192.5,25.5 Z"/></g>
<g><path style="opacity:0.012" fill="#a1a3a7" d="M 139.5,27.5 C 143.329,29.1641 147.329,30.3307 151.5,31C 152.693,33.8705 153.693,36.7038 154.5,39.5C 155.008,43.1974 155.674,46.8641 156.5,50.5C 155.833,50.5 155.167,50.5 154.5,50.5C 153.648,44.4428 152.481,38.4428 151,32.5C 148.198,31.6702 145.365,30.8368 142.5,30C 141.058,29.6232 140.058,28.7899 139.5,27.5 Z"/></g>
<g><path style="opacity:0.22" fill="#c4c2c2" d="M 275.5,28.5 C 275.167,29.8333 274.833,31.1667 274.5,32.5C 272.988,36.2009 270.988,39.5342 268.5,42.5C 270.341,37.4843 272.674,32.8177 275.5,28.5 Z"/></g>
<g><path style="opacity:0.325" fill="#c4c1c4" d="M 278.5,40.5 C 278.002,43.3263 276.669,45.6597 274.5,47.5C 274.833,46.1667 275.167,44.8333 275.5,43.5C 276.338,43.1583 276.672,42.4916 276.5,41.5C 277.167,41.1667 277.833,40.8333 278.5,40.5 Z"/></g>
<g><path style="opacity:0.247" fill="#bbbaba" d="M 114.5,41.5 C 116.664,43.822 118.331,46.4887 119.5,49.5C 116.836,47.5156 115.169,44.8489 114.5,41.5 Z"/></g>
<g><path style="opacity:1" fill="#9fa5ac" d="M 117.5,33.5 C 119.5,35.8333 121.5,38.1667 123.5,40.5C 124.89,41.8993 125.89,43.5659 126.5,45.5C 124.677,48.016 123.677,51.016 123.5,54.5C 121.413,53.4154 120.08,51.7488 119.5,49.5C 120.648,50.895 121.648,50.7284 122.5,49C 117.952,44.8679 116.285,39.7013 117.5,33.5 Z"/></g>
<g><path style="opacity:1" fill="#5b616c" d="M 168.5,46.5 C 172.351,55.0358 176.684,63.3692 181.5,71.5C 182.441,73.0495 183.107,74.7162 183.5,76.5C 182.287,77.4971 182.454,78.4971 184,79.5C 184.188,85.7482 184.688,91.9149 185.5,98C 193.345,98.8223 201.011,98.6557 208.5,97.5C 209.492,97.3284 210.158,97.6618 210.5,98.5C 210.5,98.8333 210.5,99.1667 210.5,99.5C 201.416,99.8044 192.416,99.4711 183.5,98.5C 175.82,91.1384 170.154,82.4717 166.5,72.5C 167.586,62.8702 167.753,53.2035 167,43.5C 167.232,44.7375 167.732,45.7375 168.5,46.5 Z"/></g>
<g><path style="opacity:1" fill="#a6a8b2" d="M 274.5,47.5 C 271.217,53.7834 266.55,58.7834 260.5,62.5C 261.742,60.7499 263.242,59.0832 265,57.5C 265.333,54.8333 265.667,52.1667 266,49.5C 268.392,46.772 270.392,43.772 272,40.5C 271.97,43.3615 272.803,45.6948 274.5,47.5 Z"/></g>
<g><path style="opacity:1" fill="#4f5154" d="M 199.5,51.5 C 203.5,51.5 207.5,51.5 211.5,51.5C 211.662,53.5273 211.495,55.5273 211,57.5C 210.617,58.056 210.117,58.3893 209.5,58.5C 209.5,56.8333 209.5,55.1667 209.5,53.5C 205.445,53.8242 201.445,53.4909 197.5,52.5C 197.957,51.7025 198.624,51.3691 199.5,51.5 Z"/></g>
<g><path style="opacity:1" fill="#91979e" d="M 133.5,53.5 C 137.857,56.8643 142.191,60.1976 146.5,63.5C 141.536,62.0154 137.036,59.6821 133,56.5C 132.751,57.624 132.251,58.624 131.5,59.5C 130.893,59.3764 130.56,59.0431 130.5,58.5C 130.972,56.4687 131.972,54.8021 133.5,53.5 Z"/></g>
<g><path style="opacity:0.522" fill="#afafb1" d="M 266.5,45.5 C 263.574,51.4276 259.241,56.0943 253.5,59.5C 257.812,54.8536 262.145,50.1869 266.5,45.5 Z"/></g>
<g><path style="opacity:1" fill="#858996" d="M 275.5,5.5 C 275.5,7.16667 275.5,8.83333 275.5,10.5C 277.262,10.6427 278.929,10.3094 280.5,9.5C 281.576,15.7665 281.576,17.0999 280.5,13.5C 280.591,11.3023 279.925,10.9689 278.5,12.5C 272.642,12.1778 266.975,12.5111 261.5,13.5C 259.842,16.7895 258.175,20.1228 256.5,23.5C 253.752,25.5725 250.752,27.2391 247.5,28.5C 247.785,26.712 247.452,25.0453 246.5,23.5C 245.264,24.2458 243.93,24.5792 242.5,24.5C 242.077,26.7812 242.744,28.4479 244.5,29.5C 243.5,30.1667 242.5,30.8333 241.5,31.5C 239.414,43.8655 236.414,55.8655 232.5,67.5C 232.103,66.475 231.437,66.3083 230.5,67C 227.226,70.112 223.56,72.612 219.5,74.5C 214.317,76.3501 208.983,76.8501 203.5,76C 196.756,71.7638 192.09,65.9304 189.5,58.5C 196.167,58.5 202.833,58.5 209.5,58.5C 210.117,58.3893 210.617,58.056 211,57.5C 211.495,55.5273 211.662,53.5273 211.5,51.5C 207.5,51.5 203.5,51.5 199.5,51.5C 203.723,47.3981 207.723,43.0648 211.5,38.5C 211.5,39.1667 211.833,39.5 212.5,39.5C 212.168,49.8548 212.501,60.1881 213.5,70.5C 221.18,69.0007 226.513,64.6674 229.5,57.5C 231.873,55.4208 233.206,52.7541 233.5,49.5C 237.148,40.8838 239.148,31.8838 239.5,22.5C 240.479,19.3752 240.813,16.0419 240.5,12.5C 235.5,12.5 230.5,12.5 225.5,12.5C 224.833,11.8333 224.167,11.1667 223.5,10.5C 230.18,10.6123 236.847,10.9457 243.5,11.5C 242.356,15.6478 242.356,19.6478 243.5,23.5C 244.167,23.5 244.5,23.1667 244.5,22.5C 246.514,22.6085 248.18,21.9418 249.5,20.5C 250.497,20.5299 251.164,20.0299 251.5,19C 252.825,14.7049 253.825,10.3716 254.5,6C 258.486,5.50115 262.486,5.33449 266.5,5.5C 266.5,6.83333 266.5,8.16667 266.5,9.5C 268.5,9.5 270.5,9.5 272.5,9.5C 272.5,8.16667 272.5,6.83333 272.5,5.5C 273.5,5.5 274.5,5.5 275.5,5.5 Z"/></g>
<g><path style="opacity:0.18" fill="#a0a0a9" d="M 243.5,11.5 C 243.833,11.5 244.167,11.5 244.5,11.5C 244.5,15.1667 244.5,18.8333 244.5,22.5C 243.833,22.5 243.5,22.8333 243.5,23.5C 242.356,19.6478 242.356,15.6478 243.5,11.5 Z"/></g>
<g><path style="opacity:0.184" fill="#b9b7b8" d="M 123.5,54.5 C 126.167,56.5 128.5,58.8333 130.5,61.5C 127.167,60.1667 124.833,57.8333 123.5,54.5 Z"/></g>
<g><path style="opacity:1" fill="#a4aab0" d="M 126.5,45.5 C 129.55,47.5491 131.883,50.2157 133.5,53.5C 131.972,54.8021 130.972,56.4687 130.5,58.5C 129.883,58.3893 129.383,58.056 129,57.5C 128.925,53.248 128.092,49.248 126.5,45.5 Z"/></g>
<g><path style="opacity:1" fill="#828a92" d="M 126.5,45.5 C 128.092,49.248 128.925,53.248 129,57.5C 129.383,58.056 129.883,58.3893 130.5,58.5C 130.56,59.0431 130.893,59.3764 131.5,59.5C 132.251,58.624 132.751,57.624 133,56.5C 137.036,59.6821 141.536,62.0154 146.5,63.5C 147.823,65.6824 149.49,66.3491 151.5,65.5C 151.833,65.5 152.167,65.5 152.5,65.5C 152.574,67.4109 153.574,68.5776 155.5,69C 157,69.5 158.5,70 160,70.5C 161.03,70.1639 161.53,69.4972 161.5,68.5C 162.75,68.5774 163.583,69.244 164,70.5C 164.179,74.0252 164.679,77.3586 165.5,80.5C 165.958,85.5371 164.958,90.2038 162.5,94.5C 162.957,95.2975 163.624,95.6309 164.5,95.5C 162.685,98.4074 160.019,99.7407 156.5,99.5C 156.878,97.079 157.545,94.7457 158.5,92.5C 160.975,91.3126 161.975,89.3126 161.5,86.5C 162.399,79.0632 159.066,75.3965 151.5,75.5C 150.514,73.5923 148.848,72.5923 146.5,72.5C 140.115,70.3118 134.782,66.6451 130.5,61.5C 128.5,58.8333 126.167,56.5 123.5,54.5C 123.677,51.016 124.677,48.016 126.5,45.5 Z"/></g>
<g><path style="opacity:1" fill="#6b7181" d="M 186.5,52.5 C 186.833,52.5 187.167,52.5 187.5,52.5C 185.734,55.4673 186.401,57.4673 189.5,58.5C 192.09,65.9304 196.756,71.7638 203.5,76C 208.983,76.8501 214.317,76.3501 219.5,74.5C 217.28,80.0341 216.946,85.7007 218.5,91.5C 218.5,92.1667 218.5,92.8333 218.5,93.5C 217.833,94.8333 216.833,95.8333 215.5,96.5C 213.833,97.1667 212.167,97.8333 210.5,98.5C 210.158,97.6618 209.492,97.3284 208.5,97.5C 205.06,95.9451 201.727,94.1118 198.5,92C 193.269,86.938 188.269,81.7714 183.5,76.5C 183.107,74.7162 182.441,73.0495 181.5,71.5C 182.496,71.4142 183.329,71.7476 184,72.5C 184.806,66.9162 184.639,61.4162 183.5,56C 183.974,54.2714 184.974,53.1047 186.5,52.5 Z"/></g>
<g><path style="opacity:0.325" fill="#b3b1b7" d="M 241.5,31.5 C 241.833,31.5 242.167,31.5 242.5,31.5C 240.861,44.0242 238.195,56.3575 234.5,68.5C 233.833,68.5 233.5,68.8333 233.5,69.5C 233.167,69.5 232.833,69.5 232.5,69.5C 232.5,69.1667 232.5,68.8333 232.5,68.5C 232.5,68.1667 232.5,67.8333 232.5,67.5C 236.414,55.8655 239.414,43.8655 241.5,31.5 Z"/></g>
<g><path style="opacity:0.204" fill="#b2b2b5" d="M 154.5,50.5 C 155.167,50.5 155.833,50.5 156.5,50.5C 157.833,55.8333 159.167,61.1667 160.5,66.5C 160.5,66.8333 160.5,67.1667 160.5,67.5C 157.746,62.1774 155.746,56.5108 154.5,50.5 Z"/></g>
<g><path style="opacity:1" fill="#848a95" d="M 274.5,32.5 C 275.482,35.9619 275.815,39.6286 275.5,43.5C 275.167,44.8333 274.833,46.1667 274.5,47.5C 272.803,45.6948 271.97,43.3615 272,40.5C 270.392,43.772 268.392,46.772 266,49.5C 265.667,52.1667 265.333,54.8333 265,57.5C 263.242,59.0832 261.742,60.7499 260.5,62.5C 260.5,63.1667 260.167,63.5 259.5,63.5C 254.991,65.9191 250.658,68.5857 246.5,71.5C 241.067,73.1933 235.734,75.1933 230.5,77.5C 230.5,76.8333 230.5,76.1667 230.5,75.5C 230.927,72.9902 231.593,70.6568 232.5,68.5C 232.5,68.8333 232.5,69.1667 232.5,69.5C 234.726,70.559 237.059,70.3923 239.5,69C 244.752,66.5524 249.419,63.3857 253.5,59.5C 259.241,56.0943 263.574,51.4276 266.5,45.5C 266.932,44.2905 267.599,43.2905 268.5,42.5C 270.988,39.5342 272.988,36.2009 274.5,32.5 Z"/></g>
<g><path style="opacity:0.275" fill="#a4a7aa" d="M 146.5,63.5 C 148.403,63.7959 150.07,64.4625 151.5,65.5C 149.49,66.3491 147.823,65.6824 146.5,63.5 Z"/></g>
<g><path style="opacity:0.173" fill="#a2a3aa" d="M 259.5,63.5 C 256.012,67.4168 251.679,70.0834 246.5,71.5C 250.658,68.5857 254.991,65.9191 259.5,63.5 Z"/></g>
<g><path style="opacity:0.282" fill="#9b9fa5" d="M 152.5,65.5 C 154.992,67.6793 157.658,68.346 160.5,67.5C 160.5,67.1667 160.5,66.8333 160.5,66.5C 161.338,66.8417 161.672,67.5084 161.5,68.5C 161.53,69.4972 161.03,70.1639 160,70.5C 158.5,70 157,69.5 155.5,69C 153.574,68.5776 152.574,67.4109 152.5,65.5 Z"/></g>
<g><path style="opacity:0.694" fill="#979ba1" d="M 253.5,59.5 C 249.419,63.3857 244.752,66.5524 239.5,69C 237.059,70.3923 234.726,70.559 232.5,69.5C 232.833,69.5 233.167,69.5 233.5,69.5C 234.167,69.5 234.5,69.1667 234.5,68.5C 241.247,66.2921 247.581,63.2921 253.5,59.5 Z"/></g>
<g><path style="opacity:1" fill="#6c6f81" d="M 232.5,67.5 C 232.5,67.8333 232.5,68.1667 232.5,68.5C 231.593,70.6568 230.927,72.9902 230.5,75.5C 227.829,78.175 226.162,81.5084 225.5,85.5C 224.29,85.9321 223.29,86.5987 222.5,87.5C 221.5,89.1667 220.167,90.5 218.5,91.5C 216.946,85.7007 217.28,80.0341 219.5,74.5C 223.56,72.612 227.226,70.112 230.5,67C 231.437,66.3083 232.103,66.475 232.5,67.5 Z"/></g>
<g><path style="opacity:0.184" fill="#a2a4a5" d="M 146.5,72.5 C 148.848,72.5923 150.514,73.5923 151.5,75.5C 149.435,75.047 147.768,74.047 146.5,72.5 Z"/></g>
<g><path style="opacity:1" fill="#707884" d="M 154.5,27.5 C 156.154,43.1164 160.154,58.1164 166.5,72.5C 170.154,82.4717 175.82,91.1384 183.5,98.5C 178.154,94.4819 173.154,90.1485 168.5,85.5C 168.509,83.6916 168.009,82.0249 167,80.5C 166.31,79.2617 165.81,79.2617 165.5,80.5C 164.679,77.3586 164.179,74.0252 164,70.5C 163.583,69.244 162.75,68.5774 161.5,68.5C 161.672,67.5084 161.338,66.8417 160.5,66.5C 159.167,61.1667 157.833,55.8333 156.5,50.5C 155.674,46.8641 155.008,43.1974 154.5,39.5C 154.5,35.5 154.5,31.5 154.5,27.5 Z"/></g>
<g><path style="opacity:0.114" fill="#9da0a5" d="M 246.5,71.5 C 242.608,74.2516 238.275,76.2516 233.5,77.5C 232.638,78.7658 231.971,80.0992 231.5,81.5C 230.662,81.1583 230.328,80.4916 230.5,79.5C 230.5,78.8333 230.5,78.1667 230.5,77.5C 235.734,75.1933 241.067,73.1933 246.5,71.5 Z"/></g>
<g><path style="opacity:1" fill="#606773" d="M 230.5,75.5 C 230.5,76.1667 230.5,76.8333 230.5,77.5C 230.5,78.1667 230.5,78.8333 230.5,79.5C 229.517,83.2984 229.183,87.2984 229.5,91.5C 229.607,93.3786 229.107,93.7119 228,92.5C 226.589,90.3496 225.755,88.0163 225.5,85.5C 226.162,81.5084 227.829,78.175 230.5,75.5 Z"/></g>
<g><path style="opacity:1" fill="#575b67" d="M 183.5,76.5 C 188.269,81.7714 193.269,86.938 198.5,92C 201.727,94.1118 205.06,95.9451 208.5,97.5C 201.011,98.6557 193.345,98.8223 185.5,98C 184.688,91.9149 184.188,85.7482 184,79.5C 182.454,78.4971 182.287,77.4971 183.5,76.5 Z"/></g>
<g><path style="opacity:0.999" fill="#606671" d="M 168.5,85.5 C 168.037,88.221 167.371,90.8877 166.5,93.5C 166.167,94.5 165.5,95.1667 164.5,95.5C 163.624,95.6309 162.957,95.2975 162.5,94.5C 164.958,90.2038 165.958,85.5371 165.5,80.5C 165.81,79.2617 166.31,79.2617 167,80.5C 168.009,82.0249 168.509,83.6916 168.5,85.5 Z"/></g>
<g><path style="opacity:1" fill="#828b94" d="M 230.5,79.5 C 230.328,80.4916 230.662,81.1583 231.5,81.5C 231.5,82.5 231.5,83.5 231.5,84.5C 232.021,88.4809 232.354,92.4809 232.5,96.5C 231.687,94.7392 230.687,93.0725 229.5,91.5C 229.183,87.2984 229.517,83.2984 230.5,79.5 Z"/></g>
<g><path style="opacity:0.224" fill="#b1b1b2" d="M 161.5,86.5 C 161.975,89.3126 160.975,91.3126 158.5,92.5C 159.508,90.4561 160.508,88.4561 161.5,86.5 Z"/></g>
<g><path style="opacity:0.18" fill="#aaa8ad" d="M 222.5,87.5 C 224.379,88.8952 225.379,90.8952 225.5,93.5C 224.034,92.653 223.2,91.3197 223,89.5C 221.629,91.0414 220.129,92.3747 218.5,93.5C 218.5,92.8333 218.5,92.1667 218.5,91.5C 220.167,90.5 221.5,89.1667 222.5,87.5 Z"/></g>
<g><path style="opacity:1" fill="#737b82" d="M 225.5,85.5 C 225.755,88.0163 226.589,90.3496 228,92.5C 229.107,93.7119 229.607,93.3786 229.5,91.5C 230.687,93.0725 231.687,94.7392 232.5,96.5C 234.19,96.8564 235.19,97.8564 235.5,99.5C 233.585,99.7845 231.919,99.4511 230.5,98.5C 229.167,96.5 227.5,94.8333 225.5,93.5C 225.379,90.8952 224.379,88.8952 222.5,87.5C 223.29,86.5987 224.29,85.9321 225.5,85.5 Z"/></g>
<g><path style="opacity:0.157" fill="#d1cecd" d="M 234.5,91.5 C 236.25,92.6594 237.25,94.326 237.5,96.5C 235.75,95.3406 234.75,93.674 234.5,91.5 Z"/></g>
<g><path style="opacity:0.986" fill="#a5a9af" d="M 231.5,84.5 C 232.736,86.649 233.736,88.9823 234.5,91.5C 234.75,93.674 235.75,95.3406 237.5,96.5C 238.718,98.3318 238.051,99.3318 235.5,99.5C 235.19,97.8564 234.19,96.8564 232.5,96.5C 232.354,92.4809 232.021,88.4809 231.5,84.5 Z"/></g>
<g><path style="opacity:0.424" fill="#a1a2a7" d="M 168.5,85.5 C 173.154,90.1485 178.154,94.4819 183.5,98.5C 183.221,101.118 182.554,103.618 181.5,106C 183.464,107.451 184.797,109.284 185.5,111.5C 180.32,108.789 179.32,104.956 182.5,100C 177.667,96.5 173.5,92.3333 170,87.5C 169.576,90.0254 168.41,92.0254 166.5,93.5C 167.371,90.8877 168.037,88.221 168.5,85.5 Z"/></g>
<g><path style="opacity:0.235" fill="#a0a2a4" d="M 225.5,93.5 C 227.5,94.8333 229.167,96.5 230.5,98.5C 227.833,97.8333 226.167,96.1667 225.5,93.5 Z"/></g>
<g><path style="opacity:0.102" fill="#c1bebb" d="M 158.5,92.5 C 157.545,94.7457 156.878,97.079 156.5,99.5C 155.761,99.631 155.094,99.4643 154.5,99C 155.219,96.3829 156.553,94.2162 158.5,92.5 Z"/></g>
<g><path style="opacity:1" fill="#868b97" d="M 210.5,100.5 C 210.804,101.15 211.137,101.817 211.5,102.5C 207.313,104.437 202.98,105.937 198.5,107C 202.956,106.898 206.956,107.732 210.5,109.5C 210.5,110.167 210.167,110.5 209.5,110.5C 207.403,111.879 207.07,113.545 208.5,115.5C 208.59,118.152 207.924,120.485 206.5,122.5C 206.5,118.833 206.5,115.167 206.5,111.5C 199.582,110.656 198.415,112.323 203,116.5C 203.936,119.792 203.436,122.792 201.5,125.5C 202.325,126.386 203.325,126.719 204.5,126.5C 204.421,127.93 204.754,129.264 205.5,130.5C 202.572,131.484 199.572,131.817 196.5,131.5C 197.323,129.545 197.49,127.545 197,125.5C 196.243,127.315 195.41,128.981 194.5,130.5C 193.732,126.025 193.066,121.525 192.5,117C 192.684,114.135 193.018,111.302 193.5,108.5C 187.243,107.535 186.91,105.368 192.5,102C 198.465,101.037 204.465,100.537 210.5,100.5 Z"/></g>
<g><path style="opacity:1" fill="#a2a4ae" d="M 215.5,96.5 C 214.657,98.1733 213.324,99.34 211.5,100C 214.336,103.753 214.003,106.919 210.5,109.5C 206.956,107.732 202.956,106.898 198.5,107C 202.98,105.937 207.313,104.437 211.5,102.5C 211.137,101.817 210.804,101.15 210.5,100.5C 210.5,100.167 210.5,99.8333 210.5,99.5C 210.5,99.1667 210.5,98.8333 210.5,98.5C 212.167,97.8333 213.833,97.1667 215.5,96.5 Z"/></g>
<g><path style="opacity:1" fill="#6d7382" d="M 206.5,122.5 C 204.896,123.287 204.229,124.62 204.5,126.5C 203.325,126.719 202.325,126.386 201.5,125.5C 203.436,122.792 203.936,119.792 203,116.5C 198.415,112.323 199.582,110.656 206.5,111.5C 206.5,115.167 206.5,118.833 206.5,122.5 Z"/></g>
<g><path style="opacity:0.02" fill="#d1cbca" d="M 209.5,110.5 C 208.962,112.117 208.629,113.784 208.5,115.5C 207.07,113.545 207.403,111.879 209.5,110.5 Z"/></g>
<g><path style="opacity:0.624" fill="#94969e" d="M 185.5,111.5 C 187.344,113.279 188.01,115.612 187.5,118.5C 187.167,118.5 186.833,118.5 186.5,118.5C 185.631,116.283 185.298,113.95 185.5,111.5 Z"/></g>
<g><path style="opacity:0.38" fill="#a0a1a6" d="M 186.5,118.5 C 186.833,118.5 187.167,118.5 187.5,118.5C 187.717,121.435 188.383,124.269 189.5,127C 187.928,133.229 186.594,139.396 185.5,145.5C 185.526,138.814 186.526,132.314 188.5,126C 186.887,123.772 186.22,121.272 186.5,118.5 Z"/></g>
<g><path style="opacity:0.698" fill="#a6a7ae" d="M 206.5,122.5 C 205.665,126.549 206.165,130.549 208,134.5C 208.944,143.164 209.777,151.831 210.5,160.5C 209.235,159.486 208.569,157.986 208.5,156C 207.75,148.501 207.083,141.001 206.5,133.5C 202.774,133.823 199.107,133.489 195.5,132.5C 195.624,131.893 195.957,131.56 196.5,131.5C 199.572,131.817 202.572,131.484 205.5,130.5C 204.754,129.264 204.421,127.93 204.5,126.5C 204.229,124.62 204.896,123.287 206.5,122.5 Z"/></g>
<g><path style="opacity:1" fill="#6c7282" d="M 183.5,98.5 C 192.416,99.4711 201.416,99.8044 210.5,99.5C 210.5,99.8333 210.5,100.167 210.5,100.5C 204.465,100.537 198.465,101.037 192.5,102C 186.91,105.368 187.243,107.535 193.5,108.5C 193.018,111.302 192.684,114.135 192.5,117C 193.066,121.525 193.732,126.025 194.5,130.5C 193.261,146.999 192.261,163.665 191.5,180.5C 188.833,180.5 186.167,180.5 183.5,180.5C 184.166,172.172 184.833,163.838 185.5,155.5C 185.497,152.645 185.164,149.978 184.5,147.5C 184.328,146.508 184.662,145.842 185.5,145.5C 186.594,139.396 187.928,133.229 189.5,127C 188.383,124.269 187.717,121.435 187.5,118.5C 188.01,115.612 187.344,113.279 185.5,111.5C 184.797,109.284 183.464,107.451 181.5,106C 182.554,103.618 183.221,101.118 183.5,98.5 Z"/></g>
<g><path style="opacity:0.999" fill="#878b98" d="M 196.5,131.5 C 195.957,131.56 195.624,131.893 195.5,132.5C 199.107,133.489 202.774,133.823 206.5,133.5C 207.083,141.001 207.75,148.501 208.5,156C 208.569,157.986 209.235,159.486 210.5,160.5C 210.5,161.167 210.5,161.833 210.5,162.5C 209.473,168.34 209.473,174.34 210.5,180.5C 213.698,179.964 216.365,180.631 218.5,182.5C 218.918,183.222 219.584,183.722 220.5,184C 227.279,184.493 233.946,185.493 240.5,187C 238.779,187.739 237.113,188.573 235.5,189.5C 238.534,190.567 241.534,191.734 244.5,193C 245.38,194.356 245.714,195.856 245.5,197.5C 238.5,197.5 231.5,197.5 224.5,197.5C 224.665,194.15 224.498,190.817 224,187.5C 217.466,183.438 210.3,181.604 202.5,182C 204.708,181.809 206.708,181.309 208.5,180.5C 206.963,168.405 204.963,156.405 202.5,144.5C 201.13,155.457 200.463,166.457 200.5,177.5C 199.71,178.609 199.21,179.942 199,181.5C 197.816,170.542 197.149,159.542 197,148.5C 196.667,148.833 196.333,149.167 196,149.5C 195.333,159.833 195.333,170.167 196,180.5C 196.366,182.452 197.199,184.118 198.5,185.5C 195.369,186.092 193.036,185.092 191.5,182.5C 191.5,181.833 191.5,181.167 191.5,180.5C 192.261,163.665 193.261,146.999 194.5,130.5C 195.41,128.981 196.243,127.315 197,125.5C 197.49,127.545 197.323,129.545 196.5,131.5 Z"/></g>
<g><path style="opacity:1" fill="#a1a5ae" d="M 208.5,180.5 C 205.833,180.5 203.167,180.5 200.5,180.5C 200.5,179.5 200.5,178.5 200.5,177.5C 200.463,166.457 201.13,155.457 202.5,144.5C 204.963,156.405 206.963,168.405 208.5,180.5 Z"/></g>
<g><path style="opacity:0.396" fill="#96979f" d="M 184.5,147.5 C 185.164,149.978 185.497,152.645 185.5,155.5C 184.833,163.838 184.166,172.172 183.5,180.5C 183.167,180.5 182.833,180.5 182.5,180.5C 182.5,179.833 182.5,179.167 182.5,178.5C 182.805,168.141 183.472,157.808 184.5,147.5 Z"/></g>
<g><path style="opacity:0.004" fill="#afaeb4" d="M 210.5,162.5 C 211.22,168.138 211.553,173.804 211.5,179.5C 214.167,179.5 216.833,179.5 219.5,179.5C 219.5,180.5 219.5,181.5 219.5,182.5C 219.167,182.5 218.833,182.5 218.5,182.5C 216.365,180.631 213.698,179.964 210.5,180.5C 209.473,174.34 209.473,168.34 210.5,162.5 Z"/></g>
<g><path style="opacity:0.205" fill="#bbbabb" d="M 182.5,178.5 C 182.5,179.167 182.5,179.833 182.5,180.5C 179.467,180.132 176.8,180.798 174.5,182.5C 174.5,181.5 174.5,180.5 174.5,179.5C 177.279,179.721 179.946,179.388 182.5,178.5 Z"/></g>
<g><path style="opacity:1" fill="#585d6a" d="M 182.5,180.5 C 182.833,180.5 183.167,180.5 183.5,180.5C 186.167,180.5 188.833,180.5 191.5,180.5C 191.5,181.167 191.5,181.833 191.5,182.5C 188.527,183.81 186.193,185.81 184.5,188.5C 183.833,188.5 183.5,188.833 183.5,189.5C 179.833,189.5 176.167,189.5 172.5,189.5C 170.735,188.539 168.735,188.205 166.5,188.5C 168.5,187.167 170.5,185.833 172.5,184.5C 175.079,183.772 177.746,183.272 180.5,183C 181.381,182.292 182.047,181.458 182.5,180.5 Z"/></g>
<g><path style="opacity:0.745" fill="#868b95" d="M 182.5,180.5 C 182.047,181.458 181.381,182.292 180.5,183C 177.746,183.272 175.079,183.772 172.5,184.5C 168.958,184.813 165.625,184.479 162.5,183.5C 166.434,182.64 170.434,182.307 174.5,182.5C 176.8,180.798 179.467,180.132 182.5,180.5 Z"/></g>
<g><path style="opacity:1" fill="#6b7181" d="M 191.5,182.5 C 193.036,185.092 195.369,186.092 198.5,185.5C 198.5,185.833 198.5,186.167 198.5,186.5C 194.285,188.436 189.619,189.103 184.5,188.5C 186.193,185.81 188.527,183.81 191.5,182.5 Z"/></g>
<g><path style="opacity:0.6" fill="#9a9ca5" d="M 218.5,182.5 C 218.833,182.5 219.167,182.5 219.5,182.5C 227.974,182.687 236.307,183.853 244.5,186C 245.333,186.833 246.167,187.667 247,188.5C 247.498,191.482 247.665,194.482 247.5,197.5C 246.833,197.5 246.167,197.5 245.5,197.5C 245.714,195.856 245.38,194.356 244.5,193C 241.534,191.734 238.534,190.567 235.5,189.5C 237.113,188.573 238.779,187.739 240.5,187C 233.946,185.493 227.279,184.493 220.5,184C 219.584,183.722 218.918,183.222 218.5,182.5 Z"/></g>
<g><path style="opacity:0.663" fill="#93949d" d="M 159.5,183.5 C 159.38,184.586 158.713,185.253 157.5,185.5C 154.521,186.328 151.521,186.995 148.5,187.5C 148.611,186.883 148.944,186.383 149.5,186C 152.845,185.057 156.178,184.223 159.5,183.5 Z"/></g>
<g><path style="opacity:0.999" fill="#6c7281" d="M 159.5,183.5 C 160.5,183.5 161.5,183.5 162.5,183.5C 165.625,184.479 168.958,184.813 172.5,184.5C 170.5,185.833 168.5,187.167 166.5,188.5C 166.5,191.5 166.5,194.5 166.5,197.5C 166.167,197.5 165.833,197.5 165.5,197.5C 165.5,194.833 165.5,192.167 165.5,189.5C 160.167,189.5 154.833,189.5 149.5,189.5C 149.5,192.167 149.5,194.833 149.5,197.5C 149.167,197.5 148.833,197.5 148.5,197.5C 148.5,194.167 148.5,190.833 148.5,187.5C 151.521,186.995 154.521,186.328 157.5,185.5C 158.713,185.253 159.38,184.586 159.5,183.5 Z"/></g>
<g><path style="opacity:0.998" fill="#4e5560" d="M 166.5,188.5 C 168.735,188.205 170.735,188.539 172.5,189.5C 171.119,191.274 171.452,192.774 173.5,194C 176.827,194.61 180.161,195.11 183.5,195.5C 183.5,196.167 183.5,196.833 183.5,197.5C 177.833,197.5 172.167,197.5 166.5,197.5C 166.5,194.5 166.5,191.5 166.5,188.5 Z"/></g>
<g><path style="opacity:1" fill="#767c89" d="M 198.5,186.5 C 200.857,186.337 203.19,186.503 205.5,187C 206.756,187.417 207.423,188.25 207.5,189.5C 199.903,189.135 192.237,189.135 184.5,189.5C 184.5,191.833 184.5,194.167 184.5,196.5C 189.695,196.179 194.695,196.513 199.5,197.5C 194.167,197.5 188.833,197.5 183.5,197.5C 183.5,196.833 183.5,196.167 183.5,195.5C 183.5,193.5 183.5,191.5 183.5,189.5C 183.5,188.833 183.833,188.5 184.5,188.5C 189.619,189.103 194.285,188.436 198.5,186.5 Z"/></g>
<g><path style="opacity:0.997" fill="#727b86" d="M 165.5,197.5 C 160.167,197.5 154.833,197.5 149.5,197.5C 149.5,194.833 149.5,192.167 149.5,189.5C 154.833,189.5 160.167,189.5 165.5,189.5C 165.5,192.167 165.5,194.833 165.5,197.5 Z"/></g>
<g><path style="opacity:1" fill="#898d99" d="M 207.5,189.5 C 207.5,192.167 207.5,194.833 207.5,197.5C 204.833,197.5 202.167,197.5 199.5,197.5C 194.695,196.513 189.695,196.179 184.5,196.5C 184.5,194.167 184.5,191.833 184.5,189.5C 192.237,189.135 199.903,189.135 207.5,189.5 Z"/></g>
<g><path style="opacity:1" fill="#9396a2" d="M 200.5,177.5 C 200.5,178.5 200.5,179.5 200.5,180.5C 203.167,180.5 205.833,180.5 208.5,180.5C 206.708,181.309 204.708,181.809 202.5,182C 210.3,181.604 217.466,183.438 224,187.5C 224.498,190.817 224.665,194.15 224.5,197.5C 218.833,197.5 213.167,197.5 207.5,197.5C 207.5,194.833 207.5,192.167 207.5,189.5C 207.423,188.25 206.756,187.417 205.5,187C 203.19,186.503 200.857,186.337 198.5,186.5C 198.5,186.167 198.5,185.833 198.5,185.5C 197.199,184.118 196.366,182.452 196,180.5C 195.333,170.167 195.333,159.833 196,149.5C 196.333,149.167 196.667,148.833 197,148.5C 197.149,159.542 197.816,170.542 199,181.5C 199.21,179.942 199.71,178.609 200.5,177.5 Z"/></g>
<g><path style="opacity:0.107" fill="#bdbabd" d="M 148.5,187.5 C 148.5,190.833 148.5,194.167 148.5,197.5C 147.833,197.5 147.167,197.5 146.5,197.5C 146.335,194.482 146.502,191.482 147,188.5C 147.383,187.944 147.883,187.611 148.5,187.5 Z"/></g>
<g><path style="opacity:1" fill="#606776" d="M 172.5,189.5 C 176.167,189.5 179.833,189.5 183.5,189.5C 183.5,191.5 183.5,193.5 183.5,195.5C 180.161,195.11 176.827,194.61 173.5,194C 171.452,192.774 171.119,191.274 172.5,189.5 Z"/></g>
</svg>
