<?xml version="1.0" encoding="UTF-8"?>
<!DOCTYPE svg PUBLIC "-//W3C//DTD SVG 1.1//EN" "http://www.w3.org/Graphics/SVG/1.1/DTD/svg11.dtd">
<svg xmlns="http://www.w3.org/2000/svg" version="1.1" width="400px" height="198px" style="shape-rendering:geometricPrecision; text-rendering:geometricPrecision; image-rendering:optimizeQuality; fill-rule:evenodd; clip-rule:evenodd" xmlns:xlink="http://www.w3.org/1999/xlink">
<g><path style="opacity:0.969" fill="#ffe65e" d="M 220.5,-0.5 C 230.5,-0.5 240.5,-0.5 250.5,-0.5C 249.766,0.707917 249.433,2.04125 249.5,3.5C 248.833,3.5 248.167,3.5 247.5,3.5C 247.5,2.5 247.5,1.5 247.5,0.5C 240.313,0.175473 233.313,0.508806 226.5,1.5C 225.566,2.56764 225.232,3.90097 225.5,5.5C 224.167,5.5 222.833,5.5 221.5,5.5C 221.675,3.3792 221.341,1.3792 220.5,-0.5 Z"/></g>
<g><path style="opacity:1" fill="#ff8c23" d="M 144.5,-0.5 C 146.167,-0.5 147.833,-0.5 149.5,-0.5C 150.695,1.75127 151.695,4.0846 152.5,6.5C 151.833,6.5 151.167,6.5 150.5,6.5C 149.292,5.76589 147.959,5.43255 146.5,5.5C 145.262,3.7857 144.595,1.7857 144.5,-0.5 Z"/></g>
<g><path style="opacity:1" fill="#ffa229" d="M 149.5,-0.5 C 153.5,-0.5 157.5,-0.5 161.5,-0.5C 161.452,2.29192 162.785,4.12526 165.5,5C 169.688,5.17618 173.688,5.67618 177.5,6.5C 171.167,6.5 164.833,6.5 158.5,6.5C 156.5,6.5 154.5,6.5 152.5,6.5C 151.695,4.0846 150.695,1.75127 149.5,-0.5 Z"/></g>
<g><path style="opacity:1" fill="#ffd951" d="M 196.5,-0.5 C 204.5,-0.5 212.5,-0.5 220.5,-0.5C 221.341,1.3792 221.675,3.3792 221.5,5.5C 222.833,5.5 224.167,5.5 225.5,5.5C 225.232,3.90097 225.566,2.56764 226.5,1.5C 226.5,2.83333 226.5,4.16667 226.5,5.5C 225.081,6.45115 223.415,6.78448 221.5,6.5C 220.549,5.08134 220.216,3.41467 220.5,1.5C 219.167,1.5 217.833,1.5 216.5,1.5C 216.5,3.16667 216.5,4.83333 216.5,6.5C 214.5,6.5 212.5,6.5 210.5,6.5C 205.833,6.5 201.167,6.5 196.5,6.5C 196.5,4.16667 196.5,1.83333 196.5,-0.5 Z"/></g>
<g><path style="opacity:0.053" fill="#fec380" d="M 142.5,-0.5 C 143.167,-0.5 143.833,-0.5 144.5,-0.5C 144.595,1.7857 145.262,3.7857 146.5,5.5C 146.5,6.16667 146.5,6.83333 146.5,7.5C 144.282,5.34861 142.948,2.68194 142.5,-0.5 Z"/></g>
<g><path style="opacity:1" fill="#febb2a" d="M 161.5,-0.5 C 173.167,-0.5 184.833,-0.5 196.5,-0.5C 196.5,1.83333 196.5,4.16667 196.5,6.5C 190.5,6.5 184.5,6.5 178.5,6.5C 178.167,6.5 177.833,6.5 177.5,6.5C 173.688,5.67618 169.688,5.17618 165.5,5C 162.785,4.12526 161.452,2.29192 161.5,-0.5 Z"/></g>
<g><path style="opacity:1" fill="#ffd724" d="M 226.5,1.5 C 230.555,1.17575 234.555,1.50909 238.5,2.5C 237.258,5.93011 238.591,7.26345 242.5,6.5C 242.5,8.5 242.5,10.5 242.5,12.5C 238.629,12.185 234.962,12.5184 231.5,13.5C 230.833,13.5 230.167,13.5 229.5,13.5C 227.167,13.5 224.833,13.5 222.5,13.5C 227.396,11.5539 232.729,10.8872 238.5,11.5C 238.762,10.0222 238.429,8.68884 237.5,7.5C 233.895,6.51023 230.228,5.84356 226.5,5.5C 226.5,4.16667 226.5,2.83333 226.5,1.5 Z"/></g>
<g><path style="opacity:0.778" fill="#fed44e" d="M 106.5,6.5 C 117.654,5.50523 128.988,5.1719 140.5,5.5C 140.5,6.16667 140.5,6.83333 140.5,7.5C 139.539,9.26465 139.205,11.2646 139.5,13.5C 138.532,11.3926 138.198,9.0593 138.5,6.5C 136.5,6.5 134.5,6.5 132.5,6.5C 132.5,7.83333 132.5,9.16667 132.5,10.5C 131.167,10.5 129.833,10.5 128.5,10.5C 128.5,9.16667 128.5,7.83333 128.5,6.5C 127.167,6.5 125.833,6.5 124.5,6.5C 124.5,7.83333 124.5,9.16667 124.5,10.5C 122.167,10.5 119.833,10.5 117.5,10.5C 117.5,9.16667 117.5,7.83333 117.5,6.5C 114.167,6.5 110.833,6.5 107.5,6.5C 107.167,6.5 106.833,6.5 106.5,6.5 Z"/></g>
<g><path style="opacity:0.043" fill="#ffec97" d="M 247.5,3.5 C 248.167,3.5 248.833,3.5 249.5,3.5C 249.201,5.45525 248.201,6.78859 246.5,7.5C 246.833,6.16667 247.167,4.83333 247.5,3.5 Z"/></g>
<g><path style="opacity:0.243" fill="#ffa54e" d="M 146.5,5.5 C 147.959,5.43255 149.292,5.76589 150.5,6.5C 150.573,8.02694 149.906,9.02694 148.5,9.5C 148.5,8.16667 147.833,7.5 146.5,7.5C 146.5,6.83333 146.5,6.16667 146.5,5.5 Z"/></g>
<g><path style="opacity:1" fill="#fec722" d="M 107.5,6.5 C 110.833,6.5 114.167,6.5 117.5,6.5C 117.5,7.83333 117.5,9.16667 117.5,10.5C 115.219,10.0773 113.552,10.744 112.5,12.5C 113.326,16.1359 113.992,19.8026 114.5,23.5C 113.577,22.6971 112.577,22.5304 111.5,23C 112.517,24.0495 112.684,25.2161 112,26.5C 111.623,25.0577 110.79,24.0577 109.5,23.5C 108.274,17.9152 107.607,12.2485 107.5,6.5 Z"/></g>
<g><path style="opacity:1" fill="#fec524" d="M 128.5,10.5 C 127.167,10.5 125.833,10.5 124.5,10.5C 124.5,9.16667 124.5,7.83333 124.5,6.5C 125.833,6.5 127.167,6.5 128.5,6.5C 128.5,7.83333 128.5,9.16667 128.5,10.5 Z"/></g>
<g><path style="opacity:1" fill="#ff771c" d="M 150.5,6.5 C 151.167,6.5 151.833,6.5 152.5,6.5C 154.5,6.5 156.5,6.5 158.5,6.5C 158.5,7.83333 158.5,9.16667 158.5,10.5C 156.5,10.5 154.5,10.5 152.5,10.5C 151.167,10.5 149.833,10.5 148.5,10.5C 148.5,10.1667 148.5,9.83333 148.5,9.5C 149.906,9.02694 150.573,8.02694 150.5,6.5 Z"/></g>
<g><path style="opacity:1" fill="#fdbe28" d="M 253.5,5.5 C 257.099,6.34392 260.766,6.67726 264.5,6.5C 264.5,7.83333 264.5,9.16667 264.5,10.5C 269.167,10.5 273.833,10.5 278.5,10.5C 279.777,11.6936 280.444,13.3603 280.5,15.5C 280.124,19.2396 279.457,22.9062 278.5,26.5C 277.589,28.751 276.256,30.751 274.5,32.5C 276.333,27.495 277.666,22.3283 278.5,17C 278.472,15.9302 278.139,15.0968 277.5,14.5C 277.5,14.1667 277.5,13.8333 277.5,13.5C 278.289,13.2172 278.956,12.7172 279.5,12C 276.333,11.8333 273.167,11.6667 270,11.5C 266.424,11.5152 263.258,12.1818 260.5,13.5C 260.5,14.1667 260.5,14.8333 260.5,15.5C 257.665,21.3432 253.332,26.0098 247.5,29.5C 246.833,29.5 246.167,29.5 245.5,29.5C 245.5,28.1667 245.5,26.8333 245.5,25.5C 244.5,25.5 243.5,25.5 242.5,25.5C 242.768,27.099 242.434,28.4324 241.5,29.5C 241.171,26.7718 241.837,24.4385 243.5,22.5C 244.632,23.3543 245.965,23.3543 247.5,22.5C 248.833,21.5 250.167,20.5 251.5,19.5C 254.566,15.2576 255.233,10.5909 253.5,5.5 Z"/></g>
<g><path style="opacity:1" fill="#ffde5e" d="M 253.5,5.5 C 258.99,4.83387 264.657,4.50053 270.5,4.5C 276.542,4.50449 282.208,5.17116 287.5,6.5C 284.5,6.5 281.5,6.5 278.5,6.5C 278.5,7.83333 278.5,9.16667 278.5,10.5C 273.833,10.5 269.167,10.5 264.5,10.5C 264.5,9.16667 264.5,7.83333 264.5,6.5C 260.766,6.67726 257.099,6.34392 253.5,5.5 Z"/></g>
<g><path style="opacity:1" fill="#fedd28" d="M 287.5,6.5 C 287.5,7.83333 287.5,9.16667 287.5,10.5C 285.609,19.0571 282.943,27.3904 279.5,35.5C 278.523,32.7131 278.19,29.7131 278.5,26.5C 279.457,22.9062 280.124,19.2396 280.5,15.5C 280.444,13.3603 279.777,11.6936 278.5,10.5C 278.5,9.16667 278.5,7.83333 278.5,6.5C 281.5,6.5 284.5,6.5 287.5,6.5 Z"/></g>
<g><path style="opacity:1" fill="#fead1b" d="M 178.5,6.5 C 184.5,6.5 190.5,6.5 196.5,6.5C 199.977,7.3227 203.644,7.8227 207.5,8C 197.891,9.35885 188.224,9.85885 178.5,9.5C 178.5,8.5 178.5,7.5 178.5,6.5 Z"/></g>
<g><path style="opacity:1" fill="#f19c2e" d="M 253.5,5.5 C 255.233,10.5909 254.566,15.2576 251.5,19.5C 252.497,16.6717 252.497,14.005 251.5,11.5C 251.025,8.91791 251.692,6.91791 253.5,5.5 Z"/></g>
<g><path style="opacity:1" fill="#f6aa2d" d="M 117.5,10.5 C 119.833,10.5 122.167,10.5 124.5,10.5C 125.833,10.5 127.167,10.5 128.5,10.5C 129.833,10.5 131.167,10.5 132.5,10.5C 133.167,10.5 133.5,10.8333 133.5,11.5C 133.167,11.5 132.833,11.5 132.5,11.5C 125.978,11.1765 119.645,11.5098 113.5,12.5C 113.167,12.5 112.833,12.5 112.5,12.5C 113.552,10.744 115.219,10.0773 117.5,10.5 Z"/></g>
<g><path style="opacity:0.067" fill="#fed376" d="M 140.5,7.5 C 140.342,10.9023 140.676,14.2356 141.5,17.5C 139.896,16.713 139.229,15.3797 139.5,13.5C 139.205,11.2646 139.539,9.26465 140.5,7.5 Z"/></g>
<g><path style="opacity:1" fill="#fe8c20" d="M 158.5,6.5 C 164.833,6.5 171.167,6.5 177.5,6.5C 177.833,6.5 178.167,6.5 178.5,6.5C 178.5,7.5 178.5,8.5 178.5,9.5C 176.167,9.5 173.833,9.5 171.5,9.5C 167.5,9.5 163.5,9.5 159.5,9.5C 159.505,13.5341 159.838,17.5341 160.5,21.5C 159.359,31.8594 159.192,42.1927 160,52.5C 157.832,45.1319 155.999,37.7986 154.5,30.5C 153.74,23.8433 153.073,17.1766 152.5,10.5C 154.5,10.5 156.5,10.5 158.5,10.5C 158.5,9.16667 158.5,7.83333 158.5,6.5 Z"/></g>
<g><path style="opacity:1" fill="#fea327" d="M 171.5,9.5 C 171.5,10.8333 171.5,12.1667 171.5,13.5C 170.833,13.5 170.167,13.5 169.5,13.5C 167.833,13.5 166.167,13.5 164.5,13.5C 165.273,22.033 166.94,30.3663 169.5,38.5C 169.167,39.1667 168.833,39.8333 168.5,40.5C 169.63,43.4531 170.964,46.2865 172.5,49C 171.663,50.0113 171.33,51.1779 171.5,52.5C 167.548,42.2639 163.881,31.9306 160.5,21.5C 159.838,17.5341 159.505,13.5341 159.5,9.5C 163.5,9.5 167.5,9.5 171.5,9.5 Z"/></g>
<g><path style="opacity:1" fill="#feab25" d="M 171.5,9.5 C 173.833,9.5 176.167,9.5 178.5,9.5C 179.762,25.4033 182.428,41.0699 186.5,56.5C 186.666,63.175 186.5,69.8417 186,76.5C 184.893,75.2881 184.393,75.6214 184.5,77.5C 179.636,70.4316 175.302,63.0982 171.5,55.5C 171.5,54.5 171.5,53.5 171.5,52.5C 171.33,51.1779 171.663,50.0113 172.5,49C 170.964,46.2865 169.63,43.4531 168.5,40.5C 168.833,39.8333 169.167,39.1667 169.5,38.5C 166.94,30.3663 165.273,22.033 164.5,13.5C 166.167,13.5 167.833,13.5 169.5,13.5C 166.574,30.4127 170.407,45.4127 181,58.5C 180.305,54.0734 178.971,49.7401 177,45.5C 174.773,34.6176 172.94,23.9509 171.5,13.5C 171.5,12.1667 171.5,10.8333 171.5,9.5 Z"/></g>
<g><path style="opacity:1" fill="#febb26" d="M 196.5,6.5 C 201.167,6.5 205.833,6.5 210.5,6.5C 211.263,7.26791 212.263,7.76791 213.5,8C 207.798,9.90394 201.965,11.0706 196,11.5C 195.501,15.8206 195.334,20.1539 195.5,24.5C 193.801,24.3398 192.134,24.5065 190.5,25C 195.019,25.1753 199.353,25.6753 203.5,26.5C 198.706,25.9031 194.373,26.5698 190.5,28.5C 192.506,38.3547 193.006,48.3547 192,58.5C 190.961,59.2438 190.461,60.2438 190.5,61.5C 189.167,59.8333 187.833,58.1667 186.5,56.5C 182.428,41.0699 179.762,25.4033 178.5,9.5C 188.224,9.85885 197.891,9.35885 207.5,8C 203.644,7.8227 199.977,7.3227 196.5,6.5 Z"/></g>
<g><path style="opacity:1" fill="#fec824" d="M 221.5,6.5 C 222.609,7.28997 223.942,7.78997 225.5,8C 221.49,10.1728 217.157,11.0061 212.5,10.5C 212.074,12.1388 212.074,13.4721 212.5,14.5C 212.5,32.8333 212.5,51.1667 212.5,69.5C 212.56,70.0431 212.893,70.3764 213.5,70.5C 216.88,69.9127 219.88,68.5794 222.5,66.5C 223.239,66.369 223.906,66.5357 224.5,67C 223.663,68.0113 223.33,69.1779 223.5,70.5C 226.315,69.8736 228.815,68.5402 231,66.5C 231.464,67.0944 231.631,67.7611 231.5,68.5C 231.5,69.1667 231.5,69.8333 231.5,70.5C 229.796,73.2558 228.463,76.2558 227.5,79.5C 226.18,81.4632 224.846,83.4632 223.5,85.5C 223.167,86.1667 222.833,86.8333 222.5,87.5C 222.167,88.1667 221.833,88.8333 221.5,89.5C 220.167,90.1667 219.167,91.1667 218.5,92.5C 216.833,93.8333 215.167,95.1667 213.5,96.5C 212.582,90.2252 212.249,83.8918 212.5,77.5C 206.479,78.1544 204.145,75.8211 205.5,70.5C 205.383,67.9503 204.383,65.9503 202.5,64.5C 203.791,64.7373 204.791,64.404 205.5,63.5C 203.669,51.2845 203.002,38.9512 203.5,26.5C 199.353,25.6753 195.019,25.1753 190.5,25C 192.134,24.5065 193.801,24.3398 195.5,24.5C 195.334,20.1539 195.501,15.8206 196,11.5C 201.965,11.0706 207.798,9.90394 213.5,8C 212.263,7.76791 211.263,7.26791 210.5,6.5C 212.5,6.5 214.5,6.5 216.5,6.5C 216.5,4.83333 216.5,3.16667 216.5,1.5C 217.833,1.5 219.167,1.5 220.5,1.5C 220.216,3.41467 220.549,5.08134 221.5,6.5 Z"/></g>
<g><path style="opacity:0.485" fill="#ea7f2c" d="M 132.5,11.5 C 132.5,12.1667 132.5,12.8333 132.5,13.5C 132.167,13.5 131.833,13.5 131.5,13.5C 125.5,13.5 119.5,13.5 113.5,13.5C 113.5,13.1667 113.5,12.8333 113.5,12.5C 119.645,11.5098 125.978,11.1765 132.5,11.5 Z"/></g>
<g><path style="opacity:1" fill="#fecf21" d="M 226.5,5.5 C 230.228,5.84356 233.895,6.51023 237.5,7.5C 238.429,8.68884 238.762,10.0222 238.5,11.5C 232.729,10.8872 227.396,11.5539 222.5,13.5C 221.508,13.3284 220.842,13.6618 220.5,14.5C 217.833,14.5 215.167,14.5 212.5,14.5C 212.074,13.4721 212.074,12.1388 212.5,10.5C 217.157,11.0061 221.49,10.1728 225.5,8C 223.942,7.78997 222.609,7.28997 221.5,6.5C 223.415,6.78448 225.081,6.45115 226.5,5.5 Z"/></g>
<g><path style="opacity:0.055" fill="#f6a132" d="M 277.5,13.5 C 271.833,13.5 266.167,13.5 260.5,13.5C 263.258,12.1818 266.424,11.5152 270,11.5C 273.167,11.6667 276.333,11.8333 279.5,12C 278.956,12.7172 278.289,13.2172 277.5,13.5 Z"/></g>
<g><path style="opacity:0.596" fill="#fac370" d="M 140.5,5.5 C 128.988,5.1719 117.654,5.50523 106.5,6.5C 106.5,9.5 106.5,12.5 106.5,15.5C 105.833,14.1667 105.167,12.8333 104.5,11.5C 104.244,9.2075 104.577,7.04083 105.5,5C 117.341,4.17387 129.007,4.34053 140.5,5.5 Z"/></g>
<g><path style="opacity:1" fill="#feb928" d="M 139.5,13.5 C 139.229,15.3797 139.896,16.713 141.5,17.5C 142.488,18.795 143.488,20.1283 144.5,21.5C 144.782,22.7777 145.449,23.7777 146.5,24.5C 146.5,25.8333 146.5,27.1667 146.5,28.5C 145.167,28.5 143.833,28.5 142.5,28.5C 137.62,23.7362 134.62,18.0696 133.5,11.5C 133.5,10.8333 133.167,10.5 132.5,10.5C 132.5,9.16667 132.5,7.83333 132.5,6.5C 134.5,6.5 136.5,6.5 138.5,6.5C 138.198,9.0593 138.532,11.3926 139.5,13.5 Z"/></g>
<g><path style="opacity:1" fill="#ffb83e" d="M 169.5,13.5 C 170.167,13.5 170.833,13.5 171.5,13.5C 172.94,23.9509 174.773,34.6176 177,45.5C 178.971,49.7401 180.305,54.0734 181,58.5C 170.407,45.4127 166.574,30.4127 169.5,13.5 Z"/></g>
<g><path style="opacity:1" fill="#fedb3d" d="M 220.5,14.5 C 220.842,13.6618 221.508,13.3284 222.5,13.5C 224.833,13.5 227.167,13.5 229.5,13.5C 228.204,20.2635 227.537,27.2635 227.5,34.5C 227.876,42.0106 227.876,49.3439 227.5,56.5C 227.957,57.2975 228.624,57.6309 229.5,57.5C 227.549,60.7861 225.215,63.7861 222.5,66.5C 219.88,68.5794 216.88,69.9127 213.5,70.5C 212.893,70.3764 212.56,70.0431 212.5,69.5C 215.149,64.8536 217.315,59.8536 219,54.5C 220.619,44.0476 221.786,33.5476 222.5,23C 222.481,19.7485 221.814,16.9151 220.5,14.5 Z"/></g>
<g><path style="opacity:1" fill="#fee449" d="M 229.5,13.5 C 230.167,13.5 230.833,13.5 231.5,13.5C 234.167,13.5 236.833,13.5 239.5,13.5C 239.383,27.7272 236.716,41.3939 231.5,54.5C 230.833,55.5 230.167,56.5 229.5,57.5C 228.624,57.6309 227.957,57.2975 227.5,56.5C 227.876,49.3439 227.876,42.0106 227.5,34.5C 227.537,27.2635 228.204,20.2635 229.5,13.5 Z"/></g>
<g><path style="opacity:0.537" fill="#f5b877" d="M 251.5,11.5 C 252.497,14.005 252.497,16.6717 251.5,19.5C 250.167,20.5 248.833,21.5 247.5,22.5C 249.614,19.1614 250.947,15.4947 251.5,11.5 Z"/></g>
<g><path style="opacity:0.204" fill="#fed675" d="M 112.5,12.5 C 112.833,12.5 113.167,12.5 113.5,12.5C 113.5,12.8333 113.5,13.1667 113.5,13.5C 114.986,18.4411 116.319,23.4411 117.5,28.5C 116.313,26.9275 115.313,25.2608 114.5,23.5C 113.992,19.8026 113.326,16.1359 112.5,12.5 Z"/></g>
<g><path style="opacity:1" fill="#ffe15a" d="M 212.5,14.5 C 215.167,14.5 217.833,14.5 220.5,14.5C 221.814,16.9151 222.481,19.7485 222.5,23C 221.786,33.5476 220.619,44.0476 219,54.5C 217.315,59.8536 215.149,64.8536 212.5,69.5C 212.5,51.1667 212.5,32.8333 212.5,14.5 Z"/></g>
<g><path style="opacity:0.082" fill="#f7c179" d="M 104.5,11.5 C 105.167,12.8333 105.833,14.1667 106.5,15.5C 107.847,22.2227 109.514,28.8894 111.5,35.5C 110.883,35.3893 110.383,35.056 110,34.5C 107.353,26.9181 105.52,19.2515 104.5,11.5 Z"/></g>
<g><path style="opacity:0.145" fill="#f5c08f" d="M 131.5,13.5 C 131.833,13.5 132.167,13.5 132.5,13.5C 133.077,17.9831 134.744,21.9831 137.5,25.5C 137.5,25.8333 137.5,26.1667 137.5,26.5C 133.642,23.1116 131.642,18.7783 131.5,13.5 Z"/></g>
<g><path style="opacity:1" fill="#ec8d27" d="M 132.5,11.5 C 132.833,11.5 133.167,11.5 133.5,11.5C 134.62,18.0696 137.62,23.7362 142.5,28.5C 140.589,27.925 138.922,26.925 137.5,25.5C 134.744,21.9831 133.077,17.9831 132.5,13.5C 132.5,12.8333 132.5,12.1667 132.5,11.5 Z"/></g>
<g><path style="opacity:0.812" fill="#ffb254" d="M 149.5,11.5 C 151.43,15.3727 152.097,19.706 151.5,24.5C 149.833,24.5 148.167,24.5 146.5,24.5C 145.449,23.7777 144.782,22.7777 144.5,21.5C 145.807,22.1534 147.14,22.8201 148.5,23.5C 149.491,19.5546 149.824,15.5546 149.5,11.5 Z"/></g>
<g><path style="opacity:1" fill="#fe9220" d="M 160.5,21.5 C 163.881,31.9306 167.548,42.2639 171.5,52.5C 171.5,53.5 171.5,54.5 171.5,55.5C 171.827,64.6822 171.493,73.6822 170.5,82.5C 168.759,80.0226 167.259,77.3559 166,74.5C 163.52,66.7251 160.853,59.0584 158,51.5C 156.121,44.6072 154.954,37.6072 154.5,30.5C 155.999,37.7986 157.832,45.1319 160,52.5C 159.192,42.1927 159.359,31.8594 160.5,21.5 Z"/></g>
<g><path style="opacity:1" fill="#febb23" d="M 114.5,23.5 C 115.313,25.2608 116.313,26.9275 117.5,28.5C 117.5,29.5 117.5,30.5 117.5,31.5C 117.5,34.8333 117.5,38.1667 117.5,41.5C 113.642,36.1318 110.975,30.1318 109.5,23.5C 110.79,24.0577 111.623,25.0577 112,26.5C 112.684,25.2161 112.517,24.0495 111.5,23C 112.577,22.5304 113.577,22.6971 114.5,23.5 Z"/></g>
<g><path style="opacity:0.208" fill="#ffe883" d="M 287.5,10.5 C 286.826,18.7063 284.993,26.7063 282,34.5C 281.623,35.9423 280.79,36.9423 279.5,37.5C 279.5,36.8333 279.5,36.1667 279.5,35.5C 282.943,27.3904 285.609,19.0571 287.5,10.5 Z"/></g>
<g><path style="opacity:0.235" fill="#ffd26c" d="M 260.5,15.5 C 258.661,22.6713 254.328,27.6713 247.5,30.5C 247.5,30.1667 247.5,29.8333 247.5,29.5C 253.332,26.0098 257.665,21.3432 260.5,15.5 Z"/></g>
<g><path style="opacity:1" fill="#fe7c0a" d="M 203.5,26.5 C 203.002,38.9512 203.669,51.2845 205.5,63.5C 204.833,63.5 204.167,63.5 203.5,63.5C 203.539,62.2438 203.039,61.2438 202,60.5C 201.5,49.8385 201.333,39.1719 201.5,28.5C 197.833,28.5 194.167,28.5 190.5,28.5C 194.373,26.5698 198.706,25.9031 203.5,26.5 Z"/></g>
<g><path style="opacity:0.561" fill="#fcc76e" d="M 277.5,14.5 C 278.139,15.0968 278.472,15.9302 278.5,17C 277.666,22.3283 276.333,27.495 274.5,32.5C 274.167,32.5 273.833,32.5 273.5,32.5C 273.5,31.8333 273.5,31.1667 273.5,30.5C 275.446,25.3265 276.78,19.9931 277.5,14.5 Z"/></g>
<g><path style="opacity:0.992" fill="#fda119" d="M 245.5,29.5 C 244.432,30.4345 243.099,30.7678 241.5,30.5C 241.5,30.1667 241.5,29.8333 241.5,29.5C 242.434,28.4324 242.768,27.099 242.5,25.5C 243.5,25.5 244.5,25.5 245.5,25.5C 245.5,26.8333 245.5,28.1667 245.5,29.5 Z"/></g>
<g><path style="opacity:0.09" fill="#ec9f5f" d="M 137.5,25.5 C 138.922,26.925 140.589,27.925 142.5,28.5C 145.433,29.9833 148.433,31.3166 151.5,32.5C 151.5,32.8333 151.5,33.1667 151.5,33.5C 145.986,32.7433 141.32,30.4099 137.5,26.5C 137.5,26.1667 137.5,25.8333 137.5,25.5 Z"/></g>
<g><path style="opacity:1" fill="#ff9c0a" d="M 190.5,28.5 C 194.167,28.5 197.833,28.5 201.5,28.5C 201.333,39.1719 201.5,49.8385 202,60.5C 203.039,61.2438 203.539,62.2438 203.5,63.5C 198.706,64.0969 194.373,63.4302 190.5,61.5C 190.461,60.2438 190.961,59.2438 192,58.5C 193.006,48.3547 192.506,38.3547 190.5,28.5 Z"/></g>
<g><path style="opacity:0.094" fill="#f2a856" d="M 245.5,29.5 C 246.167,29.5 246.833,29.5 247.5,29.5C 247.5,29.8333 247.5,30.1667 247.5,30.5C 245.786,31.7384 243.786,32.405 241.5,32.5C 241.5,32.1667 241.5,31.8333 241.5,31.5C 241.5,31.1667 241.5,30.8333 241.5,30.5C 243.099,30.7678 244.432,30.4345 245.5,29.5 Z"/></g>
<g><path style="opacity:0.043" fill="#fcdaa6" d="M 273.5,30.5 C 273.5,31.1667 273.5,31.8333 273.5,32.5C 272.737,34.3684 271.737,36.0351 270.5,37.5C 270.707,34.7594 271.707,32.4261 273.5,30.5 Z"/></g>
<g><path style="opacity:1" fill="#ffe249" d="M 278.5,26.5 C 278.19,29.7131 278.523,32.7131 279.5,35.5C 279.5,36.1667 279.5,36.8333 279.5,37.5C 279.672,38.4916 279.338,39.1583 278.5,39.5C 276.926,40.9842 275.593,42.6508 274.5,44.5C 274.5,41.8333 274.5,39.1667 274.5,36.5C 274.5,35.1667 274.5,33.8333 274.5,32.5C 276.256,30.751 277.589,28.751 278.5,26.5 Z"/></g>
<g><path style="opacity:0.922" fill="#f6a529" d="M 106.5,6.5 C 106.833,6.5 107.167,6.5 107.5,6.5C 107.607,12.2485 108.274,17.9152 109.5,23.5C 110.975,30.1318 113.642,36.1318 117.5,41.5C 119.024,45.2022 121.19,48.5355 124,51.5C 124.191,49.2922 124.691,47.2922 125.5,45.5C 125.833,45.5 126.167,45.5 126.5,45.5C 126.733,47.0618 127.4,48.3951 128.5,49.5C 128.5,51.8333 128.5,54.1667 128.5,56.5C 126.833,55.1667 125.167,53.8333 123.5,52.5C 122.833,52.5 122.167,52.5 121.5,52.5C 121.573,50.9731 120.906,49.9731 119.5,49.5C 118.833,49.5 118.5,49.1667 118.5,48.5C 116.926,43.6805 114.593,39.3472 111.5,35.5C 109.514,28.8894 107.847,22.2227 106.5,15.5C 106.5,12.5 106.5,9.5 106.5,6.5 Z"/></g>
<g><path style="opacity:0.082" fill="#fee1a7" d="M 117.5,28.5 C 120.357,32.8801 122.69,37.5468 124.5,42.5C 123.542,42.0472 122.708,41.3805 122,40.5C 120.997,37.1598 119.497,34.1598 117.5,31.5C 117.5,30.5 117.5,29.5 117.5,28.5 Z"/></g>
<g><path style="opacity:0.996" fill="#fedf2f" d="M 226.5,1.5 C 233.313,0.508806 240.313,0.175473 247.5,0.5C 247.5,1.5 247.5,2.5 247.5,3.5C 247.167,4.83333 246.833,6.16667 246.5,7.5C 245.307,7.97041 244.64,8.97041 244.5,10.5C 243.726,14.4649 243.393,18.4649 243.5,22.5C 241.837,24.4385 241.171,26.7718 241.5,29.5C 241.5,29.8333 241.5,30.1667 241.5,30.5C 241.5,30.8333 241.5,31.1667 241.5,31.5C 239.972,39.2794 237.972,46.9461 235.5,54.5C 235.013,53.5266 234.513,52.5266 234,51.5C 233.623,52.9423 232.79,53.9423 231.5,54.5C 236.716,41.3939 239.383,27.7272 239.5,13.5C 236.833,13.5 234.167,13.5 231.5,13.5C 234.962,12.5184 238.629,12.185 242.5,12.5C 242.5,10.5 242.5,8.5 242.5,6.5C 238.591,7.26345 237.258,5.93011 238.5,2.5C 234.555,1.50909 230.555,1.17575 226.5,1.5 Z"/></g>
<g><path style="opacity:0.08" fill="#f9ca92" d="M 111.5,35.5 C 114.593,39.3472 116.926,43.6805 118.5,48.5C 114.924,44.9013 112.59,40.568 111.5,35.5 Z"/></g>
<g><path style="opacity:1" fill="#fed324" d="M 274.5,36.5 C 274.5,39.1667 274.5,41.8333 274.5,44.5C 273.833,45.8333 273.167,47.1667 272.5,48.5C 271.833,46.1667 271.167,43.8333 270.5,41.5C 271.604,39.6115 272.937,37.9448 274.5,36.5 Z"/></g>
<g><path style="opacity:1" fill="#fabc3b" d="M 273.5,32.5 C 273.833,32.5 274.167,32.5 274.5,32.5C 274.5,33.8333 274.5,35.1667 274.5,36.5C 272.937,37.9448 271.604,39.6115 270.5,41.5C 269.255,44.9873 267.255,47.9873 264.5,50.5C 264.167,50.5 263.833,50.5 263.5,50.5C 263.5,49.8333 263.5,49.1667 263.5,48.5C 266.754,46.3226 268.754,43.3226 269.5,39.5C 269.328,38.5084 269.662,37.8417 270.5,37.5C 271.737,36.0351 272.737,34.3684 273.5,32.5 Z"/></g>
<g><path style="opacity:1" fill="#fec948" d="M 117.5,31.5 C 119.497,34.1598 120.997,37.1598 122,40.5C 122.708,41.3805 123.542,42.0472 124.5,42.5C 124.557,43.609 124.89,44.609 125.5,45.5C 124.691,47.2922 124.191,49.2922 124,51.5C 121.19,48.5355 119.024,45.2022 117.5,41.5C 117.5,38.1667 117.5,34.8333 117.5,31.5 Z"/></g>
<g><path style="opacity:0.243" fill="#ffdba0" d="M 124.5,42.5 C 125.906,42.9731 126.573,43.9731 126.5,45.5C 126.167,45.5 125.833,45.5 125.5,45.5C 124.89,44.609 124.557,43.609 124.5,42.5 Z"/></g>
<g><path style="opacity:1" fill="#fede4c" d="M 270.5,41.5 C 271.167,43.8333 271.833,46.1667 272.5,48.5C 272.5,48.8333 272.5,49.1667 272.5,49.5C 272.167,50.5 271.5,51.1667 270.5,51.5C 268.5,53.1667 266.5,54.8333 264.5,56.5C 264.5,54.5 264.5,52.5 264.5,50.5C 267.255,47.9873 269.255,44.9873 270.5,41.5 Z"/></g>
<g><path style="opacity:0.118" fill="#ffe897" d="M 278.5,39.5 C 277.502,43.5055 275.502,46.8388 272.5,49.5C 272.5,49.1667 272.5,48.8333 272.5,48.5C 273.167,47.1667 273.833,45.8333 274.5,44.5C 275.593,42.6508 276.926,40.9842 278.5,39.5 Z"/></g>
<g><path style="opacity:0.569" fill="#ffd084" d="M 126.5,45.5 C 128.262,46.2623 129.262,47.5956 129.5,49.5C 129.167,49.5 128.833,49.5 128.5,49.5C 127.4,48.3951 126.733,47.0618 126.5,45.5 Z"/></g>
<g><path style="opacity:0.345" fill="#fac987" d="M 269.5,39.5 C 268.754,43.3226 266.754,46.3226 263.5,48.5C 265.255,45.3197 267.255,42.3197 269.5,39.5 Z"/></g>
<g><path style="opacity:0.651" fill="#ffd791" d="M 129.5,49.5 C 131.167,50.5 132.5,51.8333 133.5,53.5C 131.167,53.1667 129.833,51.8333 129.5,49.5 Z"/></g>
<g><path style="opacity:0.137" fill="#f7c991" d="M 119.5,49.5 C 120.906,49.9731 121.573,50.9731 121.5,52.5C 120.094,52.0269 119.427,51.0269 119.5,49.5 Z"/></g>
<g><path style="opacity:0.451" fill="#ffe679" d="M 241.5,31.5 C 241.5,31.8333 241.5,32.1667 241.5,32.5C 241.211,38.5677 240.378,44.5677 239,50.5C 236.855,56.4147 235.022,62.4147 233.5,68.5C 233.167,68.5 232.833,68.5 232.5,68.5C 233.497,63.8394 234.497,59.1727 235.5,54.5C 237.972,46.9461 239.972,39.2794 241.5,31.5 Z"/></g>
<g><path style="opacity:1" fill="#febf42" d="M 128.5,49.5 C 128.833,49.5 129.167,49.5 129.5,49.5C 129.833,51.8333 131.167,53.1667 133.5,53.5C 133.5,53.8333 133.5,54.1667 133.5,54.5C 132.833,56.1667 132.167,57.8333 131.5,59.5C 130.167,58.8333 129.167,57.8333 128.5,56.5C 128.5,54.1667 128.5,51.8333 128.5,49.5 Z"/></g>
<g><path style="opacity:0.612" fill="#ffc87c" d="M 133.5,53.5 C 134.833,54.1667 135.833,55.1667 136.5,56.5C 134.973,56.573 133.973,55.9063 133.5,54.5C 133.5,54.1667 133.5,53.8333 133.5,53.5 Z"/></g>
<g><path style="opacity:1" fill="#ff991c" d="M 171.5,55.5 C 175.302,63.0982 179.636,70.4316 184.5,77.5C 185.338,77.8417 185.672,78.5084 185.5,79.5C 184.545,85.4093 184.211,91.4093 184.5,97.5C 183.5,97.5 182.5,97.5 181.5,97.5C 177.447,92.7808 173.78,87.7808 170.5,82.5C 171.493,73.6822 171.827,64.6822 171.5,55.5 Z"/></g>
<g><path style="opacity:1" fill="#fed826" d="M 235.5,54.5 C 234.497,59.1727 233.497,63.8394 232.5,68.5C 232.167,68.5 231.833,68.5 231.5,68.5C 231.631,67.7611 231.464,67.0944 231,66.5C 228.815,68.5402 226.315,69.8736 223.5,70.5C 223.33,69.1779 223.663,68.0113 224.5,67C 223.906,66.5357 223.239,66.369 222.5,66.5C 225.215,63.7861 227.549,60.7861 229.5,57.5C 230.167,56.5 230.833,55.5 231.5,54.5C 232.79,53.9423 233.623,52.9423 234,51.5C 234.513,52.5266 235.013,53.5266 235.5,54.5 Z"/></g>
<g><path style="opacity:0.18" fill="#ffe385" d="M 270.5,51.5 C 268.906,54.7642 266.573,57.4309 263.5,59.5C 263.557,58.391 263.89,57.391 264.5,56.5C 266.5,54.8333 268.5,53.1667 270.5,51.5 Z"/></g>
<g><path style="opacity:0.071" fill="#f6c086" d="M 121.5,52.5 C 122.167,52.5 122.833,52.5 123.5,52.5C 126.101,56.7706 129.434,60.4372 133.5,63.5C 133.5,63.8333 133.5,64.1667 133.5,64.5C 128.521,61.5213 124.521,57.5213 121.5,52.5 Z"/></g>
<g><path style="opacity:0.999" fill="#fe9f23" d="M 148.5,10.5 C 149.833,10.5 151.167,10.5 152.5,10.5C 153.073,17.1766 153.74,23.8433 154.5,30.5C 154.954,37.6072 156.121,44.6072 158,51.5C 160.853,59.0584 163.52,66.7251 166,74.5C 167.259,77.3559 168.759,80.0226 170.5,82.5C 173.78,87.7808 177.447,92.7808 181.5,97.5C 178.233,95.5727 175.233,93.2394 172.5,90.5C 171.864,88.2054 170.531,86.5387 168.5,85.5C 168.617,83.5165 167.95,81.8498 166.5,80.5C 165.743,84.898 164.743,89.2314 163.5,93.5C 163.957,94.2975 164.624,94.6309 165.5,94.5C 165.167,95.5 164.5,96.1667 163.5,96.5C 161.565,97.1495 159.565,97.4828 157.5,97.5C 158.326,94.5152 159.659,91.8485 161.5,89.5C 164.107,85.0767 164.107,80.5767 161.5,76C 159.866,75.5065 158.199,75.3398 156.5,75.5C 154.847,75.3404 153.514,74.6737 152.5,73.5C 144.64,70.0737 137.64,65.407 131.5,59.5C 132.167,57.8333 132.833,56.1667 133.5,54.5C 133.973,55.9063 134.973,56.573 136.5,56.5C 137.539,58.5311 139.205,59.8645 141.5,60.5C 143.484,63.1639 146.151,64.8305 149.5,65.5C 149.833,65.5 150.167,65.5 150.5,65.5C 153.41,68.4494 157.077,70.1161 161.5,70.5C 157.923,57.7913 154.59,45.1247 151.5,32.5C 148.433,31.3166 145.433,29.9833 142.5,28.5C 143.833,28.5 145.167,28.5 146.5,28.5C 146.5,27.1667 146.5,25.8333 146.5,24.5C 148.167,24.5 149.833,24.5 151.5,24.5C 152.097,19.706 151.43,15.3727 149.5,11.5C 148.833,11.5 148.5,11.1667 148.5,10.5 Z"/></g>
<g><path style="opacity:0.02" fill="#febe66" d="M 136.5,56.5 C 138.754,57.1237 140.421,58.457 141.5,60.5C 139.205,59.8645 137.539,58.5311 136.5,56.5 Z"/></g>
<g><path style="opacity:1" fill="#febc25" d="M 263.5,50.5 C 263.833,50.5 264.167,50.5 264.5,50.5C 264.5,52.5 264.5,54.5 264.5,56.5C 263.89,57.391 263.557,58.391 263.5,59.5C 263.5,60.1667 263.167,60.5 262.5,60.5C 258.134,63.016 254.134,66.016 250.5,69.5C 250.158,70.3382 249.492,70.6716 248.5,70.5C 245.857,71.454 243.19,72.454 240.5,73.5C 239.909,72.8485 239.243,72.1818 238.5,71.5C 239.981,70.056 239.648,69.3894 237.5,69.5C 237.5,68.8333 237.5,68.1667 237.5,67.5C 239.954,66.7729 242.287,65.7729 244.5,64.5C 244.435,64.9382 244.601,65.2716 245,65.5C 251.91,61.4239 258.077,56.4239 263.5,50.5 Z"/></g>
<g><path style="opacity:0.278" fill="#febc61" d="M 141.5,60.5 C 144.511,61.6693 147.178,63.336 149.5,65.5C 146.151,64.8305 143.484,63.1639 141.5,60.5 Z"/></g>
<g><path style="opacity:0.227" fill="#f6b96d" d="M 263.5,48.5 C 263.5,49.1667 263.5,49.8333 263.5,50.5C 258.077,56.4239 251.91,61.4239 245,65.5C 244.601,65.2716 244.435,64.9382 244.5,64.5C 251.394,59.9481 257.728,54.6147 263.5,48.5 Z"/></g>
<g><path style="opacity:1" fill="#feb11e" d="M 186.5,56.5 C 187.833,58.1667 189.167,59.8333 190.5,61.5C 194.373,63.4302 198.706,64.0969 203.5,63.5C 204.167,63.5 204.833,63.5 205.5,63.5C 204.791,64.404 203.791,64.7373 202.5,64.5C 191.771,62.8361 190.104,65.5027 197.5,72.5C 197.804,73.1499 198.137,73.8165 198.5,74.5C 197.721,79.1133 197.221,83.78 197,88.5C 195.893,87.2881 195.393,87.6214 195.5,89.5C 191.806,86.4729 188.473,83.1396 185.5,79.5C 185.672,78.5084 185.338,77.8417 184.5,77.5C 184.393,75.6214 184.893,75.2881 186,76.5C 186.5,69.8417 186.666,63.175 186.5,56.5 Z"/></g>
<g><path style="opacity:1" fill="#ee8d24" d="M 123.5,52.5 C 125.167,53.8333 126.833,55.1667 128.5,56.5C 129.167,57.8333 130.167,58.8333 131.5,59.5C 137.64,65.407 144.64,70.0737 152.5,73.5C 148.993,73.0795 145.659,72.0795 142.5,70.5C 139.72,67.9362 136.72,65.6029 133.5,63.5C 129.434,60.4372 126.101,56.7706 123.5,52.5 Z"/></g>
<g><path style="opacity:0.118" fill="#ffd470" d="M 262.5,60.5 C 259.224,64.4707 255.224,67.4707 250.5,69.5C 254.134,66.016 258.134,63.016 262.5,60.5 Z"/></g>
<g><path style="opacity:0.169" fill="#f0aa65" d="M 133.5,63.5 C 136.72,65.6029 139.72,67.9362 142.5,70.5C 138.951,69.2768 135.951,67.2768 133.5,64.5C 133.5,64.1667 133.5,63.8333 133.5,63.5 Z"/></g>
<g><path style="opacity:0.043" fill="#ffc374" d="M 151.5,32.5 C 154.59,45.1247 157.923,57.7913 161.5,70.5C 157.077,70.1161 153.41,68.4494 150.5,65.5C 153.011,66.3944 155.511,67.3944 158,68.5C 158.5,68.1667 159,67.8333 159.5,67.5C 155.879,56.3515 153.212,45.0182 151.5,33.5C 151.5,33.1667 151.5,32.8333 151.5,32.5 Z"/></g>
<g><path style="opacity:0.494" fill="#ffc669" d="M 237.5,67.5 C 237.5,68.1667 237.5,68.8333 237.5,69.5C 235.565,70.1495 233.565,70.4828 231.5,70.5C 231.5,69.8333 231.5,69.1667 231.5,68.5C 231.833,68.5 232.167,68.5 232.5,68.5C 232.833,69.8333 233.167,69.8333 233.5,68.5C 234.959,68.5674 236.292,68.2341 237.5,67.5 Z"/></g>
<g><path style="opacity:1" fill="#fea721" d="M 237.5,69.5 C 239.648,69.3894 239.981,70.056 238.5,71.5C 239.243,72.1818 239.909,72.8485 240.5,73.5C 237.198,73.9116 234.531,75.245 232.5,77.5C 231.414,77.62 230.747,78.2867 230.5,79.5C 230.543,80.4164 230.876,81.0831 231.5,81.5C 231.5,81.8333 231.5,82.1667 231.5,82.5C 230.861,83.0968 230.528,83.9302 230.5,85C 231.033,87.2261 231.7,89.3927 232.5,91.5C 232.5,93.1667 232.5,94.8333 232.5,96.5C 230.973,96.573 229.973,95.9063 229.5,94.5C 228.932,89.3634 228.266,84.3634 227.5,79.5C 228.463,76.2558 229.796,73.2558 231.5,70.5C 233.565,70.4828 235.565,70.1495 237.5,69.5 Z"/></g>
<g><path style="opacity:1" fill="#feb81d" d="M 197.5,72.5 C 200.268,74.0872 202.935,75.9205 205.5,78C 204.833,83.3333 204.167,88.6667 203.5,94C 204.056,94.3826 204.389,94.8826 204.5,95.5C 202.833,94.8333 201.167,94.1667 199.5,93.5C 198.167,92.1667 196.833,90.8333 195.5,89.5C 195.393,87.6214 195.893,87.2881 197,88.5C 197.221,83.78 197.721,79.1133 198.5,74.5C 198.137,73.8165 197.804,73.1499 197.5,72.5 Z"/></g>
<g><path style="opacity:0.157" fill="#f8b85d" d="M 248.5,70.5 C 243.735,73.8771 238.401,76.2104 232.5,77.5C 234.531,75.245 237.198,73.9116 240.5,73.5C 243.19,72.454 245.857,71.454 248.5,70.5 Z"/></g>
<g><path style="opacity:0.173" fill="#eb9c5d" d="M 142.5,70.5 C 145.659,72.0795 148.993,73.0795 152.5,73.5C 153.514,74.6737 154.847,75.3404 156.5,75.5C 156.5,75.8333 156.5,76.1667 156.5,76.5C 151.176,75.8429 146.51,73.8429 142.5,70.5 Z"/></g>
<g><path style="opacity:1" fill="#e98431" d="M 156.5,75.5 C 158.199,75.3398 159.866,75.5065 161.5,76C 164.107,80.5767 164.107,85.0767 161.5,89.5C 161.318,87.4086 161.652,85.4086 162.5,83.5C 162.086,81.0808 161.086,79.0808 159.5,77.5C 158.209,77.7373 157.209,77.404 156.5,76.5C 156.5,76.1667 156.5,75.8333 156.5,75.5 Z"/></g>
<g><path style="opacity:1" fill="#fec123" d="M 202.5,64.5 C 204.383,65.9503 205.383,67.9503 205.5,70.5C 204.145,75.8211 206.479,78.1544 212.5,77.5C 212.249,83.8918 212.582,90.2252 213.5,96.5C 213.167,97.1667 212.833,97.8333 212.5,98.5C 212.5,99.1667 212.167,99.5 211.5,99.5C 211.167,99.5 210.833,99.5 210.5,99.5C 207.679,99.5387 205.012,100.205 202.5,101.5C 204.022,103.156 203.689,104.323 201.5,105C 202.094,105.464 202.761,105.631 203.5,105.5C 205.948,106.473 208.615,106.806 211.5,106.5C 211.167,107.5 210.5,108.167 209.5,108.5C 205.635,107.776 201.635,107.109 197.5,106.5C 196.548,104.955 196.215,103.288 196.5,101.5C 196.611,100.883 196.944,100.383 197.5,100C 200.914,99.7031 204.247,99.0365 207.5,98C 206.058,97.6232 205.058,96.7899 204.5,95.5C 204.389,94.8826 204.056,94.3826 203.5,94C 204.167,88.6667 204.833,83.3333 205.5,78C 202.935,75.9205 200.268,74.0872 197.5,72.5C 190.104,65.5027 191.771,62.8361 202.5,64.5 Z"/></g>
<g><path style="opacity:0.235" fill="#fecc80" d="M 232.5,77.5 C 232.167,78.8333 231.833,80.1667 231.5,81.5C 230.876,81.0831 230.543,80.4164 230.5,79.5C 230.747,78.2867 231.414,77.62 232.5,77.5 Z"/></g>
<g><path style="opacity:1" fill="#ffa01a" d="M 185.5,79.5 C 188.473,83.1396 191.806,86.4729 195.5,89.5C 196.833,90.8333 198.167,92.1667 199.5,93.5C 197.018,95.0394 197.018,96.5394 199.5,98C 195.456,99.2431 191.789,101.076 188.5,103.5C 188.5,102.167 188.5,100.833 188.5,99.5C 186.5,99.5 184.5,99.5 182.5,99.5C 182.167,98.8333 181.833,98.1667 181.5,97.5C 182.5,97.5 183.5,97.5 184.5,97.5C 184.211,91.4093 184.545,85.4093 185.5,79.5 Z"/></g>
<g><path style="opacity:0.195" fill="#f0af80" d="M 159.5,77.5 C 161.086,79.0808 162.086,81.0808 162.5,83.5C 161.652,85.4086 161.318,87.4086 161.5,89.5C 159.659,91.8485 158.326,94.5152 157.5,97.5C 156.662,97.8417 156.328,98.5084 156.5,99.5C 155.637,100.463 154.97,100.463 154.5,99.5C 156.13,95.3814 157.963,91.3814 160,87.5C 160.659,84.1119 160.492,80.7786 159.5,77.5 Z"/></g>
<g><path style="opacity:1" fill="#ff8618" d="M 168.5,85.5 C 167.698,88.5738 166.698,91.5738 165.5,94.5C 164.624,94.6309 163.957,94.2975 163.5,93.5C 164.743,89.2314 165.743,84.898 166.5,80.5C 167.95,81.8498 168.617,83.5165 168.5,85.5 Z"/></g>
<g><path style="opacity:1" fill="#fd8816" d="M 227.5,79.5 C 228.266,84.3634 228.932,89.3634 229.5,94.5C 227.214,91.5674 225.214,88.5674 223.5,85.5C 224.846,83.4632 226.18,81.4632 227.5,79.5 Z"/></g>
<g><path style="opacity:1" fill="#e57926" d="M 223.5,85.5 C 225.214,88.5674 227.214,91.5674 229.5,94.5C 229.973,95.9063 230.973,96.573 232.5,96.5C 232.842,97.3382 233.508,97.6716 234.5,97.5C 234.5,98.1667 234.5,98.8333 234.5,99.5C 233.833,99.5 233.167,99.5 232.5,99.5C 230.028,98.0911 227.695,96.4244 225.5,94.5C 224.736,91.9823 223.736,89.649 222.5,87.5C 222.833,86.8333 223.167,86.1667 223.5,85.5 Z"/></g>
<g><path style="opacity:0.145" fill="#ffd492" d="M 231.5,82.5 C 231.92,86.0075 232.92,89.3408 234.5,92.5C 233.833,92.1667 233.167,91.8333 232.5,91.5C 231.7,89.3927 231.033,87.2261 230.5,85C 230.528,83.9302 230.861,83.0968 231.5,82.5 Z"/></g>
<g><path style="opacity:0.357" fill="#ffc37e" d="M 168.5,85.5 C 170.531,86.5387 171.864,88.2054 172.5,90.5C 171.518,89.8592 170.518,89.1925 169.5,88.5C 168.642,90.9009 167.309,92.9009 165.5,94.5C 166.698,91.5738 167.698,88.5738 168.5,85.5 Z"/></g>
<g><path style="opacity:0.035" fill="#ffe28d" d="M 221.5,89.5 C 221.262,91.4044 220.262,92.7377 218.5,93.5C 218.5,93.1667 218.5,92.8333 218.5,92.5C 219.167,91.1667 220.167,90.1667 221.5,89.5 Z"/></g>
<g><path style="opacity:0.259" fill="#f1b68a" d="M 222.5,87.5 C 223.736,89.649 224.736,91.9823 225.5,94.5C 223.926,93.0158 222.593,91.3492 221.5,89.5C 221.833,88.8333 222.167,88.1667 222.5,87.5 Z"/></g>
<g><path style="opacity:1" fill="#fec651" d="M 232.5,91.5 C 233.167,91.8333 233.833,92.1667 234.5,92.5C 235.338,92.8417 235.672,93.5084 235.5,94.5C 235.737,95.791 235.404,96.791 234.5,97.5C 233.508,97.6716 232.842,97.3382 232.5,96.5C 232.5,94.8333 232.5,93.1667 232.5,91.5 Z"/></g>
<g><path style="opacity:0.157" fill="#fec569" d="M 172.5,90.5 C 175.233,93.2394 178.233,95.5727 181.5,97.5C 181.833,98.1667 182.167,98.8333 182.5,99.5C 182.672,100.492 182.338,101.158 181.5,101.5C 178.182,98.1733 175.182,94.5066 172.5,90.5 Z"/></g>
<g><path style="opacity:0.012" fill="#fed560" d="M 218.5,92.5 C 218.5,92.8333 218.5,93.1667 218.5,93.5C 217.089,95.914 215.089,97.5806 212.5,98.5C 212.833,97.8333 213.167,97.1667 213.5,96.5C 215.167,95.1667 216.833,93.8333 218.5,92.5 Z"/></g>
<g><path style="opacity:0.125" fill="#ed8f4b" d="M 163.5,96.5 C 161.824,98.8337 159.491,99.8337 156.5,99.5C 156.328,98.5084 156.662,97.8417 157.5,97.5C 159.565,97.4828 161.565,97.1495 163.5,96.5 Z"/></g>
<g><path style="opacity:0.055" fill="#efab75" d="M 225.5,94.5 C 227.695,96.4244 230.028,98.0911 232.5,99.5C 228.86,99.5246 226.527,97.858 225.5,94.5 Z"/></g>
<g><path style="opacity:0.008" fill="#f9c57b" d="M 235.5,94.5 C 237.213,95.6354 237.88,97.302 237.5,99.5C 236.5,99.5 235.5,99.5 234.5,99.5C 234.5,98.8333 234.5,98.1667 234.5,97.5C 235.404,96.791 235.737,95.791 235.5,94.5 Z"/></g>
<g><path style="opacity:1" fill="#ff8722" d="M 182.5,99.5 C 184.5,99.5 186.5,99.5 188.5,99.5C 188.5,100.833 188.5,102.167 188.5,103.5C 188.586,104.496 188.252,105.329 187.5,106C 185.527,106.495 183.527,106.662 181.5,106.5C 181.5,105.167 181.5,103.833 181.5,102.5C 181.5,102.167 181.5,101.833 181.5,101.5C 182.338,101.158 182.672,100.492 182.5,99.5 Z"/></g>
<g><path style="opacity:1" fill="#ffd629" d="M 210.5,99.5 C 210.5,101.167 210.5,102.833 210.5,104.5C 208.05,104.298 205.717,104.631 203.5,105.5C 202.761,105.631 202.094,105.464 201.5,105C 203.689,104.323 204.022,103.156 202.5,101.5C 205.012,100.205 207.679,99.5387 210.5,99.5 Z"/></g>
<g><path style="opacity:0.992" fill="#fee456" d="M 210.5,99.5 C 210.833,99.5 211.167,99.5 211.5,99.5C 211.5,100.5 211.5,101.5 211.5,102.5C 211.926,104.139 211.926,105.472 211.5,106.5C 208.615,106.806 205.948,106.473 203.5,105.5C 205.717,104.631 208.05,104.298 210.5,104.5C 210.5,102.833 210.5,101.167 210.5,99.5 Z"/></g>
<g><path style="opacity:0.999" fill="#ffb021" d="M 199.5,93.5 C 201.167,94.1667 202.833,94.8333 204.5,95.5C 205.058,96.7899 206.058,97.6232 207.5,98C 204.247,99.0365 200.914,99.7031 197.5,100C 196.944,100.383 196.611,100.883 196.5,101.5C 195.527,101.987 194.527,102.487 193.5,103C 194.337,104.011 194.67,105.178 194.5,106.5C 192.473,106.338 190.473,106.505 188.5,107C 189.905,108.269 191.571,108.769 193.5,108.5C 192.262,114.211 192.262,119.878 193.5,125.5C 191.833,125.5 190.167,125.5 188.5,125.5C 187.79,121.975 186.79,118.642 185.5,115.5C 185.5,114.833 185.5,114.167 185.5,113.5C 186.473,111.708 185.806,110.375 183.5,109.5C 182.833,108.5 182.167,107.5 181.5,106.5C 183.527,106.662 185.527,106.495 187.5,106C 188.252,105.329 188.586,104.496 188.5,103.5C 191.789,101.076 195.456,99.2431 199.5,98C 197.018,96.5394 197.018,95.0394 199.5,93.5 Z"/></g>
<g><path style="opacity:0.004" fill="#ffc162" d="M 181.5,102.5 C 181.5,103.833 181.5,105.167 181.5,106.5C 182.167,107.5 182.833,108.5 183.5,109.5C 182.504,109.586 181.671,109.252 181,108.5C 180.211,106.288 180.378,104.288 181.5,102.5 Z"/></g>
<g><path style="opacity:0.016" fill="#ffce73" d="M 183.5,109.5 C 185.806,110.375 186.473,111.708 185.5,113.5C 184.4,112.395 183.733,111.062 183.5,109.5 Z"/></g>
<g><path style="opacity:0.039" fill="#ffd67c" d="M 211.5,102.5 C 213.377,103.659 213.877,105.326 213,107.5C 210.96,109.37 209.127,111.37 207.5,113.5C 206.662,113.158 206.328,112.492 206.5,111.5C 207.833,110.833 208.833,109.833 209.5,108.5C 210.5,108.167 211.167,107.5 211.5,106.5C 211.926,105.472 211.926,104.139 211.5,102.5 Z"/></g>
<g><path style="opacity:1" fill="#feb121" d="M 206.5,111.5 C 206.328,112.492 206.662,113.158 207.5,113.5C 207.5,114.167 207.5,114.833 207.5,115.5C 205.882,118.888 204.882,122.554 204.5,126.5C 202.897,126.688 201.563,126.188 200.5,125C 203.56,120.196 202.894,116.03 198.5,112.5C 201.086,111.52 203.753,111.187 206.5,111.5 Z"/></g>
<g><path style="opacity:0.082" fill="#ffcb6c" d="M 185.5,115.5 C 186.79,118.642 187.79,121.975 188.5,125.5C 188.167,125.5 187.833,125.5 187.5,125.5C 185.977,122.37 185.311,119.037 185.5,115.5 Z"/></g>
<g><path style="opacity:0.224" fill="#febf8f" d="M 187.5,125.5 C 187.833,125.5 188.167,125.5 188.5,125.5C 188.326,127.861 187.993,130.194 187.5,132.5C 186.833,132.5 186.167,132.5 185.5,132.5C 186.167,130.167 186.833,127.833 187.5,125.5 Z"/></g>
<g><path style="opacity:1" fill="#ff8521" d="M 188.5,125.5 C 190.167,125.5 191.833,125.5 193.5,125.5C 194.756,127.726 194.756,130.059 193.5,132.5C 191.5,132.5 189.5,132.5 187.5,132.5C 187.993,130.194 188.326,127.861 188.5,125.5 Z"/></g>
<g><path style="opacity:0.999" fill="#ffb020" d="M 185.5,132.5 C 186.167,132.5 186.833,132.5 187.5,132.5C 189.5,132.5 191.5,132.5 193.5,132.5C 193.138,149.515 192.472,166.515 191.5,183.5C 193.5,183.833 195.5,184.167 197.5,184.5C 198.234,185.708 198.567,187.041 198.5,188.5C 193.833,188.5 189.167,188.5 184.5,188.5C 184.5,190.833 184.5,193.167 184.5,195.5C 187.518,195.335 190.518,195.502 193.5,196C 194.416,196.278 195.082,196.778 195.5,197.5C 191.5,197.5 187.5,197.5 183.5,197.5C 183.5,196.5 183.5,195.5 183.5,194.5C 182.46,188.898 184.46,184.898 189.5,182.5C 190.386,181.675 190.719,180.675 190.5,179.5C 188.167,179.5 185.833,179.5 183.5,179.5C 184.499,172.671 184.499,166.005 183.5,159.5C 183.5,159.167 183.5,158.833 183.5,158.5C 185.26,155.299 186.094,151.633 186,147.5C 186.812,143.311 186.645,139.311 185.5,135.5C 185.5,134.5 185.5,133.5 185.5,132.5 Z"/></g>
<g><path style="opacity:0.447" fill="#fed06b" d="M 207.5,115.5 C 207.588,119.306 206.921,122.972 205.5,126.5C 208.185,142.031 209.852,157.697 210.5,173.5C 210.5,174.167 210.5,174.833 210.5,175.5C 208.707,159.26 206.707,142.927 204.5,126.5C 204.882,122.554 205.882,118.888 207.5,115.5 Z"/></g>
<g><path style="opacity:0.412" fill="#fec75e" d="M 185.5,135.5 C 186.645,139.311 186.812,143.311 186,147.5C 186.094,151.633 185.26,155.299 183.5,158.5C 184.112,150.827 184.778,143.16 185.5,135.5 Z"/></g>
<g><path style="opacity:1" fill="#ffbe29" d="M 196.5,101.5 C 196.215,103.288 196.548,104.955 197.5,106.5C 201.635,107.109 205.635,107.776 209.5,108.5C 208.833,109.833 207.833,110.833 206.5,111.5C 203.753,111.187 201.086,111.52 198.5,112.5C 202.894,116.03 203.56,120.196 200.5,125C 201.563,126.188 202.897,126.688 204.5,126.5C 206.707,142.927 208.707,159.26 210.5,175.5C 210.5,176.833 210.5,178.167 210.5,179.5C 209.5,179.5 208.5,179.5 207.5,179.5C 206.93,169.229 205.096,159.229 202,149.5C 200.886,159.481 200.053,169.481 199.5,179.5C 197.618,173.575 196.451,167.242 196,160.5C 194.975,168.695 195.475,176.695 197.5,184.5C 195.5,184.167 193.5,183.833 191.5,183.5C 192.472,166.515 193.138,149.515 193.5,132.5C 194.756,130.059 194.756,127.726 193.5,125.5C 192.262,119.878 192.262,114.211 193.5,108.5C 191.571,108.769 189.905,108.269 188.5,107C 190.473,106.505 192.473,106.338 194.5,106.5C 194.67,105.178 194.337,104.011 193.5,103C 194.527,102.487 195.527,101.987 196.5,101.5 Z"/></g>
<g><path style="opacity:1" fill="#ffd24c" d="M 210.5,179.5 C 213.059,179.198 215.393,179.532 217.5,180.5C 214.287,180.19 211.287,180.523 208.5,181.5C 204.988,182.055 201.988,181.388 199.5,179.5C 200.053,169.481 200.886,159.481 202,149.5C 205.096,159.229 206.93,169.229 207.5,179.5C 208.5,179.5 209.5,179.5 210.5,179.5 Z"/></g>
<g><path style="opacity:0.835" fill="#febf49" d="M 183.5,159.5 C 184.499,166.005 184.499,172.671 183.5,179.5C 183.167,179.5 182.833,179.5 182.5,179.5C 182.5,178.167 182.5,176.833 182.5,175.5C 182.472,170.138 182.806,164.805 183.5,159.5 Z"/></g>
<g><path style="opacity:0.118" fill="#ffc976" d="M 182.5,175.5 C 182.5,176.833 182.5,178.167 182.5,179.5C 179.467,179.132 176.8,179.798 174.5,181.5C 174.5,180.5 174.5,179.5 174.5,178.5C 176.833,178.5 179.167,178.5 181.5,178.5C 181.263,177.209 181.596,176.209 182.5,175.5 Z"/></g>
<g><path style="opacity:0.111" fill="#ffe589" d="M 210.5,173.5 C 211.451,174.919 211.784,176.585 211.5,178.5C 214.388,177.99 216.721,178.656 218.5,180.5C 218.167,180.5 217.833,180.5 217.5,180.5C 215.393,179.532 213.059,179.198 210.5,179.5C 210.5,178.167 210.5,176.833 210.5,175.5C 210.5,174.833 210.5,174.167 210.5,173.5 Z"/></g>
<g><path style="opacity:1" fill="#ffa21c" d="M 182.5,179.5 C 182.833,179.5 183.167,179.5 183.5,179.5C 185.833,179.5 188.167,179.5 190.5,179.5C 190.719,180.675 190.386,181.675 189.5,182.5C 184.46,184.898 182.46,188.898 183.5,194.5C 182.532,192.393 182.198,190.059 182.5,187.5C 177.5,187.5 172.5,187.5 167.5,187.5C 168.975,185.31 170.975,183.977 173.5,183.5C 173.833,182.833 174.167,182.167 174.5,181.5C 176.8,179.798 179.467,179.132 182.5,179.5 Z"/></g>
<g><path style="opacity:1" fill="#fec838" d="M 199.5,179.5 C 201.988,181.388 204.988,182.055 208.5,181.5C 210.117,182.038 211.784,182.371 213.5,182.5C 215.932,183.958 218.599,185.125 221.5,186C 222.381,186.708 223.047,187.542 223.5,188.5C 218.167,188.5 212.833,188.5 207.5,188.5C 207.5,191.167 207.5,193.833 207.5,196.5C 208.791,196.263 209.791,196.596 210.5,197.5C 207.833,197.5 205.167,197.5 202.5,197.5C 201.828,196.733 200.995,196.066 200,195.5C 199.503,193.19 199.337,190.857 199.5,188.5C 208.189,188.835 208.689,186.835 201,182.5C 199.437,183.102 199.604,183.935 201.5,185C 200.181,185.195 198.847,185.028 197.5,184.5C 195.475,176.695 194.975,168.695 196,160.5C 196.451,167.242 197.618,173.575 199.5,179.5 Z"/></g>
<g><path style="opacity:1" fill="#ffd629" d="M 208.5,181.5 C 211.287,180.523 214.287,180.19 217.5,180.5C 217.833,180.5 218.167,180.5 218.5,180.5C 218.5,180.833 218.5,181.167 218.5,181.5C 218.5,181.833 218.5,182.167 218.5,182.5C 216.833,182.5 215.167,182.5 213.5,182.5C 211.784,182.371 210.117,182.038 208.5,181.5 Z"/></g>
<g><path style="opacity:0.62" fill="#febe46" d="M 174.5,181.5 C 174.167,182.167 173.833,182.833 173.5,183.5C 167.325,184.206 161.325,184.206 155.5,183.5C 161.747,182.109 168.081,181.442 174.5,181.5 Z"/></g>
<g><path style="opacity:0.19" fill="#fec952" d="M 218.5,182.5 C 218.5,182.167 218.5,181.833 218.5,181.5C 224.21,181.471 229.877,181.971 235.5,183C 238.191,183.156 240.524,183.989 242.5,185.5C 242.5,185.833 242.5,186.167 242.5,186.5C 234.609,184.514 226.609,183.18 218.5,182.5 Z"/></g>
<g><path style="opacity:0.997" fill="#ffb225" d="M 155.5,183.5 C 161.325,184.206 167.325,184.206 173.5,183.5C 170.975,183.977 168.975,185.31 167.5,187.5C 161.167,187.5 154.833,187.5 148.5,187.5C 148.5,187.167 148.5,186.833 148.5,186.5C 150.604,185.088 152.937,184.088 155.5,183.5 Z"/></g>
<g><path style="opacity:0.999" fill="#ffbf28" d="M 213.5,182.5 C 215.167,182.5 216.833,182.5 218.5,182.5C 226.609,183.18 234.609,184.514 242.5,186.5C 243.5,186.833 244.167,187.5 244.5,188.5C 237.833,188.5 231.167,188.5 224.5,188.5C 224.167,188.5 223.833,188.5 223.5,188.5C 223.047,187.542 222.381,186.708 221.5,186C 218.599,185.125 215.932,183.958 213.5,182.5 Z"/></g>
<g><path style="opacity:1" fill="#ff971b" d="M 148.5,188.5 C 148.5,188.167 148.5,187.833 148.5,187.5C 154.833,187.5 161.167,187.5 167.5,187.5C 172.5,187.5 177.5,187.5 182.5,187.5C 182.198,190.059 182.532,192.393 183.5,194.5C 183.5,195.5 183.5,196.5 183.5,197.5C 183.167,197.5 182.833,197.5 182.5,197.5C 182.423,196.25 181.756,195.417 180.5,195C 177.768,194.587 175.101,193.92 172.5,193C 171.62,191.644 171.286,190.144 171.5,188.5C 169.833,188.5 168.167,188.5 166.5,188.5C 160.5,188.5 154.5,188.5 148.5,188.5 Z"/></g>
<g><path style="opacity:0.103" fill="#feb877" d="M 148.5,186.5 C 148.5,186.833 148.5,187.167 148.5,187.5C 148.5,187.833 148.5,188.167 148.5,188.5C 147.523,191.287 147.19,194.287 147.5,197.5C 147.167,197.5 146.833,197.5 146.5,197.5C 146.335,194.15 146.502,190.817 147,187.5C 147.383,186.944 147.883,186.611 148.5,186.5 Z"/></g>
<g><path style="opacity:0.987" fill="#ff8626" d="M 148.5,188.5 C 154.5,188.5 160.5,188.5 166.5,188.5C 166.5,191.5 166.5,194.5 166.5,197.5C 160.167,197.5 153.833,197.5 147.5,197.5C 147.19,194.287 147.523,191.287 148.5,188.5 Z"/></g>
<g><path style="opacity:0.986" fill="#ff7817" d="M 166.5,188.5 C 168.167,188.5 169.833,188.5 171.5,188.5C 171.286,190.144 171.62,191.644 172.5,193C 175.101,193.92 177.768,194.587 180.5,195C 181.756,195.417 182.423,196.25 182.5,197.5C 177.167,197.5 171.833,197.5 166.5,197.5C 166.5,194.5 166.5,191.5 166.5,188.5 Z"/></g>
<g><path style="opacity:0.987" fill="#fed537" d="M 223.5,188.5 C 223.833,188.5 224.167,188.5 224.5,188.5C 224.5,191.5 224.5,194.5 224.5,197.5C 219.833,197.5 215.167,197.5 210.5,197.5C 209.791,196.596 208.791,196.263 207.5,196.5C 207.5,193.833 207.5,191.167 207.5,188.5C 212.833,188.5 218.167,188.5 223.5,188.5 Z"/></g>
<g><path style="opacity:1" fill="#febe28" d="M 202.5,197.5 C 200.167,197.5 197.833,197.5 195.5,197.5C 195.082,196.778 194.416,196.278 193.5,196C 190.518,195.502 187.518,195.335 184.5,195.5C 184.5,193.167 184.5,190.833 184.5,188.5C 189.167,188.5 193.833,188.5 198.5,188.5C 198.567,187.041 198.234,185.708 197.5,184.5C 198.847,185.028 200.181,185.195 201.5,185C 199.604,183.935 199.437,183.102 201,182.5C 208.689,186.835 208.189,188.835 199.5,188.5C 199.337,190.857 199.503,193.19 200,195.5C 200.995,196.066 201.828,196.733 202.5,197.5 Z"/></g>
<g><path style="opacity:0.995" fill="#feda27" d="M 224.5,188.5 C 231.167,188.5 237.833,188.5 244.5,188.5C 245.477,191.287 245.81,194.287 245.5,197.5C 238.5,197.5 231.5,197.5 224.5,197.5C 224.5,194.5 224.5,191.5 224.5,188.5 Z"/></g>
<g><path style="opacity:0.126" fill="#fee683" d="M 242.5,186.5 C 242.5,186.167 242.5,185.833 242.5,185.5C 244.017,185.511 245.184,186.177 246,187.5C 246.498,190.817 246.665,194.15 246.5,197.5C 246.167,197.5 245.833,197.5 245.5,197.5C 245.81,194.287 245.477,191.287 244.5,188.5C 244.167,187.5 243.5,186.833 242.5,186.5 Z"/></g>
</svg>
