<?xml version="1.0" encoding="UTF-8"?>
<!DOCTYPE svg PUBLIC "-//W3C//DTD SVG 1.1//EN" "http://www.w3.org/Graphics/SVG/1.1/DTD/svg11.dtd">
<svg xmlns="http://www.w3.org/2000/svg" version="1.1" width="400px" height="198px" style="shape-rendering:geometricPrecision; text-rendering:geometricPrecision; image-rendering:optimizeQuality; fill-rule:evenodd; clip-rule:evenodd" xmlns:xlink="http://www.w3.org/1999/xlink">
<g><path style="opacity:0.076" fill="#060505" d="M 197.5,-0.5 C 197.833,-0.5 198.167,-0.5 198.5,-0.5C 208.513,11.0128 218.346,22.6795 228,34.5C 228.232,33.2625 228.732,32.2625 229.5,31.5C 229.793,34.7543 229.126,37.7543 227.5,40.5C 226.783,38.0466 225.616,35.7133 224,33.5C 213.852,23.5308 204.686,12.8642 196.5,1.5C 197.338,1.15829 197.672,0.491622 197.5,-0.5 Z"/></g>
<g><path style="opacity:0.004" fill="#000000" d="M 187.5,7.5 C 186.287,6.50289 186.454,5.50289 188,4.5C 188.47,5.57683 188.303,6.57683 187.5,7.5 Z"/></g>
<g><path style="opacity:0.006" fill="#000000" d="M 185.5,10.5 C 184.833,10.5 184.5,10.8333 184.5,11.5C 183.833,11.5 183.5,11.8333 183.5,12.5C 182.441,10.9301 182.941,9.5968 185,8.5C 185.464,9.09442 185.631,9.76109 185.5,10.5 Z"/></g>
<g><path style="opacity:0.005" fill="#000000" d="M 181.5,15.5 C 178.999,15.4891 178.832,14.8224 181,13.5C 181.464,14.0944 181.631,14.7611 181.5,15.5 Z"/></g>
<g><path style="opacity:1" fill="#aeaabb" d="M 195.5,6.5 C 195.443,7.60895 195.11,8.60895 194.5,9.5C 184.855,20.1467 175.189,30.8133 165.5,41.5C 164.702,41.0431 164.369,40.3764 164.5,39.5C 175.2,28.8017 185.533,17.8017 195.5,6.5 Z"/></g>
<g><path style="opacity:0.982" fill="#312c2e" d="M 194.5,-0.5 C 195.167,-0.5 195.833,-0.5 196.5,-0.5C 196.5,0.166667 196.5,0.833333 196.5,1.5C 204.686,12.8642 213.852,23.5308 224,33.5C 225.616,35.7133 226.783,38.0466 227.5,40.5C 226.89,41.391 226.557,42.391 226.5,43.5C 226.167,43.5 225.833,43.5 225.5,43.5C 225.167,42.8333 224.833,42.1667 224.5,41.5C 225.525,41.1034 225.692,40.4368 225,39.5C 215.301,28.3055 205.468,17.3055 195.5,6.5C 185.533,17.8017 175.2,28.8017 164.5,39.5C 163.903,39.2648 163.57,38.7648 163.5,38C 164.414,36.5936 165.08,35.0936 165.5,33.5C 165.5,33.1667 165.5,32.8333 165.5,32.5C 167.63,30.8729 169.63,29.0396 171.5,27C 170.906,26.5357 170.239,26.369 169.5,26.5C 173.83,23.866 177.83,20.1993 181.5,15.5C 182.401,14.7095 183.068,13.7095 183.5,12.5C 184.167,12.5 184.5,12.1667 184.5,11.5C 185.167,11.5 185.5,11.1667 185.5,10.5C 186.906,10.0269 187.573,9.02694 187.5,7.5C 190.316,6.23949 191.483,4.23949 191,1.5C 192.552,1.98892 193.719,1.32226 194.5,-0.5 Z"/></g>
<g><path style="opacity:0.004" fill="#000000" d="M 231.5,20.5 C 232.833,21.1667 232.833,21.1667 231.5,20.5 Z"/></g>
<g><path style="opacity:1" fill="#171414" d="M 194.5,9.5 C 196.017,9.51056 197.184,10.1772 198,11.5C 206.699,21.6937 215.532,31.6937 224.5,41.5C 224.833,42.1667 225.167,42.8333 225.5,43.5C 224.109,45.8903 222.109,47.5569 219.5,48.5C 217.02,47.758 214.687,46.758 212.5,45.5C 209.36,44.3592 206.027,44.1925 202.5,45C 201.944,45.3826 201.611,45.8826 201.5,46.5C 199.046,46.3205 196.879,46.9872 195,48.5C 191.599,46.8562 188.099,45.5228 184.5,44.5C 184.265,43.9033 183.765,43.5699 183,43.5C 180.654,43.9902 178.487,44.6568 176.5,45.5C 174.817,46.6607 172.984,47.6607 171,48.5C 168.348,46.6802 165.848,44.6802 163.5,42.5C 162.833,40.5 162.167,38.5 161.5,36.5C 161.5,34.5 161.5,32.5 161.5,30.5C 160.448,30.6495 159.448,30.4828 158.5,30C 159.76,28.1862 159.76,26.3529 158.5,24.5C 156.815,26.5707 155.148,28.5707 153.5,30.5C 153.737,31.791 153.404,32.791 152.5,33.5C 151.1,30.0337 151.767,27.0337 154.5,24.5C 154.369,25.2389 154.536,25.9056 155,26.5C 155.899,24.6734 157.233,23.34 159,22.5C 159.945,22.9054 160.612,23.572 161,24.5C 161.333,24.1667 161.667,23.8333 162,23.5C 163.104,26.5076 164.271,29.5076 165.5,32.5C 164.167,32.8333 164.167,33.1667 165.5,33.5C 165.08,35.0936 164.414,36.5936 163.5,38C 163.57,38.7648 163.903,39.2648 164.5,39.5C 164.369,40.3764 164.702,41.0431 165.5,41.5C 175.189,30.8133 184.855,20.1467 194.5,9.5 Z"/></g>
<g><path style="opacity:0.004" fill="#000000" d="M 154.5,23.5 C 155.833,24.1667 155.833,24.1667 154.5,23.5 Z"/></g>
<g><path style="opacity:0.004" fill="#000000" d="M 227.5,23.5 C 228.629,25.6282 228.796,27.9615 228,30.5C 227.503,28.1902 227.337,25.8568 227.5,23.5 Z"/></g>
<g><path style="opacity:0.301" fill="#040302" d="M 231.5,197.5 C 207.833,197.5 184.167,197.5 160.5,197.5C 159.697,196.577 159.53,195.577 160,194.5C 161.552,194.989 162.719,194.322 163.5,192.5C 164.167,192.5 164.5,192.167 164.5,191.5C 164.833,191.5 165.167,191.5 165.5,191.5C 165.461,192.583 165.127,193.583 164.5,194.5C 185.167,195.833 205.833,195.833 226.5,194.5C 225.479,193.099 224.479,191.765 223.5,190.5C 222.791,189.596 221.791,189.263 220.5,189.5C 221.167,188.5 221.833,187.5 222.5,186.5C 222.5,186.167 222.5,185.833 222.5,185.5C 224.41,184.025 225.576,182.025 226,179.5C 229.979,178.258 232.646,175.591 234,171.5C 234.203,167.579 234.703,163.745 235.5,160C 251.177,158.243 263.344,150.743 272,137.5C 279.845,124.339 281.345,110.672 276.5,96.5C 272.887,86.6084 267.721,77.6084 261,69.5C 253.932,61.7622 246.266,54.7622 238,48.5C 237.667,43.1667 237.333,37.8333 237,32.5C 235.834,29.4968 234.167,26.8302 232,24.5C 231.506,26.1341 231.34,27.8008 231.5,29.5C 231.167,30.1667 230.833,30.8333 230.5,31.5C 230.167,31.5 229.833,31.5 229.5,31.5C 229.782,28.6533 229.782,25.9866 229.5,23.5C 231.595,22.9189 233.428,22.9189 235,23.5C 241.432,30.4685 244.099,38.8019 243,48.5C 259.721,60.9723 272.388,76.639 281,95.5C 289.07,127.692 278.07,150.692 248,164.5C 247.667,164.167 247.333,163.833 247,163.5C 244.699,164.867 242.199,165.534 239.5,165.5C 240.686,168.512 240.52,171.512 239,174.5C 235.684,180.299 231.851,185.632 227.5,190.5C 229.734,192.381 231.067,194.715 231.5,197.5 Z"/></g>
<g><path style="opacity:0.004" fill="#000000" d="M 169.5,26.5 C 168.833,27.1667 168.833,27.1667 169.5,26.5 Z"/></g>
<g><path style="opacity:0.004" fill="#000000" d="M 168.5,27.5 C 167.833,28.1667 167.833,28.1667 168.5,27.5 Z"/></g>
<g><path style="opacity:1" fill="#8c8899" d="M 195.5,6.5 C 205.468,17.3055 215.301,28.3055 225,39.5C 225.692,40.4368 225.525,41.1034 224.5,41.5C 215.532,31.6937 206.699,21.6937 198,11.5C 197.184,10.1772 196.017,9.51056 194.5,9.5C 195.11,8.60895 195.443,7.60895 195.5,6.5 Z"/></g>
<g><path style="opacity:0.004" fill="#000000" d="M 167.5,28.5 C 166.833,29.1667 166.833,29.1667 167.5,28.5 Z"/></g>
<g><path style="opacity:0.004" fill="#000100" d="M 149.5,35.5 C 150.598,36.6009 150.765,37.9343 150,39.5C 149.51,38.2068 149.343,36.8734 149.5,35.5 Z"/></g>
<g><path style="opacity:1" fill="#9d8f93" d="M 207.5,34.5 C 207.5,35.1667 207.167,35.5 206.5,35.5C 204.262,34.4634 201.929,34.2967 199.5,35C 198.01,37.2003 198.343,39.0336 200.5,40.5C 201.167,39.1667 201.833,37.8333 202.5,36.5C 205.251,39.1061 204.751,41.1061 201,42.5C 200.127,42.2645 199.293,41.9312 198.5,41.5C 196.447,45.4121 194.28,45.4121 192,41.5C 189.146,42.834 186.979,42.0007 185.5,39C 187.175,35.7908 188.842,35.9575 190.5,39.5C 192.028,34.9155 190.362,33.4155 185.5,35C 183.04,36.4578 180.873,38.2911 179,40.5C 178.333,39.8333 178.333,39.1667 179,38.5C 184.021,32.9804 188.854,27.3137 193.5,21.5C 194.365,20.4173 195.365,20.2506 196.5,21C 200.379,25.374 204.046,29.874 207.5,34.5 Z"/></g>
<g><path style="opacity:1" fill="#534648" d="M 193.5,23.5 C 194.552,23.3505 195.552,23.5172 196.5,24C 198.461,26.9628 200.794,29.6294 203.5,32C 198.407,32.591 196.073,35.4243 196.5,40.5C 195.5,40.5 194.5,40.5 193.5,40.5C 194.246,35.6563 192.246,32.6563 187.5,31.5C 189.909,29.0976 191.909,26.4309 193.5,23.5 Z"/></g>
<g><path style="opacity:1" fill="#998e97" d="M 194.5,27.5 C 198.343,28.9311 198.509,30.9311 195,33.5C 191.898,31.6627 191.731,29.6627 194.5,27.5 Z"/></g>
<g><path style="opacity:1" fill="#574b47" d="M 207.5,34.5 C 216.781,45.607 216.447,45.9403 206.5,35.5C 207.167,35.5 207.5,35.1667 207.5,34.5 Z"/></g>
<g><path style="opacity:1" fill="#ebe668" d="M 229.5,31.5 C 229.833,31.5 230.167,31.5 230.5,31.5C 231.906,31.9731 232.573,32.9731 232.5,34.5C 232.868,38.0443 231.868,41.0443 229.5,43.5C 228.652,42.375 227.652,42.375 226.5,43.5C 226.557,42.391 226.89,41.391 227.5,40.5C 229.126,37.7543 229.793,34.7543 229.5,31.5 Z"/></g>
<g><path style="opacity:1" fill="#efed82" d="M 161.5,36.5 C 162.167,38.5 162.833,40.5 163.5,42.5C 162.698,43.9516 162.198,45.6183 162,47.5C 159.626,44.7368 157.792,41.7368 156.5,38.5C 156.5,37.8333 156.5,37.1667 156.5,36.5C 158.531,29.9626 160.198,29.9626 161.5,36.5 Z"/></g>
<g><path style="opacity:1" fill="#9f7e20" d="M 232.5,34.5 C 233.404,35.209 233.737,36.209 233.5,37.5C 233.197,42.4456 231.197,46.4456 227.5,49.5C 227.5,48.8333 227.5,48.1667 227.5,47.5C 228.6,46.3951 229.267,45.0618 229.5,43.5C 231.868,41.0443 232.868,38.0443 232.5,34.5 Z"/></g>
<g><path style="opacity:1" fill="#614d13" d="M 184.5,44.5 C 181.904,45.2653 179.237,45.5987 176.5,45.5C 178.487,44.6568 180.654,43.9902 183,43.5C 183.765,43.5699 184.265,43.9033 184.5,44.5 Z"/></g>
<g><path style="opacity:1" fill="#997c1d" d="M 212.5,45.5 C 210.5,45.5 208.5,45.5 206.5,45.5C 204.784,45.6287 203.117,45.962 201.5,46.5C 201.611,45.8826 201.944,45.3826 202.5,45C 206.027,44.1925 209.36,44.3592 212.5,45.5 Z"/></g>
<g><path style="opacity:1" fill="#fbf23d" d="M 156.5,38.5 C 157.792,41.7368 159.626,44.7368 162,47.5C 162.198,45.6183 162.698,43.9516 163.5,42.5C 165.848,44.6802 168.348,46.6802 171,48.5C 172.984,47.6607 174.817,46.6607 176.5,45.5C 179.237,45.5987 181.904,45.2653 184.5,44.5C 188.099,45.5228 191.599,46.8562 195,48.5C 196.879,46.9872 199.046,46.3205 201.5,46.5C 203.117,45.962 204.784,45.6287 206.5,45.5C 206.721,46.7348 207.388,47.7348 208.5,48.5C 207.398,49.1757 206.398,49.8423 205.5,50.5C 200.271,53.916 200.271,57.416 205.5,61C 207.134,61.4935 208.801,61.6602 210.5,61.5C 209.167,63.1667 207.833,64.8333 206.5,66.5C 204.58,67.0652 202.913,68.0652 201.5,69.5C 200.833,69.5 200.5,69.8333 200.5,70.5C 198.634,71.0138 196.8,71.6805 195,72.5C 193.2,71.6805 191.366,71.0138 189.5,70.5C 189.5,69.8333 189.167,69.5 188.5,69.5C 188.167,68.5 187.5,67.8333 186.5,67.5C 184.066,65.1256 181.066,63.7922 177.5,63.5C 177.281,62.325 177.614,61.325 178.5,60.5C 179.609,61.5896 180.609,61.5896 181.5,60.5C 179.344,58.2134 179.011,55.7134 180.5,53C 181.784,52.3162 182.951,52.4829 184,53.5C 183.914,55.641 184.081,57.9743 184.5,60.5C 186.288,60.2148 187.955,60.5481 189.5,61.5C 191.474,65.1699 194.474,66.3366 198.5,65C 199.731,63.8173 199.731,62.6507 198.5,61.5C 197.585,63.9803 196.085,64.6469 194,63.5C 193.505,61.5273 193.338,59.5273 193.5,57.5C 195.484,57.3832 197.15,58.0499 198.5,59.5C 199.594,58.132 199.26,56.9653 197.5,56C 195.833,55.3333 194.167,55.3333 192.5,56C 191.228,58.2609 189.562,58.7609 187.5,57.5C 188.025,56.8076 188.692,56.3076 189.5,56C 182.143,47.8461 177.476,49.3461 175.5,60.5C 174.818,59.7573 174.151,59.0906 173.5,58.5C 171.556,55.0807 168.556,52.914 164.5,52C 159.607,48.6997 156.94,44.1997 156.5,38.5 Z"/></g>
<g><path style="opacity:1" fill="#f5ed47" d="M 229.5,43.5 C 229.267,45.0618 228.6,46.3951 227.5,47.5C 225.494,48.5108 223.494,49.5108 221.5,50.5C 220.287,50.2528 219.62,49.5862 219.5,48.5C 222.109,47.5569 224.109,45.8903 225.5,43.5C 225.833,43.5 226.167,43.5 226.5,43.5C 227.652,42.375 228.652,42.375 229.5,43.5 Z"/></g>
<g><path style="opacity:0.004" fill="#000000" d="M 146.5,48.5 C 147.833,49.1667 147.833,49.1667 146.5,48.5 Z"/></g>
<g><path style="opacity:0.991" fill="#413633" d="M 155.5,47.5 C 156.674,48.5137 157.34,49.847 157.5,51.5C 156.833,51.5 156.167,51.5 155.5,51.5C 155.103,50.475 154.437,50.3083 153.5,51C 147.664,56.0042 141.997,61.1708 136.5,66.5C 136.082,65.7784 135.416,65.2784 134.5,65C 140.904,58.7178 147.404,52.5511 154,46.5C 154.333,47.5 154.667,48.5 155,49.5C 155.464,48.9056 155.631,48.2389 155.5,47.5 Z"/></g>
<g><path style="opacity:1" fill="#9a560a" d="M 156.5,36.5 C 156.5,37.1667 156.5,37.8333 156.5,38.5C 156.94,44.1997 159.607,48.6997 164.5,52C 168.556,52.914 171.556,55.0807 173.5,58.5C 173.843,60.4832 173.176,61.8166 171.5,62.5C 170.417,62.5394 169.417,62.8728 168.5,63.5C 166.827,61.9137 164.827,61.2471 162.5,61.5C 162.611,60.8826 162.944,60.3826 163.5,60C 160.619,57.7213 158.619,54.888 157.5,51.5C 157.34,49.847 156.674,48.5137 155.5,47.5C 155.185,43.6286 155.518,39.9619 156.5,36.5 Z"/></g>
<g><path style="opacity:1" fill="#e5ad21" d="M 206.5,45.5 C 208.5,45.5 210.5,45.5 212.5,45.5C 214.687,46.758 217.02,47.758 219.5,48.5C 219.62,49.5862 220.287,50.2528 221.5,50.5C 223.494,49.5108 225.494,48.5108 227.5,47.5C 227.5,48.1667 227.5,48.8333 227.5,49.5C 225.23,51.9748 222.563,53.9748 219.5,55.5C 217.464,57.2057 216.464,59.539 216.5,62.5C 215.209,62.2627 214.209,62.596 213.5,63.5C 211.249,64.6948 208.915,65.6948 206.5,66.5C 207.833,64.8333 209.167,63.1667 210.5,61.5C 211.434,60.4324 211.768,59.099 211.5,57.5C 213.788,61.3958 215.455,60.8958 216.5,56C 215.799,53.6196 214.633,51.4529 213,49.5C 212.802,51.3817 212.302,53.0484 211.5,54.5C 211.5,53.1667 211.5,51.8333 211.5,50.5C 209.5,50.5 207.5,50.5 205.5,50.5C 206.398,49.8423 207.398,49.1757 208.5,48.5C 207.388,47.7348 206.721,46.7348 206.5,45.5 Z"/></g>
<g><path style="opacity:0.004" fill="#000000" d="M 143.5,51.5 C 144.833,52.1667 144.833,52.1667 143.5,51.5 Z"/></g>
<g><path style="opacity:1" fill="#d47f18" d="M 205.5,50.5 C 207.5,50.5 209.5,50.5 211.5,50.5C 211.5,51.8333 211.5,53.1667 211.5,54.5C 209.718,53.2804 207.718,52.6138 205.5,52.5C 205.5,53.5 205.5,54.5 205.5,55.5C 208.896,55.6329 209.229,56.6329 206.5,58.5C 207,58.8333 207.5,59.1667 208,59.5C 209.077,58.5705 210.244,57.9038 211.5,57.5C 211.768,59.099 211.434,60.4324 210.5,61.5C 208.801,61.6602 207.134,61.4935 205.5,61C 200.271,57.416 200.271,53.916 205.5,50.5 Z"/></g>
<g><path style="opacity:0.004" fill="#000100" d="M 143.5,52.5 C 142.833,53.1667 142.833,53.1667 143.5,52.5 Z"/></g>
<g><path style="opacity:1" fill="#5d2c04" d="M 233.5,37.5 C 235.542,46.2147 233.209,53.7147 226.5,60C 227.056,60.3826 227.389,60.8826 227.5,61.5C 223.461,62.3403 220.461,61.007 218.5,57.5C 218.863,56.8165 219.196,56.1499 219.5,55.5C 222.563,53.9748 225.23,51.9748 227.5,49.5C 231.197,46.4456 233.197,42.4456 233.5,37.5 Z"/></g>
<g><path style="opacity:1" fill="#fae02b" d="M 211.5,57.5 C 210.244,57.9038 209.077,58.5705 208,59.5C 207.5,59.1667 207,58.8333 206.5,58.5C 209.229,56.6329 208.896,55.6329 205.5,55.5C 205.5,54.5 205.5,53.5 205.5,52.5C 207.718,52.6138 209.718,53.2804 211.5,54.5C 212.302,53.0484 212.802,51.3817 213,49.5C 214.633,51.4529 215.799,53.6196 216.5,56C 215.455,60.8958 213.788,61.3958 211.5,57.5 Z"/></g>
<g><path style="opacity:0.005" fill="#000000" d="M 139.5,57.5 C 138.833,57.5 138.5,57.8333 138.5,58.5C 136.025,58.2533 136.025,57.5866 138.5,56.5C 139.107,56.6236 139.44,56.9569 139.5,57.5 Z"/></g>
<g><path style="opacity:1" fill="#efa01f" d="M 177.5,63.5 C 175.833,63.5 174.167,63.5 172.5,63.5C 171.833,63.5 171.5,63.1667 171.5,62.5C 173.176,61.8166 173.843,60.4832 173.5,58.5C 174.151,59.0906 174.818,59.7573 175.5,60.5C 177.476,49.3461 182.143,47.8461 189.5,56C 188.692,56.3076 188.025,56.8076 187.5,57.5C 189.562,58.7609 191.228,58.2609 192.5,56C 194.167,55.3333 195.833,55.3333 197.5,56C 199.26,56.9653 199.594,58.132 198.5,59.5C 197.15,58.0499 195.484,57.3832 193.5,57.5C 193.338,59.5273 193.505,61.5273 194,63.5C 196.085,64.6469 197.585,63.9803 198.5,61.5C 199.731,62.6507 199.731,63.8173 198.5,65C 194.474,66.3366 191.474,65.1699 189.5,61.5C 187.955,60.5481 186.288,60.2148 184.5,60.5C 184.081,57.9743 183.914,55.641 184,53.5C 182.951,52.4829 181.784,52.3162 180.5,53C 179.011,55.7134 179.344,58.2134 181.5,60.5C 180.609,61.5896 179.609,61.5896 178.5,60.5C 177.614,61.325 177.281,62.325 177.5,63.5 Z"/></g>
<g><path style="opacity:0.004" fill="#000000" d="M 134.5,59.5 C 135.833,60.1667 135.833,60.1667 134.5,59.5 Z"/></g>
<g><path style="opacity:1" fill="#a499a3" d="M 234.5,50.5 C 247.414,59.3893 258.247,70.3893 267,83.5C 270.627,89.4165 273.127,95.7498 274.5,102.5C 274.795,104.735 274.461,106.735 273.5,108.5C 273.371,106.784 273.038,105.117 272.5,103.5C 271.001,95.1656 267.834,87.4989 263,80.5C 254.336,69.6703 244.836,59.6703 234.5,50.5 Z"/></g>
<g><path style="opacity:0.004" fill="#000000" d="M 134.5,60.5 C 133.833,61.1667 133.833,61.1667 134.5,60.5 Z"/></g>
<g><path style="opacity:1" fill="#b85f0c" d="M 219.5,55.5 C 219.196,56.1499 218.863,56.8165 218.5,57.5C 220.461,61.007 223.461,62.3403 227.5,61.5C 227.808,63.924 227.474,66.2573 226.5,68.5C 224.971,67.2371 223.305,66.2371 221.5,65.5C 218.933,64.525 216.267,63.8583 213.5,63.5C 214.209,62.596 215.209,62.2627 216.5,62.5C 216.464,59.539 217.464,57.2057 219.5,55.5 Z"/></g>
<g><path style="opacity:1" fill="#cb610e" d="M 162.5,61.5 C 164.827,61.2471 166.827,61.9137 168.5,63.5C 169.417,62.8728 170.417,62.5394 171.5,62.5C 171.5,63.1667 171.833,63.5 172.5,63.5C 171.5,64.1667 170.5,64.8333 169.5,65.5C 167.11,66.446 164.944,67.7794 163,69.5C 162.503,66.854 162.336,64.1873 162.5,61.5 Z"/></g>
<g><path style="opacity:1" fill="#bf8613" d="M 177.5,63.5 C 181.066,63.7922 184.066,65.1256 186.5,67.5C 182.835,67.4982 179.835,66.1648 177.5,63.5 Z"/></g>
<g><path style="opacity:0.004" fill="#000000" d="M 129.5,67.5 C 128.833,67.5 128.5,67.8333 128.5,68.5C 127.542,68.9528 126.708,69.6195 126,70.5C 125.691,68.6086 126.525,67.2752 128.5,66.5C 129.107,66.6236 129.44,66.9569 129.5,67.5 Z"/></g>
<g><path style="opacity:1" fill="#120d0b" d="M 155.5,51.5 C 156.167,51.5 156.833,51.5 157.5,51.5C 158.619,54.888 160.619,57.7213 163.5,60C 162.944,60.3826 162.611,60.8826 162.5,61.5C 160.96,63.8383 160.294,66.5049 160.5,69.5C 159.353,73.6463 159.186,77.9796 160,82.5C 160.278,83.4158 160.778,84.0825 161.5,84.5C 161.427,86.0269 162.094,87.0269 163.5,87.5C 163.5,88.1667 163.833,88.5 164.5,88.5C 163.909,89.1515 163.243,89.8182 162.5,90.5C 164.415,93.226 166.749,93.8927 169.5,92.5C 169.938,91.4937 170.604,91.4937 171.5,92.5C 171.5,93.8333 171.5,95.1667 171.5,96.5C 170.662,96.8417 170.328,97.5084 170.5,98.5C 169.833,98.5 169.5,98.8333 169.5,99.5C 168.833,99.8333 168.167,100.167 167.5,100.5C 166.833,100.833 166.167,101.167 165.5,101.5C 163.999,100.248 162.332,99.2485 160.5,98.5C 158.369,97.6862 156.036,97.1862 153.5,97C 153.833,96.6667 154.167,96.3333 154.5,96C 152.686,93.5205 151.019,91.0205 149.5,88.5C 149.5,84.5 149.5,80.5 149.5,76.5C 146.848,76.4095 144.515,77.0762 142.5,78.5C 136.453,80.9155 132.453,85.2488 130.5,91.5C 128,94.6599 126.667,98.3266 126.5,102.5C 125.038,109.464 125.371,116.464 127.5,123.5C 127.704,125.685 128.37,127.685 129.5,129.5C 128.883,129.389 128.383,129.056 128,128.5C 127.333,129.833 126.333,130.833 125,131.5C 124.211,129.42 123.044,127.586 121.5,126C 119.753,117.761 118.919,109.594 119,101.5C 118.768,102.737 118.268,103.737 117.5,104.5C 119.747,94.3376 123.913,85.0042 130,76.5C 137.732,67.2669 146.232,58.9336 155.5,51.5 Z"/></g>
<g><path style="opacity:1" fill="#b8630e" d="M 188.5,69.5 C 189.167,69.5 189.5,69.8333 189.5,70.5C 190.844,72.1683 192.177,73.8349 193.5,75.5C 193.315,76.5837 192.982,77.5837 192.5,78.5C 189.682,78.3426 187.682,77.0092 186.5,74.5C 183.342,72.0005 179.675,70.6672 175.5,70.5C 171.549,69.7761 170.216,71.1094 171.5,74.5C 170.833,74.5 170.5,74.8333 170.5,75.5C 166.539,71.7882 167.539,69.2882 173.5,68C 172.207,67.51 170.873,67.3433 169.5,67.5C 169.5,67.1667 169.5,66.8333 169.5,66.5C 174.372,64.5763 178.372,65.7429 181.5,70C 183.556,70.3108 185.556,70.8108 187.5,71.5C 188.298,71.0431 188.631,70.3764 188.5,69.5 Z"/></g>
<g><path style="opacity:1" fill="#291605" d="M 172.5,63.5 C 174.167,63.5 175.833,63.5 177.5,63.5C 179.835,66.1648 182.835,67.4982 186.5,67.5C 187.5,67.8333 188.167,68.5 188.5,69.5C 188.631,70.3764 188.298,71.0431 187.5,71.5C 185.556,70.8108 183.556,70.3108 181.5,70C 178.372,65.7429 174.372,64.5763 169.5,66.5C 169.5,66.1667 169.5,65.8333 169.5,65.5C 170.5,64.8333 171.5,64.1667 172.5,63.5 Z"/></g>
<g><path style="opacity:1" fill="#271606" d="M 213.5,63.5 C 216.267,63.8583 218.933,64.525 221.5,65.5C 218.359,66.3213 215.025,66.8213 211.5,67C 208.564,68.6486 205.564,70.1486 202.5,71.5C 201.702,71.0431 201.369,70.3764 201.5,69.5C 202.913,68.0652 204.58,67.0652 206.5,66.5C 208.915,65.6948 211.249,64.6948 213.5,63.5 Z"/></g>
<g><path style="opacity:1" fill="#9d3d0c" d="M 162.5,61.5 C 162.336,64.1873 162.503,66.854 163,69.5C 164.944,67.7794 167.11,66.446 169.5,65.5C 169.5,65.8333 169.5,66.1667 169.5,66.5C 169.5,66.8333 169.5,67.1667 169.5,67.5C 166.039,68.5512 163.373,70.5512 161.5,73.5C 160.566,72.4324 160.232,71.099 160.5,69.5C 160.294,66.5049 160.96,63.8383 162.5,61.5 Z"/></g>
<g><path style="opacity:1" fill="#ef7415" d="M 169.5,67.5 C 170.873,67.3433 172.207,67.51 173.5,68C 167.539,69.2882 166.539,71.7882 170.5,75.5C 170.209,76.6491 169.376,77.3158 168,77.5C 165.991,77.2421 164.157,76.5755 162.5,75.5C 162.167,74.8333 161.833,74.1667 161.5,73.5C 163.373,70.5512 166.039,68.5512 169.5,67.5 Z"/></g>
<g><path style="opacity:1" fill="#9c470c" d="M 227.5,61.5 C 229.011,63.4758 229.844,65.8091 230,68.5C 230.499,72.4862 230.666,76.4862 230.5,80.5C 224.854,80.8493 224.187,79.3493 228.5,76C 227.423,75.5304 226.423,75.6971 225.5,76.5C 227.105,69.2747 224.105,66.4414 216.5,68C 214.685,68.7568 213.019,69.5902 211.5,70.5C 211.167,70.5 210.833,70.5 210.5,70.5C 205.568,70.4164 202.235,72.7497 200.5,77.5C 199.265,76.6602 198.265,75.6602 197.5,74.5C 198.211,72.9699 199.211,71.6366 200.5,70.5C 200.5,69.8333 200.833,69.5 201.5,69.5C 201.369,70.3764 201.702,71.0431 202.5,71.5C 205.564,70.1486 208.564,68.6486 211.5,67C 215.025,66.8213 218.359,66.3213 221.5,65.5C 223.305,66.2371 224.971,67.2371 226.5,68.5C 227.474,66.2573 227.808,63.924 227.5,61.5 Z"/></g>
<g><path style="opacity:1" fill="#ec7515" d="M 225.5,76.5 C 223.565,77.1495 221.565,77.4828 219.5,77.5C 219.5,76.5 219.5,75.5 219.5,74.5C 219.5,73.1667 219.5,71.8333 219.5,70.5C 216.833,70.5 214.167,70.5 211.5,70.5C 213.019,69.5902 214.685,68.7568 216.5,68C 224.105,66.4414 227.105,69.2747 225.5,76.5 Z"/></g>
<g><path style="opacity:1" fill="#3f3330" d="M 276.5,96.5 C 276.851,98.8695 277.018,101.203 277,103.5C 276.617,102.944 276.117,102.611 275.5,102.5C 275.167,102.5 274.833,102.5 274.5,102.5C 273.127,95.7498 270.627,89.4165 267,83.5C 258.247,70.3893 247.414,59.3893 234.5,50.5C 237.63,42.9454 236.63,35.9454 231.5,29.5C 231.34,27.8008 231.506,26.1341 232,24.5C 234.167,26.8302 235.834,29.4968 237,32.5C 237.333,37.8333 237.667,43.1667 238,48.5C 246.266,54.7622 253.932,61.7622 261,69.5C 267.721,77.6084 272.887,86.6084 276.5,96.5 Z"/></g>
<g><path style="opacity:1" fill="#f5b616" d="M 186.5,74.5 C 186.53,75.4972 186.03,76.1639 185,76.5C 183.715,76.0496 182.548,75.3829 181.5,74.5C 180.893,74.6236 180.56,74.9569 180.5,75.5C 180.158,76.3382 179.492,76.6716 178.5,76.5C 178.029,75.0992 177.362,73.7658 176.5,72.5C 175.614,73.325 175.281,74.325 175.5,75.5C 174.5,75.5 173.5,75.5 172.5,75.5C 171.833,75.5 171.5,75.1667 171.5,74.5C 170.216,71.1094 171.549,69.7761 175.5,70.5C 179.675,70.6672 183.342,72.0005 186.5,74.5 Z"/></g>
<g><path style="opacity:1" fill="#f5ad20" d="M 189.5,70.5 C 191.366,71.0138 193.2,71.6805 195,72.5C 196.8,71.6805 198.634,71.0138 200.5,70.5C 199.211,71.6366 198.211,72.9699 197.5,74.5C 197.5,76.1667 197.5,77.8333 197.5,79.5C 196.839,78.2825 196.172,76.9492 195.5,75.5C 194.85,77.1836 193.85,78.5169 192.5,79.5C 192.5,79.1667 192.5,78.8333 192.5,78.5C 192.982,77.5837 193.315,76.5837 193.5,75.5C 192.177,73.8349 190.844,72.1683 189.5,70.5 Z"/></g>
<g><path style="opacity:1" fill="#f8ae15" d="M 210.5,70.5 C 210.833,70.5 211.167,70.5 211.5,70.5C 214.167,70.5 216.833,70.5 219.5,70.5C 219.5,71.8333 219.5,73.1667 219.5,74.5C 218.833,74.8333 218.167,75.1667 217.5,75.5C 216.5,75.5 215.5,75.5 214.5,75.5C 213.833,71.5 213.167,71.5 212.5,75.5C 210.109,74.5924 207.776,74.4257 205.5,75C 207.063,73.264 208.73,71.764 210.5,70.5 Z"/></g>
<g><path style="opacity:1" fill="#451906" d="M 180.5,75.5 C 182.641,77.1217 184.308,79.1217 185.5,81.5C 184.833,81.5 184.167,81.5 183.5,81.5C 182.5,81.5 181.5,81.5 180.5,81.5C 180.737,80.209 180.404,79.209 179.5,78.5C 179.158,77.6618 178.492,77.3284 177.5,77.5C 177.5,76.8333 177.833,76.5 178.5,76.5C 179.492,76.6716 180.158,76.3382 180.5,75.5 Z"/></g>
<g><path style="opacity:1" fill="#d35a13" d="M 161.5,75.5 C 162.479,77.1454 163.812,78.4787 165.5,79.5C 165.376,80.1067 165.043,80.44 164.5,80.5C 163.167,80.5 161.833,80.5 160.5,80.5C 160.216,78.5853 160.549,76.9187 161.5,75.5 Z"/></g>
<g><path style="opacity:1" fill="#1b0a02" d="M 171.5,74.5 C 171.5,75.1667 171.833,75.5 172.5,75.5C 172.611,76.1174 172.944,76.6174 173.5,77C 171.251,79.2225 170.584,81.7225 171.5,84.5C 170.833,84.8333 170.167,85.1667 169.5,85.5C 168.552,84.0221 167.219,83.0221 165.5,82.5C 165.167,81.8333 164.833,81.1667 164.5,80.5C 165.043,80.44 165.376,80.1067 165.5,79.5C 163.812,78.4787 162.479,77.1454 161.5,75.5C 161.833,75.5 162.167,75.5 162.5,75.5C 164.157,76.5755 165.991,77.2421 168,77.5C 169.376,77.3158 170.209,76.6491 170.5,75.5C 170.5,74.8333 170.833,74.5 171.5,74.5 Z"/></g>
<g><path style="opacity:1" fill="#dc8016" d="M 210.5,70.5 C 208.73,71.764 207.063,73.264 205.5,75C 207.776,74.4257 210.109,74.5924 212.5,75.5C 209.391,76.2395 206.725,77.9062 204.5,80.5C 205.325,81.3857 206.325,81.719 207.5,81.5C 207.5,82.1667 207.5,82.8333 207.5,83.5C 205.031,82.2175 203.031,82.8842 201.5,85.5C 202.167,86.5 202.833,87.5 203.5,88.5C 202.193,89.865 202.193,91.1984 203.5,92.5C 203.833,97.281 201.833,98.6143 197.5,96.5C 197.5,95.8333 197.833,95.5 198.5,95.5C 200.552,94.9473 200.885,93.9473 199.5,92.5C 198.432,91.5655 197.099,91.2322 195.5,91.5C 195.657,92.8734 195.49,94.2068 195,95.5C 194.768,94.2625 194.268,93.2625 193.5,92.5C 193.158,91.6618 192.492,91.3284 191.5,91.5C 192.802,89.9724 194.469,88.9724 196.5,88.5C 197.477,85.7131 197.81,82.7131 197.5,79.5C 197.5,77.8333 197.5,76.1667 197.5,74.5C 198.265,75.6602 199.265,76.6602 200.5,77.5C 202.235,72.7497 205.568,70.4164 210.5,70.5 Z"/></g>
<g><path style="opacity:0.004" fill="#000000" d="M 119.5,79.5 C 118.833,80.1667 118.833,80.1667 119.5,79.5 Z"/></g>
<g><path style="opacity:1" fill="#e78f1a" d="M 180.5,75.5 C 180.56,74.9569 180.893,74.6236 181.5,74.5C 182.548,75.3829 183.715,76.0496 185,76.5C 186.03,76.1639 186.53,75.4972 186.5,74.5C 187.682,77.0092 189.682,78.3426 192.5,78.5C 192.5,78.8333 192.5,79.1667 192.5,79.5C 192.632,82.5701 192.299,85.5701 191.5,88.5C 189.926,88.9371 188.759,89.9371 188,91.5C 187.51,90.2068 187.343,88.8734 187.5,87.5C 187.804,86.8501 188.137,86.1835 188.5,85.5C 187.613,84.0268 186.613,82.6935 185.5,81.5C 184.308,79.1217 182.641,77.1217 180.5,75.5 Z"/></g>
<g><path style="opacity:1" fill="#461908" d="M 216.5,78.5 C 216.5,78.1667 216.5,77.8333 216.5,77.5C 218.56,78.2152 220.226,79.5486 221.5,81.5C 221.137,82.1835 220.804,82.8501 220.5,83.5C 220.672,84.4916 220.338,85.1583 219.5,85.5C 218.081,84.5489 216.415,84.2155 214.5,84.5C 215.209,83.596 216.209,83.2627 217.5,83.5C 217.784,81.5853 217.451,79.9187 216.5,78.5 Z"/></g>
<g><path style="opacity:1" fill="#ab5516" d="M 142.5,78.5 C 144.735,78.2053 146.735,78.5386 148.5,79.5C 146.143,79.3367 143.81,79.5034 141.5,80C 138.707,82.2396 139.04,83.7396 142.5,84.5C 143.815,85.4756 145.148,86.4756 146.5,87.5C 147.183,87.1373 147.85,86.8039 148.5,86.5C 148.179,88.0481 147.179,88.7148 145.5,88.5C 145.5,90.1667 145.5,91.8333 145.5,93.5C 144.655,94.6715 143.989,96.0048 143.5,97.5C 143.167,97.5 142.833,97.5 142.5,97.5C 143.16,95.1843 143.827,92.851 144.5,90.5C 144.332,88.8295 143.665,87.4961 142.5,86.5C 140.636,85.2072 138.636,85.2072 136.5,86.5C 135.917,88.0016 135.084,89.3349 134,90.5C 133.667,90.1667 133.333,89.8333 133,89.5C 132.292,90.3805 131.458,91.0472 130.5,91.5C 132.453,85.2488 136.453,80.9155 142.5,78.5 Z"/></g>
<g><path style="opacity:1" fill="#f27f1f" d="M 148.5,79.5 C 148.5,80.1667 148.5,80.8333 148.5,81.5C 146.5,81.5 144.5,81.5 142.5,81.5C 142.5,82.5 142.5,83.5 142.5,84.5C 139.04,83.7396 138.707,82.2396 141.5,80C 143.81,79.5034 146.143,79.3367 148.5,79.5 Z"/></g>
<g><path style="opacity:1" fill="#4c1d0a" d="M 160.5,69.5 C 160.232,71.099 160.566,72.4324 161.5,73.5C 161.833,74.1667 162.167,74.8333 162.5,75.5C 162.167,75.5 161.833,75.5 161.5,75.5C 160.549,76.9187 160.216,78.5853 160.5,80.5C 161.833,80.5 163.167,80.5 164.5,80.5C 164.833,81.1667 165.167,81.8333 165.5,82.5C 163.517,82.1568 162.183,82.8235 161.5,84.5C 160.778,84.0825 160.278,83.4158 160,82.5C 159.186,77.9796 159.353,73.6463 160.5,69.5 Z"/></g>
<g><path style="opacity:1" fill="#efd541" d="M 177.5,77.5 C 178.492,77.3284 179.158,77.6618 179.5,78.5C 178.888,81.6973 176.888,83.0306 173.5,82.5C 172.756,79.0504 174.09,77.3838 177.5,77.5 Z"/></g>
<g><path style="opacity:1" fill="#552209" d="M 217.5,75.5 C 217.167,76.1667 216.833,76.8333 216.5,77.5C 214.379,77.3253 212.379,77.6586 210.5,78.5C 209.9,79.9002 208.9,80.9002 207.5,81.5C 206.325,81.719 205.325,81.3857 204.5,80.5C 206.725,77.9062 209.391,76.2395 212.5,75.5C 213.167,71.5 213.833,71.5 214.5,75.5C 215.5,75.5 216.5,75.5 217.5,75.5 Z"/></g>
<g><path style="opacity:1" fill="#eed03e" d="M 216.5,77.5 C 216.5,77.8333 216.5,78.1667 216.5,78.5C 216.5,79.8333 216.5,81.1667 216.5,82.5C 212.759,83.4015 210.759,82.0681 210.5,78.5C 212.379,77.6586 214.379,77.3253 216.5,77.5 Z"/></g>
<g><path style="opacity:0.004" fill="#000000" d="M 116.5,82.5 C 117.833,83.1667 117.833,83.1667 116.5,82.5 Z"/></g>
<g><path style="opacity:1" fill="#87450f" d="M 178.5,76.5 C 177.833,76.5 177.5,76.8333 177.5,77.5C 174.09,77.3838 172.756,79.0504 173.5,82.5C 176.888,83.0306 178.888,81.6973 179.5,78.5C 180.404,79.209 180.737,80.209 180.5,81.5C 181.5,81.5 182.5,81.5 183.5,81.5C 182.41,82.8571 181.076,83.8571 179.5,84.5C 176.833,84.5 174.167,84.5 171.5,84.5C 170.584,81.7225 171.251,79.2225 173.5,77C 172.944,76.6174 172.611,76.1174 172.5,75.5C 173.5,75.5 174.5,75.5 175.5,75.5C 175.281,74.325 175.614,73.325 176.5,72.5C 177.362,73.7658 178.029,75.0992 178.5,76.5 Z"/></g>
<g><path style="opacity:1" fill="#9f5414" d="M 210.5,78.5 C 210.759,82.0681 212.759,83.4015 216.5,82.5C 216.5,81.1667 216.5,79.8333 216.5,78.5C 217.451,79.9187 217.784,81.5853 217.5,83.5C 216.209,83.2627 215.209,83.596 214.5,84.5C 212.139,84.3259 209.806,83.9926 207.5,83.5C 207.5,82.8333 207.5,82.1667 207.5,81.5C 208.9,80.9002 209.9,79.9002 210.5,78.5 Z"/></g>
<g><path style="opacity:1" fill="#a24a0e" d="M 165.5,82.5 C 167.219,83.0221 168.552,84.0221 169.5,85.5C 169.5,85.8333 169.5,86.1667 169.5,86.5C 168.833,86.5 168.5,86.1667 168.5,85.5C 167.399,84.4017 166.066,84.235 164.5,85C 163.748,85.6708 163.414,86.5041 163.5,87.5C 162.094,87.0269 161.427,86.0269 161.5,84.5C 162.183,82.8235 163.517,82.1568 165.5,82.5 Z"/></g>
<g><path style="opacity:1" fill="#6e2e07" d="M 224.5,92.5 C 224.586,90.323 225.253,88.323 226.5,86.5C 225.995,85.0815 224.995,84.4148 223.5,84.5C 222.167,85.1667 220.833,85.8333 219.5,86.5C 219.5,86.1667 219.5,85.8333 219.5,85.5C 220.338,85.1583 220.672,84.4916 220.5,83.5C 223.313,83.4519 225.979,82.7853 228.5,81.5C 228.833,82 229.167,82.5 229.5,83C 228.388,86.5709 226.722,89.7376 224.5,92.5 Z"/></g>
<g><path style="opacity:1" fill="#fbe84f" d="M 148.5,81.5 C 148.5,83.1667 148.5,84.8333 148.5,86.5C 147.85,86.8039 147.183,87.1373 146.5,87.5C 145.148,86.4756 143.815,85.4756 142.5,84.5C 142.5,83.5 142.5,82.5 142.5,81.5C 144.5,81.5 146.5,81.5 148.5,81.5 Z"/></g>
<g><path style="opacity:1" fill="#e68e17" d="M 171.5,84.5 C 174.167,84.5 176.833,84.5 179.5,84.5C 176.493,86.1745 173.16,86.8412 169.5,86.5C 169.5,86.1667 169.5,85.8333 169.5,85.5C 170.167,85.1667 170.833,84.8333 171.5,84.5 Z"/></g>
<g><path style="opacity:1" fill="#d56a10" d="M 207.5,83.5 C 209.806,83.9926 212.139,84.3259 214.5,84.5C 216.415,84.2155 218.081,84.5489 219.5,85.5C 219.5,85.8333 219.5,86.1667 219.5,86.5C 217.5,86.5 215.5,86.5 213.5,86.5C 211.03,86.3465 209.03,85.3465 207.5,83.5 Z"/></g>
<g><path style="opacity:1" fill="#feea2e" d="M 197.5,79.5 C 197.81,82.7131 197.477,85.7131 196.5,88.5C 194.833,88.5 193.167,88.5 191.5,88.5C 192.299,85.5701 192.632,82.5701 192.5,79.5C 193.85,78.5169 194.85,77.1836 195.5,75.5C 196.172,76.9492 196.839,78.2825 197.5,79.5 Z"/></g>
<g><path style="opacity:1" fill="#de9617" d="M 223.5,84.5 C 224.741,87.2959 223.741,88.9626 220.5,89.5C 220.611,88.8826 220.944,88.3826 221.5,88C 218.635,87.8171 215.969,87.3171 213.5,86.5C 215.5,86.5 217.5,86.5 219.5,86.5C 220.833,85.8333 222.167,85.1667 223.5,84.5 Z"/></g>
<g><path style="opacity:1" fill="#fef734" d="M 207.5,83.5 C 209.03,85.3465 211.03,86.3465 213.5,86.5C 215.969,87.3171 218.635,87.8171 221.5,88C 220.944,88.3826 220.611,88.8826 220.5,89.5C 217.05,88.7564 215.384,90.0897 215.5,93.5C 213.821,93.2852 212.821,93.9519 212.5,95.5C 209.932,96.2318 207.266,96.2318 204.5,95.5C 204.737,94.209 204.404,93.209 203.5,92.5C 202.193,91.1984 202.193,89.865 203.5,88.5C 202.833,87.5 202.167,86.5 201.5,85.5C 203.031,82.8842 205.031,82.2175 207.5,83.5 Z"/></g>
<g><path style="opacity:1" fill="#66340b" d="M 149.5,88.5 C 148.316,89.6879 148.316,90.8545 149.5,92C 148.099,92.4101 146.766,92.9101 145.5,93.5C 145.5,91.8333 145.5,90.1667 145.5,88.5C 147.179,88.7148 148.179,88.0481 148.5,86.5C 148.5,84.8333 148.5,83.1667 148.5,81.5C 148.5,80.8333 148.5,80.1667 148.5,79.5C 146.735,78.5386 144.735,78.2053 142.5,78.5C 144.515,77.0762 146.848,76.4095 149.5,76.5C 149.5,80.5 149.5,84.5 149.5,88.5 Z"/></g>
<g><path style="opacity:1" fill="#17100e" d="M 231.5,29.5 C 236.63,35.9454 237.63,42.9454 234.5,50.5C 244.836,59.6703 254.336,69.6703 263,80.5C 267.834,87.4989 271.001,95.1656 272.5,103.5C 271.691,105.292 271.191,107.292 271,109.5C 270.717,106.258 269.883,105.924 268.5,108.5C 267.702,106.922 267.202,105.256 267,103.5C 266.685,109.384 265.851,115.051 264.5,120.5C 264.823,114.31 264.49,108.31 263.5,102.5C 262.01,93.6873 258.01,86.1873 251.5,80C 248.854,79.5026 246.187,79.3359 243.5,79.5C 243.44,78.9569 243.107,78.6236 242.5,78.5C 241.571,79.6888 241.238,81.0222 241.5,82.5C 241.5,82.8333 241.5,83.1667 241.5,83.5C 240.745,86.0529 240.078,88.7196 239.5,91.5C 238.275,92.937 237.275,94.6036 236.5,96.5C 234.031,97.1681 231.698,97.8347 229.5,98.5C 228.508,98.3284 227.842,98.6618 227.5,99.5C 226.5,99.8333 225.833,100.5 225.5,101.5C 225.167,101.5 224.833,101.5 224.5,101.5C 223.203,99.6287 222.203,97.6287 221.5,95.5C 220.957,95.44 220.624,95.1067 220.5,94.5C 221.602,93.8243 222.602,93.1577 223.5,92.5C 223.833,92.5 224.167,92.5 224.5,92.5C 226.722,89.7376 228.388,86.5709 229.5,83C 229.167,82.5 228.833,82 228.5,81.5C 225.979,82.7853 223.313,83.4519 220.5,83.5C 220.804,82.8501 221.137,82.1835 221.5,81.5C 220.226,79.5486 218.56,78.2152 216.5,77.5C 216.833,76.8333 217.167,76.1667 217.5,75.5C 218.167,75.1667 218.833,74.8333 219.5,74.5C 219.5,75.5 219.5,76.5 219.5,77.5C 221.565,77.4828 223.565,77.1495 225.5,76.5C 226.423,75.6971 227.423,75.5304 228.5,76C 224.187,79.3493 224.854,80.8493 230.5,80.5C 230.666,76.4862 230.499,72.4862 230,68.5C 229.844,65.8091 229.011,63.4758 227.5,61.5C 227.389,60.8826 227.056,60.3826 226.5,60C 233.209,53.7147 235.542,46.2147 233.5,37.5C 233.737,36.209 233.404,35.209 232.5,34.5C 232.573,32.9731 231.906,31.9731 230.5,31.5C 230.833,30.8333 231.167,30.1667 231.5,29.5 Z"/></g>
<g><path style="opacity:1" fill="#80480e" d="M 243.5,79.5 C 244.23,81.045 245.563,81.8784 247.5,82C 248.833,83 248.833,84 247.5,85C 253.721,87.3091 256.054,91.4758 254.5,97.5C 254.66,95.8008 254.494,94.1341 254,92.5C 251.175,90.6675 248.341,88.8341 245.5,87C 246.668,85.5944 246.335,84.4277 244.5,83.5C 243.675,82.6143 242.675,82.281 241.5,82.5C 241.238,81.0222 241.571,79.6888 242.5,78.5C 243.107,78.6236 243.44,78.9569 243.5,79.5 Z"/></g>
<g><path style="opacity:1" fill="#bfb3b4" d="M 155.5,51.5 C 146.232,58.9336 137.732,67.2669 130,76.5C 123.913,85.0042 119.747,94.3376 117.5,104.5C 117.5,104.833 117.5,105.167 117.5,105.5C 116.686,107.631 116.186,109.964 116,112.5C 115.502,109.518 115.335,106.518 115.5,103.5C 119.133,89.2323 126.133,76.899 136.5,66.5C 141.997,61.1708 147.664,56.0042 153.5,51C 154.437,50.3083 155.103,50.475 155.5,51.5 Z"/></g>
<g><path style="opacity:1" fill="#7c370c" d="M 164.5,88.5 C 166.104,89.287 166.771,90.6203 166.5,92.5C 167.5,92.5 168.5,92.5 169.5,92.5C 166.749,93.8927 164.415,93.226 162.5,90.5C 163.243,89.8182 163.909,89.1515 164.5,88.5 Z"/></g>
<g><path style="opacity:1" fill="#db7913" d="M 168.5,85.5 C 167.503,85.4701 166.836,85.9701 166.5,87C 166.748,88.7491 167.748,89.5824 169.5,89.5C 170.551,90.2223 171.218,91.2223 171.5,92.5C 170.604,91.4937 169.938,91.4937 169.5,92.5C 168.5,92.5 167.5,92.5 166.5,92.5C 166.771,90.6203 166.104,89.287 164.5,88.5C 163.833,88.5 163.5,88.1667 163.5,87.5C 163.414,86.5041 163.748,85.6708 164.5,85C 166.066,84.235 167.399,84.4017 168.5,85.5 Z"/></g>
<g><path style="opacity:1" fill="#fef83d" d="M 183.5,81.5 C 184.167,81.5 184.833,81.5 185.5,81.5C 186.613,82.6935 187.613,84.0268 188.5,85.5C 188.137,86.1835 187.804,86.8501 187.5,87.5C 186.549,88.9187 186.216,90.5853 186.5,92.5C 185.21,93.0577 184.377,94.0577 184,95.5C 181.882,95.7357 179.716,95.7357 177.5,95.5C 176.1,93.9837 174.767,92.3171 173.5,90.5C 172.311,89.5713 170.978,89.238 169.5,89.5C 167.748,89.5824 166.748,88.7491 166.5,87C 166.836,85.9701 167.503,85.4701 168.5,85.5C 168.5,86.1667 168.833,86.5 169.5,86.5C 173.16,86.8412 176.493,86.1745 179.5,84.5C 181.076,83.8571 182.41,82.8571 183.5,81.5 Z"/></g>
<g><path style="opacity:1" fill="#ab7a1f" d="M 241.5,82.5 C 242.675,82.281 243.675,82.6143 244.5,83.5C 246.335,84.4277 246.668,85.5944 245.5,87C 248.341,88.8341 251.175,90.6675 254,92.5C 254.494,94.1341 254.66,95.8008 254.5,97.5C 252.938,97.7329 251.605,98.3995 250.5,99.5C 248.309,96.1338 246.809,92.4671 246,88.5C 244.887,89.305 243.721,89.9717 242.5,90.5C 241.781,88.2362 241.448,85.9029 241.5,83.5C 241.5,83.1667 241.5,82.8333 241.5,82.5 Z"/></g>
<g><path style="opacity:1" fill="#e5b91f" d="M 187.5,87.5 C 187.343,88.8734 187.51,90.2068 188,91.5C 188.759,89.9371 189.926,88.9371 191.5,88.5C 193.167,88.5 194.833,88.5 196.5,88.5C 194.469,88.9724 192.802,89.9724 191.5,91.5C 190.5,91.8333 189.833,92.5 189.5,93.5C 188.391,93.4431 187.391,93.1098 186.5,92.5C 186.216,90.5853 186.549,88.9187 187.5,87.5 Z"/></g>
<g><path style="opacity:0.006" fill="#000000" d="M 111.5,92.5 C 112.525,92.8966 112.692,93.5632 112,94.5C 111.536,93.9056 111.369,93.2389 111.5,92.5 Z"/></g>
<g><path style="opacity:1" fill="#fdf048" d="M 142.5,86.5 C 143.665,87.4961 144.332,88.8295 144.5,90.5C 143.827,92.851 143.16,95.1843 142.5,97.5C 141.849,98.0906 141.182,98.7573 140.5,99.5C 133.949,97.6399 132.782,93.9733 137,88.5C 138.584,87.1387 140.418,86.472 142.5,86.5 Z"/></g>
<g><path style="opacity:1" fill="#4e2506" d="M 191.5,91.5 C 192.492,91.3284 193.158,91.6618 193.5,92.5C 193.5,93.5 193.5,94.5 193.5,95.5C 191.517,95.8432 190.183,95.1765 189.5,93.5C 189.833,92.5 190.5,91.8333 191.5,91.5 Z"/></g>
<g><path style="opacity:1" fill="#a2570d" d="M 199.5,92.5 C 197.204,92.8041 196.871,93.8041 198.5,95.5C 197.833,95.5 197.5,95.8333 197.5,96.5C 193.933,97.0888 190.267,97.0888 186.5,96.5C 186.5,95.1667 186.5,93.8333 186.5,92.5C 187.391,93.1098 188.391,93.4431 189.5,93.5C 190.183,95.1765 191.517,95.8432 193.5,95.5C 193.5,94.5 193.5,93.5 193.5,92.5C 194.268,93.2625 194.768,94.2625 195,95.5C 195.49,94.2068 195.657,92.8734 195.5,91.5C 197.099,91.2322 198.432,91.5655 199.5,92.5 Z"/></g>
<g><path style="opacity:1" fill="#f2c941" d="M 250.5,99.5 C 248.97,98.7888 247.637,97.7888 246.5,96.5C 246.262,94.5956 245.262,93.2623 243.5,92.5C 243.082,91.7784 242.416,91.2784 241.5,91C 241.728,90.6012 242.062,90.4346 242.5,90.5C 243.721,89.9717 244.887,89.305 246,88.5C 246.809,92.4671 248.309,96.1338 250.5,99.5 Z"/></g>
<g><path style="opacity:1" fill="#341209" d="M 149.5,88.5 C 151.019,91.0205 152.686,93.5205 154.5,96C 154.167,96.3333 153.833,96.6667 153.5,97C 156.036,97.1862 158.369,97.6862 160.5,98.5C 157.615,98.1936 154.948,98.5269 152.5,99.5C 150.413,100.585 149.08,102.251 148.5,104.5C 147.512,105.795 146.512,107.128 145.5,108.5C 144.768,105.164 144.101,101.498 143.5,97.5C 143.989,96.0048 144.655,94.6715 145.5,93.5C 146.766,92.9101 148.099,92.4101 149.5,92C 148.316,90.8545 148.316,89.6879 149.5,88.5 Z"/></g>
<g><path style="opacity:1" fill="#3d140c" d="M 239.5,91.5 C 239.866,93.905 240.533,96.2383 241.5,98.5C 241.457,99.4164 241.124,100.083 240.5,100.5C 237.08,98.7779 233.414,98.1113 229.5,98.5C 231.698,97.8347 234.031,97.1681 236.5,96.5C 237.275,94.6036 238.275,92.937 239.5,91.5 Z"/></g>
<g><path style="opacity:1" fill="#542307" d="M 241.5,83.5 C 241.448,85.9029 241.781,88.2362 242.5,90.5C 242.062,90.4346 241.728,90.6012 241.5,91C 242.416,91.2784 243.082,91.7784 243.5,92.5C 244.365,95.1 245.032,97.7666 245.5,100.5C 245.38,102.588 244.38,103.922 242.5,104.5C 242.5,103.833 242.167,103.5 241.5,103.5C 241.443,102.391 241.11,101.391 240.5,100.5C 241.124,100.083 241.457,99.4164 241.5,98.5C 240.533,96.2383 239.866,93.905 239.5,91.5C 240.078,88.7196 240.745,86.0529 241.5,83.5 Z"/></g>
<g><path style="opacity:1" fill="#f8d02d" d="M 186.5,92.5 C 186.5,93.8333 186.5,95.1667 186.5,96.5C 190.267,97.0888 193.933,97.0888 197.5,96.5C 201.833,98.6143 203.833,97.281 203.5,92.5C 204.404,93.209 204.737,94.209 204.5,95.5C 207.266,96.2318 209.932,96.2318 212.5,95.5C 212.185,99.8004 209.851,101.467 205.5,100.5C 205.5,101.833 205.5,103.167 205.5,104.5C 202.06,103.211 198.56,102.211 195,101.5C 192.225,101.409 189.725,102.076 187.5,103.5C 187,100.515 185.167,99.1822 182,99.5C 180.342,99.6752 179.009,100.342 178,101.5C 177.505,99.5273 177.338,97.5273 177.5,95.5C 179.716,95.7357 181.882,95.7357 184,95.5C 184.377,94.0577 185.21,93.0577 186.5,92.5 Z"/></g>
<g><path style="opacity:1" fill="#3f2408" d="M 199.5,92.5 C 200.885,93.9473 200.552,94.9473 198.5,95.5C 196.871,93.8041 197.204,92.8041 199.5,92.5 Z"/></g>
<g><path style="opacity:1" fill="#f8f5f0" d="M 227.5,99.5 C 229.886,99.2587 231.886,99.9254 233.5,101.5C 233.5,102.5 233.5,103.5 233.5,104.5C 230.264,104.482 227.597,103.482 225.5,101.5C 225.833,100.5 226.5,99.8333 227.5,99.5 Z"/></g>
<g><path style="opacity:1" fill="#ba8323" d="M 246.5,96.5 C 247.637,97.7888 248.97,98.7888 250.5,99.5C 251.635,101.213 253.302,101.88 255.5,101.5C 255.649,102.552 255.483,103.552 255,104.5C 252.57,105.992 250.737,107.992 249.5,110.5C 247.546,106.02 246.546,101.353 246.5,96.5 Z"/></g>
<g><path style="opacity:1" fill="#f4ece1" d="M 152.5,99.5 C 153.705,100.672 153.705,102.005 152.5,103.5C 151.5,104.5 150.5,105.5 149.5,106.5C 148.702,106.043 148.369,105.376 148.5,104.5C 149.08,102.251 150.413,100.585 152.5,99.5 Z"/></g>
<g><path style="opacity:1" fill="#743805" d="M 223.5,92.5 C 222.602,93.1577 221.602,93.8243 220.5,94.5C 220.624,95.1067 220.957,95.44 221.5,95.5C 220.648,99.3591 218.314,102.026 214.5,103.5C 214.201,101.396 214.534,99.396 215.5,97.5C 216.167,98.1667 216.833,98.8333 217.5,99.5C 218.635,97.2933 219.301,94.9599 219.5,92.5C 220.833,92.5 222.167,92.5 223.5,92.5 Z"/></g>
<g><path style="opacity:1" fill="#8a390d" d="M 130.5,91.5 C 130.45,94.1977 131.45,96.3644 133.5,98C 132.5,98.8333 131.5,99.6667 130.5,100.5C 131.193,101.518 131.859,102.518 132.5,103.5C 131.833,103.5 131.167,103.5 130.5,103.5C 128.876,103.36 127.71,104.027 127,105.5C 126.517,104.552 126.351,103.552 126.5,102.5C 126.667,98.3266 128,94.6599 130.5,91.5 Z"/></g>
<g><path style="opacity:1" fill="#ffd239" d="M 140.5,102.5 C 140.591,104.698 139.925,105.031 138.5,103.5C 137.081,102.549 135.415,102.216 133.5,102.5C 133.5,101.5 133.5,100.5 133.5,99.5C 136.453,99.1496 138.787,100.15 140.5,102.5 Z"/></g>
<g><path style="opacity:1" fill="#dc9d16" d="M 169.5,89.5 C 170.978,89.238 172.311,89.5713 173.5,90.5C 174.767,92.3171 176.1,93.9837 177.5,95.5C 177.338,97.5273 177.505,99.5273 178,101.5C 179.009,100.342 180.342,99.6752 182,99.5C 185.167,99.1822 187,100.515 187.5,103.5C 187.5,103.833 187.5,104.167 187.5,104.5C 185.938,104.733 184.605,105.4 183.5,106.5C 182.566,105.432 182.232,104.099 182.5,102.5C 180.5,102.5 178.5,102.5 176.5,102.5C 176.808,100.076 176.474,97.7427 175.5,95.5C 174.571,96.6888 174.238,98.0222 174.5,99.5C 173.5,99.5 172.5,99.5 171.5,99.5C 171.5,98.5 171.5,97.5 171.5,96.5C 171.5,95.1667 171.5,93.8333 171.5,92.5C 171.218,91.2223 170.551,90.2223 169.5,89.5 Z"/></g>
<g><path style="opacity:1" fill="#cc8e13" d="M 220.5,89.5 C 219.171,91.8023 217.838,94.1356 216.5,96.5C 215.522,96.0233 214.689,95.3567 214,94.5C 213.818,97.2263 213.318,99.8929 212.5,102.5C 211.784,103.311 210.95,103.978 210,104.5C 208.388,104.277 206.888,104.277 205.5,104.5C 205.5,103.167 205.5,101.833 205.5,100.5C 209.851,101.467 212.185,99.8004 212.5,95.5C 212.821,93.9519 213.821,93.2852 215.5,93.5C 215.384,90.0897 217.05,88.7564 220.5,89.5 Z"/></g>
<g><path style="opacity:1" fill="#a19492" d="M 227.5,99.5 C 227.842,98.6618 228.508,98.3284 229.5,98.5C 233.414,98.1113 237.08,98.7779 240.5,100.5C 241.11,101.391 241.443,102.391 241.5,103.5C 241.306,107.005 240.306,107.338 238.5,104.5C 237.766,103.292 237.433,101.959 237.5,100.5C 235.901,100.232 234.568,100.566 233.5,101.5C 231.886,99.9254 229.886,99.2587 227.5,99.5 Z"/></g>
<g><path style="opacity:1" fill="#de721b" d="M 142.5,86.5 C 140.418,86.472 138.584,87.1387 137,88.5C 132.782,93.9733 133.949,97.6399 140.5,99.5C 141.182,98.7573 141.849,98.0906 142.5,97.5C 142.169,99.3224 141.502,100.989 140.5,102.5C 138.787,100.15 136.453,99.1496 133.5,99.5C 133.5,100.5 133.5,101.5 133.5,102.5C 135.415,102.216 137.081,102.549 138.5,103.5C 137.001,104.494 135.334,104.494 133.5,103.5C 133.167,103.5 132.833,103.5 132.5,103.5C 131.859,102.518 131.193,101.518 130.5,100.5C 131.5,99.6667 132.5,98.8333 133.5,98C 131.45,96.3644 130.45,94.1977 130.5,91.5C 131.458,91.0472 132.292,90.3805 133,89.5C 133.333,89.8333 133.667,90.1667 134,90.5C 135.084,89.3349 135.917,88.0016 136.5,86.5C 138.636,85.2072 140.636,85.2072 142.5,86.5 Z"/></g>
<g><path style="opacity:0.004" fill="#000000" d="M 108.5,103.5 C 109.573,104.251 109.74,105.251 109,106.5C 108.517,105.552 108.351,104.552 108.5,103.5 Z"/></g>
<g><path style="opacity:1" fill="#733005" d="M 187.5,104.5 C 191.702,104.183 195.702,104.517 199.5,105.5C 194.031,105.246 188.697,105.913 183.5,107.5C 183.5,107.167 183.5,106.833 183.5,106.5C 184.605,105.4 185.938,104.733 187.5,104.5 Z"/></g>
<g><path style="opacity:1" fill="#372f2b" d="M 233.5,101.5 C 234.568,100.566 235.901,100.232 237.5,100.5C 237.433,101.959 237.766,103.292 238.5,104.5C 238.5,105.833 238.5,107.167 238.5,108.5C 240.167,108.5 241.833,108.5 243.5,108.5C 243.474,112.892 241.141,114.892 236.5,114.5C 236.421,113.07 236.754,111.736 237.5,110.5C 237.043,109.702 236.376,109.369 235.5,109.5C 234.833,109.5 234.5,109.167 234.5,108.5C 235.239,108.631 235.906,108.464 236.5,108C 235.619,107.292 234.953,106.458 234.5,105.5C 237.402,103.395 237.068,102.062 233.5,101.5 Z"/></g>
<g><path style="opacity:1" fill="#b4a392" d="M 224.5,101.5 C 224.833,101.5 225.167,101.5 225.5,101.5C 227.597,103.482 230.264,104.482 233.5,104.5C 233.5,103.5 233.5,102.5 233.5,101.5C 237.068,102.062 237.402,103.395 234.5,105.5C 233.221,106.968 231.554,107.635 229.5,107.5C 229.5,106.5 229.5,105.5 229.5,104.5C 227.738,104.357 226.071,104.691 224.5,105.5C 223.702,105.043 223.369,104.376 223.5,103.5C 223.833,102.833 224.167,102.167 224.5,101.5 Z"/></g>
<g><path style="opacity:1" fill="#a4610c" d="M 183.5,106.5 C 183.5,106.833 183.5,107.167 183.5,107.5C 181.396,107.799 179.396,107.466 177.5,106.5C 175.626,103.191 173.293,100.525 170.5,98.5C 170.328,97.5084 170.662,96.8417 171.5,96.5C 171.5,97.5 171.5,98.5 171.5,99.5C 172.5,99.5 173.5,99.5 174.5,99.5C 174.238,98.0222 174.571,96.6888 175.5,95.5C 176.474,97.7427 176.808,100.076 176.5,102.5C 178.5,102.5 180.5,102.5 182.5,102.5C 182.232,104.099 182.566,105.432 183.5,106.5 Z"/></g>
<g><path style="opacity:1" fill="#8c7b6f" d="M 152.5,99.5 C 154.948,98.5269 157.615,98.1936 160.5,98.5C 162.332,99.2485 163.999,100.248 165.5,101.5C 165.804,102.15 166.137,102.817 166.5,103.5C 164.257,104.474 161.924,104.808 159.5,104.5C 159.804,105.15 160.137,105.817 160.5,106.5C 158.709,107.17 157.042,107.837 155.5,108.5C 155.167,109.167 154.833,109.833 154.5,110.5C 154.44,111.043 154.107,111.376 153.5,111.5C 152.859,110.007 151.859,109.007 150.5,108.5C 149.5,108.5 148.5,108.5 147.5,108.5C 147.5,110.167 147.5,111.833 147.5,113.5C 148.959,113.567 150.292,113.234 151.5,112.5C 152.335,113.943 153.668,114.943 155.5,115.5C 155.291,116.086 154.957,116.586 154.5,117C 151.691,117.312 149.024,116.812 146.5,115.5C 145.662,115.158 145.328,114.492 145.5,113.5C 145.5,111.833 145.5,110.167 145.5,108.5C 146.512,107.128 147.512,105.795 148.5,104.5C 148.369,105.376 148.702,106.043 149.5,106.5C 150.5,105.5 151.5,104.5 152.5,103.5C 153.705,102.005 153.705,100.672 152.5,99.5 Z"/></g>
<g><path style="opacity:1" fill="#e8e2e6" d="M 159.5,104.5 C 153.405,104.658 152.905,102.991 158,99.5C 159.274,100.535 160.44,101.702 161.5,103C 160.584,103.278 159.918,103.778 159.5,104.5 Z"/></g>
<g><path style="opacity:1" fill="#3c160a" d="M 199.5,105.5 C 201.5,106.167 203.5,106.833 205.5,107.5C 198.167,108.833 190.833,108.833 183.5,107.5C 188.697,105.913 194.031,105.246 199.5,105.5 Z"/></g>
<g><path style="opacity:1" fill="#562a08" d="M 142.5,97.5 C 142.833,97.5 143.167,97.5 143.5,97.5C 144.101,101.498 144.768,105.164 145.5,108.5C 145.5,110.167 145.5,111.833 145.5,113.5C 144.833,113.5 144.167,113.5 143.5,113.5C 142.737,112.732 141.737,112.232 140.5,112C 141.818,108.731 141.818,105.565 140.5,102.5C 141.502,100.989 142.169,99.3224 142.5,97.5 Z"/></g>
<g><path style="opacity:1" fill="#100c0a" d="M 150.5,108.5 C 151.234,109.708 151.567,111.041 151.5,112.5C 150.292,113.234 148.959,113.567 147.5,113.5C 147.5,111.833 147.5,110.167 147.5,108.5C 148.5,108.5 149.5,108.5 150.5,108.5 Z"/></g>
<g><path style="opacity:1" fill="#0e0a08" d="M 155.5,108.5 C 157.167,108.5 158.833,108.5 160.5,108.5C 160.5,109.833 160.5,111.167 160.5,112.5C 157.874,114.006 155.874,113.339 154.5,110.5C 154.833,109.833 155.167,109.167 155.5,108.5 Z"/></g>
<g><path style="opacity:1" fill="#432e22" d="M 167.5,100.5 C 169.071,104.916 169.404,109.249 168.5,113.5C 167.5,112.833 166.5,112.167 165.5,111.5C 165.167,111.5 164.833,111.5 164.5,111.5C 164.265,110.903 163.765,110.57 163,110.5C 161.989,111.056 161.156,111.722 160.5,112.5C 160.5,111.167 160.5,109.833 160.5,108.5C 158.833,108.5 157.167,108.5 155.5,108.5C 157.042,107.837 158.709,107.17 160.5,106.5C 160.137,105.817 159.804,105.15 159.5,104.5C 161.924,104.808 164.257,104.474 166.5,103.5C 166.137,102.817 165.804,102.15 165.5,101.5C 166.167,101.167 166.833,100.833 167.5,100.5 Z"/></g>
<g><path style="opacity:1" fill="#201a17" d="M 161.5,36.5 C 160.198,29.9626 158.531,29.9626 156.5,36.5C 155.518,39.9619 155.185,43.6286 155.5,47.5C 155.631,48.2389 155.464,48.9056 155,49.5C 154.667,48.5 154.333,47.5 154,46.5C 147.404,52.5511 140.904,58.7178 134.5,65C 135.416,65.2784 136.082,65.7784 136.5,66.5C 126.133,76.899 119.133,89.2323 115.5,103.5C 113.399,128.605 124.065,146.105 147.5,156C 150.757,157.043 154.09,157.543 157.5,157.5C 157.706,161.898 157.373,166.232 156.5,170.5C 155.521,167.375 155.187,164.042 155.5,160.5C 132.728,156.902 118.228,143.902 112,121.5C 111.085,112.721 111.585,104.054 113.5,95.5C 114.482,89.8695 116.815,84.8695 120.5,80.5C 120.376,79.8933 120.043,79.56 119.5,79.5C 119.795,77.5767 120.628,75.9101 122,74.5C 122.333,75.1667 122.667,75.8333 123,76.5C 125.08,73.9348 126.913,71.2682 128.5,68.5C 129.167,68.5 129.5,68.1667 129.5,67.5C 132.833,64.8333 135.833,61.8333 138.5,58.5C 139.167,58.5 139.5,58.1667 139.5,57.5C 143.589,54.9168 147.256,51.7501 150.5,48C 149.398,45.5991 149.231,43.0991 150,40.5C 150.333,42.1667 150.667,43.8333 151,45.5C 151.233,41.4155 151.733,37.4155 152.5,33.5C 153.404,32.791 153.737,31.791 153.5,30.5C 155.148,28.5707 156.815,26.5707 158.5,24.5C 159.76,26.3529 159.76,28.1862 158.5,30C 159.448,30.4828 160.448,30.6495 161.5,30.5C 161.5,32.5 161.5,34.5 161.5,36.5 Z"/></g>
<g><path style="opacity:1" fill="#a45a0b" d="M 223.5,84.5 C 224.995,84.4148 225.995,85.0815 226.5,86.5C 225.253,88.323 224.586,90.323 224.5,92.5C 224.167,92.5 223.833,92.5 223.5,92.5C 222.167,92.5 220.833,92.5 219.5,92.5C 219.301,94.9599 218.635,97.2933 217.5,99.5C 216.833,98.8333 216.167,98.1667 215.5,97.5C 214.534,99.396 214.201,101.396 214.5,103.5C 213.631,105.717 213.298,108.05 213.5,110.5C 211.236,111.219 208.903,111.552 206.5,111.5C 206.5,110.833 206.5,110.167 206.5,109.5C 207.978,109.762 209.311,109.429 210.5,108.5C 208.955,107.548 207.288,107.215 205.5,107.5C 203.5,106.833 201.5,106.167 199.5,105.5C 195.702,104.517 191.702,104.183 187.5,104.5C 187.5,104.167 187.5,103.833 187.5,103.5C 189.725,102.076 192.225,101.409 195,101.5C 198.56,102.211 202.06,103.211 205.5,104.5C 206.888,104.277 208.388,104.277 210,104.5C 210.95,103.978 211.784,103.311 212.5,102.5C 213.318,99.8929 213.818,97.2263 214,94.5C 214.689,95.3567 215.522,96.0233 216.5,96.5C 217.838,94.1356 219.171,91.8023 220.5,89.5C 223.741,88.9626 224.741,87.2959 223.5,84.5 Z"/></g>
<g><path style="opacity:1" fill="#eea724" d="M 206.5,109.5 C 206.5,110.167 206.5,110.833 206.5,111.5C 200.298,111.273 194.131,111.606 188,112.5C 186.188,112.507 184.688,111.84 183.5,110.5C 191.138,109.503 198.804,109.169 206.5,109.5 Z"/></g>
<g><path style="opacity:1" fill="#7f3807" d="M 170.5,98.5 C 173.293,100.525 175.626,103.191 177.5,106.5C 179.396,107.466 181.396,107.799 183.5,107.5C 190.833,108.833 198.167,108.833 205.5,107.5C 207.288,107.215 208.955,107.548 210.5,108.5C 209.311,109.429 207.978,109.762 206.5,109.5C 198.804,109.169 191.138,109.503 183.5,110.5C 184.688,111.84 186.188,112.507 188,112.5C 194.131,111.606 200.298,111.273 206.5,111.5C 208.903,111.552 211.236,111.219 213.5,110.5C 213.167,111.167 212.833,111.833 212.5,112.5C 207.591,112.801 202.591,112.967 197.5,113C 194.639,112.97 192.305,113.803 190.5,115.5C 188.386,116.784 187.386,118.784 187.5,121.5C 184.932,120.55 182.432,120.55 180,121.5C 179.508,120.451 179.674,119.451 180.5,118.5C 182.149,117.852 183.482,116.852 184.5,115.5C 180.978,112.149 177.144,109.149 173,106.5C 171.074,104.531 169.908,102.198 169.5,99.5C 169.5,98.8333 169.833,98.5 170.5,98.5 Z"/></g>
<g><path style="opacity:1" fill="#602405" d="M 212.5,112.5 C 212.072,115.246 210.406,116.913 207.5,117.5C 206.83,119.291 206.163,120.958 205.5,122.5C 205.269,119.937 203.935,118.27 201.5,117.5C 201.631,116.624 201.298,115.957 200.5,115.5C 197.033,116.788 193.7,116.788 190.5,115.5C 192.305,113.803 194.639,112.97 197.5,113C 202.591,112.967 207.591,112.801 212.5,112.5 Z"/></g>
<g><path style="opacity:1" fill="#705d4f" d="M 223.5,103.5 C 223.369,104.376 223.702,105.043 224.5,105.5C 226.071,104.691 227.738,104.357 229.5,104.5C 229.5,105.5 229.5,106.5 229.5,107.5C 231.554,107.635 233.221,106.968 234.5,105.5C 234.953,106.458 235.619,107.292 236.5,108C 235.906,108.464 235.239,108.631 234.5,108.5C 232.833,108.5 231.167,108.5 229.5,108.5C 229.5,110.167 229.5,111.833 229.5,113.5C 232.856,114.138 234.856,112.804 235.5,109.5C 236.376,109.369 237.043,109.702 237.5,110.5C 236.754,111.736 236.421,113.07 236.5,114.5C 241.141,114.892 243.474,112.892 243.5,108.5C 241.833,108.5 240.167,108.5 238.5,108.5C 238.5,107.167 238.5,105.833 238.5,104.5C 240.306,107.338 241.306,107.005 241.5,103.5C 242.167,103.5 242.5,103.833 242.5,104.5C 244.252,108.227 244.919,112.227 244.5,116.5C 244.167,116.5 243.833,116.5 243.5,116.5C 243.265,115.903 242.765,115.57 242,115.5C 240.48,116.507 238.813,117.173 237,117.5C 234.23,116.455 231.397,115.788 228.5,115.5C 227.833,115.167 227.167,114.833 226.5,114.5C 227.887,111.688 226.887,110.855 223.5,112C 222.944,112.383 222.611,112.883 222.5,113.5C 222.167,113.5 221.833,113.5 221.5,113.5C 221.336,110.813 221.503,108.146 222,105.5C 222.278,104.584 222.778,103.918 223.5,103.5 Z"/></g>
<g><path style="opacity:1" fill="#0e0907" d="M 234.5,108.5 C 234.5,109.167 234.833,109.5 235.5,109.5C 234.856,112.804 232.856,114.138 229.5,113.5C 229.5,111.833 229.5,110.167 229.5,108.5C 231.167,108.5 232.833,108.5 234.5,108.5 Z"/></g>
<g><path style="opacity:0.004" fill="#000000" d="M 108.5,116.5 C 107.833,115.167 107.833,115.167 108.5,116.5 Z"/></g>
<g><path style="opacity:1" fill="#aa7314" d="M 140.5,102.5 C 141.818,105.565 141.818,108.731 140.5,112C 141.737,112.232 142.737,112.732 143.5,113.5C 144.067,115.03 144.733,116.53 145.5,118C 143.833,119.167 142.167,120.333 140.5,121.5C 139.5,119.167 137.833,117.5 135.5,116.5C 134.778,112.123 134.111,107.79 133.5,103.5C 135.334,104.494 137.001,104.494 138.5,103.5C 139.925,105.031 140.591,104.698 140.5,102.5 Z"/></g>
<g><path style="opacity:1" fill="#441803" d="M 221.5,95.5 C 222.203,97.6287 223.203,99.6287 224.5,101.5C 224.167,102.167 223.833,102.833 223.5,103.5C 222.778,103.918 222.278,104.584 222,105.5C 221.503,108.146 221.336,110.813 221.5,113.5C 220.075,114.922 219.075,116.589 218.5,118.5C 217.833,118.5 217.5,118.833 217.5,119.5C 216.527,121.948 216.194,124.615 216.5,127.5C 216.5,127.833 216.5,128.167 216.5,128.5C 215.686,126.369 215.186,124.036 215,121.5C 212.042,122.764 209.209,124.098 206.5,125.5C 205.391,125.557 204.391,125.89 203.5,126.5C 201.833,126.5 200.167,126.5 198.5,126.5C 197.5,126.167 196.833,125.5 196.5,124.5C 199.635,125.137 202.635,124.471 205.5,122.5C 206.163,120.958 206.83,119.291 207.5,117.5C 210.406,116.913 212.072,115.246 212.5,112.5C 212.833,111.833 213.167,111.167 213.5,110.5C 213.298,108.05 213.631,105.717 214.5,103.5C 218.314,102.026 220.648,99.3591 221.5,95.5 Z"/></g>
<g><path style="opacity:1" fill="#f4e24b" d="M 226.5,114.5 C 225.094,114.973 224.427,115.973 224.5,117.5C 224.028,119.531 223.028,121.198 221.5,122.5C 222.255,119.398 222.589,116.398 222.5,113.5C 222.611,112.883 222.944,112.383 223.5,112C 226.887,110.855 227.887,111.688 226.5,114.5 Z"/></g>
<g><path style="opacity:1" fill="#8b5710" d="M 243.5,92.5 C 245.262,93.2623 246.262,94.5956 246.5,96.5C 246.546,101.353 247.546,106.02 249.5,110.5C 250.737,107.992 252.57,105.992 255,104.5C 255.483,103.552 255.649,102.552 255.5,101.5C 253.302,101.88 251.635,101.213 250.5,99.5C 251.605,98.3995 252.938,97.7329 254.5,97.5C 254.389,98.1174 254.056,98.6174 253.5,99C 255.779,99.406 257.113,100.739 257.5,103C 256.896,105.524 256.229,108.024 255.5,110.5C 256.609,112.214 255.942,112.881 253.5,112.5C 252.514,115.493 251.514,118.493 250.5,121.5C 248.801,121.527 247.467,122.194 246.5,123.5C 246.5,122.5 246.5,121.5 246.5,120.5C 247.675,120.719 248.675,120.386 249.5,119.5C 247.309,117.792 246.976,115.792 248.5,113.5C 247.675,112.614 246.675,112.281 245.5,112.5C 245.768,114.099 245.434,115.432 244.5,116.5C 244.919,112.227 244.252,108.227 242.5,104.5C 244.38,103.922 245.38,102.588 245.5,100.5C 245.032,97.7666 244.365,95.1 243.5,92.5 Z"/></g>
<g><path style="opacity:1" fill="#b46e14" d="M 190.5,115.5 C 193.7,116.788 197.033,116.788 200.5,115.5C 201.298,115.957 201.631,116.624 201.5,117.5C 199.717,118.114 198.384,119.28 197.5,121C 194.639,120.97 192.305,121.803 190.5,123.5C 188.973,123.573 187.973,122.906 187.5,121.5C 187.386,118.784 188.386,116.784 190.5,115.5 Z"/></g>
<g><path style="opacity:1" fill="#0f0704" d="M 226.5,114.5 C 227.167,114.833 227.833,115.167 228.5,115.5C 229.209,116.404 230.209,116.737 231.5,116.5C 231.5,117.833 231.5,119.167 231.5,120.5C 228.034,120.032 226.368,118.032 226.5,114.5 Z"/></g>
<g><path style="opacity:1" fill="#493525" d="M 228.5,115.5 C 231.397,115.788 234.23,116.455 237,117.5C 238.813,117.173 240.48,116.507 242,115.5C 242.765,115.57 243.265,115.903 243.5,116.5C 242.194,117.467 241.527,118.801 241.5,120.5C 238.167,120.5 234.833,120.5 231.5,120.5C 231.5,119.167 231.5,117.833 231.5,116.5C 230.209,116.737 229.209,116.404 228.5,115.5 Z"/></g>
<g><path style="opacity:1" fill="#5f4734" d="M 150.5,108.5 C 151.859,109.007 152.859,110.007 153.5,111.5C 154.107,111.376 154.44,111.043 154.5,110.5C 155.874,113.339 157.874,114.006 160.5,112.5C 161.156,111.722 161.989,111.056 163,110.5C 163.765,110.57 164.265,110.903 164.5,111.5C 163.761,111.369 163.094,111.536 162.5,112C 163.252,112.671 163.586,113.504 163.5,114.5C 161.621,115.341 159.621,115.675 157.5,115.5C 157.5,117.167 157.5,118.833 157.5,120.5C 158.5,120.5 159.5,120.5 160.5,120.5C 156.601,121.791 152.601,121.791 148.5,120.5C 147.559,118.95 146.893,117.284 146.5,115.5C 149.024,116.812 151.691,117.312 154.5,117C 154.957,116.586 155.291,116.086 155.5,115.5C 153.668,114.943 152.335,113.943 151.5,112.5C 151.567,111.041 151.234,109.708 150.5,108.5 Z"/></g>
<g><path style="opacity:1" fill="#602405" d="M 169.5,99.5 C 169.908,102.198 171.074,104.531 173,106.5C 177.144,109.149 180.978,112.149 184.5,115.5C 183.482,116.852 182.149,117.852 180.5,118.5C 179.674,119.451 179.508,120.451 180,121.5C 182.432,120.55 184.932,120.55 187.5,121.5C 187.973,122.906 188.973,123.573 190.5,123.5C 191.5,123.5 192.5,123.5 193.5,123.5C 193.34,125.153 192.674,126.486 191.5,127.5C 189.446,127.635 187.779,126.968 186.5,125.5C 185.833,125.5 185.167,125.5 184.5,125.5C 181.166,123.337 177.5,122.004 173.5,121.5C 173.737,120.209 173.404,119.209 172.5,118.5C 171.167,116.833 169.833,115.167 168.5,113.5C 169.404,109.249 169.071,104.916 167.5,100.5C 168.167,100.167 168.833,99.8333 169.5,99.5 Z"/></g>
<g><path style="opacity:1" fill="#edb52b" d="M 221.5,113.5 C 221.833,113.5 222.167,113.5 222.5,113.5C 222.589,116.398 222.255,119.398 221.5,122.5C 219.468,121.952 218.468,120.619 218.5,118.5C 219.075,116.589 220.075,114.922 221.5,113.5 Z"/></g>
<g><path style="opacity:1" fill="#7c4511" d="M 201.5,117.5 C 203.935,118.27 205.269,119.937 205.5,122.5C 202.635,124.471 199.635,125.137 196.5,124.5C 195.609,123.89 194.609,123.557 193.5,123.5C 192.5,123.5 191.5,123.5 190.5,123.5C 192.305,121.803 194.639,120.97 197.5,121C 198.384,119.28 199.717,118.114 201.5,117.5 Z"/></g>
<g><path style="opacity:1" fill="#c58621" d="M 224.5,117.5 C 224.703,119.638 225.703,121.305 227.5,122.5C 226.051,123.172 224.718,123.839 223.5,124.5C 218.944,126.202 216.944,124.535 217.5,119.5C 217.5,118.833 217.833,118.5 218.5,118.5C 218.468,120.619 219.468,121.952 221.5,122.5C 223.028,121.198 224.028,119.531 224.5,117.5 Z"/></g>
<g><path style="opacity:1" fill="#dba725" d="M 241.5,121.5 C 246.341,122.116 246.008,123.116 240.5,124.5C 240.44,123.957 240.107,123.624 239.5,123.5C 236.048,125.652 232.381,125.986 228.5,124.5C 228.624,123.893 228.957,123.56 229.5,123.5C 233.029,121.577 237.029,120.911 241.5,121.5 Z"/></g>
<g><path style="opacity:1" fill="#fef239" d="M 229.5,123.5 C 232.135,122.271 234.801,122.271 237.5,123.5C 234.691,124.8 232.024,124.8 229.5,123.5 Z"/></g>
<g><path style="opacity:1" fill="#794f0d" d="M 130.5,103.5 C 131.167,103.5 131.833,103.5 132.5,103.5C 132.833,103.5 133.167,103.5 133.5,103.5C 134.111,107.79 134.778,112.123 135.5,116.5C 137.833,117.5 139.5,119.167 140.5,121.5C 142.167,120.333 143.833,119.167 145.5,118C 144.733,116.53 144.067,115.03 143.5,113.5C 144.167,113.5 144.833,113.5 145.5,113.5C 145.328,114.492 145.662,115.158 146.5,115.5C 146.893,117.284 147.559,118.95 148.5,120.5C 146.801,120.34 145.134,120.506 143.5,121C 142.549,121.718 142.383,122.551 143,123.5C 145.333,124.833 147.667,124.833 150,123.5C 150.278,124.416 150.778,125.082 151.5,125.5C 152.167,125.5 152.833,125.5 153.5,125.5C 156.533,125.868 159.2,125.202 161.5,123.5C 163.5,123.167 165.5,122.833 167.5,122.5C 167.584,118.669 166.917,115.002 165.5,111.5C 166.5,112.167 167.5,112.833 168.5,113.5C 169.833,115.167 171.167,116.833 172.5,118.5C 173.019,122.756 171.853,126.423 169,129.5C 168.804,127.096 167.638,125.429 165.5,124.5C 157.947,126.748 150.28,127.081 142.5,125.5C 133.809,120.788 129.809,113.454 130.5,103.5 Z"/></g>
<g><path style="opacity:1" fill="#d7af37" d="M 164.5,111.5 C 164.833,111.5 165.167,111.5 165.5,111.5C 166.917,115.002 167.584,118.669 167.5,122.5C 165.5,122.833 163.5,123.167 161.5,123.5C 163.167,122.146 164.5,120.48 165.5,118.5C 165.332,116.829 164.665,115.496 163.5,114.5C 163.586,113.504 163.252,112.671 162.5,112C 163.094,111.536 163.761,111.369 164.5,111.5 Z"/></g>
<g><path style="opacity:1" fill="#19100a" d="M 163.5,114.5 C 163.975,117.313 162.975,119.313 160.5,120.5C 159.5,120.5 158.5,120.5 157.5,120.5C 157.5,118.833 157.5,117.167 157.5,115.5C 159.621,115.675 161.621,115.341 163.5,114.5 Z"/></g>
<g><path style="opacity:1" fill="#b67c18" d="M 246.5,123.5 C 245.486,124.674 244.153,125.34 242.5,125.5C 241.508,125.672 240.842,125.338 240.5,124.5C 246.008,123.116 246.341,122.116 241.5,121.5C 241.5,121.167 241.5,120.833 241.5,120.5C 241.527,118.801 242.194,117.467 243.5,116.5C 243.833,116.5 244.167,116.5 244.5,116.5C 245.434,115.432 245.768,114.099 245.5,112.5C 246.675,112.281 247.675,112.614 248.5,113.5C 246.976,115.792 247.309,117.792 249.5,119.5C 248.675,120.386 247.675,120.719 246.5,120.5C 246.5,121.5 246.5,122.5 246.5,123.5 Z"/></g>
<g><path style="opacity:1" fill="#b77d1b" d="M 163.5,114.5 C 164.665,115.496 165.332,116.829 165.5,118.5C 164.5,120.48 163.167,122.146 161.5,123.5C 159.2,125.202 156.533,125.868 153.5,125.5C 154.263,124.732 155.263,124.232 156.5,124C 153.963,121.791 152.297,122.291 151.5,125.5C 150.778,125.082 150.278,124.416 150,123.5C 147.667,124.833 145.333,124.833 143,123.5C 142.383,122.551 142.549,121.718 143.5,121C 145.134,120.506 146.801,120.34 148.5,120.5C 152.601,121.791 156.601,121.791 160.5,120.5C 162.975,119.313 163.975,117.313 163.5,114.5 Z"/></g>
<g><path style="opacity:1" fill="#87560f" d="M 217.5,119.5 C 216.944,124.535 218.944,126.202 223.5,124.5C 223.244,127.24 222.244,129.574 220.5,131.5C 219.333,129.921 218,128.588 216.5,127.5C 216.194,124.615 216.527,121.948 217.5,119.5 Z"/></g>
<g><path style="opacity:1" fill="#140b0a" d="M 186.5,125.5 C 187.779,126.968 189.446,127.635 191.5,127.5C 190.136,129.191 188.803,130.858 187.5,132.5C 186.532,130.393 186.198,128.059 186.5,125.5 Z"/></g>
<g><path style="opacity:1" fill="#170e0d" d="M 198.5,126.5 C 200.167,126.5 201.833,126.5 203.5,126.5C 203.104,129.044 203.771,131.211 205.5,133C 204.906,133.464 204.239,133.631 203.5,133.5C 201.42,131.427 199.754,129.093 198.5,126.5 Z"/></g>
<g><path style="opacity:1" fill="#5a3307" d="M 226.5,114.5 C 226.368,118.032 228.034,120.032 231.5,120.5C 234.833,120.5 238.167,120.5 241.5,120.5C 241.5,120.833 241.5,121.167 241.5,121.5C 237.029,120.911 233.029,121.577 229.5,123.5C 228.957,123.56 228.624,123.893 228.5,124.5C 232.381,125.986 236.048,125.652 239.5,123.5C 240.107,123.624 240.44,123.957 240.5,124.5C 240.842,125.338 241.508,125.672 242.5,125.5C 242.144,127.19 241.144,128.19 239.5,128.5C 236.833,128.5 234.167,128.5 231.5,128.5C 231.5,129.833 231.5,131.167 231.5,132.5C 228.579,132.854 226.246,131.854 224.5,129.5C 223.294,131.484 223.294,133.484 224.5,135.5C 222.997,136.052 221.331,136.052 219.5,135.5C 218.264,133.351 217.264,131.018 216.5,128.5C 216.5,128.167 216.5,127.833 216.5,127.5C 218,128.588 219.333,129.921 220.5,131.5C 222.244,129.574 223.244,127.24 223.5,124.5C 224.718,123.839 226.051,123.172 227.5,122.5C 225.703,121.305 224.703,119.638 224.5,117.5C 224.427,115.973 225.094,114.973 226.5,114.5 Z"/></g>
<g><path style="opacity:1" fill="#4c2304" d="M 243.5,79.5 C 246.187,79.3359 248.854,79.5026 251.5,80C 258.01,86.1873 262.01,93.6873 263.5,102.5C 263.808,104.924 263.474,107.257 262.5,109.5C 258.847,114.765 255.514,119.599 252.5,124C 253.271,126.267 254.604,128.1 256.5,129.5C 255.311,130.429 253.978,130.762 252.5,130.5C 252.769,128.571 252.269,126.905 251,125.5C 250.069,127.407 248.569,129.241 246.5,131C 244.89,132.495 243.224,132.661 241.5,131.5C 240.904,132.716 240.737,134.049 241,135.5C 239.648,133.406 239.148,131.073 239.5,128.5C 241.144,128.19 242.144,127.19 242.5,125.5C 244.153,125.34 245.486,124.674 246.5,123.5C 247.467,122.194 248.801,121.527 250.5,121.5C 251.514,118.493 252.514,115.493 253.5,112.5C 255.942,112.881 256.609,112.214 255.5,110.5C 256.229,108.024 256.896,105.524 257.5,103C 257.113,100.739 255.779,99.406 253.5,99C 254.056,98.6174 254.389,98.1174 254.5,97.5C 256.054,91.4758 253.721,87.3091 247.5,85C 248.833,84 248.833,83 247.5,82C 245.563,81.8784 244.23,81.045 243.5,79.5 Z"/></g>
<g><path style="opacity:1" fill="#4f2604" d="M 126.5,102.5 C 126.351,103.552 126.517,104.552 127,105.5C 127.71,104.027 128.876,103.36 130.5,103.5C 129.809,113.454 133.809,120.788 142.5,125.5C 150.28,127.081 157.947,126.748 165.5,124.5C 167.638,125.429 168.804,127.096 169,129.5C 171.853,126.423 173.019,122.756 172.5,118.5C 173.404,119.209 173.737,120.209 173.5,121.5C 173.658,124.902 173.324,128.236 172.5,131.5C 171.244,131.904 170.077,132.571 169,133.5C 167.547,130.973 165.38,129.306 162.5,128.5C 160.013,131.464 157.013,132.131 153.5,130.5C 152.269,131.651 152.269,132.817 153.5,134C 151.782,134.346 150.115,134.846 148.5,135.5C 143.939,134.548 139.606,133.048 135.5,131C 134.426,128.544 133.426,126.044 132.5,123.5C 130.872,122.465 129.205,122.465 127.5,123.5C 125.371,116.464 125.038,109.464 126.5,102.5 Z"/></g>
<g><path style="opacity:1" fill="#544744" d="M 184.5,125.5 C 185.167,125.5 185.833,125.5 186.5,125.5C 186.198,128.059 186.532,130.393 187.5,132.5C 187.167,133.5 186.5,134.167 185.5,134.5C 183.062,136.267 180.395,137.601 177.5,138.5C 178.713,135.775 180.546,133.441 183,131.5C 184.128,129.655 184.628,127.655 184.5,125.5 Z"/></g>
<g><path style="opacity:1" fill="#cfc2c9" d="M 193.5,123.5 C 194.609,123.557 195.609,123.89 196.5,124.5C 196.833,125.5 197.5,126.167 198.5,126.5C 199.754,129.093 201.42,131.427 203.5,133.5C 206.079,136.135 209.079,138.301 212.5,140C 208.84,139.849 205.506,138.515 202.5,136C 199.808,133.443 197.475,130.609 195.5,127.5C 192.775,131.228 189.441,134.228 185.5,136.5C 185.5,135.833 185.5,135.167 185.5,134.5C 186.5,134.167 187.167,133.5 187.5,132.5C 188.803,130.858 190.136,129.191 191.5,127.5C 192.674,126.486 193.34,125.153 193.5,123.5 Z"/></g>
<g><path style="opacity:1" fill="#3b1602" d="M 263.5,102.5 C 264.49,108.31 264.823,114.31 264.5,120.5C 263.015,124.141 261.515,127.808 260,131.5C 257.271,134.399 254.438,137.066 251.5,139.5C 248.279,140.111 245.279,141.278 242.5,143C 233.051,145.542 225.384,143.042 219.5,135.5C 221.331,136.052 222.997,136.052 224.5,135.5C 223.294,133.484 223.294,131.484 224.5,129.5C 226.246,131.854 228.579,132.854 231.5,132.5C 231.5,131.167 231.5,129.833 231.5,128.5C 234.167,128.5 236.833,128.5 239.5,128.5C 239.148,131.073 239.648,133.406 241,135.5C 240.737,134.049 240.904,132.716 241.5,131.5C 243.224,132.661 244.89,132.495 246.5,131C 248.569,129.241 250.069,127.407 251,125.5C 252.269,126.905 252.769,128.571 252.5,130.5C 253.978,130.762 255.311,130.429 256.5,129.5C 254.604,128.1 253.271,126.267 252.5,124C 255.514,119.599 258.847,114.765 262.5,109.5C 263.474,107.257 263.808,104.924 263.5,102.5 Z"/></g>
<g><path style="opacity:1" fill="#473d38" d="M 206.5,125.5 C 206.338,127.527 206.505,129.527 207,131.5C 210.728,134.14 213.895,137.306 216.5,141C 218.895,141.681 221.228,142.515 223.5,143.5C 220.259,144.13 217.925,145.13 216.5,146.5C 210.201,145.184 204.534,142.517 199.5,138.5C 198.06,139.952 196.394,140.952 194.5,141.5C 193.185,140.524 191.852,139.524 190.5,138.5C 182.35,144.274 173.35,147.107 163.5,147C 163.833,146.667 164.167,146.333 164.5,146C 163.643,145.311 162.977,144.478 162.5,143.5C 165.012,142.205 167.679,141.539 170.5,141.5C 170.082,142.222 169.416,142.722 168.5,143C 175.108,143.106 180.775,140.939 185.5,136.5C 189.441,134.228 192.775,131.228 195.5,127.5C 197.475,130.609 199.808,133.443 202.5,136C 205.506,138.515 208.84,139.849 212.5,140C 209.079,138.301 206.079,136.135 203.5,133.5C 204.239,133.631 204.906,133.464 205.5,133C 203.771,131.211 203.104,129.044 203.5,126.5C 204.391,125.89 205.391,125.557 206.5,125.5 Z"/></g>
<g><path style="opacity:1" fill="#0f0a08" d="M 129.5,129.5 C 134.612,137.815 142.112,142.482 152,143.5C 159.569,143.537 165.902,140.871 171,135.5C 171.41,134.099 171.91,132.766 172.5,131.5C 173.324,128.236 173.658,124.902 173.5,121.5C 177.5,122.004 181.166,123.337 184.5,125.5C 184.628,127.655 184.128,129.655 183,131.5C 180.546,133.441 178.713,135.775 177.5,138.5C 175.304,139.763 172.97,140.763 170.5,141.5C 167.679,141.539 165.012,142.205 162.5,143.5C 162.977,144.478 163.643,145.311 164.5,146C 164.167,146.333 163.833,146.667 163.5,147C 173.35,147.107 182.35,144.274 190.5,138.5C 191.852,139.524 193.185,140.524 194.5,141.5C 195.767,143.893 197.434,146.559 199.5,149.5C 198.691,151.071 198.357,152.738 198.5,154.5C 196.757,152.564 194.757,152.23 192.5,153.5C 191.487,156.954 190.487,160.287 189.5,163.5C 189.599,160.327 188.932,157.327 187.5,154.5C 188.331,152.527 188.498,150.527 188,148.5C 187.768,149.737 187.268,150.737 186.5,151.5C 186.631,150.624 186.298,149.957 185.5,149.5C 156.552,162.796 134.719,155.462 120,127.5C 117.822,120.339 116.988,113.005 117.5,105.5C 117.5,105.167 117.5,104.833 117.5,104.5C 118.268,103.737 118.768,102.737 119,101.5C 118.919,109.594 119.753,117.761 121.5,126C 123.044,127.586 124.211,129.42 125,131.5C 126.333,130.833 127.333,129.833 128,128.5C 128.383,129.056 128.883,129.389 129.5,129.5 Z"/></g>
<g><path style="opacity:1" fill="#401902" d="M 172.5,131.5 C 171.91,132.766 171.41,134.099 171,135.5C 165.902,140.871 159.569,143.537 152,143.5C 142.112,142.482 134.612,137.815 129.5,129.5C 128.37,127.685 127.704,125.685 127.5,123.5C 129.205,122.465 130.872,122.465 132.5,123.5C 133.426,126.044 134.426,128.544 135.5,131C 139.606,133.048 143.939,134.548 148.5,135.5C 150.115,134.846 151.782,134.346 153.5,134C 152.269,132.817 152.269,131.651 153.5,130.5C 157.013,132.131 160.013,131.464 162.5,128.5C 165.38,129.306 167.547,130.973 169,133.5C 170.077,132.571 171.244,131.904 172.5,131.5 Z"/></g>
<g><path style="opacity:1" fill="#faec39" d="M 153.5,125.5 C 152.833,125.5 152.167,125.5 151.5,125.5C 152.297,122.291 153.963,121.791 156.5,124C 155.263,124.232 154.263,124.732 153.5,125.5 Z"/></g>
<g><path style="opacity:1" fill="#8c7c7b" d="M 185.5,134.5 C 185.5,135.167 185.5,135.833 185.5,136.5C 180.775,140.939 175.108,143.106 168.5,143C 169.416,142.722 170.082,142.222 170.5,141.5C 172.97,140.763 175.304,139.763 177.5,138.5C 180.395,137.601 183.062,136.267 185.5,134.5 Z"/></g>
<g><path style="opacity:1" fill="#1c1311" d="M 216.5,128.5 C 217.264,131.018 218.264,133.351 219.5,135.5C 225.384,143.042 233.051,145.542 242.5,143C 245.279,141.278 248.279,140.111 251.5,139.5C 245.284,146.301 237.451,149.301 228,148.5C 223.888,148.651 220.054,147.984 216.5,146.5C 217.925,145.13 220.259,144.13 223.5,143.5C 221.228,142.515 218.895,141.681 216.5,141C 213.895,137.306 210.728,134.14 207,131.5C 206.505,129.527 206.338,127.527 206.5,125.5C 209.209,124.098 212.042,122.764 215,121.5C 215.186,124.036 215.686,126.369 216.5,128.5 Z"/></g>
<g><path style="opacity:1" fill="#0c0907" d="M 272.5,103.5 C 273.038,105.117 273.371,106.784 273.5,108.5C 272.233,138.087 256.9,153.753 227.5,155.5C 219.289,155.56 211.622,153.56 204.5,149.5C 203.866,153.992 204.699,158.325 207,162.5C 210.559,170.543 214.726,178.21 219.5,185.5C 213.447,187.557 207.114,188.057 200.5,187C 203.7,186.899 206.7,186.232 209.5,185C 207.866,184.506 206.199,184.34 204.5,184.5C 205.952,183.698 207.618,183.198 209.5,183C 207.665,178.827 205.665,174.661 203.5,170.5C 202.893,170.624 202.56,170.957 202.5,171.5C 199.978,171.872 197.978,171.039 196.5,169C 198.478,168.519 199.811,167.353 200.5,165.5C 199.574,161.87 198.907,158.203 198.5,154.5C 198.357,152.738 198.691,151.071 199.5,149.5C 197.434,146.559 195.767,143.893 194.5,141.5C 196.394,140.952 198.06,139.952 199.5,138.5C 204.534,142.517 210.201,145.184 216.5,146.5C 220.054,147.984 223.888,148.651 228,148.5C 237.451,149.301 245.284,146.301 251.5,139.5C 254.438,137.066 257.271,134.399 260,131.5C 261.515,127.808 263.015,124.141 264.5,120.5C 265.851,115.051 266.685,109.384 267,103.5C 267.202,105.256 267.702,106.922 268.5,108.5C 269.883,105.924 270.717,106.258 271,109.5C 271.191,107.292 271.691,105.292 272.5,103.5 Z"/></g>
<g><path style="opacity:1" fill="#0a0706" d="M 113.5,95.5 C 111.585,104.054 111.085,112.721 112,121.5C 118.228,143.902 132.728,156.902 155.5,160.5C 155.187,164.042 155.521,167.375 156.5,170.5C 157.607,174.745 160.107,177.745 164,179.5C 165.092,182.388 166.592,185.055 168.5,187.5C 169.107,187.376 169.44,187.043 169.5,186.5C 177.539,176.087 183.205,164.42 186.5,151.5C 187.268,150.737 187.768,149.737 188,148.5C 188.498,150.527 188.331,152.527 187.5,154.5C 188.932,157.327 189.599,160.327 189.5,163.5C 189.241,166.48 190.574,168.313 193.5,169C 192.307,170.095 190.973,170.928 189.5,171.5C 188.503,171.47 187.836,171.97 187.5,173C 188.615,174.393 189.115,175.893 189,177.5C 186.136,174.674 183.969,175.174 182.5,179C 184.123,180.876 183.79,182.21 181.5,183C 184.5,183.667 187.5,183.667 190.5,183C 188.567,182.749 186.734,182.249 185,181.5C 184.596,176.923 185.43,176.59 187.5,180.5C 188.086,180.291 188.586,179.957 189,179.5C 189.903,180.701 191.069,181.535 192.5,182C 196.454,183.154 200.454,183.987 204.5,184.5C 206.199,184.34 207.866,184.506 209.5,185C 206.7,186.232 203.7,186.899 200.5,187C 207.114,188.057 213.447,187.557 219.5,185.5C 220.391,186.11 221.391,186.443 222.5,186.5C 221.833,187.5 221.167,188.5 220.5,189.5C 202.423,189.181 184.423,189.514 166.5,190.5C 166.167,190.5 165.833,190.5 165.5,190.5C 165.5,189.833 165.167,189.5 164.5,189.5C 163.948,185.947 161.948,183.614 158.5,182.5C 155.051,177.284 153.051,171.617 152.5,165.5C 129.821,160.321 115.488,146.488 109.5,124C 110.459,121.88 110.626,119.713 110,117.5C 108.992,122.541 108.492,122.208 108.5,116.5C 109.339,115.359 110.006,114.026 110.5,112.5C 110.575,107.56 110.408,102.56 110,97.5C 110.974,95.1224 111.641,95.4557 112,98.5C 112.232,97.2625 112.732,96.2625 113.5,95.5 Z"/></g>
<g><path style="opacity:1" fill="#6c5f5b" d="M 274.5,102.5 C 274.833,102.5 275.167,102.5 275.5,102.5C 277.398,128.894 266.064,146.728 241.5,156C 238.243,157.043 234.91,157.543 231.5,157.5C 227.486,157.334 223.486,157.501 219.5,158C 221.708,158.191 223.708,158.691 225.5,159.5C 222.833,159.5 220.167,159.5 217.5,159.5C 217.5,160.5 217.5,161.5 217.5,162.5C 220.167,162.167 222.833,161.833 225.5,161.5C 224.341,162.74 223.341,164.074 222.5,165.5C 220.666,164.506 218.999,164.506 217.5,165.5C 216.842,166.398 216.176,167.398 215.5,168.5C 214.702,168.043 214.369,167.376 214.5,166.5C 216.088,164.473 216.588,162.139 216,159.5C 214.529,161.872 213.363,161.872 212.5,159.5C 212.919,158.328 213.585,157.328 214.5,156.5C 212.029,154.929 209.363,153.929 206.5,153.5C 208.474,162.095 211.807,170.095 216.5,177.5C 216.932,178.71 217.599,179.71 218.5,180.5C 219.604,182.389 220.937,184.055 222.5,185.5C 222.5,185.833 222.5,186.167 222.5,186.5C 221.391,186.443 220.391,186.11 219.5,185.5C 214.726,178.21 210.559,170.543 207,162.5C 204.699,158.325 203.866,153.992 204.5,149.5C 211.622,153.56 219.289,155.56 227.5,155.5C 256.9,153.753 272.233,138.087 273.5,108.5C 274.461,106.735 274.795,104.735 274.5,102.5 Z"/></g>
<g><path style="opacity:1" fill="#241c19" d="M 276.5,96.5 C 281.345,110.672 279.845,124.339 272,137.5C 263.344,150.743 251.177,158.243 235.5,160C 234.703,163.745 234.203,167.579 234,171.5C 232.646,175.591 229.979,178.258 226,179.5C 225.576,182.025 224.41,184.025 222.5,185.5C 220.937,184.055 219.604,182.389 218.5,180.5C 219.209,179.596 220.209,179.263 221.5,179.5C 221.227,177.549 221.893,176.049 223.5,175C 222.376,174.751 221.376,174.251 220.5,173.5C 223.318,170.189 226.818,167.856 231,166.5C 231.779,164.193 231.279,162.193 229.5,160.5C 230.612,159.735 231.279,158.735 231.5,157.5C 234.91,157.543 238.243,157.043 241.5,156C 266.064,146.728 277.398,128.894 275.5,102.5C 276.117,102.611 276.617,102.944 277,103.5C 277.018,101.203 276.851,98.8695 276.5,96.5 Z"/></g>
<g><path style="opacity:1" fill="#ae9e9d" d="M 225.5,159.5 C 225.5,160.167 225.5,160.833 225.5,161.5C 222.833,161.833 220.167,162.167 217.5,162.5C 217.5,161.5 217.5,160.5 217.5,159.5C 220.167,159.5 222.833,159.5 225.5,159.5 Z"/></g>
<g><path style="opacity:1" fill="#594b42" d="M 198.5,154.5 C 198.907,158.203 199.574,161.87 200.5,165.5C 199.811,167.353 198.478,168.519 196.5,169C 197.978,171.039 199.978,171.872 202.5,171.5C 203.38,172.531 202.88,173.198 201,173.5C 198.616,172.281 196.283,172.281 194,173.5C 193.568,174.6 194.068,175.267 195.5,175.5C 196.442,175.392 197.275,175.059 198,174.5C 198.309,175.766 198.809,176.933 199.5,178C 196.722,179.392 193.722,179.892 190.5,179.5C 190.833,177.5 191.167,175.5 191.5,173.5C 189.007,173.869 188.34,173.203 189.5,171.5C 190.973,170.928 192.307,170.095 193.5,169C 190.574,168.313 189.241,166.48 189.5,163.5C 190.487,160.287 191.487,156.954 192.5,153.5C 194.757,152.23 196.757,152.564 198.5,154.5 Z"/></g>
<g><path style="opacity:1" fill="#0e0705" d="M 222.5,165.5 C 222.5,166.833 222.5,168.167 222.5,169.5C 220.833,169.5 219.167,169.5 217.5,169.5C 217.5,168.167 217.5,166.833 217.5,165.5C 218.999,164.506 220.666,164.506 222.5,165.5 Z"/></g>
<g><path style="opacity:1" fill="#50443d" d="M 231.5,157.5 C 231.279,158.735 230.612,159.735 229.5,160.5C 231.279,162.193 231.779,164.193 231,166.5C 226.818,167.856 223.318,170.189 220.5,173.5C 221.376,174.251 222.376,174.751 223.5,175C 221.893,176.049 221.227,177.549 221.5,179.5C 220.209,179.263 219.209,179.596 218.5,180.5C 217.599,179.71 216.932,178.71 216.5,177.5C 216.463,175.28 216.797,172.946 217.5,170.5C 213.965,170.663 212.965,169.33 214.5,166.5C 214.369,167.376 214.702,168.043 215.5,168.5C 216.176,167.398 216.842,166.398 217.5,165.5C 217.5,166.833 217.5,168.167 217.5,169.5C 219.167,169.5 220.833,169.5 222.5,169.5C 222.5,168.167 222.5,166.833 222.5,165.5C 223.341,164.074 224.341,162.74 225.5,161.5C 225.5,160.833 225.5,160.167 225.5,159.5C 223.708,158.691 221.708,158.191 219.5,158C 223.486,157.501 227.486,157.334 231.5,157.5 Z"/></g>
<g><path style="opacity:1" fill="#2c241f" d="M 214.5,166.5 C 212.965,169.33 213.965,170.663 217.5,170.5C 216.797,172.946 216.463,175.28 216.5,177.5C 211.807,170.095 208.474,162.095 206.5,153.5C 209.363,153.929 212.029,154.929 214.5,156.5C 213.585,157.328 212.919,158.328 212.5,159.5C 213.363,161.872 214.529,161.872 216,159.5C 216.588,162.139 216.088,164.473 214.5,166.5 Z"/></g>
<g><path style="opacity:1" fill="#2c241f" d="M 169.5,186.5 C 169.44,187.043 169.107,187.376 168.5,187.5C 166.592,185.055 165.092,182.388 164,179.5C 160.107,177.745 157.607,174.745 156.5,170.5C 157.373,166.232 157.706,161.898 157.5,157.5C 160.076,157.722 160.91,159.055 160,161.5C 159.667,161.167 159.333,160.833 159,160.5C 158.503,162.81 158.337,165.143 158.5,167.5C 160.821,167.771 162.821,167.104 164.5,165.5C 165.417,166.127 166.417,166.461 167.5,166.5C 167.5,167.5 167.5,168.5 167.5,169.5C 166.778,169.082 166.278,168.416 166,167.5C 165.221,169.906 166.054,171.573 168.5,172.5C 166.199,175.318 167.199,176.652 171.5,176.5C 171.34,174.801 171.506,173.134 172,171.5C 175.889,168.821 176.389,165.488 173.5,161.5C 174.191,159.109 175.191,159.109 176.5,161.5C 176.833,161 177.167,160.5 177.5,160C 176.373,158.943 175.873,157.777 176,156.5C 178.235,154.798 180.735,153.798 183.5,153.5C 181.357,165.118 176.524,175.452 169,184.5C 168.308,185.437 168.475,186.103 169.5,186.5 Z"/></g>
<g><path style="opacity:1" fill="#675b56" d="M 115.5,103.5 C 115.335,106.518 115.502,109.518 116,112.5C 116.186,109.964 116.686,107.631 117.5,105.5C 116.988,113.005 117.822,120.339 120,127.5C 134.719,155.462 156.552,162.796 185.5,149.5C 186.298,149.957 186.631,150.624 186.5,151.5C 183.205,164.42 177.539,176.087 169.5,186.5C 168.475,186.103 168.308,185.437 169,184.5C 176.524,175.452 181.357,165.118 183.5,153.5C 180.735,153.798 178.235,154.798 176,156.5C 175.873,157.777 176.373,158.943 177.5,160C 177.167,160.5 176.833,161 176.5,161.5C 175.191,159.109 174.191,159.109 173.5,161.5C 176.389,165.488 175.889,168.821 172,171.5C 171.506,173.134 171.34,174.801 171.5,176.5C 167.199,176.652 166.199,175.318 168.5,172.5C 166.054,171.573 165.221,169.906 166,167.5C 166.278,168.416 166.778,169.082 167.5,169.5C 171.938,170.575 173.938,168.908 173.5,164.5C 170.99,164.054 168.99,164.72 167.5,166.5C 166.417,166.461 165.417,166.127 164.5,165.5C 162.821,167.104 160.821,167.771 158.5,167.5C 158.337,165.143 158.503,162.81 159,160.5C 159.333,160.833 159.667,161.167 160,161.5C 160.91,159.055 160.076,157.722 157.5,157.5C 154.09,157.543 150.757,157.043 147.5,156C 124.065,146.105 113.399,128.605 115.5,103.5 Z"/></g>
<g><path style="opacity:1" fill="#140e0b" d="M 167.5,169.5 C 167.5,168.5 167.5,167.5 167.5,166.5C 168.99,164.72 170.99,164.054 173.5,164.5C 173.938,168.908 171.938,170.575 167.5,169.5 Z"/></g>
<g><path style="opacity:1" fill="#2f2520" d="M 202.5,171.5 C 202.56,170.957 202.893,170.624 203.5,170.5C 205.665,174.661 207.665,178.827 209.5,183C 207.618,183.198 205.952,183.698 204.5,184.5C 200.454,183.987 196.454,183.154 192.5,182C 191.069,181.535 189.903,180.701 189,179.5C 188.586,179.957 188.086,180.291 187.5,180.5C 185.43,176.59 184.596,176.923 185,181.5C 186.734,182.249 188.567,182.749 190.5,183C 187.5,183.667 184.5,183.667 181.5,183C 183.79,182.21 184.123,180.876 182.5,179C 183.969,175.174 186.136,174.674 189,177.5C 189.115,175.893 188.615,174.393 187.5,173C 187.836,171.97 188.503,171.47 189.5,171.5C 188.34,173.203 189.007,173.869 191.5,173.5C 191.167,175.5 190.833,177.5 190.5,179.5C 193.722,179.892 196.722,179.392 199.5,178C 198.809,176.933 198.309,175.766 198,174.5C 197.275,175.059 196.442,175.392 195.5,175.5C 194.068,175.267 193.568,174.6 194,173.5C 196.283,172.281 198.616,172.281 201,173.5C 202.88,173.198 203.38,172.531 202.5,171.5 Z"/></g>
<g><path style="opacity:0.004" fill="#000000" d="M 164.5,189.5 C 164.5,190.167 164.5,190.833 164.5,191.5C 163.833,191.5 163.5,191.833 163.5,192.5C 162.285,191.221 162.618,190.221 164.5,189.5 Z"/></g>
<g><path style="opacity:1" fill="#70615a" d="M 220.5,189.5 C 221.791,189.263 222.791,189.596 223.5,190.5C 204.5,191.833 185.5,191.833 166.5,190.5C 184.423,189.514 202.423,189.181 220.5,189.5 Z"/></g>
<g><path style="opacity:0.999" fill="#201a17" d="M 165.5,190.5 C 165.833,190.5 166.167,190.5 166.5,190.5C 185.5,191.833 204.5,191.833 223.5,190.5C 224.479,191.765 225.479,193.099 226.5,194.5C 205.833,195.833 185.167,195.833 164.5,194.5C 165.127,193.583 165.461,192.583 165.5,191.5C 165.5,191.167 165.5,190.833 165.5,190.5 Z"/></g>
</svg>
