<?xml version="1.0" encoding="UTF-8"?>
<!DOCTYPE svg PUBLIC "-//W3C//DTD SVG 1.1//EN" "http://www.w3.org/Graphics/SVG/1.1/DTD/svg11.dtd">
<svg xmlns="http://www.w3.org/2000/svg" version="1.1" width="400px" height="198px" style="shape-rendering:geometricPrecision; text-rendering:geometricPrecision; image-rendering:optimizeQuality; fill-rule:evenodd; clip-rule:evenodd" xmlns:xlink="http://www.w3.org/1999/xlink">
<g><path style="opacity:0.153" fill="#0d0003" d="M 7.5,36.5 C 8.77329,37.0768 8.77329,37.7435 7.5,38.5C 6.53705,38.0302 6.53705,37.3635 7.5,36.5 Z"/></g>
<g><path style="opacity:0.078" fill="#0a020d" d="M 4.5,44.5 C 3.42654,43.7494 3.25988,42.7494 4,41.5C 4.48278,42.448 4.64945,43.448 4.5,44.5 Z"/></g>
<g><path style="opacity:0.153" fill="#100504" d="M 394.5,45.5 C 265.833,45.5 137.167,45.5 8.5,45.5C 8.5,45.1667 8.5,44.8333 8.5,44.5C 134.403,44.8323 260.237,44.4989 386,43.5C 388.939,44.1281 391.772,44.7948 394.5,45.5 Z"/></g>
<g><path style="opacity:0.269" fill="#0a000e" d="M 0.5,151.5 C 2.85187,152.543 3.01854,153.876 1,155.5C 0.50999,154.207 0.343323,152.873 0.5,151.5 Z"/></g>
<g><path style="opacity:0.269" fill="#0a000e" d="M 399.5,151.5 C 399.5,152.833 399.5,154.167 399.5,155.5C 396.833,154.167 396.833,152.833 399.5,151.5 Z"/></g>
<g><path style="opacity:0.078" fill="#09000b" d="M 1.5,157.5 C 2.83333,158.167 2.83333,158.167 1.5,157.5 Z"/></g>
<g><path style="opacity:0.616" fill="#1c0a0a" d="M 4.5,44.5 C 5.83333,44.5 7.16667,44.5 8.5,44.5C 8.5,44.8333 8.5,45.1667 8.5,45.5C 7.20895,45.2627 6.20895,45.596 5.5,46.5C 4.16667,83.1667 4.16667,119.833 5.5,156.5C 135.167,157.833 264.833,157.833 394.5,156.5C 395.498,119.67 395.832,82.6704 395.5,45.5C 396.419,47.3908 397.086,50.0575 397.5,53.5C 396.843,88.382 396.176,123.215 395.5,158C 392.475,158.361 389.475,158.861 386.5,159.5C 262.167,158.167 137.833,158.167 13.5,159.5C 10.2651,158.969 7.09847,158.302 4,157.5C 3.17356,119.762 3.34022,82.0954 4.5,44.5 Z"/></g>
<g><path style="opacity:1" fill="#b63631" d="M 393.5,47.5 C 393.833,47.5 394.167,47.5 394.5,47.5C 394.5,83.8333 394.5,120.167 394.5,156.5C 264.833,157.833 135.167,157.833 5.5,156.5C 5.17075,141.99 5.50408,127.657 6.5,113.5C 6.5,127.5 6.5,141.5 6.5,155.5C 135.5,155.5 264.5,155.5 393.5,155.5C 393.5,120.167 393.5,84.8333 393.5,49.5C 393.5,48.8333 393.5,48.1667 393.5,47.5 Z"/></g>
<g><path style="opacity:1" fill="#fe4d47" d="M 393.5,49.5 C 393.5,84.8333 393.5,120.167 393.5,155.5C 264.5,155.5 135.5,155.5 6.5,155.5C 6.5,141.5 6.5,127.5 6.5,113.5C 8.31833,126.128 9.15166,139.128 9,152.5C 10.1939,153.43 11.5272,154.097 13,154.5C 137.667,153.167 262.333,153.167 387,154.5C 388.473,154.097 389.806,153.43 391,152.5C 391.333,118.5 391.667,84.5 392,50.5C 392.383,49.944 392.883,49.6107 393.5,49.5 Z"/></g>
<g><path style="opacity:1" fill="#ef4845" d="M 7.5,47.5 C 7.5,49.5 7.5,51.5 7.5,53.5C 8.5,53.5 9.5,53.5 10.5,53.5C 10.5,52.1667 10.5,50.8333 10.5,49.5C 12.4672,49.2606 14.3005,49.5939 16,50.5C 138.768,50.1677 261.268,49.1677 383.5,47.5C 386.833,47.5 390.167,47.5 393.5,47.5C 393.5,48.1667 393.5,48.8333 393.5,49.5C 392.883,49.6107 392.383,49.944 392,50.5C 391.667,84.5 391.333,118.5 391,152.5C 389.806,153.43 388.473,154.097 387,154.5C 262.333,153.167 137.667,153.167 13,154.5C 11.5272,154.097 10.1939,153.43 9,152.5C 9.15166,139.128 8.31833,126.128 6.5,113.5C 6.16928,91.327 6.50261,69.327 7.5,47.5 Z"/></g>
<g><path style="opacity:1" fill="#030000" d="M 226.5,74.5 C 250.567,69.7446 261.4,79.4112 259,103.5C 255.658,114.598 248.158,119.264 236.5,117.5C 236.5,122.833 236.5,128.167 236.5,133.5C 233.167,133.5 229.833,133.5 226.5,133.5C 226.5,113.833 226.5,94.1667 226.5,74.5 Z"/></g>
<g><path style="opacity:1" fill="#eb4744" d="M 244.5,86.5 C 247.452,87.3589 249.285,89.3589 250,92.5C 251.934,103.398 247.434,107.732 236.5,105.5C 236.5,99.1667 236.5,92.8333 236.5,86.5C 239.167,86.5 241.833,86.5 244.5,86.5 Z"/></g>
<g><path style="opacity:1" fill="#6a1b19" d="M 244.5,86.5 C 241.833,86.5 239.167,86.5 236.5,86.5C 236.5,92.8333 236.5,99.1667 236.5,105.5C 235.509,99.021 235.176,92.3543 235.5,85.5C 238.713,85.19 241.713,85.5233 244.5,86.5 Z"/></g>
<g><path style="opacity:1" fill="#000000" d="M 206.5,74.5 C 206.5,94.1667 206.5,113.833 206.5,133.5C 203.5,133.5 200.5,133.5 197.5,133.5C 197.5,113.833 197.5,94.1667 197.5,74.5C 200.5,74.5 203.5,74.5 206.5,74.5 Z"/></g>
<g><path style="opacity:1" fill="#671a18" d="M 206.5,74.5 C 203.5,74.5 200.5,74.5 197.5,74.5C 197.5,94.1667 197.5,113.833 197.5,133.5C 196.503,113.674 196.17,93.6736 196.5,73.5C 200.042,73.1872 203.375,73.5206 206.5,74.5 Z"/></g>
<g><path style="opacity:1" fill="#050100" d="M 133.5,75.5 C 136.962,74.5184 140.629,74.185 144.5,74.5C 147.567,87.3124 151.234,99.979 155.5,112.5C 159.788,100.017 163.454,87.3501 166.5,74.5C 170.182,74.3347 173.848,74.5014 177.5,75C 171.474,94.0792 165.641,113.246 160,132.5C 157,133.833 154,133.833 151,132.5C 145.429,113.296 139.596,94.2963 133.5,75.5 Z"/></g>
<g><path style="opacity:1" fill="#fc4e4b" d="M 7.5,47.5 C 132.833,47.5 258.167,47.5 383.5,47.5C 261.268,49.1677 138.768,50.1677 16,50.5C 14.3005,49.5939 12.4672,49.2606 10.5,49.5C 10.5,50.8333 10.5,52.1667 10.5,53.5C 9.5,53.5 8.5,53.5 7.5,53.5C 7.5,51.5 7.5,49.5 7.5,47.5 Z"/></g>
<g><path style="opacity:1" fill="#b43836" d="M 5.5,46.5 C 135.334,46.1671 265.001,46.5004 394.5,47.5C 394.167,47.5 393.833,47.5 393.5,47.5C 390.167,47.5 386.833,47.5 383.5,47.5C 258.167,47.5 132.833,47.5 7.5,47.5C 6.50261,69.327 6.16928,91.327 6.5,113.5C 5.50408,127.657 5.17075,141.99 5.5,156.5C 4.16667,119.833 4.16667,83.1667 5.5,46.5 Z"/></g>
<g><path style="opacity:1" fill="#66201e" d="M 5.5,46.5 C 6.20895,45.596 7.20895,45.2627 8.5,45.5C 137.167,45.5 265.833,45.5 394.5,45.5C 394.833,45.5 395.167,45.5 395.5,45.5C 395.832,82.6704 395.498,119.67 394.5,156.5C 394.5,120.167 394.5,83.8333 394.5,47.5C 265.001,46.5004 135.334,46.1671 5.5,46.5 Z"/></g>
<g><path style="opacity:0.078" fill="#09000b" d="M 397.5,157.5 C 398.833,158.167 398.833,158.167 397.5,157.5 Z"/></g>
<g><path style="opacity:0.116" fill="#0d0108" d="M 3.5,161.5 C 5.41444,162.185 7.41444,162.685 9.5,163C 8.5,163.167 7.5,163.333 6.5,163.5C 4.97041,163.36 3.97041,162.693 3.5,161.5 Z"/></g>
<g><path style="opacity:0.116" fill="#0d0108" d="M 395.5,161.5 C 396.043,161.56 396.376,161.893 396.5,162.5C 394.579,163.641 392.579,163.808 390.5,163C 392.382,162.802 394.048,162.302 395.5,161.5 Z"/></g>
<g><path style="opacity:0.135" fill="#0e0104" d="M 6.5,166.5 C 9.13678,168.154 8.80345,168.654 5.5,168C 6.05596,167.617 6.38929,167.117 6.5,166.5 Z"/></g>
<g><path style="opacity:0.135" fill="#0e0104" d="M 392.5,166.5 C 395.137,168.154 394.803,168.654 391.5,168C 392.056,167.617 392.389,167.117 392.5,166.5 Z"/></g>
<g><path style="opacity:0.093" fill="#08040d" d="M 10.5,166.5 C 12.3675,167.786 12.5342,169.119 11,170.5C 9.23173,169.318 9.06507,167.985 10.5,166.5 Z"/></g>
<g><path style="opacity:0.093" fill="#08040d" d="M 388.5,166.5 C 390.852,167.543 391.019,168.876 389,170.5C 387.489,169.436 387.323,168.103 388.5,166.5 Z"/></g>
<g><path style="opacity:0.078" fill="#000c03" d="M 3.5,169.5 C 4.83333,170.167 4.83333,170.167 3.5,169.5 Z"/></g>
<g><path style="opacity:0.078" fill="#000c03" d="M 395.5,169.5 C 396.833,170.167 396.833,170.167 395.5,169.5 Z"/></g>
</svg>
