<?xml version="1.0" encoding="UTF-8"?>
<!DOCTYPE svg PUBLIC "-//W3C//DTD SVG 1.1//EN" "http://www.w3.org/Graphics/SVG/1.1/DTD/svg11.dtd">
<svg xmlns="http://www.w3.org/2000/svg" version="1.1" width="400px" height="198px" style="shape-rendering:geometricPrecision; text-rendering:geometricPrecision; image-rendering:optimizeQuality; fill-rule:evenodd; clip-rule:evenodd" xmlns:xlink="http://www.w3.org/1999/xlink">
<g><path style="opacity:0.964" fill="#1e191a" d="M 120.5,-0.5 C 179.833,-0.5 239.167,-0.5 298.5,-0.5C 298.783,0.28913 299.283,0.955796 300,1.5C 300.667,48.1667 300.667,94.8333 300,141.5C 291.5,151.333 282.333,160.5 272.5,169C 250.833,169.333 229.167,169.667 207.5,170C 198.96,179.037 190.627,188.204 182.5,197.5C 172.5,197.5 162.5,197.5 152.5,197.5C 152.217,196.711 151.717,196.044 151,195.5C 150.5,183.505 150.333,171.505 150.5,159.5C 133.83,159.667 117.163,159.5 100.5,159C 99.0692,158.535 97.9025,157.701 97,156.5C 96.3333,112.833 96.3333,69.1667 97,25.5C 105.04,16.9627 112.874,8.29605 120.5,-0.5 Z"/></g>
<g><path style="opacity:1" fill="#7e3ab0" d="M 291.5,137.5 C 284.369,145.132 277.036,152.632 269.5,160C 247.5,160.333 225.5,160.667 203.5,161C 195.167,170 186.833,179 178.5,188C 172.175,188.5 165.842,188.666 159.5,188.5C 159.667,176.162 159.5,163.829 159,151.5C 158.5,151 158,150.5 157.5,150C 140.17,149.5 122.837,149.333 105.5,149.5C 105.333,109.499 105.5,69.4986 106,29.5C 110.366,24.3051 114.866,19.3051 119.5,14.5C 119.435,14.9382 119.601,15.2716 120,15.5C 121.5,14 123,12.5 124.5,11C 179.832,10.5 235.166,10.3333 290.5,10.5C 290.168,53.0033 290.501,95.3366 291.5,137.5 Z"/></g>
<g><path style="opacity:1" fill="#843cba" d="M 291.5,137.5 C 290.501,95.3366 290.168,53.0033 290.5,10.5C 235.166,10.3333 179.832,10.5 124.5,11C 123,12.5 121.5,14 120,15.5C 119.601,15.2716 119.435,14.9382 119.5,14.5C 120.96,12.5372 122.627,10.7038 124.5,9C 180.166,8.50001 235.832,8.33334 291.5,8.5C 291.5,51.5 291.5,94.5 291.5,137.5 Z"/></g>
<g><path style="opacity:1" fill="#191715" d="M 274.5,111.5 C 275.822,82.3036 275.822,53.1369 274.5,24C 226.665,23.8327 178.998,23.3327 131.5,22.5C 178.998,21.3351 226.665,21.1684 274.5,22C 275,22.5 275.5,23 276,23.5C 276.667,52.5 276.667,81.5 276,110.5C 275.617,111.056 275.117,111.389 274.5,111.5 Z"/></g>
<g><path style="opacity:1" fill="#1c1819" d="M 131.5,22.5 C 178.998,23.3327 226.665,23.8327 274.5,24C 275.822,53.1369 275.822,82.3036 274.5,111.5C 274.631,112.239 274.464,112.906 274,113.5C 266.271,121.141 258.438,128.641 250.5,136C 236.5,136.333 222.5,136.667 208.5,137C 197.833,144.333 187.167,151.667 176.5,159C 173.193,161.336 170.527,160.836 168.5,157.5C 168.5,150.5 168.5,143.5 168.5,136.5C 156.5,136.5 144.5,136.5 132.5,136.5C 131.542,136.047 130.708,135.381 130,134.5C 129.333,97.5 129.333,60.5 130,23.5C 130.383,22.944 130.883,22.6107 131.5,22.5 Z"/></g>
<g><path style="opacity:1" fill="#fbfbfb" d="M 138.5,30.5 C 181.833,30.5 225.167,30.5 268.5,30.5C 268.833,56.1753 268.5,81.842 267.5,107.5C 260.5,113.833 253.833,120.5 247.5,127.5C 233.178,128.333 218.845,128.833 204.5,129C 195.637,135.362 186.637,141.529 177.5,147.5C 176.67,141.528 176.17,135.528 176,129.5C 175.617,128.944 175.117,128.611 174.5,128.5C 162.678,127.505 150.678,127.172 138.5,127.5C 138.5,95.1667 138.5,62.8333 138.5,30.5 Z"/></g>
<g><path style="opacity:1" fill="#a2a0a0" d="M 138.5,30.5 C 138.5,62.8333 138.5,95.1667 138.5,127.5C 150.678,127.172 162.678,127.505 174.5,128.5C 162.167,128.5 149.833,128.5 137.5,128.5C 137.168,95.6624 137.502,62.9957 138.5,30.5 Z"/></g>
<g><path style="opacity:1" fill="#1b1818" d="M 166.5,49.5 C 173.508,49.3337 180.508,49.5004 187.5,50C 188,50.5 188.5,51 189,51.5C 189.824,68.0741 189.658,84.5741 188.5,101C 180.587,101.814 172.754,101.647 165,100.5C 164.333,84.1667 164.333,67.8333 165,51.5C 165.717,50.9558 166.217,50.2891 166.5,49.5 Z"/></g>
<g><path style="opacity:1" fill="#1f191c" d="M 208.5,99.5 C 207.167,83.8333 207.167,68.1667 208.5,52.5C 208.333,67.5037 208.5,82.5037 209,97.5C 209.5,82.1703 209.667,66.837 209.5,51.5C 216.755,51.1868 223.921,51.5201 231,52.5C 231.667,68.1667 231.667,83.8333 231,99.5C 223.125,100.747 215.625,100.747 208.5,99.5 Z"/></g>
<g><path style="opacity:1" fill="#1d1b1b" d="M 208.5,99.5 C 215.625,100.747 223.125,100.747 231,99.5C 231.667,83.8333 231.667,68.1667 231,52.5C 223.921,51.5201 216.755,51.1868 209.5,51.5C 209.667,66.837 209.5,82.1703 209,97.5C 208.5,82.5037 208.333,67.5037 208.5,52.5C 208.414,51.5041 208.748,50.6708 209.5,50C 232.45,44.2912 240.45,52.9578 233.5,76C 233.333,83.8333 233.167,91.6667 233,99.5C 232.5,100 232,100.5 231.5,101C 224.167,101.667 216.833,101.667 209.5,101C 208.944,100.617 208.611,100.117 208.5,99.5 Z"/></g>
<g><path style="opacity:1" fill="#6a3392" d="M 173.5,58.5 C 173.5,69.8333 173.5,81.1667 173.5,92.5C 175.833,92.5 178.167,92.5 180.5,92.5C 180.5,81.1667 180.5,69.8333 180.5,58.5C 181.495,69.988 181.828,81.6547 181.5,93.5C 178.5,93.5 175.5,93.5 172.5,93.5C 172.172,81.6547 172.505,69.988 173.5,58.5 Z"/></g>
<g><path style="opacity:1" fill="#813bb4" d="M 173.5,58.5 C 175.833,58.5 178.167,58.5 180.5,58.5C 180.5,69.8333 180.5,81.1667 180.5,92.5C 178.167,92.5 175.833,92.5 173.5,92.5C 173.5,81.1667 173.5,69.8333 173.5,58.5 Z"/></g>
<g><path style="opacity:1" fill="#803ab3" d="M 216.5,58.5 C 219.167,58.5 221.833,58.5 224.5,58.5C 224.5,70.1667 224.5,81.8333 224.5,93.5C 221.833,93.5 219.167,93.5 216.5,93.5C 216.5,81.8333 216.5,70.1667 216.5,58.5 Z"/></g>
<g><path style="opacity:1" fill="#67328c" d="M 132.5,136.5 C 144.5,136.5 156.5,136.5 168.5,136.5C 168.5,143.5 168.5,150.5 168.5,157.5C 167.509,151.021 167.176,144.354 167.5,137.5C 155.655,137.828 143.988,137.495 132.5,136.5 Z"/></g>
</svg>
