<?xml version="1.0" encoding="UTF-8"?>
<!DOCTYPE svg PUBLIC "-//W3C//DTD SVG 1.1//EN" "http://www.w3.org/Graphics/SVG/1.1/DTD/svg11.dtd">
<svg xmlns="http://www.w3.org/2000/svg" version="1.1" width="400px" height="198px" style="shape-rendering:geometricPrecision; text-rendering:geometricPrecision; image-rendering:optimizeQuality; fill-rule:evenodd; clip-rule:evenodd" xmlns:xlink="http://www.w3.org/1999/xlink">
<g><path style="opacity:1" fill="#fa1918" d="M 214.5,1.5 C 219.324,0.971087 223.657,2.13775 227.5,5C 225.292,5.19088 223.292,5.69088 221.5,6.5C 219.086,7.91083 217.419,9.91083 216.5,12.5C 216.276,16.9072 214.276,18.0738 210.5,16C 211.711,14.8869 211.711,13.7202 210.5,12.5C 208.376,11.8506 206.376,11.0173 204.5,10C 206.746,8.7432 208.079,6.90987 208.5,4.5C 211.077,4.54486 213.077,3.54486 214.5,1.5 Z"/></g>
<g><path style="opacity:1" fill="#ed1c20" d="M 218.5,22.5 C 219.167,22.8333 219.833,23.1667 220.5,23.5C 228.115,24.928 235.781,25.928 243.5,26.5C 232.526,25.5549 222.526,27.8882 213.5,33.5C 212.391,33.5569 211.391,33.8902 210.5,34.5C 205.573,36.0396 200.74,38.0396 196,40.5C 195.5,40.3333 195,40.1667 194.5,40C 195.705,38.6244 197.038,37.4577 198.5,36.5C 201.207,34.1568 203.874,31.8235 206.5,29.5C 209.09,28.8717 211.423,27.705 213.5,26C 210.833,26.3333 208.167,26.6667 205.5,27C 204.167,26 204.167,25 205.5,24C 204.692,23.6924 204.025,23.1924 203.5,22.5C 204.326,21.549 204.492,20.549 204,19.5C 203.667,19.8333 203.333,20.1667 203,20.5C 202.311,19.6433 201.478,18.9767 200.5,18.5C 199.28,19.7111 198.113,19.7111 197,18.5C 194.842,20.4944 192.342,21.8277 189.5,22.5C 190.536,19.5987 192.203,17.0987 194.5,15C 197.459,15.8064 200.292,15.3064 203,13.5C 204.583,13.493 206.249,13.8263 208,14.5C 209.243,17.3194 210.743,19.9861 212.5,22.5C 212.291,23.086 211.957,23.586 211.5,24C 214.058,24.2753 216.392,23.7753 218.5,22.5 Z"/></g>
<g><path style="opacity:1" fill="#f12223" d="M 213.5,1.5 C 213.833,1.5 214.167,1.5 214.5,1.5C 213.077,3.54486 211.077,4.54486 208.5,4.5C 208.079,6.90987 206.746,8.7432 204.5,10C 206.376,11.0173 208.376,11.8506 210.5,12.5C 211.711,13.7202 211.711,14.8869 210.5,16C 214.276,18.0738 216.276,16.9072 216.5,12.5C 216.31,16.0318 216.977,19.3652 218.5,22.5C 216.392,23.7753 214.058,24.2753 211.5,24C 211.957,23.586 212.291,23.086 212.5,22.5C 210.743,19.9861 209.243,17.3194 208,14.5C 206.249,13.8263 204.583,13.493 203,13.5C 200.292,15.3064 197.459,15.8064 194.5,15C 192.203,17.0987 190.536,19.5987 189.5,22.5C 187.833,24.5 186.167,26.5 184.5,28.5C 184.167,28.5 183.833,28.5 183.5,28.5C 185.123,25.7847 185.79,22.7847 185.5,19.5C 187.933,15.2319 191.266,11.7319 195.5,9C 200.939,5.11284 206.939,2.61284 213.5,1.5 Z"/></g>
<g><path style="opacity:1" fill="#e4dcde" d="M 221.5,6.5 C 223.857,6.33669 226.19,6.50335 228.5,7C 229.056,7.38258 229.389,7.88258 229.5,8.5C 234.037,11.5848 235.87,15.9181 235,21.5C 234.08,23.3142 232.58,24.3142 230.5,24.5C 227.201,23.7904 223.867,23.4571 220.5,23.5C 219.833,23.1667 219.167,22.8333 218.5,22.5C 216.977,19.3652 216.31,16.0318 216.5,12.5C 217.419,9.91083 219.086,7.91083 221.5,6.5 Z"/></g>
<g><path style="opacity:1" fill="#e53a34" d="M 229.5,8.5 C 232.447,12.3826 233.614,16.716 233,21.5C 232.667,21.8333 232.333,22.1667 232,22.5C 231.73,19.6383 230.896,16.9716 229.5,14.5C 227.495,17.0278 225.829,16.6945 224.5,13.5C 223.645,15.6077 222.978,17.7744 222.5,20C 222.15,21.2575 221.483,21.5908 220.5,21C 219.406,16.5704 220.24,12.4037 223,8.5C 225.369,12.4737 227.536,12.4737 229.5,8.5 Z"/></g>
<g><path style="opacity:1" fill="#d4090b" d="M 206.5,29.5 C 203.148,31.2002 199.814,32.8668 196.5,34.5C 192.761,32.124 188.761,30.124 184.5,28.5C 186.167,26.5 187.833,24.5 189.5,22.5C 192.342,21.8277 194.842,20.4944 197,18.5C 198.113,19.7111 199.28,19.7111 200.5,18.5C 201.478,18.9767 202.311,19.6433 203,20.5C 203.333,20.1667 203.667,19.8333 204,19.5C 204.492,20.549 204.326,21.549 203.5,22.5C 204.025,23.1924 204.692,23.6924 205.5,24C 204.167,25 204.167,26 205.5,27C 208.167,26.6667 210.833,26.3333 213.5,26C 211.423,27.705 209.09,28.8717 206.5,29.5 Z"/></g>
<g><path style="opacity:0.553" fill="#ffdddc" d="M 213.5,0.5 C 213.5,0.833333 213.5,1.16667 213.5,1.5C 206.939,2.61284 200.939,5.11284 195.5,9C 191.266,11.7319 187.933,15.2319 185.5,19.5C 181.614,23.5812 178.448,28.2479 176,33.5C 174.644,34.3802 173.144,34.7135 171.5,34.5C 172.531,33.7515 173.698,33.0848 175,32.5C 182.302,15.0194 195.136,4.35273 213.5,0.5 Z"/></g>
<g><path style="opacity:1" fill="#f16159" d="M 213.5,1.5 C 213.5,1.16667 213.5,0.833333 213.5,0.5C 229.435,0.429423 238.102,8.42942 239.5,24.5C 243.694,24.1767 247.527,25.1767 251,27.5C 253.141,30.8132 252.974,33.8132 250.5,36.5C 252.052,30.3915 249.718,27.0582 243.5,26.5C 235.781,25.928 228.115,24.928 220.5,23.5C 223.867,23.4571 227.201,23.7904 230.5,24.5C 232.58,24.3142 234.08,23.3142 235,21.5C 235.87,15.9181 234.037,11.5848 229.5,8.5C 229.389,7.88258 229.056,7.38258 228.5,7C 226.19,6.50335 223.857,6.33669 221.5,6.5C 223.292,5.69088 225.292,5.19088 227.5,5C 223.657,2.13775 219.324,0.971087 214.5,1.5C 214.167,1.5 213.833,1.5 213.5,1.5 Z"/></g>
<g><path style="opacity:1" fill="#b90a0c" d="M 183.5,28.5 C 183.833,28.5 184.167,28.5 184.5,28.5C 188.761,30.124 192.761,32.124 196.5,34.5C 199.814,32.8668 203.148,31.2002 206.5,29.5C 203.874,31.8235 201.207,34.1568 198.5,36.5C 198.44,35.9569 198.107,35.6236 197.5,35.5C 196.167,36.5 194.833,37.5 193.5,38.5C 190.198,37.7419 186.865,37.0752 183.5,36.5C 181.489,37.5186 179.489,38.5186 177.5,39.5C 178.571,35.7157 180.571,32.049 183.5,28.5 Z"/></g>
<g><path style="opacity:1" fill="#901c17" d="M 243.5,26.5 C 249.718,27.0582 252.052,30.3915 250.5,36.5C 247.833,40.8426 243.833,43.1759 238.5,43.5C 238.067,40.8344 237.567,38.1677 237,35.5C 236.184,34.1772 235.017,33.5106 233.5,33.5C 227.37,32.2338 221.37,32.2338 215.5,33.5C 214.833,33.5 214.167,33.5 213.5,33.5C 222.526,27.8882 232.526,25.5549 243.5,26.5 Z"/></g>
<g><path style="opacity:1" fill="#2b1614" d="M 233.5,33.5 C 235.017,33.5106 236.184,34.1772 237,35.5C 237.567,38.1677 238.067,40.8344 238.5,43.5C 238.167,43.5 237.833,43.5 237.5,43.5C 236.766,42.2921 236.433,40.9587 236.5,39.5C 234.408,39.5614 232.908,40.5614 232,42.5C 231.749,39.4057 232.249,36.4057 233.5,33.5 Z"/></g>
<g><path style="opacity:1" fill="#980909" d="M 210.5,34.5 C 209.306,35.2719 208.306,36.2719 207.5,37.5C 202.577,38.963 197.91,40.963 193.5,43.5C 188.635,45.7629 184.302,48.7629 180.5,52.5C 177.833,51.1667 175.167,51.1667 172.5,52.5C 172.487,50.8655 171.487,49.3655 169.5,48C 171.673,44.6619 174.339,41.8286 177.5,39.5C 179.489,38.5186 181.489,37.5186 183.5,36.5C 186.865,37.0752 190.198,37.7419 193.5,38.5C 194.833,37.5 196.167,36.5 197.5,35.5C 198.107,35.6236 198.44,35.9569 198.5,36.5C 197.038,37.4577 195.705,38.6244 194.5,40C 195,40.1667 195.5,40.3333 196,40.5C 200.74,38.0396 205.573,36.0396 210.5,34.5 Z"/></g>
<g><path style="opacity:1" fill="#100807" d="M 213.5,33.5 C 214.167,33.5 214.833,33.5 215.5,33.5C 219.703,35.0372 222.036,38.0372 222.5,42.5C 222.167,42.5 221.833,42.5 221.5,42.5C 221.167,41.5 220.5,40.8333 219.5,40.5C 217.545,38.6742 215.212,38.1742 212.5,39C 210.391,40.1411 208.558,41.6411 207,43.5C 206.322,41.4024 206.489,39.4024 207.5,37.5C 208.306,36.2719 209.306,35.2719 210.5,34.5C 211.391,33.8902 212.391,33.5569 213.5,33.5 Z"/></g>
<g><path style="opacity:1" fill="#b76c4c" d="M 215.5,33.5 C 221.37,32.2338 227.37,32.2338 233.5,33.5C 232.249,36.4057 231.749,39.4057 232,42.5C 232.908,40.5614 234.408,39.5614 236.5,39.5C 236.433,40.9587 236.766,42.2921 237.5,43.5C 237.874,48.2969 237.208,48.9635 235.5,45.5C 231.65,42.0631 227.317,41.0631 222.5,42.5C 222.036,38.0372 219.703,35.0372 215.5,33.5 Z"/></g>
<g><path style="opacity:1" fill="#d33636" d="M 185.5,19.5 C 185.79,22.7847 185.123,25.7847 183.5,28.5C 180.571,32.049 178.571,35.7157 177.5,39.5C 174.339,41.8286 171.673,44.6619 169.5,48C 171.487,49.3655 172.487,50.8655 172.5,52.5C 172.027,53.9063 171.027,54.573 169.5,54.5C 168.662,54.1583 168.328,53.4916 168.5,52.5C 165.186,45.7165 166.186,39.7165 171.5,34.5C 173.144,34.7135 174.644,34.3802 176,33.5C 178.448,28.2479 181.614,23.5812 185.5,19.5 Z"/></g>
<g><path style="opacity:1" fill="#a05a3e" d="M 207.5,37.5 C 206.489,39.4024 206.322,41.4024 207,43.5C 208.558,41.6411 210.391,40.1411 212.5,39C 215.212,38.1742 217.545,38.6742 219.5,40.5C 217.914,41.1481 216.247,41.6481 214.5,42C 215.737,42.2321 216.737,42.7321 217.5,43.5C 215.708,43.366 214.042,43.6993 212.5,44.5C 206.472,45.2857 201.139,47.619 196.5,51.5C 197.383,54.0368 197.383,56.7034 196.5,59.5C 194.2,58.9337 192.2,57.2671 190.5,54.5C 191.518,53.1476 192.851,52.1476 194.5,51.5C 193.607,48.9159 193.274,46.2492 193.5,43.5C 197.91,40.963 202.577,38.963 207.5,37.5 Z"/></g>
<g><path style="opacity:0.22" fill="#ffd4d6" d="M 171.5,34.5 C 166.186,39.7165 165.186,45.7165 168.5,52.5C 165.677,48.6804 164.844,44.3471 166,39.5C 167.076,36.921 168.909,35.2543 171.5,34.5 Z"/></g>
<g><path style="opacity:1" fill="#213ea0" d="M 211.5,47.5 C 211.5,47.1667 211.5,46.8333 211.5,46.5C 216.69,45.842 219.023,48.1753 218.5,53.5C 218.824,57.8423 216.824,59.8423 212.5,59.5C 212.918,58.7784 213.584,58.2784 214.5,58C 214.272,57.6012 213.938,57.4346 213.5,57.5C 213.672,53.0293 214.506,52.6959 216,56.5C 216.495,54.5273 216.662,52.5273 216.5,50.5C 215.952,47.9162 214.285,46.9162 211.5,47.5 Z"/></g>
<g><path style="opacity:1" fill="#5f95d0" d="M 211.5,47.5 C 214.285,46.9162 215.952,47.9162 216.5,50.5C 215.213,49.2317 214.213,49.565 213.5,51.5C 212.808,50.9747 212.308,50.3081 212,49.5C 211.115,52.538 211.615,55.2046 213.5,57.5C 213.938,57.4346 214.272,57.6012 214.5,58C 213.584,58.2784 212.918,58.7784 212.5,59.5C 212.167,59.5 211.833,59.5 211.5,59.5C 210.759,56.703 210.093,53.8697 209.5,51C 209.387,49.3009 210.053,48.1342 211.5,47.5 Z"/></g>
<g><path style="opacity:1" fill="#222b36" d="M 216.5,50.5 C 216.662,52.5273 216.495,54.5273 216,56.5C 214.506,52.6959 213.672,53.0293 213.5,57.5C 211.615,55.2046 211.115,52.538 212,49.5C 212.308,50.3081 212.808,50.9747 213.5,51.5C 214.213,49.565 215.213,49.2317 216.5,50.5 Z"/></g>
<g><path style="opacity:1" fill="#e3dbdd" d="M 217.5,43.5 C 222.189,46.988 223.689,51.6547 222,57.5C 221.626,58.4162 221.126,59.2496 220.5,60C 218.19,60.4966 215.857,60.6633 213.5,60.5C 212.508,60.6716 211.842,60.3382 211.5,59.5C 211.833,59.5 212.167,59.5 212.5,59.5C 216.824,59.8423 218.824,57.8423 218.5,53.5C 219.023,48.1753 216.69,45.842 211.5,46.5C 211.833,45.8333 212.167,45.1667 212.5,44.5C 214.042,43.6993 215.708,43.366 217.5,43.5 Z"/></g>
<g><path style="opacity:1" fill="#4e1c13" d="M 193.5,43.5 C 193.274,46.2492 193.607,48.9159 194.5,51.5C 192.851,52.1476 191.518,53.1476 190.5,54.5C 192.2,57.2671 194.2,58.9337 196.5,59.5C 195.699,61.0418 195.366,62.7085 195.5,64.5C 194.833,65.1667 194.167,65.8333 193.5,66.5C 191.097,66.607 189.264,65.607 188,63.5C 186.465,59.0727 183.965,55.406 180.5,52.5C 184.302,48.7629 188.635,45.7629 193.5,43.5 Z"/></g>
<g><path style="opacity:1" fill="#f9af89" d="M 212.5,44.5 C 212.167,45.1667 211.833,45.8333 211.5,46.5C 211.5,46.8333 211.5,47.1667 211.5,47.5C 210.053,48.1342 209.387,49.3009 209.5,51C 210.093,53.8697 210.759,56.703 211.5,59.5C 209.402,58.0857 208.402,58.7524 208.5,61.5C 205.858,61.4877 204.525,62.821 204.5,65.5C 201.355,64.6886 198.355,64.3553 195.5,64.5C 195.366,62.7085 195.699,61.0418 196.5,59.5C 197.383,56.7034 197.383,54.0368 196.5,51.5C 201.139,47.619 206.472,45.2857 212.5,44.5 Z"/></g>
<g><path style="opacity:1" fill="#ffd1a7" d="M 237.5,43.5 C 237.833,43.5 238.167,43.5 238.5,43.5C 238.5,45.8333 238.5,48.1667 238.5,50.5C 248.292,50.7932 252.459,55.7932 251,65.5C 249.637,67.6838 248.137,69.6838 246.5,71.5C 246.5,71.1667 246.5,70.8333 246.5,70.5C 247.292,69.0331 247.292,67.6998 246.5,66.5C 242.21,65.3495 238.21,63.6828 234.5,61.5C 234.909,58.1445 234.242,55.1445 232.5,52.5C 236.082,51.4159 236.416,49.5826 233.5,47C 232.552,46.5172 231.552,46.3505 230.5,46.5C 231.275,48.6119 231.275,50.6119 230.5,52.5C 229.599,54.7271 227.933,55.7271 225.5,55.5C 224.227,51.9891 223.227,48.3224 222.5,44.5C 220.855,43.9638 220.522,43.2971 221.5,42.5C 221.833,42.5 222.167,42.5 222.5,42.5C 227.317,41.0631 231.65,42.0631 235.5,45.5C 237.208,48.9635 237.874,48.2969 237.5,43.5 Z"/></g>
<g><path style="opacity:1" fill="#4a6abc" d="M 232.5,52.5 C 231.833,52.5 231.167,52.5 230.5,52.5C 231.275,50.6119 231.275,48.6119 230.5,46.5C 231.552,46.3505 232.552,46.5172 233.5,47C 236.416,49.5826 236.082,51.4159 232.5,52.5 Z"/></g>
<g><path style="opacity:1" fill="#fda583" d="M 180.5,52.5 C 180.5,53.5 180.5,54.5 180.5,55.5C 178.5,55.5 176.5,55.5 174.5,55.5C 175.751,61.4006 177.751,67.0673 180.5,72.5C 179.675,73.3857 178.675,73.719 177.5,73.5C 173.5,73.5 169.5,73.5 165.5,73.5C 167.631,72.6862 169.964,72.1862 172.5,72C 167.337,66.8547 166.337,61.0214 169.5,54.5C 171.027,54.573 172.027,53.9063 172.5,52.5C 175.167,51.1667 177.833,51.1667 180.5,52.5 Z"/></g>
<g><path style="opacity:1" fill="#bd654f" d="M 180.5,55.5 C 183.254,58.6685 185.254,62.3352 186.5,66.5C 185.731,69.1044 184.064,70.9377 181.5,72C 184.146,72.4974 186.813,72.6641 189.5,72.5C 189.5,73.5 189.5,74.5 189.5,75.5C 188.209,75.2627 187.209,75.596 186.5,76.5C 183.215,76.0719 180.215,75.0719 177.5,73.5C 178.675,73.719 179.675,73.3857 180.5,72.5C 177.751,67.0673 175.751,61.4006 174.5,55.5C 176.5,55.5 178.5,55.5 180.5,55.5 Z"/></g>
<g><path style="opacity:1" fill="#f6a277" d="M 219.5,40.5 C 220.5,40.8333 221.167,41.5 221.5,42.5C 220.522,43.2971 220.855,43.9638 222.5,44.5C 223.227,48.3224 224.227,51.9891 225.5,55.5C 227.933,55.7271 229.599,54.7271 230.5,52.5C 231.167,52.5 231.833,52.5 232.5,52.5C 234.242,55.1445 234.909,58.1445 234.5,61.5C 238.21,63.6828 242.21,65.3495 246.5,66.5C 247.292,67.6998 247.292,69.0331 246.5,70.5C 237.208,70.2058 231.541,65.5391 229.5,56.5C 225.282,57.7702 221.615,59.7702 218.5,62.5C 216.447,62.5979 214.78,61.9313 213.5,60.5C 215.857,60.6633 218.19,60.4966 220.5,60C 221.126,59.2496 221.626,58.4162 222,57.5C 223.689,51.6547 222.189,46.988 217.5,43.5C 216.737,42.7321 215.737,42.2321 214.5,42C 216.247,41.6481 217.914,41.1481 219.5,40.5 Z"/></g>
<g><path style="opacity:1" fill="#b67556" d="M 246.5,70.5 C 246.5,70.8333 246.5,71.1667 246.5,71.5C 246.672,72.4916 246.338,73.1583 245.5,73.5C 245.053,71.0268 244.053,70.8601 242.5,73C 234.065,74.9035 228.065,71.9035 224.5,64C 222.292,63.8091 220.292,63.3091 218.5,62.5C 221.615,59.7702 225.282,57.7702 229.5,56.5C 231.541,65.5391 237.208,70.2058 246.5,70.5 Z"/></g>
<g><path style="opacity:1" fill="#9d5949" d="M 180.5,52.5 C 183.965,55.406 186.465,59.0727 188,63.5C 189.264,65.607 191.097,66.607 193.5,66.5C 192.791,67.404 191.791,67.7373 190.5,67.5C 190.335,70.5184 190.502,73.5184 191,76.5C 191.671,77.2524 192.504,77.5858 193.5,77.5C 195.5,79.8333 197.5,82.1667 199.5,84.5C 200.11,85.391 200.443,86.391 200.5,87.5C 199.167,86.5 197.833,85.5 196.5,84.5C 193.978,80.6269 190.645,77.9603 186.5,76.5C 187.209,75.596 188.209,75.2627 189.5,75.5C 189.5,74.5 189.5,73.5 189.5,72.5C 186.813,72.6641 184.146,72.4974 181.5,72C 184.064,70.9377 185.731,69.1044 186.5,66.5C 185.254,62.3352 183.254,58.6685 180.5,55.5C 180.5,54.5 180.5,53.5 180.5,52.5 Z"/></g>
<g><path style="opacity:1" fill="#261b1b" d="M 211.5,59.5 C 211.842,60.3382 212.508,60.6716 213.5,60.5C 214.78,61.9313 216.447,62.5979 218.5,62.5C 220.292,63.3091 222.292,63.8091 224.5,64C 228.065,71.9035 234.065,74.9035 242.5,73C 244.053,70.8601 245.053,71.0268 245.5,73.5C 245.5,74.1667 245.167,74.5 244.5,74.5C 242.336,74.7215 240.67,75.7215 239.5,77.5C 236.781,77.3975 234.115,77.7308 231.5,78.5C 229.792,78.2972 228.459,77.4638 227.5,76C 223.442,76.1671 220.109,74.8337 217.5,72C 211.073,71.4081 208.073,67.9081 208.5,61.5C 208.402,58.7524 209.402,58.0857 211.5,59.5 Z"/></g>
<g><path style="opacity:1" fill="#e38e6f" d="M 195.5,64.5 C 198.355,64.3553 201.355,64.6886 204.5,65.5C 204.192,67.924 204.526,70.2573 205.5,72.5C 208.971,73.0973 212.305,73.764 215.5,74.5C 206.011,73.5315 205.344,75.0315 213.5,79C 214.252,79.6708 214.586,80.5041 214.5,81.5C 211.753,80.0343 208.753,79.2009 205.5,79C 203.796,76.2432 201.462,74.9099 198.5,75C 199.336,76.2433 199.003,77.4099 197.5,78.5C 196.264,77.7542 194.93,77.4208 193.5,77.5C 192.504,77.5858 191.671,77.2524 191,76.5C 190.502,73.5184 190.335,70.5184 190.5,67.5C 191.791,67.7373 192.791,67.404 193.5,66.5C 194.167,65.8333 194.833,65.1667 195.5,64.5 Z"/></g>
<g><path style="opacity:0.933" fill="#ffc8cc" d="M 165.5,73.5 C 162.411,74.7846 159.078,75.4512 155.5,75.5C 158.544,73.9886 161.878,73.322 165.5,73.5 Z"/></g>
<g><path style="opacity:1" fill="#fe1916" d="M 165.5,73.5 C 169.5,73.5 173.5,73.5 177.5,73.5C 180.215,75.0719 183.215,76.0719 186.5,76.5C 190.645,77.9603 193.978,80.6269 196.5,84.5C 194.966,85.2029 193.299,85.0363 191.5,84C 193.301,83.6827 193.634,83.016 192.5,82C 189.998,80.5684 187.498,80.4018 185,81.5C 184.167,80.6667 183.333,79.8333 182.5,79C 177.664,77.7595 173.164,77.2595 169,77.5C 166.503,79.154 164.003,79.9874 161.5,80C 162.22,82.1223 163.387,82.6223 165,81.5C 165.678,83.5976 165.511,85.5976 164.5,87.5C 162.274,82.9375 159.274,78.9375 155.5,75.5C 159.078,75.4512 162.411,74.7846 165.5,73.5 Z"/></g>
<g><path style="opacity:1" fill="#f7f8fb" d="M 279.5,90.5 C 278.71,91.6085 278.21,92.9419 278,94.5C 276.175,93.8971 274.341,93.2304 272.5,92.5C 273.263,91.2807 274.263,90.2807 275.5,89.5C 273.577,88.6922 271.577,88.1922 269.5,88C 268.695,86.8873 268.028,85.7206 267.5,84.5C 274.01,83.0928 274.01,81.9261 267.5,81C 265.845,79.5557 265.178,77.7224 265.5,75.5C 264.5,75.5 263.5,75.5 262.5,75.5C 262.5,74.5 262.5,73.5 262.5,72.5C 261.167,72.5 259.833,72.5 258.5,72.5C 261.771,69.9534 265.105,70.1201 268.5,73C 274.317,77.4652 277.984,83.2985 279.5,90.5 Z"/></g>
<g><path style="opacity:0.998" fill="#f9f9fb" d="M 155.5,75.5 C 159.274,78.9375 162.274,82.9375 164.5,87.5C 164.5,87.8333 164.5,88.1667 164.5,88.5C 164.5,88.8333 164.5,89.1667 164.5,89.5C 164.205,91.7354 164.539,93.7354 165.5,95.5C 165.068,96.7095 164.401,97.7095 163.5,98.5C 162.235,86.741 155.902,79.5744 144.5,77C 150.799,78.9633 155.632,82.7966 159,88.5C 159.667,89.8333 159.667,91.1667 159,92.5C 158.667,92.1667 158.333,91.8333 158,91.5C 156.43,92.614 155.097,93.9474 154,95.5C 152.542,94.2532 151.042,94.2532 149.5,95.5C 148.548,94.467 148.548,93.3004 149.5,92C 148.944,90.9889 148.278,90.1556 147.5,89.5C 148.835,87.1564 148.169,85.4897 145.5,84.5C 143.777,85.5522 142.11,85.5522 140.5,84.5C 138.226,84.9702 136.226,85.9702 134.5,87.5C 130.477,86.6695 126.644,87.3362 123,89.5C 122.536,88.9056 122.369,88.2389 122.5,87.5C 127.818,81.6718 134.485,78.1718 142.5,77C 146.391,72.9237 150.724,72.4237 155.5,75.5 Z"/></g>
<g><path style="opacity:1" fill="#f81313" d="M 196.5,84.5 C 197.833,85.5 199.167,86.5 200.5,87.5C 201.728,88.3065 202.728,89.3065 203.5,90.5C 204.323,92.9872 205.323,95.3206 206.5,97.5C 209.249,103.935 207.249,107.935 200.5,109.5C 198.444,107.76 197.111,105.427 196.5,102.5C 196.529,100.971 197.196,99.804 198.5,99C 196.841,96.1563 194.841,93.6563 192.5,91.5C 191.53,90.3707 190.364,89.3707 189,88.5C 184.799,86.5312 180.466,84.8645 176,83.5C 175.167,84.3333 174.333,85.1667 173.5,86C 170.285,86.7304 167.285,87.5637 164.5,88.5C 164.5,88.1667 164.5,87.8333 164.5,87.5C 165.511,85.5976 165.678,83.5976 165,81.5C 163.387,82.6223 162.22,82.1223 161.5,80C 164.003,79.9874 166.503,79.154 169,77.5C 173.164,77.2595 177.664,77.7595 182.5,79C 183.333,79.8333 184.167,80.6667 185,81.5C 187.498,80.4018 189.998,80.5684 192.5,82C 193.634,83.016 193.301,83.6827 191.5,84C 193.299,85.0363 194.966,85.2029 196.5,84.5 Z"/></g>
<g><path style="opacity:1" fill="#f7a87b" d="M 215.5,74.5 C 216.028,75.7206 216.695,76.8873 217.5,78C 223.141,81.098 229.141,82.098 235.5,81C 236.591,79.4499 237.924,78.2832 239.5,77.5C 240.67,75.7215 242.336,74.7215 244.5,74.5C 242.685,79.4547 239.851,83.788 236,87.5C 233.243,89.7814 230.409,91.7814 227.5,93.5C 226.5,93.5 225.5,93.5 224.5,93.5C 224.586,92.5041 224.252,91.6708 223.5,91C 224.5,90.6667 225.5,90.3333 226.5,90C 221.785,88.1098 217.785,85.2764 214.5,81.5C 214.586,80.5041 214.252,79.6708 213.5,79C 205.344,75.0315 206.011,73.5315 215.5,74.5 Z"/></g>
<g><path style="opacity:1" fill="#d0ced4" d="M 258.5,72.5 C 259.833,72.5 261.167,72.5 262.5,72.5C 262.5,73.5 262.5,74.5 262.5,75.5C 263.5,75.5 264.5,75.5 265.5,75.5C 265.178,77.7224 265.845,79.5557 267.5,81C 274.01,81.9261 274.01,83.0928 267.5,84.5C 264.564,85.2767 261.397,85.2767 258,84.5C 257.283,85.0442 256.783,85.7109 256.5,86.5C 251.919,85.0882 248.752,82.0882 247,77.5C 246.292,78.3805 245.458,79.0472 244.5,79.5C 245.98,75.3435 248.814,74.0101 253,75.5C 254.731,74.259 256.564,73.259 258.5,72.5 Z"/></g>
<g><path style="opacity:1" fill="#b96f4f" d="M 208.5,61.5 C 208.073,67.9081 211.073,71.4081 217.5,72C 220.109,74.8337 223.442,76.1671 227.5,76C 228.459,77.4638 229.792,78.2972 231.5,78.5C 234.115,77.7308 236.781,77.3975 239.5,77.5C 237.924,78.2832 236.591,79.4499 235.5,81C 229.141,82.098 223.141,81.098 217.5,78C 216.695,76.8873 216.028,75.7206 215.5,74.5C 212.305,73.764 208.971,73.0973 205.5,72.5C 204.526,70.2573 204.192,67.924 204.5,65.5C 204.525,62.821 205.858,61.4877 208.5,61.5 Z"/></g>
<g><path style="opacity:1" fill="#f3f9fe" d="M 147.5,89.5 C 146.167,88.1667 144.833,88.1667 143.5,89.5C 142.624,89.3691 141.957,89.7025 141.5,90.5C 142.506,91.3957 142.506,92.0623 141.5,92.5C 139.782,92.7889 137.948,92.4556 136,91.5C 131.799,92.0586 127.632,92.7252 123.5,93.5C 122.476,92.1468 121.143,91.4802 119.5,91.5C 119.738,89.5956 120.738,88.2623 122.5,87.5C 122.369,88.2389 122.536,88.9056 123,89.5C 126.644,87.3362 130.477,86.6695 134.5,87.5C 136.226,85.9702 138.226,84.9702 140.5,84.5C 142.11,85.5522 143.777,85.5522 145.5,84.5C 148.169,85.4897 148.835,87.1564 147.5,89.5 Z"/></g>
<g><path style="opacity:1" fill="#b36b4e" d="M 214.5,81.5 C 217.785,85.2764 221.785,88.1098 226.5,90C 225.5,90.3333 224.5,90.6667 223.5,91C 224.252,91.6708 224.586,92.5041 224.5,93.5C 223.962,95.1172 223.629,96.7839 223.5,98.5C 222.686,96.2187 221.352,94.2187 219.5,92.5C 219.167,92.8333 218.833,93.1667 218.5,93.5C 219.456,95.0754 220.123,96.742 220.5,98.5C 217.962,97.9573 215.628,96.9573 213.5,95.5C 212.5,94.1667 211.5,92.8333 210.5,91.5C 207.621,87.9591 203.954,85.6257 199.5,84.5C 197.5,82.1667 195.5,79.8333 193.5,77.5C 194.93,77.4208 196.264,77.7542 197.5,78.5C 199.003,77.4099 199.336,76.2433 198.5,75C 201.462,74.9099 203.796,76.2432 205.5,79C 208.753,79.2009 211.753,80.0343 214.5,81.5 Z"/></g>
<g><path style="opacity:1" fill="#d70505" d="M 192.5,91.5 C 191.448,91.3505 190.448,91.5172 189.5,92C 191.194,93.9387 193.027,95.7721 195,97.5C 195.772,99.9554 194.939,101.622 192.5,102.5C 190.578,102.199 188.912,101.533 187.5,100.5C 189.549,100.294 189.883,99.4609 188.5,98C 183.702,95.6916 179.035,93.1916 174.5,90.5C 171.807,92.2702 168.807,92.9368 165.5,92.5C 165.737,91.209 165.404,90.209 164.5,89.5C 164.5,89.1667 164.5,88.8333 164.5,88.5C 167.285,87.5637 170.285,86.7304 173.5,86C 174.333,85.1667 175.167,84.3333 176,83.5C 180.466,84.8645 184.799,86.5312 189,88.5C 190.364,89.3707 191.53,90.3707 192.5,91.5 Z"/></g>
<g><path style="opacity:1" fill="#0e144b" d="M 199.5,84.5 C 203.954,85.6257 207.621,87.9591 210.5,91.5C 208.243,91.0383 206.243,90.0383 204.5,88.5C 203.702,88.9569 203.369,89.6236 203.5,90.5C 202.728,89.3065 201.728,88.3065 200.5,87.5C 200.443,86.391 200.11,85.391 199.5,84.5 Z"/></g>
<g><path style="opacity:1" fill="#e7e6eb" d="M 163.5,98.5 C 161.897,103.03 160.397,107.696 159,112.5C 157.951,114.618 156.451,116.284 154.5,117.5C 154.062,117.565 153.728,117.399 153.5,117C 155.141,115.871 156.141,114.371 156.5,112.5C 157.797,110.307 157.797,107.973 156.5,105.5C 151.882,104.984 147.216,104.818 142.5,105C 141.244,104.583 140.577,103.75 140.5,102.5C 142.882,101.469 145.216,100.136 147.5,98.5C 145.015,95.6869 143.682,92.6869 143.5,89.5C 144.833,88.1667 146.167,88.1667 147.5,89.5C 148.278,90.1556 148.944,90.9889 149.5,92C 148.548,93.3004 148.548,94.467 149.5,95.5C 151.042,94.2532 152.542,94.2532 154,95.5C 155.097,93.9474 156.43,92.614 158,91.5C 158.333,91.8333 158.667,92.1667 159,92.5C 159.667,91.1667 159.667,89.8333 159,88.5C 155.632,82.7966 150.799,78.9633 144.5,77C 155.902,79.5744 162.235,86.741 163.5,98.5 Z"/></g>
<g><path style="opacity:1" fill="#3156e2" d="M 210.5,91.5 C 211.5,92.8333 212.5,94.1667 213.5,95.5C 215.093,98.3561 216.427,101.356 217.5,104.5C 218.85,105.95 220.516,106.617 222.5,106.5C 223.434,107.568 223.768,108.901 223.5,110.5C 222.312,111.364 221.145,112.364 220,113.5C 219.79,111.942 219.29,110.609 218.5,109.5C 215.964,104.651 212.964,104.318 209.5,108.5C 208.748,105.253 208.248,101.919 208,98.5C 207.617,97.944 207.117,97.6107 206.5,97.5C 205.323,95.3206 204.323,92.9872 203.5,90.5C 203.369,89.6236 203.702,88.9569 204.5,88.5C 206.243,90.0383 208.243,91.0383 210.5,91.5 Z"/></g>
<g><path style="opacity:1" fill="#666164" d="M 256.5,86.5 C 257.789,88.248 259.289,88.5814 261,87.5C 260.805,89.1261 260.805,90.7928 261,92.5C 262.011,93.3366 263.178,93.67 264.5,93.5C 264.746,95.7805 264.746,97.7805 264.5,99.5C 262.747,97.7389 260.747,96.4056 258.5,95.5C 254.276,97.8414 253.609,96.8414 256.5,92.5C 253.824,88.6346 251.491,88.9679 249.5,93.5C 250.154,95.1151 250.654,96.7818 251,98.5C 252.972,99.3052 254.472,100.639 255.5,102.5C 258.505,103.818 261.505,104.818 264.5,105.5C 262.143,105.337 259.81,105.503 257.5,106C 259.595,106.556 259.762,107.056 258,107.5C 256.775,107.138 255.609,106.638 254.5,106C 250.816,100.945 247.149,95.9447 243.5,91C 244.394,87.2238 244.728,83.3905 244.5,79.5C 245.458,79.0472 246.292,78.3805 247,77.5C 248.752,82.0882 251.919,85.0882 256.5,86.5 Z"/></g>
<g><path style="opacity:1" fill="#cecdd1" d="M 267.5,84.5 C 268.028,85.7206 268.695,86.8873 269.5,88C 271.577,88.1922 273.577,88.6922 275.5,89.5C 274.263,90.2807 273.263,91.2807 272.5,92.5C 274.341,93.2304 276.175,93.8971 278,94.5C 278.21,92.9419 278.71,91.6085 279.5,90.5C 279.663,92.8568 279.497,95.1902 279,97.5C 278.292,98.3805 277.458,99.0472 276.5,99.5C 273.597,97.8962 270.263,96.8962 266.5,96.5C 265.674,95.549 265.508,94.549 266,93.5C 267.609,92.8534 269.109,92.02 270.5,91C 268.331,90.5706 266.331,91.0706 264.5,92.5C 261.499,88.5085 262.499,85.8419 267.5,84.5 Z"/></g>
<g><path style="opacity:0.063" fill="#ca6a87" d="M 164.5,89.5 C 165.404,90.209 165.737,91.209 165.5,92.5C 165.47,93.4972 165.97,94.1639 167,94.5C 170.369,93.0752 173.536,93.4085 176.5,95.5C 176.5,95.8333 176.5,96.1667 176.5,96.5C 176.167,96.5 175.833,96.5 175.5,96.5C 172.402,94.2929 169.068,93.9596 165.5,95.5C 164.539,93.7354 164.205,91.7354 164.5,89.5 Z"/></g>
<g><path style="opacity:1" fill="#7e0204" d="M 187.5,100.5 C 184.833,100.5 182.167,100.5 179.5,100.5C 179.657,99.1266 179.49,97.7932 179,96.5C 178.505,98.4727 178.338,100.473 178.5,102.5C 177.833,100.167 177.167,97.8333 176.5,95.5C 173.536,93.4085 170.369,93.0752 167,94.5C 165.97,94.1639 165.47,93.4972 165.5,92.5C 168.807,92.9368 171.807,92.2702 174.5,90.5C 179.035,93.1916 183.702,95.6916 188.5,98C 189.883,99.4609 189.549,100.294 187.5,100.5 Z"/></g>
<g><path style="opacity:1" fill="#e3e9f8" d="M 143.5,89.5 C 143.682,92.6869 145.015,95.6869 147.5,98.5C 145.216,100.136 142.882,101.469 140.5,102.5C 138.156,102.325 136.489,101.158 135.5,99C 131.348,97.2629 127.014,96.0963 122.5,95.5C 122.649,96.552 122.483,97.552 122,98.5C 121.333,97.1667 120.667,95.8333 120,94.5C 120.083,97.1194 120.25,99.786 120.5,102.5C 118.431,98.9563 118.098,95.2896 119.5,91.5C 121.143,91.4802 122.476,92.1468 123.5,93.5C 127.632,92.7252 131.799,92.0586 136,91.5C 137.948,92.4556 139.782,92.7889 141.5,92.5C 142.506,92.0623 142.506,91.3957 141.5,90.5C 141.957,89.7025 142.624,89.3691 143.5,89.5 Z"/></g>
<g><path style="opacity:1" fill="#eb0e0e" d="M 224.5,93.5 C 225.5,93.5 226.5,93.5 227.5,93.5C 228.167,93.5 228.833,93.5 229.5,93.5C 231.267,95.9384 232.601,98.605 233.5,101.5C 234.369,103.717 234.702,106.05 234.5,108.5C 231.837,106.677 228.837,105.677 225.5,105.5C 224.833,103.167 224.167,100.833 223.5,98.5C 223.629,96.7839 223.962,95.1172 224.5,93.5 Z"/></g>
<g><path style="opacity:1" fill="#f40b0e" d="M 213.5,95.5 C 215.628,96.9573 217.962,97.9573 220.5,98.5C 222.226,100.82 222.893,103.487 222.5,106.5C 220.516,106.617 218.85,105.95 217.5,104.5C 216.427,101.356 215.093,98.3561 213.5,95.5 Z"/></g>
<g><path style="opacity:1" fill="#7c7a7d" d="M 267.5,84.5 C 262.499,85.8419 261.499,88.5085 264.5,92.5C 266.331,91.0706 268.331,90.5706 270.5,91C 269.109,92.02 267.609,92.8534 266,93.5C 265.508,94.549 265.674,95.549 266.5,96.5C 270.263,96.8962 273.597,97.8962 276.5,99.5C 275.127,99.3433 273.793,99.51 272.5,100C 269.953,102.054 267.286,103.887 264.5,105.5C 261.505,104.818 258.505,103.818 255.5,102.5C 254.472,100.639 252.972,99.3052 251,98.5C 250.654,96.7818 250.154,95.1151 249.5,93.5C 251.491,88.9679 253.824,88.6346 256.5,92.5C 253.609,96.8414 254.276,97.8414 258.5,95.5C 260.747,96.4056 262.747,97.7389 264.5,99.5C 264.746,97.7805 264.746,95.7805 264.5,93.5C 263.178,93.67 262.011,93.3366 261,92.5C 260.805,90.7928 260.805,89.1261 261,87.5C 259.289,88.5814 257.789,88.248 256.5,86.5C 256.783,85.7109 257.283,85.0442 258,84.5C 261.397,85.2767 264.564,85.2767 267.5,84.5 Z"/></g>
<g><path style="opacity:1" fill="#a90302" d="M 229.5,110.5 C 228.527,108.861 227.194,107.527 225.5,106.5C 225.5,106.167 225.5,105.833 225.5,105.5C 228.837,105.677 231.837,106.677 234.5,108.5C 234.702,106.05 234.369,103.717 233.5,101.5C 235.861,101.326 238.194,100.993 240.5,100.5C 241.147,108.861 237.48,112.194 229.5,110.5 Z"/></g>
<g><path style="opacity:1" fill="#c6c8cd" d="M 140.5,102.5 C 140.577,103.75 141.244,104.583 142.5,105C 147.216,104.818 151.882,104.984 156.5,105.5C 157.797,107.973 157.797,110.307 156.5,112.5C 155.85,110.565 155.517,108.565 155.5,106.5C 151.312,106.094 147.979,107.594 145.5,111C 146.448,111.483 147.448,111.649 148.5,111.5C 148.405,114.272 147.071,116.272 144.5,117.5C 142.513,113.421 140.346,109.421 138,105.5C 135.707,103.13 132.874,101.797 129.5,101.5C 127.7,106.995 128.367,111.995 131.5,116.5C 130.761,116.631 130.094,116.464 129.5,116C 125.505,112.17 122.505,107.67 120.5,102.5C 120.25,99.786 120.083,97.1194 120,94.5C 120.667,95.8333 121.333,97.1667 122,98.5C 122.483,97.552 122.649,96.552 122.5,95.5C 127.014,96.0963 131.348,97.2629 135.5,99C 136.489,101.158 138.156,102.325 140.5,102.5 Z"/></g>
<g><path style="opacity:1" fill="#78797a" d="M 123.5,97.5 C 124.5,97.5 125.5,97.5 126.5,97.5C 126.666,101.514 126.499,105.514 126,109.5C 125.333,108.833 124.667,108.167 124,107.5C 123.502,104.183 123.335,100.85 123.5,97.5 Z"/></g>
<g><path style="opacity:1" fill="#e3090b" d="M 192.5,91.5 C 194.841,93.6563 196.841,96.1563 198.5,99C 197.196,99.804 196.529,100.971 196.5,102.5C 197.111,105.427 198.444,107.76 200.5,109.5C 199.791,110.404 198.791,110.737 197.5,110.5C 192.198,110.881 187.198,109.881 182.5,107.5C 181.167,105.833 179.833,104.167 178.5,102.5C 178.338,100.473 178.505,98.4727 179,96.5C 179.49,97.7932 179.657,99.1266 179.5,100.5C 182.167,100.5 184.833,100.5 187.5,100.5C 188.912,101.533 190.578,102.199 192.5,102.5C 194.939,101.622 195.772,99.9554 195,97.5C 193.027,95.7721 191.194,93.9387 189.5,92C 190.448,91.5172 191.448,91.3505 192.5,91.5 Z"/></g>
<g><path style="opacity:1" fill="#333797" d="M 223.5,98.5 C 224.167,100.833 224.833,103.167 225.5,105.5C 225.5,105.833 225.5,106.167 225.5,106.5C 226.134,110.373 227.134,114.039 228.5,117.5C 228.737,118.791 228.404,119.791 227.5,120.5C 226.833,120.5 226.167,120.5 225.5,120.5C 225.665,117.482 225.498,114.482 225,111.5C 224.617,110.944 224.117,110.611 223.5,110.5C 223.768,108.901 223.434,107.568 222.5,106.5C 222.893,103.487 222.226,100.82 220.5,98.5C 220.123,96.742 219.456,95.0754 218.5,93.5C 218.833,93.1667 219.167,92.8333 219.5,92.5C 221.352,94.2187 222.686,96.2187 223.5,98.5 Z"/></g>
<g><path style="opacity:1" fill="#730c0c" d="M 240.5,92.5 C 242.878,98.9032 246.545,104.57 251.5,109.5C 251.167,109.5 250.833,109.5 250.5,109.5C 243.675,111.622 236.675,112.622 229.5,112.5C 229.5,111.833 229.5,111.167 229.5,110.5C 237.48,112.194 241.147,108.861 240.5,100.5C 238.194,100.993 235.861,101.326 233.5,101.5C 232.601,98.605 231.267,95.9384 229.5,93.5C 230.695,93.6775 231.862,94.0109 233,94.5C 235.433,93.5212 237.933,92.8545 240.5,92.5 Z"/></g>
<g><path style="opacity:1" fill="#a8a6a9" d="M 244.5,79.5 C 244.728,83.3905 244.394,87.2238 243.5,91C 247.149,95.9447 250.816,100.945 254.5,106C 255.609,106.638 256.775,107.138 258,107.5C 259.762,107.056 259.595,106.556 257.5,106C 259.81,105.503 262.143,105.337 264.5,105.5C 267.286,103.887 269.953,102.054 272.5,100C 273.793,99.51 275.127,99.3433 276.5,99.5C 271.314,104.264 265.314,107.764 258.5,110C 256.071,110.703 253.738,110.537 251.5,109.5C 246.545,104.57 242.878,98.9032 240.5,92.5C 240.685,90.8042 241.519,89.4709 243,88.5C 243.181,85.3054 243.681,82.3054 244.5,79.5 Z"/></g>
<g><path style="opacity:0.22" fill="#afcafe" d="M 175.5,96.5 C 175.833,96.5 176.167,96.5 176.5,96.5C 176.665,100.182 176.499,103.848 176,107.5C 175.235,110.983 173.735,113.983 171.5,116.5C 173.727,110.034 175.06,103.367 175.5,96.5 Z"/></g>
<g><path style="opacity:1" fill="#eede4b" d="M 225.5,106.5 C 227.194,107.527 228.527,108.861 229.5,110.5C 229.5,111.167 229.5,111.833 229.5,112.5C 229.5,112.833 229.5,113.167 229.5,113.5C 229.768,115.099 229.434,116.432 228.5,117.5C 227.134,114.039 226.134,110.373 225.5,106.5 Z"/></g>
<g><path style="opacity:0.639" fill="#d17c7b" d="M 250.5,109.5 C 243.88,112.906 236.88,114.239 229.5,113.5C 229.5,113.167 229.5,112.833 229.5,112.5C 236.675,112.622 243.675,111.622 250.5,109.5 Z"/></g>
<g><path style="opacity:1" fill="#dfc129" d="M 218.5,109.5 C 218.5,111.167 218.5,112.833 218.5,114.5C 215.799,118.467 212.966,118.467 210,114.5C 209.505,112.527 209.338,110.527 209.5,108.5C 212.964,104.318 215.964,104.651 218.5,109.5 Z"/></g>
<g><path style="opacity:1" fill="#9a9391" d="M 156.5,112.5 C 156.141,114.371 155.141,115.871 153.5,117C 153.728,117.399 154.062,117.565 154.5,117.5C 154.733,119.062 155.4,120.395 156.5,121.5C 155.833,121.5 155.167,121.5 154.5,121.5C 154.389,120.883 154.056,120.383 153.5,120C 150.773,119.182 148.106,119.348 145.5,120.5C 142.43,123.564 139.763,126.897 137.5,130.5C 136.527,132.139 135.194,133.473 133.5,134.5C 133.158,133.662 132.492,133.328 131.5,133.5C 133.206,128.712 136.206,124.212 140.5,120C 137.398,119.056 134.398,117.889 131.5,116.5C 128.367,111.995 127.7,106.995 129.5,101.5C 132.874,101.797 135.707,103.13 138,105.5C 140.346,109.421 142.513,113.421 144.5,117.5C 147.071,116.272 148.405,114.272 148.5,111.5C 147.448,111.649 146.448,111.483 145.5,111C 147.979,107.594 151.312,106.094 155.5,106.5C 155.517,108.565 155.85,110.565 156.5,112.5 Z"/></g>
<g><path style="opacity:1" fill="#2e54d5" d="M 218.5,109.5 C 219.29,110.609 219.79,111.942 220,113.5C 221.145,112.364 222.312,111.364 223.5,110.5C 224.117,110.611 224.617,110.944 225,111.5C 225.498,114.482 225.665,117.482 225.5,120.5C 225.747,123.939 225.414,127.272 224.5,130.5C 215.019,129.729 206.019,127.229 197.5,123C 205.768,124.755 214.101,126.589 222.5,128.5C 223.416,128.457 224.083,128.124 224.5,127.5C 224.663,125.143 224.497,122.81 224,120.5C 222.921,118.606 221.587,118.273 220,119.5C 218.795,117.804 218.295,116.137 218.5,114.5C 218.5,112.833 218.5,111.167 218.5,109.5 Z"/></g>
<g><path style="opacity:1" fill="#1741b2" d="M 183.5,109.5 C 187.846,109.854 189.513,112.187 188.5,116.5C 187.539,118.265 187.205,120.265 187.5,122.5C 190.167,123.167 192.833,123.833 195.5,124.5C 195.778,126.346 195.111,127.68 193.5,128.5C 192.07,126.614 190.403,124.947 188.5,123.5C 187.365,125.707 186.699,128.04 186.5,130.5C 185.691,128.708 185.191,126.708 185,124.5C 184.536,125.094 184.369,125.761 184.5,126.5C 183.052,124.49 181.719,122.323 180.5,120C 182.742,117.881 183.075,115.381 181.5,112.5C 181.942,111.261 182.609,110.261 183.5,109.5 Z"/></g>
<g><path style="opacity:1" fill="#2244b7" d="M 176.5,95.5 C 177.167,97.8333 177.833,100.167 178.5,102.5C 179.833,104.167 181.167,105.833 182.5,107.5C 182.062,107.435 181.728,107.601 181.5,108C 182.416,108.278 183.082,108.778 183.5,109.5C 182.609,110.261 181.942,111.261 181.5,112.5C 183.075,115.381 182.742,117.881 180.5,120C 181.719,122.323 183.052,124.49 184.5,126.5C 182.874,130.794 183.208,134.794 185.5,138.5C 185.607,140.379 185.107,140.712 184,139.5C 182.971,135.571 182.137,131.571 181.5,127.5C 179.338,123.71 177.005,123.71 174.5,127.5C 173.605,130.846 172.271,133.846 170.5,136.5C 169.781,134.236 169.448,131.903 169.5,129.5C 169.423,125.037 170.09,120.704 171.5,116.5C 173.735,113.983 175.235,110.983 176,107.5C 176.499,103.848 176.665,100.182 176.5,96.5C 176.5,96.1667 176.5,95.8333 176.5,95.5 Z"/></g>
<g><path style="opacity:1" fill="#204bcd" d="M 206.5,97.5 C 207.117,97.6107 207.617,97.944 208,98.5C 208.248,101.919 208.748,105.253 209.5,108.5C 209.338,110.527 209.505,112.527 210,114.5C 212.966,118.467 215.799,118.467 218.5,114.5C 218.295,116.137 218.795,117.804 220,119.5C 221.587,118.273 222.921,118.606 224,120.5C 224.497,122.81 224.663,125.143 224.5,127.5C 215.623,125.986 206.957,123.653 198.5,120.5C 197.755,118.253 196.422,116.42 194.5,115C 195.167,114.667 195.833,114.333 196.5,114C 190.294,112.291 190.627,111.124 197.5,110.5C 198.791,110.737 199.791,110.404 200.5,109.5C 207.249,107.935 209.249,103.935 206.5,97.5 Z"/></g>
<g><path style="opacity:1" fill="#552c27" d="M 154.5,121.5 C 151.471,124.859 148.471,128.192 145.5,131.5C 143.052,130.527 140.385,130.194 137.5,130.5C 139.763,126.897 142.43,123.564 145.5,120.5C 148.106,119.348 150.773,119.182 153.5,120C 154.056,120.383 154.389,120.883 154.5,121.5 Z"/></g>
<g><path style="opacity:0.929" fill="#adbefc" d="M 225.5,120.5 C 226.167,120.5 226.833,120.5 227.5,120.5C 227.267,123.947 226.767,127.614 226,131.5C 225.722,132.416 225.222,133.082 224.5,133.5C 224.5,132.5 224.5,131.5 224.5,130.5C 225.414,127.272 225.747,123.939 225.5,120.5 Z"/></g>
<g><path style="opacity:0.978" fill="#b1cbff" d="M 171.5,116.5 C 170.09,120.704 169.423,125.037 169.5,129.5C 168.833,129.5 168.167,129.5 167.5,129.5C 167.5,129.167 167.5,128.833 167.5,128.5C 167.966,124.114 169.299,120.114 171.5,116.5 Z"/></g>
<g><path style="opacity:1" fill="#133496" d="M 185.5,138.5 C 186.962,139.458 188.295,140.624 189.5,142C 187.109,142.691 187.109,143.691 189.5,145C 190.5,145.5 191.5,146 192.5,146.5C 192.833,145.833 193.167,145.167 193.5,144.5C 199.833,147.667 206.167,150.833 212.5,154C 213.84,156.179 213.507,156.679 211.5,155.5C 205.227,152.029 198.56,149.696 191.5,148.5C 185.2,145.367 180.367,140.701 177,134.5C 175.939,137.166 175.106,139.833 174.5,142.5C 172.684,140.882 171.351,138.882 170.5,136.5C 172.271,133.846 173.605,130.846 174.5,127.5C 177.005,123.71 179.338,123.71 181.5,127.5C 182.137,131.571 182.971,135.571 184,139.5C 185.107,140.712 185.607,140.379 185.5,138.5 Z"/></g>
<g><path style="opacity:1" fill="#2248c0" d="M 182.5,107.5 C 187.198,109.881 192.198,110.881 197.5,110.5C 190.627,111.124 190.294,112.291 196.5,114C 195.833,114.333 195.167,114.667 194.5,115C 196.422,116.42 197.755,118.253 198.5,120.5C 206.957,123.653 215.623,125.986 224.5,127.5C 224.083,128.124 223.416,128.457 222.5,128.5C 214.101,126.589 205.768,124.755 197.5,123C 206.019,127.229 215.019,129.729 224.5,130.5C 224.5,131.5 224.5,132.5 224.5,133.5C 224.557,134.609 224.89,135.609 225.5,136.5C 222.62,136.06 219.954,135.06 217.5,133.5C 213.352,132.876 209.018,132.876 204.5,133.5C 201.275,132.902 198.275,131.568 195.5,129.5C 196.706,127.484 196.706,125.484 195.5,123.5C 193.459,122.764 191.459,121.931 189.5,121C 188.62,119.644 188.286,118.144 188.5,116.5C 189.513,112.187 187.846,109.854 183.5,109.5C 183.082,108.778 182.416,108.278 181.5,108C 181.728,107.601 182.062,107.435 182.5,107.5 Z"/></g>
<g><path style="opacity:1" fill="#153dab" d="M 188.5,116.5 C 188.286,118.144 188.62,119.644 189.5,121C 191.459,121.931 193.459,122.764 195.5,123.5C 196.706,125.484 196.706,127.484 195.5,129.5C 198.275,131.568 201.275,132.902 204.5,133.5C 203.167,133.833 201.833,134.167 200.5,134.5C 199.833,134.5 199.167,134.5 198.5,134.5C 194.629,134.185 190.962,134.518 187.5,135.5C 186.172,134.09 186.505,132.924 188.5,132C 187.956,131.283 187.289,130.783 186.5,130.5C 186.699,128.04 187.365,125.707 188.5,123.5C 190.403,124.947 192.07,126.614 193.5,128.5C 195.111,127.68 195.778,126.346 195.5,124.5C 192.833,123.833 190.167,123.167 187.5,122.5C 187.205,120.265 187.539,118.265 188.5,116.5 Z"/></g>
<g><path style="opacity:1" fill="#2352d9" d="M 217.5,133.5 C 214.445,134.036 211.445,134.869 208.5,136C 213.37,139.559 218.37,143.726 223.5,148.5C 224.761,150.29 226.261,151.957 228,153.5C 228.848,156.56 229.848,159.56 231,162.5C 232.627,159.643 233.793,156.643 234.5,153.5C 236.621,153.325 238.621,153.659 240.5,154.5C 237.644,159.404 235.978,164.737 235.5,170.5C 234.662,170.842 234.328,171.508 234.5,172.5C 233.734,170.316 233.067,167.982 232.5,165.5C 231.306,164.33 230.639,164.663 230.5,166.5C 226.708,162.064 223.541,157.064 221,151.5C 215.446,145.315 208.946,140.482 201.5,137C 200.748,136.329 200.414,135.496 200.5,134.5C 201.833,134.167 203.167,133.833 204.5,133.5C 209.018,132.876 213.352,132.876 217.5,133.5 Z"/></g>
<g><path style="opacity:1" fill="#082177" d="M 171.5,143.5 C 170.492,145.339 168.992,146.672 167,147.5C 162.552,146.629 158.052,145.796 153.5,145C 148.856,143.025 146.69,139.525 147,134.5C 146.768,135.737 146.268,136.737 145.5,137.5C 146.788,131.519 150.122,126.853 155.5,123.5C 155.295,127.27 155.628,131.27 156.5,135.5C 158.852,138.174 161.852,139.507 165.5,139.5C 165.5,141.5 165.5,143.5 165.5,145.5C 167.685,145.296 169.685,144.63 171.5,143.5 Z"/></g>
<g><path style="opacity:1" fill="#2657e5" d="M 217.5,133.5 C 219.954,135.06 222.62,136.06 225.5,136.5C 227.114,138.456 228.781,140.456 230.5,142.5C 229.264,142.989 227.764,142.989 226,142.5C 225.676,144.569 224.842,144.902 223.5,143.5C 222.948,145.003 222.948,146.669 223.5,148.5C 218.37,143.726 213.37,139.559 208.5,136C 211.445,134.869 214.445,134.036 217.5,133.5 Z"/></g>
<g><path style="opacity:0.957" fill="#b1c5ff" d="M 225.5,136.5 C 228.522,137.522 230.522,139.522 231.5,142.5C 231.167,142.5 230.833,142.5 230.5,142.5C 228.781,140.456 227.114,138.456 225.5,136.5 Z"/></g>
<g><path style="opacity:1" fill="#78391b" d="M 137.5,130.5 C 140.385,130.194 143.052,130.527 145.5,131.5C 143.404,134.262 141.738,137.262 140.5,140.5C 139.523,143.287 139.19,146.287 139.5,149.5C 138.969,152.237 138.136,154.904 137,157.5C 135.204,158.767 133.371,158.767 131.5,157.5C 129.112,154.446 126.446,151.779 123.5,149.5C 126.85,144.489 130.183,139.489 133.5,134.5C 135.194,133.473 136.527,132.139 137.5,130.5 Z"/></g>
<g><path style="opacity:1" fill="#dea17b" d="M 131.5,133.5 C 132.492,133.328 133.158,133.662 133.5,134.5C 128.655,139.183 124.322,144.35 120.5,150C 121.423,152.041 121.756,154.208 121.5,156.5C 119.362,153.913 118.529,150.913 119,147.5C 122.29,142.043 126.457,137.377 131.5,133.5 Z"/></g>
<g><path style="opacity:1" fill="#152d9a" d="M 154.5,121.5 C 155.167,121.5 155.833,121.5 156.5,121.5C 158.662,121.897 159.995,123.231 160.5,125.5C 162.739,126.788 165.072,127.788 167.5,128.5C 167.5,128.833 167.5,129.167 167.5,129.5C 168.094,134.086 169.428,138.419 171.5,142.5C 171.5,142.833 171.5,143.167 171.5,143.5C 169.685,144.63 167.685,145.296 165.5,145.5C 165.5,143.5 165.5,141.5 165.5,139.5C 161.852,139.507 158.852,138.174 156.5,135.5C 155.628,131.27 155.295,127.27 155.5,123.5C 150.122,126.853 146.788,131.519 145.5,137.5C 144.193,140.725 143.193,144.059 142.5,147.5C 141.883,147.611 141.383,147.944 141,148.5C 140.503,145.854 140.336,143.187 140.5,140.5C 141.738,137.262 143.404,134.262 145.5,131.5C 148.471,128.192 151.471,124.859 154.5,121.5 Z"/></g>
<g><path style="opacity:1" fill="#305ce6" d="M 230.5,142.5 C 230.833,142.5 231.167,142.5 231.5,142.5C 232.674,143.514 233.34,144.847 233.5,146.5C 233.993,148.806 234.326,151.139 234.5,153.5C 233.793,156.643 232.627,159.643 231,162.5C 229.848,159.56 228.848,156.56 228,153.5C 226.261,151.957 224.761,150.29 223.5,148.5C 222.948,146.669 222.948,145.003 223.5,143.5C 224.842,144.902 225.676,144.569 226,142.5C 227.764,142.989 229.264,142.989 230.5,142.5 Z"/></g>
<g><path style="opacity:1" fill="#1f4ccf" d="M 198.5,134.5 C 199.167,134.5 199.833,134.5 200.5,134.5C 200.414,135.496 200.748,136.329 201.5,137C 208.946,140.482 215.446,145.315 221,151.5C 223.541,157.064 226.708,162.064 230.5,166.5C 230.026,169.686 228.693,170.186 226.5,168C 222.695,162.548 219.362,156.881 216.5,151C 210.177,146.502 203.511,142.502 196.5,139C 195.643,138.311 194.977,137.478 194.5,136.5C 195.949,135.828 197.282,135.161 198.5,134.5 Z"/></g>
<g><path style="opacity:1" fill="#081f68" d="M 171.5,143.5 C 171.5,143.167 171.5,142.833 171.5,142.5C 173.156,144.46 174.823,146.46 176.5,148.5C 174.426,149.514 172.426,150.514 170.5,151.5C 165.431,151.75 160.598,152.084 156,152.5C 152.345,151.467 149.178,149.634 146.5,147C 145.072,146.421 143.738,146.588 142.5,147.5C 143.193,144.059 144.193,140.725 145.5,137.5C 146.268,136.737 146.768,135.737 147,134.5C 146.69,139.525 148.856,143.025 153.5,145C 158.052,145.796 162.552,146.629 167,147.5C 168.992,146.672 170.492,145.339 171.5,143.5 Z"/></g>
<g><path style="opacity:1" fill="#163ba4" d="M 186.5,130.5 C 187.289,130.783 187.956,131.283 188.5,132C 186.505,132.924 186.172,134.09 187.5,135.5C 188.591,138.428 190.591,140.594 193.5,142C 200.905,145.452 208.072,149.285 215,153.5C 217.568,157.612 219.235,161.945 220,166.5C 219.333,165.167 218.667,163.833 218,162.5C 218.086,165.702 219.086,168.702 221,171.5C 222,171.5 223,171.5 224,171.5C 224.5,172.5 225,173.5 225.5,174.5C 224.833,174.833 224.167,175.167 223.5,175.5C 224.952,176.94 225.952,178.606 226.5,180.5C 225.542,180.047 224.708,179.381 224,178.5C 223.667,179.5 223.333,180.5 223,181.5C 220.583,178.598 218.416,175.598 216.5,172.5C 216.25,171.078 215.417,170.078 214,169.5C 212.144,164.842 211.311,160.176 211.5,155.5C 213.507,156.679 213.84,156.179 212.5,154C 206.167,150.833 199.833,147.667 193.5,144.5C 193.167,145.167 192.833,145.833 192.5,146.5C 191.5,146 190.5,145.5 189.5,145C 187.109,143.691 187.109,142.691 189.5,142C 188.295,140.624 186.962,139.458 185.5,138.5C 183.208,134.794 182.874,130.794 184.5,126.5C 184.369,125.761 184.536,125.094 185,124.5C 185.191,126.708 185.691,128.708 186.5,130.5 Z"/></g>
<g><path style="opacity:1" fill="#0b1e59" d="M 176.5,148.5 C 177.833,149.167 179.167,149.833 180.5,150.5C 182.059,152.624 184.059,154.291 186.5,155.5C 182.69,156.071 179.024,156.904 175.5,158C 166.334,159.3 157.5,158.134 149,154.5C 146.863,155.077 144.696,155.41 142.5,155.5C 142.5,155.167 142.5,154.833 142.5,154.5C 143.5,154.5 144.5,154.5 145.5,154.5C 145.351,153.448 145.517,152.448 146,151.5C 152.032,152.954 158.032,154.62 164,156.5C 165.825,156.057 167.658,155.723 169.5,155.5C 169.36,153.876 170.027,152.71 171.5,152C 171.272,151.601 170.938,151.435 170.5,151.5C 172.426,150.514 174.426,149.514 176.5,148.5 Z"/></g>
<g><path style="opacity:1" fill="#1944be" d="M 198.5,134.5 C 197.282,135.161 195.949,135.828 194.5,136.5C 194.977,137.478 195.643,138.311 196.5,139C 203.511,142.502 210.177,146.502 216.5,151C 219.362,156.881 222.695,162.548 226.5,168C 228.693,170.186 230.026,169.686 230.5,166.5C 230.639,164.663 231.306,164.33 232.5,165.5C 233.067,167.982 233.734,170.316 234.5,172.5C 233.606,175.957 231.94,178.957 229.5,181.5C 228.391,181.443 227.391,181.11 226.5,180.5C 225.952,178.606 224.952,176.94 223.5,175.5C 224.167,175.167 224.833,174.833 225.5,174.5C 225,173.5 224.5,172.5 224,171.5C 223,171.5 222,171.5 221,171.5C 219.086,168.702 218.086,165.702 218,162.5C 218.667,163.833 219.333,165.167 220,166.5C 219.235,161.945 217.568,157.612 215,153.5C 208.072,149.285 200.905,145.452 193.5,142C 190.591,140.594 188.591,138.428 187.5,135.5C 190.962,134.518 194.629,134.185 198.5,134.5 Z"/></g>
<g><path style="opacity:0.239" fill="#fef1ec" d="M 247.5,149.5 C 255.054,147.107 260.721,149.44 264.5,156.5C 260.112,151.142 254.446,148.808 247.5,149.5 Z"/></g>
<g><path style="opacity:1" fill="#0a1f60" d="M 140.5,140.5 C 140.336,143.187 140.503,145.854 141,148.5C 141.383,147.944 141.883,147.611 142.5,147.5C 143.738,146.588 145.072,146.421 146.5,147C 149.178,149.634 152.345,151.467 156,152.5C 160.598,152.084 165.431,151.75 170.5,151.5C 170.938,151.435 171.272,151.601 171.5,152C 170.027,152.71 169.36,153.876 169.5,155.5C 167.658,155.723 165.825,156.057 164,156.5C 158.032,154.62 152.032,152.954 146,151.5C 145.517,152.448 145.351,153.448 145.5,154.5C 144.5,154.5 143.5,154.5 142.5,154.5C 141.313,152.928 140.313,151.261 139.5,149.5C 139.19,146.287 139.523,143.287 140.5,140.5 Z"/></g>
<g><path style="opacity:0.933" fill="#a8b9fb" d="M 233.5,146.5 C 234.927,148.148 235.76,150.148 236,152.5C 237.749,151.447 239.249,151.78 240.5,153.5C 240.5,153.833 240.5,154.167 240.5,154.5C 238.621,153.659 236.621,153.325 234.5,153.5C 234.326,151.139 233.993,148.806 233.5,146.5 Z"/></g>
<g><path style="opacity:1" fill="#68402e" d="M 133.5,134.5 C 130.183,139.489 126.85,144.489 123.5,149.5C 126.446,151.779 129.112,154.446 131.5,157.5C 133.371,158.767 135.204,158.767 137,157.5C 138.136,154.904 138.969,152.237 139.5,149.5C 140.313,151.261 141.313,152.928 142.5,154.5C 142.5,154.833 142.5,155.167 142.5,155.5C 142.5,155.833 142.5,156.167 142.5,156.5C 135.5,164.5 128.5,164.5 121.5,156.5C 121.756,154.208 121.423,152.041 120.5,150C 124.322,144.35 128.655,139.183 133.5,134.5 Z"/></g>
<g><path style="opacity:1" fill="#192a6d" d="M 167.5,129.5 C 168.167,129.5 168.833,129.5 169.5,129.5C 169.448,131.903 169.781,134.236 170.5,136.5C 171.351,138.882 172.684,140.882 174.5,142.5C 175.105,144.026 176.271,145.026 178,145.5C 178.333,144.833 178.667,144.167 179,143.5C 183.78,144.821 188.28,147.321 192.5,151C 197.252,151.38 201.585,152.88 205.5,155.5C 207.722,157.884 208.056,160.551 206.5,163.5C 205.833,163.167 205.167,162.833 204.5,162.5C 200.203,161.345 196.203,159.679 192.5,157.5C 188.836,154.665 184.836,152.332 180.5,150.5C 179.167,149.833 177.833,149.167 176.5,148.5C 174.823,146.46 173.156,144.46 171.5,142.5C 169.428,138.419 168.094,134.086 167.5,129.5 Z"/></g>
<g><path style="opacity:1" fill="#576093" d="M 180.5,150.5 C 184.836,152.332 188.836,154.665 192.5,157.5C 191.07,157.579 189.736,157.246 188.5,156.5C 175.208,162.03 162.041,161.697 149,155.5C 146.901,156.287 144.734,156.62 142.5,156.5C 142.5,156.167 142.5,155.833 142.5,155.5C 144.696,155.41 146.863,155.077 149,154.5C 157.5,158.134 166.334,159.3 175.5,158C 179.024,156.904 182.69,156.071 186.5,155.5C 184.059,154.291 182.059,152.624 180.5,150.5 Z"/></g>
<g><path style="opacity:1" fill="#0f2b7e" d="M 211.5,155.5 C 211.311,160.176 212.144,164.842 214,169.5C 215.417,170.078 216.25,171.078 216.5,172.5C 214.958,171.699 213.292,171.366 211.5,171.5C 211.672,169.508 211.005,167.842 209.5,166.5C 210.462,164.117 209.462,163.117 206.5,163.5C 208.056,160.551 207.722,157.884 205.5,155.5C 201.585,152.88 197.252,151.38 192.5,151C 188.28,147.321 183.78,144.821 179,143.5C 178.667,144.167 178.333,144.833 178,145.5C 176.271,145.026 175.105,144.026 174.5,142.5C 175.106,139.833 175.939,137.166 177,134.5C 180.367,140.701 185.2,145.367 191.5,148.5C 198.56,149.696 205.227,152.029 211.5,155.5 Z"/></g>
<g><path style="opacity:1" fill="#975138" d="M 245.5,150.5 C 246.239,150.369 246.906,150.536 247.5,151C 246.663,152.011 246.33,153.178 246.5,154.5C 249.642,154.799 251.809,156.466 253,159.5C 254.388,158.446 255.888,158.28 257.5,159C 258.12,161.473 258.786,163.973 259.5,166.5C 261.538,164.03 263.205,161.363 264.5,158.5C 266.345,162.884 265.345,166.551 261.5,169.5C 261.565,169.062 261.399,168.728 261,168.5C 259.115,170.02 256.949,171.02 254.5,171.5C 252.766,169.766 250.766,168.432 248.5,167.5C 247.873,166.583 247.539,165.583 247.5,164.5C 247.347,161.795 247.347,159.128 247.5,156.5C 246.127,156.657 244.793,156.49 243.5,156C 244.244,154.185 244.911,152.352 245.5,150.5 Z"/></g>
<g><path style="opacity:1" fill="#b46039" d="M 245.5,150.5 C 245.842,149.662 246.508,149.328 247.5,149.5C 254.446,148.808 260.112,151.142 264.5,156.5C 264.5,157.167 264.5,157.833 264.5,158.5C 263.205,161.363 261.538,164.03 259.5,166.5C 258.786,163.973 258.12,161.473 257.5,159C 255.888,158.28 254.388,158.446 253,159.5C 251.809,156.466 249.642,154.799 246.5,154.5C 246.33,153.178 246.663,152.011 247.5,151C 246.906,150.536 246.239,150.369 245.5,150.5 Z"/></g>
<g><path style="opacity:1" fill="#713c2a" d="M 245.5,150.5 C 244.911,152.352 244.244,154.185 243.5,156C 244.793,156.49 246.127,156.657 247.5,156.5C 247.347,159.128 247.347,161.795 247.5,164.5C 246.624,164.369 245.957,164.702 245.5,165.5C 246.556,167.706 246.556,169.706 245.5,171.5C 243.099,172.451 240.932,173.784 239,175.5C 236.862,174.57 235.695,172.903 235.5,170.5C 235.978,164.737 237.644,159.404 240.5,154.5C 240.5,154.167 240.5,153.833 240.5,153.5C 241.922,152.075 243.589,151.075 245.5,150.5 Z"/></g>
<g><path style="opacity:1" fill="#223688" d="M 204.5,162.5 C 205.167,162.833 205.833,163.167 206.5,163.5C 209.462,163.117 210.462,164.117 209.5,166.5C 211.005,167.842 211.672,169.508 211.5,171.5C 213.292,171.366 214.958,171.699 216.5,172.5C 218.416,175.598 220.583,178.598 223,181.5C 223.333,180.5 223.667,179.5 224,178.5C 224.708,179.381 225.542,180.047 226.5,180.5C 227.391,181.11 228.391,181.443 229.5,181.5C 228.5,182.833 227.5,184.167 226.5,185.5C 224.074,187.38 221.408,188.713 218.5,189.5C 216.461,184.566 213.628,179.9 210,175.5C 208.063,171.183 206.23,166.85 204.5,162.5 Z"/></g>
<g><path style="opacity:1" fill="#693319" d="M 247.5,164.5 C 247.539,165.583 247.873,166.583 248.5,167.5C 250.766,168.432 252.766,169.766 254.5,171.5C 256.949,171.02 259.115,170.02 261,168.5C 261.399,168.728 261.565,169.062 261.5,169.5C 258.5,173.167 255.167,176.5 251.5,179.5C 249.287,180.279 246.787,180.279 244,179.5C 242.513,180.253 242.346,181.086 243.5,182C 240.65,183.927 237.983,186.094 235.5,188.5C 233.955,189.452 232.288,189.785 230.5,189.5C 230.509,187.692 230.009,186.025 229,184.5C 228.162,185.999 227.329,186.332 226.5,185.5C 227.5,184.167 228.5,182.833 229.5,181.5C 231.94,178.957 233.606,175.957 234.5,172.5C 234.328,171.508 234.662,170.842 235.5,170.5C 235.695,172.903 236.862,174.57 239,175.5C 240.932,173.784 243.099,172.451 245.5,171.5C 246.556,169.706 246.556,167.706 245.5,165.5C 245.957,164.702 246.624,164.369 247.5,164.5 Z"/></g>
<g><path style="opacity:1" fill="#db9565" d="M 264.5,156.5 C 265.117,156.611 265.617,156.944 266,157.5C 266.889,161.152 267.222,164.818 267,168.5C 260.445,176.691 252.611,183.357 243.5,188.5C 241.94,190.945 239.94,192.945 237.5,194.5C 237.343,193.127 237.51,191.793 238,190.5C 242.374,186.621 246.874,182.954 251.5,179.5C 255.167,176.5 258.5,173.167 261.5,169.5C 265.345,166.551 266.345,162.884 264.5,158.5C 264.5,157.833 264.5,157.167 264.5,156.5 Z"/></g>
<g><path style="opacity:1" fill="#5b331e" d="M 251.5,179.5 C 246.874,182.954 242.374,186.621 238,190.5C 237.51,191.793 237.343,193.127 237.5,194.5C 236.167,195.167 235.167,196.167 234.5,197.5C 231.833,197.5 229.167,197.5 226.5,197.5C 222.861,195.861 220.195,193.195 218.5,189.5C 221.408,188.713 224.074,187.38 226.5,185.5C 227.329,186.332 228.162,185.999 229,184.5C 230.009,186.025 230.509,187.692 230.5,189.5C 232.288,189.785 233.955,189.452 235.5,188.5C 237.983,186.094 240.65,183.927 243.5,182C 242.346,181.086 242.513,180.253 244,179.5C 246.787,180.279 249.287,180.279 251.5,179.5 Z"/></g>
</svg>
