<?xml version="1.0" encoding="UTF-8"?>
<!DOCTYPE svg PUBLIC "-//W3C//DTD SVG 1.1//EN" "http://www.w3.org/Graphics/SVG/1.1/DTD/svg11.dtd">
<svg xmlns="http://www.w3.org/2000/svg" version="1.1" width="400px" height="198px" style="shape-rendering:geometricPrecision; text-rendering:geometricPrecision; image-rendering:optimizeQuality; fill-rule:evenodd; clip-rule:evenodd" xmlns:xlink="http://www.w3.org/1999/xlink">
<g><path style="opacity:0.153" fill="#0d0003" d="M 7.5,37.5 C 8.77329,38.0768 8.77329,38.7435 7.5,39.5C 6.53705,39.0302 6.53705,38.3635 7.5,37.5 Z"/></g>
<g><path style="opacity:0.078" fill="#0a020d" d="M 4.5,45.5 C 3.42654,44.7494 3.25988,43.7494 4,42.5C 4.48278,43.448 4.64945,44.448 4.5,45.5 Z"/></g>
<g><path style="opacity:0.153" fill="#100504" d="M 394.5,46.5 C 265.833,46.5 137.167,46.5 8.5,46.5C 8.5,46.1667 8.5,45.8333 8.5,45.5C 134.403,45.8323 260.237,45.4989 386,44.5C 388.939,45.1281 391.772,45.7948 394.5,46.5 Z"/></g>
<g><path style="opacity:0.269" fill="#0a000e" d="M 0.5,152.5 C 2.85187,153.543 3.01854,154.876 1,156.5C 0.50999,155.207 0.343323,153.873 0.5,152.5 Z"/></g>
<g><path style="opacity:0.269" fill="#0a000e" d="M 399.5,152.5 C 399.5,153.833 399.5,155.167 399.5,156.5C 396.833,155.167 396.833,153.833 399.5,152.5 Z"/></g>
<g><path style="opacity:0.078" fill="#09000b" d="M 1.5,158.5 C 2.83333,159.167 2.83333,159.167 1.5,158.5 Z"/></g>
<g><path style="opacity:0.616" fill="#1c0a0a" d="M 4.5,45.5 C 5.83333,45.5 7.16667,45.5 8.5,45.5C 8.5,45.8333 8.5,46.1667 8.5,46.5C 7.20895,46.2627 6.20895,46.596 5.5,47.5C 4.16667,84.1667 4.16667,120.833 5.5,157.5C 135.167,158.833 264.833,158.833 394.5,157.5C 395.498,120.67 395.832,83.6704 395.5,46.5C 396.419,48.3908 397.086,51.0575 397.5,54.5C 396.843,89.382 396.176,124.215 395.5,159C 392.475,159.361 389.475,159.861 386.5,160.5C 262.167,159.167 137.833,159.167 13.5,160.5C 10.2651,159.969 7.09847,159.302 4,158.5C 3.17356,120.762 3.34022,83.0954 4.5,45.5 Z"/></g>
<g><path style="opacity:1" fill="#b63631" d="M 393.5,48.5 C 393.833,48.5 394.167,48.5 394.5,48.5C 394.5,84.8333 394.5,121.167 394.5,157.5C 264.833,158.833 135.167,158.833 5.5,157.5C 5.17075,142.99 5.50408,128.657 6.5,114.5C 6.5,128.5 6.5,142.5 6.5,156.5C 135.5,156.5 264.5,156.5 393.5,156.5C 393.5,121.167 393.5,85.8333 393.5,50.5C 393.5,49.8333 393.5,49.1667 393.5,48.5 Z"/></g>
<g><path style="opacity:1" fill="#fe4d47" d="M 393.5,50.5 C 393.5,85.8333 393.5,121.167 393.5,156.5C 264.5,156.5 135.5,156.5 6.5,156.5C 6.5,142.5 6.5,128.5 6.5,114.5C 8.31833,127.128 9.15166,140.128 9,153.5C 10.1939,154.43 11.5272,155.097 13,155.5C 137.667,154.167 262.333,154.167 387,155.5C 388.473,155.097 389.806,154.43 391,153.5C 391.333,119.5 391.667,85.5 392,51.5C 392.383,50.944 392.883,50.6107 393.5,50.5 Z"/></g>
<g><path style="opacity:1" fill="#ee4845" d="M 393.5,48.5 C 393.5,49.1667 393.5,49.8333 393.5,50.5C 392.883,50.6107 392.383,50.944 392,51.5C 391.667,85.5 391.333,119.5 391,153.5C 389.806,154.43 388.473,155.097 387,155.5C 262.333,154.167 137.667,154.167 13,155.5C 11.5272,155.097 10.1939,154.43 9,153.5C 9.15166,140.128 8.31833,127.128 6.5,114.5C 6.5,92.5 6.5,70.5 6.5,48.5C 135.5,48.5 264.5,48.5 393.5,48.5 Z"/></g>
<g><path style="opacity:1" fill="#020000" d="M 302.5,73.5 C 309.175,73.3337 315.842,73.5004 322.5,74C 329.266,77.0964 333.432,82.2631 335,89.5C 335.772,94.9042 335.439,100.238 334,105.5C 332.105,108.705 330.272,111.872 328.5,115C 330.443,120.831 332.777,126.498 335.5,132C 332.118,132.824 328.784,132.657 325.5,131.5C 323.695,126.751 321.695,122.085 319.5,117.5C 316.914,116.52 314.247,116.187 311.5,116.5C 311.5,121.833 311.5,127.167 311.5,132.5C 308.5,132.5 305.5,132.5 302.5,132.5C 302.5,112.833 302.5,93.1667 302.5,73.5 Z"/></g>
<g><path style="opacity:1" fill="#eb4744" d="M 320.5,85.5 C 327.547,90.9562 328.214,97.1229 322.5,104C 319.183,104.498 315.85,104.665 312.5,104.5C 312.5,98.1667 312.5,91.8333 312.5,85.5C 315.167,85.5 317.833,85.5 320.5,85.5 Z"/></g>
<g><path style="opacity:1" fill="#882523" d="M 320.5,85.5 C 317.833,85.5 315.167,85.5 312.5,85.5C 312.5,91.8333 312.5,98.1667 312.5,104.5C 311.509,98.021 311.176,91.3543 311.5,84.5C 314.713,84.19 317.713,84.5233 320.5,85.5 Z"/></g>
<g><path style="opacity:1" fill="#020000" d="M 280.5,73.5 C 280.5,77.1667 280.5,80.8333 280.5,84.5C 273.5,84.5 266.5,84.5 259.5,84.5C 259.5,89.8333 259.5,95.1667 259.5,100.5C 264.833,100.5 270.167,100.5 275.5,100.5C 275.5,104.167 275.5,107.833 275.5,111.5C 270.167,111.5 264.833,111.5 259.5,111.5C 259.5,114.5 259.5,117.5 259.5,120.5C 267.167,120.5 274.833,120.5 282.5,120.5C 282.5,124.5 282.5,128.5 282.5,132.5C 271.833,132.5 261.167,132.5 250.5,132.5C 250.5,112.833 250.5,93.1667 250.5,73.5C 260.5,73.5 270.5,73.5 280.5,73.5 Z"/></g>
<g><path style="opacity:1" fill="#6e1c1a" d="M 280.5,73.5 C 270.5,73.5 260.5,73.5 250.5,73.5C 250.5,93.1667 250.5,112.833 250.5,132.5C 249.503,112.674 249.17,92.6736 249.5,72.5C 260.014,72.1724 270.347,72.5058 280.5,73.5 Z"/></g>
<g><path style="opacity:1" fill="#010000" d="M 205.5,99.5 C 205.217,98.7109 204.717,98.0442 204,97.5C 203.5,109.162 203.333,120.829 203.5,132.5C 200.5,132.5 197.5,132.5 194.5,132.5C 194.5,112.833 194.5,93.1667 194.5,73.5C 198.106,73.2108 201.606,73.5442 205,74.5C 210,85.5 215,96.5 220,107.5C 220.5,96.1716 220.667,84.8382 220.5,73.5C 223.833,73.5 227.167,73.5 230.5,73.5C 230.5,93.1667 230.5,112.833 230.5,132.5C 226.894,132.789 223.394,132.456 220,131.5C 215.426,120.688 210.593,110.022 205.5,99.5 Z"/></g>
<g><path style="opacity:1" fill="#611816" d="M 205.5,99.5 C 204.833,110.5 204.167,121.5 203.5,132.5C 203.333,120.829 203.5,109.162 204,97.5C 204.717,98.0442 205.217,98.7109 205.5,99.5 Z"/></g>
<g><path style="opacity:1" fill="#020000" d="M 119.5,73.5 C 122.833,73.5 126.167,73.5 129.5,73.5C 131.641,86.3762 134.474,99.0429 138,111.5C 139.359,105.952 140.859,100.452 142.5,95C 140.189,87.9018 138.189,80.7351 136.5,73.5C 139.833,73.5 143.167,73.5 146.5,73.5C 147.614,78.6294 148.281,78.6294 148.5,73.5C 152.182,73.3347 155.848,73.5014 159.5,74C 157.093,81.1199 154.76,88.2865 152.5,95.5C 154.52,100.769 156.354,106.102 158,111.5C 160.825,98.8814 163.325,86.2147 165.5,73.5C 168.833,73.5 172.167,73.5 175.5,73.5C 171.757,93.216 167.757,112.883 163.5,132.5C 160.167,132.5 156.833,132.5 153.5,132.5C 152.137,126.051 150.304,119.717 148,113.5C 145.534,119.348 143.367,125.348 141.5,131.5C 138.232,132.487 134.898,132.82 131.5,132.5C 127.976,112.738 123.976,93.0714 119.5,73.5 Z"/></g>
<g><path style="opacity:1" fill="#040000" d="M 75.5,73.5 C 93.7782,74.6155 103.111,84.4488 103.5,103C 103.438,120.005 95.105,129.838 78.5,132.5C 63.0823,128.885 55.0823,119.052 54.5,103C 54.8921,88.1548 61.8921,78.3214 75.5,73.5 Z"/></g>
<g><path style="opacity:1" fill="#ea4744" d="M 74.5,85.5 C 88.6779,85.1821 95.1779,92.1821 94,106.5C 91.1965,118.315 84.0298,122.482 72.5,119C 65.2214,113.164 62.7214,105.664 65,96.5C 66.7983,91.5179 69.965,87.8512 74.5,85.5 Z"/></g>
<g><path style="opacity:1" fill="#b43836" d="M 5.5,47.5 C 135.334,47.1671 265.001,47.5004 394.5,48.5C 394.167,48.5 393.833,48.5 393.5,48.5C 264.5,48.5 135.5,48.5 6.5,48.5C 6.5,70.5 6.5,92.5 6.5,114.5C 5.50408,128.657 5.17075,142.99 5.5,157.5C 4.16667,120.833 4.16667,84.1667 5.5,47.5 Z"/></g>
<g><path style="opacity:1" fill="#66201e" d="M 5.5,47.5 C 6.20895,46.596 7.20895,46.2627 8.5,46.5C 137.167,46.5 265.833,46.5 394.5,46.5C 394.833,46.5 395.167,46.5 395.5,46.5C 395.832,83.6704 395.498,120.67 394.5,157.5C 394.5,121.167 394.5,84.8333 394.5,48.5C 265.001,47.5004 135.334,47.1671 5.5,47.5 Z"/></g>
<g><path style="opacity:0.078" fill="#09000b" d="M 397.5,158.5 C 398.833,159.167 398.833,159.167 397.5,158.5 Z"/></g>
<g><path style="opacity:0.116" fill="#0d0108" d="M 3.5,162.5 C 5.41444,163.185 7.41444,163.685 9.5,164C 8.5,164.167 7.5,164.333 6.5,164.5C 4.97041,164.36 3.97041,163.693 3.5,162.5 Z"/></g>
<g><path style="opacity:0.116" fill="#0d0108" d="M 395.5,162.5 C 396.043,162.56 396.376,162.893 396.5,163.5C 394.579,164.641 392.579,164.808 390.5,164C 392.382,163.802 394.048,163.302 395.5,162.5 Z"/></g>
<g><path style="opacity:0.135" fill="#0e0104" d="M 6.5,167.5 C 9.13678,169.154 8.80345,169.654 5.5,169C 6.05596,168.617 6.38929,168.117 6.5,167.5 Z"/></g>
<g><path style="opacity:0.135" fill="#0e0104" d="M 392.5,167.5 C 395.137,169.154 394.803,169.654 391.5,169C 392.056,168.617 392.389,168.117 392.5,167.5 Z"/></g>
<g><path style="opacity:0.093" fill="#08040d" d="M 10.5,167.5 C 12.3675,168.786 12.5342,170.119 11,171.5C 9.23173,170.318 9.06507,168.985 10.5,167.5 Z"/></g>
<g><path style="opacity:0.093" fill="#08040d" d="M 388.5,167.5 C 390.852,168.543 391.019,169.876 389,171.5C 387.489,170.436 387.323,169.103 388.5,167.5 Z"/></g>
<g><path style="opacity:0.078" fill="#000c03" d="M 3.5,170.5 C 4.83333,171.167 4.83333,171.167 3.5,170.5 Z"/></g>
<g><path style="opacity:0.078" fill="#000c03" d="M 395.5,170.5 C 396.833,171.167 396.833,171.167 395.5,170.5 Z"/></g>
</svg>
