<?xml version="1.0" encoding="UTF-8"?>
<!DOCTYPE svg PUBLIC "-//W3C//DTD SVG 1.1//EN" "http://www.w3.org/Graphics/SVG/1.1/DTD/svg11.dtd">
<svg xmlns="http://www.w3.org/2000/svg" version="1.1" width="400px" height="198px" style="shape-rendering:geometricPrecision; text-rendering:geometricPrecision; image-rendering:optimizeQuality; fill-rule:evenodd; clip-rule:evenodd" xmlns:xlink="http://www.w3.org/1999/xlink">
<g><path style="opacity:0.998" fill="#ff0100" d="M 153.5,14.5 C 193.845,14.1916 234.178,14.6916 274.5,16C 299.149,16.9821 312.316,29.8155 314,54.5C 315.56,78.8087 315.894,103.142 315,127.5C 314.348,140.76 311.348,153.427 306,165.5C 301.714,171.724 295.881,175.557 288.5,177C 274.528,178.379 260.528,179.379 246.5,180C 204.827,180.625 163.16,180.292 121.5,179C 109.06,179.359 98.2263,175.526 89,167.5C 86.746,163.993 84.746,160.327 83,156.5C 80.1895,146.017 78.5228,135.35 78,124.5C 77.3333,106.833 77.3333,89.1667 78,71.5C 78.792,59.7039 80.4587,48.0373 83,36.5C 86.1667,28 92,22.1667 100.5,19C 118.233,16.624 135.9,15.124 153.5,14.5 Z"/></g>
<g><path style="opacity:1" fill="#ff3b3a" d="M 173.5,62.5 C 173.169,85.6727 173.502,108.673 174.5,131.5C 174.44,132.043 174.107,132.376 173.5,132.5C 172.171,109.003 172.171,85.6701 173.5,62.5 Z"/></g>
<g><path style="opacity:1" fill="#fffdfd" d="M 173.5,62.5 C 193.483,74.1391 213.483,85.8058 233.5,97.5C 213.969,109.098 194.303,120.431 174.5,131.5C 173.502,108.673 173.169,85.6727 173.5,62.5 Z"/></g>
</svg>
