<?xml version="1.0" encoding="UTF-8"?>
<!DOCTYPE svg PUBLIC "-//W3C//DTD SVG 1.1//EN" "http://www.w3.org/Graphics/SVG/1.1/DTD/svg11.dtd">
<svg xmlns="http://www.w3.org/2000/svg" version="1.1" width="400px" height="198px" style="shape-rendering:geometricPrecision; text-rendering:geometricPrecision; image-rendering:optimizeQuality; fill-rule:evenodd; clip-rule:evenodd" xmlns:xlink="http://www.w3.org/1999/xlink">
<g><path style="opacity:1" fill="#f5f4f4" d="M 284.5,26.5 C 287.691,29.4937 288.025,32.9937 285.5,37C 286.506,39.8173 285.506,41.6506 282.5,42.5C 279.193,46.4263 276.36,50.7596 274,55.5C 272.137,57.949 269.637,58.949 266.5,58.5C 262.491,58.9864 259.491,57.4864 257.5,54C 254.037,53.2124 251.037,51.5457 248.5,49C 243.991,49.1518 240.325,47.4852 237.5,44C 232.785,43.7406 228.452,42.4073 224.5,40C 221.854,39.5026 219.187,39.3359 216.5,39.5C 212.067,39.1733 207.733,38.6733 203.5,38C 209.839,49.5433 213.839,61.0433 215.5,72.5C 214.833,72.5 214.5,72.8333 214.5,73.5C 214.173,78.544 214.506,83.544 215.5,88.5C 223.982,82.5027 233.316,78.3361 243.5,76C 245.996,74.9196 248.33,73.5862 250.5,72C 261.396,69.9799 264.563,74.1466 260,84.5C 255.887,90.3908 252.554,96.7242 250,103.5C 246.451,109.886 241.951,115.553 236.5,120.5C 242.139,123.569 247.972,126.236 254,128.5C 254.346,130.218 254.846,131.885 255.5,133.5C 254.846,135.115 254.346,136.782 254,138.5C 247.199,140.99 240.366,143.49 233.5,146C 230.854,146.497 228.187,146.664 225.5,146.5C 227.027,157.065 232.694,160.232 242.5,156C 247.91,156.189 253.244,156.022 258.5,155.5C 266.043,154.962 273.377,154.629 280.5,154.5C 281.167,154.667 281.833,154.833 282.5,155C 282.011,156.552 282.678,157.719 284.5,158.5C 285.498,162.678 285.498,166.678 284.5,170.5C 282.921,173.305 281.254,176.138 279.5,179C 279.466,183.469 279.466,187.969 279.5,192.5C 278.902,193.795 278.402,195.128 278,196.5C 220.333,196.5 162.667,196.5 105,196.5C 103.868,194.661 103.035,192.661 102.5,190.5C 103.833,181.167 103.833,171.833 102.5,162.5C 103.253,160.247 104.586,158.413 106.5,157C 105.288,155.893 105.621,155.393 107.5,155.5C 107.5,156.167 107.833,156.5 108.5,156.5C 126.174,156.49 143.841,156.157 161.5,155.5C 161.924,152.646 162.924,149.979 164.5,147.5C 155.346,145.592 146.346,143.092 137.5,140C 133.5,135.667 133.5,131.333 137.5,127C 142.794,125.547 147.794,123.38 152.5,120.5C 143.974,111.449 137.474,101.116 133,89.5C 131.333,87.1667 129.667,84.8333 128,82.5C 127.502,79.5184 127.335,76.5184 127.5,73.5C 131.612,71.1365 135.945,70.9698 140.5,73C 146.084,76.3075 152.084,78.6408 158.5,80C 163.767,82.3663 168.767,85.1996 173.5,88.5C 174.493,83.8804 174.827,79.2137 174.5,74.5C 174.5,73.8333 174.167,73.5 173.5,73.5C 172.916,70.3379 173.583,67.3379 175.5,64.5C 175.833,65.8333 176.167,65.8333 176.5,64.5C 179.019,57.8424 181.852,51.1757 185,44.5C 186.079,41.9373 186.579,39.2706 186.5,36.5C 176.345,37.4977 166.345,39.331 156.5,42C 150.789,43.9245 145.456,46.4245 140.5,49.5C 139.167,49.8333 139.167,50.1667 140.5,50.5C 136.386,53.4062 132.052,56.2395 127.5,59C 122.743,59.8098 118.076,59.4764 113.5,58C 110.189,52.2963 106.523,46.7963 102.5,41.5C 102.709,40.914 103.043,40.414 103.5,40C 101.928,36.6814 101.262,33.3481 101.5,30C 102.167,29.6667 102.833,29.3333 103.5,29C 102.226,28.0228 102.226,27.1894 103.5,26.5C 103.5,27.1667 103.833,27.5 104.5,27.5C 107.779,23.7779 111.946,21.7779 117,21.5C 118.52,20.303 119.687,18.803 120.5,17C 126.085,16.8709 130.751,14.8709 134.5,11C 138.084,9.92655 141.75,9.25989 145.5,9C 147.156,7.17058 149.156,5.83725 151.5,5C 156.123,5.03111 160.457,4.19778 164.5,2.5C 186.253,1.59061 207.753,1.25728 229,1.5C 234.26,3.34268 239.426,5.34268 244.5,7.5C 245.086,7.29069 245.586,6.95735 246,6.5C 250.026,8.54586 254.026,10.5459 258,12.5C 259.049,11.4829 260.216,11.3162 261.5,12C 264.389,13.1199 266.056,14.7865 266.5,17C 269.179,18.5791 271.846,19.2458 274.5,19C 275.843,22.5794 278.176,24.0794 281.5,23.5C 282.735,24.3398 283.735,25.3398 284.5,26.5 Z"/></g>
<g><path style="opacity:1" fill="#cb9177" d="M 181.5,8.5 C 179.883,9.038 178.216,9.37133 176.5,9.5C 176.559,7.27761 177.725,6.27761 180,6.5C 180.833,6.83333 181.667,7.16667 182.5,7.5C 182.376,8.10667 182.043,8.44001 181.5,8.5 Z"/></g>
<g><path style="opacity:1" fill="#8f8c9d" d="M 189.5,6.5 C 192.833,6.5 196.167,6.5 199.5,6.5C 199.5,7.83333 199.5,9.16667 199.5,10.5C 197.857,10.5198 196.524,9.85318 195.5,8.5C 193.146,10.2461 192.146,12.5794 192.5,15.5C 191.717,13.9242 190.55,12.5908 189,11.5C 188.616,9.80343 188.782,8.13676 189.5,6.5 Z"/></g>
<g><path style="opacity:1" fill="#ae6858" d="M 167.5,8.5 C 169.293,8.88364 170.293,10.0503 170.5,12C 170.361,13.301 169.695,14.1344 168.5,14.5C 167.539,12.7354 167.205,10.7354 167.5,8.5 Z"/></g>
<g><path style="opacity:0.216" fill="#dbdbdb" d="M 164.5,2.5 C 160.457,4.19778 156.123,5.03111 151.5,5C 149.156,5.83725 147.156,7.17058 145.5,9C 141.75,9.25989 138.084,9.92655 134.5,11C 130.751,14.8709 126.085,16.8709 120.5,17C 119.687,18.803 118.52,20.303 117,21.5C 111.946,21.7779 107.779,23.7779 104.5,27.5C 103.833,27.5 103.5,27.1667 103.5,26.5C 104.167,25.8333 104.833,25.1667 105.5,24.5C 106.315,23.5707 107.148,22.5707 108,21.5C 109.667,21.5 111.333,21.5 113,21.5C 114.419,20.5399 115.919,19.7065 117.5,19C 116.542,17.8525 116.875,16.8525 118.5,16C 120.853,14.0363 123.353,13.5363 126,14.5C 129.538,11.3968 133.538,9.06342 138,7.5C 138.333,7.83333 138.667,8.16667 139,8.5C 144.021,7.32292 148.687,5.32292 153,2.5C 156.932,2.51953 160.765,2.51953 164.5,2.5 Z"/></g>
<g><path style="opacity:1" fill="#dbb194" d="M 167.5,8.5 C 169.265,7.53862 171.265,7.20528 173.5,7.5C 173.5,8.83333 173.5,10.1667 173.5,11.5C 171.921,14.3 170.588,17.3 169.5,20.5C 169.5,21.8333 169.5,23.1667 169.5,24.5C 168.521,21.3752 168.187,18.0419 168.5,14.5C 169.695,14.1344 170.361,13.301 170.5,12C 170.293,10.0503 169.293,8.88364 167.5,8.5 Z"/></g>
<g><path style="opacity:1" fill="#e2e0e1" d="M 159.5,16.5 C 159.959,19.8774 160.626,23.2107 161.5,26.5C 161.843,28.4832 161.176,29.8166 159.5,30.5C 158.5,30.1667 157.833,29.5 157.5,28.5C 157.598,26.4471 156.931,24.7804 155.5,23.5C 154.624,23.6309 153.957,23.2975 153.5,22.5C 154.311,21.7836 154.978,20.9503 155.5,20C 153.885,14.7689 155.218,13.6022 159.5,16.5 Z"/></g>
<g><path style="opacity:1" fill="#574c70" d="M 189.5,6.5 C 188.782,8.13676 188.616,9.80343 189,11.5C 190.55,12.5908 191.717,13.9242 192.5,15.5C 193.609,16.29 194.942,16.79 196.5,17C 192.353,17.4728 189.52,19.6395 188,23.5C 187.501,18.5111 187.334,13.5111 187.5,8.5C 187.5,7.16667 188.167,6.5 189.5,6.5 Z"/></g>
<g><path style="opacity:1" fill="#241b24" d="M 162.5,12.5 C 161.791,13.404 160.791,13.7373 159.5,13.5C 159.5,14.5 159.5,15.5 159.5,16.5C 155.218,13.6022 153.885,14.7689 155.5,20C 154.978,20.9503 154.311,21.7836 153.5,22.5C 153.957,23.2975 154.624,23.6309 155.5,23.5C 154.074,24.3412 152.74,25.3412 151.5,26.5C 149.833,22.6613 149.333,18.6613 150,14.5C 153.72,10.1006 157.887,9.43391 162.5,12.5 Z"/></g>
<g><path style="opacity:1" fill="#cb869d" d="M 233.5,25.5 C 232.352,23.1621 231.018,23.3288 229.5,26C 229.748,27.7491 230.748,28.5824 232.5,28.5C 232.5,29.5 232.5,30.5 232.5,31.5C 230.668,30.7515 229.001,29.7515 227.5,28.5C 228.421,22.7371 229.754,17.0705 231.5,11.5C 234.056,11.1322 236.056,11.9655 237.5,14C 236.222,17.965 234.889,21.7984 233.5,25.5 Z"/></g>
<g><path style="opacity:1" fill="#792b28" d="M 243.5,25.5 C 242.833,25.5 242.167,25.5 241.5,25.5C 241.179,23.9519 240.179,23.2852 238.5,23.5C 239.076,20.0833 240.409,17.0833 242.5,14.5C 243.931,14.9766 245.264,15.6433 246.5,16.5C 245.649,19.5777 244.649,22.5777 243.5,25.5 Z"/></g>
<g><path style="opacity:1" fill="#8c6e7a" d="M 222.5,22.5 C 218.616,21.9804 217.283,19.9804 218.5,16.5C 219.608,14.2185 220.942,12.0519 222.5,10C 224.579,9.19234 226.579,9.35901 228.5,10.5C 226.573,13.35 224.406,16.0167 222,18.5C 221.805,19.8193 221.972,21.1526 222.5,22.5 Z"/></g>
<g><path style="opacity:1" fill="#171826" d="M 149.5,29.5 C 148.37,31.3146 147.704,33.3146 147.5,35.5C 146.13,33.7496 145.13,31.7496 144.5,29.5C 143.772,27.4885 142.938,25.4885 142,23.5C 141.956,26.4752 142.123,29.4752 142.5,32.5C 141.153,33.0283 139.819,33.195 138.5,33C 139.791,31.7083 139.791,30.5417 138.5,29.5C 137.833,25.1667 137.167,20.8333 136.5,16.5C 139.127,15.9084 141.794,15.5751 144.5,15.5C 146.16,20.1562 147.826,24.8228 149.5,29.5 Z"/></g>
<g><path style="opacity:1" fill="#9f616e" d="M 173.5,11.5 C 173.5,12.8333 173.5,14.1667 173.5,15.5C 172.961,17.5049 172.295,19.5049 171.5,21.5C 170.817,21.1373 170.15,20.8039 169.5,20.5C 170.588,17.3 171.921,14.3 173.5,11.5 Z"/></g>
<g><path style="opacity:1" fill="#667c98" d="M 212.5,12.5 C 213.693,14.5097 213.693,16.6763 212.5,19C 212.833,19.5 213.167,20 213.5,20.5C 214.167,19.5 214.833,18.5 215.5,17.5C 216.615,19.4886 216.282,21.322 214.5,23C 214.743,23.9021 215.077,24.7354 215.5,25.5C 216.926,31.4019 214.926,33.4019 209.5,31.5C 209.768,25.0102 210.768,18.6768 212.5,12.5 Z"/></g>
<g><path style="opacity:1" fill="#9c665b" d="M 162.5,12.5 C 164.885,15.6535 166.218,19.3201 166.5,23.5C 165.325,23.281 164.325,23.6143 163.5,24.5C 164.798,27.2022 164.131,27.8689 161.5,26.5C 160.626,23.2107 159.959,19.8774 159.5,16.5C 159.5,15.5 159.5,14.5 159.5,13.5C 160.791,13.7373 161.791,13.404 162.5,12.5 Z"/></g>
<g><path style="opacity:1" fill="#67667f" d="M 181.5,8.5 C 180.244,12.087 179.744,15.7537 180,19.5C 182,22.8333 184,26.1667 186,29.5C 186.171,22.3213 186.671,15.3213 187.5,8.5C 187.334,13.5111 187.501,18.5111 188,23.5C 189.52,19.6395 192.353,17.4728 196.5,17C 194.942,16.79 193.609,16.29 192.5,15.5C 194.833,15.5 197.167,15.5 199.5,15.5C 199.785,17.288 199.452,18.9547 198.5,20.5C 196.584,19.7517 194.584,19.7517 192.5,20.5C 192.5,22.1667 192.5,23.8333 192.5,25.5C 191.71,24.3915 191.21,23.0581 191,21.5C 188.72,24.2676 188.22,27.2676 189.5,30.5C 186.102,30.8204 182.768,30.487 179.5,29.5C 178.752,27.6675 177.752,26.0009 176.5,24.5C 175.52,27.0865 175.187,29.7531 175.5,32.5C 173.5,32.5 171.5,32.5 169.5,32.5C 169.5,29.8333 169.5,27.1667 169.5,24.5C 169.5,23.1667 169.5,21.8333 169.5,20.5C 170.15,20.8039 170.817,21.1373 171.5,21.5C 172.295,19.5049 172.961,17.5049 173.5,15.5C 174.87,13.7496 175.87,11.7496 176.5,9.5C 178.216,9.37133 179.883,9.038 181.5,8.5 Z"/></g>
<g><path style="opacity:1" fill="#9a8e9e" d="M 218.5,16.5 C 217.283,19.9804 218.616,21.9804 222.5,22.5C 223.167,26.1667 223.833,29.8333 224.5,33.5C 222.801,33.6602 221.134,33.4935 219.5,33C 218.676,30.0468 217.343,27.5468 215.5,25.5C 215.077,24.7354 214.743,23.9021 214.5,23C 216.282,21.322 216.615,19.4886 215.5,17.5C 214.833,18.5 214.167,19.5 213.5,20.5C 213.167,20 212.833,19.5 212.5,19C 213.693,16.6763 213.693,14.5097 212.5,12.5C 212.5,10.8333 212.5,9.16667 212.5,7.5C 214.262,7.35729 215.929,7.69063 217.5,8.5C 218.02,11.3067 218.353,13.9734 218.5,16.5 Z"/></g>
<g><path style="opacity:0.004" fill="#e9eae9" d="M 105.5,24.5 C 104.833,23.1667 104.833,23.1667 105.5,24.5 Z"/></g>
<g><path style="opacity:1" fill="#111317" d="M 137.5,30.5 C 137.017,32.6869 137.017,34.6869 137.5,36.5C 135.355,33.5672 133.188,30.5672 131,27.5C 130.878,29.2816 131.378,30.9482 132.5,32.5C 130.983,32.4894 129.816,31.8228 129,30.5C 129.097,33.296 129.93,35.9626 131.5,38.5C 131.376,39.1067 131.043,39.44 130.5,39.5C 128.181,34.1926 125.848,28.8593 123.5,23.5C 125.487,21.4986 127.82,20.6652 130.5,21C 133.453,23.7517 135.786,26.9184 137.5,30.5 Z"/></g>
<g><path style="opacity:1" fill="#692f42" d="M 233.5,25.5 C 233.443,26.609 233.11,27.609 232.5,28.5C 230.748,28.5824 229.748,27.7491 229.5,26C 231.018,23.3288 232.352,23.1621 233.5,25.5 Z"/></g>
<g><path style="opacity:1" fill="#543b4a" d="M 238.5,23.5 C 240.179,23.2852 241.179,23.9519 241.5,25.5C 240.526,26.635 239.359,27.635 238,28.5C 237.601,28.2716 237.435,27.9382 237.5,27.5C 237.433,26.0413 237.766,24.7079 238.5,23.5 Z"/></g>
<g><path style="opacity:0.008" fill="#e6e7e6" d="M 284.5,25.5 C 285.833,26.1667 285.833,26.1667 284.5,25.5 Z"/></g>
<g><path style="opacity:1" fill="#b4b5bd" d="M 144.5,29.5 C 143.549,30.9187 143.216,32.5853 143.5,34.5C 142.662,34.1583 142.328,33.4916 142.5,32.5C 142.123,29.4752 141.956,26.4752 142,23.5C 142.938,25.4885 143.772,27.4885 144.5,29.5 Z"/></g>
<g><path style="opacity:1" fill="#603a3b" d="M 155.5,23.5 C 156.931,24.7804 157.598,26.4471 157.5,28.5C 156.883,28.3893 156.383,28.056 156,27.5C 155.691,28.7659 155.191,29.9326 154.5,31C 155.337,32.0113 155.67,33.1779 155.5,34.5C 153.282,32.3486 151.948,29.6819 151.5,26.5C 152.74,25.3412 154.074,24.3412 155.5,23.5 Z"/></g>
<g><path style="opacity:1" fill="#4d191b" d="M 251.5,18.5 C 259.09,18.4196 262.424,22.0863 261.5,29.5C 257.554,29.5123 255.887,27.5123 256.5,23.5C 254.365,23.147 253.032,23.9803 252.5,26C 254.694,28.7225 256.361,31.7225 257.5,35C 256.439,42.5277 252.439,44.861 245.5,42C 242.476,39.5254 241.81,36.5254 243.5,33C 244.5,32.3333 245.5,32.3333 246.5,33C 247.406,34.6995 247.739,36.5328 247.5,38.5C 249.635,38.853 250.968,38.0197 251.5,36C 249.337,33.0055 248.003,29.6722 247.5,26C 247.667,24.8333 247.833,23.6667 248,22.5C 249.376,21.2949 250.542,19.9616 251.5,18.5 Z"/></g>
<g><path style="opacity:1" fill="#2d4e74" d="M 192.5,25.5 C 191.374,26.8583 191.374,28.1916 192.5,29.5C 194.498,27.6663 196.832,26.6663 199.5,26.5C 199.5,27.8333 199.5,29.1667 199.5,30.5C 196.167,30.5 192.833,30.5 189.5,30.5C 188.22,27.2676 188.72,24.2676 191,21.5C 191.21,23.0581 191.71,24.3915 192.5,25.5 Z"/></g>
<g><path style="opacity:1" fill="#6e93a7" d="M 192.5,25.5 C 195.167,25.5 197.833,25.5 200.5,25.5C 200.784,27.4147 200.451,29.0813 199.5,30.5C 199.5,29.1667 199.5,27.8333 199.5,26.5C 196.832,26.6663 194.498,27.6663 192.5,29.5C 191.374,28.1916 191.374,26.8583 192.5,25.5 Z"/></g>
<g><path style="opacity:1" fill="#a67864" d="M 167.5,28.5 C 167.771,30.3797 167.104,31.713 165.5,32.5C 162.924,32.2782 162.09,30.9449 163,28.5C 164.414,29.4132 165.914,29.4132 167.5,28.5 Z"/></g>
<g><path style="opacity:1" fill="#534154" d="M 227.5,28.5 C 229.001,29.7515 230.668,30.7515 232.5,31.5C 232.5,31.8333 232.5,32.1667 232.5,32.5C 232.217,33.2891 231.717,33.9558 231,34.5C 228.772,33.1085 227.606,31.1085 227.5,28.5 Z"/></g>
<g><path style="opacity:1" fill="#6a3f4d" d="M 149.5,29.5 C 151.02,31.8902 152.02,34.5568 152.5,37.5C 151.07,37.4208 149.736,37.7542 148.5,38.5C 147.614,37.675 147.281,36.675 147.5,35.5C 147.704,33.3146 148.37,31.3146 149.5,29.5 Z"/></g>
<g><path style="opacity:1" fill="#736970" d="M 166.5,23.5 C 167.301,25.0418 167.634,26.7085 167.5,28.5C 165.914,29.4132 164.414,29.4132 163,28.5C 162.09,30.9449 162.924,32.2782 165.5,32.5C 164.7,34.7409 163.034,35.7409 160.5,35.5C 163.028,33.4954 162.695,31.8287 159.5,30.5C 161.176,29.8166 161.843,28.4832 161.5,26.5C 164.131,27.8689 164.798,27.2022 163.5,24.5C 164.325,23.6143 165.325,23.281 166.5,23.5 Z"/></g>
<g><path style="opacity:1" fill="#c88f6c" d="M 241.5,25.5 C 242.167,25.5 242.833,25.5 243.5,25.5C 243.063,29.8729 241.397,33.7062 238.5,37C 235.961,37.7958 233.628,37.6291 231.5,36.5C 232.674,35.4863 233.34,34.153 233.5,32.5C 235.534,31.4093 236.868,29.7426 237.5,27.5C 237.435,27.9382 237.601,28.2716 238,28.5C 239.359,27.635 240.526,26.635 241.5,25.5 Z"/></g>
<g><path style="opacity:1" fill="#403744" d="M 157.5,28.5 C 157.833,29.5 158.5,30.1667 159.5,30.5C 162.695,31.8287 163.028,33.4954 160.5,35.5C 158.585,35.7845 156.919,35.4511 155.5,34.5C 155.67,33.1779 155.337,32.0113 154.5,31C 155.191,29.9326 155.691,28.7659 156,27.5C 156.383,28.056 156.883,28.3893 157.5,28.5 Z"/></g>
<g><path style="opacity:1" fill="#151313" d="M 259.5,47.5 C 258.957,47.44 258.624,47.1067 258.5,46.5C 262.636,41.0886 265.969,35.2553 268.5,29C 268.333,28.5 268.167,28 268,27.5C 266.272,30.3297 264.105,32.663 261.5,34.5C 262.748,31.0044 264.748,28.0044 267.5,25.5C 269.23,26.0256 270.564,27.0256 271.5,28.5C 270.333,30.1667 269.167,31.8333 268,33.5C 267.075,36.1341 267.909,37.3008 270.5,37C 272.006,34.6667 273.673,32.5 275.5,30.5C 277.23,31.0256 278.564,32.0256 279.5,33.5C 275.135,40.0337 270.969,46.7004 267,53.5C 265.229,52.6959 263.729,51.5292 262.5,50C 264.291,47.586 265.957,45.086 267.5,42.5C 266.652,40.7172 265.319,40.2172 263.5,41C 262.281,43.2782 260.948,45.4449 259.5,47.5 Z"/></g>
<g><path style="opacity:1" fill="#1e2949" d="M 138.5,29.5 C 139.791,30.5417 139.791,31.7083 138.5,33C 139.819,33.195 141.153,33.0283 142.5,32.5C 142.328,33.4916 142.662,34.1583 143.5,34.5C 145.423,37.6378 144.757,39.9711 141.5,41.5C 139.448,40.3892 138.114,38.7225 137.5,36.5C 137.017,34.6869 137.017,32.6869 137.5,30.5C 138.167,30.5 138.5,30.1667 138.5,29.5 Z"/></g>
<g><path style="opacity:1" fill="#bf989e" d="M 227.5,28.5 C 227.606,31.1085 228.772,33.1085 231,34.5C 231.717,33.9558 232.217,33.2891 232.5,32.5C 232.833,32.5 233.167,32.5 233.5,32.5C 233.34,34.153 232.674,35.4863 231.5,36.5C 227.431,35.0297 226.097,32.3631 227.5,28.5 Z"/></g>
<g><path style="opacity:1" fill="#16181d" d="M 128.5,40.5 C 128.565,40.9382 128.399,41.2716 128,41.5C 127.167,40.6667 126.333,39.8333 125.5,39C 121.236,39.0159 117.236,38.1825 113.5,36.5C 112.348,38.3971 112.681,40.0638 114.5,41.5C 108.327,37.5868 107.994,33.0868 113.5,28C 117.526,26.6634 120.526,27.8301 122.5,31.5C 121.653,32.8448 120.487,33.8448 119,34.5C 117.89,32.9632 116.39,32.2965 114.5,32.5C 114.33,33.8221 114.663,34.9887 115.5,36C 118.5,36.3333 121.5,36.6667 124.5,37C 126.324,37.66 127.657,38.8267 128.5,40.5 Z"/></g>
<g><path style="opacity:1" fill="#111e38" d="M 132.5,32.5 C 134.153,35.8068 135.82,39.1401 137.5,42.5C 133.499,46.5807 131.165,45.5807 130.5,39.5C 131.043,39.44 131.376,39.1067 131.5,38.5C 129.93,35.9626 129.097,33.296 129,30.5C 129.816,31.8228 130.983,32.4894 132.5,32.5 Z"/></g>
<g><path style="opacity:1" fill="#11233c" d="M 128.5,40.5 C 129.767,43.0613 129.767,45.728 128.5,48.5C 126.143,48.6633 123.81,48.4966 121.5,48C 122.737,47.7679 123.737,47.2679 124.5,46.5C 124.67,45.1779 124.337,44.0113 123.5,43C 120.305,42.8195 117.305,42.3195 114.5,41.5C 112.681,40.0638 112.348,38.3971 113.5,36.5C 117.236,38.1825 121.236,39.0159 125.5,39C 126.333,39.8333 127.167,40.6667 128,41.5C 128.399,41.2716 128.565,40.9382 128.5,40.5 Z"/></g>
<g><path style="opacity:1" fill="#2c1614" d="M 259.5,47.5 C 259.44,48.0431 259.107,48.3764 258.5,48.5C 257.167,47.5 255.833,46.5 254.5,45.5C 256.608,41.5995 258.941,37.9328 261.5,34.5C 264.105,32.663 266.272,30.3297 268,27.5C 268.167,28 268.333,28.5 268.5,29C 265.969,35.2553 262.636,41.0886 258.5,46.5C 258.624,47.1067 258.957,47.44 259.5,47.5 Z"/></g>
<g><path style="opacity:0.649" fill="#d8d8d8" d="M 176.5,64.5 C 176.167,64.5 175.833,64.5 175.5,64.5C 177.549,55.4463 180.882,46.9463 185.5,39C 177.497,38.328 169.997,39.828 163,43.5C 161.612,42.4464 160.112,42.2797 158.5,43C 152.607,45.718 146.607,48.218 140.5,50.5C 140.5,50.1667 140.5,49.8333 140.5,49.5C 145.456,46.4245 150.789,43.9245 156.5,42C 166.345,39.331 176.345,37.4977 186.5,36.5C 186.579,39.2706 186.079,41.9373 185,44.5C 181.852,51.1757 179.019,57.8424 176.5,64.5 Z"/></g>
<g><path style="opacity:1" fill="#362524" d="M 197.5,45.5 C 196.596,44.791 196.263,43.791 196.5,42.5C 195.5,42.5 194.5,42.5 193.5,42.5C 193.975,45.0821 193.308,47.0821 191.5,48.5C 191.362,43.8467 192.362,39.5133 194.5,35.5C 196.309,38.5931 197.309,41.9264 197.5,45.5 Z"/></g>
<g><path style="opacity:1" fill="#2b6a9c" d="M 124.5,46.5 C 123.737,47.2679 122.737,47.7679 121.5,48C 123.81,48.4966 126.143,48.6633 128.5,48.5C 123.826,52.7852 119.492,52.4519 115.5,47.5C 116.833,46.5 118.167,45.5 119.5,44.5C 120.85,45.9501 122.516,46.6168 124.5,46.5 Z"/></g>
<g><path style="opacity:1" fill="#4f1915" d="M 197.5,45.5 C 197.433,46.9587 197.766,48.2921 198.5,49.5C 196.241,50.344 195.241,52.0107 195.5,54.5C 194.209,54.2627 193.209,54.596 192.5,55.5C 191.5,55.5 190.5,55.5 189.5,55.5C 188.833,55.5 188.5,55.1667 188.5,54.5C 188.34,52.8008 188.506,51.1341 189,49.5C 189.671,48.7476 190.504,48.4142 191.5,48.5C 193.308,47.0821 193.975,45.0821 193.5,42.5C 194.5,42.5 195.5,42.5 196.5,42.5C 196.263,43.791 196.596,44.791 197.5,45.5 Z"/></g>
<g><path style="opacity:0.075" fill="#d9d9d9" d="M 216.5,39.5 C 219.187,39.3359 221.854,39.5026 224.5,40C 228.452,42.4073 232.785,43.7406 237.5,44C 240.325,47.4852 243.991,49.1518 248.5,49C 251.037,51.5457 254.037,53.2124 257.5,54C 259.491,57.4864 262.491,58.9864 266.5,58.5C 269.637,58.949 272.137,57.949 274,55.5C 276.36,50.7596 279.193,46.4263 282.5,42.5C 282.611,43.1174 282.944,43.6174 283.5,44C 280.792,48.5843 277.958,53.0843 275,57.5C 271.319,60.3597 267.152,61.1931 262.5,60C 256.521,55.8452 250.187,52.5118 243.5,50C 240.567,48.7291 237.901,47.0624 235.5,45C 234.216,44.3162 233.049,44.4829 232,45.5C 226.545,43.1474 221.379,41.1474 216.5,39.5 Z"/></g>
<g><path style="opacity:1" fill="#2f0f0f" d="M 198.5,49.5 C 201.371,52.8643 202.705,56.8643 202.5,61.5C 200.445,62.4836 198.278,63.4836 196,64.5C 195.517,63.552 195.351,62.552 195.5,61.5C 198.338,59.6941 198.005,58.6941 194.5,58.5C 194.5,59.5 194.5,60.5 194.5,61.5C 191.33,60.2083 190.996,58.5416 193.5,56.5C 193.376,55.8933 193.043,55.56 192.5,55.5C 193.209,54.596 194.209,54.2627 195.5,54.5C 195.241,52.0107 196.241,50.344 198.5,49.5 Z"/></g>
<g><path style="opacity:1" fill="#54366f" d="M 195.5,61.5 C 195.167,61.5 194.833,61.5 194.5,61.5C 194.5,60.5 194.5,59.5 194.5,58.5C 198.005,58.6941 198.338,59.6941 195.5,61.5 Z"/></g>
<g><path style="opacity:1" fill="#ba3e38" d="M 188.5,54.5 C 188.5,55.1667 188.833,55.5 189.5,55.5C 189.461,56.5832 189.127,57.5832 188.5,58.5C 189.853,59.5237 190.52,60.857 190.5,62.5C 189.383,65.9169 190.716,68.2502 194.5,69.5C 193.311,70.4287 191.978,70.762 190.5,70.5C 190.5,71.5 190.5,72.5 190.5,73.5C 190.167,73.5 189.833,73.5 189.5,73.5C 189.672,72.5084 189.338,71.8417 188.5,71.5C 188.5,69.1667 188.5,66.8333 188.5,64.5C 187.167,64.5 185.833,64.5 184.5,64.5C 184.5,63.5 184.5,62.5 184.5,61.5C 185.833,59.1667 187.167,56.8333 188.5,54.5 Z"/></g>
<g><path style="opacity:1" fill="#4b396d" d="M 184.5,61.5 C 184.5,62.5 184.5,63.5 184.5,64.5C 185.833,64.5 187.167,64.5 188.5,64.5C 188.5,66.8333 188.5,69.1667 188.5,71.5C 187.761,71.631 187.094,71.4643 186.5,71C 185.915,69.6976 185.249,68.531 184.5,67.5C 183.258,65.3888 183.258,63.3888 184.5,61.5 Z"/></g>
<g><path style="opacity:1" fill="#7f2115" d="M 189.5,55.5 C 190.5,55.5 191.5,55.5 192.5,55.5C 193.043,55.56 193.376,55.8933 193.5,56.5C 190.996,58.5416 191.33,60.2083 194.5,61.5C 194.833,61.5 195.167,61.5 195.5,61.5C 195.351,62.552 195.517,63.552 196,64.5C 198.278,63.4836 200.445,62.4836 202.5,61.5C 203.5,61.5 204.5,61.5 205.5,61.5C 205.599,64.2372 205.265,66.9039 204.5,69.5C 204.167,69.5 203.833,69.5 203.5,69.5C 202.275,68.063 201.275,66.3964 200.5,64.5C 199.319,66.1353 199.319,67.802 200.5,69.5C 200.043,70.2975 199.376,70.6309 198.5,70.5C 197.699,68.9582 197.366,67.2915 197.5,65.5C 195.876,65.3601 194.71,66.0267 194,67.5C 193.667,66.1667 193.333,64.8333 193,63.5C 192.329,62.7476 191.496,62.4142 190.5,62.5C 190.52,60.857 189.853,59.5237 188.5,58.5C 189.127,57.5832 189.461,56.5832 189.5,55.5 Z"/></g>
<g><path style="opacity:1" fill="#551618" d="M 206.5,72.5 C 205.167,72.5 203.833,72.5 202.5,72.5C 202.263,71.209 202.596,70.209 203.5,69.5C 203.833,69.5 204.167,69.5 204.5,69.5C 207.399,68.5056 208.066,69.5056 206.5,72.5 Z"/></g>
<g><path style="opacity:1" fill="#e36013" d="M 190.5,62.5 C 191.496,62.4142 192.329,62.7476 193,63.5C 193.333,64.8333 193.667,66.1667 194,67.5C 194.71,66.0267 195.876,65.3601 197.5,65.5C 197.366,67.2915 197.699,68.9582 198.5,70.5C 199.752,72.0009 200.752,73.6675 201.5,75.5C 200.962,77.1172 200.629,78.7839 200.5,80.5C 200.167,80.5 199.833,80.5 199.5,80.5C 198.155,78.3032 196.989,75.9698 196,73.5C 195.075,74.0465 194.242,74.7132 193.5,75.5C 194.855,77.5212 196.521,79.1879 198.5,80.5C 197.7,82.7409 196.034,83.7409 193.5,83.5C 191.332,81.8224 190.998,79.8224 192.5,77.5C 192.248,75.9271 191.582,74.5938 190.5,73.5C 190.5,72.5 190.5,71.5 190.5,70.5C 191.978,70.762 193.311,70.4287 194.5,69.5C 190.716,68.2502 189.383,65.9169 190.5,62.5 Z"/></g>
<g><path style="opacity:1" fill="#b43016" d="M 203.5,69.5 C 202.596,70.209 202.263,71.209 202.5,72.5C 203.833,72.5 205.167,72.5 206.5,72.5C 206.672,73.4916 206.338,74.1583 205.5,74.5C 204.391,74.5569 203.391,74.8902 202.5,75.5C 202.167,75.5 201.833,75.5 201.5,75.5C 200.752,73.6675 199.752,72.0009 198.5,70.5C 199.376,70.6309 200.043,70.2975 200.5,69.5C 199.319,67.802 199.319,66.1353 200.5,64.5C 201.275,66.3964 202.275,68.063 203.5,69.5 Z"/></g>
<g><path style="opacity:1" fill="#5186da" d="M 184.5,67.5 C 185.249,68.531 185.915,69.6976 186.5,71C 187.094,71.4643 187.761,71.631 188.5,71.5C 189.338,71.8417 189.672,72.5084 189.5,73.5C 189.833,76.1667 190.167,78.8333 190.5,81.5C 187.962,82.0427 185.628,83.0427 183.5,84.5C 183.167,83.8333 182.833,83.1667 182.5,82.5C 182.443,81.391 182.11,80.391 181.5,79.5C 181.351,78.448 181.517,77.448 182,76.5C 182.2,78.3197 183.034,79.653 184.5,80.5C 185.5,80.5 186.5,80.5 187.5,80.5C 187.5,79.5 187.5,78.5 187.5,77.5C 185.293,76.8697 183.626,75.5363 182.5,73.5C 181.549,72.0813 181.216,70.4147 181.5,68.5C 182.791,68.7373 183.791,68.404 184.5,67.5 Z"/></g>
<g><path style="opacity:1" fill="#a081cd" d="M 207.5,78.5 C 206.5,78.5 205.5,78.5 204.5,78.5C 204.557,77.391 204.89,76.391 205.5,75.5C 206.496,75.5858 207.329,75.2524 208,74.5C 208.765,76.0657 208.598,77.3991 207.5,78.5 Z"/></g>
<g><path style="opacity:1" fill="#38b8ee" d="M 182.5,73.5 C 183.626,75.5363 185.293,76.8697 187.5,77.5C 185.5,77.5 184.5,78.5 184.5,80.5C 183.034,79.653 182.2,78.3197 182,76.5C 181.517,77.448 181.351,78.448 181.5,79.5C 180.157,77.3166 180.49,75.3166 182.5,73.5 Z"/></g>
<g><path style="opacity:1" fill="#f2ce48" d="M 199.5,80.5 C 199.167,80.5 198.833,80.5 198.5,80.5C 196.521,79.1879 194.855,77.5212 193.5,75.5C 194.242,74.7132 195.075,74.0465 196,73.5C 196.989,75.9698 198.155,78.3032 199.5,80.5 Z"/></g>
<g><path style="opacity:1" fill="#763365" d="M 205.5,74.5 C 205.5,74.8333 205.5,75.1667 205.5,75.5C 204.89,76.391 204.557,77.391 204.5,78.5C 203.094,78.0269 202.427,77.0269 202.5,75.5C 203.391,74.8902 204.391,74.5569 205.5,74.5 Z"/></g>
<g><path style="opacity:0.071" fill="#d9d9d9" d="M 173.5,73.5 C 174.167,73.5 174.5,73.8333 174.5,74.5C 174.827,79.2137 174.493,83.8804 173.5,88.5C 168.767,85.1996 163.767,82.3663 158.5,80C 152.084,78.6408 146.084,76.3075 140.5,73C 135.945,70.9698 131.612,71.1365 127.5,73.5C 126.402,72.603 126.402,71.7697 127.5,71C 134.866,68.4198 141.7,69.9198 148,75.5C 156.501,76.837 164.501,80.1703 172,85.5C 172.925,81.2727 173.425,77.2727 173.5,73.5 Z"/></g>
<g><path style="opacity:1" fill="#29eaec" d="M 187.5,77.5 C 187.5,78.5 187.5,79.5 187.5,80.5C 186.5,80.5 185.5,80.5 184.5,80.5C 184.5,78.5 185.5,77.5 187.5,77.5 Z"/></g>
<g><path style="opacity:1" fill="#cb5350" d="M 201.5,75.5 C 201.833,75.5 202.167,75.5 202.5,75.5C 202.427,77.0269 203.094,78.0269 204.5,78.5C 203.5,79.8333 202.5,81.1667 201.5,82.5C 201.103,83.525 200.437,83.6917 199.5,83C 200.252,82.3292 200.586,81.4959 200.5,80.5C 200.629,78.7839 200.962,77.1172 201.5,75.5 Z"/></g>
<g><path style="opacity:1" fill="#a14261" d="M 204.5,78.5 C 205.5,78.5 206.5,78.5 207.5,78.5C 207.267,80.0618 206.6,81.3951 205.5,82.5C 204.5,82.5 203.5,82.5 202.5,82.5C 202.167,82.5 201.833,82.5 201.5,82.5C 202.5,81.1667 203.5,79.8333 204.5,78.5 Z"/></g>
<g><path style="opacity:1" fill="#994a56" d="M 189.5,73.5 C 189.833,73.5 190.167,73.5 190.5,73.5C 191.582,74.5938 192.248,75.9271 192.5,77.5C 190.998,79.8224 191.332,81.8224 193.5,83.5C 192.5,84.1667 191.5,84.8333 190.5,85.5C 187.941,85.8016 185.607,85.4682 183.5,84.5C 185.628,83.0427 187.962,82.0427 190.5,81.5C 190.167,78.8333 189.833,76.1667 189.5,73.5 Z"/></g>
<g><path style="opacity:1" fill="#501e18" d="M 144.5,82.5 C 143.626,83.5251 142.459,84.1918 141,84.5C 138.977,83.2932 137.144,81.9598 135.5,80.5C 133.272,79.6782 132.605,78.3448 133.5,76.5C 136.741,79.2869 140.407,81.2869 144.5,82.5 Z"/></g>
<g><path style="opacity:1" fill="#be9fd2" d="M 202.5,82.5 C 203.5,82.5 204.5,82.5 205.5,82.5C 206.167,82.5 206.833,82.5 207.5,82.5C 204.662,84.3059 204.995,85.3059 208.5,85.5C 207.449,86.2223 206.782,87.2223 206.5,88.5C 205.833,88.1667 205.167,87.8333 204.5,87.5C 204.167,87.5 203.833,87.5 203.5,87.5C 202.596,86.791 202.263,85.791 202.5,84.5C 202.5,83.8333 202.5,83.1667 202.5,82.5 Z"/></g>
<g><path style="opacity:1" fill="#3c102c" d="M 249.5,80.5 C 250.291,82.3093 250.291,84.3093 249.5,86.5C 249.768,88.099 249.434,89.4324 248.5,90.5C 248.631,89.7611 248.464,89.0944 248,88.5C 247.107,89.7112 246.274,89.7112 245.5,88.5C 244.652,86.5914 244.318,84.5914 244.5,82.5C 246.284,82.1075 247.95,81.4408 249.5,80.5 Z"/></g>
<g><path style="opacity:1" fill="#ac454b" d="M 182.5,82.5 C 182.833,83.1667 183.167,83.8333 183.5,84.5C 182.167,84.5 181.5,85.1667 181.5,86.5C 180.876,86.0831 180.543,85.4164 180.5,84.5C 180.747,83.2867 181.414,82.62 182.5,82.5 Z"/></g>
<g><path style="opacity:1" fill="#6476de" d="M 207.5,82.5 C 208.404,83.209 208.737,84.209 208.5,85.5C 204.995,85.3059 204.662,84.3059 207.5,82.5 Z"/></g>
<g><path style="opacity:1" fill="#db6c20" d="M 183.5,84.5 C 185.607,85.4682 187.941,85.8016 190.5,85.5C 190.125,87.6976 189.458,89.6976 188.5,91.5C 188.265,90.9033 187.765,90.5699 187,90.5C 185.699,92.1554 184.199,93.4887 182.5,94.5C 180.348,92.3161 180.348,90.3161 182.5,88.5C 182.137,87.8165 181.804,87.1499 181.5,86.5C 181.5,85.1667 182.167,84.5 183.5,84.5 Z"/></g>
<g><path style="opacity:1" fill="#c26068" d="M 202.5,84.5 C 202.263,85.791 202.596,86.791 203.5,87.5C 202.167,91.1667 202.167,94.8333 203.5,98.5C 202.85,98.1961 202.183,97.8627 201.5,97.5C 200.526,99.7427 200.192,102.076 200.5,104.5C 200.167,104.5 199.833,104.5 199.5,104.5C 199.841,100.84 199.175,97.5072 197.5,94.5C 198.806,93.5326 199.473,92.1993 199.5,90.5C 200.239,90.631 200.906,90.4643 201.5,90C 200.177,89.1841 199.511,88.0174 199.5,86.5C 200.222,85.4489 201.222,84.7822 202.5,84.5 Z"/></g>
<g><path style="opacity:1" fill="#721f3d" d="M 241.5,83.5 C 239.008,85.4706 239.342,87.3039 242.5,89C 241.619,89.7083 240.953,90.5416 240.5,91.5C 237.873,90.9084 235.206,90.5751 232.5,90.5C 231.09,93.9496 230.424,97.6163 230.5,101.5C 230.5,101.833 230.5,102.167 230.5,102.5C 230.167,102.5 229.833,102.5 229.5,102.5C 228.213,101.232 227.213,101.565 226.5,103.5C 225.702,103.043 225.369,102.376 225.5,101.5C 226.812,100.855 227.812,99.8549 228.5,98.5C 227.233,96.6829 225.9,95.0163 224.5,93.5C 226.773,93.0432 228.106,91.7099 228.5,89.5C 230.149,88.286 231.815,86.9527 233.5,85.5C 234.086,85.7093 234.586,86.0426 235,86.5C 236.87,84.7811 239.037,83.7811 241.5,83.5 Z"/></g>
<g><path style="opacity:1" fill="#341312" d="M 135.5,80.5 C 137.144,81.9598 138.977,83.2932 141,84.5C 142.459,84.1918 143.626,83.5251 144.5,82.5C 148.102,82.6924 151.102,84.0257 153.5,86.5C 154.116,88.4171 155.45,89.5838 157.5,90C 155.679,92.1366 153.346,92.9699 150.5,92.5C 150.649,93.552 150.483,94.552 150,95.5C 144.758,92.2451 143.591,93.2451 146.5,98.5C 150.407,96.9557 152.741,98.289 153.5,102.5C 153.5,102.833 153.5,103.167 153.5,103.5C 151.486,103.392 149.82,104.058 148.5,105.5C 147.209,104.527 147.209,103.527 148.5,102.5C 146.807,101.772 145.307,100.772 144,99.5C 143.383,98.5509 143.549,97.7175 144.5,97C 141.28,91.6017 138.28,86.1017 135.5,80.5 Z"/></g>
<g><path style="opacity:1" fill="#9d5f80" d="M 199.5,86.5 C 199.511,88.0174 200.177,89.1841 201.5,90C 200.906,90.4643 200.239,90.631 199.5,90.5C 198.881,87.4046 197.881,87.0712 196.5,89.5C 193.485,88.3408 191.485,89.3408 190.5,92.5C 190.357,90.7376 190.691,89.0709 191.5,87.5C 193.567,86.8659 195.4,85.8659 197,84.5C 197.417,85.756 198.25,86.4226 199.5,86.5 Z"/></g>
<g><path style="opacity:1" fill="#6c0f26" d="M 243.5,82.5 C 243.833,82.5 244.167,82.5 244.5,82.5C 244.318,84.5914 244.652,86.5914 245.5,88.5C 246.274,89.7112 247.107,89.7112 248,88.5C 248.464,89.0944 248.631,89.7611 248.5,90.5C 248.5,91.1667 248.167,91.5 247.5,91.5C 246.432,90.5655 245.099,90.2322 243.5,90.5C 242.746,87.7444 242.746,85.0777 243.5,82.5 Z"/></g>
<g><path style="opacity:0.32" fill="#dbdbdb" d="M 127.5,73.5 C 127.335,76.5184 127.502,79.5184 128,82.5C 129.667,84.8333 131.333,87.1667 133,89.5C 137.474,101.116 143.974,111.449 152.5,120.5C 147.794,123.38 142.794,125.547 137.5,127C 133.5,131.333 133.5,135.667 137.5,140C 146.346,143.092 155.346,145.592 164.5,147.5C 162.924,149.979 161.924,152.646 161.5,155.5C 143.841,156.157 126.174,156.49 108.5,156.5C 107.833,156.5 107.5,156.167 107.5,155.5C 124.764,155.264 142.097,154.764 159.5,154C 160.13,152.108 161.13,150.441 162.5,149C 158.442,148.66 154.442,147.993 150.5,147C 146.024,144.76 141.357,143.094 136.5,142C 133.22,139.105 131.554,135.438 131.5,131C 132.071,129.795 132.738,128.628 133.5,127.5C 139.023,125.335 144.356,122.668 149.5,119.5C 144.477,115.598 140.644,111.264 138,106.5C 136.167,102.833 134.333,99.1667 132.5,95.5C 132.709,94.914 133.043,94.414 133.5,94C 127.292,88.6081 124.792,82.1081 126,74.5C 126.383,73.944 126.883,73.6107 127.5,73.5 Z"/></g>
<g><path style="opacity:1" fill="#d58879" d="M 198.5,80.5 C 198.833,80.5 199.167,80.5 199.5,80.5C 199.833,80.5 200.167,80.5 200.5,80.5C 200.586,81.4959 200.252,82.3292 199.5,83C 200.437,83.6917 201.103,83.525 201.5,82.5C 201.833,82.5 202.167,82.5 202.5,82.5C 202.5,83.1667 202.5,83.8333 202.5,84.5C 201.222,84.7822 200.222,85.4489 199.5,86.5C 198.25,86.4226 197.417,85.756 197,84.5C 195.4,85.8659 193.567,86.8659 191.5,87.5C 190.691,89.0709 190.357,90.7376 190.5,92.5C 190.5,93.8333 190.5,95.1667 190.5,96.5C 189.167,96.5 188.5,95.8333 188.5,94.5C 188.5,93.5 188.5,92.5 188.5,91.5C 189.458,89.6976 190.125,87.6976 190.5,85.5C 191.5,84.8333 192.5,84.1667 193.5,83.5C 196.034,83.7409 197.7,82.7409 198.5,80.5 Z"/></g>
<g><path style="opacity:1" fill="#4e66b8" d="M 204.5,87.5 C 205.167,87.8333 205.833,88.1667 206.5,88.5C 207.278,89.1556 207.944,89.9889 208.5,91C 208.43,91.7648 208.097,92.2648 207.5,92.5C 205.721,91.3303 204.721,89.6636 204.5,87.5 Z"/></g>
<g><path style="opacity:1" fill="#663367" d="M 203.5,87.5 C 203.833,87.5 204.167,87.5 204.5,87.5C 204.721,89.6636 205.721,91.3303 207.5,92.5C 206.086,94.1385 206.42,95.4718 208.5,96.5C 207.82,97.8599 207.153,99.1932 206.5,100.5C 205.222,100.218 204.222,99.5511 203.5,98.5C 202.167,94.8333 202.167,91.1667 203.5,87.5 Z"/></g>
<g><path style="opacity:1" fill="#dfa160" d="M 188.5,91.5 C 188.5,92.5 188.5,93.5 188.5,94.5C 186.821,94.2852 185.821,94.9519 185.5,96.5C 184.167,97.1667 182.833,97.8333 181.5,98.5C 180.174,96.8049 180.507,95.4716 182.5,94.5C 184.199,93.4887 185.699,92.1554 187,90.5C 187.765,90.5699 188.265,90.9033 188.5,91.5 Z"/></g>
<g><path style="opacity:1" fill="#745ca9" d="M 228.5,89.5 C 228.106,91.7099 226.773,93.0432 224.5,93.5C 223.508,93.3284 222.842,93.6618 222.5,94.5C 221.662,94.1583 221.328,93.4916 221.5,92.5C 222.397,91.4019 223.23,91.4019 224,92.5C 224.941,90.9386 226.108,89.6053 227.5,88.5C 228.107,88.6236 228.44,88.9569 228.5,89.5 Z"/></g>
<g><path style="opacity:1" fill="#821617" d="M 240.5,91.5 C 240.5,91.8333 240.5,92.1667 240.5,92.5C 239.072,95.4005 236.906,96.0671 234,94.5C 233.861,97.4453 232.694,99.7786 230.5,101.5C 230.424,97.6163 231.09,93.9496 232.5,90.5C 235.206,90.5751 237.873,90.9084 240.5,91.5 Z"/></g>
<g><path style="opacity:1" fill="#771f16" d="M 160.5,89.5 C 157.404,93.4816 155.071,97.815 153.5,102.5C 152.741,98.289 150.407,96.9557 146.5,98.5C 143.591,93.2451 144.758,92.2451 150,95.5C 150.483,94.552 150.649,93.552 150.5,92.5C 153.346,92.9699 155.679,92.1366 157.5,90C 155.45,89.5838 154.116,88.4171 153.5,86.5C 154.496,86.5858 155.329,86.2524 156,85.5C 157.371,87.0414 158.871,88.3747 160.5,89.5 Z"/></g>
<g><path style="opacity:1" fill="#bf8dbe" d="M 199.5,90.5 C 199.473,92.1993 198.806,93.5326 197.5,94.5C 196.855,96.8263 195.522,98.493 193.5,99.5C 192.9,98.1001 191.9,97.1001 190.5,96.5C 190.5,95.1667 190.5,93.8333 190.5,92.5C 191.485,89.3408 193.485,88.3408 196.5,89.5C 197.881,87.0712 198.881,87.4046 199.5,90.5 Z"/></g>
<g><path style="opacity:1" fill="#b2221e" d="M 243.5,82.5 C 242.746,85.0777 242.746,87.7444 243.5,90.5C 245.099,90.2322 246.432,90.5655 247.5,91.5C 247.771,93.3797 247.104,94.713 245.5,95.5C 244.167,95.5 242.833,95.5 241.5,95.5C 243.117,92.9236 242.783,91.9236 240.5,92.5C 240.5,92.1667 240.5,91.8333 240.5,91.5C 240.953,90.5416 241.619,89.7083 242.5,89C 239.342,87.3039 239.008,85.4706 241.5,83.5C 242.167,83.1667 242.833,82.8333 243.5,82.5 Z"/></g>
<g><path style="opacity:0.231" fill="#dadada" d="M 258.5,155.5 C 253.244,156.022 247.91,156.189 242.5,156C 232.694,160.232 227.027,157.065 225.5,146.5C 228.187,146.664 230.854,146.497 233.5,146C 240.366,143.49 247.199,140.99 254,138.5C 254.346,136.782 254.846,135.115 255.5,133.5C 254.846,131.885 254.346,130.218 254,128.5C 247.972,126.236 242.139,123.569 236.5,120.5C 241.951,115.553 246.451,109.886 250,103.5C 252.554,96.7242 255.887,90.3908 260,84.5C 264.563,74.1466 261.396,69.9799 250.5,72C 248.33,73.5862 245.996,74.9196 243.5,76C 233.316,78.3361 223.982,82.5027 215.5,88.5C 214.506,83.544 214.173,78.544 214.5,73.5C 215.167,73.5 215.5,73.1667 215.5,72.5C 216.003,76.5172 216.503,80.8505 217,85.5C 222.638,81.3333 228.638,78.6666 235,77.5C 241.954,74.0996 249.121,71.4329 256.5,69.5C 259.01,69.833 261.177,70.833 263,72.5C 264.624,80.1404 262.457,86.6404 256.5,92C 256.573,96.208 254.906,99.8746 251.5,103C 252.412,105.488 251.412,107.155 248.5,108C 248.833,108.333 249.167,108.667 249.5,109C 246.157,112.708 242.824,116.375 239.5,120C 244.375,122.184 249.375,124.184 254.5,126C 255.743,127.154 256.743,128.488 257.5,130C 256.553,132.478 256.553,134.812 257.5,137C 256.5,139.333 254.833,141 252.5,142C 245.226,144.313 238.059,146.813 231,149.5C 229.817,148.269 228.651,148.269 227.5,149.5C 228.666,153.831 231.499,156.164 236,156.5C 238.591,155.845 241.258,154.845 244,153.5C 249.032,154.516 253.865,155.182 258.5,155.5 Z"/></g>
<g><path style="opacity:1" fill="#691e1d" d="M 249.5,86.5 C 250.291,84.3093 250.291,82.3093 249.5,80.5C 251.253,78.6013 253.253,77.9347 255.5,78.5C 253.829,81.4921 251.829,84.1587 249.5,86.5 Z"/></g>
<g><path style="opacity:1" fill="#6f2635" d="M 168.5,94.5 C 168.631,95.2389 168.464,95.9056 168,96.5C 166.586,95.5868 165.086,95.5868 163.5,96.5C 164.552,94.744 166.219,94.0773 168.5,94.5 Z"/></g>
<g><path style="opacity:1" fill="#eab4e3" d="M 221.5,92.5 C 221.328,93.4916 221.662,94.1583 222.5,94.5C 223.72,96.0496 223.72,97.7163 222.5,99.5C 221.833,99.5 221.5,99.8333 221.5,100.5C 220.833,100.5 220.167,100.5 219.5,100.5C 220.153,99.1932 220.82,97.8599 221.5,96.5C 221.376,95.8933 221.043,95.56 220.5,95.5C 220.263,94.209 220.596,93.209 221.5,92.5 Z"/></g>
<g><path style="opacity:1" fill="#e09c97" d="M 185.5,96.5 C 187.027,96.427 188.027,97.0937 188.5,98.5C 186.517,98.1568 185.183,98.8235 184.5,100.5C 182.821,100.715 181.821,100.048 181.5,98.5C 182.833,97.8333 184.167,97.1667 185.5,96.5 Z"/></g>
<g><path style="opacity:1" fill="#f2d6cd" d="M 188.5,94.5 C 188.5,95.8333 189.167,96.5 190.5,96.5C 191.9,97.1001 192.9,98.1001 193.5,99.5C 191.585,99.7845 189.919,99.4511 188.5,98.5C 188.027,97.0937 187.027,96.427 185.5,96.5C 185.821,94.9519 186.821,94.2852 188.5,94.5 Z"/></g>
<g><path style="opacity:1" fill="#b2507d" d="M 222.5,94.5 C 222.842,93.6618 223.508,93.3284 224.5,93.5C 225.9,95.0163 227.233,96.6829 228.5,98.5C 227.812,99.8549 226.812,100.855 225.5,101.5C 224.29,101.068 223.29,100.401 222.5,99.5C 223.72,97.7163 223.72,96.0496 222.5,94.5 Z"/></g>
<g><path style="opacity:1" fill="#d34a2e" d="M 168.5,94.5 C 166.219,94.0773 164.552,94.744 163.5,96.5C 162.209,96.2627 161.209,96.596 160.5,97.5C 159.662,97.8417 159.328,98.5084 159.5,99.5C 158.833,99.5 158.167,99.5 157.5,99.5C 156.518,101.406 155.518,103.406 154.5,105.5C 153.702,105.043 153.369,104.376 153.5,103.5C 153.5,103.167 153.5,102.833 153.5,102.5C 155.071,97.815 157.404,93.4816 160.5,89.5C 160.897,88.475 161.563,88.3083 162.5,89C 163.211,90.2547 164.044,91.4214 165,92.5C 166.851,91.4632 168.017,92.1299 168.5,94.5 Z"/></g>
<g><path style="opacity:1" fill="#95658e" d="M 188.5,98.5 C 189.919,99.4511 191.585,99.7845 193.5,99.5C 193.782,100.778 194.449,101.778 195.5,102.5C 194.5,102.5 193.5,102.5 192.5,102.5C 192.179,100.952 191.179,100.285 189.5,100.5C 189.394,103.079 190.061,105.412 191.5,107.5C 191.5,107.833 191.5,108.167 191.5,108.5C 190.209,108.737 189.209,108.404 188.5,107.5C 187.864,105.205 186.531,103.539 184.5,102.5C 184.5,101.833 184.5,101.167 184.5,100.5C 185.183,98.8235 186.517,98.1568 188.5,98.5 Z"/></g>
<g><path style="opacity:1" fill="#d82e14" d="M 244.5,98.5 C 245.738,98.81 245.738,99.31 244.5,100C 243.255,100.791 241.922,101.291 240.5,101.5C 239.624,101.631 238.957,101.298 238.5,100.5C 240.304,99.2319 242.304,98.5652 244.5,98.5 Z"/></g>
<g><path style="opacity:1" fill="#743e6a" d="M 157.5,99.5 C 158.167,99.5 158.833,99.5 159.5,99.5C 159.5,100.833 159.5,102.167 159.5,103.5C 159.5,103.833 159.5,104.167 159.5,104.5C 159.167,104.5 158.833,104.5 158.5,104.5C 157.962,102.883 157.629,101.216 157.5,99.5 Z"/></g>
<g><path style="opacity:1" fill="#8a6fc1" d="M 220.5,95.5 C 221.043,95.56 221.376,95.8933 221.5,96.5C 220.82,97.8599 220.153,99.1932 219.5,100.5C 217.566,101.11 215.899,102.11 214.5,103.5C 213.833,102.833 213.167,102.167 212.5,101.5C 214.836,100.139 216.502,98.1391 217.5,95.5C 218.687,96.6527 219.687,96.6527 220.5,95.5 Z"/></g>
<g><path style="opacity:1" fill="#db4b14" d="M 241.5,95.5 C 239.089,96.517 237.422,98.1837 236.5,100.5C 236.631,101.239 236.464,101.906 236,102.5C 234.6,103.748 233.1,104.748 231.5,105.5C 230.596,104.791 230.263,103.791 230.5,102.5C 230.5,102.167 230.5,101.833 230.5,101.5C 232.694,99.7786 233.861,97.4453 234,94.5C 236.906,96.0671 239.072,95.4005 240.5,92.5C 242.783,91.9236 243.117,92.9236 241.5,95.5 Z"/></g>
<g><path style="opacity:1" fill="#7f71bd" d="M 160.5,97.5 C 163.782,97.8073 166.448,99.1406 168.5,101.5C 168.5,103.167 168.5,104.833 168.5,106.5C 167.566,105.432 167.232,104.099 167.5,102.5C 166.5,102.5 165.5,102.5 164.5,102.5C 164.737,101.209 164.404,100.209 163.5,99.5C 162,100.625 160.667,101.959 159.5,103.5C 159.5,102.167 159.5,100.833 159.5,99.5C 159.328,98.5084 159.662,97.8417 160.5,97.5 Z"/></g>
<g><path style="opacity:1" fill="#f8e2d4" d="M 219.5,100.5 C 220.167,100.5 220.833,100.5 221.5,100.5C 223.129,102.196 222.796,103.196 220.5,103.5C 219.89,102.609 219.557,101.609 219.5,100.5 Z"/></g>
<g><path style="opacity:1" fill="#8bd6f2" d="M 163.5,99.5 C 163.606,102.079 162.939,104.412 161.5,106.5C 160.167,106.5 159.5,105.833 159.5,104.5C 159.5,104.167 159.5,103.833 159.5,103.5C 160.667,101.959 162,100.625 163.5,99.5 Z"/></g>
<g><path style="opacity:1" fill="#837bbe" d="M 192.5,102.5 C 191.596,103.209 191.263,104.209 191.5,105.5C 192.959,105.567 194.292,105.234 195.5,104.5C 195.5,105.167 195.5,105.833 195.5,106.5C 194.167,106.833 192.833,107.167 191.5,107.5C 190.061,105.412 189.394,103.079 189.5,100.5C 191.179,100.285 192.179,100.952 192.5,102.5 Z"/></g>
<g><path style="opacity:1" fill="#e64b3d" d="M 203.5,98.5 C 203.517,100.565 203.85,102.565 204.5,104.5C 203.5,104.5 202.5,104.5 201.5,104.5C 201.167,104.5 200.833,104.5 200.5,104.5C 200.192,102.076 200.526,99.7427 201.5,97.5C 202.183,97.8627 202.85,98.1961 203.5,98.5 Z"/></g>
<g><path style="opacity:1" fill="#dcddf2" d="M 192.5,102.5 C 193.5,102.5 194.5,102.5 195.5,102.5C 195.5,103.167 195.5,103.833 195.5,104.5C 194.292,105.234 192.959,105.567 191.5,105.5C 191.263,104.209 191.596,103.209 192.5,102.5 Z"/></g>
<g><path style="opacity:1" fill="#c85161" d="M 222.5,99.5 C 223.29,100.401 224.29,101.068 225.5,101.5C 225.369,102.376 225.702,103.043 226.5,103.5C 227.213,101.565 228.213,101.232 229.5,102.5C 228.661,104.384 227.328,105.717 225.5,106.5C 224.778,106.918 224.278,107.584 224,108.5C 223.601,108.272 223.435,107.938 223.5,107.5C 223.229,105.57 222.229,104.236 220.5,103.5C 222.796,103.196 223.129,102.196 221.5,100.5C 221.5,99.8333 221.833,99.5 222.5,99.5 Z"/></g>
<g><path style="opacity:1" fill="#791c21" d="M 241.5,95.5 C 242.833,95.5 244.167,95.5 245.5,95.5C 244.89,96.391 244.557,97.391 244.5,98.5C 242.304,98.5652 240.304,99.2319 238.5,100.5C 238.957,101.298 239.624,101.631 240.5,101.5C 240.577,102.75 241.244,103.583 242.5,104C 239.733,105.566 237.733,107.733 236.5,110.5C 236.017,106.981 236.017,103.648 236.5,100.5C 237.422,98.1837 239.089,96.517 241.5,95.5 Z"/></g>
<g><path style="opacity:1" fill="#c26989" d="M 168.5,94.5 C 169.766,95.0899 171.099,95.5899 172.5,96C 174.66,98.9917 176.993,101.825 179.5,104.5C 178.833,105.167 178.167,105.833 177.5,106.5C 175.451,106.294 175.117,105.461 176.5,104C 175.552,103.517 174.552,103.351 173.5,103.5C 173.158,102.662 172.492,102.328 171.5,102.5C 170.791,101.596 169.791,101.263 168.5,101.5C 166.448,99.1406 163.782,97.8073 160.5,97.5C 161.209,96.596 162.209,96.2627 163.5,96.5C 165.086,95.5868 166.586,95.5868 168,96.5C 168.464,95.9056 168.631,95.2389 168.5,94.5 Z"/></g>
<g><path style="opacity:1" fill="#9f4768" d="M 212.5,101.5 C 213.167,102.167 213.833,102.833 214.5,103.5C 216.097,104.09 217.431,105.09 218.5,106.5C 219.176,105.398 219.842,104.398 220.5,103.5C 222.229,104.236 223.229,105.57 223.5,107.5C 221.97,108.211 220.637,109.211 219.5,110.5C 218.512,111.795 217.512,113.128 216.5,114.5C 214.833,114.5 213.167,114.5 211.5,114.5C 210.909,113.849 210.243,113.182 209.5,112.5C 210.524,111.148 211.524,109.815 212.5,108.5C 213.151,109.091 213.818,109.757 214.5,110.5C 216.124,109.131 216.624,107.464 216,105.5C 214.582,108.001 213.582,107.668 213,104.5C 212.283,105.044 211.783,105.711 211.5,106.5C 210.5,106.5 209.5,106.5 208.5,106.5C 208.343,103.656 209.676,101.989 212.5,101.5 Z"/></g>
<g><path style="opacity:1" fill="#c98dc3" d="M 219.5,100.5 C 219.557,101.609 219.89,102.609 220.5,103.5C 219.842,104.398 219.176,105.398 218.5,106.5C 217.431,105.09 216.097,104.09 214.5,103.5C 215.899,102.11 217.566,101.11 219.5,100.5 Z"/></g>
<g><path style="opacity:1" fill="#9e3532" d="M 157.5,99.5 C 157.629,101.216 157.962,102.883 158.5,104.5C 157.167,105.5 157.167,106.5 158.5,107.5C 159.826,109.195 159.493,110.528 157.5,111.5C 156.833,111.5 156.167,111.5 155.5,111.5C 154.391,110.71 153.058,110.21 151.5,110C 150.778,108.249 149.778,106.749 148.5,105.5C 149.82,104.058 151.486,103.392 153.5,103.5C 153.369,104.376 153.702,105.043 154.5,105.5C 155.518,103.406 156.518,101.406 157.5,99.5 Z"/></g>
<g><path style="opacity:1" fill="#edb456" d="M 199.5,104.5 C 199.833,104.5 200.167,104.5 200.5,104.5C 200.833,104.5 201.167,104.5 201.5,104.5C 201.218,105.778 200.551,106.778 199.5,107.5C 198.167,106.5 198.167,105.5 199.5,104.5 Z"/></g>
<g><path style="opacity:1" fill="#b84959" d="M 203.5,98.5 C 204.222,99.5511 205.222,100.218 206.5,100.5C 206.539,101.583 206.873,102.583 207.5,103.5C 206.05,104.85 205.383,106.516 205.5,108.5C 206.406,111.436 207.072,114.436 207.5,117.5C 204.794,117.425 202.127,117.092 199.5,116.5C 198.596,115.791 198.263,114.791 198.5,113.5C 196.801,113.473 195.467,112.806 194.5,111.5C 193.833,110.167 192.833,109.167 191.5,108.5C 191.5,108.167 191.5,107.833 191.5,107.5C 192.833,107.167 194.167,106.833 195.5,106.5C 195.196,107.15 194.863,107.817 194.5,108.5C 197.313,110.3 199.313,112.633 200.5,115.5C 201.5,115.5 202.5,115.5 203.5,115.5C 203.386,113.282 202.72,111.282 201.5,109.5C 202.5,109.5 203.5,109.5 204.5,109.5C 204.5,107.833 204.5,106.167 204.5,104.5C 203.85,102.565 203.517,100.565 203.5,98.5 Z"/></g>
<g><path style="opacity:1" fill="#d23f2a" d="M 229.5,102.5 C 229.833,102.5 230.167,102.5 230.5,102.5C 230.263,103.791 230.596,104.791 231.5,105.5C 231.389,106.117 231.056,106.617 230.5,107C 232.319,107.74 233.652,108.907 234.5,110.5C 233.226,111.189 233.226,112.023 234.5,113C 233.584,113.278 232.918,113.778 232.5,114.5C 229.832,114.166 227.832,112.833 226.5,110.5C 225.818,111.243 225.151,111.909 224.5,112.5C 224.383,110.516 225.05,108.85 226.5,107.5C 226.376,106.893 226.043,106.56 225.5,106.5C 227.328,105.717 228.661,104.384 229.5,102.5 Z"/></g>
<g><path style="opacity:1" fill="#6c8be3" d="M 163.5,99.5 C 164.404,100.209 164.737,101.209 164.5,102.5C 165.5,102.5 166.5,102.5 167.5,102.5C 167.232,104.099 167.566,105.432 168.5,106.5C 168.719,107.675 168.386,108.675 167.5,109.5C 165.929,107.585 163.929,106.585 161.5,106.5C 162.939,104.412 163.606,102.079 163.5,99.5 Z"/></g>
<g><path style="opacity:1" fill="#ad2837" d="M 236.5,100.5 C 236.017,103.648 236.017,106.981 236.5,110.5C 235.833,110.5 235.167,110.5 234.5,110.5C 233.652,108.907 232.319,107.74 230.5,107C 231.056,106.617 231.389,106.117 231.5,105.5C 233.1,104.748 234.6,103.748 236,102.5C 236.464,101.906 236.631,101.239 236.5,100.5 Z"/></g>
<g><path style="opacity:1" fill="#692545" d="M 171.5,102.5 C 172.492,102.328 173.158,102.662 173.5,103.5C 173.751,105.17 174.418,106.67 175.5,108C 173.782,108.346 172.115,108.846 170.5,109.5C 169.164,106.859 169.498,104.526 171.5,102.5 Z"/></g>
<g><path style="opacity:1" fill="#e77945" d="M 201.5,104.5 C 202.5,104.5 203.5,104.5 204.5,104.5C 204.5,106.167 204.5,107.833 204.5,109.5C 203.5,109.5 202.5,109.5 201.5,109.5C 200.833,108.833 200.167,108.167 199.5,107.5C 200.551,106.778 201.218,105.778 201.5,104.5 Z"/></g>
<g><path style="opacity:1" fill="#e591a0" d="M 212.5,108.5 C 211.662,108.158 211.328,107.492 211.5,106.5C 211.783,105.711 212.283,105.044 213,104.5C 213.582,107.668 214.582,108.001 216,105.5C 216.624,107.464 216.124,109.131 214.5,110.5C 213.818,109.757 213.151,109.091 212.5,108.5 Z"/></g>
<g><path style="opacity:1" fill="#e69581" d="M 197.5,94.5 C 199.175,97.5072 199.841,100.84 199.5,104.5C 198.167,105.5 198.167,106.5 199.5,107.5C 200.167,108.167 200.833,108.833 201.5,109.5C 202.72,111.282 203.386,113.282 203.5,115.5C 202.5,115.5 201.5,115.5 200.5,115.5C 199.313,112.633 197.313,110.3 194.5,108.5C 194.863,107.817 195.196,107.15 195.5,106.5C 195.5,105.833 195.5,105.167 195.5,104.5C 195.5,103.833 195.5,103.167 195.5,102.5C 194.449,101.778 193.782,100.778 193.5,99.5C 195.522,98.493 196.855,96.8263 197.5,94.5 Z"/></g>
<g><path style="opacity:1" fill="#763555" d="M 155.5,111.5 C 156.167,111.5 156.833,111.5 157.5,111.5C 160.015,112.86 159.682,113.86 156.5,114.5C 154.519,113.895 154.185,112.895 155.5,111.5 Z"/></g>
<g><path style="opacity:1" fill="#e2778c" d="M 158.5,107.5 C 160.288,107.215 161.955,107.548 163.5,108.5C 163.137,109.183 162.804,109.85 162.5,110.5C 161.737,112.368 160.737,114.035 159.5,115.5C 158.209,115.737 157.209,115.404 156.5,114.5C 159.682,113.86 160.015,112.86 157.5,111.5C 159.493,110.528 159.826,109.195 158.5,107.5 Z"/></g>
<g><path style="opacity:1" fill="#dd7bb0" d="M 188.5,107.5 C 189.209,108.404 190.209,108.737 191.5,108.5C 192.833,109.167 193.833,110.167 194.5,111.5C 190.153,111.942 189.82,112.775 193.5,114C 192.748,114.671 192.414,115.504 192.5,116.5C 190.544,114.886 188.544,113.219 186.5,111.5C 186.66,109.847 187.326,108.514 188.5,107.5 Z"/></g>
<g><path style="opacity:1" fill="#e49ec2" d="M 194.5,111.5 C 195.467,112.806 196.801,113.473 198.5,113.5C 198.263,114.791 198.596,115.791 199.5,116.5C 199.5,116.833 199.5,117.167 199.5,117.5C 198.833,117.833 198.167,118.167 197.5,118.5C 196.365,116.787 194.698,116.12 192.5,116.5C 192.414,115.504 192.748,114.671 193.5,114C 189.82,112.775 190.153,111.942 194.5,111.5 Z"/></g>
<g><path style="opacity:1" fill="#ee8047" d="M 225.5,106.5 C 226.043,106.56 226.376,106.893 226.5,107.5C 225.05,108.85 224.383,110.516 224.5,112.5C 222.833,113.167 221.167,113.833 219.5,114.5C 219.5,113.167 219.5,111.833 219.5,110.5C 220.637,109.211 221.97,108.211 223.5,107.5C 223.435,107.938 223.601,108.272 224,108.5C 224.278,107.584 224.778,106.918 225.5,106.5 Z"/></g>
<g><path style="opacity:1" fill="#8875c5" d="M 184.5,102.5 C 186.531,103.539 187.864,105.205 188.5,107.5C 187.326,108.514 186.66,109.847 186.5,111.5C 185.417,111.461 184.417,111.127 183.5,110.5C 181.168,113.722 178.168,114.722 174.5,113.5C 176.045,112.548 177.712,112.215 179.5,112.5C 179.296,110.315 178.63,108.315 177.5,106.5C 178.167,105.833 178.833,105.167 179.5,104.5C 180.85,105.483 181.85,106.816 182.5,108.5C 183.666,106.635 183.333,104.968 181.5,103.5C 182.325,102.614 183.325,102.281 184.5,102.5 Z"/></g>
<g><path style="opacity:1" fill="#ba3338" d="M 232.5,114.5 C 231.791,115.404 230.791,115.737 229.5,115.5C 228.265,115.279 227.265,114.612 226.5,113.5C 225.41,114.727 224.076,115.56 222.5,116C 221.748,116.671 221.414,117.504 221.5,118.5C 219.824,117.817 219.157,116.483 219.5,114.5C 221.167,113.833 222.833,113.167 224.5,112.5C 225.151,111.909 225.818,111.243 226.5,110.5C 227.832,112.833 229.832,114.166 232.5,114.5 Z"/></g>
<g><path style="opacity:1" fill="#8d375b" d="M 162.5,110.5 C 163.833,110.5 165.167,110.5 166.5,110.5C 166.5,111.833 166.5,113.167 166.5,114.5C 167.833,114.5 169.167,114.5 170.5,114.5C 170.5,115.5 170.5,116.5 170.5,117.5C 174.931,116.53 177.265,118.197 177.5,122.5C 178.5,122.5 179.5,122.5 180.5,122.5C 179.432,123.434 178.099,123.768 176.5,123.5C 175.974,121.77 174.974,120.436 173.5,119.5C 171.319,119.716 169.653,118.883 168.5,117C 168.833,116.667 169.167,116.333 169.5,116C 168.365,115.251 167.365,115.417 166.5,116.5C 167.833,117.5 167.833,118.5 166.5,119.5C 168.288,120.283 169.288,121.616 169.5,123.5C 167.132,122.986 165.132,121.82 163.5,120C 163.957,119.586 164.291,119.086 164.5,118.5C 162.345,117.999 160.678,116.999 159.5,115.5C 160.737,114.035 161.737,112.368 162.5,110.5 Z"/></g>
<g><path style="opacity:1" fill="#47224a" d="M 180.5,121.5 C 180.5,121.833 180.5,122.167 180.5,122.5C 179.5,122.5 178.5,122.5 177.5,122.5C 177.265,118.197 174.931,116.53 170.5,117.5C 170.5,116.5 170.5,115.5 170.5,114.5C 172.449,113.275 173.782,113.942 174.5,116.5C 175.736,115.754 177.07,115.421 178.5,115.5C 178.5,116.5 178.5,117.5 178.5,118.5C 179.552,118.351 180.552,118.517 181.5,119C 180.748,119.671 180.414,120.504 180.5,121.5 Z"/></g>
<g><path style="opacity:1" fill="#5a2148" d="M 229.5,115.5 C 227.556,116.928 225.889,118.761 224.5,121C 223.552,121.483 222.552,121.649 221.5,121.5C 221.5,120.5 221.5,119.5 221.5,118.5C 221.414,117.504 221.748,116.671 222.5,116C 224.076,115.56 225.41,114.727 226.5,113.5C 227.265,114.612 228.265,115.279 229.5,115.5 Z"/></g>
<g><path style="opacity:1" fill="#784c88" d="M 168.5,101.5 C 169.791,101.263 170.791,101.596 171.5,102.5C 169.498,104.526 169.164,106.859 170.5,109.5C 172.115,108.846 173.782,108.346 175.5,108C 174.418,106.67 173.751,105.17 173.5,103.5C 174.552,103.351 175.552,103.517 176.5,104C 175.117,105.461 175.451,106.294 177.5,106.5C 178.63,108.315 179.296,110.315 179.5,112.5C 177.712,112.215 176.045,112.548 174.5,113.5C 178.168,114.722 181.168,113.722 183.5,110.5C 184.417,111.127 185.417,111.461 186.5,111.5C 188.544,113.219 190.544,114.886 192.5,116.5C 194.698,116.12 196.365,116.787 197.5,118.5C 198.167,119.833 198.833,121.167 199.5,122.5C 197.772,123.379 195.939,124.046 194,124.5C 191.725,124.722 190.559,123.722 190.5,121.5C 191.434,120.432 191.768,119.099 191.5,117.5C 189.508,117.672 187.842,117.005 186.5,115.5C 183.988,116.784 183.988,117.784 186.5,118.5C 187.767,121.272 187.767,123.939 186.5,126.5C 186.229,124.688 185.562,123.022 184.5,121.5C 183.313,120.347 182.313,120.347 181.5,121.5C 181.167,121.5 180.833,121.5 180.5,121.5C 180.414,120.504 180.748,119.671 181.5,119C 180.552,118.517 179.552,118.351 178.5,118.5C 178.5,117.5 178.5,116.5 178.5,115.5C 177.07,115.421 175.736,115.754 174.5,116.5C 173.782,113.942 172.449,113.275 170.5,114.5C 169.167,114.5 167.833,114.5 166.5,114.5C 166.5,113.167 166.5,111.833 166.5,110.5C 165.167,110.5 163.833,110.5 162.5,110.5C 162.804,109.85 163.137,109.183 163.5,108.5C 161.955,107.548 160.288,107.215 158.5,107.5C 157.167,106.5 157.167,105.5 158.5,104.5C 158.833,104.5 159.167,104.5 159.5,104.5C 159.5,105.833 160.167,106.5 161.5,106.5C 163.929,106.585 165.929,107.585 167.5,109.5C 168.386,108.675 168.719,107.675 168.5,106.5C 168.5,104.833 168.5,103.167 168.5,101.5 Z"/></g>
<g><path style="opacity:1" fill="#f5cecc" d="M 211.5,114.5 C 212.833,115.5 212.833,116.5 211.5,117.5C 210.833,117.5 210.167,117.5 209.5,117.5C 208.611,115.975 209.278,114.975 211.5,114.5 Z"/></g>
<g><path style="opacity:1" fill="#be74a6" d="M 208.5,106.5 C 209.5,106.5 210.5,106.5 211.5,106.5C 211.328,107.492 211.662,108.158 212.5,108.5C 211.524,109.815 210.524,111.148 209.5,112.5C 210.243,113.182 210.909,113.849 211.5,114.5C 209.278,114.975 208.611,115.975 209.5,117.5C 208.789,119.201 207.455,120.201 205.5,120.5C 203.289,119.877 201.289,118.877 199.5,117.5C 199.5,117.167 199.5,116.833 199.5,116.5C 202.127,117.092 204.794,117.425 207.5,117.5C 207.072,114.436 206.406,111.436 205.5,108.5C 207.027,108.573 208.027,107.906 208.5,106.5 Z"/></g>
<g><path style="opacity:1" fill="#d5789a" d="M 211.5,114.5 C 213.167,114.5 214.833,114.5 216.5,114.5C 216.573,116.789 216.906,119.122 217.5,121.5C 216.883,121.611 216.383,121.944 216,122.5C 214.242,120.917 212.742,119.25 211.5,117.5C 212.833,116.5 212.833,115.5 211.5,114.5 Z"/></g>
<g><path style="opacity:1" fill="#cb495f" d="M 219.5,110.5 C 219.5,111.833 219.5,113.167 219.5,114.5C 219.157,116.483 219.824,117.817 221.5,118.5C 221.5,119.5 221.5,120.5 221.5,121.5C 220.833,121.5 220.5,121.833 220.5,122.5C 219.391,122.443 218.391,122.11 217.5,121.5C 216.906,119.122 216.573,116.789 216.5,114.5C 217.512,113.128 218.512,111.795 219.5,110.5 Z"/></g>
<g><path style="opacity:1" fill="#d04f62" d="M 173.5,119.5 C 171.31,120.374 170.31,122.041 170.5,124.5C 169.833,124.5 169.5,124.167 169.5,123.5C 169.288,121.616 168.288,120.283 166.5,119.5C 167.833,118.5 167.833,117.5 166.5,116.5C 167.365,115.417 168.365,115.251 169.5,116C 169.167,116.333 168.833,116.667 168.5,117C 169.653,118.883 171.319,119.716 173.5,119.5 Z"/></g>
<g><path style="opacity:1" fill="#baa6e7" d="M 190.5,121.5 C 189.167,120.5 187.833,119.5 186.5,118.5C 183.988,117.784 183.988,116.784 186.5,115.5C 187.842,117.005 189.508,117.672 191.5,117.5C 191.768,119.099 191.434,120.432 190.5,121.5 Z"/></g>
<g><path style="opacity:1" fill="#883359" d="M 209.5,117.5 C 210.167,117.5 210.833,117.5 211.5,117.5C 212.742,119.25 214.242,120.917 216,122.5C 216.383,121.944 216.883,121.611 217.5,121.5C 218.391,122.11 219.391,122.443 220.5,122.5C 220.443,123.609 220.11,124.609 219.5,125.5C 218.417,125.539 217.417,125.873 216.5,126.5C 215.818,125.757 215.151,125.091 214.5,124.5C 213.791,123.596 212.791,123.263 211.5,123.5C 211.187,126.247 211.52,128.914 212.5,131.5C 213.518,130.807 214.518,130.141 215.5,129.5C 216.404,130.209 216.737,131.209 216.5,132.5C 215.127,132.343 213.793,132.51 212.5,133C 212.986,135.027 212.986,137.193 212.5,139.5C 212.167,139.5 211.833,139.5 211.5,139.5C 211.672,138.508 211.338,137.842 210.5,137.5C 210.179,135.952 209.179,135.285 207.5,135.5C 207.629,133.784 207.962,132.117 208.5,130.5C 209.372,127.579 209.372,124.579 208.5,121.5C 207.5,121.5 206.5,121.5 205.5,121.5C 205.5,121.167 205.5,120.833 205.5,120.5C 207.455,120.201 208.789,119.201 209.5,117.5 Z"/></g>
<g><path style="opacity:1" fill="#bebcef" d="M 199.5,117.5 C 201.289,118.877 203.289,119.877 205.5,120.5C 205.5,120.833 205.5,121.167 205.5,121.5C 206.091,122.151 206.757,122.818 207.5,123.5C 206.606,123.517 205.606,123.851 204.5,124.5C 204.167,124.5 203.833,124.5 203.5,124.5C 203.5,124.167 203.5,123.833 203.5,123.5C 202.432,122.566 201.099,122.232 199.5,122.5C 198.833,121.167 198.167,119.833 197.5,118.5C 198.167,118.167 198.833,117.833 199.5,117.5 Z"/></g>
<g><path style="opacity:1" fill="#ce482b" d="M 173.5,119.5 C 174.974,120.436 175.974,121.77 176.5,123.5C 176.5,124.167 176.5,124.833 176.5,125.5C 174.886,127.075 172.886,127.741 170.5,127.5C 170.649,128.552 170.483,129.552 170,130.5C 168.989,129.663 167.822,129.33 166.5,129.5C 167.167,128.833 167.833,128.167 168.5,127.5C 168.5,126.833 168.5,126.167 168.5,125.5C 169.583,125.539 170.583,125.873 171.5,126.5C 172.67,125.306 172.337,124.639 170.5,124.5C 170.31,122.041 171.31,120.374 173.5,119.5 Z"/></g>
<g><path style="opacity:1" fill="#e4948b" d="M 186.5,126.5 C 186.167,126.5 185.833,126.5 185.5,126.5C 184.407,124.651 183.074,122.984 181.5,121.5C 182.313,120.347 183.313,120.347 184.5,121.5C 185.562,123.022 186.229,124.688 186.5,126.5 Z"/></g>
<g><path style="opacity:1" fill="#c64350" d="M 180.5,121.5 C 180.833,121.5 181.167,121.5 181.5,121.5C 183.074,122.984 184.407,124.651 185.5,126.5C 185.5,126.833 185.5,127.167 185.5,127.5C 182.539,126.677 179.539,126.01 176.5,125.5C 176.5,124.833 176.5,124.167 176.5,123.5C 178.099,123.768 179.432,123.434 180.5,122.5C 180.5,122.167 180.5,121.833 180.5,121.5 Z"/></g>
<g><path style="opacity:1" fill="#9e7bc8" d="M 205.5,121.5 C 206.5,121.5 207.5,121.5 208.5,121.5C 209.372,124.579 209.372,127.579 208.5,130.5C 205.627,131.535 204.96,130.535 206.5,127.5C 205.807,126.482 205.141,125.482 204.5,124.5C 205.606,123.851 206.606,123.517 207.5,123.5C 206.757,122.818 206.091,122.151 205.5,121.5 Z"/></g>
<g><path style="opacity:1" fill="#b29db1" d="M 160.5,126.5 C 159.508,126.328 158.842,126.662 158.5,127.5C 158.167,127.5 157.833,127.5 157.5,127.5C 156.5,127.5 155.5,127.5 154.5,127.5C 156.402,125.849 158.402,125.516 160.5,126.5 Z"/></g>
<g><path style="opacity:1" fill="#5d2d55" d="M 168.5,125.5 C 168.5,126.167 168.5,126.833 168.5,127.5C 165.167,127.5 161.833,127.5 158.5,127.5C 158.842,126.662 159.508,126.328 160.5,126.5C 163.165,125.152 165.831,124.819 168.5,125.5 Z"/></g>
<g><path style="opacity:1" fill="#6785df" d="M 186.5,118.5 C 187.833,119.5 189.167,120.5 190.5,121.5C 190.559,123.722 191.725,124.722 194,124.5C 195.939,124.046 197.772,123.379 199.5,122.5C 201.099,122.232 202.432,122.566 203.5,123.5C 202.5,123.5 201.5,123.5 200.5,123.5C 201.149,125.477 201.149,127.31 200.5,129C 201.176,130.683 202.176,130.85 203.5,129.5C 203.833,132.167 204.167,134.833 204.5,137.5C 202.833,137.5 201.167,137.5 199.5,137.5C 199.5,138.5 199.5,139.5 199.5,140.5C 199.167,140.5 198.833,140.5 198.5,140.5C 197.859,139.518 197.193,138.518 196.5,137.5C 197.243,136.818 197.909,136.151 198.5,135.5C 199.586,135.38 200.253,134.713 200.5,133.5C 200.457,132.584 200.124,131.917 199.5,131.5C 199.601,127.766 197.768,125.766 194,125.5C 192.319,125.608 191.152,126.275 190.5,127.5C 190.167,127.5 189.833,127.5 189.5,127.5C 189.565,127.062 189.399,126.728 189,126.5C 188.583,127.756 187.75,128.423 186.5,128.5C 186.5,127.833 186.5,127.167 186.5,126.5C 187.767,123.939 187.767,121.272 186.5,118.5 Z"/></g>
<g><path style="opacity:1" fill="#44498e" d="M 203.5,123.5 C 203.5,123.833 203.5,124.167 203.5,124.5C 202.904,125.935 202.904,127.602 203.5,129.5C 202.176,130.85 201.176,130.683 200.5,129C 201.149,127.31 201.149,125.477 200.5,123.5C 201.5,123.5 202.5,123.5 203.5,123.5 Z"/></g>
<g><path style="opacity:1" fill="#c3323d" d="M 214.5,124.5 C 214.629,126.216 214.962,127.883 215.5,129.5C 214.518,130.141 213.518,130.807 212.5,131.5C 211.52,128.914 211.187,126.247 211.5,123.5C 212.791,123.263 213.791,123.596 214.5,124.5 Z"/></g>
<g><path style="opacity:1" fill="#741523" d="M 176.5,125.5 C 179.539,126.01 182.539,126.677 185.5,127.5C 185.5,128.167 185.167,128.5 184.5,128.5C 183.167,128.167 181.833,127.833 180.5,127.5C 179.417,127.461 178.417,127.127 177.5,126.5C 177.419,130.372 175.085,132.205 170.5,132C 171.381,132.708 172.047,133.542 172.5,134.5C 169.729,134.579 167.063,134.079 164.5,133C 165.305,131.887 165.972,130.721 166.5,129.5C 167.822,129.33 168.989,129.663 170,130.5C 170.483,129.552 170.649,128.552 170.5,127.5C 172.886,127.741 174.886,127.075 176.5,125.5 Z"/></g>
<g><path style="opacity:1" fill="#556fd6" d="M 223.5,126.5 C 225.591,127.865 227.924,128.532 230.5,128.5C 230.5,130.5 230.5,132.5 230.5,134.5C 229.833,134.5 229.5,134.167 229.5,133.5C 229.225,131.242 228.225,130.908 226.5,132.5C 224.022,131.278 223.022,129.278 223.5,126.5 Z"/></g>
<g><path style="opacity:1" fill="#382f6d" d="M 154.5,127.5 C 155.5,127.5 156.5,127.5 157.5,127.5C 157.833,128.167 158.167,128.833 158.5,129.5C 156.517,129.157 155.183,129.824 154.5,131.5C 152.517,131.843 151.183,131.176 150.5,129.5C 151.671,128.655 153.005,127.989 154.5,127.5 Z"/></g>
<g><path style="opacity:1" fill="#591e4d" d="M 223.5,125.5 C 223.5,125.833 223.5,126.167 223.5,126.5C 223.022,129.278 224.022,131.278 226.5,132.5C 228.225,130.908 229.225,131.242 229.5,133.5C 228.011,135.116 227.011,137.116 226.5,139.5C 225.583,138.873 224.583,138.539 223.5,138.5C 219.506,136.071 219.506,134.738 223.5,134.5C 222.758,133.713 221.925,133.047 221,132.5C 220.71,130.08 220.21,127.746 219.5,125.5C 221.035,124.646 222.368,124.646 223.5,125.5 Z"/></g>
<g><path style="opacity:1" fill="#7594db" d="M 223.5,126.5 C 223.5,126.167 223.5,125.833 223.5,125.5C 226.167,125.833 228.833,126.167 231.5,126.5C 231.974,132.269 234.141,132.935 238,128.5C 239.03,128.836 239.53,129.503 239.5,130.5C 237.786,131.738 235.786,132.405 233.5,132.5C 233.5,133.5 233.5,134.5 233.5,135.5C 232.209,135.737 231.209,135.404 230.5,134.5C 230.5,132.5 230.5,130.5 230.5,128.5C 227.924,128.532 225.591,127.865 223.5,126.5 Z"/></g>
<g><path style="opacity:1" fill="#7a86cc" d="M 159.5,133.5 C 157.972,132.691 156.306,132.024 154.5,131.5C 155.183,129.824 156.517,129.157 158.5,129.5C 160.551,127.962 162.218,128.296 163.5,130.5C 162.923,132.55 161.59,133.55 159.5,133.5 Z"/></g>
<g><path style="opacity:1" fill="#4d0c21" d="M 180.5,127.5 C 179.833,128.5 179.167,129.5 178.5,130.5C 177.566,131.568 177.232,132.901 177.5,134.5C 175.833,134.5 174.167,134.5 172.5,134.5C 172.047,133.542 171.381,132.708 170.5,132C 175.085,132.205 177.419,130.372 177.5,126.5C 178.417,127.127 179.417,127.461 180.5,127.5 Z"/></g>
<g><path style="opacity:1" fill="#35d3ed" d="M 199.5,131.5 C 200.124,131.917 200.457,132.584 200.5,133.5C 200.253,134.713 199.586,135.38 198.5,135.5C 197.209,135.737 196.209,135.404 195.5,134.5C 196.039,132.495 196.705,130.495 197.5,128.5C 198.176,129.602 198.842,130.602 199.5,131.5 Z"/></g>
<g><path style="opacity:1" fill="#634586" d="M 180.5,127.5 C 181.833,127.833 183.167,128.167 184.5,128.5C 183.89,129.391 183.557,130.391 183.5,131.5C 182.432,132.434 181.099,132.768 179.5,132.5C 179.5,133.833 179.5,135.167 179.5,136.5C 181.167,136.5 182.833,136.5 184.5,136.5C 183.791,137.404 182.791,137.737 181.5,137.5C 180.5,137.5 179.5,137.5 178.5,137.5C 178.5,135.167 178.5,132.833 178.5,130.5C 179.167,129.5 179.833,128.5 180.5,127.5 Z"/></g>
<g><path style="opacity:1" fill="#6385e2" d="M 183.5,131.5 C 184.5,131.5 185.5,131.5 186.5,131.5C 186.635,133.554 185.968,135.221 184.5,136.5C 182.833,136.5 181.167,136.5 179.5,136.5C 179.5,135.167 179.5,133.833 179.5,132.5C 181.099,132.768 182.432,132.434 183.5,131.5 Z"/></g>
<g><path style="opacity:1" fill="#550c27" d="M 214.5,124.5 C 215.151,125.091 215.818,125.757 216.5,126.5C 217.417,125.873 218.417,125.539 219.5,125.5C 220.21,127.746 220.71,130.08 221,132.5C 221.925,133.047 222.758,133.713 223.5,134.5C 219.506,134.738 219.506,136.071 223.5,138.5C 222.5,139.167 221.5,139.833 220.5,140.5C 217.721,140.721 215.054,140.388 212.5,139.5C 212.986,137.193 212.986,135.027 212.5,133C 213.793,132.51 215.127,132.343 216.5,132.5C 216.737,131.209 216.404,130.209 215.5,129.5C 214.962,127.883 214.629,126.216 214.5,124.5 Z"/></g>
<g><path style="opacity:1" fill="#e55a57" d="M 239.5,130.5 C 240.791,130.263 241.791,130.596 242.5,131.5C 240.167,133.5 237.833,135.5 235.5,137.5C 235.5,137.833 235.5,138.167 235.5,138.5C 233.952,138.179 233.285,137.179 233.5,135.5C 233.5,134.5 233.5,133.5 233.5,132.5C 235.786,132.405 237.786,131.738 239.5,130.5 Z"/></g>
<g><path style="opacity:1" fill="#3aa0f0" d="M 199.5,131.5 C 198.842,130.602 198.176,129.602 197.5,128.5C 196.705,130.495 196.039,132.495 195.5,134.5C 195.167,134.5 194.833,134.5 194.5,134.5C 192.856,134.286 191.356,134.62 190,135.5C 188.354,133.391 187.188,131.057 186.5,128.5C 187.75,128.423 188.583,127.756 189,126.5C 189.399,126.728 189.565,127.062 189.5,127.5C 189.5,129.167 189.5,130.833 189.5,132.5C 190.5,132.5 191.5,132.5 192.5,132.5C 192.357,130.738 192.691,129.071 193.5,127.5C 192.575,126.438 191.575,126.438 190.5,127.5C 191.152,126.275 192.319,125.608 194,125.5C 197.768,125.766 199.601,127.766 199.5,131.5 Z"/></g>
<g><path style="opacity:1" fill="#67d8ee" d="M 189.5,127.5 C 189.833,127.5 190.167,127.5 190.5,127.5C 191.575,126.438 192.575,126.438 193.5,127.5C 192.691,129.071 192.357,130.738 192.5,132.5C 191.5,132.5 190.5,132.5 189.5,132.5C 189.5,130.833 189.5,129.167 189.5,127.5 Z"/></g>
<g><path style="opacity:1" fill="#30111c" d="M 150.5,129.5 C 151.183,131.176 152.517,131.843 154.5,131.5C 156.306,132.024 157.972,132.691 159.5,133.5C 156.392,133.375 154.392,134.708 153.5,137.5C 149.014,135.714 144.347,134.38 139.5,133.5C 143.167,132.006 146.834,130.672 150.5,129.5 Z"/></g>
<g><path style="opacity:1" fill="#521b1f" d="M 159.5,133.5 C 161.757,134.401 163.257,136.068 164,138.5C 164.308,137.692 164.808,137.025 165.5,136.5C 168.937,137.343 171.937,138.676 174.5,140.5C 170.419,140.643 166.586,140.976 163,141.5C 159.503,140.684 156.336,139.35 153.5,137.5C 154.392,134.708 156.392,133.375 159.5,133.5 Z"/></g>
<g><path style="opacity:1" fill="#977fcc" d="M 185.5,126.5 C 185.833,126.5 186.167,126.5 186.5,126.5C 186.5,127.167 186.5,127.833 186.5,128.5C 187.188,131.057 188.354,133.391 190,135.5C 191.356,134.62 192.856,134.286 194.5,134.5C 194.5,134.833 194.5,135.167 194.5,135.5C 191.219,137.17 187.886,137.504 184.5,136.5C 185.968,135.221 186.635,133.554 186.5,131.5C 185.5,131.5 184.5,131.5 183.5,131.5C 183.557,130.391 183.89,129.391 184.5,128.5C 185.167,128.5 185.5,128.167 185.5,127.5C 185.5,127.167 185.5,126.833 185.5,126.5 Z"/></g>
<g><path style="opacity:1" fill="#a15894" d="M 203.5,124.5 C 203.833,124.5 204.167,124.5 204.5,124.5C 205.141,125.482 205.807,126.482 206.5,127.5C 204.96,130.535 205.627,131.535 208.5,130.5C 207.962,132.117 207.629,133.784 207.5,135.5C 209.179,135.285 210.179,135.952 210.5,137.5C 209.518,138.141 208.518,138.807 207.5,139.5C 206.787,137.565 205.787,137.232 204.5,138.5C 202.716,138.893 201.05,139.559 199.5,140.5C 199.5,139.5 199.5,138.5 199.5,137.5C 201.167,137.5 202.833,137.5 204.5,137.5C 204.167,134.833 203.833,132.167 203.5,129.5C 202.904,127.602 202.904,125.935 203.5,124.5 Z"/></g>
<g><path style="opacity:1" fill="#8a3042" d="M 229.5,133.5 C 229.5,134.167 229.833,134.5 230.5,134.5C 231.209,135.404 232.209,135.737 233.5,135.5C 233.285,137.179 233.952,138.179 235.5,138.5C 230.551,141.009 225.551,141.676 220.5,140.5C 221.5,139.833 222.5,139.167 223.5,138.5C 224.583,138.539 225.583,138.873 226.5,139.5C 227.011,137.116 228.011,135.116 229.5,133.5 Z"/></g>
<g><path style="opacity:1" fill="#cc2e12" d="M 242.5,131.5 C 244.96,131.699 247.293,132.365 249.5,133.5C 244.643,134.402 239.976,135.735 235.5,137.5C 237.833,135.5 240.167,133.5 242.5,131.5 Z"/></g>
<g><path style="opacity:1" fill="#6e2a51" d="M 157.5,127.5 C 157.833,127.5 158.167,127.5 158.5,127.5C 161.833,127.5 165.167,127.5 168.5,127.5C 167.833,128.167 167.167,128.833 166.5,129.5C 165.972,130.721 165.305,131.887 164.5,133C 167.063,134.079 169.729,134.579 172.5,134.5C 174.167,134.5 175.833,134.5 177.5,134.5C 177.232,132.901 177.566,131.568 178.5,130.5C 178.5,132.833 178.5,135.167 178.5,137.5C 179.5,137.5 180.5,137.5 181.5,137.5C 180.833,138.833 180.167,140.167 179.5,141.5C 178.833,141.5 178.167,141.5 177.5,141.5C 178.076,139.217 177.076,138.883 174.5,140.5C 171.937,138.676 168.937,137.343 165.5,136.5C 164.808,137.025 164.308,137.692 164,138.5C 163.257,136.068 161.757,134.401 159.5,133.5C 161.59,133.55 162.923,132.55 163.5,130.5C 162.218,128.296 160.551,127.962 158.5,129.5C 158.167,128.833 157.833,128.167 157.5,127.5 Z"/></g>
<g><path style="opacity:1" fill="#d0412a" d="M 192.5,137.5 C 191.937,140.295 190.604,142.628 188.5,144.5C 187.566,143.432 187.232,142.099 187.5,140.5C 189.045,139.36 190.712,138.36 192.5,137.5 Z"/></g>
<g><path style="opacity:1" fill="#b5679a" d="M 194.5,135.5 C 194.5,137.167 194.5,138.833 194.5,140.5C 194.167,140.5 193.833,140.5 193.5,140.5C 193.737,139.209 193.404,138.209 192.5,137.5C 190.712,138.36 189.045,139.36 187.5,140.5C 185.135,141.008 182.801,141.675 180.5,142.5C 179.893,142.376 179.56,142.043 179.5,141.5C 180.167,140.167 180.833,138.833 181.5,137.5C 182.791,137.737 183.791,137.404 184.5,136.5C 187.886,137.504 191.219,137.17 194.5,135.5 Z"/></g>
<g><path style="opacity:1" fill="#7a457c" d="M 210.5,137.5 C 211.338,137.842 211.672,138.508 211.5,139.5C 212.147,141.141 213.147,142.474 214.5,143.5C 213.811,144.774 212.977,144.774 212,143.5C 211.517,144.448 211.351,145.448 211.5,146.5C 209.94,146.481 208.44,146.148 207,145.5C 205.282,146.031 205.115,146.698 206.5,147.5C 206.5,148.167 206.5,148.833 206.5,149.5C 205.167,149.5 204.5,148.833 204.5,147.5C 204.141,145.629 203.141,144.129 201.5,143C 202.883,141.729 203.883,140.229 204.5,138.5C 205.787,137.232 206.787,137.565 207.5,139.5C 208.518,138.807 209.518,138.141 210.5,137.5 Z"/></g>
<g><path style="opacity:1" fill="#a5334d" d="M 204.5,138.5 C 203.883,140.229 202.883,141.729 201.5,143C 203.141,144.129 204.141,145.629 204.5,147.5C 201.757,145.761 199.757,143.427 198.5,140.5C 198.833,140.5 199.167,140.5 199.5,140.5C 201.05,139.559 202.716,138.893 204.5,138.5 Z"/></g>
<g><path style="opacity:1" fill="#7a1c27" d="M 187.5,140.5 C 187.232,142.099 187.566,143.432 188.5,144.5C 188.167,145.5 187.5,146.167 186.5,146.5C 185.207,145.355 184.041,145.689 183,147.5C 182.667,145.953 183.167,144.62 184.5,143.5C 182.671,142.718 181.171,143.384 180,145.5C 178.556,143.845 176.722,143.178 174.5,143.5C 175.29,142.599 176.29,141.932 177.5,141.5C 178.167,141.5 178.833,141.5 179.5,141.5C 179.56,142.043 179.893,142.376 180.5,142.5C 182.801,141.675 185.135,141.008 187.5,140.5 Z"/></g>
<g><path style="opacity:1" fill="#5f2523" d="M 174.5,144.5 C 174.698,146.575 174.865,148.575 175,150.5C 174.667,150.833 174.333,151.167 174,151.5C 173.292,150.619 172.458,149.953 171.5,149.5C 171.75,147.326 172.75,145.659 174.5,144.5 Z"/></g>
<g><path style="opacity:1" fill="#9384da" d="M 214.5,143.5 C 216.104,144.287 216.771,145.62 216.5,147.5C 216.5,148.167 216.5,148.833 216.5,149.5C 214.08,149.292 211.747,149.626 209.5,150.5C 208.265,149.66 207.265,148.66 206.5,147.5C 205.115,146.698 205.282,146.031 207,145.5C 208.44,146.148 209.94,146.481 211.5,146.5C 211.351,145.448 211.517,144.448 212,143.5C 212.977,144.774 213.811,144.774 214.5,143.5 Z"/></g>
<g><path style="opacity:1" fill="#b73314" d="M 186.5,146.5 C 184.878,148.641 182.878,150.308 180.5,151.5C 180.725,147.944 179.892,147.61 178,150.5C 177.5,150.167 177,149.833 176.5,149.5C 177.167,148.833 177.833,148.167 178.5,147.5C 176.993,146.611 175.66,145.611 174.5,144.5C 174.5,144.167 174.5,143.833 174.5,143.5C 176.722,143.178 178.556,143.845 180,145.5C 181.171,143.384 182.671,142.718 184.5,143.5C 183.167,144.62 182.667,145.953 183,147.5C 184.041,145.689 185.207,145.355 186.5,146.5 Z"/></g>
<g><path style="opacity:1" fill="#613c75" d="M 216.5,147.5 C 218.588,149.336 219.921,151.669 220.5,154.5C 219.833,154.833 219.167,155.167 218.5,155.5C 217.508,155.672 216.842,155.338 216.5,154.5C 217.497,154.53 218.164,154.03 218.5,153C 218.022,151.697 217.355,150.531 216.5,149.5C 216.5,148.833 216.5,148.167 216.5,147.5 Z"/></g>
<g><path style="opacity:1" fill="#545bbd" d="M 206.5,147.5 C 207.265,148.66 208.265,149.66 209.5,150.5C 211.747,149.626 214.08,149.292 216.5,149.5C 217.355,150.531 218.022,151.697 218.5,153C 218.164,154.03 217.497,154.53 216.5,154.5C 212.569,153.868 209.235,152.201 206.5,149.5C 206.5,148.833 206.5,148.167 206.5,147.5 Z"/></g>
<g><path style="opacity:1" fill="#7d1b0a" d="M 174.5,144.5 C 175.66,145.611 176.993,146.611 178.5,147.5C 177.833,148.167 177.167,148.833 176.5,149.5C 177,149.833 177.5,150.167 178,150.5C 179.892,147.61 180.725,147.944 180.5,151.5C 178.11,153.02 175.443,154.02 172.5,154.5C 172.179,152.952 171.179,152.285 169.5,152.5C 169.932,151.29 170.599,150.29 171.5,149.5C 172.458,149.953 173.292,150.619 174,151.5C 174.333,151.167 174.667,150.833 175,150.5C 174.865,148.575 174.698,146.575 174.5,144.5 Z"/></g>
<g><path style="opacity:1" fill="#ce714d" d="M 193.5,140.5 C 193.833,140.5 194.167,140.5 194.5,140.5C 195.321,145.863 195.321,151.197 194.5,156.5C 193.505,151.208 193.172,145.875 193.5,140.5 Z"/></g>
<g><path style="opacity:1" fill="#6c3236" d="M 220.5,154.5 C 222.332,155.14 222.665,156.14 221.5,157.5C 220.261,157.058 219.261,156.391 218.5,155.5C 219.167,155.167 219.833,154.833 220.5,154.5 Z"/></g>
<g><path style="opacity:1" fill="#5a2119" d="M 169.5,152.5 C 171.179,152.285 172.179,152.952 172.5,154.5C 166.532,159.031 165.532,158.364 169.5,152.5 Z"/></g>
<g><path style="opacity:0.012" fill="#eaebea" d="M 284.5,157.5 C 285.833,158.167 285.833,158.167 284.5,157.5 Z"/></g>
<g><path style="opacity:1" fill="#88858a" d="M 143.5,162.5 C 145.607,161.532 147.941,161.198 150.5,161.5C 150.737,162.791 150.404,163.791 149.5,164.5C 148.082,162.692 146.082,162.025 143.5,162.5 Z"/></g>
<g><path style="opacity:1" fill="#786e6d" d="M 271.5,162.5 C 273.607,161.532 275.941,161.198 278.5,161.5C 278.737,162.791 278.404,163.791 277.5,164.5C 276.082,162.692 274.082,162.025 271.5,162.5 Z"/></g>
<g><path style="opacity:1" fill="#11131a" d="M 135.5,162.5 C 137.762,168.165 138.762,174.165 138.5,180.5C 137.794,182.672 136.794,184.672 135.5,186.5C 133.591,180.653 131.924,174.653 130.5,168.5C 130.643,166.738 130.309,165.071 129.5,163.5C 131.396,162.534 133.396,162.201 135.5,162.5 Z"/></g>
<g><path style="opacity:1" fill="#93777b" d="M 264.5,162.5 C 262.265,162.205 260.265,162.539 258.5,163.5C 257.957,163.44 257.624,163.107 257.5,162.5C 259.973,161.203 262.307,161.203 264.5,162.5 Z"/></g>
<g><path style="opacity:1" fill="#1d1d2b" d="M 143.5,162.5 C 146.082,162.025 148.082,162.692 149.5,164.5C 147.953,170.446 146.62,176.446 145.5,182.5C 144.624,182.631 143.957,182.298 143.5,181.5C 143.992,177.608 143.158,177.608 141,181.5C 140.601,181.272 140.435,180.938 140.5,180.5C 140.495,174.209 141.495,168.209 143.5,162.5 Z"/></g>
<g><path style="opacity:1" fill="#b7798c" d="M 222.5,162.5 C 224.167,162.5 225.833,162.5 227.5,162.5C 226.909,163.151 226.243,163.818 225.5,164.5C 226.167,165.5 226.833,166.5 227.5,167.5C 227.376,168.107 227.043,168.44 226.5,168.5C 224.544,166.825 223.211,167.158 222.5,169.5C 221.833,169.5 221.167,169.5 220.5,169.5C 219.903,169.265 219.57,168.765 219.5,168C 220.339,166.016 221.339,164.183 222.5,162.5 Z"/></g>
<g><path style="opacity:1" fill="#dfa2b8" d="M 227.5,162.5 C 232.119,163.127 234.119,165.794 233.5,170.5C 229.651,170.019 227.651,171.686 227.5,175.5C 227.392,177.514 228.058,179.18 229.5,180.5C 229.19,181.738 228.69,181.738 228,180.5C 227.79,182.058 227.29,183.391 226.5,184.5C 226.5,179.167 226.5,173.833 226.5,168.5C 227.043,168.44 227.376,168.107 227.5,167.5C 226.833,166.5 226.167,165.5 225.5,164.5C 226.243,163.818 226.909,163.151 227.5,162.5 Z"/></g>
<g><path style="opacity:1" fill="#a4a4a5" d="M 135.5,162.5 C 133.396,162.201 131.396,162.534 129.5,163.5C 130.309,165.071 130.643,166.738 130.5,168.5C 129.076,166.485 128.41,164.152 128.5,161.5C 131.059,161.198 133.393,161.532 135.5,162.5 Z"/></g>
<g><path style="opacity:1" fill="#7c7c90" d="M 187.5,163.5 C 186.244,163.904 185.077,164.571 184,165.5C 181.05,163.956 180.217,164.622 181.5,167.5C 180.5,167.5 179.5,167.5 178.5,167.5C 178.5,169.833 178.5,172.167 178.5,174.5C 179.5,174.5 180.5,174.5 181.5,174.5C 181.5,176.167 181.5,177.833 181.5,179.5C 180.5,179.5 179.5,179.5 178.5,179.5C 177.5,176.833 176.5,176.833 175.5,179.5C 174.566,178.432 174.232,177.099 174.5,175.5C 173.5,175.5 172.5,175.5 171.5,175.5C 171.5,174.167 171.5,172.833 171.5,171.5C 174.15,168.383 176.816,165.883 179.5,164C 177.444,163.689 175.444,163.189 173.5,162.5C 172.831,164.631 172.165,166.631 171.5,168.5C 171.5,166.167 171.5,163.833 171.5,161.5C 177.114,161.073 182.447,161.74 187.5,163.5 Z"/></g>
<g><path style="opacity:1" fill="#7b7186" d="M 200.5,167.5 C 199.778,167.082 199.278,166.416 199,165.5C 198.781,166.938 198.281,168.271 197.5,169.5C 196.817,169.137 196.15,168.804 195.5,168.5C 193.552,166.68 192.552,164.346 192.5,161.5C 194.924,161.192 197.257,161.526 199.5,162.5C 200.309,164.071 200.643,165.738 200.5,167.5 Z"/></g>
<g><path style="opacity:1" fill="#211723" d="M 160.5,162.5 C 159.92,164.749 158.587,166.415 156.5,167.5C 155.5,167.5 154.5,167.5 153.5,167.5C 153.5,169.167 153.5,170.833 153.5,172.5C 153.5,173.167 153.167,173.5 152.5,173.5C 152.5,169.833 152.5,166.167 152.5,162.5C 155.167,162.5 157.833,162.5 160.5,162.5 Z"/></g>
<g><path style="opacity:1" fill="#bdb5b8" d="M 159.5,168.5 C 161.948,167.527 164.615,167.194 167.5,167.5C 167.5,165.833 167.5,164.167 167.5,162.5C 165.167,162.5 162.833,162.5 160.5,162.5C 157.833,162.5 155.167,162.5 152.5,162.5C 152.5,166.167 152.5,169.833 152.5,173.5C 152.5,176.167 152.5,178.833 152.5,181.5C 152.5,184.833 152.5,188.167 152.5,191.5C 151.506,181.681 151.173,171.681 151.5,161.5C 157.167,161.5 162.833,161.5 168.5,161.5C 168.5,163.833 168.5,166.167 168.5,168.5C 165.5,168.5 162.5,168.5 159.5,168.5 Z"/></g>
<g><path style="opacity:1" fill="#a86651" d="M 160.5,162.5 C 162.833,162.5 165.167,162.5 167.5,162.5C 167.5,164.167 167.5,165.833 167.5,167.5C 164.615,167.194 161.948,167.527 159.5,168.5C 158.566,169.568 158.232,170.901 158.5,172.5C 157.504,172.414 156.671,172.748 156,173.5C 155.536,172.906 155.369,172.239 155.5,171.5C 156.434,170.432 156.768,169.099 156.5,167.5C 158.587,166.415 159.92,164.749 160.5,162.5 Z"/></g>
<g><path style="opacity:1" fill="#748aa5" d="M 205.5,191.5 C 205.5,188.5 205.5,185.5 205.5,182.5C 205.576,178.616 204.91,174.95 203.5,171.5C 202.448,171.649 201.448,171.483 200.5,171C 201.252,170.329 201.586,169.496 201.5,168.5C 202.222,168.918 202.722,169.584 203,170.5C 203.735,168.129 204.568,165.795 205.5,163.5C 207.833,162.167 210.167,162.167 212.5,163.5C 207.466,172.259 205.133,181.592 205.5,191.5 Z"/></g>
<g><path style="opacity:1" fill="#783232" d="M 252.5,172.5 C 250.833,172.5 249.167,172.5 247.5,172.5C 246.833,167.167 246.167,167.167 245.5,172.5C 243.833,172.5 242.167,172.5 240.5,172.5C 240.674,169.126 241.174,165.793 242,162.5C 244.719,161.556 247.552,161.223 250.5,161.5C 251.167,165.167 251.833,168.833 252.5,172.5 Z"/></g>
<g><path style="opacity:1" fill="#5c5673" d="M 171.5,171.5 C 171.5,170.5 171.5,169.5 171.5,168.5C 172.165,166.631 172.831,164.631 173.5,162.5C 175.444,163.189 177.444,163.689 179.5,164C 176.816,165.883 174.15,168.383 171.5,171.5 Z"/></g>
<g><path style="opacity:1" fill="#ecedef" d="M 181.5,167.5 C 184.034,169.75 184.034,172.084 181.5,174.5C 180.5,174.5 179.5,174.5 178.5,174.5C 178.5,172.167 178.5,169.833 178.5,167.5C 179.5,167.5 180.5,167.5 181.5,167.5 Z"/></g>
<g><path style="opacity:1" fill="#f9f9f9" d="M 226.5,168.5 C 226.5,173.833 226.5,179.167 226.5,184.5C 226.5,184.833 226.5,185.167 226.5,185.5C 226.167,185.5 225.833,185.5 225.5,185.5C 224.5,185.5 223.5,185.5 222.5,185.5C 222.5,180.167 222.5,174.833 222.5,169.5C 223.211,167.158 224.544,166.825 226.5,168.5 Z"/></g>
<g><path style="opacity:1" fill="#466884" d="M 156.5,167.5 C 156.768,169.099 156.434,170.432 155.5,171.5C 154.833,171.833 154.167,172.167 153.5,172.5C 153.5,170.833 153.5,169.167 153.5,167.5C 154.5,167.5 155.5,167.5 156.5,167.5 Z"/></g>
<g><path style="opacity:1" fill="#837582" d="M 222.5,162.5 C 221.339,164.183 220.339,166.016 219.5,168C 219.57,168.765 219.903,169.265 220.5,169.5C 220.611,171.648 219.944,171.981 218.5,170.5C 217.859,171.993 216.859,172.993 215.5,173.5C 215.5,169.833 215.5,166.167 215.5,162.5C 217.833,162.5 220.167,162.5 222.5,162.5 Z"/></g>
<g><path style="opacity:1" fill="#4d4f6c" d="M 187.5,163.5 C 190.303,166.204 191.137,169.537 190,173.5C 189.292,174.381 188.458,175.047 187.5,175.5C 187.179,173.952 186.179,173.285 184.5,173.5C 184.5,174.5 184.5,175.5 184.5,176.5C 185.5,176.5 186.5,176.5 187.5,176.5C 190.62,180.818 191.286,185.485 189.5,190.5C 187.75,189.13 185.75,188.13 183.5,187.5C 183.893,184.487 183.226,181.82 181.5,179.5C 181.5,177.833 181.5,176.167 181.5,174.5C 184.034,172.084 184.034,169.75 181.5,167.5C 180.217,164.622 181.05,163.956 184,165.5C 185.077,164.571 186.244,163.904 187.5,163.5 Z"/></g>
<g><path style="opacity:1" fill="#3b1717" d="M 264.5,162.5 C 265.359,165.212 266.525,167.878 268,170.5C 268.757,168.685 269.59,167.019 270.5,165.5C 270.378,170.282 268.045,173.282 263.5,174.5C 261.276,171.193 259.609,167.527 258.5,163.5C 260.265,162.539 262.265,162.205 264.5,162.5 Z"/></g>
<g><path style="opacity:1" fill="#9f9fa4" d="M 126.5,167.5 C 124.052,168.473 121.385,168.806 118.5,168.5C 118.5,169.833 118.5,171.167 118.5,172.5C 121.385,172.194 124.052,172.527 126.5,173.5C 123.5,173.5 120.5,173.5 117.5,173.5C 117.5,171.5 117.5,169.5 117.5,167.5C 120.5,167.5 123.5,167.5 126.5,167.5 Z"/></g>
<g><path style="opacity:1" fill="#c17f55" d="M 240.5,172.5 C 242.167,172.5 243.833,172.5 245.5,172.5C 245.567,173.959 245.234,175.292 244.5,176.5C 243.504,176.414 242.671,176.748 242,177.5C 241.009,179.808 240.176,182.141 239.5,184.5C 238.833,184.833 238.167,185.167 237.5,185.5C 237.773,180.898 238.773,176.565 240.5,172.5 Z"/></g>
<g><path style="opacity:1" fill="#936c61" d="M 162.5,173.5 C 164.167,173.5 165.833,173.5 167.5,173.5C 167.5,175.5 167.5,177.5 167.5,179.5C 166.167,179.5 164.833,179.5 163.5,179.5C 163.675,177.379 163.341,175.379 162.5,173.5 Z"/></g>
<g><path style="opacity:1" fill="#aa998c" d="M 187.5,175.5 C 187.5,175.833 187.5,176.167 187.5,176.5C 186.5,176.5 185.5,176.5 184.5,176.5C 184.5,175.5 184.5,174.5 184.5,173.5C 186.179,173.285 187.179,173.952 187.5,175.5 Z"/></g>
<g><path style="opacity:1" fill="#140808" d="M 271.5,162.5 C 274.082,162.025 276.082,162.692 277.5,164.5C 275.312,169.055 273.312,173.722 271.5,178.5C 270.517,182.298 270.183,186.298 270.5,190.5C 268.833,190.5 267.167,190.5 265.5,190.5C 265.817,186.298 265.483,182.298 264.5,178.5C 264.167,177.167 263.833,175.833 263.5,174.5C 268.045,173.282 270.378,170.282 270.5,165.5C 271.11,164.609 271.443,163.609 271.5,162.5 Z"/></g>
<g><path style="opacity:1" fill="#955a63" d="M 233.5,170.5 C 233.5,170.833 233.5,171.167 233.5,171.5C 229.065,172.372 228.732,173.705 232.5,175.5C 230.631,177.984 228.964,177.984 227.5,175.5C 227.651,171.686 229.651,170.019 233.5,170.5 Z"/></g>
<g><path style="opacity:1" fill="#e8e0de" d="M 247.5,172.5 C 247.5,175.167 247.5,177.833 247.5,180.5C 246.5,180.5 245.5,180.5 244.5,180.5C 244.5,179.167 244.5,177.833 244.5,176.5C 245.234,175.292 245.567,173.959 245.5,172.5C 246.167,167.167 246.833,167.167 247.5,172.5 Z"/></g>
<g><path style="opacity:1" fill="#54739a" d="M 200.5,167.5 C 200.5,168.167 200.833,168.5 201.5,168.5C 201.586,169.496 201.252,170.329 200.5,171C 201.448,171.483 202.448,171.649 203.5,171.5C 204.91,174.95 205.576,178.616 205.5,182.5C 204.542,182.047 203.708,181.381 203,180.5C 202.692,181.308 202.192,181.975 201.5,182.5C 200.824,181.398 200.158,180.398 199.5,179.5C 197.888,175.942 196.555,172.275 195.5,168.5C 196.15,168.804 196.817,169.137 197.5,169.5C 198.281,168.271 198.781,166.938 199,165.5C 199.278,166.416 199.778,167.082 200.5,167.5 Z"/></g>
<g><path style="opacity:1" fill="#5b1a1c" d="M 247.5,172.5 C 249.167,172.5 250.833,172.5 252.5,172.5C 253.451,173.919 253.784,175.585 253.5,177.5C 252.265,179.017 252.265,180.684 253.5,182.5C 250.384,182.92 247.717,183.92 245.5,185.5C 244.508,185.328 243.842,185.662 243.5,186.5C 242.167,185.833 240.833,185.167 239.5,184.5C 240.176,182.141 241.009,179.808 242,177.5C 242.671,176.748 243.504,176.414 244.5,176.5C 244.5,177.833 244.5,179.167 244.5,180.5C 245.5,180.5 246.5,180.5 247.5,180.5C 247.5,177.833 247.5,175.167 247.5,172.5 Z"/></g>
<g><path style="opacity:1" fill="#0d1018" d="M 126.5,162.5 C 126.5,164.167 126.5,165.833 126.5,167.5C 123.5,167.5 120.5,167.5 117.5,167.5C 117.5,169.5 117.5,171.5 117.5,173.5C 120.5,173.5 123.5,173.5 126.5,173.5C 126.5,175.5 126.5,177.5 126.5,179.5C 123.5,179.5 120.5,179.5 117.5,179.5C 117.5,181.5 117.5,183.5 117.5,185.5C 120.5,185.5 123.5,185.5 126.5,185.5C 126.5,187.167 126.5,188.833 126.5,190.5C 125.167,190.5 123.833,190.5 122.5,190.5C 123.091,189.849 123.757,189.182 124.5,188.5C 120.826,187.767 117.159,187.101 113.5,186.5C 112.817,186.863 112.15,187.196 111.5,187.5C 111.5,179.167 111.5,170.833 111.5,162.5C 116.5,162.5 121.5,162.5 126.5,162.5 Z"/></g>
<g><path style="opacity:1" fill="#574653" d="M 233.5,171.5 C 233.5,173.833 233.5,176.167 233.5,178.5C 232.533,179.806 231.199,180.473 229.5,180.5C 228.058,179.18 227.392,177.514 227.5,175.5C 228.964,177.984 230.631,177.984 232.5,175.5C 228.732,173.705 229.065,172.372 233.5,171.5 Z"/></g>
<g><path style="opacity:1" fill="#a197ae" d="M 220.5,169.5 C 221.167,169.5 221.833,169.5 222.5,169.5C 222.5,174.833 222.5,180.167 222.5,185.5C 223.5,185.5 224.5,185.5 225.5,185.5C 222.859,187.453 219.859,188.953 216.5,190C 217.416,190.278 218.082,190.778 218.5,191.5C 217.5,191.5 216.5,191.5 215.5,191.5C 215.5,185.5 215.5,179.5 215.5,173.5C 216.859,172.993 217.859,171.993 218.5,170.5C 219.944,171.981 220.611,171.648 220.5,169.5 Z"/></g>
<g><path style="opacity:1" fill="#5d4146" d="M 155.5,171.5 C 155.369,172.239 155.536,172.906 156,173.5C 156.671,172.748 157.504,172.414 158.5,172.5C 159.568,173.434 160.901,173.768 162.5,173.5C 163.341,175.379 163.675,177.379 163.5,179.5C 162.167,179.5 160.833,179.5 159.5,179.5C 159.5,181.5 159.5,183.5 159.5,185.5C 158.732,184.737 158.232,183.737 158,182.5C 157.667,182.833 157.333,183.167 157,183.5C 155.53,182.733 154.03,182.067 152.5,181.5C 152.5,178.833 152.5,176.167 152.5,173.5C 153.167,173.5 153.5,173.167 153.5,172.5C 154.167,172.167 154.833,171.833 155.5,171.5 Z"/></g>
<g><path style="opacity:1" fill="#192b51" d="M 145.5,182.5 C 144.962,184.117 144.629,185.784 144.5,187.5C 143.596,188.209 143.263,189.209 143.5,190.5C 140.833,190.5 138.167,190.5 135.5,190.5C 135.5,189.167 135.5,187.833 135.5,186.5C 136.794,184.672 137.794,182.672 138.5,180.5C 139.167,180.5 139.833,180.5 140.5,180.5C 140.435,180.938 140.601,181.272 141,181.5C 143.158,177.608 143.992,177.608 143.5,181.5C 143.957,182.298 144.624,182.631 145.5,182.5 Z"/></g>
<g><path style="opacity:1" fill="#3c4d65" d="M 171.5,175.5 C 172.5,175.5 173.5,175.5 174.5,175.5C 174.232,177.099 174.566,178.432 175.5,179.5C 175.297,181.044 174.63,182.378 173.5,183.5C 174.853,184.524 175.52,185.857 175.5,187.5C 174.5,187.5 173.5,187.5 172.5,187.5C 172.806,184.615 172.473,181.948 171.5,179.5C 171.5,178.167 171.5,176.833 171.5,175.5 Z"/></g>
<g><path style="opacity:1" fill="#b28f87" d="M 233.5,178.5 C 233.957,182.584 233.29,186.417 231.5,190C 230.255,190.791 228.922,191.291 227.5,191.5C 229.179,188.988 228.845,186.988 226.5,185.5C 226.5,185.167 226.5,184.833 226.5,184.5C 227.29,183.391 227.79,182.058 228,180.5C 228.69,181.738 229.19,181.738 229.5,180.5C 231.199,180.473 232.533,179.806 233.5,178.5 Z"/></g>
<g><path style="opacity:1" fill="#3e1413" d="M 253.5,177.5 C 254.906,182.059 255.906,186.725 256.5,191.5C 254.167,191.5 251.833,191.5 249.5,191.5C 249.5,189.5 249.5,187.5 249.5,185.5C 248.167,185.5 246.833,185.5 245.5,185.5C 247.717,183.92 250.384,182.92 253.5,182.5C 252.265,180.684 252.265,179.017 253.5,177.5 Z"/></g>
<g><path style="opacity:1" fill="#365880" d="M 152.5,181.5 C 154.03,182.067 155.53,182.733 157,183.5C 157.333,183.167 157.667,182.833 158,182.5C 158.232,183.737 158.732,184.737 159.5,185.5C 162.5,185.5 165.5,185.5 168.5,185.5C 168.5,187.5 168.5,189.5 168.5,191.5C 163.167,191.5 157.833,191.5 152.5,191.5C 152.5,188.167 152.5,184.833 152.5,181.5 Z"/></g>
<g><path style="opacity:1" fill="#25496f" d="M 199.5,179.5 C 200.158,180.398 200.824,181.398 201.5,182.5C 202.192,181.975 202.692,181.308 203,180.5C 203.708,181.381 204.542,182.047 205.5,182.5C 205.5,185.5 205.5,188.5 205.5,191.5C 203.5,191.5 201.5,191.5 199.5,191.5C 199.5,187.5 199.5,183.5 199.5,179.5 Z"/></g>
<g><path style="opacity:1" fill="#8b5f50" d="M 239.5,184.5 C 239.167,186.5 238.833,188.5 238.5,190.5C 240.554,190.635 242.221,189.968 243.5,188.5C 243.5,189.5 243.5,190.5 243.5,191.5C 240.753,191.813 238.086,191.48 235.5,190.5C 236.028,188.664 236.694,186.997 237.5,185.5C 238.167,185.167 238.833,184.833 239.5,184.5 Z"/></g>
<g><path style="opacity:1" fill="#79696e" d="M 178.5,179.5 C 178.5,183.5 178.5,187.5 178.5,191.5C 176.167,191.5 173.833,191.5 171.5,191.5C 171.5,187.5 171.5,183.5 171.5,179.5C 172.473,181.948 172.806,184.615 172.5,187.5C 173.5,187.5 174.5,187.5 175.5,187.5C 175.52,185.857 174.853,184.524 173.5,183.5C 174.63,182.378 175.297,181.044 175.5,179.5C 176.5,176.833 177.5,176.833 178.5,179.5 Z"/></g>
<g><path style="opacity:1" fill="#8e807f" d="M 183.5,187.5 C 185.75,188.13 187.75,189.13 189.5,190.5C 187.5,190.833 185.5,191.167 183.5,191.5C 183.5,190.167 183.5,188.833 183.5,187.5 Z"/></g>
<g><path style="opacity:1" fill="#85717b" d="M 225.5,185.5 C 225.833,185.5 226.167,185.5 226.5,185.5C 228.845,186.988 229.179,188.988 227.5,191.5C 224.5,191.5 221.5,191.5 218.5,191.5C 218.082,190.778 217.416,190.278 216.5,190C 219.859,188.953 222.859,187.453 225.5,185.5 Z"/></g>
<g><path style="opacity:1" fill="#31161a" d="M 239.5,184.5 C 240.833,185.167 242.167,185.833 243.5,186.5C 243.5,187.167 243.5,187.833 243.5,188.5C 242.221,189.968 240.554,190.635 238.5,190.5C 238.833,188.5 239.167,186.5 239.5,184.5 Z"/></g>
<g><path style="opacity:1" fill="#536172" d="M 126.5,162.5 C 121.5,162.5 116.5,162.5 111.5,162.5C 111.5,170.833 111.5,179.167 111.5,187.5C 111.5,188.5 111.5,189.5 111.5,190.5C 115.167,190.5 118.833,190.5 122.5,190.5C 123.833,190.5 125.167,190.5 126.5,190.5C 126.5,188.833 126.5,187.167 126.5,185.5C 127.461,187.265 127.795,189.265 127.5,191.5C 121.833,191.5 116.167,191.5 110.5,191.5C 110.5,181.5 110.5,171.5 110.5,161.5C 116.026,161.179 121.36,161.512 126.5,162.5 Z"/></g>
<g><path style="opacity:1" fill="#082643" d="M 122.5,190.5 C 118.833,190.5 115.167,190.5 111.5,190.5C 111.5,189.5 111.5,188.5 111.5,187.5C 112.15,187.196 112.817,186.863 113.5,186.5C 117.159,187.101 120.826,187.767 124.5,188.5C 123.757,189.182 123.091,189.849 122.5,190.5 Z"/></g>
<g><path style="opacity:1" fill="#5c6b82" d="M 144.5,187.5 C 144.5,188.833 144.5,190.167 144.5,191.5C 141.287,191.81 138.287,191.477 135.5,190.5C 138.167,190.5 140.833,190.5 143.5,190.5C 143.263,189.209 143.596,188.209 144.5,187.5 Z"/></g>
<g><path style="opacity:1" fill="#3d3c3c" d="M 264.5,178.5 C 265.483,182.298 265.817,186.298 265.5,190.5C 267.167,190.5 268.833,190.5 270.5,190.5C 270.183,186.298 270.517,182.298 271.5,178.5C 271.5,182.833 271.5,187.167 271.5,191.5C 269.167,191.5 266.833,191.5 264.5,191.5C 264.5,187.167 264.5,182.833 264.5,178.5 Z"/></g>
</svg>
