<?xml version="1.0" encoding="UTF-8"?>
<!DOCTYPE svg PUBLIC "-//W3C//DTD SVG 1.1//EN" "http://www.w3.org/Graphics/SVG/1.1/DTD/svg11.dtd">
<svg xmlns="http://www.w3.org/2000/svg" version="1.1" width="400px" height="198px" style="shape-rendering:geometricPrecision; text-rendering:geometricPrecision; image-rendering:optimizeQuality; fill-rule:evenodd; clip-rule:evenodd" xmlns:xlink="http://www.w3.org/1999/xlink">
<g><path style="opacity:0.153" fill="#0d0003" d="M 7.5,36.5 C 8.77329,37.0768 8.77329,37.7435 7.5,38.5C 6.53705,38.0302 6.53705,37.3635 7.5,36.5 Z"/></g>
<g><path style="opacity:0.078" fill="#0a020d" d="M 4.5,44.5 C 3.42654,43.7494 3.25988,42.7494 4,41.5C 4.48278,42.448 4.64945,43.448 4.5,44.5 Z"/></g>
<g><path style="opacity:0.153" fill="#100504" d="M 394.5,45.5 C 265.833,45.5 137.167,45.5 8.5,45.5C 8.5,45.1667 8.5,44.8333 8.5,44.5C 134.403,44.8323 260.237,44.4989 386,43.5C 388.939,44.1281 391.772,44.7948 394.5,45.5 Z"/></g>
<g><path style="opacity:0.269" fill="#0a000e" d="M 0.5,151.5 C 2.85187,152.543 3.01854,153.876 1,155.5C 0.50999,154.207 0.343323,152.873 0.5,151.5 Z"/></g>
<g><path style="opacity:0.269" fill="#0a000e" d="M 399.5,151.5 C 399.5,152.833 399.5,154.167 399.5,155.5C 396.833,154.167 396.833,152.833 399.5,151.5 Z"/></g>
<g><path style="opacity:0.078" fill="#09000b" d="M 1.5,157.5 C 2.83333,158.167 2.83333,158.167 1.5,157.5 Z"/></g>
<g><path style="opacity:0.616" fill="#1c0a0a" d="M 4.5,44.5 C 5.83333,44.5 7.16667,44.5 8.5,44.5C 8.5,44.8333 8.5,45.1667 8.5,45.5C 7.20895,45.2627 6.20895,45.596 5.5,46.5C 4.16667,83.1667 4.16667,119.833 5.5,156.5C 135.167,157.833 264.833,157.833 394.5,156.5C 395.498,119.67 395.832,82.6704 395.5,45.5C 396.419,47.3908 397.086,50.0575 397.5,53.5C 396.843,88.382 396.176,123.215 395.5,158C 392.475,158.361 389.475,158.861 386.5,159.5C 262.167,158.167 137.833,158.167 13.5,159.5C 10.2651,158.969 7.09847,158.302 4,157.5C 3.17356,119.762 3.34022,82.0954 4.5,44.5 Z"/></g>
<g><path style="opacity:1" fill="#b63631" d="M 393.5,47.5 C 393.833,47.5 394.167,47.5 394.5,47.5C 394.5,83.8333 394.5,120.167 394.5,156.5C 264.833,157.833 135.167,157.833 5.5,156.5C 5.17075,141.99 5.50408,127.657 6.5,113.5C 6.5,127.5 6.5,141.5 6.5,155.5C 135.5,155.5 264.5,155.5 393.5,155.5C 393.5,120.167 393.5,84.8333 393.5,49.5C 393.5,48.8333 393.5,48.1667 393.5,47.5 Z"/></g>
<g><path style="opacity:1" fill="#fe4d47" d="M 393.5,49.5 C 393.5,84.8333 393.5,120.167 393.5,155.5C 264.5,155.5 135.5,155.5 6.5,155.5C 6.5,141.5 6.5,127.5 6.5,113.5C 8.31833,126.128 9.15166,139.128 9,152.5C 10.1939,153.43 11.5272,154.097 13,154.5C 137.667,153.167 262.333,153.167 387,154.5C 388.473,154.097 389.806,153.43 391,152.5C 391.333,118.5 391.667,84.5 392,50.5C 392.383,49.944 392.883,49.6107 393.5,49.5 Z"/></g>
<g><path style="opacity:1" fill="#ef4845" d="M 393.5,47.5 C 393.5,48.1667 393.5,48.8333 393.5,49.5C 392.883,49.6107 392.383,49.944 392,50.5C 391.667,84.5 391.333,118.5 391,152.5C 389.806,153.43 388.473,154.097 387,154.5C 262.333,153.167 137.667,153.167 13,154.5C 11.5272,154.097 10.1939,153.43 9,152.5C 9.15166,139.128 8.31833,126.128 6.5,113.5C 6.5,91.5 6.5,69.5 6.5,47.5C 135.5,47.5 264.5,47.5 393.5,47.5 Z"/></g>
<g><path style="opacity:1" fill="#000000" d="M 82.5,108.5 C 88.1667,108.5 93.8333,108.5 99.5,108.5C 99.5,110.167 99.5,111.833 99.5,113.5C 93.8333,113.5 88.1667,113.5 82.5,113.5C 82.5,111.833 82.5,110.167 82.5,108.5 Z"/></g>
<g><path style="opacity:1" fill="#010000" d="M 338.5,100.5 C 338.217,99.7109 337.717,99.0442 337,98.5C 336.5,110.162 336.333,121.829 336.5,133.5C 333.5,133.5 330.5,133.5 327.5,133.5C 327.5,113.833 327.5,94.1667 327.5,74.5C 331.106,74.2108 334.606,74.5442 338,75.5C 343,86.5 348,97.5 353,108.5C 353.5,97.1716 353.667,85.8382 353.5,74.5C 356.833,74.5 360.167,74.5 363.5,74.5C 363.5,94.1667 363.5,113.833 363.5,133.5C 359.894,133.789 356.394,133.456 353,132.5C 348.426,121.688 343.593,111.022 338.5,100.5 Z"/></g>
<g><path style="opacity:1" fill="#611816" d="M 338.5,100.5 C 337.833,111.5 337.167,122.5 336.5,133.5C 336.333,121.829 336.5,110.162 337,98.5C 337.717,99.0442 338.217,99.7109 338.5,100.5 Z"/></g>
<g><path style="opacity:1" fill="#000000" d="M 307.5,74.5 C 307.5,94.1667 307.5,113.833 307.5,133.5C 304.5,133.5 301.5,133.5 298.5,133.5C 298.5,113.833 298.5,94.1667 298.5,74.5C 301.5,74.5 304.5,74.5 307.5,74.5 Z"/></g>
<g><path style="opacity:1" fill="#671a18" d="M 307.5,74.5 C 304.5,74.5 301.5,74.5 298.5,74.5C 298.5,94.1667 298.5,113.833 298.5,133.5C 297.503,113.674 297.17,93.6736 297.5,73.5C 301.042,73.1872 304.375,73.5206 307.5,74.5 Z"/></g>
<g><path style="opacity:1" fill="#010000" d="M 268.5,133.5 C 268.667,122.495 268.5,111.495 268,100.5C 266.961,101.244 266.461,102.244 266.5,103.5C 264.515,108.141 262.515,112.807 260.5,117.5C 257.572,118.484 254.572,118.817 251.5,118.5C 249.632,112.424 247.466,106.424 245,100.5C 244.5,111.495 244.333,122.495 244.5,133.5C 241.167,133.5 237.833,133.5 234.5,133.5C 234.5,113.833 234.5,94.1667 234.5,74.5C 238.106,74.2108 241.606,74.5442 245,75.5C 248.667,84.1667 252.333,92.8333 256,101.5C 260.091,92.9814 263.924,84.3147 267.5,75.5C 270.768,74.513 274.102,74.1796 277.5,74.5C 277.5,94.1667 277.5,113.833 277.5,133.5C 274.5,133.5 271.5,133.5 268.5,133.5 Z"/></g>
<g><path style="opacity:1" fill="#952927" d="M 268.5,133.5 C 267.833,123.5 267.167,113.5 266.5,103.5C 266.461,102.244 266.961,101.244 268,100.5C 268.5,111.495 268.667,122.495 268.5,133.5 Z"/></g>
<g><path style="opacity:1" fill="#010000" d="M 175.5,74.5 C 206.893,72.3986 219.06,86.732 212,117.5C 208.441,126.395 201.941,131.561 192.5,133C 186.843,133.499 181.176,133.666 175.5,133.5C 175.5,113.833 175.5,94.1667 175.5,74.5 Z"/></g>
<g><path style="opacity:1" fill="#eb4744" d="M 192.5,86.5 C 199.148,88.3168 203.315,92.6501 205,99.5C 206.549,114.106 200.049,121.439 185.5,121.5C 185.5,109.833 185.5,98.1667 185.5,86.5C 187.833,86.5 190.167,86.5 192.5,86.5 Z"/></g>
<g><path style="opacity:1" fill="#8e2725" d="M 192.5,86.5 C 190.167,86.5 187.833,86.5 185.5,86.5C 185.5,98.1667 185.5,109.833 185.5,121.5C 184.505,109.678 184.172,97.6783 184.5,85.5C 187.385,85.1936 190.052,85.5269 192.5,86.5 Z"/></g>
<g><path style="opacity:1" fill="#070101" d="M 129.5,73.5 C 132.5,73.5 135.5,73.5 138.5,73.5C 144.165,93.4936 149.832,113.494 155.5,133.5C 152.167,133.5 148.833,133.5 145.5,133.5C 144.708,129.789 143.708,126.122 142.5,122.5C 136.863,121.337 131.196,121.17 125.5,122C 124.167,125.667 122.833,129.333 121.5,133C 118.118,133.824 114.784,133.657 111.5,132.5C 117.795,112.913 123.795,93.2465 129.5,73.5 Z"/></g>
<g><path style="opacity:1" fill="#d43f3d" d="M 133.5,94.5 C 136.146,99.7815 137.813,105.448 138.5,111.5C 135.167,111.5 131.833,111.5 128.5,111.5C 129.97,105.759 131.636,100.093 133.5,94.5 Z"/></g>
<g><path style="opacity:1" fill="#0e0402" d="M 43.5,74.5 C 43.5,83.8333 43.5,93.1667 43.5,102.5C 48.5,102.5 53.5,102.5 58.5,102.5C 58.5,93.1667 58.5,83.8333 58.5,74.5C 61.8333,74.5 65.1667,74.5 68.5,74.5C 68.5,94.1667 68.5,113.833 68.5,133.5C 65.1667,133.5 61.8333,133.5 58.5,133.5C 58.5,126.5 58.5,119.5 58.5,112.5C 53.5,112.5 48.5,112.5 43.5,112.5C 43.5,119.5 43.5,126.5 43.5,133.5C 40.1667,133.5 36.8333,133.5 33.5,133.5C 33.5,113.833 33.5,94.1667 33.5,74.5C 36.8333,74.5 40.1667,74.5 43.5,74.5 Z"/></g>
<g><path style="opacity:1" fill="#bd3735" d="M 43.5,74.5 C 44.4933,83.3178 44.8266,92.3178 44.5,101.5C 48.8333,101.5 53.1667,101.5 57.5,101.5C 57.1734,92.3178 57.5067,83.3178 58.5,74.5C 58.5,83.8333 58.5,93.1667 58.5,102.5C 53.5,102.5 48.5,102.5 43.5,102.5C 43.5,93.1667 43.5,83.8333 43.5,74.5 Z"/></g>
<g><path style="opacity:1" fill="#b43836" d="M 5.5,46.5 C 135.334,46.1671 265.001,46.5004 394.5,47.5C 394.167,47.5 393.833,47.5 393.5,47.5C 264.5,47.5 135.5,47.5 6.5,47.5C 6.5,69.5 6.5,91.5 6.5,113.5C 5.50408,127.657 5.17075,141.99 5.5,156.5C 4.16667,119.833 4.16667,83.1667 5.5,46.5 Z"/></g>
<g><path style="opacity:1" fill="#66201e" d="M 5.5,46.5 C 6.20895,45.596 7.20895,45.2627 8.5,45.5C 137.167,45.5 265.833,45.5 394.5,45.5C 394.833,45.5 395.167,45.5 395.5,45.5C 395.832,82.6704 395.498,119.67 394.5,156.5C 394.5,120.167 394.5,83.8333 394.5,47.5C 265.001,46.5004 135.334,46.1671 5.5,46.5 Z"/></g>
<g><path style="opacity:0.078" fill="#09000b" d="M 397.5,157.5 C 398.833,158.167 398.833,158.167 397.5,157.5 Z"/></g>
<g><path style="opacity:0.116" fill="#0d0108" d="M 3.5,161.5 C 5.41444,162.185 7.41444,162.685 9.5,163C 8.5,163.167 7.5,163.333 6.5,163.5C 4.97041,163.36 3.97041,162.693 3.5,161.5 Z"/></g>
<g><path style="opacity:0.116" fill="#0d0108" d="M 395.5,161.5 C 396.043,161.56 396.376,161.893 396.5,162.5C 394.579,163.641 392.579,163.808 390.5,163C 392.382,162.802 394.048,162.302 395.5,161.5 Z"/></g>
<g><path style="opacity:0.135" fill="#0e0104" d="M 6.5,166.5 C 9.13678,168.154 8.80345,168.654 5.5,168C 6.05596,167.617 6.38929,167.117 6.5,166.5 Z"/></g>
<g><path style="opacity:0.135" fill="#0e0104" d="M 392.5,166.5 C 395.137,168.154 394.803,168.654 391.5,168C 392.056,167.617 392.389,167.117 392.5,166.5 Z"/></g>
<g><path style="opacity:0.093" fill="#08040d" d="M 10.5,166.5 C 12.3675,167.786 12.5342,169.119 11,170.5C 9.23173,169.318 9.06507,167.985 10.5,166.5 Z"/></g>
<g><path style="opacity:0.093" fill="#08040d" d="M 388.5,166.5 C 390.852,167.543 391.019,168.876 389,170.5C 387.489,169.436 387.323,168.103 388.5,166.5 Z"/></g>
<g><path style="opacity:0.078" fill="#000c03" d="M 3.5,169.5 C 4.83333,170.167 4.83333,170.167 3.5,169.5 Z"/></g>
<g><path style="opacity:0.078" fill="#000c03" d="M 395.5,169.5 C 396.833,170.167 396.833,170.167 395.5,169.5 Z"/></g>
</svg>
