<?xml version="1.0" encoding="UTF-8"?>
<!DOCTYPE svg PUBLIC "-//W3C//DTD SVG 1.1//EN" "http://www.w3.org/Graphics/SVG/1.1/DTD/svg11.dtd">
<svg xmlns="http://www.w3.org/2000/svg" version="1.1" width="400px" height="198px" style="shape-rendering:geometricPrecision; text-rendering:geometricPrecision; image-rendering:optimizeQuality; fill-rule:evenodd; clip-rule:evenodd" xmlns:xlink="http://www.w3.org/1999/xlink">
<g><path style="opacity:0.307" fill="#030101" d="M 148.5,-0.5 C 152.833,-0.5 157.167,-0.5 161.5,-0.5C 154.833,6.5 148.167,13.5 141.5,20.5C 138.167,23.5 134.833,26.5 131.5,29.5C 130.512,30.795 129.512,32.1283 128.5,33.5C 127.29,33.9321 126.29,34.5987 125.5,35.5C 123.833,36.5 122.5,37.8333 121.5,39.5C 110.833,49.5 100.5,59.8333 90.5,70.5C 86.8333,73.5 83.5,76.8333 80.5,80.5C 73.1402,87.5277 65.8069,94.5277 58.5,101.5C 57.7326,102.172 57.0659,103.005 56.5,104C 64.6667,112.167 72.8333,120.333 81,128.5C 81.3826,127.944 81.8826,127.611 82.5,127.5C 85.1667,129.833 87.8333,132.167 90.5,134.5C 90.8212,136.048 91.8212,136.715 93.5,136.5C 93.5569,137.609 93.8902,138.609 94.5,139.5C 94.3893,140.117 94.056,140.617 93.5,141C 111.673,160.006 130.006,178.84 148.5,197.5C 141.5,197.5 134.5,197.5 127.5,197.5C 100.898,169.397 73.7311,141.73 46,114.5C 44.0766,110.138 44.0766,105.805 46,101.5C 80.6735,67.9931 114.84,33.9931 148.5,-0.5 Z"/></g>
<g><path style="opacity:1" fill="#da3333" d="M 165.5,-0.5 C 175.833,-0.5 186.167,-0.5 196.5,-0.5C 196.771,1.3797 196.104,2.71304 194.5,3.5C 194.5,2.5 194.5,1.5 194.5,0.5C 190.999,1.3276 188.332,3.3276 186.5,6.5C 182.311,9.15539 178.311,12.1554 174.5,15.5C 173.557,18.1092 171.89,20.1092 169.5,21.5C 168.92,23.6367 167.92,25.47 166.5,27C 167.38,28.3561 167.714,29.8561 167.5,31.5C 156.167,31.5 144.833,31.5 133.5,31.5C 134.896,29.2522 136.563,27.0856 138.5,25C 139.448,24.5172 140.448,24.3505 141.5,24.5C 141.5,23.1667 141.5,21.8333 141.5,20.5C 145.589,20.4505 148.256,18.4505 149.5,14.5C 150.85,13.0499 152.516,12.3832 154.5,12.5C 154.343,11.1266 154.51,9.79323 155,8.5C 156.759,6.33262 158.926,4.66596 161.5,3.5C 162.386,2.67504 162.719,1.67504 162.5,0.5C 163.791,0.737305 164.791,0.403972 165.5,-0.5 Z"/></g>
<g><path style="opacity:1" fill="#da3333" d="M 200.5,-0.5 C 212.167,-0.5 223.833,-0.5 235.5,-0.5C 245.866,9.86509 255.866,20.5318 265.5,31.5C 235.5,31.5 205.5,31.5 175.5,31.5C 175.833,30.1667 176.167,28.8333 176.5,27.5C 177.552,27.6495 178.552,27.4828 179.5,27C 177.618,26.8019 175.952,26.3019 174.5,25.5C 176.527,25.6621 178.527,25.4955 180.5,25C 185.035,20.2967 189.702,15.7967 194.5,11.5C 194.557,12.609 194.89,13.609 195.5,14.5C 196.458,15.9616 197.624,17.2949 199,18.5C 199.49,19.7932 199.657,21.1266 199.5,22.5C 200.552,22.3505 201.552,22.5172 202.5,23C 206.382,28.9752 211.715,30.6418 218.5,28C 219.598,27.2303 219.598,26.397 218.5,25.5C 220.117,26.038 221.784,26.3713 223.5,26.5C 223.762,25.0222 223.429,23.6888 222.5,22.5C 214.422,15.4248 207.089,7.75811 200.5,-0.5 Z"/></g>
<g><path style="opacity:0.127" fill="#050101" d="M 235.5,-0.5 C 237.167,-0.5 238.833,-0.5 240.5,-0.5C 248.605,7.10357 256.605,14.9369 264.5,23C 267.506,23.3324 270.34,24.1657 273,25.5C 273.988,28.4245 274.654,31.4245 275,34.5C 297.28,56.4476 319.28,78.7809 341,101.5C 341.667,104.167 341.667,106.833 341,109.5C 338.852,110.977 337.518,112.977 337,115.5C 309.605,143.062 282.105,170.395 254.5,197.5C 251.833,197.5 249.167,197.5 246.5,197.5C 263.167,180.167 280.167,163.167 297.5,146.5C 303.113,141.554 308.446,136.221 313.5,130.5C 322.119,122.548 330.452,114.215 338.5,105.5C 315.175,80.5083 291.175,56.175 266.5,32.5C 266.5,31.8333 266.167,31.5 265.5,31.5C 255.866,20.5318 245.866,9.86509 235.5,-0.5 Z"/></g>
<g><path style="opacity:1" fill="#da1818" d="M 196.5,-0.5 C 197.833,-0.5 199.167,-0.5 200.5,-0.5C 207.089,7.75811 214.422,15.4248 222.5,22.5C 223.429,23.6888 223.762,25.0222 223.5,26.5C 221.784,26.3713 220.117,26.038 218.5,25.5C 218.167,25.5 217.833,25.5 217.5,25.5C 216.833,25.1667 216.167,24.8333 215.5,24.5C 210.5,18.8333 205.167,13.5 199.5,8.5C 197.315,7.91306 195.648,8.91306 194.5,11.5C 189.702,15.7967 185.035,20.2967 180.5,25C 178.527,25.4955 176.527,25.6621 174.5,25.5C 174.709,24.0783 175.209,22.745 176,21.5C 182.009,15.3246 188.175,9.32463 194.5,3.5C 196.104,2.71304 196.771,1.3797 196.5,-0.5 Z"/></g>
<g><path style="opacity:1" fill="#972323" d="M 161.5,-0.5 C 162.833,-0.5 164.167,-0.5 165.5,-0.5C 164.791,0.403972 163.791,0.737305 162.5,0.5C 162.719,1.67504 162.386,2.67504 161.5,3.5C 158.926,4.66596 156.759,6.33262 155,8.5C 154.51,9.79323 154.343,11.1266 154.5,12.5C 152.516,12.3832 150.85,13.0499 149.5,14.5C 148.256,18.4505 145.589,20.4505 141.5,20.5C 148.167,13.5 154.833,6.5 161.5,-0.5 Z"/></g>
<g><path style="opacity:1" fill="#9f2525" d="M 186.5,6.5 C 181.145,11.6873 175.979,17.0206 171,22.5C 170.044,26.9252 171.877,28.5918 176.5,27.5C 176.167,28.8333 175.833,30.1667 175.5,31.5C 172.833,31.5 170.167,31.5 167.5,31.5C 167.714,29.8561 167.38,28.3561 166.5,27C 167.92,25.47 168.92,23.6367 169.5,21.5C 171.89,20.1092 173.557,18.1092 174.5,15.5C 178.311,12.1554 182.311,9.15539 186.5,6.5 Z"/></g>
<g><path style="opacity:1" fill="#711919" d="M 194.5,3.5 C 188.175,9.32463 182.009,15.3246 176,21.5C 175.209,22.745 174.709,24.0783 174.5,25.5C 175.952,26.3019 177.618,26.8019 179.5,27C 178.552,27.4828 177.552,27.6495 176.5,27.5C 171.877,28.5918 170.044,26.9252 171,22.5C 175.979,17.0206 181.145,11.6873 186.5,6.5C 188.332,3.3276 190.999,1.3276 194.5,0.5C 194.5,1.5 194.5,2.5 194.5,3.5 Z"/></g>
<g><path style="opacity:1" fill="#300b0a" d="M 199.5,8.5 C 205.167,13.5 210.5,18.8333 215.5,24.5C 213.565,25.709 211.565,25.5423 209.5,24C 206.299,20.4636 202.799,17.2969 199,14.5C 198.211,12.2884 198.378,10.2884 199.5,8.5 Z"/></g>
<g><path style="opacity:1" fill="#5d1516" d="M 199.5,8.5 C 198.378,10.2884 198.211,12.2884 199,14.5C 202.799,17.2969 206.299,20.4636 209.5,24C 211.565,25.5423 213.565,25.709 215.5,24.5C 216.167,24.8333 216.833,25.1667 217.5,25.5C 217.03,26.6935 216.03,27.3601 214.5,27.5C 213.5,27.3333 212.5,27.1667 211.5,27C 206.583,22.2437 201.25,18.077 195.5,14.5C 194.89,13.609 194.557,12.609 194.5,11.5C 195.648,8.91306 197.315,7.91306 199.5,8.5 Z"/></g>
<g><path style="opacity:1" fill="#932222" d="M 195.5,14.5 C 201.25,18.077 206.583,22.2437 211.5,27C 212.5,27.1667 213.5,27.3333 214.5,27.5C 216.03,27.3601 217.03,26.6935 217.5,25.5C 217.833,25.5 218.167,25.5 218.5,25.5C 219.598,26.397 219.598,27.2303 218.5,28C 211.715,30.6418 206.382,28.9752 202.5,23C 201.552,22.5172 200.552,22.3505 199.5,22.5C 199.657,21.1266 199.49,19.7932 199,18.5C 197.624,17.2949 196.458,15.9616 195.5,14.5 Z"/></g>
<g><path style="opacity:1" fill="#dc1918" d="M 133.5,31.5 C 144.833,31.5 156.167,31.5 167.5,31.5C 170.167,31.5 172.833,31.5 175.5,31.5C 205.5,31.5 235.5,31.5 265.5,31.5C 266.167,31.5 266.5,31.8333 266.5,32.5C 266.771,48.1952 266.437,63.8619 265.5,79.5C 265.158,80.3382 264.492,80.6716 263.5,80.5C 263.829,65.324 263.496,50.324 262.5,35.5C 257.5,35.5 252.5,35.5 247.5,35.5C 220.833,35.5 194.167,35.5 167.5,35.5C 163.5,35.5 159.5,35.5 155.5,35.5C 150.5,35.5 145.5,35.5 140.5,35.5C 138.833,35.5 137.167,35.5 135.5,35.5C 135.5,37.1667 135.5,38.8333 135.5,40.5C 135.5,40.8333 135.5,41.1667 135.5,41.5C 135.5,46.5 135.5,51.5 135.5,56.5C 135.5,57.8333 135.5,59.1667 135.5,60.5C 135.5,62.8333 135.5,65.1667 135.5,67.5C 136.097,72.294 135.43,76.6273 133.5,80.5C 132.833,80.5 132.5,80.1667 132.5,79.5C 132.17,63.3246 132.504,47.3246 133.5,31.5 Z"/></g>
<g><path style="opacity:1" fill="#db3434" d="M 266.5,32.5 C 291.175,56.175 315.175,80.5083 338.5,105.5C 330.452,114.215 322.119,122.548 313.5,130.5C 312.761,130.631 312.094,130.464 311.5,130C 312.38,128.644 312.714,127.144 312.5,125.5C 314.469,117.117 313.469,109.117 309.5,101.5C 313.364,91.2628 311.697,82.0961 304.5,74C 302.5,73 300.5,72 298.5,71C 290.988,70.1782 283.655,70.3448 276.5,71.5C 276.5,72.5 276.5,73.5 276.5,74.5C 272.182,74.8273 268.515,76.494 265.5,79.5C 266.437,63.8619 266.771,48.1952 266.5,32.5 Z"/></g>
<g><path style="opacity:1" fill="#5b1515" d="M 247.5,35.5 C 252.5,35.5 257.5,35.5 262.5,35.5C 262.666,42.175 262.5,48.8417 262,55.5C 259.964,53.4078 258.464,51.0745 257.5,48.5C 257.664,45.8127 257.497,43.146 257,40.5C 254.049,38.9239 250.883,38.2572 247.5,38.5C 247.5,37.5 247.5,36.5 247.5,35.5 Z"/></g>
<g><path style="opacity:1" fill="#6f1a1a" d="M 167.5,35.5 C 194.167,35.5 220.833,35.5 247.5,35.5C 247.5,36.5 247.5,37.5 247.5,38.5C 250.883,38.2572 254.049,38.9239 257,40.5C 257.497,43.146 257.664,45.8127 257.5,48.5C 256.79,46.1073 256.123,43.6073 255.5,41C 250.05,40.1137 244.716,39.6137 239.5,39.5C 237.167,39.5 234.833,39.5 232.5,39.5C 232.38,38.4138 231.713,37.7472 230.5,37.5C 229.833,37.8333 229.167,38.1667 228.5,38.5C 230.13,41.5778 230.963,44.9111 231,48.5C 237.116,54.7861 243.283,60.7861 249.5,66.5C 248.448,66.6495 247.448,66.4828 246.5,66C 240.636,59.801 234.469,53.9677 228,48.5C 227.728,45.7462 227.228,43.0795 226.5,40.5C 222.706,39.1368 218.706,38.1368 214.5,37.5C 212.79,38.6873 211.29,38.354 210,36.5C 208.566,36.9304 207.399,37.7638 206.5,39C 193.838,39.4999 181.171,39.6666 168.5,39.5C 168.167,39.5 167.833,39.5 167.5,39.5C 167.5,38.1667 167.5,36.8333 167.5,35.5 Z"/></g>
<g><path style="opacity:1" fill="#801d1d" d="M 140.5,35.5 C 140.33,36.8221 140.663,37.9887 141.5,39C 146.489,39.4993 151.489,39.6659 156.5,39.5C 156.567,38.0413 156.234,36.7079 155.5,35.5C 159.5,35.5 163.5,35.5 167.5,35.5C 167.5,36.8333 167.5,38.1667 167.5,39.5C 166.5,39.5 165.5,39.5 164.5,39.5C 162.143,39.3367 159.81,39.5034 157.5,40C 151.977,46.5216 146.143,52.6883 140,58.5C 139.192,60.5787 139.359,62.5787 140.5,64.5C 141.518,63.8075 142.518,63.1408 143.5,62.5C 144.776,63.3864 144.776,64.3864 143.5,65.5C 141.057,67.0553 138.39,67.722 135.5,67.5C 135.5,65.1667 135.5,62.8333 135.5,60.5C 138.621,57.8615 140.788,54.5282 142,50.5C 144.895,48.3925 147.561,46.0591 150,43.5C 150.483,42.552 150.649,41.552 150.5,40.5C 145.5,40.5 140.5,40.5 135.5,40.5C 135.5,38.8333 135.5,37.1667 135.5,35.5C 137.167,35.5 138.833,35.5 140.5,35.5 Z"/></g>
<g><path style="opacity:1" fill="#611616" d="M 140.5,35.5 C 145.5,35.5 150.5,35.5 155.5,35.5C 156.234,36.7079 156.567,38.0413 156.5,39.5C 151.489,39.6659 146.489,39.4993 141.5,39C 140.663,37.9887 140.33,36.8221 140.5,35.5 Z"/></g>
<g><path style="opacity:1" fill="#da1717" d="M 164.5,39.5 C 164.5,40.1667 164.5,40.8333 164.5,41.5C 157.167,48.1667 150.167,55.1667 143.5,62.5C 142.518,63.1408 141.518,63.8075 140.5,64.5C 139.359,62.5787 139.192,60.5787 140,58.5C 146.143,52.6883 151.977,46.5216 157.5,40C 159.81,39.5034 162.143,39.3367 164.5,39.5 Z"/></g>
<g><path style="opacity:1" fill="#da1717" d="M 232.5,39.5 C 234.833,39.5 237.167,39.5 239.5,39.5C 240.167,40.8333 241.167,41.8333 242.5,42.5C 245.895,46.8976 249.895,50.5643 254.5,53.5C 254.685,55.1958 255.519,56.5291 257,57.5C 257.796,60.0385 257.629,62.3718 256.5,64.5C 256.167,64.5 255.833,64.5 255.5,64.5C 247.443,56.4466 239.777,48.1133 232.5,39.5 Z"/></g>
<g><path style="opacity:1" fill="#ae2929" d="M 164.5,39.5 C 165.5,39.5 166.5,39.5 167.5,39.5C 167.833,39.5 168.167,39.5 168.5,39.5C 178.319,40.494 188.319,40.8274 198.5,40.5C 198.5,41.8333 198.5,43.1667 198.5,44.5C 193.825,46.1697 189.825,48.8363 186.5,52.5C 187.167,50.5 187.833,48.5 188.5,46.5C 190.716,46.7254 192.383,45.8921 193.5,44C 192.975,43.3076 192.308,42.8076 191.5,42.5C 186.855,42.589 182.189,42.589 177.5,42.5C 176.353,42.8178 175.519,43.4844 175,44.5C 174.612,43.572 173.945,42.9054 173,42.5C 171.374,43.0182 169.707,43.3516 168,43.5C 166.319,43.3917 165.152,42.7251 164.5,41.5C 164.5,40.8333 164.5,40.1667 164.5,39.5 Z"/></g>
<g><path style="opacity:1" fill="#df1717" d="M 209.5,39.5 C 209.5,40.5 209.5,41.5 209.5,42.5C 211.5,42.5 213.5,42.5 215.5,42.5C 217.644,45.122 218.977,48.122 219.5,51.5C 218.07,51.4208 216.736,51.7542 215.5,52.5C 214.526,54.7427 214.192,57.076 214.5,59.5C 213.209,59.2627 212.209,59.596 211.5,60.5C 205.669,63.5812 200.002,66.9145 194.5,70.5C 194.167,70.5 193.833,70.5 193.5,70.5C 191.5,70.5 189.5,70.5 187.5,70.5C 186.011,68.3549 185.011,66.0215 184.5,63.5C 184.104,60.9556 184.771,58.7889 186.5,57C 192.49,51.3499 198.824,46.0166 205.5,41C 206.745,40.2086 208.078,39.7086 209.5,39.5 Z"/></g>
<g><path style="opacity:1" fill="#ab1b1b" d="M 141.5,20.5 C 141.5,21.8333 141.5,23.1667 141.5,24.5C 140.448,24.3505 139.448,24.5172 138.5,25C 136.563,27.0856 134.896,29.2522 133.5,31.5C 132.504,47.3246 132.17,63.3246 132.5,79.5C 131.527,77.0521 131.194,74.3854 131.5,71.5C 131.5,57.5 131.5,43.5 131.5,29.5C 134.833,26.5 138.167,23.5 141.5,20.5 Z"/></g>
<g><path style="opacity:1" fill="#b82b2b" d="M 135.5,41.5 C 135.5,41.1667 135.5,40.8333 135.5,40.5C 140.5,40.5 145.5,40.5 150.5,40.5C 150.649,41.552 150.483,42.552 150,43.5C 147.561,46.0591 144.895,48.3925 142,50.5C 140.788,54.5282 138.621,57.8615 135.5,60.5C 135.5,59.1667 135.5,57.8333 135.5,56.5C 138.172,54.6086 139.172,51.9419 138.5,48.5C 143.062,48.7208 143.728,47.2208 140.5,44C 139.1,42.5619 137.433,41.7286 135.5,41.5 Z"/></g>
<g><path style="opacity:1" fill="#da3333" d="M 135.5,41.5 C 137.433,41.7286 139.1,42.5619 140.5,44C 143.728,47.2208 143.062,48.7208 138.5,48.5C 139.172,51.9419 138.172,54.6086 135.5,56.5C 135.5,51.5 135.5,46.5 135.5,41.5 Z"/></g>
<g><path style="opacity:1" fill="#d83333" d="M 164.5,41.5 C 165.152,42.7251 166.319,43.3917 168,43.5C 169.707,43.3516 171.374,43.0182 173,42.5C 173.945,42.9054 174.612,43.572 175,44.5C 175.519,43.4844 176.353,42.8178 177.5,42.5C 182.189,42.589 186.855,42.589 191.5,42.5C 192.308,42.8076 192.975,43.3076 193.5,44C 192.383,45.8921 190.716,46.7254 188.5,46.5C 187.833,48.5 187.167,50.5 186.5,52.5C 183.489,54.7207 180.655,57.3874 178,60.5C 177.667,65.1667 177.333,69.8333 177,74.5C 172.291,80.2648 169.457,86.9314 168.5,94.5C 164.802,87.0996 161.468,79.4329 158.5,71.5C 154.351,70.1905 150.351,70.1905 146.5,71.5C 140.318,71.3489 136.985,74.3489 136.5,80.5C 137.082,94.1772 137.415,107.844 137.5,121.5C 137.333,125.833 137.167,130.167 137,134.5C 136.768,135.737 136.268,136.737 135.5,137.5C 135.5,131.167 135.5,124.833 135.5,118.5C 134.167,118.5 132.833,118.5 131.5,118.5C 131.5,119.5 131.5,120.5 131.5,121.5C 129.088,121.331 126.921,121.997 125,123.5C 124.235,123.43 123.735,123.097 123.5,122.5C 124.693,122.03 125.36,121.03 125.5,119.5C 123.994,115.318 121.328,111.985 117.5,109.5C 117.5,107.167 117.5,104.833 117.5,102.5C 115.167,102.5 112.833,102.5 110.5,102.5C 109.524,101.185 108.524,99.8518 107.5,98.5C 109.5,96.1667 111.5,93.8333 113.5,91.5C 111.955,90.5481 110.288,90.2148 108.5,90.5C 108.833,89.5 109.5,88.8333 110.5,88.5C 112.527,88.3379 114.527,88.5045 116.5,89C 115.549,89.7175 115.383,90.5509 116,91.5C 119.545,90.4602 121.379,88.1269 121.5,84.5C 122.833,84.5 124.167,84.5 125.5,84.5C 125.5,80.8333 125.5,77.1667 125.5,73.5C 126.194,76.4213 127.027,79.4213 128,82.5C 129.699,83.4061 131.533,83.7394 133.5,83.5C 133.5,82.5 133.5,81.5 133.5,80.5C 135.43,76.6273 136.097,72.294 135.5,67.5C 138.39,67.722 141.057,67.0553 143.5,65.5C 144.776,64.3864 144.776,63.3864 143.5,62.5C 150.167,55.1667 157.167,48.1667 164.5,41.5 Z"/></g>
<g><path style="opacity:1" fill="#dd3837" d="M 215.5,42.5 C 217.928,43.2122 220.261,44.2122 222.5,45.5C 223.173,47.6887 224.173,49.6887 225.5,51.5C 226.651,52.731 227.817,52.731 229,51.5C 229.181,57.5343 232.347,60.8677 238.5,61.5C 238.542,64.5852 239.875,66.9186 242.5,68.5C 240.981,67.983 239.648,68.6496 238.5,70.5C 237.029,69.6195 236.196,68.2861 236,66.5C 235.349,68.235 235.515,69.9017 236.5,71.5C 234.634,77.0266 233.3,82.6933 232.5,88.5C 233.167,90.1667 233.833,91.8333 234.5,93.5C 233.944,96.053 233.944,98.7196 234.5,101.5C 234.33,103.715 233.663,105.715 232.5,107.5C 234.524,111.711 234.857,116.044 233.5,120.5C 232.583,121.127 231.583,121.461 230.5,121.5C 228.59,120.025 227.424,118.025 227,115.5C 226.5,100.504 226.333,85.5037 226.5,70.5C 224.167,70.5 221.833,70.5 219.5,70.5C 217.648,69.4823 215.981,68.1489 214.5,66.5C 213.494,66.9377 213.494,67.6043 214.5,68.5C 213.277,69.6139 211.944,69.7805 210.5,69C 209.402,68.2303 209.402,67.397 210.5,66.5C 210.92,64.9064 211.586,63.4064 212.5,62C 212.43,61.2352 212.097,60.7352 211.5,60.5C 212.209,59.596 213.209,59.2627 214.5,59.5C 214.192,57.076 214.526,54.7427 215.5,52.5C 216.736,51.7542 218.07,51.4208 219.5,51.5C 218.977,48.122 217.644,45.122 215.5,42.5 Z"/></g>
<g><path style="opacity:1" fill="#851e1e" d="M 226.5,40.5 C 220.825,39.8523 215.158,39.5189 209.5,39.5C 208.078,39.7086 206.745,40.2086 205.5,41C 198.824,46.0166 192.49,51.3499 186.5,57C 184.771,58.7889 184.104,60.9556 184.5,63.5C 183.833,63.5 183.5,63.1667 183.5,62.5C 183.762,61.0222 183.429,59.6888 182.5,58.5C 181.914,58.7093 181.414,59.0426 181,59.5C 179.839,64.4164 179.173,69.4164 179,74.5C 174.875,81.257 171.375,88.257 168.5,95.5C 168.5,95.1667 168.5,94.8333 168.5,94.5C 169.457,86.9314 172.291,80.2648 177,74.5C 177.333,69.8333 177.667,65.1667 178,60.5C 180.655,57.3874 183.489,54.7207 186.5,52.5C 189.825,48.8363 193.825,46.1697 198.5,44.5C 198.5,43.1667 198.5,41.8333 198.5,40.5C 188.319,40.8274 178.319,40.494 168.5,39.5C 181.171,39.6666 193.838,39.4999 206.5,39C 207.399,37.7638 208.566,36.9304 210,36.5C 211.29,38.354 212.79,38.6873 214.5,37.5C 218.706,38.1368 222.706,39.1368 226.5,40.5 Z"/></g>
<g><path style="opacity:1" fill="#d53131" d="M 242.5,42.5 C 245.908,41.828 248.575,42.828 250.5,45.5C 251.258,44.1886 252.258,43.6886 253.5,44C 254.451,47.0567 254.784,50.2234 254.5,53.5C 249.895,50.5643 245.895,46.8976 242.5,42.5 Z"/></g>
<g><path style="opacity:1" fill="#6f1919" d="M 131.5,29.5 C 131.5,43.5 131.5,57.5 131.5,71.5C 130.85,71.8039 130.183,72.1373 129.5,72.5C 128.148,71.4756 126.815,70.4756 125.5,69.5C 125.5,69.1667 125.5,68.8333 125.5,68.5C 125.666,58.4944 125.5,48.4944 125,38.5C 123.989,39.3366 122.822,39.67 121.5,39.5C 122.5,37.8333 123.833,36.5 125.5,35.5C 127.316,46.4557 128.149,57.789 128,69.5C 128.414,69.9574 128.914,70.2907 129.5,70.5C 130.666,58.8476 130.833,47.1809 130,35.5C 129.283,34.9558 128.783,34.2891 128.5,33.5C 129.512,32.1283 130.512,30.795 131.5,29.5 Z"/></g>
<g><path style="opacity:1" fill="#4b1111" d="M 128.5,33.5 C 128.783,34.2891 129.283,34.9558 130,35.5C 130.833,47.1809 130.666,58.8476 129.5,70.5C 128.914,70.2907 128.414,69.9574 128,69.5C 128.149,57.789 127.316,46.4557 125.5,35.5C 126.29,34.5987 127.29,33.9321 128.5,33.5 Z"/></g>
<g><path style="opacity:1" fill="#3e0f0e" d="M 232.5,39.5 C 239.777,48.1133 247.443,56.4466 255.5,64.5C 254.082,66.3079 252.082,66.9746 249.5,66.5C 243.283,60.7861 237.116,54.7861 231,48.5C 230.963,44.9111 230.13,41.5778 228.5,38.5C 229.167,38.1667 229.833,37.8333 230.5,37.5C 231.713,37.7472 232.38,38.4138 232.5,39.5 Z"/></g>
<g><path style="opacity:1" fill="#a72423" d="M 262.5,35.5 C 263.496,50.324 263.829,65.324 263.5,80.5C 263.167,80.5 262.833,80.5 262.5,80.5C 262.5,75.5 262.5,70.5 262.5,65.5C 261.167,65.5 259.833,65.5 258.5,65.5C 257.508,65.6716 256.842,65.3382 256.5,64.5C 257.629,62.3718 257.796,60.0385 257,57.5C 255.519,56.5291 254.685,55.1958 254.5,53.5C 254.784,50.2234 254.451,47.0567 253.5,44C 252.258,43.6886 251.258,44.1886 250.5,45.5C 248.575,42.828 245.908,41.828 242.5,42.5C 241.167,41.8333 240.167,40.8333 239.5,39.5C 244.716,39.6137 250.05,40.1137 255.5,41C 256.123,43.6073 256.79,46.1073 257.5,48.5C 258.464,51.0745 259.964,53.4078 262,55.5C 262.5,48.8417 262.666,42.175 262.5,35.5 Z"/></g>
<g><path style="opacity:1" fill="#a22626" d="M 125.5,68.5 C 124.756,65.6404 124.089,62.6404 123.5,59.5C 124.053,54.6465 124.22,49.6465 124,44.5C 123.072,42.6652 121.906,42.3318 120.5,43.5C 117.317,44.823 115.65,47.1564 115.5,50.5C 114.5,50.5 113.5,50.5 112.5,50.5C 112.5,51.8333 112.5,53.1667 112.5,54.5C 108.846,54.7512 106.679,56.7512 106,60.5C 104.491,61.0897 102.991,61.7564 101.5,62.5C 103.211,64.2403 104.044,66.2403 104,68.5C 103.167,67.5 102.333,66.5 101.5,65.5C 100.264,66.2458 98.9305,66.5792 97.5,66.5C 97.5,67.8333 97.5,69.1667 97.5,70.5C 95.1667,70.5 92.8333,70.5 90.5,70.5C 100.5,59.8333 110.833,49.5 121.5,39.5C 122.822,39.67 123.989,39.3366 125,38.5C 125.5,48.4944 125.666,58.4944 125.5,68.5 Z"/></g>
<g><path style="opacity:1" fill="#bd2d2d" d="M 209.5,39.5 C 215.158,39.5189 220.825,39.8523 226.5,40.5C 227.228,43.0795 227.728,45.7462 228,48.5C 234.469,53.9677 240.636,59.801 246.5,66C 247.448,66.4828 248.448,66.6495 249.5,66.5C 250.672,68.539 252.338,69.8724 254.5,70.5C 251.167,70.5 247.833,70.5 244.5,70.5C 243.566,71.5676 243.232,72.901 243.5,74.5C 241.61,74.2965 240.11,74.9632 239,76.5C 238.784,84.036 238.284,91.536 237.5,99C 238.972,106.941 238.638,114.775 236.5,122.5C 234.5,122.5 232.5,122.5 230.5,122.5C 230.5,122.167 230.5,121.833 230.5,121.5C 231.583,121.461 232.583,121.127 233.5,120.5C 234.857,116.044 234.524,111.711 232.5,107.5C 233.663,105.715 234.33,103.715 234.5,101.5C 233.944,98.7196 233.944,96.053 234.5,93.5C 233.833,91.8333 233.167,90.1667 232.5,88.5C 233.3,82.6933 234.634,77.0266 236.5,71.5C 235.515,69.9017 235.349,68.235 236,66.5C 236.196,68.2861 237.029,69.6195 238.5,70.5C 239.648,68.6496 240.981,67.983 242.5,68.5C 239.875,66.9186 238.542,64.5852 238.5,61.5C 232.347,60.8677 229.181,57.5343 229,51.5C 227.817,52.731 226.651,52.731 225.5,51.5C 224.173,49.6887 223.173,47.6887 222.5,45.5C 220.261,44.2122 217.928,43.2122 215.5,42.5C 213.5,42.5 211.5,42.5 209.5,42.5C 209.5,41.5 209.5,40.5 209.5,39.5 Z"/></g>
<g><path style="opacity:1" fill="#210806" d="M 183.5,62.5 C 183.5,63.1667 183.833,63.5 184.5,63.5C 185.011,66.0215 186.011,68.3549 187.5,70.5C 185.833,70.5 184.167,70.5 182.5,70.5C 181.431,67.592 181.264,64.592 182,61.5C 182.383,62.056 182.883,62.3893 183.5,62.5 Z"/></g>
<g><path style="opacity:1" fill="#5c1515" d="M 258.5,65.5 C 259.833,65.5 261.167,65.5 262.5,65.5C 262.5,70.5 262.5,75.5 262.5,80.5C 260.883,79.962 259.216,79.6287 257.5,79.5C 257.226,74.737 257.559,70.0704 258.5,65.5 Z"/></g>
<g><path style="opacity:1" fill="#d63333" d="M 125.5,68.5 C 125.5,68.8333 125.5,69.1667 125.5,69.5C 125.5,69.8333 125.5,70.1667 125.5,70.5C 116.167,70.5 106.833,70.5 97.5,70.5C 97.5,69.1667 97.5,67.8333 97.5,66.5C 98.9305,66.5792 100.264,66.2458 101.5,65.5C 102.333,66.5 103.167,67.5 104,68.5C 104.044,66.2403 103.211,64.2403 101.5,62.5C 102.991,61.7564 104.491,61.0897 106,60.5C 106.679,56.7512 108.846,54.7512 112.5,54.5C 112.5,53.1667 112.5,51.8333 112.5,50.5C 113.5,50.5 114.5,50.5 115.5,50.5C 115.65,47.1564 117.317,44.823 120.5,43.5C 121.906,42.3318 123.072,42.6652 124,44.5C 124.22,49.6465 124.053,54.6465 123.5,59.5C 124.089,62.6404 124.756,65.6404 125.5,68.5 Z"/></g>
<g><path style="opacity:1" fill="#9c2322" d="M 211.5,60.5 C 212.097,60.7352 212.43,61.2352 212.5,62C 211.586,63.4064 210.92,64.9064 210.5,66.5C 204.969,68.5986 199.636,71.2652 194.5,74.5C 194.5,73.1667 194.5,71.8333 194.5,70.5C 200.002,66.9145 205.669,63.5812 211.5,60.5 Z"/></g>
<g><path style="opacity:1" fill="#932222" d="M 125.5,69.5 C 126.815,70.4756 128.148,71.4756 129.5,72.5C 130.183,72.1373 130.85,71.8039 131.5,71.5C 131.194,74.3854 131.527,77.0521 132.5,79.5C 132.5,80.1667 132.833,80.5 133.5,80.5C 133.5,81.5 133.5,82.5 133.5,83.5C 131.533,83.7394 129.699,83.4061 128,82.5C 127.027,79.4213 126.194,76.4213 125.5,73.5C 125.5,72.5 125.5,71.5 125.5,70.5C 125.5,70.1667 125.5,69.8333 125.5,69.5 Z"/></g>
<g><path style="opacity:1" fill="#e0d9d9" d="M 168.5,94.5 C 168.5,94.8333 168.5,95.1667 168.5,95.5C 168.709,96.9217 169.209,98.255 170,99.5C 174.712,90.0749 178.879,80.4082 182.5,70.5C 184.167,70.5 185.833,70.5 187.5,70.5C 189.5,70.5 191.5,70.5 193.5,70.5C 193.5,71.5 193.5,72.5 193.5,73.5C 190.112,70.579 187.112,70.9123 184.5,74.5C 186.687,93.3993 187.854,112.399 188,131.5C 189.459,133.81 191.292,134.143 193.5,132.5C 193.5,133.5 193.5,134.5 193.5,135.5C 190.167,135.5 186.833,135.5 183.5,135.5C 183.667,123.829 183.5,112.162 183,100.5C 182.487,101.527 181.987,102.527 181.5,103.5C 181.167,104.833 180.833,106.167 180.5,107.5C 178.98,109.89 177.98,112.557 177.5,115.5C 176.609,116.261 175.942,117.261 175.5,118.5C 174.311,119.429 172.978,119.762 171.5,119.5C 169.833,119.5 168.167,119.5 166.5,119.5C 163.02,113.937 160.186,107.937 158,101.5C 157.501,105.152 157.335,108.818 157.5,112.5C 157.5,115.167 157.5,117.833 157.5,120.5C 157.5,121.5 157.5,122.5 157.5,123.5C 157.5,127.833 157.5,132.167 157.5,136.5C 156.5,136.5 155.5,136.5 154.5,136.5C 152.833,136.5 151.167,136.5 149.5,136.5C 148.5,136.5 147.5,136.5 146.5,136.5C 146.5,117.167 146.5,97.8333 146.5,78.5C 146.5,77.8333 146.5,77.1667 146.5,76.5C 146.5,75.5 146.5,74.5 146.5,73.5C 146.5,72.8333 146.5,72.1667 146.5,71.5C 150.351,70.1905 154.351,70.1905 158.5,71.5C 161.468,79.4329 164.802,87.0996 168.5,94.5 Z"/></g>
<g><path style="opacity:1" fill="#d4cdcd" d="M 193.5,73.5 C 193.5,93.1667 193.5,112.833 193.5,132.5C 191.292,134.143 189.459,133.81 188,131.5C 187.854,112.399 186.687,93.3993 184.5,74.5C 187.112,70.9123 190.112,70.579 193.5,73.5 Z"/></g>
<g><path style="opacity:1" fill="#d4cbcb" d="M 254.5,70.5 C 255.483,74.2984 255.817,78.2984 255.5,82.5C 255.667,93.505 255.5,104.505 255,115.5C 254.765,120.375 253.265,124.709 250.5,128.5C 250.631,127.761 250.464,127.094 250,126.5C 247.704,129.388 246.538,128.888 246.5,125C 248.823,107.237 249.157,89.4041 247.5,71.5C 250.044,71.1043 252.211,71.771 254,73.5C 254.483,72.552 254.649,71.552 254.5,70.5 Z"/></g>
<g><path style="opacity:1" fill="#d6cccc" d="M 276.5,71.5 C 283.655,70.3448 290.988,70.1782 298.5,71C 300.5,72 302.5,73 304.5,74C 311.697,82.0961 313.364,91.2628 309.5,101.5C 313.469,109.117 314.469,117.117 312.5,125.5C 311.079,128.009 309.412,130.343 307.5,132.5C 306.385,130.693 305.719,128.693 305.5,126.5C 307.515,119.767 306.515,113.6 302.5,108C 299.915,106.872 297.248,106.039 294.5,105.5C 290.197,106.428 285.864,107.094 281.5,107.5C 280.47,101.537 280.303,95.5368 281,89.5C 283.454,87.987 285.121,88.6537 286,91.5C 286.186,88.9644 286.686,86.631 287.5,84.5C 287.5,84.8333 287.5,85.1667 287.5,85.5C 287.5,86.8333 287.5,88.1667 287.5,89.5C 287.5,92.1667 287.5,94.8333 287.5,97.5C 289.167,97.5 290.833,97.5 292.5,97.5C 293.833,97.5 295.167,97.5 296.5,97.5C 297.75,97.4226 298.583,96.756 299,95.5C 299.747,92.0764 299.58,88.7431 298.5,85.5C 299.752,83.6612 299.752,81.8278 298.5,80C 293.351,78.084 288.017,77.084 282.5,77C 281.139,75.4157 280.472,73.5824 280.5,71.5C 279.167,71.5 277.833,71.5 276.5,71.5 Z"/></g>
<g><path style="opacity:1" fill="#ded8d8" d="M 101.5,84.5 C 101.177,90.69 101.51,96.69 102.5,102.5C 105.167,102.5 107.833,102.5 110.5,102.5C 112.833,102.5 115.167,102.5 117.5,102.5C 117.5,104.833 117.5,107.167 117.5,109.5C 117.923,111.781 117.256,113.448 115.5,114.5C 111.167,114.5 106.833,114.5 102.5,114.5C 101.509,121.313 101.175,128.313 101.5,135.5C 98.1667,135.5 94.8333,135.5 91.5,135.5C 91.5,114.167 91.5,92.8333 91.5,71.5C 102.5,71.5 113.5,71.5 124.5,71.5C 124.5,75.5 124.5,79.5 124.5,83.5C 116.648,83.1746 108.982,83.508 101.5,84.5 Z"/></g>
<g><path style="opacity:1" fill="#d6b2b2" d="M 193.5,70.5 C 193.833,70.5 194.167,70.5 194.5,70.5C 194.5,71.8333 194.5,73.1667 194.5,74.5C 194.5,76.1667 194.5,77.8333 194.5,79.5C 194.5,98.5 194.5,117.5 194.5,136.5C 192.833,136.5 191.167,136.5 189.5,136.5C 188.833,136.5 188.167,136.5 187.5,136.5C 186.167,136.5 184.833,136.5 183.5,136.5C 183.5,136.167 183.5,135.833 183.5,135.5C 186.833,135.5 190.167,135.5 193.5,135.5C 193.5,134.5 193.5,133.5 193.5,132.5C 193.5,112.833 193.5,93.1667 193.5,73.5C 193.5,72.5 193.5,71.5 193.5,70.5 Z"/></g>
<g><path style="opacity:1" fill="#cfbcbc" d="M 90.5,70.5 C 92.8333,70.5 95.1667,70.5 97.5,70.5C 106.833,70.5 116.167,70.5 125.5,70.5C 125.5,71.5 125.5,72.5 125.5,73.5C 125.5,77.1667 125.5,80.8333 125.5,84.5C 124.167,84.5 122.833,84.5 121.5,84.5C 118.833,84.5 116.167,84.5 113.5,84.5C 109.5,84.5 105.5,84.5 101.5,84.5C 108.982,83.508 116.648,83.1746 124.5,83.5C 124.5,79.5 124.5,75.5 124.5,71.5C 113.5,71.5 102.5,71.5 91.5,71.5C 91.5,92.8333 91.5,114.167 91.5,135.5C 94.8333,135.5 98.1667,135.5 101.5,135.5C 101.5,135.833 101.5,136.167 101.5,136.5C 98.8333,136.5 96.1667,136.5 93.5,136.5C 91.8212,136.715 90.8212,136.048 90.5,134.5C 90.5,115.5 90.5,96.5 90.5,77.5C 90.5,75.1667 90.5,72.8333 90.5,70.5 Z"/></g>
<g><path style="opacity:1" fill="#d6d0d0" d="M 219.5,70.5 C 221.833,70.5 224.167,70.5 226.5,70.5C 226.333,85.5037 226.5,100.504 227,115.5C 227.424,118.025 228.59,120.025 230.5,121.5C 230.5,121.833 230.5,122.167 230.5,122.5C 230.074,123.528 230.074,124.861 230.5,126.5C 228.473,126.662 226.473,126.495 224.5,126C 223.971,123.571 222.637,121.738 220.5,120.5C 219.081,105.52 217.915,90.5196 217,75.5C 216.5,89.496 216.333,103.496 216.5,117.5C 215.505,105.345 215.171,93.0113 215.5,80.5C 215.5,79.5 215.5,78.5 215.5,77.5C 215.5,76.5 215.5,75.5 215.5,74.5C 215.5,74.1667 215.5,73.8333 215.5,73.5C 215.5,72.5 215.5,71.5 215.5,70.5C 216.833,70.5 218.167,70.5 219.5,70.5 Z"/></g>
<g><path style="opacity:1" fill="#451010" d="M 146.5,78.5 C 146.5,97.8333 146.5,117.167 146.5,136.5C 144.983,136.489 143.816,135.823 143,134.5C 143.318,115.849 143.484,97.1821 143.5,78.5C 144.5,78.5 145.5,78.5 146.5,78.5 Z"/></g>
<g><path style="opacity:1" fill="#5a1818" d="M 183.5,62.5 C 182.883,62.3893 182.383,62.056 182,61.5C 181.264,64.592 181.431,67.592 182.5,70.5C 178.879,80.4082 174.712,90.0749 170,99.5C 169.209,98.255 168.709,96.9217 168.5,95.5C 171.375,88.257 174.875,81.257 179,74.5C 179.173,69.4164 179.839,64.4164 181,59.5C 181.414,59.0426 181.914,58.7093 182.5,58.5C 183.429,59.6888 183.762,61.0222 183.5,62.5 Z"/></g>
<g><path style="opacity:1" fill="#150404" d="M 276.5,84.5 C 276.5,87.1667 276.5,89.8333 276.5,92.5C 272.577,89.334 270.91,85.334 271.5,80.5C 273.186,81.8569 274.852,83.1902 276.5,84.5 Z"/></g>
<g><path style="opacity:1" fill="#922221" d="M 255.5,64.5 C 255.833,64.5 256.167,64.5 256.5,64.5C 256.842,65.3382 257.508,65.6716 258.5,65.5C 257.559,70.0704 257.226,74.737 257.5,79.5C 259.216,79.6287 260.883,79.962 262.5,80.5C 262.833,80.5 263.167,80.5 263.5,80.5C 264.492,80.6716 265.158,80.3382 265.5,79.5C 268.515,76.494 272.182,74.8273 276.5,74.5C 276.5,75.1667 276.5,75.8333 276.5,76.5C 275.185,77.4756 273.852,78.4756 272.5,79.5C 270.958,78.2532 269.458,78.2532 268,79.5C 267.109,82.4976 267.609,85.1643 269.5,87.5C 271.236,99.151 270.569,110.651 267.5,122C 267.581,124.557 268.747,126.39 271,127.5C 271.18,130.956 271.847,134.289 273,137.5C 278.78,138.232 284.613,138.899 290.5,139.5C 292.819,138.936 295.153,138.436 297.5,138C 298.056,137.617 298.389,137.117 298.5,136.5C 299.5,136.5 300.5,136.5 301.5,136.5C 299.035,138.837 296.035,140.337 292.5,141C 286.509,141.499 280.509,141.666 274.5,141.5C 272.833,141.5 271.167,141.5 269.5,141.5C 269.048,137.837 268.548,134.17 268,130.5C 267.722,129.584 267.222,128.918 266.5,128.5C 266.81,125.287 266.477,122.287 265.5,119.5C 265.389,118.883 265.056,118.383 264.5,118C 265.684,115.277 267.018,112.61 268.5,110C 268.355,104.912 268.355,99.9115 268.5,95C 267.998,91.8035 266.998,88.8035 265.5,86C 262.041,85.0164 258.708,83.8498 255.5,82.5C 255.817,78.2984 255.483,74.2984 254.5,70.5C 252.338,69.8724 250.672,68.539 249.5,66.5C 252.082,66.9746 254.082,66.3079 255.5,64.5 Z"/></g>
<g><path style="opacity:1" fill="#741b1b" d="M 215.5,74.5 C 215.5,75.5 215.5,76.5 215.5,77.5C 214.417,77.5394 213.417,77.8728 212.5,78.5C 211.334,92.8217 211.167,107.155 212,121.5C 212.972,125.97 215.139,129.637 218.5,132.5C 222.322,135.231 226.656,136.564 231.5,136.5C 233.5,136.5 235.5,136.5 237.5,136.5C 237.5,137.5 237.5,138.5 237.5,139.5C 231.407,139.861 225.407,139.361 219.5,138C 217.333,134.803 214.833,131.97 212,129.5C 211.118,126.211 210.452,122.877 210,119.5C 209.333,106.167 209.333,92.8333 210,79.5C 210.437,76.2277 212.27,74.561 215.5,74.5 Z"/></g>
<g><path style="opacity:1" fill="#461212" d="M 287.5,85.5 C 287.5,85.1667 287.5,84.8333 287.5,84.5C 291.269,84.244 294.936,84.5773 298.5,85.5C 299.58,88.7431 299.747,92.0764 299,95.5C 298.583,96.756 297.75,97.4226 296.5,97.5C 297.172,90.5288 294.172,86.5288 287.5,85.5 Z"/></g>
<g><path style="opacity:1" fill="#721919" d="M 287.5,85.5 C 294.172,86.5288 297.172,90.5288 296.5,97.5C 295.167,97.5 293.833,97.5 292.5,97.5C 293.239,93.2536 291.573,90.587 287.5,89.5C 287.5,88.1667 287.5,86.8333 287.5,85.5 Z"/></g>
<g><path style="opacity:1" fill="#891212" d="M 113.5,84.5 C 116.167,84.5 118.833,84.5 121.5,84.5C 121.379,88.1269 119.545,90.4602 116,91.5C 115.383,90.5509 115.549,89.7175 116.5,89C 114.527,88.5045 112.527,88.3379 110.5,88.5C 111.147,86.8595 112.147,85.5261 113.5,84.5 Z"/></g>
<g><path style="opacity:1" fill="#541313" d="M 215.5,77.5 C 215.5,78.5 215.5,79.5 215.5,80.5C 214.732,81.2625 214.232,82.2625 214,83.5C 213.333,96.5 213.333,109.5 214,122.5C 215.993,125.661 217.493,128.994 218.5,132.5C 215.139,129.637 212.972,125.97 212,121.5C 211.167,107.155 211.334,92.8217 212.5,78.5C 213.417,77.8728 214.417,77.5394 215.5,77.5 Z"/></g>
<g><path style="opacity:1" fill="#5e201f" d="M 101.5,84.5 C 105.5,84.5 109.5,84.5 113.5,84.5C 112.147,85.5261 111.147,86.8595 110.5,88.5C 109.5,88.8333 108.833,89.5 108.5,90.5C 103.354,92.792 101.354,96.792 102.5,102.5C 101.51,96.69 101.177,90.69 101.5,84.5 Z"/></g>
<g><path style="opacity:1" fill="#d43131" d="M 255.5,82.5 C 258.708,83.8498 262.041,85.0164 265.5,86C 266.998,88.8035 267.998,91.8035 268.5,95C 268.355,99.9115 268.355,104.912 268.5,110C 267.018,112.61 265.684,115.277 264.5,118C 265.056,118.383 265.389,118.883 265.5,119.5C 263.839,133.304 262.839,147.304 262.5,161.5C 262.5,160.5 262.5,159.5 262.5,158.5C 262.5,152.5 262.5,146.5 262.5,140.5C 262.5,137.5 262.5,134.5 262.5,131.5C 262.5,128.167 262.5,124.833 262.5,121.5C 262.719,120.325 262.386,119.325 261.5,118.5C 259.941,119.074 258.441,119.74 257,120.5C 256.793,124.089 256.293,127.589 255.5,131C 256.252,131.671 256.586,132.504 256.5,133.5C 254.938,133.733 253.605,134.4 252.5,135.5C 251.375,134 250.041,132.667 248.5,131.5C 249.167,130.5 249.833,129.5 250.5,128.5C 253.265,124.709 254.765,120.375 255,115.5C 255.5,104.505 255.667,93.505 255.5,82.5 Z"/></g>
<g><path style="opacity:1" fill="#471011" d="M 90.5,77.5 C 90.5,96.5 90.5,115.5 90.5,134.5C 87.8333,132.167 85.1667,129.833 82.5,127.5C 83.5832,127.539 84.5832,127.873 85.5,128.5C 86.3329,112.51 86.8329,96.5104 87,80.5C 87.4224,78.5743 88.5891,77.5743 90.5,77.5 Z"/></g>
<g><path style="opacity:1" fill="#d73333" d="M 82.5,82.5 C 81.7385,95.298 81.4052,108.298 81.5,121.5C 79.7839,121.371 78.1172,121.038 76.5,120.5C 72.386,115.93 68.0527,111.597 63.5,107.5C 60.8363,104.436 61.003,101.436 64,98.5C 69.4936,92.1576 75.6603,86.8243 82.5,82.5 Z"/></g>
<g><path style="opacity:1" fill="#621616" d="M 146.5,76.5 C 146.5,77.1667 146.5,77.8333 146.5,78.5C 145.5,78.5 144.5,78.5 143.5,78.5C 143.484,97.1821 143.318,115.849 143,134.5C 143.816,135.823 144.983,136.489 146.5,136.5C 147.5,136.5 148.5,136.5 149.5,136.5C 146.955,139.075 144.288,139.075 141.5,136.5C 141.805,123.629 141.472,110.796 140.5,98C 141.269,92.2043 141.769,86.3709 142,80.5C 142.432,77.9276 143.932,76.5943 146.5,76.5 Z"/></g>
<g><path style="opacity:1" fill="#7d1d1d" d="M 243.5,74.5 C 243.55,76.5901 242.55,77.9234 240.5,78.5C 239.785,93.1862 239.118,107.853 238.5,122.5C 237.833,122.5 237.167,122.5 236.5,122.5C 238.638,114.775 238.972,106.941 237.5,99C 238.284,91.536 238.784,84.036 239,76.5C 240.11,74.9632 241.61,74.2965 243.5,74.5 Z"/></g>
<g><path style="opacity:1" fill="#d91716" d="M 108.5,90.5 C 110.288,90.2148 111.955,90.5481 113.5,91.5C 111.5,93.8333 109.5,96.1667 107.5,98.5C 108.524,99.8518 109.524,101.185 110.5,102.5C 107.833,102.5 105.167,102.5 102.5,102.5C 101.354,96.792 103.354,92.792 108.5,90.5 Z"/></g>
<g><path style="opacity:1" fill="#c01414" d="M 287.5,89.5 C 291.573,90.587 293.239,93.2536 292.5,97.5C 290.833,97.5 289.167,97.5 287.5,97.5C 287.5,94.8333 287.5,92.1667 287.5,89.5 Z"/></g>
<g><path style="opacity:1" fill="#451414" d="M 215.5,80.5 C 215.171,93.0113 215.505,105.345 216.5,117.5C 217.489,127.141 222.489,133.474 231.5,136.5C 226.656,136.564 222.322,135.231 218.5,132.5C 217.493,128.994 215.993,125.661 214,122.5C 213.333,109.5 213.333,96.5 214,83.5C 214.232,82.2625 214.732,81.2625 215.5,80.5 Z"/></g>
<g><path style="opacity:1" fill="#872020" d="M 146.5,73.5 C 146.5,74.5 146.5,75.5 146.5,76.5C 143.932,76.5943 142.432,77.9276 142,80.5C 141.769,86.3709 141.269,92.2043 140.5,98C 141.472,110.796 141.805,123.629 141.5,136.5C 139.158,137.211 138.825,138.544 140.5,140.5C 139.861,141.097 139.528,141.93 139.5,143C 140.476,145.118 141.31,147.285 142,149.5C 145.036,151.036 147.203,153.369 148.5,156.5C 151.803,158.925 154.803,158.925 157.5,156.5C 158.167,156.5 158.5,156.833 158.5,157.5C 158.27,160.465 156.603,161.798 153.5,161.5C 151.319,160.129 148.986,159.129 146.5,158.5C 146.649,157.448 146.483,156.448 146,155.5C 142.71,152.452 139.21,149.785 135.5,147.5C 135.5,144.833 135.5,142.167 135.5,139.5C 137.417,138.884 138.584,137.55 139,135.5C 139.333,115.993 139.333,96.66 139,77.5C 140.691,74.6411 143.191,73.3077 146.5,73.5 Z"/></g>
<g><path style="opacity:1" fill="#912222" d="M 80.5,80.5 C 81.8221,80.33 82.9887,80.6634 84,81.5C 84.4999,96.1629 84.6666,110.83 84.5,125.5C 83.209,125.737 82.209,125.404 81.5,124.5C 82.9256,122.321 83.5922,119.821 83.5,117C 83.7087,105.472 83.3753,93.9717 82.5,82.5C 75.6603,86.8243 69.4936,92.1576 64,98.5C 61.003,101.436 60.8363,104.436 63.5,107.5C 60.9138,106.362 59.2471,104.362 58.5,101.5C 65.8069,94.5277 73.1402,87.5277 80.5,80.5 Z"/></g>
<g><path style="opacity:1" fill="#e1dada" d="M 276.5,71.5 C 277.833,71.5 279.167,71.5 280.5,71.5C 280.472,73.5824 281.139,75.4157 282.5,77C 288.017,77.084 293.351,78.084 298.5,80C 299.752,81.8278 299.752,83.6612 298.5,85.5C 294.936,84.5773 291.269,84.244 287.5,84.5C 286.686,86.631 286.186,88.9644 286,91.5C 285.121,88.6537 283.454,87.987 281,89.5C 280.303,95.5368 280.47,101.537 281.5,107.5C 285.864,107.094 290.197,106.428 294.5,105.5C 297.248,106.039 299.915,106.872 302.5,108C 306.515,113.6 307.515,119.767 305.5,126.5C 305.719,128.693 306.385,130.693 307.5,132.5C 305.463,133.846 303.463,135.18 301.5,136.5C 300.5,136.5 299.5,136.5 298.5,136.5C 291.167,136.5 283.833,136.5 276.5,136.5C 276.5,121.833 276.5,107.167 276.5,92.5C 276.5,89.8333 276.5,87.1667 276.5,84.5C 276.5,81.8333 276.5,79.1667 276.5,76.5C 276.5,75.8333 276.5,75.1667 276.5,74.5C 276.5,73.5 276.5,72.5 276.5,71.5 Z"/></g>
<g><path style="opacity:1" fill="#751b1b" d="M 90.5,70.5 C 90.5,72.8333 90.5,75.1667 90.5,77.5C 88.5891,77.5743 87.4224,78.5743 87,80.5C 86.8329,96.5104 86.3329,112.51 85.5,128.5C 84.5832,127.873 83.5832,127.539 82.5,127.5C 81.3065,126.728 80.3065,125.728 79.5,124.5C 80.1667,124.5 80.8333,124.5 81.5,124.5C 82.209,125.404 83.209,125.737 84.5,125.5C 84.6666,110.83 84.4999,96.1629 84,81.5C 82.9887,80.6634 81.8221,80.33 80.5,80.5C 83.5,76.8333 86.8333,73.5 90.5,70.5 Z"/></g>
<g><path style="opacity:1" fill="#b42b2b" d="M 146.5,71.5 C 146.5,72.1667 146.5,72.8333 146.5,73.5C 143.191,73.3077 140.691,74.6411 139,77.5C 139.333,96.66 139.333,115.993 139,135.5C 138.584,137.55 137.417,138.884 135.5,139.5C 135.5,138.833 135.5,138.167 135.5,137.5C 136.268,136.737 136.768,135.737 137,134.5C 137.167,130.167 137.333,125.833 137.5,121.5C 137.415,107.844 137.082,94.1772 136.5,80.5C 136.985,74.3489 140.318,71.3489 146.5,71.5 Z"/></g>
<g><path style="opacity:1" fill="#58221f" d="M 244.5,70.5 C 244.667,84.8372 244.5,99.1705 244,113.5C 243.676,117.492 241.843,120.492 238.5,122.5C 239.118,107.853 239.785,93.1862 240.5,78.5C 242.55,77.9234 243.55,76.5901 243.5,74.5C 243.232,72.901 243.566,71.5676 244.5,70.5 Z"/></g>
<g><path style="opacity:1" fill="#3a0c0c" d="M 276.5,76.5 C 276.5,79.1667 276.5,81.8333 276.5,84.5C 274.852,83.1902 273.186,81.8569 271.5,80.5C 270.91,85.334 272.577,89.334 276.5,92.5C 276.5,107.167 276.5,121.833 276.5,136.5C 275.5,136.5 274.5,136.5 273.5,136.5C 273.665,133.15 273.498,129.817 273,126.5C 272.5,126 272,125.5 271.5,125C 273.619,122.782 273.952,120.282 272.5,117.5C 271.851,119.624 271.017,121.624 270,123.5C 268.739,118.869 269.739,114.869 273,111.5C 273.788,104.444 273.455,97.4436 272,90.5C 271.623,89.0577 270.79,88.0577 269.5,87.5C 267.609,85.1643 267.109,82.4976 268,79.5C 269.458,78.2532 270.958,78.2532 272.5,79.5C 273.852,78.4756 275.185,77.4756 276.5,76.5 Z"/></g>
<g><path style="opacity:1" fill="#db1817" d="M 117.5,109.5 C 121.328,111.985 123.994,115.318 125.5,119.5C 125.36,121.03 124.693,122.03 123.5,122.5C 122.5,121.833 121.5,121.167 120.5,120.5C 118.833,118.5 117.167,116.5 115.5,114.5C 117.256,113.448 117.923,111.781 117.5,109.5 Z"/></g>
<g><path style="opacity:1" fill="#501615" d="M 296.5,122.5 C 296.188,116.864 293.188,114.531 287.5,115.5C 287.5,114.167 287.5,112.833 287.5,111.5C 291.846,111.334 296.179,111.501 300.5,112C 302.869,114.938 303.036,118.104 301,121.5C 299.644,122.38 298.144,122.714 296.5,122.5 Z"/></g>
<g><path style="opacity:1" fill="#451212" d="M 166.5,119.5 C 165.292,120.782 163.958,120.782 162.5,119.5C 161.26,116.804 159.593,114.471 157.5,112.5C 157.335,108.818 157.501,105.152 158,101.5C 160.186,107.937 163.02,113.937 166.5,119.5 Z"/></g>
<g><path style="opacity:1" fill="#2b0b09" d="M 102.5,115.5 C 102.5,115.167 102.5,114.833 102.5,114.5C 106.833,114.5 111.167,114.5 115.5,114.5C 117.167,116.5 118.833,118.5 120.5,120.5C 119.796,122.344 118.463,122.844 116.5,122C 112.95,117.391 108.283,115.224 102.5,115.5 Z"/></g>
<g><path style="opacity:1" fill="#7c6565" d="M 183.5,135.5 C 183.5,135.833 183.5,136.167 183.5,136.5C 182.833,136.5 182.5,136.167 182.5,135.5C 182.828,124.654 182.494,113.987 181.5,103.5C 181.987,102.527 182.487,101.527 183,100.5C 183.5,112.162 183.667,123.829 183.5,135.5 Z"/></g>
<g><path style="opacity:0.999" fill="#3e0e0f" d="M 58.5,101.5 C 59.2471,104.362 60.9138,106.362 63.5,107.5C 68.0527,111.597 72.386,115.93 76.5,120.5C 77.5,121.833 78.5,123.167 79.5,124.5C 80.3065,125.728 81.3065,126.728 82.5,127.5C 81.8826,127.611 81.3826,127.944 81,128.5C 72.8333,120.333 64.6667,112.167 56.5,104C 57.0659,103.005 57.7326,102.172 58.5,101.5 Z"/></g>
<g><path style="opacity:1" fill="#b62b2b" d="M 287.5,115.5 C 293.188,114.531 296.188,116.864 296.5,122.5C 293.5,122.5 290.5,122.5 287.5,122.5C 287.5,120.167 287.5,117.833 287.5,115.5 Z"/></g>
<g><path style="opacity:1" fill="#dc1818" d="M 135.5,137.5 C 135.5,138.167 135.5,138.833 135.5,139.5C 135.5,142.167 135.5,144.833 135.5,147.5C 135.197,152.43 135.531,157.263 136.5,162C 166.498,162.5 196.498,162.667 226.5,162.5C 229.167,162.5 231.833,162.5 234.5,162.5C 244.015,162.827 253.348,162.494 262.5,161.5C 262.839,147.304 263.839,133.304 265.5,119.5C 266.477,122.287 266.81,125.287 266.5,128.5C 266.667,140.838 266.5,153.171 266,165.5C 265.329,166.252 264.496,166.586 263.5,166.5C 219.5,166.5 175.5,166.5 131.5,166.5C 131.5,164.833 131.5,163.167 131.5,161.5C 131.5,148.167 131.5,134.833 131.5,121.5C 131.5,120.5 131.5,119.5 131.5,118.5C 132.833,118.5 134.167,118.5 135.5,118.5C 135.5,124.833 135.5,131.167 135.5,137.5 Z"/></g>
<g><path style="opacity:1" fill="#972323" d="M 262.5,121.5 C 258.76,120.741 257.093,122.241 257.5,126C 257.014,129.887 258.681,131.72 262.5,131.5C 262.5,134.5 262.5,137.5 262.5,140.5C 260.408,140.561 258.908,141.561 258,143.5C 257.324,148.871 257.491,154.204 258.5,159.5C 259.959,159.567 261.292,159.234 262.5,158.5C 262.5,159.5 262.5,160.5 262.5,161.5C 260.167,161.5 257.833,161.5 255.5,161.5C 255.24,154.443 255.573,147.443 256.5,140.5C 257.756,138.059 257.756,135.726 256.5,133.5C 256.586,132.504 256.252,131.671 255.5,131C 256.293,127.589 256.793,124.089 257,120.5C 258.441,119.74 259.941,119.074 261.5,118.5C 262.386,119.325 262.719,120.325 262.5,121.5 Z"/></g>
<g><path style="opacity:1" fill="#461111" d="M 181.5,103.5 C 182.494,113.987 182.828,124.654 182.5,135.5C 181.883,135.389 181.383,135.056 181,134.5C 180.5,125.506 180.334,116.506 180.5,107.5C 180.833,106.167 181.167,104.833 181.5,103.5 Z"/></g>
<g><path style="opacity:1" fill="#b72b2b" d="M 82.5,82.5 C 83.3753,93.9717 83.7087,105.472 83.5,117C 83.5922,119.821 82.9256,122.321 81.5,124.5C 80.8333,124.5 80.1667,124.5 79.5,124.5C 78.5,123.167 77.5,121.833 76.5,120.5C 78.1172,121.038 79.7839,121.371 81.5,121.5C 81.4052,108.298 81.7385,95.298 82.5,82.5 Z"/></g>
<g><path style="opacity:1" fill="#741b1b" d="M 157.5,112.5 C 159.593,114.471 161.26,116.804 162.5,119.5C 163.958,120.782 165.292,120.782 166.5,119.5C 168.167,119.5 169.833,119.5 171.5,119.5C 167.203,124.402 162.537,124.736 157.5,120.5C 157.5,117.833 157.5,115.167 157.5,112.5 Z"/></g>
<g><path style="opacity:1" fill="#a42727" d="M 177.5,115.5 C 177.334,122.841 177.5,130.174 178,137.5C 181.579,140.373 184.745,140.04 187.5,136.5C 188.167,136.5 188.833,136.5 189.5,136.5C 189.703,138.39 189.037,139.89 187.5,141C 183.448,143.189 179.948,142.689 177,139.5C 175.17,133.21 174.67,126.877 175.5,120.5C 172.412,120.197 170.746,121.53 170.5,124.5C 165.959,126.103 161.626,125.77 157.5,123.5C 157.5,122.5 157.5,121.5 157.5,120.5C 162.537,124.736 167.203,124.402 171.5,119.5C 172.978,119.762 174.311,119.429 175.5,118.5C 175.942,117.261 176.609,116.261 177.5,115.5 Z"/></g>
<g><path style="opacity:1" fill="#701919" d="M 102.5,115.5 C 108.283,115.224 112.95,117.391 116.5,122C 118.463,122.844 119.796,122.344 120.5,120.5C 121.5,121.167 122.5,121.833 123.5,122.5C 123.735,123.097 124.235,123.43 125,123.5C 126.921,121.997 129.088,121.331 131.5,121.5C 131.5,134.833 131.5,148.167 131.5,161.5C 130.505,149.345 130.171,137.011 130.5,124.5C 129.458,123.209 128.292,123.209 127,124.5C 126.333,138.5 126.333,152.5 127,166.5C 128.188,167.563 128.688,168.897 128.5,170.5C 127.662,170.842 127.328,171.508 127.5,172.5C 124.833,170.5 122.5,168.167 120.5,165.5C 122.044,165.703 123.378,166.37 124.5,167.5C 125.666,153.846 125.833,140.179 125,126.5C 122.26,125.718 119.426,125.218 116.5,125C 112.986,120.41 108.319,118.244 102.5,118.5C 102.5,117.5 102.5,116.5 102.5,115.5 Z"/></g>
<g><path style="opacity:1" fill="#651918" d="M 180.5,107.5 C 180.334,116.506 180.5,125.506 181,134.5C 181.383,135.056 181.883,135.389 182.5,135.5C 182.5,136.167 182.833,136.5 183.5,136.5C 184.833,136.5 186.167,136.5 187.5,136.5C 184.745,140.04 181.579,140.373 178,137.5C 177.5,130.174 177.334,122.841 177.5,115.5C 177.98,112.557 178.98,109.89 180.5,107.5 Z"/></g>
<g><path style="opacity:1" fill="#5f1616" d="M 262.5,121.5 C 262.5,124.833 262.5,128.167 262.5,131.5C 258.681,131.72 257.014,129.887 257.5,126C 257.093,122.241 258.76,120.741 262.5,121.5 Z"/></g>
<g><path style="opacity:1" fill="#430f0f" d="M 130.5,124.5 C 130.171,137.011 130.505,149.345 131.5,161.5C 131.5,163.167 131.5,164.833 131.5,166.5C 132.568,167.434 133.901,167.768 135.5,167.5C 132.053,169.293 129.553,168.293 128,164.5C 127.333,151.5 127.333,138.5 128,125.5C 128.671,124.748 129.504,124.414 130.5,124.5 Z"/></g>
<g><path style="opacity:1" fill="#e2dbdb" d="M 244.5,70.5 C 247.833,70.5 251.167,70.5 254.5,70.5C 254.649,71.552 254.483,72.552 254,73.5C 252.211,71.771 250.044,71.1043 247.5,71.5C 249.157,89.4041 248.823,107.237 246.5,125C 246.538,128.888 247.704,129.388 250,126.5C 250.464,127.094 250.631,127.761 250.5,128.5C 249.833,129.5 249.167,130.5 248.5,131.5C 245.226,133.97 241.559,135.636 237.5,136.5C 235.5,136.5 233.5,136.5 231.5,136.5C 222.489,133.474 217.489,127.141 216.5,117.5C 216.333,103.496 216.5,89.496 217,75.5C 217.915,90.5196 219.081,105.52 220.5,120.5C 222.637,121.738 223.971,123.571 224.5,126C 226.473,126.495 228.473,126.662 230.5,126.5C 230.074,124.861 230.074,123.528 230.5,122.5C 232.5,122.5 234.5,122.5 236.5,122.5C 237.167,122.5 237.833,122.5 238.5,122.5C 241.843,120.492 243.676,117.492 244,113.5C 244.5,99.1705 244.667,84.8372 244.5,70.5 Z"/></g>
<g><path style="opacity:1" fill="#db3333" d="M 228.5,152.5 C 226.766,154.683 225.766,157.35 225.5,160.5C 225.863,161.183 226.196,161.85 226.5,162.5C 196.498,162.667 166.498,162.5 136.5,162C 135.531,157.263 135.197,152.43 135.5,147.5C 139.21,149.785 142.71,152.452 146,155.5C 146.483,156.448 146.649,157.448 146.5,158.5C 148.986,159.129 151.319,160.129 153.5,161.5C 156.603,161.798 158.27,160.465 158.5,157.5C 160.764,158.219 163.097,158.552 165.5,158.5C 165.719,157.325 165.386,156.325 164.5,155.5C 159.452,151.119 154.785,146.452 150.5,141.5C 153.484,141.213 154.817,139.546 154.5,136.5C 155.5,136.5 156.5,136.5 157.5,136.5C 157.5,132.167 157.5,127.833 157.5,123.5C 161.626,125.77 165.959,126.103 170.5,124.5C 170.746,121.53 172.412,120.197 175.5,120.5C 174.67,126.877 175.17,133.21 177,139.5C 179.948,142.689 183.448,143.189 187.5,141C 189.037,139.89 189.703,138.39 189.5,136.5C 191.167,136.5 192.833,136.5 194.5,136.5C 194.5,117.5 194.5,98.5 194.5,79.5C 195.925,82.9032 196.758,86.5698 197,90.5C 197.5,89.5 198,88.5 198.5,87.5C 196.839,84.2299 196.506,80.8965 197.5,77.5C 198.192,78.0253 198.692,78.6919 199,79.5C 199.495,77.5273 199.662,75.5273 199.5,73.5C 201.5,73.5 203.5,73.5 205.5,73.5C 206.092,79.9575 205.092,80.6242 202.5,75.5C 202.167,76 201.833,76.5 201.5,77C 203.705,81.9763 204.538,87.143 204,92.5C 203.261,90.7795 202.427,89.1128 201.5,87.5C 201.167,88 200.833,88.5 200.5,89C 201.736,90.8556 201.736,92.6889 200.5,94.5C 201.391,95.5896 202.391,95.5896 203.5,94.5C 204.466,96.396 204.799,98.396 204.5,100.5C 198.91,98.6128 198.243,99.6128 202.5,103.5C 198.89,105.712 199.557,106.712 204.5,106.5C 204.786,109.834 204.786,113 204.5,116C 207.095,121.483 206.761,126.983 203.5,132.5C 204.189,134.444 204.689,136.444 205,138.5C 205.822,136.212 206.489,133.878 207,131.5C 207.703,133.78 208.869,135.78 210.5,137.5C 209.167,137.833 207.833,138.167 206.5,138.5C 207.019,142.449 207.186,146.449 207,150.5C 207.333,150.833 207.667,151.167 208,151.5C 208.192,149.423 208.692,147.423 209.5,145.5C 210.396,146.506 211.062,146.506 211.5,145.5C 210.05,144.15 209.383,142.484 209.5,140.5C 211.288,140.215 212.955,140.548 214.5,141.5C 214.309,143.804 214.643,146.138 215.5,148.5C 218.004,148.828 219.838,150.162 221,152.5C 221.692,151.975 222.192,151.308 222.5,150.5C 220.614,149.07 218.947,147.403 217.5,145.5C 217.919,144.328 218.585,143.328 219.5,142.5C 220.736,143.246 222.07,143.579 223.5,143.5C 223.351,144.552 223.517,145.552 224,146.5C 226.434,144.977 229.101,143.977 232,143.5C 233.365,144.593 233.699,145.926 233,147.5C 231.594,146.332 230.428,146.665 229.5,148.5C 228.833,147.833 228.167,147.167 227.5,146.5C 227.167,147 226.833,147.5 226.5,148C 227.707,149.3 228.374,150.8 228.5,152.5 Z"/></g>
<g><path style="opacity:1" fill="#cf3131" d="M 210.5,66.5 C 209.402,67.397 209.402,68.2303 210.5,69C 211.944,69.7805 213.277,69.6139 214.5,68.5C 213.494,67.6043 213.494,66.9377 214.5,66.5C 215.981,68.1489 217.648,69.4823 219.5,70.5C 218.167,70.5 216.833,70.5 215.5,70.5C 215.5,71.5 215.5,72.5 215.5,73.5C 212.675,73.1616 210.508,74.1616 209,76.5C 207.609,92.4136 207.109,108.247 207.5,124C 209.736,127.145 211.236,130.645 212,134.5C 218.9,141.146 227.067,143.646 236.5,142C 237.973,142.71 238.64,143.876 238.5,145.5C 237.662,145.842 237.328,146.508 237.5,147.5C 234.752,149.572 231.752,151.239 228.5,152.5C 228.374,150.8 227.707,149.3 226.5,148C 226.833,147.5 227.167,147 227.5,146.5C 228.167,147.167 228.833,147.833 229.5,148.5C 230.428,146.665 231.594,146.332 233,147.5C 233.699,145.926 233.365,144.593 232,143.5C 229.101,143.977 226.434,144.977 224,146.5C 223.517,145.552 223.351,144.552 223.5,143.5C 222.07,143.579 220.736,143.246 219.5,142.5C 218.585,143.328 217.919,144.328 217.5,145.5C 218.947,147.403 220.614,149.07 222.5,150.5C 222.192,151.308 221.692,151.975 221,152.5C 219.838,150.162 218.004,148.828 215.5,148.5C 214.643,146.138 214.309,143.804 214.5,141.5C 212.955,140.548 211.288,140.215 209.5,140.5C 209.383,142.484 210.05,144.15 211.5,145.5C 211.062,146.506 210.396,146.506 209.5,145.5C 208.692,147.423 208.192,149.423 208,151.5C 207.667,151.167 207.333,150.833 207,150.5C 207.186,146.449 207.019,142.449 206.5,138.5C 207.833,138.167 209.167,137.833 210.5,137.5C 208.869,135.78 207.703,133.78 207,131.5C 206.489,133.878 205.822,136.212 205,138.5C 204.689,136.444 204.189,134.444 203.5,132.5C 206.761,126.983 207.095,121.483 204.5,116C 204.786,113 204.786,109.834 204.5,106.5C 199.557,106.712 198.89,105.712 202.5,103.5C 198.243,99.6128 198.91,98.6128 204.5,100.5C 204.799,98.396 204.466,96.396 203.5,94.5C 202.391,95.5896 201.391,95.5896 200.5,94.5C 201.736,92.6889 201.736,90.8556 200.5,89C 200.833,88.5 201.167,88 201.5,87.5C 202.427,89.1128 203.261,90.7795 204,92.5C 204.538,87.143 203.705,81.9763 201.5,77C 201.833,76.5 202.167,76 202.5,75.5C 205.092,80.6242 206.092,79.9575 205.5,73.5C 203.5,73.5 201.5,73.5 199.5,73.5C 199.662,75.5273 199.495,77.5273 199,79.5C 198.692,78.6919 198.192,78.0253 197.5,77.5C 196.506,80.8965 196.839,84.2299 198.5,87.5C 198,88.5 197.5,89.5 197,90.5C 196.758,86.5698 195.925,82.9032 194.5,79.5C 194.5,77.8333 194.5,76.1667 194.5,74.5C 199.636,71.2652 204.969,68.5986 210.5,66.5 Z"/></g>
<g><path style="opacity:1" fill="#a52d2c" d="M 102.5,114.5 C 102.5,114.833 102.5,115.167 102.5,115.5C 102.5,116.5 102.5,117.5 102.5,118.5C 108.319,118.244 112.986,120.41 116.5,125C 119.426,125.218 122.26,125.718 125,126.5C 125.833,140.179 125.666,153.846 124.5,167.5C 123.378,166.37 122.044,165.703 120.5,165.5C 118.167,163.833 116.167,161.833 114.5,159.5C 117.075,160.728 119.408,162.395 121.5,164.5C 123.214,152.181 123.548,139.847 122.5,127.5C 116.989,127.825 112.323,125.991 108.5,122C 106.564,121.187 104.564,120.687 102.5,120.5C 102.821,126.026 102.488,131.36 101.5,136.5C 101.5,136.167 101.5,135.833 101.5,135.5C 101.175,128.313 101.509,121.313 102.5,114.5 Z"/></g>
<g><path style="opacity:1" fill="#da1717" d="M 256.5,133.5 C 257.756,135.726 257.756,138.059 256.5,140.5C 250.702,145.797 245.035,151.297 239.5,157C 238.5,157.167 237.5,157.333 236.5,157.5C 234.97,157.36 233.97,156.693 233.5,155.5C 239.278,149.395 244.945,143.395 250.5,137.5C 251.833,137.5 252.5,136.833 252.5,135.5C 253.605,134.4 254.938,133.733 256.5,133.5 Z"/></g>
<g><path style="opacity:1" fill="#d63333" d="M 114.5,159.5 C 107.825,152.791 101.158,146.124 94.5,139.5C 93.8902,138.609 93.5569,137.609 93.5,136.5C 96.1667,136.5 98.8333,136.5 101.5,136.5C 102.488,131.36 102.821,126.026 102.5,120.5C 104.564,120.687 106.564,121.187 108.5,122C 112.323,125.991 116.989,127.825 122.5,127.5C 123.548,139.847 123.214,152.181 121.5,164.5C 119.408,162.395 117.075,160.728 114.5,159.5 Z"/></g>
<g><path style="opacity:1" fill="#9f1817" d="M 141.5,136.5 C 144.288,139.075 146.955,139.075 149.5,136.5C 151.167,136.5 152.833,136.5 154.5,136.5C 154.817,139.546 153.484,141.213 150.5,141.5C 148.214,141.595 146.214,142.262 144.5,143.5C 143.167,142.5 141.833,141.5 140.5,140.5C 138.825,138.544 139.158,137.211 141.5,136.5 Z"/></g>
<g><path style="opacity:1" fill="#631616" d="M 269.5,87.5 C 270.79,88.0577 271.623,89.0577 272,90.5C 273.455,97.4436 273.788,104.444 273,111.5C 269.739,114.869 268.739,118.869 270,123.5C 271.017,121.624 271.851,119.624 272.5,117.5C 273.952,120.282 273.619,122.782 271.5,125C 272,125.5 272.5,126 273,126.5C 273.498,129.817 273.665,133.15 273.5,136.5C 274.5,136.5 275.5,136.5 276.5,136.5C 283.833,136.5 291.167,136.5 298.5,136.5C 298.389,137.117 298.056,137.617 297.5,138C 295.153,138.436 292.819,138.936 290.5,139.5C 284.613,138.899 278.78,138.232 273,137.5C 271.847,134.289 271.18,130.956 271,127.5C 268.747,126.39 267.581,124.557 267.5,122C 270.569,110.651 271.236,99.151 269.5,87.5 Z"/></g>
<g><path style="opacity:1" fill="#a32727" d="M 215.5,73.5 C 215.5,73.8333 215.5,74.1667 215.5,74.5C 212.27,74.561 210.437,76.2277 210,79.5C 209.333,92.8333 209.333,106.167 210,119.5C 210.452,122.877 211.118,126.211 212,129.5C 214.833,131.97 217.333,134.803 219.5,138C 225.407,139.361 231.407,139.861 237.5,139.5C 237.5,138.5 237.5,137.5 237.5,136.5C 241.559,135.636 245.226,133.97 248.5,131.5C 250.041,132.667 251.375,134 252.5,135.5C 252.5,136.833 251.833,137.5 250.5,137.5C 250.103,136.475 249.437,136.308 248.5,137C 245.588,140.419 242.254,143.252 238.5,145.5C 238.64,143.876 237.973,142.71 236.5,142C 227.067,143.646 218.9,141.146 212,134.5C 211.236,130.645 209.736,127.145 207.5,124C 207.109,108.247 207.609,92.4136 209,76.5C 210.508,74.1616 212.675,73.1616 215.5,73.5 Z"/></g>
<g><path style="opacity:1" fill="#ba2e2d" d="M 312.5,125.5 C 312.714,127.144 312.38,128.644 311.5,130C 312.094,130.464 312.761,130.631 313.5,130.5C 308.446,136.221 303.113,141.554 297.5,146.5C 297.5,145.167 297.5,143.833 297.5,142.5C 289.648,142.825 281.982,142.492 274.5,141.5C 280.509,141.666 286.509,141.499 292.5,141C 296.035,140.337 299.035,138.837 301.5,136.5C 303.463,135.18 305.463,133.846 307.5,132.5C 309.412,130.343 311.079,128.009 312.5,125.5 Z"/></g>
<g><path style="opacity:1" fill="#370d0c" d="M 140.5,140.5 C 141.833,141.5 143.167,142.5 144.5,143.5C 148.5,148.167 152.833,152.5 157.5,156.5C 154.803,158.925 151.803,158.925 148.5,156.5C 147.203,153.369 145.036,151.036 142,149.5C 141.31,147.285 140.476,145.118 139.5,143C 139.528,141.93 139.861,141.097 140.5,140.5 Z"/></g>
<g><path style="opacity:1" fill="#db1818" d="M 150.5,141.5 C 154.785,146.452 159.452,151.119 164.5,155.5C 165.386,156.325 165.719,157.325 165.5,158.5C 163.097,158.552 160.764,158.219 158.5,157.5C 158.5,156.833 158.167,156.5 157.5,156.5C 152.833,152.5 148.5,148.167 144.5,143.5C 146.214,142.262 148.214,141.595 150.5,141.5 Z"/></g>
<g><path style="opacity:1" fill="#681717" d="M 250.5,137.5 C 244.945,143.395 239.278,149.395 233.5,155.5C 232.596,156.209 232.263,157.209 232.5,158.5C 234.179,158.285 235.179,158.952 235.5,160.5C 233.856,160.714 232.356,160.38 231,159.5C 230.503,157.19 230.337,154.857 230.5,152.5C 233.643,152.031 235.977,150.364 237.5,147.5C 237.328,146.508 237.662,145.842 238.5,145.5C 242.254,143.252 245.588,140.419 248.5,137C 249.437,136.308 250.103,136.475 250.5,137.5 Z"/></g>
<g><path style="opacity:1" fill="#591515" d="M 262.5,140.5 C 262.5,146.5 262.5,152.5 262.5,158.5C 261.292,159.234 259.959,159.567 258.5,159.5C 257.491,154.204 257.324,148.871 258,143.5C 258.908,141.561 260.408,140.561 262.5,140.5 Z"/></g>
<g><path style="opacity:1" fill="#c72d2d" d="M 256.5,140.5 C 255.573,147.443 255.24,154.443 255.5,161.5C 257.833,161.5 260.167,161.5 262.5,161.5C 253.348,162.494 244.015,162.827 234.5,162.5C 234.833,161.833 235.167,161.167 235.5,160.5C 235.179,158.952 234.179,158.285 232.5,158.5C 232.263,157.209 232.596,156.209 233.5,155.5C 233.97,156.693 234.97,157.36 236.5,157.5C 237.5,157.333 238.5,157.167 239.5,157C 245.035,151.297 250.702,145.797 256.5,140.5 Z"/></g>
<g><path style="opacity:1" fill="#3c0e0e" d="M 94.5,139.5 C 101.158,146.124 107.825,152.791 114.5,159.5C 116.167,161.833 118.167,163.833 120.5,165.5C 122.5,168.167 124.833,170.5 127.5,172.5C 128.5,174.167 129.833,175.5 131.5,176.5C 137.936,183.602 144.602,190.269 151.5,196.5C 151.5,196.833 151.5,197.167 151.5,197.5C 150.5,197.5 149.5,197.5 148.5,197.5C 130.006,178.84 111.673,160.006 93.5,141C 94.056,140.617 94.3893,140.117 94.5,139.5 Z"/></g>
<g><path style="opacity:1" fill="#a72626" d="M 237.5,147.5 C 235.977,150.364 233.643,152.031 230.5,152.5C 230.337,154.857 230.503,157.19 231,159.5C 232.356,160.38 233.856,160.714 235.5,160.5C 235.167,161.167 234.833,161.833 234.5,162.5C 231.833,162.5 229.167,162.5 226.5,162.5C 226.196,161.85 225.863,161.183 225.5,160.5C 225.766,157.35 226.766,154.683 228.5,152.5C 231.752,151.239 234.752,149.572 237.5,147.5 Z"/></g>
<g><path style="opacity:1" fill="#8a1b1b" d="M 131.5,166.5 C 175.5,166.5 219.5,166.5 263.5,166.5C 264.686,167.961 264.686,169.295 263.5,170.5C 257.138,172.05 250.638,172.717 244,172.5C 238.988,172.499 234.155,172.166 229.5,171.5C 233.833,171.5 238.167,171.5 242.5,171.5C 248.452,170.752 254.452,170.252 260.5,170C 260.957,169.586 261.291,169.086 261.5,168.5C 250.186,167.501 238.853,167.168 227.5,167.5C 212.818,167.167 198.152,167.501 183.5,168.5C 184.912,169.806 186.579,170.64 188.5,171C 195.5,171.333 202.5,171.667 209.5,172C 210.731,173.183 210.731,174.349 209.5,175.5C 207.286,178.181 204.786,180.515 202,182.5C 201.235,184.066 201.402,185.399 202.5,186.5C 200.815,189.855 198.815,190.189 196.5,187.5C 196.34,185.801 196.506,184.134 197,182.5C 197.333,183.5 197.667,184.5 198,185.5C 200.962,181.119 204.462,177.286 208.5,174C 199.608,172.557 190.608,172.057 181.5,172.5C 179.283,171.631 176.95,171.298 174.5,171.5C 175.234,170.292 175.567,168.959 175.5,167.5C 162.167,167.5 148.833,167.5 135.5,167.5C 133.901,167.768 132.568,167.434 131.5,166.5 Z"/></g>
<g><path style="opacity:1" fill="#5a1515" d="M 130.5,124.5 C 129.504,124.414 128.671,124.748 128,125.5C 127.333,138.5 127.333,151.5 128,164.5C 129.553,168.293 132.053,169.293 135.5,167.5C 148.833,167.5 162.167,167.5 175.5,167.5C 175.567,168.959 175.234,170.292 174.5,171.5C 173.957,171.56 173.624,171.893 173.5,172.5C 174.193,173.518 174.859,174.518 175.5,175.5C 174.325,175.281 173.325,175.614 172.5,176.5C 173.333,178.167 174.167,179.833 175,181.5C 180.369,187.036 185.869,192.37 191.5,197.5C 190.167,197.5 188.833,197.5 187.5,197.5C 182.719,191.947 177.719,186.614 172.5,181.5C 171.351,178.203 170.017,175.037 168.5,172C 155.142,171.759 141.808,171.259 128.5,170.5C 128.688,168.897 128.188,167.563 127,166.5C 126.333,152.5 126.333,138.5 127,124.5C 128.292,123.209 129.458,123.209 130.5,124.5 Z"/></g>
<g><path style="opacity:1" fill="#551414" d="M 227.5,167.5 C 238.853,167.168 250.186,167.501 261.5,168.5C 261.291,169.086 260.957,169.586 260.5,170C 254.452,170.252 248.452,170.752 242.5,171.5C 237.627,170.057 232.627,168.723 227.5,167.5 Z"/></g>
<g><path style="opacity:1" fill="#942323" d="M 128.5,170.5 C 141.808,171.259 155.142,171.759 168.5,172C 170.017,175.037 171.351,178.203 172.5,181.5C 177.719,186.614 182.719,191.947 187.5,197.5C 186.167,197.5 184.833,197.5 183.5,197.5C 181.333,194.283 178.999,191.283 176.5,188.5C 175.266,185.593 173.266,183.259 170.5,181.5C 169.208,179.333 168.375,177 168,174.5C 167.25,173.874 166.416,173.374 165.5,173C 154.172,172.5 142.838,172.333 131.5,172.5C 131.5,173.833 131.5,175.167 131.5,176.5C 129.833,175.5 128.5,174.167 127.5,172.5C 127.328,171.508 127.662,170.842 128.5,170.5 Z"/></g>
<g><path style="opacity:1" fill="#6a1818" d="M 227.5,167.5 C 232.627,168.723 237.627,170.057 242.5,171.5C 238.167,171.5 233.833,171.5 229.5,171.5C 227.012,170.114 224.345,169.114 221.5,168.5C 219.583,168.754 218.249,169.754 217.5,171.5C 212.167,176.167 207.167,181.167 202.5,186.5C 201.402,185.399 201.235,184.066 202,182.5C 204.786,180.515 207.286,178.181 209.5,175.5C 210.731,174.349 210.731,173.183 209.5,172C 202.5,171.667 195.5,171.333 188.5,171C 186.579,170.64 184.912,169.806 183.5,168.5C 198.152,167.501 212.818,167.167 227.5,167.5 Z"/></g>
<g><path style="opacity:1" fill="#da3333" d="M 266.5,128.5 C 267.222,128.918 267.722,129.584 268,130.5C 268.548,134.17 269.048,137.837 269.5,141.5C 271.167,141.5 272.833,141.5 274.5,141.5C 281.982,142.492 289.648,142.825 297.5,142.5C 297.5,143.833 297.5,145.167 297.5,146.5C 280.167,163.167 263.167,180.167 246.5,197.5C 230.833,197.5 215.167,197.5 199.5,197.5C 207.527,188.806 215.86,180.473 224.5,172.5C 236,174.184 247.667,174.351 259.5,173C 261.437,172.878 262.77,172.045 263.5,170.5C 264.686,169.295 264.686,167.961 263.5,166.5C 264.496,166.586 265.329,166.252 266,165.5C 266.5,153.171 266.667,140.838 266.5,128.5 Z"/></g>
<g><path style="opacity:1" fill="#da1717" d="M 174.5,171.5 C 176.95,171.298 179.283,171.631 181.5,172.5C 186.194,177.86 191.194,182.86 196.5,187.5C 198.815,190.189 200.815,189.855 202.5,186.5C 207.167,181.167 212.167,176.167 217.5,171.5C 220.059,171.198 222.393,171.532 224.5,172.5C 215.86,180.473 207.527,188.806 199.5,197.5C 198.833,197.5 198.167,197.5 197.5,197.5C 190.5,189.833 183.167,182.5 175.5,175.5C 174.859,174.518 174.193,173.518 173.5,172.5C 173.624,171.893 173.957,171.56 174.5,171.5 Z"/></g>
<g><path style="opacity:1" fill="#aa2727" d="M 229.5,171.5 C 234.155,172.166 238.988,172.499 244,172.5C 250.638,172.717 257.138,172.05 263.5,170.5C 262.77,172.045 261.437,172.878 259.5,173C 247.667,174.351 236,174.184 224.5,172.5C 222.393,171.532 220.059,171.198 217.5,171.5C 218.249,169.754 219.583,168.754 221.5,168.5C 224.345,169.114 227.012,170.114 229.5,171.5 Z"/></g>
<g><path style="opacity:1" fill="#c22e2e" d="M 176.5,188.5 C 170.729,185.639 167.062,181.139 165.5,175C 162.5,174.833 159.5,174.667 156.5,174.5C 152.972,174.589 149.638,175.256 146.5,176.5C 143.562,175.425 140.562,175.259 137.5,176C 138.696,176.654 138.696,177.154 137.5,177.5C 136.146,175.816 134.479,175.316 132.5,176C 134.737,178.577 137.237,180.744 140,182.5C 140.308,181.692 140.808,181.025 141.5,180.5C 142.281,181.729 142.781,183.062 143,184.5C 145.449,186.463 147.449,188.796 149,191.5C 150.6,188.666 151.766,185.666 152.5,182.5C 152.833,183.167 153.167,183.833 153.5,184.5C 152.698,187.574 151.698,190.574 150.5,193.5C 150.685,194.584 151.018,195.584 151.5,196.5C 144.602,190.269 137.936,183.602 131.5,176.5C 131.5,175.167 131.5,173.833 131.5,172.5C 142.838,172.333 154.172,172.5 165.5,173C 166.416,173.374 167.25,173.874 168,174.5C 168.375,177 169.208,179.333 170.5,181.5C 173.266,183.259 175.266,185.593 176.5,188.5 Z"/></g>
<g><path style="opacity:1" fill="#dd3434" d="M 176.5,188.5 C 178.999,191.283 181.333,194.283 183.5,197.5C 172.833,197.5 162.167,197.5 151.5,197.5C 151.5,197.167 151.5,196.833 151.5,196.5C 151.018,195.584 150.685,194.584 150.5,193.5C 151.698,190.574 152.698,187.574 153.5,184.5C 153.167,183.833 152.833,183.167 152.5,182.5C 151.766,185.666 150.6,188.666 149,191.5C 147.449,188.796 145.449,186.463 143,184.5C 142.781,183.062 142.281,181.729 141.5,180.5C 140.808,181.025 140.308,181.692 140,182.5C 137.237,180.744 134.737,178.577 132.5,176C 134.479,175.316 136.146,175.816 137.5,177.5C 138.696,177.154 138.696,176.654 137.5,176C 140.562,175.259 143.562,175.425 146.5,176.5C 149.638,175.256 152.972,174.589 156.5,174.5C 159.5,174.667 162.5,174.833 165.5,175C 167.062,181.139 170.729,185.639 176.5,188.5 Z"/></g>
<g><path style="opacity:1" fill="#d43232" d="M 181.5,172.5 C 190.608,172.057 199.608,172.557 208.5,174C 204.462,177.286 200.962,181.119 198,185.5C 197.667,184.5 197.333,183.5 197,182.5C 196.506,184.134 196.34,185.801 196.5,187.5C 191.194,182.86 186.194,177.86 181.5,172.5 Z"/></g>
<g><path style="opacity:1" fill="#310c0b" d="M 175.5,175.5 C 183.167,182.5 190.5,189.833 197.5,197.5C 195.5,197.5 193.5,197.5 191.5,197.5C 185.869,192.37 180.369,187.036 175,181.5C 174.167,179.833 173.333,178.167 172.5,176.5C 173.325,175.614 174.325,175.281 175.5,175.5 Z"/></g>
</svg>
