<?xml version="1.0" encoding="UTF-8"?>
<!DOCTYPE svg PUBLIC "-//W3C//DTD SVG 1.1//EN" "http://www.w3.org/Graphics/SVG/1.1/DTD/svg11.dtd">
<svg xmlns="http://www.w3.org/2000/svg" version="1.1" width="400px" height="198px" style="shape-rendering:geometricPrecision; text-rendering:geometricPrecision; image-rendering:optimizeQuality; fill-rule:evenodd; clip-rule:evenodd" xmlns:xlink="http://www.w3.org/1999/xlink">
<g><path style="opacity:0.153" fill="#0d0003" d="M 7.5,36.5 C 8.77329,37.0768 8.77329,37.7435 7.5,38.5C 6.53705,38.0302 6.53705,37.3635 7.5,36.5 Z"/></g>
<g><path style="opacity:0.078" fill="#0a020d" d="M 4.5,44.5 C 3.42654,43.7494 3.25988,42.7494 4,41.5C 4.48278,42.448 4.64945,43.448 4.5,44.5 Z"/></g>
<g><path style="opacity:0.153" fill="#100504" d="M 394.5,45.5 C 265.833,45.5 137.167,45.5 8.5,45.5C 8.5,45.1667 8.5,44.8333 8.5,44.5C 134.403,44.8323 260.237,44.4989 386,43.5C 388.939,44.1281 391.772,44.7948 394.5,45.5 Z"/></g>
<g><path style="opacity:0.269" fill="#0a000e" d="M 0.5,151.5 C 2.85187,152.543 3.01854,153.876 1,155.5C 0.50999,154.207 0.343323,152.873 0.5,151.5 Z"/></g>
<g><path style="opacity:0.269" fill="#0a000e" d="M 399.5,151.5 C 399.5,152.833 399.5,154.167 399.5,155.5C 396.833,154.167 396.833,152.833 399.5,151.5 Z"/></g>
<g><path style="opacity:0.078" fill="#09000b" d="M 1.5,157.5 C 2.83333,158.167 2.83333,158.167 1.5,157.5 Z"/></g>
<g><path style="opacity:0.616" fill="#1c0a0a" d="M 4.5,44.5 C 5.83333,44.5 7.16667,44.5 8.5,44.5C 8.5,44.8333 8.5,45.1667 8.5,45.5C 7.20895,45.2627 6.20895,45.596 5.5,46.5C 4.16667,83.1667 4.16667,119.833 5.5,156.5C 135.167,157.833 264.833,157.833 394.5,156.5C 395.498,119.67 395.832,82.6704 395.5,45.5C 396.419,47.3908 397.086,50.0575 397.5,53.5C 396.843,88.382 396.176,123.215 395.5,158C 392.475,158.361 389.475,158.861 386.5,159.5C 262.167,158.167 137.833,158.167 13.5,159.5C 10.2651,158.969 7.09847,158.302 4,157.5C 3.17356,119.762 3.34022,82.0954 4.5,44.5 Z"/></g>
<g><path style="opacity:1" fill="#b63631" d="M 393.5,47.5 C 393.833,47.5 394.167,47.5 394.5,47.5C 394.5,83.8333 394.5,120.167 394.5,156.5C 264.833,157.833 135.167,157.833 5.5,156.5C 5.17075,141.99 5.50408,127.657 6.5,113.5C 6.5,127.5 6.5,141.5 6.5,155.5C 135.5,155.5 264.5,155.5 393.5,155.5C 393.5,120.167 393.5,84.8333 393.5,49.5C 393.5,48.8333 393.5,48.1667 393.5,47.5 Z"/></g>
<g><path style="opacity:1" fill="#fe4d47" d="M 393.5,49.5 C 393.5,84.8333 393.5,120.167 393.5,155.5C 264.5,155.5 135.5,155.5 6.5,155.5C 6.5,141.5 6.5,127.5 6.5,113.5C 8.31833,126.128 9.15166,139.128 9,152.5C 10.1939,153.43 11.5272,154.097 13,154.5C 137.667,153.167 262.333,153.167 387,154.5C 388.473,154.097 389.806,153.43 391,152.5C 391.333,118.5 391.667,84.5 392,50.5C 392.383,49.944 392.883,49.6107 393.5,49.5 Z"/></g>
<g><path style="opacity:1" fill="#ef4845" d="M 393.5,47.5 C 393.5,48.1667 393.5,48.8333 393.5,49.5C 392.883,49.6107 392.383,49.944 392,50.5C 391.667,84.5 391.333,118.5 391,152.5C 389.806,153.43 388.473,154.097 387,154.5C 262.333,153.167 137.667,153.167 13,154.5C 11.5272,154.097 10.1939,153.43 9,152.5C 9.15166,139.128 8.31833,126.128 6.5,113.5C 6.5,91.5 6.5,69.5 6.5,47.5C 135.5,47.5 264.5,47.5 393.5,47.5 Z"/></g>
<g><path style="opacity:1" fill="#671a18" d="M 309.5,74.5 C 312.625,73.5206 315.958,73.1872 319.5,73.5C 319.83,93.6736 319.497,113.674 318.5,133.5C 318.5,113.833 318.5,94.1667 318.5,74.5C 315.5,74.5 312.5,74.5 309.5,74.5 Z"/></g>
<g><path style="opacity:1" fill="#010000" d="M 309.5,74.5 C 312.5,74.5 315.5,74.5 318.5,74.5C 318.5,94.1667 318.5,113.833 318.5,133.5C 315.167,133.5 311.833,133.5 308.5,133.5C 304.387,122.605 299.72,111.939 294.5,101.5C 294.539,100.244 294.039,99.2438 293,98.5C 292.5,110.162 292.333,121.829 292.5,133.5C 289.5,133.5 286.5,133.5 283.5,133.5C 283.5,113.833 283.5,94.1667 283.5,74.5C 286.898,74.1796 290.232,74.513 293.5,75.5C 298.667,86.5 303.833,97.5 309,108.5C 309.5,97.1716 309.667,85.8382 309.5,74.5 Z"/></g>
<g><path style="opacity:1" fill="#962a28" d="M 294.5,101.5 C 293.833,112.167 293.167,122.833 292.5,133.5C 292.333,121.829 292.5,110.162 293,98.5C 294.039,99.2438 294.539,100.244 294.5,101.5 Z"/></g>
<g><path style="opacity:1" fill="#671a18" d="M 253.5,74.5 C 256.625,73.5206 259.958,73.1872 263.5,73.5C 263.83,93.6736 263.497,113.674 262.5,133.5C 262.5,113.833 262.5,94.1667 262.5,74.5C 259.5,74.5 256.5,74.5 253.5,74.5 Z"/></g>
<g><path style="opacity:1" fill="#000000" d="M 253.5,74.5 C 256.5,74.5 259.5,74.5 262.5,74.5C 262.5,94.1667 262.5,113.833 262.5,133.5C 259.5,133.5 256.5,133.5 253.5,133.5C 253.5,113.833 253.5,94.1667 253.5,74.5 Z"/></g>
<g><path style="opacity:1" fill="#010000" d="M 224.5,133.5 C 224.667,122.495 224.5,111.495 224,100.5C 223.283,101.044 222.783,101.711 222.5,102.5C 220.301,107.763 218.301,113.096 216.5,118.5C 213.428,118.817 210.428,118.484 207.5,117.5C 205.492,112.471 203.492,107.471 201.5,102.5C 201.217,101.711 200.717,101.044 200,100.5C 199.5,111.495 199.333,122.495 199.5,133.5C 196.5,133.5 193.5,133.5 190.5,133.5C 190.5,113.833 190.5,94.1667 190.5,74.5C 194.106,74.2108 197.606,74.5442 201,75.5C 204.472,84.2483 208.138,92.9149 212,101.5C 215.862,92.9149 219.528,84.2483 223,75.5C 226.394,74.5442 229.894,74.2108 233.5,74.5C 233.5,94.1667 233.5,113.833 233.5,133.5C 230.5,133.5 227.5,133.5 224.5,133.5 Z"/></g>
<g><path style="opacity:1" fill="#601816" d="M 224.5,133.5 C 223.833,123.167 223.167,112.833 222.5,102.5C 222.783,101.711 223.283,101.044 224,100.5C 224.5,111.495 224.667,122.495 224.5,133.5 Z"/></g>
<g><path style="opacity:1" fill="#601816" d="M 201.5,102.5 C 200.833,112.833 200.167,123.167 199.5,133.5C 199.333,122.495 199.5,111.495 200,100.5C 200.717,101.044 201.217,101.711 201.5,102.5 Z"/></g>
<g><path style="opacity:1" fill="#0b0201" d="M 130.5,74.5 C 161.89,71.721 174.39,85.721 168,116.5C 164.839,125.998 158.339,131.498 148.5,133C 142.509,133.499 136.509,133.666 130.5,133.5C 130.5,113.833 130.5,94.1667 130.5,74.5 Z"/></g>
<g><path style="opacity:1" fill="#ea4744" d="M 140.5,86.5 C 153.588,85.0912 160.254,90.9245 160.5,104C 160.152,117.012 153.485,122.846 140.5,121.5C 140.5,109.833 140.5,98.1667 140.5,86.5 Z"/></g>
<g><path style="opacity:1" fill="#060100" d="M 94.5,75.5 C 100.474,94.727 106.141,114.06 111.5,133.5C 108.102,133.82 104.768,133.487 101.5,132.5C 100.03,128.952 99.0298,125.285 98.5,121.5C 92.5,121.5 86.5,121.5 80.5,121.5C 79.9702,125.285 78.9702,128.952 77.5,132.5C 74.2317,133.487 70.8984,133.82 67.5,133.5C 72.8593,114.06 78.5259,94.727 84.5,75.5C 87.8333,74.1667 91.1667,74.1667 94.5,75.5 Z"/></g>
<g><path style="opacity:1" fill="#d43f3d" d="M 88.5,94.5 C 91.6336,99.5558 93.6336,105.222 94.5,111.5C 91.1667,111.5 87.8333,111.5 84.5,111.5C 85.8333,105.833 87.1667,100.167 88.5,94.5 Z"/></g>
<g><path style="opacity:1" fill="#621817" d="M 94.5,75.5 C 91.1667,74.1667 87.8333,74.1667 84.5,75.5C 85.6936,74.2227 87.3603,73.5561 89.5,73.5C 91.6397,73.5561 93.3064,74.2227 94.5,75.5 Z"/></g>
<g><path style="opacity:1" fill="#b43836" d="M 5.5,46.5 C 135.334,46.1671 265.001,46.5004 394.5,47.5C 394.167,47.5 393.833,47.5 393.5,47.5C 264.5,47.5 135.5,47.5 6.5,47.5C 6.5,69.5 6.5,91.5 6.5,113.5C 5.50408,127.657 5.17075,141.99 5.5,156.5C 4.16667,119.833 4.16667,83.1667 5.5,46.5 Z"/></g>
<g><path style="opacity:1" fill="#66201e" d="M 5.5,46.5 C 6.20895,45.596 7.20895,45.2627 8.5,45.5C 137.167,45.5 265.833,45.5 394.5,45.5C 394.833,45.5 395.167,45.5 395.5,45.5C 395.832,82.6704 395.498,119.67 394.5,156.5C 394.5,120.167 394.5,83.8333 394.5,47.5C 265.001,46.5004 135.334,46.1671 5.5,46.5 Z"/></g>
<g><path style="opacity:0.078" fill="#09000b" d="M 397.5,157.5 C 398.833,158.167 398.833,158.167 397.5,157.5 Z"/></g>
<g><path style="opacity:0.116" fill="#0d0108" d="M 3.5,161.5 C 5.41444,162.185 7.41444,162.685 9.5,163C 8.5,163.167 7.5,163.333 6.5,163.5C 4.97041,163.36 3.97041,162.693 3.5,161.5 Z"/></g>
<g><path style="opacity:0.116" fill="#0d0108" d="M 395.5,161.5 C 396.043,161.56 396.376,161.893 396.5,162.5C 394.579,163.641 392.579,163.808 390.5,163C 392.382,162.802 394.048,162.302 395.5,161.5 Z"/></g>
<g><path style="opacity:0.135" fill="#0e0104" d="M 6.5,166.5 C 9.13678,168.154 8.80345,168.654 5.5,168C 6.05596,167.617 6.38929,167.117 6.5,166.5 Z"/></g>
<g><path style="opacity:0.135" fill="#0e0104" d="M 392.5,166.5 C 395.137,168.154 394.803,168.654 391.5,168C 392.056,167.617 392.389,167.117 392.5,166.5 Z"/></g>
<g><path style="opacity:0.093" fill="#08040d" d="M 10.5,166.5 C 12.3675,167.786 12.5342,169.119 11,170.5C 9.23173,169.318 9.06507,167.985 10.5,166.5 Z"/></g>
<g><path style="opacity:0.093" fill="#08040d" d="M 388.5,166.5 C 390.852,167.543 391.019,168.876 389,170.5C 387.489,169.436 387.323,168.103 388.5,166.5 Z"/></g>
<g><path style="opacity:0.078" fill="#000c03" d="M 3.5,169.5 C 4.83333,170.167 4.83333,170.167 3.5,169.5 Z"/></g>
<g><path style="opacity:0.078" fill="#000c03" d="M 395.5,169.5 C 396.833,170.167 396.833,170.167 395.5,169.5 Z"/></g>
</svg>
